<svg width="62" height="62" viewBox="0 0 62 62" fill="none" xmlns="http://www.w3.org/2000/svg">
<g clip-path="url(#clip0_635_5571)">
<path d="M48.4655 52.8915C49.8448 52.396 51.2414 51.9176 52.6207 51.4221C53.6035 51.0804 54.4483 50.4824 55.1207 49.6623C55.8793 48.7226 56.1552 47.6803 55.931 46.5697C55.6724 45.3737 55.0345 44.3999 54.1207 43.836C53.1897 43.2551 51.9828 43.1013 50.7414 43.426C48.7931 43.9215 46.8966 44.434 44.9138 44.9979C44.0345 45.2371 43.1724 45.4933 42.2759 45.7325L42.0172 45.8009L41.9138 45.5446C41.3448 44.0581 40.2069 43.0843 38.3621 42.4863C36.1897 41.7857 33.9655 41.034 31.1379 40.0601C30.7931 39.9405 30.4483 39.7013 30.1379 39.4108C28.0345 37.2751 25.5 36.4208 22.569 36.865C20.6552 37.1726 18.9655 38.2832 17.431 40.248C17.1379 40.6239 16.8276 40.7777 16.3448 40.7777C13.2241 40.7606 10.0517 40.7606 7 40.7777C6.2931 40.7606 6 41.0511 6 41.7516C6 46.1939 6 50.6191 6 55.0614C6 55.7106 6.27586 56.0182 6.86207 56.0182C8.82759 56.0353 10.9655 56.0353 13.1897 56.0182C13.7586 56.0182 14.0517 55.7277 14.0862 55.0955C14.1034 54.9247 14.0862 54.7367 14.0862 54.5659V54.0021H15.8448C16.3448 54.0021 16.8276 54.0021 17.3103 54.0021C17.7931 54.0021 18.0862 53.797 18.1897 53.387C18.2069 53.2845 18.2241 53.1819 18.2414 53.0794L18.3276 52.5669L18.6207 52.6181C18.7414 52.6352 18.8448 52.6523 18.9655 52.6523C19.2586 52.6864 19.5345 52.7035 19.7931 52.8231C20.931 53.3015 22.0345 53.8141 23.069 54.3096C23.7759 54.6513 24.4655 55.0101 25.2931 55.4373C26.5172 56.0694 27.7759 56.7187 29.0345 57.2825C31.2241 58.2564 33.6035 58.2564 36.3276 57.2483C40.2931 55.779 44.3621 54.3438 48.3103 52.9598L48.4655 52.8915ZM12.4138 54.3779H7.60345V42.4008H12.4138V54.3779ZM16.5862 52.3789H14.1379V42.4008H16.5862V52.3789ZM35.8966 55.6765C35.1379 55.9498 34.3966 56.189 33.6207 56.3428C33.2241 56.4111 32.8276 56.4624 32.4483 56.4624C31.431 56.4624 30.4138 56.2061 29.4138 55.7277C27.431 54.7538 25.3276 53.6945 23.2586 52.5669C21.9655 51.8492 20.3793 51.1146 18.5345 51.0462L18.2414 51.0291V48.3296C18.2414 46.416 18.2414 44.434 18.2586 42.4863C18.2586 42.1104 18.3966 41.7174 18.6034 41.4269C19.4483 40.2822 20.8103 38.7274 23 38.4369C25.4828 38.0952 27.6034 38.8812 29.2586 40.8119C29.4828 41.0681 29.7931 41.2903 30.069 41.3928C31.8448 42.0079 33.6724 42.6229 35.431 43.2039L38.1035 44.1094C39.0517 44.434 40.1897 44.9808 40.4655 46.3818C40.6207 47.1678 40.3621 47.9708 39.7759 48.5517C39.2241 49.0814 38.4655 49.2864 37.7414 49.1326C36.6897 48.8934 35.6552 48.5517 34.6552 48.2271C34.2759 48.1075 33.8793 47.9708 33.5 47.8512C31.6379 47.2703 29.6897 46.6552 27.6724 46.0401C27.5 45.9888 27.069 45.8863 26.8621 46.228C26.7069 46.4672 26.6552 46.8431 26.7069 47.0823C26.7414 47.219 27 47.4411 27.2241 47.5266L27.8448 47.7316C30.8621 48.7055 34 49.7135 37.0862 50.6362C39.069 51.2342 41.1724 50.1236 41.8621 48.1075C42.0172 47.6291 42.2931 47.3728 42.7931 47.2532C44 46.9285 45.2069 46.6039 46.4138 46.2622C47.8448 45.8692 49.2931 45.4763 50.7241 45.0833C51.2241 44.9466 51.7069 44.8953 52.1724 44.9295C53.0345 44.9808 53.7586 45.4592 54.1379 46.211C54.5172 46.9798 54.4655 47.8683 53.9828 48.5859C53.5517 49.2351 52.931 49.6794 52.069 49.9869L46.8276 51.8492C43.1724 53.0965 39.5345 54.3779 35.8966 55.6765Z" fill="#2A2A2A"/>
<path d="M52.9824 25.4176C53.2582 25.2296 53.5341 25.0417 53.8272 24.8708L53.8961 24.8366C54.3789 24.5291 54.8444 24.2215 55.3099 23.8798C55.4996 23.7431 55.672 23.5723 55.8617 23.3673C55.8961 23.3331 55.9306 23.2989 55.9651 23.2477L55.9996 23.1964V22.7863L55.8444 22.6326C55.6548 22.4617 55.4651 22.2738 55.2582 22.1542C54.7237 21.8637 54.172 21.6245 53.5513 21.3511L53.4824 21.317C53.2237 21.1974 52.9479 21.0778 52.672 20.9411L52.4134 20.8215L52.8099 20.531C52.9479 20.4285 53.0686 20.3431 53.2065 20.2577C53.4306 20.1039 53.672 19.9501 53.9134 19.7963L54.0858 19.6767C54.5341 19.3863 54.9651 19.0958 55.3961 18.7883C55.5341 18.6858 55.672 18.532 55.8099 18.3611L55.8617 18.2928C55.8961 18.2586 55.9306 18.2074 55.9651 18.1732L55.9996 18.1219V17.8486L55.9824 17.7802C55.8444 17.5069 55.6548 17.336 55.3099 17.1822C52.4824 15.8837 49.6548 14.5681 46.8272 13.2525C44.0858 11.9711 41.3272 10.7067 38.5686 9.44238C36.5686 8.51974 34.5168 7.6142 32.5513 6.72574L32.2927 6.60614C31.1548 6.09357 30.0168 5.59808 28.8961 5.08551C28.6203 4.94882 28.3789 4.96591 28.103 5.13677L15.9479 12.7741C15.672 12.945 15.4996 13.1842 15.3961 13.4917V13.6113L15.4134 13.6796C15.5341 14.0214 15.7755 14.2264 16.172 14.3972C16.9651 14.739 17.741 15.1148 18.603 15.5078L19.1203 15.747L18.8789 15.9179C18.3272 16.2596 17.7755 16.6013 17.2582 16.9259L16.3617 17.4898C16.1548 17.6094 16.0168 17.6948 15.8789 17.7973C15.5858 17.9682 15.4651 18.1903 15.4824 18.5149C15.4996 18.8225 15.6548 19.0617 15.9479 19.1983C16.4134 19.4375 16.8961 19.6426 17.3789 19.8647L19.103 20.6848L18.5513 21.0436C18.4306 21.129 18.3272 21.1974 18.2065 21.2657L17.672 21.6074C17.1203 21.9491 16.5513 22.3079 15.9996 22.6838C15.8444 22.7863 15.7065 22.9572 15.5686 23.111L15.3789 23.3331V23.6406L15.3961 23.709C15.5341 23.9823 15.741 24.1532 16.0858 24.307C16.5513 24.512 17.0168 24.7341 17.4824 24.9392L17.7927 25.0758C18.1375 25.2296 18.4824 25.4005 18.8444 25.5542L19.1203 25.6738L17.7755 26.5281C17.241 26.8528 16.7237 27.1774 16.2065 27.5191L16.0858 27.5874C15.9651 27.6558 15.8444 27.7412 15.7237 27.8437C15.5513 28.0146 15.4651 28.2367 15.4824 28.4759C15.4996 28.698 15.603 28.903 15.7927 29.0226C15.9306 29.1422 16.103 29.2106 16.2237 29.2618L19.103 30.6287C21.3961 31.7051 23.672 32.7986 25.9651 33.8921L29.5858 35.6177C33.8272 37.6339 38.0686 39.6671 42.2927 41.6832C42.4824 41.7686 42.6375 41.8199 42.8099 41.8199C43.0341 41.8199 43.241 41.7344 43.4824 41.5807C45.241 40.4188 46.9824 39.2741 48.741 38.1123L49.3961 37.6851C51.3617 36.3866 53.3444 35.0881 55.3099 33.7896C55.4996 33.67 55.672 33.4991 55.8444 33.2941L55.9996 33.1232V32.7303L55.8272 32.5594C55.6548 32.3885 55.4651 32.2006 55.2755 32.0981C54.6548 31.7735 53.9996 31.483 53.4134 31.2267L52.4479 30.7825L52.8099 30.5091C52.8444 30.4749 52.8789 30.4408 52.9134 30.4237L53.0341 30.3382C53.8099 29.8428 54.6203 29.3131 55.3789 28.7834C55.5341 28.6809 55.672 28.5101 55.8099 28.3563L55.9996 28.1171V27.7925L55.9824 27.7241C55.8617 27.4508 55.6548 27.2799 55.3444 27.1432C54.7755 26.8869 54.2065 26.6306 53.6203 26.3573L52.4479 25.8105L52.7927 25.5372C52.8617 25.503 52.9134 25.4517 52.9824 25.4176ZM53.8099 28.0488L53.603 28.2196C53.4479 28.3392 53.3617 28.4076 53.2755 28.4759L50.7237 30.1503C48.2065 31.8076 45.6892 33.4649 43.1892 35.1223C42.9134 35.3102 42.7065 35.3273 42.4134 35.1906C39.4306 33.7554 36.3961 32.3202 33.4651 30.9363C33.1203 30.7825 32.9996 30.5604 33.0168 30.1845C33.0341 29.5694 33.0341 28.9543 33.0341 28.305V27.3653L34.5686 28.1C35.9651 28.7664 37.3444 29.4156 38.6892 30.082L39.8961 30.6458C40.741 31.0388 41.5858 31.4317 42.4306 31.8589C42.7755 32.0127 43.0341 31.9956 43.3617 31.7905C44.3444 31.1413 45.3099 30.492 46.2927 29.8598L46.9651 29.4156C48.172 28.6297 49.3617 27.8266 50.5686 27.0236C50.8444 26.8357 51.103 26.8186 51.3961 26.9553C51.8961 27.2116 52.4134 27.4337 52.9479 27.69L53.0341 27.5533L52.9651 27.707L53.8099 28.0488ZM53.8617 33.0207L53.6375 33.1745C53.4306 33.3112 53.2755 33.4137 53.103 33.5162C49.8272 35.669 46.5168 37.8389 43.2237 40.043C42.9479 40.248 42.7065 40.2651 42.3789 40.1113L41.6893 39.7867C38.9651 38.4882 36.2237 37.1896 33.4996 35.8911C33.1375 35.7203 33.0168 35.4981 33.0341 35.071C33.0513 34.473 33.0513 33.8579 33.0513 33.2257V32.3202L33.4479 32.4911C33.5686 32.5423 33.672 32.5765 33.7755 32.6448L36.9824 34.1484C38.7755 34.9856 40.5686 35.8399 42.3617 36.6941C42.7582 36.8821 43.0686 36.865 43.4306 36.6258C44.8617 35.6519 46.3444 34.6951 47.7582 33.7554L47.8444 33.7041C48.7582 33.1061 49.672 32.5081 50.5858 31.9101C50.8789 31.7222 51.1203 31.7051 51.4306 31.8589C51.9996 32.1493 52.5686 32.4227 53.1548 32.6961L53.241 32.5594L53.172 32.7132L53.8617 33.0207ZM48.4479 26.6477C46.7065 27.7925 44.9479 28.9543 43.2065 30.1161C42.9306 30.3212 42.6548 30.3382 42.3272 30.1845C39.9479 29.0397 37.5686 27.9121 35.1893 26.7844L33.4824 25.9814C33.1203 25.8276 32.9824 25.6055 32.9996 25.1784C33.0341 24.5804 33.0168 23.9653 33.0168 23.4356V22.4105L33.4306 22.5984C33.5341 22.6497 33.6375 22.6838 33.741 22.7351L35.9134 23.7602C38.0686 24.7854 40.2237 25.7934 42.3617 26.8357C42.7582 27.0065 43.0513 26.9894 43.3961 26.7673C44.4134 26.0839 45.4479 25.4176 46.4651 24.7512L47.1892 24.2728C48.3099 23.5381 49.4306 22.7863 50.5513 22.0517C50.8789 21.8466 51.1203 21.8295 51.4134 21.9833C51.8789 22.2054 52.3272 22.4105 52.8272 22.6497L52.9306 22.7009C53.1548 22.8034 53.3789 22.9059 53.603 23.0085L53.8444 23.1281L53.6203 23.2989C53.4824 23.4014 53.3444 23.5039 53.1375 23.5894C51.7927 24.4778 50.4134 25.3834 49.0513 26.2889L48.4479 26.6477ZM43.172 25.1784C42.9824 25.315 42.672 25.3663 42.4824 25.2638C39.741 23.9653 36.9996 22.6667 34.2582 21.3682C34.1892 21.3341 34.1375 21.2999 34.0341 21.2315L33.8444 21.0949L33.9824 20.9411C34.1203 20.8215 34.2237 20.7361 34.3617 20.6506L36.8099 18.8225C39.0168 17.1651 41.2237 15.5249 43.4306 13.8505C43.7582 13.6113 44.0168 13.5771 44.3789 13.748C46.2237 14.6023 48.0858 15.4566 49.9479 16.3108L53.2065 17.7973C53.3272 17.8657 53.4306 17.9169 53.5858 17.9853L53.8272 18.1049L53.5168 18.3441C53.4306 18.4124 53.3617 18.4637 53.2927 18.4978L50.0168 20.6506C47.7582 22.1883 45.4651 23.6919 43.172 25.1784ZM20.9651 26.5794C22.6893 27.3995 24.241 28.1342 25.7065 28.8347C25.8444 28.886 26.0341 29.1081 26.0341 29.3131C26.0513 29.9624 26.0513 30.6287 26.0513 31.3463V32.3373L25.8099 32.2177C23.9996 31.3634 22.2237 30.5091 20.4134 29.6548L17.6203 28.3221L17.8789 28.1684C18.7755 27.6045 19.603 27.0749 20.4479 26.5623C20.5858 26.4598 20.8099 26.494 20.9651 26.5794ZM20.9651 16.6867C22.4651 17.3872 24.0168 18.1219 25.7065 18.925C25.8272 18.9762 26.0341 19.1642 26.0341 19.3521C26.0513 20.0185 26.0513 20.6848 26.0513 21.4024V22.4105L25.8099 22.2909C24.0341 21.4366 22.2927 20.6165 20.5168 19.7793L17.6203 18.4295L18.172 18.0878C18.9479 17.5923 19.6893 17.131 20.3961 16.7209C20.5686 16.6184 20.7927 16.6184 20.9651 16.6867ZM20.9479 21.5733C22.4479 22.2738 23.9651 22.9914 25.4306 23.6919L25.7065 23.8286C25.8617 23.9311 26.0341 24.119 26.0341 24.2899C26.0513 24.9562 26.0513 25.6226 26.0513 26.3573V27.3653L25.8099 27.2457C24.3617 26.5623 22.9306 25.8789 21.4996 25.1954C20.3099 24.6316 19.103 24.0507 17.8789 23.4698L17.603 23.3502L20.4134 21.5733C20.603 21.5049 20.8099 21.522 20.9479 21.5733ZM31.741 31.1584V35.0539L31.4996 34.9514C30.6893 34.5755 29.9996 34.2509 29.3099 33.9092L28.8961 33.7041C28.4996 33.5162 28.103 33.3283 27.7065 33.1574C27.4306 33.0549 27.3099 32.8669 27.3099 32.5252C27.3099 28.1342 27.3099 23.7773 27.3272 19.3863C27.3272 19.1813 27.4651 18.8908 27.6203 18.7712C30.6893 16.4475 34.0341 13.9701 37.8099 11.151C37.8961 11.0997 38.0686 11.0143 38.2237 11.0143C38.2755 11.0143 38.3444 11.0314 38.3961 11.0484H38.4134C39.4134 11.4927 40.4134 11.9369 41.4134 12.3982L42.0341 12.6887C42.0686 12.7058 42.1203 12.757 42.1548 12.7912L42.3099 12.9279L41.9996 13.2012C41.9306 13.2525 41.8617 13.3038 41.8099 13.355L39.103 15.354C36.8099 17.0626 34.5686 18.7541 32.2755 20.4456C31.8789 20.7531 31.7065 21.0949 31.7065 21.6587C31.741 24.7683 31.741 27.8096 31.741 31.1584ZM36.4134 10.3992C36.2582 10.5359 36.1375 10.6213 36.0341 10.7067L26.9996 17.4556C26.741 17.6606 26.4996 17.6948 26.1893 17.541C24.2237 16.6013 22.2582 15.6616 20.2755 14.7219L18.3444 13.8163C18.2927 13.7822 18.2237 13.748 18.1375 13.6967C18.0686 13.6626 18.0168 13.6284 17.9306 13.5942L17.6893 13.4917L17.9996 13.2525C18.0858 13.1842 18.1548 13.1329 18.241 13.0816C21.5858 10.963 24.9479 8.84437 28.241 6.777C28.4134 6.6574 28.7065 6.62323 28.8789 6.69157C31.241 7.75089 33.5686 8.82729 35.9134 9.92078L36.5686 10.2625L36.4134 10.3992Z" fill="#2A2A2A"/>
</g>
<defs>
<clipPath id="clip0_635_5571">
<rect width="50" height="53" fill="white" transform="translate(6 5)"/>
</clipPath>
</defs>
</svg>
