<svg width="62" height="62" viewBox="0 0 62 62" fill="none" xmlns="http://www.w3.org/2000/svg">
<g clip-path="url(#clip0_635_5237)">
<path d="M28.1699 6.7405V13.8831C19.9488 15.0325 13.7297 22.0438 13.7297 30.5C13.7297 38.9562 19.9488 45.9675 28.1699 47.1169V54.2595C15.9614 53.0773 6.64093 42.9462 6.64093 30.5C6.64093 18.0538 15.9614 7.92273 28.1699 6.7405ZM29.8108 5C16.0434 5.37766 5 16.6417 5 30.5C5 44.3583 16.0434 55.6223 29.8108 56V45.6227C21.7703 45.245 15.3707 38.6278 15.3707 30.5C15.3707 22.3722 21.7703 15.755 29.8108 15.3773V5Z" fill="#2A2A2A"/>
<path d="M33.1419 6.78976C37.6873 7.29878 42.0029 9.10496 45.5637 12.0113L40.5261 17.0522C38.3436 15.4266 35.8002 14.3593 33.1255 13.9324V6.78976H33.1419ZM31.501 5.01642V15.3938C35.0126 15.6236 38.196 17.0357 40.6573 19.2524L47.9759 11.9292C43.6274 7.85705 37.8678 5.26272 31.501 5.01642Z" fill="#2A2A2A"/>
<path d="M49.0918 15.5251C51.9634 19.0882 53.752 23.4066 54.2279 27.9549H47.0898C46.6796 25.2949 45.6294 22.7498 44.0377 20.566L49.0918 15.5251ZM49.1738 13.1114L41.8389 20.4511C44.0213 22.914 45.4161 26.0995 45.6294 29.5969H56.0001C55.7703 23.226 53.2269 17.4627 49.1738 13.1114Z" fill="#2A2A2A"/>
<path d="M40.5753 43.8986L45.6129 48.9395C42.0357 51.8786 37.7037 53.7012 33.1419 54.2102V47.0676C35.833 46.6407 38.3929 45.5406 40.5753 43.8986ZM40.6902 41.6819C38.2288 43.915 35.029 45.3764 31.501 45.6062V55.9836C37.9006 55.7373 43.6767 53.1265 48.0087 49.0216L40.6902 41.6819Z" fill="#2A2A2A"/>
<path d="M54.2447 32.9301C53.7688 37.4784 51.9966 41.8133 49.125 45.3928L44.0873 40.3519C45.6954 38.1516 46.7292 35.623 47.123 32.9301H54.2447ZM56.0005 31.2882H45.6298C45.4493 34.802 44.0545 37.9874 41.8721 40.4668L49.1906 47.7901C53.2437 43.4388 55.7871 37.6755 56.0005 31.2882Z" fill="#2A2A2A"/>
<path d="M28.5469 32.7003C29.6299 32.4704 30.4832 32.0763 31.0575 31.5344C31.681 30.9597 32.0749 30.2209 32.2225 29.3178L32.2882 28.9729H35.8162V27.2981H32.2882L32.2061 26.9862C32.1241 26.6906 32.0256 26.4115 31.8779 26.1652C31.8287 26.0831 31.7959 26.0174 31.7467 25.9517L31.2872 25.3113H35.8162V23.6365H25.4619V25.3113H27.0536C27.6772 25.3113 28.153 25.3442 28.5304 25.4263C28.9079 25.5084 29.2032 25.6397 29.433 25.8203C29.6627 26.001 29.8432 26.198 29.9909 26.4443C30.0401 26.5264 30.0893 26.6249 30.1386 26.7234L30.4011 27.2981H25.4619V28.9729H30.4175L30.2206 29.5312C30.0893 29.876 29.9088 30.1716 29.6627 30.4015C29.515 30.5328 29.3673 30.6478 29.2032 30.7299C29.0391 30.8284 28.8422 30.9105 28.6125 30.9762C28.3828 31.0418 28.1202 31.0747 27.8248 31.1075C27.5295 31.1404 27.1685 31.1568 26.7747 31.1568H25.7081L25.4783 32.8644L30.6637 38.9398H33.0758L27.8741 32.8316L28.5469 32.7003Z" fill="#2A2A2A"/>
</g>
<defs>
<clipPath id="clip0_635_5237">
<rect width="51" height="51" fill="white" transform="translate(5 5)"/>
</clipPath>
</defs>
</svg>
