<svg width="22" height="22" viewBox="0 0 22 22" fill="none" xmlns="http://www.w3.org/2000/svg">
<path d="M0 15.0526C0.0572917 14.636 0.103698 14.2184 0.171875 13.8042C0.3165 12.9593 0.564327 12.1354 0.909792 11.3509C0.925833 11.3137 0.948177 11.2782 0.976823 11.2255L3.67641 12.8514C3.23234 13.7527 2.97658 14.735 2.92474 15.7383H0V15.0526Z" fill="#B8B8B8"/>
<path d="M17.3532 15.7216C17.2788 14.2768 16.7743 12.8872 15.9043 11.7312L19.2593 8.52289C21.0279 10.6031 21.9216 12.9916 21.9606 15.721L17.3532 15.7216Z" fill="#B8B8B8"/>
<path d="M12.1357 9.14063C12.326 7.71636 12.5133 6.31673 12.7035 4.89246C14.8582 5.24537 16.7271 6.14886 18.3582 7.60522L15.0404 10.7775C14.2104 10.0165 13.2166 9.45644 12.1357 9.14063Z" fill="#B8B8B8"/>
<path d="M4.35388 11.7578L1.56836 10.0803C2.33335 8.81026 3.3466 7.70756 4.54753 6.83813C5.25508 7.81897 5.94945 8.78605 6.65299 9.76001C5.75606 10.2588 4.97302 10.9392 4.35388 11.7578Z" fill="#B8B8B8"/>
<path fill-rule="evenodd" clip-rule="evenodd" d="M10.8744 8.85949C9.74388 8.72686 8.71266 8.90215 7.84467 9.2043C7.81779 9.16428 7.8006 9.13875 7.79638 9.13291C7.23711 8.36779 6.68335 7.59957 6.12252 6.82155C5.96063 6.59695 5.79814 6.37154 5.63477 6.14515C7.44003 5.14885 9.35358 4.69624 11.4212 4.76557C11.3436 5.34489 11.267 5.92019 11.1906 6.49394C11.0855 7.2832 10.9808 8.06956 10.8744 8.85949Z" fill="#B8B8B8"/>
<path fill-rule="evenodd" clip-rule="evenodd" d="M10.0539 14.0005L13.4998 9.93795L11.7044 14.9536C12.0751 15.5587 12.1114 16.3424 11.7316 17.0001C11.1793 17.9567 9.95617 18.2845 8.99958 17.7322C8.043 17.1799 7.71525 15.9567 8.26753 15.0001C8.64734 14.3423 9.34443 13.9818 10.0539 14.0005ZM10.8658 16.5001C10.5897 16.9784 9.97806 17.1423 9.49977 16.8662C9.02148 16.59 8.8576 15.9784 9.13374 15.5001C9.40988 15.0218 10.0215 14.858 10.4998 15.1341C10.9781 15.4102 11.1419 16.0218 10.8658 16.5001Z" fill="#B8B8B8"/>
</svg>
