<svg width="22" height="22" viewBox="0 0 22 22" fill="none" xmlns="http://www.w3.org/2000/svg">
<path d="M0 15.0525C0.0572917 14.636 0.103698 14.2184 0.171875 13.8041C0.3165 12.9593 0.564327 12.1354 0.909792 11.3509C0.925833 11.3137 0.948177 11.2781 0.976823 11.2254L3.67641 12.8514C3.23234 13.7526 2.97658 14.7349 2.92474 15.7383H0V15.0525Z" fill="#B8B8B8"/>
<path d="M17.3532 15.7216C17.2788 14.2768 16.7743 12.8872 15.9043 11.7312L19.2593 8.52289C21.0279 10.6031 21.9216 12.9916 21.9606 15.721L17.3532 15.7216Z" fill="#B8B8B8"/>
<path d="M12.1367 9.1406C12.3269 7.71633 12.5143 6.3167 12.7045 4.89243C14.8592 5.24534 16.7281 6.14883 18.3592 7.60519L15.0414 10.7774C14.2114 10.0164 13.2176 9.4564 12.1367 9.1406Z" fill="#B8B8B8"/>
<path d="M4.35388 11.7578L1.56836 10.0803C2.33335 8.81026 3.3466 7.70756 4.54753 6.83813C5.25508 7.81897 5.94945 8.78605 6.65299 9.76001C5.75606 10.2588 4.97302 10.9392 4.35388 11.7578Z" fill="#B8B8B8"/>
<path fill-rule="evenodd" clip-rule="evenodd" d="M10.8744 8.85959C9.74383 8.72679 8.71255 8.90195 7.84448 9.20401C7.81771 9.16416 7.80059 9.13874 7.79638 9.13291C7.23711 8.36779 6.68335 7.59957 6.12252 6.82155C5.96063 6.59695 5.79814 6.37154 5.63477 6.14515C7.44003 5.14885 9.35358 4.69624 11.4212 4.76557C11.3436 5.34489 11.267 5.92019 11.1906 6.49394C11.0855 7.28324 10.9808 8.06962 10.8744 8.85959Z" fill="#B8B8B8"/>
<path fill-rule="evenodd" clip-rule="evenodd" d="M8.42777 14.7628L3.10039 14.8134L8.10474 16.6413C8.33279 17.3132 8.91206 17.8424 9.66053 17.9711C10.7491 18.1584 11.7834 17.4277 11.9706 16.3391C12.1579 15.2505 11.4272 14.2163 10.3386 14.029C9.59008 13.9003 8.86721 14.2055 8.42777 14.7628ZM9.83046 16.9856C10.3747 17.0792 10.8919 16.7139 10.9855 16.1696C11.0791 15.6253 10.7138 15.1082 10.1695 15.0146C9.62521 14.9209 9.10808 15.2863 9.01445 15.8306C8.92083 16.3748 9.28617 16.892 9.83046 16.9856Z" fill="#B8B8B8"/>
</svg>
