<svg width="62" height="66" viewBox="0 0 62 66" fill="none" xmlns="http://www.w3.org/2000/svg">
<g clip-path="url(#clip0_1061_12718)">
<path d="M52.6572 59.5562C54.3676 58.9418 56.0993 58.3486 57.8097 57.7342C59.0283 57.3105 60.0759 56.5689 60.9097 55.552C61.8503 54.3867 62.1924 53.0944 61.9145 51.7173C61.5938 50.2342 60.8028 49.0266 59.6697 48.3275C58.5152 47.6071 57.0186 47.4164 55.4793 47.819C53.0634 48.4334 50.7117 49.069 48.2531 49.7681C47.1628 50.0647 46.0938 50.3825 44.9821 50.6791L44.6614 50.7639L44.5331 50.4461C43.8276 48.6029 42.4166 47.3953 40.129 46.6537C37.4352 45.7851 34.6772 44.8529 31.171 43.6453C30.7434 43.497 30.3159 43.2004 29.931 42.8402C27.3228 40.1919 24.18 39.1326 20.5455 39.6834C18.1724 40.0648 16.0772 41.4419 14.1745 43.8783C13.811 44.3444 13.4262 44.5351 12.8276 44.5351C8.95793 44.5139 5.02414 44.5139 1.24 44.5351C0.363448 44.5139 0 44.8741 0 45.7427C0 51.2512 0 56.7384 0 62.2469C0 63.052 0.342069 63.4333 1.06897 63.4333C3.50621 63.4545 6.15724 63.4545 8.91517 63.4333C9.62069 63.4333 9.98414 63.0731 10.0269 62.2893C10.0483 62.0774 10.0269 61.8443 10.0269 61.6325V60.9333H12.2076C12.8276 60.9333 13.4262 60.9333 14.0248 60.9333C14.6234 60.9333 14.9869 60.6791 15.1152 60.1706C15.1366 60.0435 15.1579 59.9164 15.1793 59.7893L15.2862 59.1537L15.6497 59.2172C15.7993 59.2384 15.9276 59.2596 16.0772 59.2596C16.4407 59.302 16.7828 59.3232 17.1034 59.4715C18.5145 60.0647 19.8828 60.7003 21.1655 61.3147C22.0421 61.7384 22.8972 62.1833 23.9234 62.713C25.4414 63.4969 27.0021 64.302 28.5628 65.0011C31.2779 66.2087 34.2283 66.2087 37.6062 64.9587C42.5234 63.1367 47.569 61.3571 52.4648 59.641L52.6572 59.5562ZM7.9531 61.3994H1.98828V46.5478H7.9531V61.3994ZM13.1269 58.9206H10.091V46.5478H13.1269V58.9206ZM37.0717 63.0096C36.131 63.3486 35.2117 63.6452 34.2497 63.8359C33.7579 63.9206 33.2662 63.9842 32.7959 63.9842C31.5345 63.9842 30.2731 63.6664 29.0331 63.0731C26.5745 61.8655 23.9662 60.552 21.4007 59.1537C19.7972 58.2638 17.8303 57.3528 15.5428 57.2681L15.1793 57.2469V53.8995C15.1793 51.5266 15.1793 49.069 15.2007 46.6537C15.2007 46.1876 15.3717 45.7004 15.6283 45.3402C16.6759 43.9207 18.3648 41.9927 21.08 41.6326C24.1586 41.2088 26.7883 42.1834 28.8407 44.5775C29.1186 44.8953 29.5034 45.1707 29.8455 45.2978C32.0476 46.0605 34.3138 46.8232 36.4945 47.5436L39.8083 48.6664C40.9841 49.069 42.3952 49.7469 42.7372 51.4842C42.9297 52.4588 42.609 53.4545 41.8821 54.1749C41.1979 54.8317 40.2572 55.0859 39.3593 54.8952C38.0552 54.5986 36.7724 54.1749 35.5324 53.7723C35.0621 53.624 34.5703 53.4545 34.1 53.3062C31.791 52.5859 29.3752 51.8232 26.8738 51.0605C26.66 50.9969 26.1255 50.8698 25.869 51.2935C25.6766 51.5902 25.6124 52.0563 25.6766 52.3529C25.7193 52.5224 26.04 52.7978 26.3179 52.9037L27.0876 53.1579C30.829 54.3656 34.72 55.6156 38.5469 56.7596C41.0055 57.5011 43.6138 56.124 44.469 53.624C44.6614 53.0308 45.0034 52.713 45.6235 52.5647C47.12 52.1622 48.6166 51.7596 50.1131 51.3359C51.8876 50.8486 53.6835 50.3613 55.4579 49.8741C56.0779 49.7046 56.6766 49.641 57.2538 49.6834C58.3228 49.7469 59.2207 50.3402 59.691 51.2724C60.1614 52.2257 60.0972 53.3274 59.4986 54.2173C58.9641 55.0223 58.1945 55.5732 57.1255 55.9545L50.6262 58.2638C46.0938 59.8105 41.5828 61.3994 37.0717 63.0096Z" fill="#2A2A2A"/>
<path d="M58.2582 25.4878C58.6002 25.2548 58.9423 25.0217 59.3057 24.8099L59.3913 24.7675C59.9899 24.3861 60.5671 24.0048 61.1444 23.581C61.3795 23.4116 61.5933 23.1997 61.8285 22.9455C61.8713 22.9031 61.914 22.8607 61.9568 22.7972L61.9995 22.7336V22.2251L61.8071 22.0344C61.572 21.8226 61.3368 21.5895 61.0802 21.4412C60.4175 21.0811 59.7333 20.7844 58.9637 20.4455L58.8782 20.4031C58.5575 20.2548 58.2154 20.1065 57.8733 19.937L57.5526 19.7887L58.0444 19.4285C58.2154 19.3014 58.3651 19.1955 58.5361 19.0895C58.814 18.8989 59.1133 18.7082 59.4126 18.5175L59.6264 18.3692C60.1823 18.009 60.7168 17.6489 61.2513 17.2675C61.4223 17.1404 61.5933 16.9497 61.7644 16.7379L61.8285 16.6531C61.8713 16.6107 61.914 16.5472 61.9568 16.5048L61.9995 16.4413V16.1023L61.9782 16.0175C61.8071 15.6785 61.572 15.4667 61.1444 15.276C57.6382 13.6658 54.132 12.0345 50.6257 10.4031C47.2264 8.81417 43.8057 7.24638 40.3851 5.67859C37.9051 4.53453 35.3609 3.41166 32.9237 2.30997L32.603 2.16166C31.192 1.52607 29.7809 0.91167 28.3913 0.27608C28.0492 0.106589 27.7499 0.127775 27.4078 0.339639L12.3354 9.80993C11.9933 10.0218 11.7795 10.3184 11.6513 10.6998V10.8481L11.6726 10.9328C11.8223 11.3565 12.1216 11.6108 12.6133 11.8226C13.5968 12.2464 14.5588 12.7125 15.6278 13.1997L16.2692 13.4964L15.9699 13.7082C15.2857 14.1319 14.6016 14.5557 13.9602 14.9582L12.8485 15.6574C12.592 15.8057 12.4209 15.9116 12.2499 16.0387C11.8864 16.2506 11.7368 16.526 11.7582 16.9285C11.7795 17.3099 11.972 17.6065 12.3354 17.776C12.9126 18.0726 13.5113 18.3268 14.1099 18.6023L16.2478 19.6192L15.5637 20.0641C15.414 20.17 15.2857 20.2548 15.1361 20.3395L14.4733 20.7633C13.7892 21.187 13.0837 21.6319 12.3995 22.098C12.2071 22.2251 12.0361 22.437 11.8651 22.6277L11.6299 22.9031V23.2844L11.6513 23.3692C11.8223 23.7082 12.0788 23.92 12.5064 24.1107C13.0837 24.3649 13.6609 24.6404 14.2382 24.8946L14.623 25.0641C15.0506 25.2548 15.4782 25.4666 15.9271 25.6573L16.2692 25.8056L14.6016 26.8649C13.9388 27.2675 13.2975 27.67 12.6561 28.0937L12.5064 28.1785C12.3568 28.2632 12.2071 28.3692 12.0575 28.4963C11.8437 28.7081 11.7368 28.9836 11.7582 29.2802C11.7795 29.5556 11.9078 29.8098 12.143 29.9581C12.314 30.1064 12.5278 30.1912 12.6775 30.2547L16.2478 31.9496C19.0913 33.2844 21.9133 34.6403 24.7568 35.9962L29.2464 38.1361C34.5057 40.636 39.7651 43.1572 45.003 45.6572C45.2382 45.7631 45.4306 45.8267 45.6444 45.8267C45.9223 45.8267 46.1788 45.7208 46.4782 45.5301C48.6588 44.0894 50.8182 42.6699 52.9989 41.2293L53.8113 40.6996C56.2485 39.0894 58.7071 37.4793 61.1444 35.8691C61.3795 35.7208 61.5933 35.509 61.8071 35.2547L61.9995 35.0429V34.5556L61.7857 34.3437C61.572 34.1318 61.3368 33.8988 61.1016 33.7717C60.332 33.3691 59.5195 33.009 58.7926 32.6912L57.5954 32.1403L58.0444 31.8013C58.0871 31.759 58.1299 31.7166 58.1726 31.6954L58.3223 31.5895C59.2844 30.9751 60.2892 30.3183 61.2299 29.6615C61.4223 29.5344 61.5933 29.3225 61.7644 29.1319L61.9995 28.8353V28.4327L61.9782 28.348C61.8285 28.009 61.572 27.7971 61.1871 27.6276C60.4816 27.3098 59.7761 26.992 59.0492 26.6531L57.5954 25.9751L58.023 25.6361C58.1085 25.5937 58.1726 25.5302 58.2582 25.4878ZM59.2844 28.7505L59.0278 28.9624C58.8354 29.1107 58.7285 29.1954 58.6216 29.2802L55.4575 31.3564C52.3361 33.4115 49.2147 35.4666 46.1147 37.5217C45.7726 37.7547 45.5161 37.7759 45.1526 37.6064C41.454 35.8267 37.6913 34.0471 34.0568 32.331C33.6292 32.1403 33.4795 31.8649 33.5009 31.3988C33.5223 30.6361 33.5223 29.8734 33.5223 29.0683V27.9031L35.4251 28.8141C37.1568 29.6403 38.8671 30.4454 40.5347 31.2717L42.0313 31.9708C43.0788 32.4581 44.1264 32.9454 45.174 33.4751C45.6016 33.6657 45.9223 33.6446 46.3285 33.3903C47.5471 32.5852 48.7444 31.7802 49.963 30.9963L50.7968 30.4454C52.2933 29.4708 53.7685 28.4751 55.2651 27.4793C55.6071 27.2463 55.9278 27.2251 56.2913 27.3946C56.9113 27.7124 57.5526 27.9878 58.2154 28.3056L58.3223 28.1361L58.2368 28.3268L59.2844 28.7505ZM59.3485 34.9157L59.0706 35.1064C58.814 35.2759 58.6216 35.403 58.4078 35.5301C54.3457 38.1996 50.2409 40.8903 46.1575 43.6233C45.8154 43.8776 45.5161 43.8987 45.1099 43.7081L44.2547 43.3055C40.8768 41.6954 37.4775 40.0852 34.0995 38.475C33.6506 38.2632 33.5009 37.9878 33.5223 37.4581C33.5437 36.7166 33.5437 35.9539 33.5437 35.17V34.0471L34.0354 34.259C34.1851 34.3225 34.3133 34.3649 34.4416 34.4496L38.4182 36.314C40.6416 37.3522 42.8651 38.4115 45.0885 39.4708C45.5802 39.7038 45.9651 39.6827 46.414 39.3861C48.1885 38.1784 50.0271 36.992 51.7802 35.8267L51.8871 35.7632C53.0202 35.0217 54.1533 34.2801 55.2864 33.5386C55.6499 33.3056 55.9492 33.2844 56.334 33.4751C57.0395 33.8352 57.7451 34.1742 58.472 34.5132L58.5788 34.3437L58.4933 34.5344L59.3485 34.9157ZM52.6354 27.0132C50.4761 28.4327 48.2954 29.8734 46.1361 31.3141C45.794 31.5683 45.452 31.5895 45.0457 31.3988C42.0954 29.9793 39.1451 28.581 36.1947 27.1827L34.0782 26.187C33.6292 25.9963 33.4582 25.7209 33.4795 25.1912C33.5223 24.4497 33.5009 23.687 33.5009 23.0302V21.759L34.014 21.9921C34.1423 22.0556 34.2706 22.098 34.3988 22.1616L37.0926 23.4327C39.7651 24.7039 42.4375 25.9539 45.0885 27.2463C45.5802 27.4581 45.9437 27.437 46.3713 27.1615C47.6326 26.3141 48.9154 25.4878 50.1768 24.6615L51.0747 24.0683C52.4644 23.1573 53.854 22.2251 55.2437 21.3141C55.6499 21.0599 55.9492 21.0387 56.3126 21.2294C56.8899 21.5048 57.4457 21.759 58.0657 22.0556L58.194 22.1192C58.472 22.2463 58.7499 22.3734 59.0278 22.5005L59.3271 22.6488L59.0492 22.8607C58.8782 22.9878 58.7071 23.1149 58.4506 23.2209C56.783 24.3226 55.0726 25.4454 53.3837 26.5683L52.6354 27.0132ZM46.0933 25.1912C45.8582 25.3607 45.4733 25.4243 45.2382 25.2971C41.8388 23.687 38.4395 22.0768 35.0402 20.4667C34.9547 20.4243 34.8906 20.3819 34.7623 20.2972L34.5271 20.1277L34.6982 19.937C34.8692 19.7887 34.9975 19.6828 35.1685 19.5768L38.2044 17.3099C40.9409 15.2548 43.6775 13.2209 46.414 11.1447C46.8202 10.8481 47.1409 10.8057 47.5899 11.0176C49.8775 12.0769 52.1864 13.1362 54.4954 14.1955L58.5361 16.0387C58.6857 16.1235 58.814 16.187 59.0064 16.2718L59.3057 16.4201L58.9209 16.7167C58.814 16.8014 58.7285 16.865 58.643 16.9074L54.5809 19.5768C51.7802 21.4836 48.9368 23.348 46.0933 25.1912ZM18.5568 26.9285C20.6947 27.9454 22.6188 28.8564 24.4361 29.7251C24.6071 29.7886 24.8423 30.0641 24.8423 30.3183C24.8637 31.1234 24.8637 31.9496 24.8637 32.8395V34.0683L24.5644 33.92C22.3195 32.8607 20.1175 31.8013 17.8726 30.742L14.4092 29.0895L14.7299 28.8988C15.8416 28.1997 16.8678 27.5429 17.9154 26.9073C18.0864 26.7802 18.3644 26.8226 18.5568 26.9285ZM18.5568 14.6616C20.4168 15.5302 22.3409 16.4412 24.4361 17.437C24.5857 17.5006 24.8423 17.7336 24.8423 17.9667C24.8637 18.7929 24.8637 19.6192 24.8637 20.509V21.759L24.5644 21.6107C22.3623 20.5514 20.203 19.5345 18.0009 18.4963L14.4092 16.8226L15.0933 16.3989C16.0554 15.7845 16.9747 15.2124 17.8513 14.704C18.0651 14.5769 18.343 14.5769 18.5568 14.6616ZM18.5354 20.7209C20.3954 21.5895 22.2768 22.4794 24.094 23.348L24.4361 23.5175C24.6285 23.6446 24.8423 23.8777 24.8423 24.0895C24.8637 24.9158 24.8637 25.7421 24.8637 26.6531V27.9031L24.5644 27.7548C22.7685 26.9073 20.994 26.0598 19.2195 25.2124C17.7444 24.5132 16.2478 23.7929 14.7299 23.0726L14.3878 22.9243L17.8726 20.7209C18.1078 20.6361 18.3644 20.6573 18.5354 20.7209ZM31.9188 32.6064V37.4369L31.6195 37.3098C30.6147 36.8437 29.7595 36.4412 28.9044 36.0174L28.3913 35.7632C27.8995 35.5301 27.4078 35.2971 26.9161 35.0852C26.574 34.9581 26.4244 34.7251 26.4244 34.3013C26.4244 28.8564 26.4244 23.4539 26.4457 18.009C26.4457 17.7548 26.6168 17.3946 26.8092 17.2463C30.6147 14.365 34.7623 11.293 39.4444 7.79723C39.5513 7.73367 39.7651 7.62774 39.9575 7.62774C40.0216 7.62774 40.1071 7.64892 40.1713 7.67011H40.1926C41.4326 8.22095 42.6726 8.7718 43.9126 9.34383L44.6823 9.704C44.7251 9.72518 44.7892 9.78874 44.832 9.83112L45.0244 10.0006L44.6395 10.3396C44.554 10.4031 44.4685 10.4667 44.4044 10.5303L41.0478 13.0091C38.2044 15.1277 35.4251 17.2251 32.5816 19.3226C32.0899 19.7039 31.8761 20.1277 31.8761 20.8268C31.9188 24.6827 31.9188 28.4539 31.9188 32.6064ZM37.7126 6.86503C37.5202 7.03452 37.3706 7.14045 37.2423 7.24638L26.0395 15.615C25.7188 15.8692 25.4195 15.9116 25.0347 15.7209C22.5975 14.5557 20.1602 13.3904 17.7016 12.2252L15.3071 11.1023C15.243 11.0599 15.1575 11.0176 15.0506 10.954C14.9651 10.9116 14.9009 10.8692 14.794 10.8269L14.4947 10.6998L14.8795 10.4031C14.9864 10.3184 15.072 10.2548 15.1788 10.1913C19.3264 7.56418 23.4954 4.93707 27.5788 2.37353C27.7926 2.22522 28.1561 2.18285 28.3699 2.2676C31.2988 3.58115 34.1851 4.91589 37.0926 6.27181L37.9051 6.69554L37.7126 6.86503Z" fill="#2A2A2A"/>
</g>
<defs>
<clipPath id="clip0_1061_12718">
<rect width="62" height="65.72" fill="white" transform="translate(0 0.170898)"/>
</clipPath>
</defs>
</svg>
