<svg width="22" height="22" viewBox="0 0 22 22" fill="none" xmlns="http://www.w3.org/2000/svg">
<path d="M0 15.0526C0.0572917 14.636 0.103698 14.2184 0.171875 13.8042C0.3165 12.9593 0.564327 12.1354 0.909792 11.3509C0.925833 11.3137 0.948177 11.2782 0.976823 11.2255L3.67641 12.8514C3.23234 13.7527 2.97658 14.735 2.92474 15.7383H0V15.0526Z" fill="#B8B8B8"/>
<path d="M17.3532 15.7216C17.2788 14.2768 16.7743 12.8872 15.9043 11.7312L19.2593 8.52289C21.0279 10.6031 21.9216 12.9916 21.9606 15.721L17.3532 15.7216Z" fill="#B8B8B8"/>
<path d="M12.1367 9.14063C12.3269 7.71636 12.5143 6.31673 12.7045 4.89246C14.8592 5.24537 16.7281 6.14886 18.3592 7.60522L15.0414 10.7775C14.2114 10.0165 13.2176 9.45644 12.1367 9.14063Z" fill="#B8B8B8"/>
<path d="M4.35388 11.7578L1.56836 10.0803C2.33335 8.81026 3.3466 7.70756 4.54753 6.83813C5.25508 7.81897 5.94945 8.78605 6.65299 9.76001C5.75606 10.2588 4.97302 10.9392 4.35388 11.7578Z" fill="#B8B8B8"/>
<path fill-rule="evenodd" clip-rule="evenodd" d="M10.8744 8.85949C9.74388 8.72686 8.71266 8.90215 7.84467 9.2043C7.81779 9.16428 7.8006 9.13875 7.79638 9.13291C7.23711 8.36779 6.68335 7.59957 6.12252 6.82155C5.96063 6.59695 5.79814 6.37154 5.63477 6.14515C7.44003 5.14885 9.35358 4.69624 11.4212 4.76557C11.3436 5.34489 11.267 5.92019 11.1906 6.49394C11.0855 7.2832 10.9808 8.06956 10.8744 8.85949Z" fill="#B8B8B8"/>
<path fill-rule="evenodd" clip-rule="evenodd" d="M11.4273 14.5976L16.728 14.0636L11.9544 16.4293C11.8014 17.1222 11.2837 17.7117 10.5539 17.9218C9.49239 18.2273 8.38421 17.6145 8.07869 16.553C7.77316 15.4916 8.38597 14.3834 9.44744 14.0778C10.1774 13.8678 10.9294 14.0919 11.4273 14.5976ZM10.2761 16.9608C9.74535 17.1136 9.19127 16.8071 9.0385 16.2764C8.88574 15.7457 9.19214 15.1916 9.72288 15.0388C10.2536 14.8861 10.8077 15.1925 10.9605 15.7232C11.1132 16.2539 10.8068 16.808 10.2761 16.9608Z" fill="#B8B8B8"/>
</svg>
