<svg width="80" height="80" viewBox="0 0 80 80" fill="none" xmlns="http://www.w3.org/2000/svg">
<g clip-path="url(#clip0_42_560)">
<g clip-path="url(#clip1_42_560)">
<path d="M18.295 31.5762C18.2127 31.786 18.1099 31.9748 17.9455 32.1217C17.8633 32.2056 17.7605 32.2686 17.6783 32.3315C17.5755 32.3945 17.4522 32.4364 17.3083 32.4784C17.1644 32.5203 16.9999 32.5413 16.8355 32.5623C16.671 32.5833 16.4449 32.6043 16.1982 32.6043H15.561L15.4171 33.6533L18.5827 37.4299H20.0628L16.8971 33.6323L17.3083 33.5484C17.9661 33.4015 18.48 33.1708 18.85 32.8351C19.22 32.4784 19.4667 32.0168 19.5694 31.4713L19.6106 31.2615H21.7484V30.2125H19.5694L19.5283 30.0236C19.4872 29.8348 19.4255 29.6669 19.3228 29.5201C19.3022 29.4781 19.2611 29.4362 19.2405 29.3732L18.9733 28.9746H21.7278V27.9255H15.4171V28.9746H16.3832C16.7738 28.9746 17.0616 28.9956 17.2877 29.0585C17.5138 29.1005 17.6988 29.1844 17.8427 29.3103C17.9866 29.4152 18.0894 29.5411 18.1922 29.7089C18.2333 29.7509 18.2538 29.8138 18.2744 29.8768L18.4388 30.2334H15.4171V31.2825H18.4388L18.295 31.5762Z" fill="#1F2431"/>
<path d="M56.304 38.8356C57.4551 38.437 58.3185 37.4299 58.5446 36.234C58.6268 35.7724 58.3596 35.3318 57.9073 35.2479C57.4551 35.1639 57.0234 35.4367 56.9412 35.8983C56.8179 36.5277 56.3656 37.0522 55.7695 37.2411L47.5676 40.0944C47.177 40.2203 46.7659 40.2203 46.3959 40.0735C45.882 39.8846 45.4914 39.486 45.327 38.9615C45.1831 38.4999 45.2036 38.0173 45.4092 37.5767C45.6147 37.1362 45.9848 36.8214 46.437 36.6536L53.2411 34.2828C53.5083 34.1988 53.7139 33.968 53.7755 33.6743L54.5156 30.4013C54.6184 29.9397 54.3511 29.4991 53.8989 29.3942C53.4466 29.2893 53.015 29.5621 52.9122 30.0236L52.2749 32.8561L45.9025 35.08C45.0392 35.3738 44.3403 36.0032 43.9291 36.8424C43.518 37.6817 43.4563 38.6258 43.7647 39.507C43.888 39.8846 44.073 40.2203 44.2991 40.5141C42.778 41.1645 41.6885 42.6961 41.6885 44.4794V71.3769C41.6885 71.8385 42.0585 72.2161 42.5108 72.2161C42.963 72.2161 43.333 71.8385 43.333 71.3769V44.5004C43.333 43.0528 44.4841 41.8778 45.9025 41.8778C47.3209 41.8778 48.472 43.0528 48.472 44.5004C48.472 44.962 48.8421 45.3397 49.2943 45.3397C49.7465 45.3397 50.1165 44.962 50.1165 44.5004C50.1165 43.3045 49.6232 42.2135 48.8421 41.4372L56.304 38.8356Z" fill="#1F2431"/>
<path d="M73.5914 48.2561C73.4886 47.7945 73.0364 47.5217 72.6047 47.6266C72.1524 47.7315 71.8852 48.1931 71.988 48.6337L76.0376 66.2157V66.2366C76.2637 67.0969 76.4898 68.1669 76.5103 68.3977C76.4898 69.2579 75.9759 70.0552 75.1948 70.3909C75.0509 70.4538 74.907 70.4958 74.7425 70.5167C73.6119 70.7266 72.5841 70.1181 72.3786 69.132C72.0908 67.7473 69.1718 54.3405 69.0485 53.774C68.9457 53.3124 68.514 53.0397 68.0618 53.1446C67.6095 53.2495 67.3423 53.6901 67.4451 54.1517C67.4656 54.2985 70.4874 68.1249 70.7752 69.5097C70.9602 70.4118 71.5152 71.2091 72.3169 71.7127C72.913 72.0903 73.5914 72.2791 74.3108 72.2791C74.5575 72.2791 74.8042 72.2582 75.0509 72.2162C75.3181 72.1742 75.5853 72.0903 75.832 71.9854C77.2298 71.3979 78.1343 70.0132 78.1548 68.4606C78.1548 68.02 77.8259 66.6563 77.6204 65.859L73.5914 48.2561Z" fill="#1F2431"/>
<path d="M49.2738 21.0858C51.021 21.0858 52.6655 20.3934 53.8989 19.1345C55.1323 17.8757 55.8106 16.1972 55.8106 14.4139C55.8106 12.6305 55.1323 10.952 53.8989 9.69316C52.6655 8.43431 51.021 7.74194 49.2738 7.74194C47.5265 7.74194 45.882 8.43431 44.6486 9.69316C43.4152 10.952 42.7369 12.6305 42.7369 14.4139C42.7369 16.1972 43.4152 17.8757 44.6486 19.1345C45.9025 20.3934 47.5265 21.0858 49.2738 21.0858ZM49.2738 9.42041C51.9666 9.42041 54.1661 11.6654 54.1661 14.4139C54.1661 17.1623 51.9666 19.4073 49.2738 19.4073C46.5809 19.4073 44.3814 17.1623 44.3814 14.4139C44.4019 11.6654 46.5809 9.42041 49.2738 9.42041Z" fill="#1F2431"/>
<path d="M73.3651 40.6608C73.5912 39.6328 73.4679 38.5837 73.0568 37.6186C73.0568 37.6186 73.0568 37.6186 73.0568 37.5976C73.0568 37.5976 73.0568 37.5766 73.0362 37.5766V37.5556V37.5347L73.0156 37.5137L65.6976 25.8483L68.7605 25.7224L72.4401 31.4502C72.9334 32.2265 73.7146 32.772 74.5985 32.9608C75.503 33.1497 76.4074 32.9818 77.168 32.4573C78.0314 31.8698 78.6069 30.9257 78.7097 29.8767C78.7919 29.0794 78.5864 28.2821 78.1753 27.6107L73.4268 20.2045C72.769 19.1764 71.6178 18.568 70.405 18.6309C70.1789 18.6309 67.2394 18.6519 64.2998 18.6939C59.0991 18.7568 58.1124 18.7988 57.8452 18.8197H57.7835C57.6807 18.8197 57.5574 18.8407 57.4752 18.8827C56.8585 19.0296 56.2829 19.2813 55.769 19.659C53.6312 21.2116 53.1378 24.2538 54.659 26.4568L63.9709 40.9545L56.4474 50.6267L56.4268 50.6477C55.8512 51.445 55.584 52.473 55.7073 53.4591L55.7484 68.1457C55.7073 69.3416 56.139 70.4536 56.9407 71.2299C57.6191 71.9013 58.503 72.258 59.4074 72.258C59.5102 72.258 59.5925 72.258 59.6952 72.237C59.7158 72.237 59.7158 72.237 59.7363 72.237C59.798 72.237 59.8802 72.216 59.9419 72.216C60.9286 72.0692 61.7714 71.5446 62.3675 70.7054C62.902 69.9501 63.2103 68.985 63.2309 67.9569C63.2309 67.9569 63.2309 67.9569 63.2309 67.9359L63.3748 54.0466L71.9467 43.1995C72.6662 42.5281 73.1595 41.6469 73.3651 40.6608ZM70.7956 42.0036C70.7545 42.0246 70.7339 42.0665 70.7134 42.1085L61.9359 53.2284C61.8125 53.3752 61.7509 53.564 61.7509 53.7529L61.607 67.9359C61.5864 69.1109 60.9903 70.3697 59.7158 70.5795C59.6952 70.5795 59.6541 70.5795 59.613 70.5795C59.5925 70.5795 59.5719 70.5795 59.5513 70.5795C59.0374 70.6215 58.4824 70.4117 58.0713 70.013C57.5985 69.5515 57.3518 68.901 57.3724 68.1877C57.3724 68.1667 57.3724 68.1667 57.3724 68.1457L57.3313 53.3962C57.3313 53.3542 57.3313 53.3123 57.3313 53.2703C57.249 52.7038 57.3929 52.1164 57.7218 51.6548L65.5949 41.521C65.5949 41.521 65.5949 41.521 65.5949 41.5C65.5949 41.4791 65.6154 41.4791 65.6154 41.4581L65.636 41.4371L65.6565 41.4161C65.6565 41.4161 65.6565 41.4161 65.6565 41.3951C65.6565 41.3951 65.6565 41.3742 65.6771 41.3742V41.3532C65.6771 41.3532 65.6771 41.3532 65.6771 41.3322C65.6771 41.3322 65.6771 41.3112 65.6976 41.3112C65.6976 41.3112 65.6976 41.2902 65.7182 41.2902C65.7182 41.2693 65.7182 41.2693 65.7388 41.2483C65.7388 41.2273 65.7388 41.2273 65.7388 41.2063C65.7388 41.1853 65.7388 41.1853 65.7388 41.1644C65.7388 41.1434 65.7388 41.1434 65.7388 41.1224V41.1014C65.7388 41.1014 65.7388 41.1014 65.7388 41.0804V41.0595V41.0385V41.0175V40.9965C65.7388 40.9965 65.7388 40.9965 65.7388 40.9755C65.7388 40.9545 65.7388 40.9545 65.7388 40.9336C65.7388 40.9126 65.7388 40.9126 65.7388 40.8916C65.7388 40.8706 65.7388 40.8706 65.7388 40.8496C65.7388 40.8287 65.7388 40.8287 65.7388 40.8077C65.7388 40.7867 65.7388 40.7867 65.7388 40.7657C65.7388 40.7447 65.7388 40.7447 65.7388 40.7238V40.7028C65.7388 40.7028 65.7388 40.7028 65.7388 40.6818V40.6608V40.6398C65.7388 40.6398 65.7388 40.6398 65.7388 40.6189C65.7388 40.6189 65.7388 40.5979 65.7182 40.5979C65.7182 40.5769 65.6976 40.5769 65.6976 40.5559C65.6976 40.5349 65.6771 40.5349 65.6771 40.5139C65.6771 40.5139 65.6771 40.5139 65.6771 40.493L56.0362 25.4917L56.0157 25.4707C55.0084 24.044 55.3373 22.0298 56.7351 21.0227C57.1052 20.75 57.5163 20.5612 57.9685 20.4772C57.9891 20.4772 57.9891 20.4772 58.0096 20.4772C58.5646 20.4353 65.7388 20.3513 70.4461 20.3094H70.4667C71.0834 20.2884 71.7001 20.6031 72.029 21.1276L76.7774 28.5339C77.0035 28.8906 77.1063 29.2892 77.0652 29.7088C77.0036 30.2543 76.7158 30.7579 76.2635 31.0516C75.873 31.3243 75.4002 31.4083 74.9274 31.3034C74.4546 31.1984 74.064 30.9257 73.7968 30.5271L69.8706 24.3797C69.7061 24.1279 69.4389 23.981 69.1511 24.002L64.1765 24.2118C63.8887 24.2328 63.6215 24.4007 63.4776 24.6734C63.3337 24.9462 63.3542 25.2609 63.5187 25.5126L71.5767 38.3529C72.1112 39.6118 71.8028 41.0804 70.7956 42.0036Z" fill="#1F2431"/>
<path d="M11.224 40.1782C12.1696 41.1434 13.2796 41.9197 14.5336 42.4442C15.8081 42.9897 17.1648 43.2834 18.5831 43.2834C19.981 43.2834 21.3377 43.0107 22.6327 42.4442C23.8661 41.9197 24.9761 41.1434 25.9423 40.1782C26.8878 39.2131 27.6484 38.0802 28.1623 36.8003C28.6968 35.4995 28.9846 34.1148 28.9846 32.6671C28.9846 31.2404 28.7173 29.8557 28.1623 28.5339C27.6484 27.275 26.8878 26.142 25.9423 25.1559C24.9967 24.1908 23.8866 23.4145 22.6327 22.89C21.3582 22.3445 20.0015 22.0508 18.5831 22.0508C17.1853 22.0508 15.8286 22.3235 14.5336 22.89C13.3002 23.4145 12.1902 24.1908 11.224 25.1559C10.2784 26.1211 9.51785 27.254 9.00395 28.5339C8.46949 29.8347 8.1817 31.2194 8.1817 32.6671C8.1817 34.1148 8.44893 35.4785 9.00395 36.8003C9.51785 38.0592 10.2579 39.1921 11.224 40.1782ZM18.5626 23.6873C23.4138 23.6873 27.3606 27.7156 27.3606 32.6671C27.3606 37.6186 23.4138 41.6469 18.5626 41.6469C13.7113 41.6469 9.76453 37.6186 9.76453 32.6671C9.76453 27.7156 13.7113 23.6873 18.5626 23.6873Z" fill="#1F2431"/>
<path d="M23.4544 50.0813C23.2694 50.0183 18.7881 48.7805 13.6902 49.9973C13.2585 50.1022 12.9913 50.5428 13.0941 50.9834C13.1763 51.3611 13.5052 51.6129 13.8752 51.6129C13.9369 51.6129 13.9985 51.6129 14.0602 51.5919C18.747 50.4589 22.9816 51.6548 23.0227 51.6548C23.1049 51.6758 23.1666 51.6758 23.2488 51.6758C23.5983 51.6758 23.9272 51.445 24.03 51.0674C24.1327 50.6687 23.8861 50.2071 23.4544 50.0813Z" fill="#1F2431"/>
<path d="M39.1595 55.7462C39.139 55.7462 39.139 55.7462 39.1184 55.7462C37.8851 55.5364 36.3844 54.907 33.9588 51.613C33.5066 51.0255 33.1982 50.7318 32.931 50.48C33.2394 49.6827 33.9177 48.0882 35.1305 46.137C35.2744 45.9062 35.295 45.6124 35.1922 45.3817C35.0894 45.1509 34.8633 44.962 34.6166 44.8991C32.5404 44.4795 30.5054 44.5005 28.532 44.962C26.9903 45.3187 25.9008 45.8642 25.3663 46.1579C25.0169 46.053 23.3929 45.6544 21.2551 45.4026C19.22 45.1509 16.2188 44.983 13.5465 45.5915C13.5054 45.6124 13.4232 45.6124 13.3615 45.6334C13.1354 45.6754 12.8476 45.7383 12.7243 45.7803C10.1753 46.4727 8.14024 47.8364 6.49574 49.9555C5.28293 51.529 4.48124 53.5222 4.17289 55.6833C4.13178 55.7042 4.09067 55.7042 4.07011 55.7252C3.45343 56.0189 2.56951 56.1029 1.91171 55.4105C1.68559 55.1587 1.52114 54.6132 1.66504 54.2985C1.76782 54.0677 1.91171 53.9628 2.11727 53.9628C2.11727 53.9628 2.11727 53.9628 2.13783 53.9628C2.30228 53.9628 2.44617 54.0467 2.48729 54.0677C2.54895 54.4873 2.91897 54.8021 3.35065 54.7601C3.78233 54.7181 4.11122 54.3195 4.09067 53.8789C4.029 53.1236 3.39176 52.4942 2.5284 52.3473C1.5417 52.1795 0.637228 52.683 0.226104 53.6271C-0.205576 54.6342 0.164435 55.8931 0.781121 56.5644C1.39781 57.2149 2.26117 57.5925 3.16564 57.5925C3.47398 57.5925 3.76177 57.5505 4.07011 57.4876C4.04956 59.7326 4.5429 61.9146 5.5296 63.8238L9.86696 71.6916C10.0109 71.9434 10.2781 72.1113 10.5659 72.1113L12.6832 72.1322C12.9298 72.1322 13.1765 72.0064 13.341 71.7965L15.3349 69.0271C15.3966 69.0481 15.4788 69.0481 15.561 69.069C16.815 69.2579 17.9455 69.3418 19.0145 69.3628C20.1656 69.3628 21.2962 69.2998 22.6735 69.09L24.2769 71.8385C24.4207 72.0903 24.688 72.2371 24.9552 72.2371L26.7847 72.2581C26.9697 72.2581 27.1547 72.1952 27.2986 72.0693L33.9794 66.4254C36.8367 64.0126 38.0906 64.1595 38.0906 64.1595C38.4606 64.2225 38.8306 64.1385 39.139 63.9077C39.4884 63.635 39.7351 63.1944 39.7968 62.6909L40.3929 57.7184C40.4546 56.7743 39.9201 55.914 39.1595 55.7462ZM38.1523 62.502C38.1523 62.523 38.1523 62.523 38.1523 62.523C37.8028 62.502 37.2478 62.544 36.4461 62.8587C35.4183 63.2783 34.2261 64.0546 32.9105 65.1456L26.4558 70.6006H25.3869L24.3385 68.7963C24.503 68.7753 24.6674 68.7333 24.8319 68.7124C25.0374 68.6704 25.2224 68.5445 25.3458 68.3767C25.4691 68.1878 25.5102 67.978 25.4691 67.7682C25.3869 67.3276 24.9758 67.0339 24.5441 67.0968C24.0096 67.2017 23.5163 67.2857 23.0846 67.3486C22.9818 67.3486 22.8585 67.3486 22.7557 67.3906C20.1451 67.7682 18.2539 67.7892 15.746 67.4325C15.006 67.3276 14.266 67.1598 13.5671 66.95C13.1354 66.8241 12.6832 67.0549 12.5598 67.4955C12.4365 67.9361 12.6626 68.3976 13.0943 68.5235C13.2382 68.5655 13.4026 68.6075 13.5671 68.6704L12.2515 70.5167H11.0181L6.90687 63.0895C4.93347 59.208 5.28293 54.2566 7.77023 51.0255C9.1886 49.1792 10.9359 48.0043 13.1354 47.4168C13.2382 47.3958 13.6082 47.3119 13.7932 47.2699C13.8343 47.2699 13.8754 47.2489 13.896 47.2489C15.8899 46.8084 18.2539 46.7454 20.9056 47.0391C22.9613 47.2699 24.6263 47.6895 25.2224 47.8784C25.2224 47.8784 25.2224 47.8784 25.243 47.8784C26.0036 48.1301 26.7025 48.4239 27.4014 48.7806C27.5042 48.8435 27.6275 48.8645 27.7508 48.8645C28.0592 48.8645 28.3264 48.6966 28.4703 48.4239C28.5731 48.235 28.5937 48.0043 28.5114 47.7945C28.4498 47.5846 28.3059 47.4168 28.1209 47.3119C27.9153 47.207 27.7097 47.1021 27.5042 47.0182C28.7787 46.5566 30.7315 46.095 33.1366 46.3678C31.7593 48.7806 31.2454 50.4171 31.2248 50.501V50.522V50.5429C31.2248 50.5639 31.2248 50.5639 31.2248 50.5849C31.2248 50.6059 31.2248 50.6059 31.2248 50.6269V50.6478V50.6688C31.2248 50.6898 31.2248 50.6898 31.2248 50.7108C31.2248 50.7318 31.2248 50.7318 31.2248 50.7528C31.2248 50.7737 31.2248 50.7737 31.2248 50.7947C31.2248 50.8157 31.2248 50.8157 31.2248 50.8157C31.2248 50.8367 31.2248 50.8367 31.2248 50.8577C31.2248 50.8786 31.2248 50.8786 31.2248 50.8996C31.2248 50.9206 31.2248 50.9206 31.2248 50.9416C31.2248 50.9626 31.2248 50.9626 31.2248 50.9835V51.0045V51.0255C31.2248 51.0465 31.2248 51.0465 31.2454 51.0675V51.0884V51.1094C31.2454 51.1304 31.266 51.1304 31.266 51.1514C31.266 51.1514 31.266 51.1724 31.2865 51.1724C31.2865 51.1934 31.3071 51.1933 31.3071 51.2143C31.3071 51.2353 31.3276 51.2353 31.3276 51.2563L31.3482 51.2773C31.3482 51.2983 31.3687 51.2983 31.3687 51.3192C31.3687 51.3192 31.3687 51.3402 31.3893 51.3402C31.3893 51.3402 31.3893 51.3402 31.4099 51.3612C31.5537 51.529 31.7182 51.6759 31.8415 51.7808C32.0676 51.9906 32.3143 52.2214 32.6638 52.704C33.9177 54.3824 35.0483 55.5783 36.1583 56.3546C37.2067 57.089 38.0701 57.3198 38.7279 57.4456C38.7484 57.4876 38.7484 57.5505 38.7484 57.6135L38.1523 62.502Z" fill="#1F2431"/>
<path d="M26.2296 53.5222C25.9007 53.5222 25.5923 53.6481 25.3662 53.8789C25.1401 54.1097 24.9962 54.4244 24.9962 54.7601C24.9962 55.4525 25.5307 56.0189 26.209 56.0189C26.8874 56.0189 27.4218 55.4734 27.4218 54.7811C27.4424 54.0887 26.9079 53.5222 26.2296 53.5222Z" fill="#1F2431"/>
</g>
</g>
<defs>
<clipPath id="clip0_42_560">
<rect width="80" height="80" fill="white"/>
</clipPath>
<clipPath id="clip1_42_560">
<rect width="78.7097" height="64.5161" fill="white" transform="translate(0 7.74194)"/>
</clipPath>
</defs>
</svg>
