<svg width="80" height="80" viewBox="0 0 80 80" fill="none" xmlns="http://www.w3.org/2000/svg">
<path d="M36.3491 8.69747V17.9138C25.7413 19.3968 17.7167 28.4436 17.7167 39.3549C17.7167 50.2661 25.7413 59.3129 36.3491 60.796V70.0123C20.5962 68.4868 8.56982 55.4145 8.56982 39.3549C8.56982 23.2952 20.5962 10.2229 36.3491 8.69747ZM38.4665 6.45166C20.7021 6.93896 6.4525 21.4732 6.4525 39.3549C6.4525 57.2366 20.7021 71.7708 38.4665 72.2581V58.868C28.0916 58.3807 19.834 49.8424 19.834 39.3549C19.834 28.8674 28.0916 20.3291 38.4665 19.8418V6.45166Z" fill="#1F2431"/>
<path d="M42.7642 8.76108C48.6292 9.41788 54.1977 11.7484 58.7923 15.4985L52.2922 22.0029C49.4761 19.9054 46.1943 18.5282 42.743 17.9774V8.76108H42.7642ZM40.6469 6.4729V19.863C45.1779 20.1596 49.2856 21.9817 52.4615 24.8419L61.9048 15.3926C56.2939 10.1382 48.8621 6.7907 40.6469 6.4729Z" fill="#1F2431"/>
<path d="M63.3449 20.0324C67.0503 24.63 69.3581 30.2021 69.9722 36.0709H60.7618C60.2325 32.6386 58.8774 29.3547 56.8236 26.5368L63.3449 20.0324ZM63.4508 16.918L53.9864 26.3885C56.8024 29.5665 58.6021 33.6768 58.8774 38.1896H72.2589C71.9624 29.9691 68.6806 22.5325 63.4508 16.918Z" fill="#1F2431"/>
<path d="M52.3556 56.6434L58.8558 63.1478C54.24 66.9402 48.6503 69.292 42.7641 69.9488V60.7325C46.2365 60.1816 49.5396 58.7621 52.3556 56.6434ZM52.5038 53.7832C49.3278 56.6646 45.1991 58.5502 40.6468 58.8469V72.237C48.9044 71.9192 56.3574 68.5504 61.9471 63.2537L52.5038 53.7832Z" fill="#1F2431"/>
<path d="M69.9937 42.4905C69.3796 48.3593 67.0929 53.9526 63.3876 58.5714L56.8874 52.067C58.9624 49.2279 60.2963 45.9652 60.8045 42.4905H69.9937ZM72.2592 40.3718H58.8777C58.6448 44.9058 56.8451 49.0161 54.029 52.2153L63.4723 61.6646C68.7021 56.0501 71.9839 48.6135 72.2592 40.3718Z" fill="#1F2431"/>
<path d="M36.8351 42.1939C38.2325 41.8973 39.3335 41.3888 40.0746 40.6897C40.8792 39.9481 41.3873 38.9947 41.5779 37.8294L41.6626 37.3845H46.2149V35.2235H41.6626L41.5567 34.8209C41.4509 34.4395 41.3238 34.0794 41.1333 33.7616C41.0697 33.6556 41.0274 33.5709 40.9639 33.4861L40.371 32.6598H46.2149V30.4988H32.8545V32.6598H34.9083C35.7129 32.6598 36.3269 32.7022 36.8139 32.8081C37.3009 32.9141 37.682 33.0836 37.9785 33.3166C38.2749 33.5497 38.5078 33.8039 38.6983 34.1217C38.7619 34.2277 38.8254 34.3548 38.8889 34.4819L39.2277 35.2235H32.8545V37.3845H39.2488L38.9948 38.1049C38.8254 38.5498 38.5925 38.9312 38.2749 39.2278C38.0843 39.3973 37.8938 39.5456 37.682 39.6515C37.4703 39.7786 37.2162 39.8846 36.9198 39.9693C36.6234 40.0541 36.2846 40.0964 35.9035 40.1388C35.5224 40.1812 35.0565 40.2024 34.5484 40.2024H33.1721L32.8757 42.4058L39.5664 50.2449H42.6789L35.967 42.3634L36.8351 42.1939Z" fill="#1F2431"/>
</svg>
