<svg width="45" height="36" viewBox="0 0 45 36" fill="none" xmlns="http://www.w3.org/2000/svg">
<path d="M44.6037 13.4954C43.2505 12.6429 41.8702 12.3858 40.5304 12.7511C38.1217 13.4007 36.606 15.8095 36.2271 16.459L32.2756 18.4754C31.7343 17.8394 30.9224 17.4198 30.0292 17.4063L24.8057 17.3251C24.1967 17.3116 23.5878 17.1357 23.0735 16.7974L21.8962 16.026C21.1925 15.5659 20.367 15.3223 19.5145 15.3223H15.6442C14.5345 15.3223 13.479 15.7418 12.667 16.4996L7.75475 21.1277L5.98199 19.2873C5.77901 19.0708 5.44069 19.0573 5.21064 19.2603L0.176555 23.9019C-0.0399648 24.1049 -0.0670297 24.4567 0.14949 24.6733C0.352477 24.8898 0.704322 24.9168 0.920842 24.7003L5.56249 20.4241L15.4277 30.6546L11.0296 35.0527C10.8266 35.2692 10.8266 35.621 11.0296 35.8376C11.1379 35.9458 11.2732 36 11.4221 36C11.5709 36 11.7062 35.9458 11.8145 35.8376L16.5915 31.0606C16.808 30.8441 16.808 30.5058 16.605 30.2892L15.7119 29.369H32.1268C32.235 29.369 32.3433 29.342 32.438 29.2743C41.3695 23.2794 44.712 14.5239 44.8473 14.1585C44.915 13.9149 44.8202 13.6307 44.6037 13.4954ZM31.9373 28.2729H14.7375C14.7104 28.2729 14.6834 28.2729 14.6428 28.2864L8.51257 21.9262L13.4113 17.3251C14.0203 16.7568 14.8052 16.4455 15.6307 16.4455H19.5009C20.137 16.4455 20.7459 16.6214 21.2737 16.9733L22.451 17.7446C23.1412 18.1912 23.9396 18.4348 24.7651 18.4483L29.9886 18.5295C31.0306 18.543 31.8832 19.4091 31.8832 20.4511C31.8832 21.5067 31.0171 22.3727 29.9616 22.3727H21.4226C21.1248 22.3727 20.8677 22.6163 20.8677 22.9276C20.8677 23.2388 21.1113 23.4824 21.4226 23.4824H29.9616C31.6261 23.4824 32.9793 22.1292 32.9793 20.4647C32.9793 20.1128 32.9116 19.7745 32.8034 19.4633L36.8496 17.3928C36.9443 17.3387 37.0391 17.2575 37.0797 17.1627C37.0932 17.1357 38.5276 14.4562 40.7876 13.8473C41.6942 13.6037 42.6415 13.7255 43.5888 14.2262C42.831 16.0125 39.3802 23.2118 31.9373 28.2729Z" fill="#1F2431"/>
<path d="M30.0433 5.71057C29.994 5.83635 29.9324 5.94956 29.8338 6.0376C29.7845 6.08792 29.7229 6.12565 29.6736 6.16339C29.612 6.20112 29.538 6.22628 29.4518 6.25143C29.3655 6.27659 29.2669 6.28917 29.1683 6.30175C29.0697 6.31432 28.9342 6.3269 28.7863 6.3269H28.4043L28.318 6.95581L30.2158 9.21988H31.1031L29.2053 6.94323L29.4518 6.89292C29.8461 6.80487 30.1542 6.66651 30.376 6.46526C30.5979 6.25143 30.7457 5.97471 30.8074 5.64768L30.832 5.5219H32.1137V4.89299H30.8074L30.7827 4.77979C30.7581 4.66659 30.7211 4.56596 30.6595 4.47791C30.6471 4.45276 30.6225 4.4276 30.6102 4.38987L30.45 4.15088H32.1013V3.52197H28.318V4.15088H28.8972C29.1313 4.15088 29.3039 4.16346 29.4394 4.20119C29.575 4.22635 29.6859 4.27666 29.7722 4.35213C29.8584 4.41502 29.9201 4.49049 29.9817 4.59112C30.0063 4.61627 30.0186 4.65401 30.031 4.69174L30.1296 4.90557H28.318V5.53448H30.1296L30.0433 5.71057Z" fill="#2A2A2A"/>
<path d="M25.8041 10.8675C26.371 11.4461 27.0365 11.9115 27.7882 12.226C28.5523 12.553 29.3657 12.7291 30.216 12.7291C31.054 12.7291 31.8673 12.5656 32.6437 12.226C33.3831 11.9115 34.0486 11.4461 34.6278 10.8675C35.1947 10.2889 35.6507 9.60972 35.9588 8.84245C36.2792 8.0626 36.4517 7.23244 36.4517 6.36455C36.4517 5.50923 36.2915 4.67908 35.9588 3.88665C35.6507 3.13196 35.1947 2.45274 34.6278 1.86157C34.0609 1.28297 33.3955 0.81758 32.6437 0.503126C31.8797 0.176094 31.0663 0 30.216 0C29.378 0 28.5646 0.163516 27.7882 0.503126C27.0488 0.81758 26.3834 1.28297 25.8041 1.86157C25.2373 2.44016 24.7813 3.11938 24.4732 3.88665C24.1528 4.6665 23.9803 5.49666 23.9803 6.36455C23.9803 7.23244 24.1405 8.05002 24.4732 8.84245C24.7813 9.59714 25.2249 10.2764 25.8041 10.8675ZM30.2037 0.981096C33.112 0.981096 35.4782 3.3961 35.4782 6.36455C35.4782 9.333 33.112 11.748 30.2037 11.748C27.2953 11.748 24.9292 9.333 24.9292 6.36455C24.9292 3.3961 27.2953 0.981096 30.2037 0.981096Z" fill="#2A2A2A"/>
</svg>
