<svg width="63" height="63" viewBox="0 0 63 63" fill="none" xmlns="http://www.w3.org/2000/svg">
<g clip-path="url(#clip0_1061_12726)">
<g clip-path="url(#clip1_1061_12726)">
<path d="M48.9201 21.5942C49.2051 21.2139 49.5472 21.0428 50.0222 21.0428C51.5045 21.0428 52.9867 21.0428 54.45 21.0428C56.5403 21.0428 58.4406 21.0428 60.2649 21.0618H60.2839C60.911 21.0618 61.2531 20.8907 61.5001 20.4533V4.63287C61.2151 4.25257 60.816 4.11947 60.0749 4.10045C58.6497 4.11947 57.2054 4.11947 55.8182 4.11947H55.3431C54.868 4.11947 54.393 4.11947 53.9369 4.11947C52.7967 4.11947 52.5877 4.32863 52.5687 5.45051C52.5687 5.5646 52.5687 5.65968 52.5497 5.79278L52.5117 6.34422H49.5092C48.312 6.34422 48.1979 6.42028 47.9319 7.61822L47.8749 7.88443H47.6089C46.4877 7.86541 45.3665 7.54216 44.1313 6.85762L43.1051 6.30619C41.6419 5.50756 39.9696 4.59484 38.3163 3.73917C36.8151 2.97857 35.4469 2.31305 33.9456 2.04684C32.1593 1.7426 30.468 1.89472 28.7958 2.5032C28.1877 2.73137 27.5986 2.94054 26.9905 3.1497C25.9833 3.51099 24.9191 3.89129 23.893 4.2906C23.4179 4.46174 23.0568 4.40469 22.6958 4.02439C21.4986 2.78842 20.2634 1.57146 19.3512 0.658744C19.1802 0.487609 18.9712 0.335489 18.7811 0.18337L18.5911 0.03125H18.116C18.059 0.0882949 17.983 0.126325 17.926 0.164355C17.736 0.316474 17.5459 0.468594 17.3939 0.620714C13.1562 4.86105 8.89951 9.10139 4.66181 13.3417C4.22474 13.7981 4.05371 14.0643 4.05371 14.3115C4.05371 14.5587 4.22474 14.8439 4.68081 15.3003L26.8575 37.4907C27.6746 38.3084 28.0546 38.3084 28.8718 37.4907L32.6914 33.6687C35.1618 31.1968 37.7272 28.6298 40.2356 26.1008C40.6917 25.6444 41.1288 25.4733 41.6989 25.5493C42.136 25.5874 42.63 25.5493 43.2191 25.4352C45.4235 24.9979 47.2858 23.7239 48.9201 21.5942ZM54.412 5.86884H59.7138V19.2744H54.412V5.86884ZM49.8512 8.16965H52.5307V19.2934H49.8512V8.16965ZM15.5316 5.12726C16.4057 4.25257 17.2799 3.37788 18.116 2.54122L18.3441 2.31305L18.5721 2.54122C19.4082 3.3969 20.2824 4.27159 21.1565 5.14628L21.4036 5.39347L21.1565 5.62165C20.6054 6.13505 19.5793 6.45831 18.4011 6.45831C17.2039 6.45831 16.1397 6.15407 15.5506 5.62165L15.2846 5.37445L15.5316 5.12726ZM9.77365 17.0687L9.56462 17.468L9.4696 17.3729L6.4101 14.3115L9.54561 11.174L9.75465 11.5543C10.7618 13.3798 10.7618 15.2432 9.77365 17.0687ZM31.0001 32.8891L28.3777 35.4942C28.3207 35.5512 28.2637 35.6082 28.1877 35.6653L27.8646 35.9505L27.5606 35.7033C27.5036 35.6653 27.4275 35.6082 27.3705 35.5322L24.7101 32.8891L24.9571 32.6609C26.0593 31.5771 29.0808 31.3489 30.7531 32.5849L31.0761 32.813L31.0001 32.8891ZM32.3303 31.3869L32.1023 31.2348C29.3659 29.4664 26.3444 29.4854 23.6079 31.2538L23.3799 31.4059L10.7808 18.799L10.9328 18.5708C12.7001 15.7566 12.7191 12.9044 10.9518 10.0902L10.7998 9.86199L13.9163 6.74353L14.1444 6.89565C15.4176 7.77034 16.8238 8.20768 18.3441 8.20768H18.3821C19.9213 8.20768 21.3275 7.75132 22.5818 6.87664L22.8098 6.72452L22.8668 6.78156L25.8693 9.78593L25.3942 9.97608C25.2802 10.0141 25.1662 10.0521 25.0332 10.1092H24.9951C24.6911 10.2043 24.406 10.3183 24.178 10.4514C23.6079 10.8127 23.0758 11.155 22.7528 11.5923C22.2777 12.2389 21.7076 12.6382 20.8715 12.9424C17.983 13.9502 16.3297 16.7074 16.6338 19.9779C16.8998 22.7161 19.2372 25.093 22.0877 25.5113C25.2802 26.0057 28.1687 24.2753 29.2899 21.2329C29.3089 21.1569 29.3469 21.0808 29.3849 20.9857L29.4039 20.9287L29.5939 20.4533L30.6961 20.8336C31.7222 21.1759 32.6724 21.4991 33.6606 21.8414C33.9456 21.9365 34.1166 22.3928 34.0596 22.621C33.7556 24.5415 34.1546 26.367 35.2758 28.0593L35.4279 28.2875L32.3303 31.3869ZM25.9833 19.2173C26.1163 19.2554 26.2494 19.3124 26.3824 19.3505C26.5724 19.4265 26.7434 19.4836 26.9335 19.5216C27.1615 19.5786 27.4656 19.6737 27.6176 19.9589C27.7696 20.2442 27.6746 20.5674 27.5796 20.8146C26.8575 22.602 25.0712 23.857 23.1898 23.857C23.0568 23.857 22.9048 23.857 22.7718 23.838C20.4534 23.5908 18.7431 22.0125 18.4011 19.8448C18.059 17.6581 19.1992 15.6045 21.2515 14.6918L21.6316 14.5207L21.7076 14.92C22.1447 17.1257 23.4939 18.4758 25.9833 19.2173ZM36.587 27.1846L35.4089 23.4197L38.6774 25.169L36.587 27.1846ZM43.1621 23.6288C42.592 23.7429 42.0409 23.8 41.4898 23.8C39.3805 23.8 37.5182 22.9253 35.9599 21.1759C35.6369 20.8146 35.2378 20.5294 34.8768 20.3963C33.4515 19.9019 32.0073 19.4075 30.6011 18.9321L30.468 18.8941C29.0048 18.3997 27.5036 17.8863 26.0213 17.3729C25.3942 17.1447 24.7671 16.7834 24.292 16.3271C23.3609 15.4714 23.1898 14.1594 23.855 13.0565C24.4821 11.9917 25.7363 11.5353 26.9525 11.9156C29.3089 12.6572 31.6842 13.3988 34.0026 14.1404L37.3662 15.2052C37.4422 15.2242 37.4992 15.2432 37.5752 15.2812C38.1073 15.4144 38.5824 15.2052 38.7344 14.7298C38.9054 14.2354 38.6584 13.7601 38.1073 13.5889C37.1191 13.2657 36.112 12.9424 35.1808 12.6572L32.6724 11.8205C31.7793 11.5353 30.8861 11.2501 30.012 10.9839C29.8029 10.9078 29.5749 10.8508 29.4039 10.6796C28.3397 9.61479 27.2755 8.54995 26.1923 7.4661L24.6151 5.88786L25.1092 5.71672C25.6032 5.54559 26.0973 5.37445 26.5724 5.20332L26.8194 5.12726C28.0546 4.63287 29.2708 4.19553 30.5251 3.83424C32.1783 3.37788 33.9266 3.56803 35.5609 4.38568C37.9933 5.60263 40.3877 6.85762 43.2381 8.37882C44.6634 9.13942 45.9176 9.51972 47.1908 9.59578C47.9129 9.63381 48.0079 10.1282 48.0079 10.4895C48.0079 11.9346 48.0079 13.3798 48.0079 14.8249V19.3505C48.0079 19.6547 47.9509 19.8829 47.8369 20.054C46.4687 22.1266 44.9674 23.2485 43.1621 23.6288Z" fill="#2A2A2A"/>
<path d="M47.3047 55.3653C48.8249 54.8139 50.3642 54.2815 51.8844 53.73C52.9676 53.3497 53.8988 52.6842 54.6399 51.7715C55.476 50.7257 55.7801 49.5658 55.533 48.3298C55.248 46.9987 54.5449 45.9149 53.5377 45.2874C52.5115 44.6409 51.1813 44.4697 49.8131 44.831C47.6657 45.3825 45.5754 45.9529 43.39 46.5804C42.4209 46.8466 41.4707 47.1318 40.4826 47.3981L40.1975 47.4741L40.0835 47.1889C39.4564 45.5346 38.2022 44.4507 36.1689 43.7852C33.7745 43.0056 31.3231 42.1689 28.2065 41.0851C27.8265 40.952 27.4464 40.6858 27.1044 40.3625C24.786 37.9856 21.9925 37.0349 18.762 37.5293C16.6526 37.8716 14.7903 39.1075 13.0991 41.2943C12.795 41.7126 12.453 41.8647 11.9209 41.8647C8.48131 41.8647 4.98474 41.8647 1.62118 41.8647C0.823053 41.8647 0.5 42.1689 0.5 42.9486C0.5 47.8924 0.5 52.8173 0.5 57.7612C0.5 58.4838 0.80405 58.826 1.45016 58.826C3.61651 58.8451 5.9729 58.8451 8.4243 58.826C9.0514 58.826 9.37446 58.5028 9.41246 57.7992C9.43147 57.6091 9.41246 57.3999 9.41246 57.2098V56.5823H11.3508C11.9019 56.5823 12.434 56.5823 12.966 56.5823C13.4981 56.5823 13.8212 56.3541 13.9352 55.8977C13.9542 55.7836 13.9732 55.6696 13.9922 55.5555L14.0872 54.985L14.4103 55.0421C14.5433 55.0611 14.6573 55.0801 14.7903 55.0801C15.1134 55.1181 15.4174 55.1371 15.7025 55.2702C16.9567 55.8027 18.1729 56.3731 19.3131 56.9245C20.0922 57.3048 20.8523 57.7042 21.7645 58.1795C23.1137 58.8831 24.5009 59.6057 25.8882 60.2332C28.3016 61.317 30.924 61.317 33.9265 60.1951C38.2972 58.5598 42.7819 56.9626 47.1337 55.4224L47.3047 55.3653ZM7.56916 57.0196H2.26729V43.6901H7.56916V57.0196ZM12.1679 54.7949H9.46947V43.6901H12.1679V54.7949ZM33.4514 58.4457C32.6153 58.75 31.7981 59.0162 30.943 59.1873C30.5059 59.2634 30.0689 59.3204 29.6508 59.3204C28.5296 59.3204 27.4084 59.0352 26.3062 58.5028C24.1209 57.4189 21.8025 56.24 19.5221 54.985C18.0779 54.1864 16.3486 53.3497 14.2963 53.2737H13.9732V50.2693C13.9732 48.1396 13.9732 45.9339 13.9922 43.7662C13.9922 43.3479 14.1442 42.9105 14.3723 42.5873C15.3034 41.3133 16.8047 39.5829 19.2181 39.2596C21.9545 38.8794 24.2919 39.754 26.1162 41.9027C26.3632 42.188 26.7053 42.4352 27.0093 42.5492C28.9667 43.2338 30.981 43.9183 32.9193 44.5648L35.8648 45.5726C36.91 45.9339 38.1642 46.5424 38.4682 48.1016C38.6393 48.9763 38.3542 49.87 37.7081 50.5165C37.1 51.106 36.2639 51.3341 35.4657 51.163C34.3065 50.8968 33.1664 50.5165 32.0642 50.1552C31.6461 50.0221 31.209 49.87 30.791 49.7369C28.7386 49.0904 26.5913 48.4058 24.3679 47.7213C24.1779 47.6643 23.7028 47.5502 23.4748 47.9305C23.3037 48.1967 23.2467 48.615 23.3037 48.8812C23.3417 49.0333 23.6268 49.2805 23.8738 49.3756L24.5579 49.6038C27.8835 50.6876 31.3421 51.8095 34.7436 52.8363C36.929 53.5019 39.2474 52.2659 40.0075 50.0221C40.1785 49.4897 40.4826 49.2045 41.0336 49.0714C42.3639 48.7101 43.6941 48.3488 45.0243 47.9685C46.6016 47.5312 48.1978 47.0938 49.7751 46.6565C50.3262 46.5044 50.8583 46.4473 51.3713 46.4853C52.3215 46.5424 53.1196 47.0748 53.5377 47.9115C53.9558 48.7671 53.8988 49.7559 53.3667 50.5545C52.8916 51.2771 52.2075 51.7715 51.2573 52.1138L45.4804 54.1864C41.4707 55.5745 37.4611 57.0196 33.4514 58.4457Z" fill="#2A2A2A"/>
</g>
</g>
<defs>
<clipPath id="clip0_1061_12726">
<rect width="62" height="62" fill="white" transform="translate(0.5 0.03125)"/>
</clipPath>
<clipPath id="clip1_1061_12726">
<rect width="61" height="61" fill="white" transform="translate(0.5 0.03125)"/>
</clipPath>
</defs>
</svg>
