<svg width="22" height="22" viewBox="0 0 22 22" fill="none" xmlns="http://www.w3.org/2000/svg">
<path d="M0 15.0526C0.0572917 14.636 0.103698 14.2184 0.171875 13.8042C0.3165 12.9593 0.564327 12.1354 0.909792 11.3509C0.925833 11.3137 0.948177 11.2782 0.976823 11.2255L3.67641 12.8514C3.23234 13.7527 2.97658 14.735 2.92474 15.7383H0V15.0526Z" fill="#B8B8B8"/>
<path d="M17.3532 15.7216C17.2788 14.2768 16.7743 12.8872 15.9043 11.7312L19.2593 8.52289C21.0279 10.6031 21.9216 12.9916 21.9606 15.721L17.3532 15.7216Z" fill="#B8B8B8"/>
<path d="M12.1357 9.14063C12.326 7.71636 12.5133 6.31673 12.7035 4.89246C14.8582 5.24537 16.7271 6.14886 18.3582 7.60522L15.0404 10.7775C14.2104 10.0165 13.2166 9.45644 12.1357 9.14063Z" fill="#B8B8B8"/>
<path d="M4.35388 11.7578L1.56836 10.0803C2.33335 8.81026 3.3466 7.70756 4.54753 6.83813C5.25508 7.81897 5.94945 8.78605 6.65299 9.76001C5.75606 10.2588 4.97302 10.9392 4.35388 11.7578Z" fill="#B8B8B8"/>
<path fill-rule="evenodd" clip-rule="evenodd" d="M10.8744 8.85959C9.74383 8.72679 8.71255 8.90195 7.84448 9.20401C7.81771 9.16416 7.80059 9.13874 7.79638 9.13291C7.23711 8.36779 6.68335 7.59957 6.12252 6.82155C5.96063 6.59695 5.79814 6.37154 5.63477 6.14515C7.44003 5.14885 9.35358 4.69624 11.4212 4.76557C11.3436 5.34489 11.267 5.92019 11.1906 6.49394C11.0855 7.28324 10.9808 8.06962 10.8744 8.85959Z" fill="#B8B8B8"/>
<path fill-rule="evenodd" clip-rule="evenodd" d="M8.89628 14.3315L9.38585 9.02697L10.7948 14.1644C11.4458 14.447 11.9255 15.068 11.9921 15.8246C12.089 16.9249 11.2755 17.8954 10.1752 17.9923C9.07492 18.0892 8.10441 17.2757 8.00752 16.1754C7.9409 15.4188 8.30473 14.7236 8.89628 14.3315ZM10.9961 15.9123C11.0445 16.4624 10.6378 16.9477 10.0877 16.9961C9.5375 17.0446 9.05224 16.6379 9.0038 16.0877C8.95536 15.5375 9.36208 15.0523 9.91224 15.0038C10.4624 14.9554 10.9477 15.3621 10.9961 15.9123Z" fill="#B8B8B8"/>
</svg>
