<svg width="14" height="14" viewBox="0 0 14 14" fill="none" xmlns="http://www.w3.org/2000/svg">
<rect width="14" height="14" fill="#595959"/>
<g id="Section 6">
<path d="M-3311 -659C-3311 -660.105 -3310.1 -661 -3309 -661H6577C6578.1 -661 6579 -660.105 6579 -659V9234C6579 9235.1 6578.1 9236 6577 9236H-3309C-3310.1 9236 -3311 9235.1 -3311 9234V-659Z" fill="#404040"/>
<g id="ULIP Calculator">
<rect width="1366" height="8291" transform="translate(-888 -112)" fill="white"/>
<g id="Frame 1000006439">
<g id="Mask group">
<mask id="mask0_1681_5269" style="mask-type:alpha" maskUnits="userSpaceOnUse" x="-889" y="-114" width="1367" height="200">
<rect id="Rectangle 2075" x="-888.117" y="-113.238" width="1366" height="198.854" fill="#D9D9D9"/>
</mask>
<g mask="url(#mask0_1681_5269)">
<g id="Frame 1000006438">
<g id="div.ifl-container">
<g id="ul.ifl-nav">
<g id="a.iconic-point-down">
<g id="Frame" clip-path="url(#clip0_1681_5269)">
<g id="Group">
<path id="Vector" d="M10.4964 5.21562H10.4839C10.5756 5.11555 10.6486 5.00298 10.7028 4.8779C10.757 4.75281 10.7841 4.62356 10.7841 4.49014C10.7841 4.18994 10.6778 3.93352 10.4651 3.72087C10.2525 3.50823 9.99608 3.40191 9.69588 3.40191C9.53744 3.40191 9.38942 3.43318 9.25183 3.49572C9.11424 3.55827 8.99541 3.64374 8.89534 3.75214L5.71822 7.21696L2.5411 3.75214C2.44104 3.64374 2.32221 3.55827 2.18462 3.49572C2.04702 3.43318 1.89901 3.40191 1.74057 3.40191C1.44037 3.40191 1.18395 3.50823 0.971306 3.72087C0.758665 3.93352 0.652344 4.18994 0.652344 4.49014C0.652344 4.62356 0.679445 4.75281 0.733648 4.8779C0.787851 5.00298 0.856647 5.11555 0.940036 5.21562L4.91769 9.55602C5.01776 9.66442 5.13867 9.7499 5.28043 9.81244C5.42219 9.87498 5.56812 9.90625 5.71822 9.90625C5.86832 9.90625 6.01217 9.87498 6.14976 9.81244C6.28735 9.7499 6.41035 9.66442 6.51876 9.55602L10.4964 5.21562Z" fill="#D9251C"/>
</g>
</g>
</g>
</g>
</g>
</g>
</g>
</g>
</g>
</g>
<path d="M-3309 -660H6577V-662H-3309V-660ZM6578 -659V9234H6580V-659H6578ZM6577 9235H-3309V9237H6577V9235ZM-3310 9234V-659H-3312V9234H-3310ZM-3309 9235C-3309.55 9235 -3310 9234.55 -3310 9234H-3312C-3312 9235.66 -3310.66 9237 -3309 9237V9235ZM6578 9234C6578 9234.55 6577.55 9235 6577 9235V9237C6578.66 9237 6580 9235.66 6580 9234H6578ZM6577 -660C6577.55 -660 6578 -659.552 6578 -659H6580C6580 -660.657 6578.66 -662 6577 -662V-660ZM-3309 -662C-3310.66 -662 -3312 -660.657 -3312 -659H-3310C-3310 -659.552 -3309.55 -660 -3309 -660V-662Z" fill="white" fill-opacity="0.1"/>
</g>
<defs>
<clipPath id="clip0_1681_5269">
<rect width="12.8085" height="12.8085" fill="white" transform="matrix(1 0 0 -1 0.640625 13.0581)"/>
</clipPath>
</defs>
</svg>
