<svg width="21" height="17" viewBox="0 0 21 17" fill="none" xmlns="http://www.w3.org/2000/svg">
<path d="M1.3921 7.95524L7.68399 1.44441C8.28475 0.819221 8.73299 0.899095 9.4805 1.40155C10.228 1.90401 9.99503 2.6411 9.39428 3.26629L5.37012 7.42785L18.6464 7.42402C19.6049 7.42402 20.314 8.00767 20.314 8.90137C20.314 9.40137 19.6049 9.80205 18.6464 9.80205L5.36783 9.80589L9.39198 14.4967C9.99274 15.1219 10.0615 15.8973 9.31396 16.4017C8.56646 16.9042 8.28475 16.9438 7.6817 16.3186L1.3921 9.80589L1.37834 9.79054L1.32331 9.73109L1.31414 9.71959L1.29809 9.70041L1.28891 9.69082L1.27286 9.66972L1.24993 9.63904L1.24305 9.63137L1.227 9.60836L1.22242 9.60068L1.20637 9.57575L1.20178 9.56808L1.18573 9.54315L1.18114 9.5374L1.16509 9.51055L1.1628 9.5048L1.14675 9.47795L1.14446 9.47219L1.1307 9.44534L1.12841 9.44151L1.11465 9.41274L1.11235 9.40891L1.0986 9.38014V9.3763L1.07337 9.31302V9.3111L1.05044 9.2459V9.24398L1.04127 9.21138V9.20946L1.0321 9.17686V9.17494L1.02522 9.14234L1.01834 9.10782L1.01376 9.0733L1.00917 9.03878L1.00459 9.00426L1.00229 8.96974L1 8.93522V8.9007V8.86618V8.83166L1.00229 8.79714L1.00459 8.76262L1.00917 8.7281L1.01376 8.69358L1.01834 8.65906L1.02522 8.62454L1.0321 8.59194V8.59002L1.04127 8.55742V8.5555L1.05044 8.5229V8.52098L1.07337 8.45578V8.45386L1.0986 8.39057V8.38674L1.11235 8.35797L1.11465 8.35414L1.12841 8.32537L1.1307 8.32153L1.14446 8.29468L1.14675 8.28893L1.1628 8.26208L1.16509 8.25633L1.18114 8.22948L1.18573 8.22373L1.20178 8.1988L1.20637 8.19112L1.22242 8.16619L1.227 8.15852L1.24305 8.13551L1.24993 8.12784L1.27286 8.09715L1.28891 8.07606L1.29809 8.06647L1.31414 8.04729L1.32331 8.03579L1.37834 7.97634L1.3921 7.95524Z" fill="white"/>
</svg>
