<svg width="40" height="40" viewBox="0 0 40 40" fill="none" xmlns="http://www.w3.org/2000/svg">
<path d="M13.4658 10.0349C13.4658 6.14838 16.6137 3.00047 20.5003 3.00047C24.3868 3.00047 27.5347 6.14838 27.5347 10.0349C27.5347 13.9214 24.3868 17.0693 20.5003 17.0693C16.6137 17.0693 13.4658 13.9214 13.4658 10.0349Z" stroke="#00AEEF" stroke-width="1.2" stroke-miterlimit="10" stroke-linecap="round" stroke-linejoin="round"/>
<path d="M37.4998 5.34505V34.6552C37.4998 35.9507 36.4505 37 35.155 37H5.84481C4.5493 37 3.5 35.9507 3.5 34.6552V5.34505C3.5 4.04954 4.5493 3.00024 5.84481 3.00024H14.292C12.3458 4.71781 11.1206 7.23262 11.1206 10.0347C11.1206 15.2167 15.3178 19.4139 20.4999 19.4139C25.6819 19.4139 29.8791 15.2167 29.8791 10.0347C29.8791 7.23262 28.654 4.71781 26.7078 3.00024H35.155C36.4505 3.00024 37.4998 4.04954 37.4998 5.34505Z" stroke="#00AEEF" stroke-width="1.2" stroke-miterlimit="10" stroke-linecap="round" stroke-linejoin="round"/>
<path d="M6.43119 5.34519C6.43119 5.66907 6.16872 5.9314 5.84499 5.9314C5.52126 5.9314 5.25879 5.66907 5.25879 5.34519C5.25879 5.02132 5.52126 4.75899 5.84499 4.75899C6.16872 4.75899 6.43119 5.02132 6.43119 5.34519Z" stroke="#00AEEF" stroke-width="1.2"/>
<path d="M34.5684 5.34519C34.5684 5.66907 34.8307 5.9314 35.1546 5.9314C35.4784 5.9314 35.7408 5.66907 35.7408 5.34519C35.7408 5.02132 35.4784 4.75899 35.1546 4.75899C34.8307 4.75899 34.5684 5.02132 34.5684 5.34519Z" stroke="#00AEEF" stroke-width="1.2"/>
<path d="M6.43119 34.6555C6.43119 34.3316 6.16872 34.0693 5.84499 34.0693C5.52126 34.0693 5.25879 34.3316 5.25879 34.6555C5.25879 34.9794 5.52126 35.2417 5.84499 35.2417C6.16872 35.2417 6.43119 34.9794 6.43119 34.6555Z" stroke="#00AEEF" stroke-width="1.2"/>
<path d="M34.5684 34.6555C34.5684 34.3316 34.8307 34.0693 35.1546 34.0693C35.4784 34.0693 35.7408 34.3316 35.7408 34.6555C35.7408 34.9794 35.4784 35.2417 35.1546 35.2417C34.8307 35.2417 34.5684 34.9794 34.5684 34.6555Z" stroke="#00AEEF" stroke-width="1.2"/>
<path d="M20.5 2.99994V4.75854" stroke="#00AEEF" stroke-width="1.2" stroke-miterlimit="10" stroke-linecap="round"/>
<path d="M16.9824 3.94265L17.5686 4.95825" stroke="#00AEEF" stroke-width="1.2" stroke-miterlimit="10" stroke-linecap="round"/>
<path d="M14.4082 6.51731L15.4235 7.10352" stroke="#00AEEF" stroke-width="1.2" stroke-miterlimit="10" stroke-linecap="round"/>
<path d="M13.4658 10.0347H15.2244" stroke="#00AEEF" stroke-width="1.2" stroke-miterlimit="10" stroke-linecap="round"/>
<path d="M14.4082 13.5518L15.4235 12.9656" stroke="#00AEEF" stroke-width="1.2" stroke-miterlimit="10" stroke-linecap="round"/>
<path d="M16.9824 16.1272L17.5686 15.1116" stroke="#00AEEF" stroke-width="1.2" stroke-miterlimit="10" stroke-linecap="round"/>
<path d="M20.5 17.0693V15.3107" stroke="#00AEEF" stroke-width="1.2" stroke-miterlimit="10" stroke-linecap="round"/>
<path d="M24.0169 16.1272L23.4307 15.1116" stroke="#00AEEF" stroke-width="1.2" stroke-miterlimit="10" stroke-linecap="round"/>
<path d="M26.5918 13.5518L25.5762 12.9656" stroke="#00AEEF" stroke-width="1.2" stroke-miterlimit="10" stroke-linecap="round"/>
<path d="M27.534 10.0347H25.7754" stroke="#00AEEF" stroke-width="1.2" stroke-miterlimit="10" stroke-linecap="round"/>
<path d="M26.5918 6.51731L25.5762 7.10352" stroke="#00AEEF" stroke-width="1.2" stroke-miterlimit="10" stroke-linecap="round"/>
<path d="M24.0169 3.94265L23.4307 4.95825" stroke="#00AEEF" stroke-width="1.2" stroke-miterlimit="10" stroke-linecap="round"/>
<path d="M20.4996 8.84818C20.5848 8.84818 20.6679 8.85716 20.748 8.87424C20.6772 8.66686 20.6002 8.45149 20.5225 8.23978C20.5149 8.21893 20.5072 8.19814 20.4996 8.17741C20.4919 8.19814 20.4842 8.21893 20.4766 8.23978C20.3989 8.45149 20.3219 8.66687 20.2511 8.87424C20.3312 8.85717 20.4143 8.84818 20.4996 8.84818Z" stroke="#00AEEF" stroke-width="1.2"/>
</svg>
