<svg width="40" height="40" viewBox="0 0 40 40" fill="none" xmlns="http://www.w3.org/2000/svg">
<path d="M11.1211 12.4471C11.1281 14.9804 11.1139 17.6562 13.2509 19.4181C14.2965 20.2799 15.6288 20.7568 16.9857 20.7568H17.9377C20.2411 20.7568 22.3582 19.3694 23.2963 17.2783C23.8577 16.0261 23.7927 14.7223 23.7955 13.3845" stroke="#00AEEF" stroke-miterlimit="10" stroke-linecap="round" stroke-linejoin="round"/>
<path d="M23.5479 16.5208H23.5747C24.7004 16.5141 25.6164 15.6034 25.6164 14.4773C25.6164 14.0864 25.5052 13.7221 25.3135 13.4111C25.2065 13.2356 25.0727 13.0801 24.9189 12.9444C24.8296 12.8669 24.7315 12.7958 24.6291 12.7336" stroke="#00AEEF" stroke-miterlimit="10" stroke-linecap="round" stroke-linejoin="round"/>
<path d="M25.1255 9.55865C24.3454 6.08891 21.2353 3.49984 17.5172 3.49984C13.2262 3.49984 9.74681 6.88993 9.72225 11.159C9.69478 12.6714 10.66 12.9926 11.1217 12.4451C11.1217 12.4451 14.2171 8.95651 14.5273 8.09897C14.7199 8.7581 17.4164 12.9383 18.9274 13.1164C20.8775 13.3465 20.3164 11.9443 20.3164 11.9443C20.3164 11.9443 22.1081 13.9258 23.8024 13.3825C25.0779 12.6902 25.5144 11.512 25.1255 9.55865Z" stroke="#00AEEF" stroke-miterlimit="10" stroke-linecap="round" stroke-linejoin="round"/>
<path d="M10.398 12.6559C10.2443 12.7336 10.1017 12.8314 9.97219 12.9444C9.54421 13.3179 9.27441 13.8663 9.27441 14.4773C9.27441 15.6057 10.1929 16.5208 11.3231 16.5208H11.3409" stroke="#00AEEF" stroke-miterlimit="10" stroke-linecap="round" stroke-linejoin="round"/>
<path d="M31.2294 29.732L33.9903 29.7341C33.2415 30.2762 32.7517 31.179 32.7517 32.1989C32.7517 33.2167 33.2415 34.1196 33.9903 34.6616H29.2656" stroke="#00AEEF" stroke-miterlimit="10" stroke-linecap="round" stroke-linejoin="round"/>
<path d="M31.1031 29.7351C32.3578 29.7351 33.3758 28.8735 33.3758 27.8099C33.3758 26.7485 32.3578 25.8869 31.1031 25.8869H30.9093H24.8868H21.7281L20.3916 25.8862C20.9765 26.3097 21.3589 27.0149 21.3589 27.8116C21.3589 28.6064 20.9765 29.3118 20.3916 29.7351H20.3906H31.1031Z" stroke="#00AEEF" stroke-miterlimit="10" stroke-linecap="round" stroke-linejoin="round"/>
<path d="M25.3506 25.887C24.1947 25.887 23.2568 25.0921 23.2568 24.1142C23.2568 23.1345 24.1947 22.3397 25.3506 22.3397H33.9904L33.9901 22.34C33.4512 22.7303 33.0989 23.3802 33.0989 24.1144C33.0989 24.847 33.4512 25.4968 33.9901 25.887H33.9904H31.0263" stroke="#00AEEF" stroke-miterlimit="10" stroke-linecap="round" stroke-linejoin="round"/>
<path d="M14.2236 23.1639C14.7748 24.3987 16.0164 25.262 17.4623 25.262C18.9037 25.262 20.143 24.4035 20.6942 23.1711" stroke="#00AEEF" stroke-miterlimit="10" stroke-linecap="round" stroke-linejoin="round"/>
<path d="M11.3398 24.2076C12.6174 26.36 13.4977 28.9634 13.9948 32.0642" stroke="#00AEEF" stroke-miterlimit="10" stroke-linecap="round" stroke-linejoin="round"/>
<path d="M13.2656 23.3302C14.6634 25.7471 15.613 28.6391 16.1258 32.0642" stroke="#00AEEF" stroke-miterlimit="10" stroke-linecap="round" stroke-linejoin="round"/>
<path d="M22.1383 23.4939C21.7147 23.3804 20.9925 23.202 20.6946 23.171C20.6924 23.1708 20.6903 23.1705 20.6881 23.1705C20.1039 23.1133 19.6533 22.6323 19.6533 22.0476V20.4992" stroke="#00AEEF" stroke-miterlimit="10" stroke-linecap="round" stroke-linejoin="round"/>
<path d="M11.9776 29.9249V31.985C11.9776 32.5505 12.4375 33.0088 13.005 33.0088L20.8881 33.0078C20.9158 32.969 22.9715 30.9224 22.9715 30.9224C23.2831 30.6117 23.7849 30.6117 24.0968 30.9224C24.4086 31.2308 24.4086 31.7377 24.0968 32.0485L23.2192 32.9232H26.9876C27.5672 32.9232 28.0418 33.3937 28.0418 33.9763V35.4312C28.0418 36.0138 27.5672 36.4843 26.7406 36.5H10.5412C9.04432 36.5 7.83398 35.2914 7.83398 33.8024V29.163C7.83398 26.0221 11.1415 23.4395 14.2239 23.1638L14.2334 23.1628C14.8228 23.1044 15.2715 22.6103 15.2715 22.0206V20.5015" stroke="#00AEEF" stroke-miterlimit="10" stroke-linecap="round" stroke-linejoin="round"/>
<path d="M6.00977 36.5V28.4042C6.00977 24.6459 9.06741 21.5987 12.8393 21.5987H14.1482" stroke="#00AEEF" stroke-miterlimit="10" stroke-linecap="round" stroke-linejoin="round"/>
<path d="M11.9776 31.9851H7.83398" stroke="#00AEEF" stroke-miterlimit="10" stroke-linecap="round" stroke-linejoin="round"/>
</svg>
