<svg width="40" height="40" viewBox="0 0 40 40" fill="none" xmlns="http://www.w3.org/2000/svg">
<path d="M34.1667 6.39976H31.3333V5.26642C31.3333 4.66527 31.0946 4.08873 30.6694 3.66365C30.2444 3.23856 29.6679 2.99976 29.0667 2.99976C28.4655 2.99976 27.889 3.23856 27.4639 3.66365C27.0388 4.08873 26.8 4.66527 26.8 5.26642V6.39976H22.2667V5.26642C22.2667 4.66527 22.0279 4.08873 21.6027 3.66365C21.1777 3.23856 20.6012 2.99976 20 2.99976C19.3988 2.99976 18.8223 3.23856 18.3972 3.66365C17.9721 4.08873 17.7333 4.66527 17.7333 5.26642V6.39976H13.2V5.26642C13.2 4.66527 12.9612 4.08873 12.5361 3.66365C12.111 3.23856 11.5345 2.99976 10.9333 2.99976C10.3322 2.99976 9.75564 3.23856 9.33056 3.66365C8.90547 4.08873 8.66667 4.66527 8.66667 5.26642V6.39976H5.83333C5.08189 6.39976 4.36122 6.69826 3.82986 7.22961C3.29851 7.76097 3 8.48164 3 9.23309V31.8998C3 32.6512 3.29851 33.3719 3.82986 33.9033C4.36122 34.4345 5.08189 34.7331 5.83333 34.7331H21.7C21.8502 34.7331 21.9944 34.6734 22.1007 34.5671C22.207 34.4609 22.2667 34.3167 22.2667 34.1664C22.2667 34.0162 22.207 33.872 22.1007 33.7658C21.9944 33.6594 21.8502 33.5997 21.7 33.5997H5.83333C5.38288 33.5985 4.95125 33.4188 4.63273 33.1003C4.31421 32.7818 4.13468 32.3502 4.13333 31.8998V14.3331H35.8667V23.9664C35.8667 24.1167 35.9263 24.2609 36.0327 24.3671C36.1389 24.4734 36.2831 24.5331 36.4333 24.5331C36.5836 24.5331 36.7278 24.4734 36.834 24.3671C36.9403 24.2609 37 24.1167 37 23.9664V9.23309C37 8.48164 36.7014 7.76097 36.1702 7.22961C35.6388 6.69826 34.9181 6.39976 34.1667 6.39976ZM27.9333 5.26642C27.9333 4.96584 28.0527 4.67757 28.2652 4.46504C28.4779 4.25249 28.7661 4.13309 29.0667 4.13309C29.3673 4.13309 29.6555 4.25249 29.8681 4.46504C30.0806 4.67757 30.2 4.96584 30.2 5.26642V8.66642C30.2 8.967 30.0806 9.25527 29.8681 9.46781C29.6555 9.68034 29.3673 9.79975 29.0667 9.79975C28.7661 9.79975 28.4779 9.68034 28.2652 9.46781C28.0527 9.25527 27.9333 8.967 27.9333 8.66642V5.26642ZM18.8667 5.26642C18.8667 4.96584 18.986 4.67757 19.1986 4.46504C19.4112 4.25249 19.6994 4.13309 20 4.13309C20.3006 4.13309 20.5888 4.25249 20.8014 4.46504C21.014 4.67757 21.1333 4.96584 21.1333 5.26642V8.66642C21.1333 8.967 21.014 9.25527 20.8014 9.46781C20.5888 9.68034 20.3006 9.79975 20 9.79975C19.6994 9.79975 19.4112 9.68034 19.1986 9.46781C18.986 9.25527 18.8667 8.967 18.8667 8.66642V5.26642ZM9.8 5.26642C9.8 4.96584 9.9194 4.67757 10.1319 4.46504C10.3445 4.25249 10.6328 4.13309 10.9333 4.13309C11.2339 4.13309 11.5222 4.25249 11.7347 4.46504C11.9473 4.67757 12.0667 4.96584 12.0667 5.26642V8.66642C12.0667 8.967 11.9473 9.25527 11.7347 9.46781C11.5222 9.68034 11.2339 9.79975 10.9333 9.79975C10.6328 9.79975 10.3445 9.68034 10.1319 9.46781C9.9194 9.25527 9.8 8.967 9.8 8.66642V5.26642ZM35.8667 13.1998H4.13333V9.23309C4.13468 8.78264 4.31421 8.35101 4.63273 8.03249C4.95125 7.71397 5.38288 7.53444 5.83333 7.53309H8.66667V8.66642C8.66667 9.26757 8.90547 9.84412 9.33056 10.2692C9.75564 10.6943 10.3322 10.9331 10.9333 10.9331C11.5345 10.9331 12.111 10.6943 12.5361 10.2692C12.9612 9.84412 13.2 9.26757 13.2 8.66642V7.53309H17.7333V8.66642C17.7333 9.26757 17.9721 9.84412 18.3972 10.2692C18.8223 10.6943 19.3988 10.9331 20 10.9331C20.6012 10.9331 21.1777 10.6943 21.6027 10.2692C22.0279 9.84412 22.2667 9.26757 22.2667 8.66642V7.53309H26.8V8.66642C26.8 9.26757 27.0388 9.84412 27.4639 10.2692C27.889 10.6943 28.4655 10.9331 29.0667 10.9331C29.6679 10.9331 30.2444 10.6943 30.6694 10.2692C31.0946 9.84412 31.3333 9.26757 31.3333 8.66642V7.53309H34.1667C34.6171 7.53444 35.0487 7.71397 35.3672 8.03249C35.6858 8.35101 35.8654 8.78264 35.8667 9.23309V13.1998Z" fill="#00AEEF"/>
<path d="M18.8663 18.3013C18.8663 18.0007 18.747 17.7125 18.5344 17.4999C18.3218 17.2873 18.0336 17.168 17.733 17.168H15.4663C15.1657 17.168 14.8775 17.2873 14.6649 17.4999C14.4524 17.7125 14.333 18.0007 14.333 18.3013V20.0013C14.333 20.3019 14.4524 20.5901 14.6649 20.8027C14.8775 21.0153 15.1657 21.1346 15.4663 21.1346H17.733C18.0336 21.1346 18.3218 21.0153 18.5344 20.8027C18.747 20.5901 18.8663 20.3019 18.8663 20.0013V18.3013ZM15.4663 20.0013V18.3013H17.733V20.0013H15.4663Z" fill="#00AEEF"/>
<path d="M12.0656 18.3013C12.0656 18.0007 11.9462 17.7125 11.7336 17.4999C11.5211 17.2873 11.2328 17.168 10.9322 17.168H8.66556C8.36498 17.168 8.07671 17.2873 7.86417 17.4999C7.65164 17.7125 7.53223 18.0007 7.53223 18.3013V20.0013C7.53223 20.3019 7.65164 20.5901 7.86417 20.8027C8.07671 21.0153 8.36498 21.1346 8.66556 21.1346H10.9322C11.2328 21.1346 11.5211 21.0153 11.7336 20.8027C11.9462 20.5901 12.0656 20.3019 12.0656 20.0013V18.3013ZM8.66556 20.0013V18.3013H10.9322V20.0013H8.66556Z" fill="#00AEEF"/>
<path d="M31.3346 21.1346C31.6352 21.1346 31.9235 21.0153 32.136 20.8027C32.3485 20.5901 32.4679 20.3019 32.4679 20.0013V18.3013C32.4679 18.0007 32.3485 17.7125 32.136 17.4999C31.9235 17.2873 31.6352 17.168 31.3346 17.168H29.0679C28.7673 17.168 28.4791 17.2873 28.2665 17.4999C28.0539 17.7125 27.9346 18.0007 27.9346 18.3013V20.0013C27.9346 20.3019 28.0539 20.5901 28.2665 20.8027C28.4791 21.0153 28.7673 21.1346 29.0679 21.1346H31.3346ZM29.0679 18.3013H31.3346V20.0013H29.0679V18.3013Z" fill="#00AEEF"/>
<path d="M18.8663 23.4009C18.8663 23.1003 18.747 22.8121 18.5344 22.5995C18.3218 22.387 18.0336 22.2676 17.733 22.2676H15.4663C15.1657 22.2676 14.8775 22.387 14.6649 22.5995C14.4524 22.8121 14.333 23.1003 14.333 23.4009V25.1009C14.333 25.4015 14.4524 25.6897 14.6649 25.9023C14.8775 26.1149 15.1657 26.2342 15.4663 26.2342H17.733C18.0336 26.2342 18.3218 26.1149 18.5344 25.9023C18.747 25.6897 18.8663 25.4015 18.8663 25.1009V23.4009ZM15.4663 25.1009V23.4009H17.733V25.1009H15.4663Z" fill="#00AEEF"/>
<path d="M12.0656 23.4009C12.0656 23.1003 11.9462 22.8121 11.7336 22.5995C11.5211 22.387 11.2328 22.2676 10.9322 22.2676H8.66556C8.36498 22.2676 8.07671 22.387 7.86417 22.5995C7.65164 22.8121 7.53223 23.1003 7.53223 23.4009V25.1009C7.53223 25.4015 7.65164 25.6897 7.86417 25.9023C8.07671 26.1149 8.36498 26.2342 8.66556 26.2342H10.9322C11.2328 26.2342 11.5211 26.1149 11.7336 25.9023C11.9462 25.6897 12.0656 25.4015 12.0656 25.1009V23.4009ZM8.66556 25.1009V23.4009H10.9322V25.1009H8.66556Z" fill="#00AEEF"/>
<path d="M17.733 27.3672H15.4663C15.1657 27.3672 14.8775 27.4866 14.6649 27.6991C14.4524 27.9117 14.333 28.1999 14.333 28.5005V30.2005C14.333 30.5011 14.4524 30.7894 14.6649 31.0019C14.8775 31.2145 15.1657 31.3339 15.4663 31.3339H17.733C18.0336 31.3339 18.3218 31.2145 18.5344 31.0019C18.747 30.7894 18.8663 30.5011 18.8663 30.2005V28.5005C18.8663 28.1999 18.747 27.9117 18.5344 27.6991C18.3218 27.4866 18.0336 27.3672 17.733 27.3672ZM15.4663 30.2005V28.5005H17.733V30.2005H15.4663Z" fill="#00AEEF"/>
<path d="M22.2671 21.1346H24.5338C24.8344 21.1346 25.1226 21.0153 25.3352 20.8027C25.5477 20.5901 25.6671 20.3019 25.6671 20.0013V18.3013C25.6671 18.0007 25.5477 17.7125 25.3352 17.4999C25.1226 17.2873 24.8344 17.168 24.5338 17.168H22.2671C21.9665 17.168 21.6783 17.2873 21.4657 17.4999C21.2532 17.7125 21.1338 18.0007 21.1338 18.3013V20.0013C21.1338 20.3019 21.2532 20.5901 21.4657 20.8027C21.6783 21.0153 21.9665 21.1346 22.2671 21.1346ZM22.2671 18.3013H24.5338V20.0013H22.2671V18.3013Z" fill="#00AEEF"/>
<path d="M21.1338 25.1009C21.1338 25.4015 21.2532 25.6897 21.4657 25.9023C21.6783 26.1149 21.9665 26.2342 22.2671 26.2342C22.4174 26.2342 22.5616 26.1746 22.6678 26.0682C22.7741 25.962 22.8338 25.8178 22.8338 25.6676C22.8338 25.5173 22.7741 25.3731 22.6678 25.2669C22.5616 25.1606 22.4174 25.1009 22.2671 25.1009V23.4009H24.5338C24.684 23.4009 24.8282 23.3412 24.9344 23.2349C25.0408 23.1287 25.1005 22.9845 25.1005 22.8342C25.1005 22.684 25.0408 22.5398 24.9344 22.4336C24.8282 22.3273 24.684 22.2676 24.5338 22.2676H22.2671C21.9665 22.2676 21.6783 22.387 21.4657 22.5995C21.2532 22.8121 21.1338 23.1003 21.1338 23.4009V25.1009Z" fill="#00AEEF"/>
<path d="M10.9322 27.3672H8.66556C8.36498 27.3672 8.07671 27.4866 7.86417 27.6991C7.65164 27.9117 7.53223 28.1999 7.53223 28.5005V30.2005C7.53223 30.5011 7.65164 30.7894 7.86417 31.0019C8.07671 31.2145 8.36498 31.3339 8.66556 31.3339H10.9322C11.2328 31.3339 11.5211 31.2145 11.7336 31.0019C11.9462 30.7894 12.0656 30.5011 12.0656 30.2005V28.5005C12.0656 28.1999 11.9462 27.9117 11.7336 27.6991C11.5211 27.4866 11.2328 27.3672 10.9322 27.3672ZM8.66556 30.2005V28.5005H10.9322V30.2005H8.66556Z" fill="#00AEEF"/>
<path d="M29.6342 22.2676C28.1772 22.2676 26.753 22.6996 25.5415 23.5091C24.3301 24.3186 23.3859 25.4691 22.8283 26.8152C22.2708 28.1612 22.1249 29.6424 22.4091 31.0714C22.6934 32.5004 23.395 33.813 24.4252 34.8433C25.4555 35.8735 26.7681 36.5751 28.1971 36.8594C29.626 37.1436 31.1073 36.9977 32.4533 36.4402C33.7994 35.8826 34.9499 34.9384 35.7594 33.727C36.5688 32.5155 37.0009 31.0913 37.0009 29.6342C36.9986 27.6811 36.2218 25.8088 34.8408 24.4277C33.4597 23.0467 31.5874 22.2698 29.6342 22.2676ZM29.6342 35.8676C28.4014 35.8676 27.1963 35.502 26.1712 34.817C25.1461 34.1322 24.3472 33.1586 23.8754 32.0196C23.4036 30.8807 23.2801 29.6273 23.5207 28.4182C23.7612 27.209 24.3549 26.0984 25.2267 25.2267C26.0984 24.3549 27.209 23.7612 28.4182 23.5207C29.6273 23.2801 30.8806 23.4036 32.0196 23.8754C33.1586 24.3472 34.1322 25.1461 34.817 26.1712C35.502 27.1963 35.8676 28.4014 35.8676 29.6342C35.8656 31.2869 35.2083 32.8712 34.0397 34.0397C32.8712 35.2083 31.2869 35.8656 29.6342 35.8676Z" fill="#00AEEF"/>
<path d="M29.216 33.9998L26.948 30.0398V29.5118H27.212C27.636 29.5118 27.992 29.4718 28.28 29.3918C28.576 29.3118 28.808 29.1798 28.976 28.9958C29.144 28.8118 29.244 28.5598 29.276 28.2398H26.948V27.4718H29.264C29.208 27.1758 29.096 26.9358 28.928 26.7518C28.76 26.5598 28.532 26.4198 28.244 26.3318C27.964 26.2438 27.62 26.1998 27.212 26.1998H26.948V25.4318H31.916V26.1998H29.648C29.832 26.3518 29.984 26.5318 30.104 26.7398C30.224 26.9478 30.3 27.1918 30.332 27.4718H31.916V28.2398H30.356C30.3 28.8238 30.076 29.2798 29.684 29.6078C29.3 29.9278 28.788 30.1318 28.148 30.2198L30.44 33.9998H29.216Z" fill="#00AEEF"/>
</svg>
