<svg width="24" height="45" viewBox="0 0 24 45" fill="none" xmlns="http://www.w3.org/2000/svg">
<path fill-rule="evenodd" clip-rule="evenodd" d="M18.5998 7.69991C19.9998 7.69991 21.3998 7.69991 22.6998 7.69991H23.2998V0.599915C22.5998 0.599915 21.7998 0.399902 20.9998 0.399902C19.5998 0.399902 18.1998 0.399902 16.7998 0.399902C14.6998 0.399902 12.5998 0.999905 10.8998 2.19991C8.9998 3.59991 7.6998 5.79991 7.3998 8.09991C7.1998 8.99991 7.09981 9.9999 7.09981 10.8999C7.09981 12.4999 7.09981 14.0999 7.09981 15.6999V16.4999H0.299805V24.3999H6.9998V44.2999H15.3998V24.2999H22.0998L22.8998 16.3999H15.0998C15.0998 16.3999 15.0998 12.4999 15.0998 10.7999C15.3998 8.39991 16.7998 7.69991 18.5998 7.69991Z" fill="#4D77AC"/>
</svg>
