<svg width="39" height="39" viewBox="0 0 39 39" fill="none" xmlns="http://www.w3.org/2000/svg">
<path d="M0.700012 13.0998H8.70001V38.8998H0.700012V13.0998ZM4.70001 0.299805C7.30001 0.299805 9.29999 2.3998 9.29999 4.9998C9.29999 7.5998 7.20001 9.59981 4.60001 9.59981C2.00001 9.59981 0 7.4998 0 4.9998C0 2.2998 2.10001 0.299805 4.70001 0.299805Z" fill="#1186C8"/>
<path d="M13.6001 13.0999H21.3001V16.5999C22.9001 13.8999 25.8001 12.2999 28.9001 12.3999C37.0001 12.3999 38.5001 17.6999 38.5001 24.6999V38.7999H30.7001V26.2999C30.7001 23.2999 30.7001 19.4999 26.5001 19.4999C22.3001 19.4999 21.7001 22.7999 21.7001 25.9999V38.7999H13.6001V13.0999Z" fill="#1186C8"/>
</svg>
