<svg width="40" height="41" viewBox="0 0 40 41" fill="none" xmlns="http://www.w3.org/2000/svg">
<path d="M38.345 22.1009C38.345 20.6283 35.2838 19.4355 31.5075 19.4355C27.7311 19.4355 24.6699 20.6283 24.6699 22.1009C24.6699 23.5736 27.7311 24.7664 31.5075 24.7664C35.2838 24.7664 38.345 23.5736 38.345 22.1009Z" stroke="#00AEEF" stroke-width="0.6" stroke-miterlimit="10" stroke-linecap="round" stroke-linejoin="round"/>
<path d="M38.345 22.101V24.3861C38.345 25.8578 35.2838 27.0515 31.5075 27.0515C27.7311 27.0515 24.6699 25.8578 24.6699 24.3861V22.101" stroke="#00AEEF" stroke-width="0.6" stroke-miterlimit="10" stroke-linecap="round" stroke-linejoin="round"/>
<path d="M25.877 25.8975V23.6127" stroke="#00AEEF" stroke-width="0.6" stroke-miterlimit="10" stroke-linecap="round" stroke-linejoin="round"/>
<path d="M27.4854 26.5413V24.2563" stroke="#00AEEF" stroke-width="0.6" stroke-miterlimit="10" stroke-linecap="round" stroke-linejoin="round"/>
<path d="M29.0947 26.8796V24.5951" stroke="#00AEEF" stroke-width="0.6" stroke-miterlimit="10" stroke-linecap="round" stroke-linejoin="round"/>
<path d="M30.7031 27.0325V24.748" stroke="#00AEEF" stroke-width="0.6" stroke-miterlimit="10" stroke-linecap="round" stroke-linejoin="round"/>
<path d="M32.3125 27.0327V24.7479" stroke="#00AEEF" stroke-width="0.6" stroke-miterlimit="10" stroke-linecap="round" stroke-linejoin="round"/>
<path d="M33.9209 26.8804V24.5948" stroke="#00AEEF" stroke-width="0.6" stroke-miterlimit="10" stroke-linecap="round" stroke-linejoin="round"/>
<path d="M35.5293 26.5413V24.2563" stroke="#00AEEF" stroke-width="0.6" stroke-miterlimit="10" stroke-linecap="round" stroke-linejoin="round"/>
<path d="M37.1387 25.8979V23.6131" stroke="#00AEEF" stroke-width="0.6" stroke-miterlimit="10" stroke-linecap="round" stroke-linejoin="round"/>
<path d="M35.1271 28.5974C37.0624 29.0698 38.345 29.9038 38.345 30.86C38.345 31.4235 37.8986 31.941 37.1388 32.3721C36.7004 32.6191 36.1568 32.8398 35.5299 33.0154C35.0388 33.1563 34.5002 33.2699 33.9209 33.3545C33.8286 33.3695 33.7394 33.3808 33.6471 33.392C33.6471 33.392 33.6471 33.392 33.6431 33.392C33.2166 33.4493 32.7742 33.4878 32.3119 33.5066C32.0501 33.5179 31.7813 33.5254 31.5075 33.5254C31.2337 33.5254 30.9649 33.5179 30.703 33.5066C30.1435 33.4841 29.6049 33.4305 29.094 33.3545C28.5147 33.2699 27.9761 33.1563 27.4851 33.0154C26.9822 32.8745 26.5318 32.7064 26.1499 32.5167C26.1499 32.5167 26.1499 32.5167 26.1459 32.5167C26.0497 32.4707 25.9614 32.4209 25.8761 32.3721C25.1163 31.941 24.6699 31.4235 24.6699 30.86C24.6699 30.8524 24.6699 30.8449 24.6699 30.8365" stroke="#00AEEF" stroke-width="0.6" stroke-miterlimit="10" stroke-linecap="round" stroke-linejoin="round"/>
<path d="M38.345 30.86V33.1451C38.345 34.6168 35.2838 35.8105 31.5075 35.8105C27.7311 35.8105 24.6699 34.6168 24.6699 33.1451V30.86" stroke="#00AEEF" stroke-width="0.6" stroke-miterlimit="10" stroke-linecap="round" stroke-linejoin="round"/>
<path d="M25.877 34.6562V32.3714" stroke="#00AEEF" stroke-width="0.6" stroke-miterlimit="10" stroke-linecap="round" stroke-linejoin="round"/>
<path d="M27.4854 35.2998V33.0149" stroke="#00AEEF" stroke-width="0.6" stroke-miterlimit="10" stroke-linecap="round" stroke-linejoin="round"/>
<path d="M29.0947 35.6384V33.3539" stroke="#00AEEF" stroke-width="0.6" stroke-miterlimit="10" stroke-linecap="round" stroke-linejoin="round"/>
<path d="M30.7031 35.7917V33.5064" stroke="#00AEEF" stroke-width="0.6" stroke-miterlimit="10" stroke-linecap="round" stroke-linejoin="round"/>
<path d="M32.3125 35.7913V33.5065" stroke="#00AEEF" stroke-width="0.6" stroke-miterlimit="10" stroke-linecap="round" stroke-linejoin="round"/>
<path d="M33.9209 35.6389V33.3543" stroke="#00AEEF" stroke-width="0.6" stroke-miterlimit="10" stroke-linecap="round" stroke-linejoin="round"/>
<path d="M35.5293 35.3003V33.0153" stroke="#00AEEF" stroke-width="0.6" stroke-miterlimit="10" stroke-linecap="round" stroke-linejoin="round"/>
<path d="M37.1387 34.6567V32.3719" stroke="#00AEEF" stroke-width="0.6" stroke-miterlimit="10" stroke-linecap="round" stroke-linejoin="round"/>
<path d="M24.6698 24.0282C22.7359 24.5002 21.4521 25.3347 21.4521 26.2898C21.4521 26.8538 21.8992 27.3719 22.6591 27.8025C23.0974 28.05 23.6406 28.2708 24.2674 28.4456C24.7582 28.5864 25.2975 28.7005 25.8767 28.7842C26.1984 28.8339 26.5366 28.8716 26.8787 28.8983C27.0798 28.914 27.28 28.9296 27.486 28.937C27.7475 28.948 28.0166 28.9563 28.2897 28.9563C28.5638 28.9563 28.8329 28.948 29.0944 28.937C29.6531 28.914 30.1925 28.8606 30.7037 28.7842C31.2828 28.7005 31.8212 28.5864 32.312 28.4456C32.5258 28.3849 32.726 28.3196 32.9194 28.2515C33.2935 28.1181 33.6317 27.9653 33.9213 27.8025C34.5082 27.4703 34.9106 27.0857 35.0592 26.6671V26.6634" stroke="#00AEEF" stroke-width="0.6" stroke-miterlimit="10" stroke-linecap="round" stroke-linejoin="round"/>
<path d="M33.6498 24.6333H33.6465" stroke="#00AEEF" stroke-width="0.6" stroke-miterlimit="10" stroke-linecap="round" stroke-linejoin="round"/>
<path d="M21.4521 26.2897V28.5744C21.4521 29.1387 21.8984 29.656 22.6587 30.0868C23.0971 30.3344 23.6406 30.5554 24.2677 30.7303C24.396 30.768 24.5331 30.803 24.6702 30.837C25.0484 30.9282 25.4538 31.0083 25.8767 31.069C26.3871 31.1454 26.9267 31.1988 27.4857 31.2218C27.7472 31.2329 28.0165 31.2402 28.2897 31.2402C28.5629 31.2402 28.8332 31.2329 29.0938 31.2218C29.6528 31.1988 30.1924 31.1454 30.7028 31.069C31.2822 30.9852 31.8208 30.8711 32.3118 30.7303C32.9389 30.5554 33.4823 30.3344 33.9208 30.0868C34.6733 29.6634 35.1157 29.1534 35.1273 28.5975C35.1273 28.5901 35.1273 28.5827 35.1273 28.5744V26.6478" stroke="#00AEEF" stroke-width="0.6" stroke-miterlimit="10" stroke-linecap="round" stroke-linejoin="round"/>
<path d="M22.6592 30.0864V27.8017" stroke="#00AEEF" stroke-width="0.6" stroke-miterlimit="10" stroke-linecap="round" stroke-linejoin="round"/>
<path d="M24.2676 30.73V28.4449" stroke="#00AEEF" stroke-width="0.6" stroke-miterlimit="10" stroke-linecap="round" stroke-linejoin="round"/>
<path d="M25.877 31.0686V28.7838" stroke="#00AEEF" stroke-width="0.6" stroke-miterlimit="10" stroke-linecap="round" stroke-linejoin="round"/>
<path d="M27.4854 31.2214V28.9365" stroke="#00AEEF" stroke-width="0.6" stroke-miterlimit="10" stroke-linecap="round" stroke-linejoin="round"/>
<path d="M29.0947 31.2217V28.9363" stroke="#00AEEF" stroke-width="0.6" stroke-miterlimit="10" stroke-linecap="round" stroke-linejoin="round"/>
<path d="M30.7031 31.0688V28.7844" stroke="#00AEEF" stroke-width="0.6" stroke-miterlimit="10" stroke-linecap="round" stroke-linejoin="round"/>
<path d="M32.3125 30.7307V28.445" stroke="#00AEEF" stroke-width="0.6" stroke-miterlimit="10" stroke-linecap="round" stroke-linejoin="round"/>
<path d="M33.9209 30.0864V27.8018" stroke="#00AEEF" stroke-width="0.6" stroke-miterlimit="10" stroke-linecap="round" stroke-linejoin="round"/>
<path d="M26.1486 32.5168C26.1486 32.5168 26.1486 32.5168 26.1455 32.5168" stroke="#00AEEF" stroke-width="0.6" stroke-miterlimit="10" stroke-linecap="round" stroke-linejoin="round"/>
<path d="M33.6459 33.3921C33.6459 33.3921 33.6459 33.3921 33.6426 33.3921" stroke="#00AEEF" stroke-width="0.6" stroke-miterlimit="10" stroke-linecap="round" stroke-linejoin="round"/>
<path d="M24.6698 32.7867C22.7359 33.2588 21.4521 34.0933 21.4521 35.0493C21.4521 35.6124 21.8992 36.1304 22.6591 36.561C23.0974 36.8085 23.6406 37.0294 24.2674 37.2042C24.7582 37.345 25.2975 37.46 25.8767 37.5437C26.3879 37.6192 26.9263 37.6725 27.486 37.6955C27.7475 37.7075 28.0166 37.7148 28.2897 37.7148C28.5638 37.7148 28.8329 37.7075 29.0944 37.6955C29.6531 37.6725 30.1925 37.6192 30.7037 37.5437C31.2828 37.46 31.8212 37.345 32.312 37.2042C32.9398 37.0294 33.483 36.8085 33.9213 36.561C34.5082 36.2298 34.9106 35.8452 35.0592 35.4256V35.4219" stroke="#00AEEF" stroke-width="0.6" stroke-miterlimit="10" stroke-linecap="round" stroke-linejoin="round"/>
<path d="M21.4521 35.0483V37.334C21.4521 37.8973 21.8984 38.4146 22.6587 38.8454C23.0971 39.0931 23.6406 39.314 24.2677 39.4889C24.7586 39.6297 25.2973 39.7439 25.8767 39.8276C26.3871 39.904 26.9267 39.9574 27.4857 39.9804C27.7472 39.9915 28.0165 39.9998 28.2897 39.9998C28.5629 39.9998 28.8332 39.9915 29.0938 39.9804C29.6528 39.9574 30.1924 39.904 30.7028 39.8276C31.2822 39.7439 31.8208 39.6297 32.3118 39.4889C32.9389 39.314 33.4823 39.0931 33.9208 38.8454C34.6811 38.4146 35.1273 37.8973 35.1273 37.334V35.4064" stroke="#00AEEF" stroke-width="0.6" stroke-miterlimit="10" stroke-linecap="round" stroke-linejoin="round"/>
<path d="M22.6592 38.8457V36.561" stroke="#00AEEF" stroke-width="0.6" stroke-miterlimit="10" stroke-linecap="round" stroke-linejoin="round"/>
<path d="M24.2676 39.4885V37.2043" stroke="#00AEEF" stroke-width="0.6" stroke-miterlimit="10" stroke-linecap="round" stroke-linejoin="round"/>
<path d="M25.877 39.8274V37.5426" stroke="#00AEEF" stroke-width="0.6" stroke-miterlimit="10" stroke-linecap="round" stroke-linejoin="round"/>
<path d="M27.4854 39.98V37.6951" stroke="#00AEEF" stroke-width="0.6" stroke-miterlimit="10" stroke-linecap="round" stroke-linejoin="round"/>
<path d="M29.0947 39.98V37.6955" stroke="#00AEEF" stroke-width="0.6" stroke-miterlimit="10" stroke-linecap="round" stroke-linejoin="round"/>
<path d="M30.7031 39.8281V37.5428" stroke="#00AEEF" stroke-width="0.6" stroke-miterlimit="10" stroke-linecap="round" stroke-linejoin="round"/>
<path d="M32.3125 39.4893V37.2045" stroke="#00AEEF" stroke-width="0.6" stroke-miterlimit="10" stroke-linecap="round" stroke-linejoin="round"/>
<path d="M33.9209 38.8455V36.5608" stroke="#00AEEF" stroke-width="0.6" stroke-miterlimit="10" stroke-linecap="round" stroke-linejoin="round"/>
<path d="M17.0275 28.4263C18.9628 28.8987 20.2454 29.7327 20.2454 30.6888C20.2454 31.2523 19.799 31.7698 19.0392 32.2009C18.6008 32.4479 18.0572 32.6686 17.4302 32.8443C16.9392 32.9851 16.4006 33.0988 15.8213 33.1833C15.729 33.1983 15.6398 33.2096 15.5475 33.2209C15.5475 33.2209 15.5475 33.2209 15.5435 33.2209C15.117 33.2782 14.6746 33.3167 14.2123 33.3355C13.9505 33.3467 13.6816 33.3542 13.4079 33.3542C13.1341 33.3542 12.8653 33.3467 12.6034 33.3355C12.0439 33.3129 11.5053 33.2594 10.9944 33.1833C10.4151 33.0988 9.8765 32.9851 9.38548 32.8443C8.88256 32.7034 8.43221 32.5353 8.0503 32.3455C8.0503 32.3455 8.05031 32.3455 8.04634 32.3455C7.95012 32.2995 7.86183 32.2498 7.77653 32.2009C7.01669 31.7698 6.57031 31.2523 6.57031 30.6888C6.57031 30.6813 6.57031 30.6738 6.57031 30.6653" stroke="#00AEEF" stroke-width="0.6" stroke-miterlimit="10" stroke-linecap="round" stroke-linejoin="round"/>
<path d="M20.2454 30.6889V32.974C20.2454 34.4457 17.1842 35.6394 13.4079 35.6394C9.63149 35.6394 6.57031 34.4457 6.57031 32.974V30.6889" stroke="#00AEEF" stroke-width="0.6" stroke-miterlimit="10" stroke-linecap="round" stroke-linejoin="round"/>
<path d="M7.77734 34.4849V32.2001" stroke="#00AEEF" stroke-width="0.6" stroke-miterlimit="10" stroke-linecap="round" stroke-linejoin="round"/>
<path d="M9.38672 35.1287V32.8437" stroke="#00AEEF" stroke-width="0.6" stroke-miterlimit="10" stroke-linecap="round" stroke-linejoin="round"/>
<path d="M10.9951 35.4673V33.1828" stroke="#00AEEF" stroke-width="0.6" stroke-miterlimit="10" stroke-linecap="round" stroke-linejoin="round"/>
<path d="M12.6035 35.6206V33.3353" stroke="#00AEEF" stroke-width="0.6" stroke-miterlimit="10" stroke-linecap="round" stroke-linejoin="round"/>
<path d="M14.2129 35.6199V33.3351" stroke="#00AEEF" stroke-width="0.6" stroke-miterlimit="10" stroke-linecap="round" stroke-linejoin="round"/>
<path d="M15.8213 35.4678V33.1831" stroke="#00AEEF" stroke-width="0.6" stroke-miterlimit="10" stroke-linecap="round" stroke-linejoin="round"/>
<path d="M17.4307 35.1287V32.8437" stroke="#00AEEF" stroke-width="0.6" stroke-miterlimit="10" stroke-linecap="round" stroke-linejoin="round"/>
<path d="M19.0391 34.4854V32.2006" stroke="#00AEEF" stroke-width="0.6" stroke-miterlimit="10" stroke-linecap="round" stroke-linejoin="round"/>
<path d="M6.57016 23.8566C4.63629 24.3286 3.35254 25.1631 3.35254 26.1182C3.35254 26.6822 3.79957 27.2002 4.55951 27.6308C4.99779 27.8784 5.54103 28.0992 6.16784 28.274C6.65859 28.4148 7.19794 28.5289 7.77713 28.6126C8.09879 28.6623 8.43698 28.7 8.77906 28.7267C8.98022 28.7423 9.18041 28.758 9.38643 28.7653C9.64784 28.7764 9.91703 28.7847 10.1901 28.7847C10.4642 28.7847 10.7333 28.7764 10.9948 28.7653C11.5535 28.7423 12.0929 28.689 12.604 28.6126C13.1832 28.5289 13.7216 28.4148 14.2124 28.274C14.4262 28.2133 14.6264 28.1479 14.8197 28.0799C15.1939 27.9464 15.5321 27.7937 15.8217 27.6308C16.4086 27.2987 16.811 26.9141 16.9596 26.4954V26.4918" stroke="#00AEEF" stroke-width="0.6" stroke-miterlimit="10" stroke-linecap="round" stroke-linejoin="round"/>
<path d="M12.6037 19.1222C8.8273 19.1222 6.57031 20.4569 6.57031 21.9295M6.57031 21.9295C6.57031 23.4022 9.63149 24.595 13.4079 24.595C17.1842 24.595 20.2454 23.4022 20.2454 21.9295V24.2146C20.2454 25.6863 17.1842 26.88 13.4079 26.88C9.63149 26.88 6.57031 25.6863 6.57031 24.2146V21.9295ZM7.77712 25.7261V23.4413M9.38598 26.3697V24.0848M10.9948 26.7081V24.4236M12.6037 26.8609V24.5765M14.2125 26.8612V24.5764M15.8214 26.7088V24.4233M17.4302 26.3699V24.0849M19.0391 25.7263V23.4415M15.5513 24.4618H15.5474" stroke="#00AEEF" stroke-width="0.6" stroke-miterlimit="10" stroke-linecap="round" stroke-linejoin="round"/>
<path d="M26.4397 17.0458C26.4397 18.5184 23.3786 19.7112 19.6022 19.7112C15.8258 19.7112 12.7646 18.5184 12.7646 17.0458M26.4397 17.0458V19.3308C26.4397 20.8025 23.3786 21.9963 19.6022 21.9963C15.8258 21.9963 12.7646 20.8025 12.7646 19.3308V17.0458M26.4397 17.0458C26.4397 15.9463 24.7334 15.0028 22.297 14.5952M12.7646 17.0458C12.7646 15.8253 14.867 14.7971 17.7364 14.4807M13.9715 20.8423V18.5575M15.5803 21.486V19.201M17.1892 21.8243V19.5398M18.798 21.9771V19.6927M20.4068 21.9774V19.6926M22.0157 21.8251V19.5395M23.6246 21.4861V19.2012M25.2334 20.8425V18.5577M21.7456 19.578H21.7417" stroke="#00AEEF" stroke-width="0.6" stroke-miterlimit="10" stroke-linecap="round" stroke-linejoin="round"/>
<path d="M3.35254 26.1186V28.4033C3.35254 28.9676 3.79878 29.4849 4.55905 29.9157C4.99752 30.1633 5.54099 30.3842 6.16807 30.5591C6.2964 30.5969 6.43349 30.6318 6.57057 30.6659C6.94876 30.757 7.35417 30.8371 7.77709 30.8979C8.2875 30.9743 8.82708 31.0277 9.3861 31.0507C9.64763 31.0617 9.91693 31.0691 10.1901 31.0691C10.4633 31.0691 10.7336 31.0617 10.9942 31.0507C11.5532 31.0277 12.0928 30.9743 12.6032 30.8979C13.1826 30.8141 13.7212 30.7 14.2122 30.5591C14.8393 30.3842 15.3827 30.1633 15.8212 29.9157C16.5737 29.4923 17.016 28.9823 17.0277 28.4263C17.0277 28.4189 17.0277 28.4116 17.0277 28.4033V26.4767" stroke="#00AEEF" stroke-width="0.6" stroke-miterlimit="10" stroke-linecap="round" stroke-linejoin="round"/>
<path d="M4.55957 29.9153V27.6306" stroke="#00AEEF" stroke-width="0.6" stroke-miterlimit="10" stroke-linecap="round" stroke-linejoin="round"/>
<path d="M6.16797 30.5588V28.2738" stroke="#00AEEF" stroke-width="0.6" stroke-miterlimit="10" stroke-linecap="round" stroke-linejoin="round"/>
<path d="M7.77734 30.8975V28.6126" stroke="#00AEEF" stroke-width="0.6" stroke-miterlimit="10" stroke-linecap="round" stroke-linejoin="round"/>
<path d="M9.38672 31.0503V28.7654" stroke="#00AEEF" stroke-width="0.6" stroke-miterlimit="10" stroke-linecap="round" stroke-linejoin="round"/>
<path d="M10.9951 31.0505V28.7652" stroke="#00AEEF" stroke-width="0.6" stroke-miterlimit="10" stroke-linecap="round" stroke-linejoin="round"/>
<path d="M12.6035 30.8975V28.613" stroke="#00AEEF" stroke-width="0.6" stroke-miterlimit="10" stroke-linecap="round" stroke-linejoin="round"/>
<path d="M14.2129 30.5593V28.2736" stroke="#00AEEF" stroke-width="0.6" stroke-miterlimit="10" stroke-linecap="round" stroke-linejoin="round"/>
<path d="M15.8213 29.9153V27.6306" stroke="#00AEEF" stroke-width="0.6" stroke-miterlimit="10" stroke-linecap="round" stroke-linejoin="round"/>
<path d="M8.04902 32.3452C8.04902 32.3452 8.04902 32.3452 8.0459 32.3452" stroke="#00AEEF" stroke-width="0.6" stroke-miterlimit="10" stroke-linecap="round" stroke-linejoin="round"/>
<path d="M15.5472 33.2209C15.5472 33.2209 15.5472 33.2209 15.5439 33.2209" stroke="#00AEEF" stroke-width="0.6" stroke-miterlimit="10" stroke-linecap="round" stroke-linejoin="round"/>
<path d="M6.57016 32.6151C4.63629 33.0871 3.35254 33.9217 3.35254 34.8777C3.35254 35.4408 3.79957 35.9588 4.55951 36.3894C4.99779 36.6369 5.54103 36.8577 6.16784 37.0326C6.65859 37.1733 7.19794 37.2883 7.77713 37.3721C8.28829 37.4475 8.82667 37.5009 9.38643 37.5239C9.64784 37.5359 9.91703 37.5432 10.1901 37.5432C10.4642 37.5432 10.7333 37.5359 10.9948 37.5239C11.5535 37.5009 12.0929 37.4475 12.604 37.3721C13.1832 37.2883 13.7216 37.1733 14.2124 37.0326C14.8401 36.8577 15.3834 36.6369 15.8217 36.3894C16.4086 36.0582 16.811 35.6736 16.9596 35.254V35.2503" stroke="#00AEEF" stroke-width="0.6" stroke-miterlimit="10" stroke-linecap="round" stroke-linejoin="round"/>
<path d="M3.35254 34.8774V37.1631C3.35254 37.7264 3.79878 38.2437 4.55905 38.6745C4.99752 38.9222 5.54099 39.1431 6.16807 39.318C6.65904 39.4588 7.19765 39.573 7.77709 39.6567C8.2875 39.7331 8.82708 39.7865 9.3861 39.8095C9.64763 39.8206 9.91693 39.8289 10.1901 39.8289C10.4633 39.8289 10.7336 39.8206 10.9942 39.8095C11.5532 39.7865 12.0928 39.7331 12.6032 39.6567C13.1826 39.573 13.7212 39.4588 14.2122 39.318C14.8393 39.1431 15.3827 38.9222 15.8212 38.6745C16.5815 38.2437 17.0277 37.7264 17.0277 37.1631V35.2355" stroke="#00AEEF" stroke-width="0.6" stroke-miterlimit="10" stroke-linecap="round" stroke-linejoin="round"/>
<path d="M4.55957 38.6743V36.3896" stroke="#00AEEF" stroke-width="0.6" stroke-miterlimit="10" stroke-linecap="round" stroke-linejoin="round"/>
<path d="M6.16797 39.3174V37.0332" stroke="#00AEEF" stroke-width="0.6" stroke-miterlimit="10" stroke-linecap="round" stroke-linejoin="round"/>
<path d="M7.77734 39.6562V37.3714" stroke="#00AEEF" stroke-width="0.6" stroke-miterlimit="10" stroke-linecap="round" stroke-linejoin="round"/>
<path d="M9.38672 39.8088V37.5239" stroke="#00AEEF" stroke-width="0.6" stroke-miterlimit="10" stroke-linecap="round" stroke-linejoin="round"/>
<path d="M10.9951 39.8088V37.5243" stroke="#00AEEF" stroke-width="0.6" stroke-miterlimit="10" stroke-linecap="round" stroke-linejoin="round"/>
<path d="M12.6035 39.6567V37.3714" stroke="#00AEEF" stroke-width="0.6" stroke-miterlimit="10" stroke-linecap="round" stroke-linejoin="round"/>
<path d="M14.2129 39.3176V37.0328" stroke="#00AEEF" stroke-width="0.6" stroke-miterlimit="10" stroke-linecap="round" stroke-linejoin="round"/>
<path d="M15.8213 38.6738V36.3892" stroke="#00AEEF" stroke-width="0.6" stroke-miterlimit="10" stroke-linecap="round" stroke-linejoin="round"/>
<mask id="path-78-inside-1_1681_21401" fill="white">
<path fill-rule="evenodd" clip-rule="evenodd" d="M6 1C4.89543 1 4 1.89543 4 3V11C4 12.1046 4.89543 13 6 13H17.6644L19.2386 16.1857C19.6056 16.9284 20.6647 16.9284 21.0317 16.1857L22.6059 13H36C37.1046 13 38 12.1046 38 11V3C38 1.89543 37.1046 1 36 1H6Z"/>
</mask>
<path d="M17.6644 13L18.2919 12.6899L18.0993 12.3H17.6644V13ZM19.2386 16.1857L19.8662 15.8756L19.8662 15.8756L19.2386 16.1857ZM21.0317 16.1857L21.6592 16.4959L21.6592 16.4959L21.0317 16.1857ZM22.6059 13V12.3H22.171L21.9783 12.6899L22.6059 13ZM4.7 3C4.7 2.28203 5.28203 1.7 6 1.7V0.3C4.50883 0.3 3.3 1.50883 3.3 3H4.7ZM4.7 11V3H3.3V11H4.7ZM6 12.3C5.28203 12.3 4.7 11.718 4.7 11H3.3C3.3 12.4912 4.50883 13.7 6 13.7V12.3ZM17.6644 12.3H6V13.7H17.6644V12.3ZM19.8662 15.8756L18.2919 12.6899L17.0368 13.3101L18.6111 16.4959L19.8662 15.8756ZM20.4041 15.8756C20.294 16.0984 19.9763 16.0984 19.8662 15.8756L18.6111 16.4959C19.2349 17.7584 21.0353 17.7584 21.6592 16.4959L20.4041 15.8756ZM21.9783 12.6899L20.4041 15.8756L21.6592 16.4959L23.2335 13.3101L21.9783 12.6899ZM36 12.3H22.6059V13.7H36V12.3ZM37.3 11C37.3 11.718 36.718 12.3 36 12.3V13.7C37.4912 13.7 38.7 12.4912 38.7 11H37.3ZM37.3 3V11H38.7V3H37.3ZM36 1.7C36.718 1.7 37.3 2.28203 37.3 3H38.7C38.7 1.50883 37.4912 0.3 36 0.3V1.7ZM6 1.7H36V0.3H6V1.7Z" fill="#00AEEF" mask="url(#path-78-inside-1_1681_21401)"/>
<path d="M13.672 5.4H11.64V6.8H13.192L13.344 7.728H11.64V10H10.584V4.48H13.672V5.4ZM18.9137 7.84C18.9137 9.304 18.0017 10.096 16.6657 10.096C15.3297 10.096 14.4577 9.304 14.4577 7.864V4.48H15.5137V7.808C15.5137 8.648 15.8977 9.176 16.6737 9.176C17.4577 9.176 17.8497 8.68 17.8497 7.832V4.48H18.9137V7.84ZM24.4855 10H23.6055L21.0055 6.2V10H20.0215V4.48H21.0215L23.5015 8.096V4.48H24.4855V10ZM30.3183 7.232C30.3183 8.872 29.2863 10 27.4063 10H25.6543V4.48H27.4063C29.3263 4.48 30.3183 5.608 30.3183 7.232ZM29.2383 7.24C29.2383 5.968 28.5023 5.352 27.3983 5.352H26.7103V9.128H27.3823C28.5423 9.128 29.2383 8.536 29.2383 7.24Z" fill="#00AEEF"/>
</svg>
