<svg width="40" height="40" viewBox="0 0 40 40" fill="none" xmlns="http://www.w3.org/2000/svg">
<path d="M35.7384 37.0001H4.50166C4.36861 37.0001 4.24101 36.9473 4.14693 36.8532C4.05285 36.7591 4 36.6315 4 36.4985C4 36.3654 4.05285 36.2378 4.14693 36.1438C4.24101 36.0497 4.36861 35.9968 4.50166 35.9968H35.7384C35.8714 35.9968 35.999 36.0497 36.0931 36.1438C36.1872 36.2378 36.24 36.3654 36.24 36.4985C36.24 36.6315 36.1872 36.7591 36.0931 36.8532C35.999 36.9473 35.8714 37.0001 35.7384 37.0001Z" fill="#00AEEF"/>
<path d="M18.1134 24.9936H12.6954C12.2964 24.994 11.9139 25.1528 11.6318 25.4349C11.3496 25.717 11.1909 26.0996 11.1905 26.4986V31.2224C11.1909 31.6214 11.3496 32.0039 11.6318 32.2861C11.9139 32.5682 12.2964 32.7269 12.6954 32.7274H18.1134C18.5124 32.7269 18.8949 32.5682 19.1771 32.2861C19.4592 32.0039 19.6179 31.6214 19.6184 31.2224V26.4986C19.6179 26.0996 19.4592 25.717 19.1771 25.4349C18.8949 25.1528 18.5124 24.994 18.1134 24.9936ZM18.615 31.2224C18.6149 31.3554 18.562 31.4829 18.4679 31.577C18.3739 31.671 18.2464 31.7239 18.1134 31.7241H12.6954C12.5624 31.7239 12.4349 31.671 12.3409 31.577C12.2468 31.4829 12.1939 31.3554 12.1938 31.2224V26.4986C12.1939 26.3656 12.2468 26.238 12.3409 26.144C12.4349 26.0499 12.5624 25.9971 12.6954 25.9969H18.1134C18.2464 25.9971 18.3739 26.0499 18.4679 26.144C18.562 26.238 18.6149 26.3656 18.615 26.4986V31.2224ZM16.9739 19.6217H15.9061V18.5539C15.9061 18.4208 15.8532 18.2932 15.7591 18.1991C15.6651 18.1051 15.5375 18.0522 15.4044 18.0522C15.2714 18.0522 15.1438 18.1051 15.0497 18.1991C14.9556 18.2932 14.9028 18.4208 14.9028 18.5539V19.6217H13.835C13.7019 19.6217 13.5743 19.6745 13.4802 19.7686C13.3861 19.8627 13.3333 19.9903 13.3333 20.1233C13.3333 20.2564 13.3861 20.384 13.4802 20.4781C13.5743 20.5721 13.7019 20.625 13.835 20.625H14.9028V21.6929C14.9028 21.8259 14.9556 21.9535 15.0497 22.0476C15.1438 22.1417 15.2714 22.1945 15.4044 22.1945C15.5375 22.1945 15.6651 22.1417 15.7591 22.0476C15.8532 21.9535 15.9061 21.8259 15.9061 21.6929V20.625H16.9739C17.1069 20.625 17.2345 20.5721 17.3286 20.4781C17.4227 20.384 17.4755 20.2564 17.4755 20.1233C17.4755 19.9903 17.4227 19.8627 17.3286 19.7686C17.2345 19.6745 17.1069 19.6217 16.9739 19.6217ZM17.1101 28.3589H13.6988C13.5657 28.3589 13.4381 28.4117 13.344 28.5058C13.25 28.5999 13.1971 28.7275 13.1971 28.8605C13.1971 28.9936 13.25 29.1212 13.344 29.2152C13.4381 29.3093 13.5657 29.3622 13.6988 29.3622H17.1101C17.2431 29.3622 17.3707 29.3093 17.4648 29.2152C17.5589 29.1212 17.6117 28.9936 17.6117 28.8605C17.6117 28.7275 17.5589 28.5999 17.4648 28.5058C17.3707 28.4117 17.2431 28.3589 17.1101 28.3589ZM15.4044 27.8572C15.5036 27.8572 15.6006 27.8278 15.6831 27.7727C15.7656 27.7175 15.8299 27.6392 15.8679 27.5475C15.9059 27.4558 15.9158 27.355 15.8964 27.2577C15.8771 27.1604 15.8293 27.071 15.7591 27.0008C15.689 26.9307 15.5996 26.8829 15.5023 26.8635C15.405 26.8442 15.3041 26.8541 15.2124 26.8921C15.1208 26.93 15.0424 26.9943 14.9873 27.0768C14.9322 27.1593 14.9028 27.2563 14.9028 27.3555C14.9028 27.4886 14.9556 27.6162 15.0497 27.7103C15.1438 27.8043 15.2714 27.8572 15.4044 27.8572ZM15.4044 29.8638C15.3052 29.8638 15.2082 29.8933 15.1257 29.9484C15.0432 30.0035 14.9789 30.0819 14.9409 30.1735C14.903 30.2652 14.893 30.3661 14.9124 30.4634C14.9317 30.5607 14.9795 30.6501 15.0497 30.7202C15.1198 30.7904 15.2092 30.8382 15.3065 30.8575C15.4039 30.8769 15.5047 30.8669 15.5964 30.829C15.6881 30.791 15.7664 30.7267 15.8215 30.6442C15.8767 30.5617 15.9061 30.4647 15.9061 30.3655C15.9061 30.2325 15.8532 30.1049 15.7591 30.0108C15.6651 29.9167 15.5375 29.8638 15.4044 29.8638ZM23.13 20.6249H26.5413C26.6743 20.6249 26.8019 20.5721 26.896 20.478C26.9901 20.3839 27.0429 20.2563 27.0429 20.1233C27.0429 19.9902 26.9901 19.8626 26.896 19.7685C26.8019 19.6745 26.6743 19.6216 26.5413 19.6216H23.13C22.9969 19.6216 22.8693 19.6745 22.7753 19.7685C22.6812 19.8626 22.6283 19.9902 22.6283 20.1233C22.6283 20.2563 22.6812 20.3839 22.7753 20.478C22.8693 20.5721 22.9969 20.6249 23.13 20.6249ZM17.9796 11.7832C17.9796 12.2065 18.1051 12.6204 18.3403 12.9723C18.5755 13.3243 18.9098 13.5987 19.3009 13.7607C19.692 13.9227 20.1224 13.9651 20.5376 13.8825C20.9528 13.7999 21.3342 13.596 21.6335 13.2967C21.9329 12.9974 22.1367 12.616 22.2193 12.2008C22.3019 11.7856 22.2595 11.3552 22.0975 10.9641C21.9355 10.573 21.6612 10.2387 21.3092 10.0035C20.9572 9.76831 20.5434 9.64278 20.12 9.64278C19.5525 9.64342 19.0085 9.86913 18.6072 10.2704C18.206 10.6717 17.9802 11.2157 17.9796 11.7832ZM21.2571 11.7832C21.2571 12.0081 21.1904 12.2279 21.0655 12.4149C20.9405 12.6019 20.7629 12.7477 20.5552 12.8337C20.3474 12.9198 20.1188 12.9423 19.8982 12.8984C19.6776 12.8546 19.475 12.7463 19.316 12.5872C19.1569 12.4282 19.0486 12.2256 19.0048 12.005C18.9609 11.7845 18.9834 11.5558 19.0695 11.348C19.1555 11.1403 19.3013 10.9627 19.4883 10.8377C19.6753 10.7128 19.8951 10.6461 20.12 10.6461C20.4215 10.6464 20.7105 10.7663 20.9237 10.9795C21.1369 11.1927 21.2568 11.4817 21.2571 11.7832ZM35.2688 18.3405C35.5262 18.3401 35.7729 18.2377 35.955 18.0557C36.137 17.8738 36.2395 17.6271 36.24 17.3697V15.8056C36.2393 15.5757 36.1863 15.3489 36.0849 15.1425C35.9834 14.9361 35.8364 14.7555 35.6548 14.6144L20.9989 3.29965C20.7471 3.10538 20.4381 3 20.1201 3C19.802 3 19.493 3.10538 19.2412 3.29965L4.58527 14.6143C4.40368 14.7554 4.2566 14.936 4.1552 15.1424C4.05379 15.3488 4.00072 15.5756 4 15.8056V17.3696C4.00002 17.5509 4.05082 17.7285 4.14666 17.8823C4.24249 18.0362 4.37952 18.1601 4.5422 18.24C4.70488 18.32 4.8867 18.3527 5.06704 18.3345C5.24738 18.3164 5.41902 18.248 5.5625 18.1373L6.90963 17.0973V34.4917C6.90906 35.0347 7.08566 35.5631 7.41263 35.9967H4.50166C4.36861 35.9967 4.24101 36.0495 4.14693 36.1436C4.05285 36.2377 4 36.3653 4 36.4983C4 36.6314 4.05285 36.759 4.14693 36.8531C4.24101 36.9471 4.36861 37 4.50166 37H35.7384C35.8714 37 35.999 36.9471 36.0931 36.8531C36.1872 36.759 36.24 36.6314 36.24 36.4983C36.24 36.3653 36.1872 36.2377 36.0931 36.1436C35.999 36.0495 35.8714 35.9967 35.7384 35.9967H32.8274C33.1544 35.5631 33.331 35.0347 33.3304 34.4917V17.0973L34.6775 18.1373C34.8467 18.2687 35.0547 18.3402 35.2688 18.3405ZM32.3271 34.4917C32.3266 34.8907 32.1679 35.2732 31.8858 35.5554C31.6036 35.8375 31.2211 35.9962 30.8221 35.9967H9.41793C9.01893 35.9962 8.6364 35.8375 8.35426 35.5554C8.07212 35.2732 7.91341 34.8907 7.91295 34.4917V16.3228L20.12 6.8987L32.3271 16.3228V34.4917ZM20.4266 5.86782C20.3388 5.80002 20.231 5.76324 20.12 5.76324C20.0091 5.76324 19.9013 5.80002 19.8135 5.86782L5.00332 17.3015V15.8056C5.00356 15.7289 5.02126 15.6533 5.05506 15.5845C5.08887 15.5157 5.1379 15.4555 5.19843 15.4085L19.8543 4.09388C19.9304 4.03514 20.0238 4.00328 20.12 4.00328C20.2161 4.00328 20.3095 4.03514 20.3856 4.09388L35.0417 15.4085C35.1022 15.4556 35.1512 15.5158 35.185 15.5846C35.2188 15.6533 35.2365 15.7289 35.2367 15.8056V17.3015L20.4266 5.86782ZM18.1134 16.2565H12.6954C12.2964 16.2569 11.9139 16.4156 11.6318 16.6978C11.3496 16.9799 11.1909 17.3624 11.1905 17.7615V22.4853C11.1909 22.8843 11.3496 23.2668 11.6318 23.549C11.9139 23.8311 12.2964 23.9898 12.6954 23.9903H18.1134C18.5124 23.9898 18.8949 23.8311 19.1771 23.549C19.4592 23.2668 19.6179 22.8843 19.6184 22.4853V17.7615C19.6179 17.3624 19.4592 16.9799 19.1771 16.6978C18.8949 16.4156 18.5124 16.2569 18.1134 16.2565ZM18.615 22.4853C18.6149 22.6183 18.562 22.7458 18.4679 22.8399C18.3739 22.9339 18.2464 22.9868 18.1134 22.9869H12.6954C12.5624 22.9868 12.4349 22.9339 12.3409 22.8399C12.2468 22.7458 12.1939 22.6183 12.1938 22.4853V17.7615C12.1939 17.6284 12.2468 17.5009 12.3409 17.4069C12.4349 17.3128 12.5624 17.2599 12.6954 17.2598H18.1134C18.2464 17.2599 18.3739 17.3128 18.4679 17.4069C18.562 17.5009 18.6149 17.6284 18.615 17.7615V22.4853ZM20.6217 17.7615V22.4853C20.6221 22.8843 20.7808 23.2668 21.063 23.549C21.3451 23.8311 21.7277 23.9898 22.1267 23.9903H27.5446C27.9436 23.9898 28.3261 23.8311 28.6083 23.549C28.8904 23.2668 29.0491 22.8843 29.0496 22.4853V17.7615C29.0491 17.3624 28.8904 16.9799 28.6083 16.6978C28.3261 16.4156 27.9436 16.2569 27.5446 16.2565H22.1267C21.7277 16.2569 21.3451 16.4156 21.063 16.6978C20.7808 16.9799 20.6221 17.3624 20.6217 17.7615ZM28.0463 17.7615V22.4853C28.0461 22.6183 27.9932 22.7458 27.8992 22.8399C27.8051 22.9339 27.6776 22.9868 27.5446 22.9869H22.1267C21.9937 22.9868 21.8661 22.9339 21.7721 22.8399C21.678 22.7458 21.6251 22.6183 21.625 22.4853V17.7615C21.6251 17.6284 21.678 17.5009 21.7721 17.4069C21.8661 17.3128 21.9937 17.2599 22.1267 17.2598H27.5446C27.6776 17.2599 27.8051 17.3128 27.8992 17.4069C27.9932 17.5009 28.0461 17.6284 28.0463 17.7615ZM27.5446 24.9936H22.1267C21.7277 24.994 21.3451 25.1528 21.063 25.4349C20.7808 25.717 20.6221 26.0996 20.6217 26.4986V31.2224C20.6221 31.6214 20.7808 32.0039 21.063 32.2861C21.3451 32.5682 21.7277 32.7269 22.1267 32.7274H27.5446C27.9436 32.7269 28.3261 32.5682 28.6083 32.2861C28.8904 32.0039 29.0491 31.6214 29.0496 31.2224V26.4986C29.0491 26.0996 28.8904 25.717 28.6083 25.4349C28.3261 25.1528 27.9436 24.994 27.5446 24.9936ZM28.0463 31.2224C28.0461 31.3554 27.9932 31.4829 27.8992 31.577C27.8051 31.671 27.6776 31.7239 27.5446 31.7241H22.1267C21.9937 31.7239 21.8661 31.671 21.7721 31.577C21.678 31.4829 21.6251 31.3554 21.625 31.2224V26.4986C21.6251 26.3656 21.678 26.238 21.7721 26.144C21.8661 26.0499 21.9937 25.9971 22.1267 25.9969H27.5446C27.6776 25.9971 27.8051 26.0499 27.8992 26.144C27.9932 26.238 28.0461 26.3656 28.0463 26.4986V31.2224ZM26.7785 26.9175C26.6844 26.8234 26.5568 26.7706 26.4238 26.7706C26.2907 26.7706 26.1631 26.8234 26.069 26.9175L24.8356 28.151L23.6022 26.9176C23.5081 26.8235 23.3805 26.7706 23.2475 26.7706C23.1144 26.7706 22.9868 26.8235 22.8927 26.9176C22.7986 27.0116 22.7458 27.1392 22.7458 27.2723C22.7458 27.4054 22.7986 27.533 22.8927 27.627L24.1261 28.8605L22.8927 30.0939C22.8461 30.1405 22.8092 30.1958 22.784 30.2566C22.7588 30.3175 22.7458 30.3827 22.7458 30.4486C22.7458 30.5145 22.7588 30.5797 22.784 30.6406C22.8092 30.7015 22.8461 30.7568 22.8927 30.8034C22.9393 30.8499 22.9946 30.8869 23.0555 30.9121C23.1164 30.9373 23.1816 30.9503 23.2475 30.9503C23.3134 30.9503 23.3786 30.9373 23.4395 30.9121C23.5003 30.8869 23.5556 30.8499 23.6022 30.8034L24.8356 29.5699L26.069 30.8034C26.1156 30.8499 26.1709 30.8869 26.2318 30.9121C26.2927 30.9373 26.3579 30.9503 26.4238 30.9503C26.4897 30.9503 26.5549 30.9373 26.6158 30.9121C26.6766 30.8869 26.7319 30.8499 26.7785 30.8034C26.8251 30.7568 26.8621 30.7015 26.8873 30.6406C26.9125 30.5797 26.9255 30.5145 26.9255 30.4486C26.9255 30.3827 26.9125 30.3175 26.8873 30.2566C26.8621 30.1958 26.8251 30.1405 26.7785 30.0939L25.5451 28.8605L26.7785 27.627C26.8251 27.5805 26.8621 27.5251 26.8873 27.4643C26.9125 27.4034 26.9255 27.3382 26.9255 27.2723C26.9255 27.2064 26.9125 27.1412 26.8873 27.0803C26.8621 27.0194 26.8251 26.9641 26.7785 26.9176V26.9175Z" fill="#00AEEF"/>
</svg>
