<svg width="40" height="40" viewBox="0 0 40 40" fill="none" xmlns="http://www.w3.org/2000/svg">
<path d="M24.5682 3C24.7594 3.14712 24.9654 3.27218 25.1346 3.44137C27.0104 5.30247 28.8715 7.17828 30.7473 9.03938C31.0195 9.3042 31.1445 9.59109 31.1445 9.98096C31.1298 11.8862 31.1372 13.7841 31.1372 15.6893C31.1372 16.138 30.9533 16.4029 30.6222 16.4764C30.1588 16.572 29.8131 16.2631 29.8131 15.7261C29.8057 14.2916 29.8131 12.8498 29.8131 11.4154C29.8131 11.0844 29.8131 10.7534 29.8131 10.3782C29.6733 10.3782 29.5556 10.3782 29.4453 10.3782C28.283 10.3782 27.1207 10.3782 25.9585 10.3782C24.5976 10.3782 23.7737 9.54695 23.7737 8.17871C23.7737 7.03116 23.7737 5.87624 23.7737 4.72869C23.7737 4.61099 23.7737 4.49329 23.7737 4.33146C23.6266 4.33146 23.5089 4.33146 23.3912 4.33146C17.3518 4.33146 11.3124 4.33146 5.27304 4.33146C4.53007 4.33146 4.3241 4.53743 4.3241 5.2804C4.3241 15.0935 4.3241 24.8992 4.3241 34.7122C4.3241 35.4552 4.53007 35.6538 5.27304 35.6538C11.0476 35.6538 16.8222 35.6538 22.5967 35.6538C22.7144 35.6538 22.8321 35.6538 22.913 35.6538C22.913 35.1242 22.913 34.624 22.913 34.1311C22.913 29.4894 22.913 24.8403 22.913 20.1986C22.913 18.8377 23.6192 18.1389 24.9801 18.1389C28.2241 18.1389 31.4608 18.161 34.7049 18.1242C35.8377 18.1095 36.6322 18.4773 36.9853 19.6028C36.9853 24.9139 36.9853 30.2177 36.9853 35.5288C36.6322 36.6469 35.8304 37 34.6975 37C24.8771 36.9779 15.0567 36.9853 5.23626 36.9853C3.80917 36.9853 3 36.1761 3 34.7417C3 32.5863 3 30.431 3 28.2756C3 20.6032 3 12.9308 3 5.25097C3 4.7434 3.08827 4.26525 3.38252 3.8386C3.69883 3.38987 4.16227 3.17655 4.66248 3.00736C11.2904 3 17.9329 3 24.5682 3ZM35.6465 27.5547C35.6465 25.0904 35.6465 22.6261 35.6465 20.1545C35.6465 19.5807 35.5141 19.4483 34.9476 19.4483C31.608 19.4483 28.2683 19.4483 24.9286 19.4483C24.3622 19.4483 24.2298 19.5807 24.2298 20.1545C24.2298 25.0757 24.2298 29.997 24.2298 34.9182C24.2298 35.5141 24.3622 35.6391 24.9433 35.6391C28.2683 35.6391 31.6006 35.6391 34.9256 35.6391C35.5067 35.6391 35.6391 35.5067 35.6391 34.9109C35.6465 32.4686 35.6465 30.0117 35.6465 27.5547ZM28.7023 9.03938C27.5032 7.84033 26.2895 6.62657 25.0978 5.43488C25.0978 6.34704 25.0904 7.33276 25.1051 8.31848C25.1125 8.77456 25.3847 9.02466 25.8481 9.03938C26.2674 9.04673 26.6867 9.03938 27.106 9.03938C27.6577 9.03938 28.2168 9.03938 28.7023 9.03938Z" fill="#00AEEF"/>
<path d="M12.2467 17.8959C11.6509 17.8885 11.3272 17.484 11.4817 17.0499C11.673 16.4982 11.9157 15.9686 12.1438 15.4316C12.6955 14.1222 13.2545 12.8128 13.8062 11.5034C13.9387 11.1871 14.1446 10.9885 14.5051 11.0032C14.7846 11.0179 14.9759 11.1724 15.0862 11.4299C15.866 13.2542 16.6457 15.0859 17.4107 16.9102C17.5799 17.3148 17.4402 17.6826 17.0944 17.837C16.7487 17.9915 16.3882 17.8297 16.197 17.4398C16.1676 17.381 16.1455 17.3148 16.1161 17.2559C15.7924 16.4909 15.7924 16.4909 14.9391 16.4909C14.4094 16.4909 13.8798 16.4762 13.3502 16.4982C13.2398 16.5056 13.0927 16.6012 13.0412 16.7042C12.9014 16.9543 12.8426 17.2486 12.6808 17.484C12.5631 17.6826 12.3497 17.815 12.2467 17.8959ZM15.2333 15.1521C14.9685 14.5415 14.7331 13.9751 14.4683 13.3498C14.1961 13.9898 13.9607 14.5489 13.7106 15.1521C14.2403 15.1521 14.711 15.1521 15.2333 15.1521Z" fill="#00AEEF"/>
<path d="M13.9827 25.9584C11.8274 25.9584 9.67206 25.9584 7.51672 25.9584C7.40637 25.9584 7.29603 25.9658 7.18569 25.9437C6.83995 25.8922 6.58984 25.6201 6.58984 25.289C6.58984 24.9654 6.83995 24.6858 7.18569 24.6343C7.29603 24.6196 7.40637 24.6196 7.51672 24.6196C11.8274 24.6196 16.1454 24.6196 20.4561 24.6196C20.4782 24.6196 20.5003 24.6196 20.5223 24.6196C21.0593 24.6196 21.383 24.8697 21.383 25.2817C21.383 25.6936 21.0667 25.9437 20.5223 25.9437C18.3376 25.9584 16.1602 25.9584 13.9827 25.9584Z" fill="#00AEEF"/>
<path d="M13.9825 33.3957C11.8492 33.3957 9.71594 33.3957 7.57531 33.3957C7.46497 33.3957 7.35463 33.4031 7.24428 33.381C6.89855 33.3295 6.64844 33.0573 6.64844 32.7263C6.64844 32.4026 6.89119 32.1231 7.24428 32.0716C7.35463 32.0569 7.46497 32.0569 7.57531 32.0569C11.8639 32.0569 16.1599 32.0569 20.4485 32.0569C20.4706 32.0569 20.4927 32.0569 20.5147 32.0569C21.0517 32.0569 21.3754 32.307 21.3754 32.7189C21.3754 33.1309 21.0591 33.381 20.5147 33.381C18.3373 33.3957 16.1599 33.3957 13.9825 33.3957Z" fill="#00AEEF"/>
<path d="M20.5375 15.6745C20.1329 16.3071 19.7577 16.903 19.3825 17.4988C19.2281 17.7489 19.0221 17.9181 18.7058 17.8961C18.1982 17.8593 17.9407 17.3223 18.2203 16.8515C18.5292 16.3292 18.8161 15.7849 19.1986 15.3141C19.7136 14.6888 19.7356 14.1665 19.206 13.5412C18.8235 13.0925 18.5513 12.5482 18.2423 12.0406C17.9702 11.5845 18.1173 11.1211 18.566 10.9887C18.875 10.893 19.1545 11.0107 19.3752 11.3491C19.6989 11.8493 20.0152 12.3569 20.3315 12.8645C20.3903 12.9601 20.4565 13.0484 20.5448 13.1808C20.8979 12.6217 21.2363 12.0847 21.582 11.5477C21.6629 11.4153 21.7512 11.2829 21.8542 11.1726C22.0822 10.9225 22.4353 10.8857 22.6928 11.0696C22.9429 11.2388 23.0459 11.5551 22.9208 11.864C22.8767 11.9744 22.8179 12.0847 22.7516 12.1877C22.3176 12.8718 21.891 13.5559 21.4496 14.2254C21.3466 14.3798 21.3466 14.4902 21.4496 14.6373C21.9057 15.3435 22.3691 16.0423 22.7958 16.7706C22.9061 16.9618 22.987 17.2561 22.9282 17.4473C22.862 17.6312 22.6192 17.8078 22.4133 17.8887C22.1558 17.9843 21.9204 17.8372 21.7659 17.6018C21.457 17.131 21.1554 16.6529 20.8538 16.1747C20.7581 16.0129 20.6625 15.8658 20.5375 15.6745Z" fill="#00AEEF"/>
<path d="M15.4684 20.9195C17.1309 20.9195 18.786 20.9195 20.4485 20.9195C20.5589 20.9195 20.6692 20.9121 20.7795 20.9268C21.1253 20.9783 21.3754 21.2505 21.3754 21.5742C21.3754 21.8978 21.1326 22.1774 20.7869 22.2289C20.6766 22.2436 20.5662 22.2436 20.4559 22.2436C17.1383 22.2436 13.8207 22.2436 10.503 22.2436C9.89984 22.2436 9.57617 22.0082 9.57617 21.5815C9.57617 21.1549 9.89984 20.9121 10.4957 20.9121C12.1508 20.9121 13.8133 20.9195 15.4684 20.9195Z" fill="#00AEEF"/>
<path d="M15.468 29.6734C13.8055 29.6734 12.1504 29.6734 10.4879 29.6734C10.3775 29.6734 10.2672 29.6807 10.1568 29.6586C9.81111 29.6071 9.56836 29.3276 9.56836 29.0039C9.57572 28.6803 9.81847 28.4081 10.1716 28.3566C10.2672 28.3419 10.3702 28.3493 10.4732 28.3493C13.8128 28.3493 17.1525 28.3493 20.4922 28.3493C20.5952 28.3493 20.6908 28.3493 20.7864 28.364C21.1322 28.4155 21.3749 28.695 21.3749 29.0187C21.3676 29.3423 21.1248 29.6145 20.7717 29.666C20.6614 29.6807 20.5511 29.6734 20.4407 29.6734C18.7856 29.6734 17.1231 29.6734 15.468 29.6734Z" fill="#00AEEF"/>
<path d="M8.36252 12.2762C7.98 12.2762 7.62691 12.2909 7.27381 12.2688C6.89865 12.2467 6.64854 12.0334 6.59705 11.7024C6.55291 11.4228 6.71475 11.1139 6.99428 11.0109C7.10462 10.9668 7.22968 10.9521 7.34737 10.9521C8.4655 10.9447 9.57628 10.9447 10.6944 10.9521C11.1652 10.9521 11.4447 11.2095 11.4447 11.6141C11.4447 12.0113 11.1578 12.2614 10.6944 12.2762C10.3781 12.2835 10.0544 12.2762 9.69398 12.2762C9.69398 12.4159 9.69398 12.5336 9.69398 12.6513C9.69398 14.0637 9.69398 15.4834 9.69398 16.8958C9.69398 16.9767 9.69398 17.0503 9.69398 17.1312C9.67191 17.6167 9.40709 17.9036 9.0025 17.8889C8.61263 17.8742 8.36987 17.5946 8.36987 17.1165C8.36252 15.6379 8.36987 14.152 8.36987 12.6734C8.36252 12.5557 8.36252 12.438 8.36252 12.2762Z" fill="#00AEEF"/>
<path d="M7.30274 22.2361C6.957 22.2287 6.64805 21.9124 6.6554 21.5667C6.66276 21.2209 6.97907 20.912 7.32481 20.9193C7.67055 20.9267 7.9795 21.243 7.97215 21.5887C7.96479 21.9345 7.64112 22.2434 7.30274 22.2361Z" fill="#00AEEF"/>
<path d="M7.31095 29.6732C6.96521 29.6732 6.65625 29.3569 6.65625 29.0111C6.65625 28.6654 6.97256 28.3564 7.3183 28.3564C7.66404 28.3564 7.973 28.6728 7.973 29.0185C7.96564 29.3569 7.64933 29.6732 7.31095 29.6732Z" fill="#00AEEF"/>
<path d="M29.9453 20.7796C31.1149 20.7796 32.2919 20.7796 33.4615 20.7796C34.0868 20.7796 34.3149 21.0076 34.3149 21.6476C34.3149 22.4126 34.3149 23.1703 34.3149 23.9353C34.3149 24.5165 34.0647 24.7592 33.4763 24.7592C31.1076 24.7592 28.7463 24.7592 26.3776 24.7592C25.7965 24.7592 25.5537 24.5091 25.5537 23.9206C25.5537 23.1482 25.5537 22.3759 25.5537 21.5961C25.5537 21.015 25.7965 20.7796 26.3923 20.7722C27.584 20.7796 28.7683 20.7796 29.9453 20.7796ZM32.976 22.1331C30.931 22.1331 28.9155 22.1331 26.8999 22.1331C26.8999 22.5745 26.8999 22.9864 26.8999 23.4204C28.9302 23.4204 30.9457 23.4204 32.976 23.4204C32.976 22.9864 32.976 22.5671 32.976 22.1331Z" fill="#00AEEF"/>
<path d="M26.6282 26.6276C26.7826 26.6276 26.9371 26.6129 27.0916 26.6276C27.4226 26.6718 27.6654 26.9366 27.6801 27.2455C27.6948 27.5545 27.4741 27.8635 27.1431 27.9076C26.8047 27.9444 26.459 27.9517 26.1206 27.915C25.7896 27.8782 25.5615 27.5839 25.5615 27.275C25.5615 26.9513 25.8116 26.6718 26.1574 26.6276C26.3192 26.6129 26.4737 26.6276 26.6282 26.6276Z" fill="#00AEEF"/>
<path d="M29.9526 26.6276C30.107 26.6276 30.2615 26.6129 30.416 26.6276C30.747 26.6718 30.9898 26.9366 30.9971 27.2529C31.0118 27.5619 30.7912 27.8708 30.4601 27.9076C30.1217 27.9444 29.776 27.9444 29.4376 27.915C29.1066 27.8782 28.8786 27.5766 28.8859 27.2676C28.8933 26.9439 29.1434 26.6644 29.4891 26.6276C29.6362 26.6129 29.7981 26.6276 29.9526 26.6276Z" fill="#00AEEF"/>
<path d="M33.2553 27.9594C33.0787 27.9447 32.8875 27.9447 32.7109 27.9079C32.402 27.8344 32.196 27.5548 32.2107 27.2532C32.2254 26.9516 32.4535 26.6721 32.7624 26.6427C33.0934 26.6132 33.4245 26.6132 33.7555 26.6427C34.0865 26.6721 34.3219 26.9663 34.3219 27.2753C34.3219 27.5769 34.1159 27.8491 33.7996 27.9153C33.6231 27.9521 33.4392 27.9447 33.2553 27.9594Z" fill="#00AEEF"/>
<path d="M26.6352 29.7983C26.797 29.8057 26.9662 29.7983 27.128 29.8278C27.437 29.8793 27.665 30.1514 27.6797 30.4457C27.6945 30.7473 27.4811 31.0489 27.1722 31.093C26.8264 31.1372 26.466 31.1372 26.1202 31.1077C25.7892 31.071 25.5612 30.7693 25.5685 30.4604C25.5759 30.1367 25.826 29.8572 26.1717 29.8204C26.3262 29.8057 26.4807 29.8204 26.6352 29.8204C26.6352 29.8057 26.6352 29.8057 26.6352 29.7983Z" fill="#00AEEF"/>
<path d="M29.9677 29.8202C30.1222 29.8202 30.2767 29.8055 30.4312 29.8276C30.7622 29.8717 30.9976 30.1513 30.9976 30.4676C31.005 30.7692 30.7916 31.0634 30.4753 31.1002C30.1369 31.1444 29.7912 31.1443 29.4528 31.1149C29.1071 31.0781 28.8717 30.7692 28.8864 30.4455C28.9011 30.1145 29.1586 29.857 29.5043 29.8202C29.6588 29.7982 29.8133 29.8129 29.9677 29.8202Z" fill="#00AEEF"/>
<path d="M33.2928 29.8129C33.44 29.8129 33.5797 29.7982 33.7268 29.8129C34.0579 29.8571 34.3006 30.1145 34.3227 30.4308C34.3448 30.7398 34.1241 31.0561 33.793 31.0929C33.4473 31.137 33.0869 31.137 32.7411 31.0929C32.4101 31.0561 32.1894 30.7398 32.2115 30.4308C32.2262 30.1145 32.4689 29.8497 32.8 29.8129C32.9618 29.7982 33.1236 29.8129 33.2928 29.8129Z" fill="#00AEEF"/>
<path d="M26.643 32.9982C26.7901 32.9982 26.9299 32.9835 27.077 32.9982C27.4227 33.035 27.6802 33.3072 27.6876 33.6309C27.6949 33.9398 27.4742 34.2488 27.1432 34.2856C26.8048 34.3223 26.4591 34.3223 26.1207 34.2856C25.7897 34.2488 25.569 33.9472 25.5764 33.6382C25.5837 33.3146 25.8338 33.0424 26.1869 32.9982C26.3267 32.9835 26.4812 32.9982 26.643 32.9982Z" fill="#00AEEF"/>
<path d="M29.9451 32.9982C30.0996 32.9982 30.254 32.9835 30.4085 32.9982C30.7396 33.0424 30.9823 33.2998 30.997 33.6162C31.0117 33.9251 30.791 34.2414 30.4674 34.2782C30.1216 34.315 29.7612 34.315 29.4155 34.2782C29.0844 34.2414 28.8711 33.9251 28.8932 33.6162C28.9152 33.2998 29.158 33.0424 29.489 33.0056C29.6361 32.9835 29.7906 32.9982 29.9451 32.9982Z" fill="#00AEEF"/>
<path d="M33.2852 33.0057C33.4396 33.0057 33.5941 32.9909 33.7486 33.013C34.0796 33.0572 34.315 33.3367 34.315 33.6456C34.3224 33.9472 34.1091 34.2415 33.7927 34.2783C33.447 34.3224 33.0866 34.3224 32.7408 34.2856C32.4098 34.2488 32.1891 33.9399 32.2038 33.6309C32.2185 33.3146 32.4539 33.0498 32.785 33.0057C32.9541 32.9836 33.116 33.0057 33.2852 33.0057Z" fill="#00AEEF"/>
</svg>
