<svg width="40" height="40" viewBox="0 0 40 40" fill="none" xmlns="http://www.w3.org/2000/svg">
<path d="M15.9913 3.26801C14.6481 4.00676 12.7677 6.64835 13.0587 7.3871C13.3049 8.01391 13.8646 7.67812 14.4019 6.62596C15.0511 5.34994 16.4838 3.96199 16.8196 4.29778C17.133 4.61119 17.6703 6.96176 17.6703 8.05869C17.6703 10.1406 16.6405 12.1106 14.9615 13.2299C13.9094 13.9239 13.6183 13.7448 14.178 12.7822C15.5883 10.3421 15.9465 9.49141 15.6779 9.178C15.2525 8.6855 14.872 8.95414 14.3123 10.1854L13.7751 11.3047L13.193 10.0063C12.8572 9.28993 12.1409 8.28255 11.6036 7.74528C10.5738 6.73789 8.49188 5.61858 7.86506 5.73051C6.90245 5.9096 6.92484 9.80482 7.90984 11.8196C8.64858 13.3195 9.74551 14.2821 11.4693 14.9089L12.7453 15.379V19.0504C12.7453 21.8934 12.6781 22.7217 12.4766 22.6546C12.3199 22.5874 11.7155 21.9158 11.1111 21.1099C9.52165 18.9608 9.6112 19.0504 9.25301 19.3638C8.80529 19.722 8.82767 19.8115 9.9246 21.4681C10.7977 22.7441 10.8648 22.9232 10.4395 22.7889C8.20086 22.1173 6.47711 19.4757 6.47711 16.7222C6.47711 15.5357 6.63382 15.5133 8.6262 16.5431C9.94699 17.2371 10.1932 17.3042 10.4619 17.0132C10.7529 16.7222 10.7081 16.6103 10.1709 16.1178C9.43211 15.4238 7.32779 14.5955 6.25325 14.5507L5.46973 14.5283V16.655C5.46973 18.4683 5.55927 18.9608 6.05177 20.013C7.1487 22.3859 8.87245 23.7291 11.4693 24.2664L12.7453 24.5126V27.9825V31.4524L13.2602 31.3852C13.7527 31.3181 13.7527 31.2957 13.8198 27.0423L13.8646 22.7665L15.2749 22.6546C17.7374 22.4531 19.4612 21.1995 20.6029 18.7817C21.2745 17.3714 21.7446 15.0656 21.4536 14.6179C21.2073 14.1925 18.9911 14.5283 17.4464 15.2223C16.5286 15.6253 15.7227 16.2297 14.9839 17.0356L13.8646 18.2668V16.7222V15.1999L14.872 14.6627C17.827 13.0956 19.2821 9.71527 18.5657 6.08869C18.118 3.80529 17.715 2.99938 17.0211 2.99938C16.7077 2.99938 16.2375 3.1337 15.9913 3.26801ZM9.36495 7.47664C11.0887 8.34971 12.7677 10.9017 12.7453 12.6031C12.7229 13.1628 12.7229 13.1852 12.3871 12.7374C12.1856 12.4912 11.8498 11.8644 11.6036 11.3271C11.3797 10.8122 11.0439 10.3869 10.8424 10.3869C10.1709 10.3869 10.1932 11.1256 10.9096 12.4464C11.2902 13.1628 11.5364 13.7448 11.4469 13.7448C10.9096 13.7448 9.36495 12.2673 8.89483 11.3271C8.40233 10.3197 7.99938 7.02892 8.35756 7.02892C8.44711 7.02892 8.89483 7.23039 9.36495 7.47664ZM20.3566 15.9834C20.3566 16.8341 19.394 18.9608 18.6105 19.8339C17.7822 20.7517 17.0882 21.1995 16.0137 21.4457L15.3645 21.6024L16.2823 20.5726C17.1778 19.5429 17.3121 18.8937 16.5957 18.8937C16.3943 18.8937 15.8122 19.3638 15.2973 19.9458C14.7824 20.5503 14.2899 20.9532 14.2004 20.8637C13.9765 20.6622 15.1182 18.4683 15.8346 17.7072C16.6181 16.8789 17.6927 16.2297 18.8567 15.8491C20.1552 15.4462 20.3566 15.4686 20.3566 15.9834Z" fill="#00AEEF"/>
<path d="M28.4159 9.20072C27.1622 10.723 26.3115 12.7601 26.222 14.4615C26.1325 15.7599 26.222 16.1629 26.7369 17.215C27.0727 17.909 27.6771 18.7373 28.1024 19.0731L28.8636 19.6775V21.6251C28.8636 22.7221 28.774 23.5951 28.6845 23.5951C28.5949 23.5951 28.1472 23.2369 27.7443 22.8116C26.9831 22.0281 26.1996 21.849 25.9981 22.4087C25.9534 22.5654 26.222 23.0131 26.6026 23.3937C27.4532 24.2443 27.4532 24.3115 26.6921 24.0205C25.4385 23.5504 24.4311 22.2967 23.9834 20.5954L23.7371 19.7447L24.4535 19.879C24.834 19.9685 25.5504 20.2372 26.0205 20.4834C26.9384 20.9535 27.6323 20.7745 27.3861 20.1252C27.1175 19.4313 23.6923 18.2896 22.8641 18.6254C22.4163 18.7821 22.6626 20.6177 23.3342 22.0952C24.252 24.0876 25.5952 25.1174 27.6323 25.3636L28.7517 25.498V26.5054V27.5127L27.4085 27.6694C26.4906 27.7814 25.3937 28.1843 23.9162 28.9231L21.7671 29.9976L21.006 29.4827C19.1255 28.1619 16.1034 26.483 15.7452 26.5501C14.9393 26.7068 15.2079 27.1993 16.5511 28.0052C17.3122 28.4753 18.745 29.3932 19.73 30.02C20.6926 30.6692 21.6104 31.2065 21.7223 31.2065C21.8343 31.2065 22.9536 30.6916 24.2072 30.0648C25.7519 29.2813 26.8488 28.8783 27.6771 28.8111L28.8636 28.6768V29.729C28.8636 30.5797 28.9307 30.7588 29.2889 30.7588C29.759 30.7588 29.9829 30.3334 29.9829 29.5051C29.9829 29.2141 30.1172 28.9678 30.2739 28.9678C30.9679 28.9678 35.8033 32.3482 35.8033 32.8183C35.8033 32.9302 28.9084 32.9974 20.4687 32.9974C12.0291 32.9974 5.13408 32.9078 5.13408 32.8183C5.13408 32.5049 8.04431 29.7961 9.61135 28.6544C11.0441 27.6023 11.4246 26.9083 10.6859 26.774C10.1038 26.6621 7.17124 28.9678 5.17886 31.1169C3.67897 32.7064 3.29841 32.9974 2.69398 32.9974C2.1567 32.9974 2 33.0869 2 33.4451C2 33.7137 2.20148 33.9376 2.51489 34.0048C2.78352 34.0719 11.0665 34.0943 20.9164 34.0719L38.8255 34.0048L38.8927 33.4899C38.9598 33.0869 38.8703 32.9974 38.333 32.9974C37.8853 32.9974 37.4599 32.7735 37.0122 32.3034C35.7362 30.9602 31.9753 28.2963 30.9679 28.0276C30.1844 27.8038 29.9829 27.6471 29.9829 27.2665C29.9829 26.8635 30.1396 26.7516 30.8336 26.6173C32.2215 26.3934 33.9677 25.2517 34.684 24.1324C35.6466 22.5877 36.1839 19.3641 35.5571 18.7373C34.9303 18.1105 31.3261 19.6999 31.3261 20.6177C31.3261 21.1774 31.9529 21.1774 32.826 20.6177C33.2961 20.3043 33.9229 19.9909 34.2139 19.9014C34.7512 19.7447 34.7512 19.7447 34.5945 20.9088C34.3482 22.7668 33.3408 24.3339 31.9529 25.0726C31.0127 25.5651 31.0351 25.4756 31.9753 24.2667C32.826 23.1922 32.9827 22.4758 32.3558 22.4758C32.2215 22.4758 31.6395 22.9907 31.0574 23.6399L30.0053 24.8264L29.9829 22.1848V19.5208L30.7664 18.603C32.4454 16.6554 32.9379 13.5661 31.9081 11.3946C31.3037 10.1186 29.871 8.37243 29.4232 8.37243C29.2665 8.37243 28.7964 8.753 28.4159 9.20072ZM30.4082 11.0812C31.6843 12.9392 31.6395 15.1107 30.2963 17.215L29.7367 18.1105L29.8486 15.939C29.9829 13.6556 29.8038 13.1631 29.1322 13.8123C28.9084 14.0586 28.7517 14.7525 28.6845 15.9838C28.5949 17.5732 28.5502 17.7523 28.2368 17.506C27.2518 16.6778 27.0279 14.4615 27.7219 12.6258C28.1472 11.5065 29.177 9.93947 29.4904 9.93947C29.5799 9.93947 29.9829 10.4544 30.4082 11.0812Z" fill="#00AEEF"/>
<path d="M2.17909 35.7957C2.06716 35.9076 2 36.1539 2 36.3554C2 36.7136 2.78352 36.7583 12.3649 36.8926C18.051 36.9822 26.3339 37.027 30.7664 36.9822L38.8255 36.915L38.8927 36.4001C38.9598 35.9076 38.9598 35.9076 35.9824 35.9076C34.3482 35.9076 26.1101 35.8405 17.6704 35.7733C9.23078 35.6838 2.26864 35.7062 2.17909 35.7957Z" fill="#00AEEF"/>
</svg>
