<svg width="40" height="40" viewBox="0 0 40 40" fill="none" xmlns="http://www.w3.org/2000/svg">
<path d="M28.1275 25.0743V26.2726H28.3572C28.6863 26.2726 28.954 26.005 28.954 25.6762C28.954 25.3416 28.6858 25.0743 28.3574 25.0743H28.1275ZM27.3821 24.5588H27.6122V23.3608H27.3821C27.0534 23.3608 26.7857 23.6283 26.7857 23.9572C26.7857 24.2915 27.0539 24.5588 27.3821 24.5588ZM28.1275 23.3608V24.5588H28.3574C28.9708 24.5588 29.4696 25.0576 29.4696 25.6708C29.4696 26.2893 28.9708 26.7882 28.3572 26.7882H28.1275V27.0154C28.1275 27.1577 28.0121 27.2731 27.8699 27.2731C27.7273 27.2731 27.6122 27.1576 27.6122 27.0154V26.7882H26.779C26.6365 26.7882 26.5214 26.673 26.5214 26.5305C26.5214 26.3882 26.6364 26.2726 26.779 26.2726H27.6122V25.0743H27.3821C26.7689 25.0743 26.2701 24.5755 26.2701 23.9621C26.2701 23.3441 26.7687 22.8452 27.3821 22.8452H27.6122V22.6179C27.6122 22.4758 27.7273 22.3603 27.8699 22.3603C28.0121 22.3603 28.1275 22.4757 28.1275 22.6179V22.8452H28.9602C29.1025 22.8452 29.2181 22.9602 29.2181 23.1029C29.2181 23.245 29.1028 23.3608 28.9602 23.3608H28.1275Z" fill="#00AEEF" stroke="#00AEEF" stroke-width="0.2"/>
<mask id="path-2-outside-1_1681_21875" maskUnits="userSpaceOnUse" x="1" y="2" width="37" height="36" fill="black">
<rect fill="white" x="1" y="2" width="37" height="36"/>
<path d="M32.9769 26.9091L30.8958 27.915C31.7028 27.1283 32.2063 26.0321 32.2063 24.8194C32.2063 22.4284 30.2609 20.483 27.8696 20.483C25.4787 20.483 23.5333 22.4284 23.5333 24.8194C23.5333 25.6297 23.7551 26.4073 24.1761 27.0872H22.8443C22.5223 26.3835 22.3496 25.628 22.3496 24.8194C22.3496 24.1864 22.4558 23.5671 22.6659 22.9781C23.4744 20.6754 25.7876 19.1024 28.3027 19.3182C31.1553 19.5364 33.3896 21.9528 33.3896 24.8194C33.3896 25.5446 33.2494 26.2467 32.9769 26.9091ZM28.4235 29.1101L27.7528 29.4342C27.7585 29.415 27.761 29.3956 27.7661 29.3763C27.7837 29.3144 27.798 29.2518 27.8089 29.1882C27.8113 29.1752 27.815 29.162 27.8168 29.149C27.8344 29.1492 27.8478 29.1495 27.8696 29.1495C28.0578 29.1495 28.2417 29.1333 28.4235 29.1101ZM27.8696 28.8339C27.8639 28.8341 27.8514 28.8341 27.8365 28.8341C27.8123 27.8818 27.0162 27.0872 26.0417 27.0872H24.5542C24.0938 26.4192 23.8489 25.6374 23.8489 24.8194C23.8489 22.6022 25.6523 20.7986 27.8696 20.7986C30.0867 20.7986 31.8906 22.6022 31.8906 24.8194C31.8906 27.0331 30.0867 28.8339 27.8696 28.8339ZM34.6855 26.4339C35.6437 25.9702 36.7575 26.6701 36.7575 27.7367C36.7575 28.2857 36.4625 28.7487 36.0112 29.0058C35.9062 29.0801 25.4835 36.4516 21.3589 36.6802C18.8551 36.8172 12.2079 32.9402 11.4186 32.4723V24.8192C11.5814 24.8154 11.8683 24.8096 12.2521 24.8058C12.8386 24.795 14.4174 24.775 16.4162 24.8235C18.4825 24.8715 20.6404 25.9721 22.1806 27.3623C22.2097 27.3885 22.2473 27.4028 22.2865 27.4028C22.9794 27.4028 24.5579 27.4028 26.0417 27.4028C26.8374 27.4028 27.4969 28.0452 27.52 28.8345C27.5464 29.677 26.8766 30.36 26.0462 30.3624C26.0447 30.3624 26.0435 30.3617 26.0423 30.3617H18.7832C18.7174 30.3617 18.6614 30.402 18.6376 30.4592C18.6297 30.478 18.6251 30.4988 18.6251 30.5207C18.6251 30.608 18.6957 30.6786 18.7831 30.6786H26.0417C26.5215 30.6786 26.9725 30.4918 27.3115 30.1526C27.4034 30.0607 27.4699 29.9772 27.5218 29.8964L33.1568 27.1726C33.1617 27.171 33.1659 27.1683 33.1705 27.166L34.6855 26.4339ZM16.8456 23.0836V24.5328C16.7039 24.5202 16.563 24.5111 16.4236 24.5079C15.7621 24.4919 15.1477 24.4834 14.5984 24.4796V23.0836H16.8456ZM13.0235 22.768V20.5525C14.7521 20.5525 16.2955 20.5525 18.0571 20.5525V22.768H15.588V21.1367H15.2724V22.768C15.2243 22.768 12.9674 22.768 13.0235 22.768ZM14.9928 18.0213H17.2404V20.2369H14.9928V18.0213ZM17.556 18.0213H20.025V20.2369H17.556V18.0213ZM20.3406 18.0213H22.81V20.2369H20.3406V18.0213ZM21.1576 22.768V20.5525H23.6279V20.8187C23.0965 21.3813 22.6798 22.0518 22.4118 22.768H21.1576ZM18.3727 22.768V20.5525H20.8422V22.768H18.3727ZM22.5008 27.0872H22.3466C21.6986 26.5086 20.9888 26.0132 20.2536 25.6149H22.0917C22.1627 26.1251 22.3005 26.6182 22.5008 27.0872ZM22.034 24.8194C22.034 24.9752 22.0425 25.1363 22.0555 25.2993H19.9471V24.0089H19.6314V25.2993H19.6179C18.8023 24.9269 17.9683 24.6747 17.1612 24.5668V23.0836H22.3032C22.1278 23.6429 22.034 24.225 22.034 24.8194ZM23.1257 18.0213H28.1567V18.994C27.3858 18.9515 26.6241 19.0672 25.9096 19.3248V18.7094H25.594V19.4493C25.1136 19.6508 24.6656 19.9151 24.2632 20.2369H23.1257V18.0213ZM11.103 33.5952H9.5567V24.3932H11.103C11.103 26.6823 11.103 31.3144 11.103 33.5952ZM20.9414 15.5566C20.7437 15.7858 20.1687 16.1797 18.5342 16.2428C16.6415 16.3227 15.8097 14.9515 15.5131 14.2753C15.907 14.3724 16.6539 14.387 18.0556 14.0398C19.1694 13.7636 19.9933 13.8049 20.5053 14.1627C20.9139 14.448 21.0413 14.888 21.0763 15.2073C21.0835 15.271 21.0752 15.4012 20.9414 15.5566ZM21.797 7.04599V7.9583L21.3706 7.53067C21.3084 7.46906 21.209 7.46936 21.1473 7.53037C21.0856 7.59198 21.0856 7.69183 21.1469 7.75374L21.797 8.40565V9.84028C21.1733 9.53223 19.8074 8.59078 20.43 6.43474C20.9216 4.73304 20.8807 3.8702 20.7369 3.4362C21.6203 3.75032 23.6146 4.71361 23.5114 6.98893C23.4361 8.653 23.0003 9.6509 22.2476 9.9028C22.2467 9.80781 22.2446 9.74741 22.244 9.73557C22.241 9.66061 22.1812 9.60052 22.1126 9.58898V8.40535L22.7645 7.75374C22.8261 7.69213 22.8261 7.59228 22.7645 7.53067C22.7026 7.46906 22.603 7.46906 22.5411 7.53067L22.1126 7.95951V7.04599C22.1126 6.95858 22.0422 6.88817 21.9548 6.88817C21.8677 6.88817 21.797 6.95858 21.797 7.04599ZM22.6847 11.0861C23.366 10.6254 24.4331 10.7714 25.2328 10.9699C26.181 11.2051 26.9352 11.3068 27.4745 11.2758C27.6529 11.2679 27.7956 11.2458 27.9097 11.2166C27.5959 11.9207 26.6942 13.3787 24.7278 13.2989C23.3345 13.2449 22.4425 12.9472 22.1472 12.4379C22.122 12.3942 22.044 12.2604 22.0522 12.203C22.122 11.6986 22.3348 11.3229 22.6847 11.0861ZM28.4724 19.0217V17.8635C28.4724 17.7761 28.402 17.7057 28.3145 17.7057H21.5229C21.2878 16.2395 21.378 14.7939 21.8036 13.291C21.8601 13.0919 21.9083 12.8947 21.9514 12.7001C22.3536 13.2492 23.2777 13.5584 24.7154 13.6146C24.7709 13.6167 24.8249 13.6176 24.879 13.6176C27.584 13.6176 28.3473 10.9571 28.3552 10.9295C28.3762 10.8524 28.3397 10.7669 28.2663 10.7368C28.1922 10.7062 28.1109 10.7304 28.0717 10.7999C28.0708 10.8011 27.9549 10.9392 27.4581 10.9605C26.9518 10.9884 26.2265 10.891 25.3087 10.6637C24.0647 10.3541 23.1223 10.4087 22.5077 10.8248C22.39 10.9046 22.288 10.999 22.1961 11.1028C22.2264 10.7596 22.2401 10.4618 22.2452 10.2327C22.9475 10.0536 23.722 9.3216 23.8264 7.00289C23.9676 3.88507 20.4398 3.01282 20.4042 3.00463C20.3253 2.98551 20.2423 3.02709 20.2151 3.10296C20.1882 3.17883 20.2185 3.26078 20.291 3.29598C20.2968 3.29963 20.8871 3.71572 20.1268 6.34703C19.3358 9.08518 21.538 10.0876 21.9278 10.2415C21.9117 10.8737 21.8328 12.0294 21.4999 13.2048C21.3742 13.6489 21.2797 14.0874 21.2103 14.5235C21.1026 14.2996 20.9377 14.0795 20.6858 13.9038C20.0949 13.4916 19.1845 13.4349 17.9798 13.7335C15.7616 14.2832 15.3673 13.8759 15.363 13.8747C15.3233 13.8055 15.2385 13.7772 15.1653 13.8067C15.0915 13.8373 15.0524 13.9178 15.0734 13.9945C15.0807 14.0206 15.8116 16.5615 18.3901 16.5615C18.4414 16.5615 18.4935 16.5603 18.5465 16.5585C20.0529 16.4999 20.7566 16.1642 21.0861 15.8586C21.0692 16.4744 21.1082 17.0884 21.2042 17.7057H14.8351C14.7479 17.7057 14.6772 17.7761 14.6772 17.8635V20.2369H12.8656C12.7784 20.2369 12.7078 20.3076 12.7078 20.3947V22.9259C12.7078 23.013 12.7784 23.0836 12.8656 23.0836H14.2827V24.4779C13.3251 24.474 12.603 24.4838 12.2477 24.4902C11.8678 24.4938 11.5835 24.4996 11.4186 24.5036V24.2353C11.4186 24.1481 11.348 24.0776 11.2609 24.0776H9.5567V23.648C9.5567 23.5607 9.48611 23.4901 9.39888 23.4901H2.15779C2.07056 23.4901 2 23.5607 2 23.648C2 23.7352 2.07056 23.8057 2.15779 23.8057H9.24109C9.24109 28.68 9.24109 26.4682 9.24109 34.1826H2.15779C2.07056 34.1826 2 34.2532 2 34.3403C2 34.4275 2.07056 34.4982 2.15779 34.4982H9.39888C9.48611 34.4982 9.5567 34.4275 9.5567 34.3403V33.9108H11.2609C11.348 33.9108 11.4186 33.8402 11.4186 33.7529V32.8394C12.4632 33.4548 16.5836 35.8247 19.4809 36.6844H9.55761C9.47038 36.6844 9.39979 36.7549 9.39979 36.8421C9.39979 36.9293 9.47038 37 9.55761 37H32.4588C32.5462 37 32.6166 36.9293 32.6166 36.8421C32.6166 36.7549 32.5462 36.6844 32.4588 36.6844H22.9518C27.6978 35.2702 35.8082 29.5365 36.18 29.2718C36.7132 28.9699 37.0732 28.4027 37.0732 27.7367C37.0732 26.4388 35.718 25.5844 34.5478 26.1498L33.3851 26.7118C33.5936 26.1052 33.7052 25.4716 33.7052 24.8194C33.7052 21.8378 31.4172 19.3221 28.4724 19.0217Z"/>
</mask>
<path d="M32.9769 26.9091L30.8958 27.915C31.7028 27.1283 32.2063 26.0321 32.2063 24.8194C32.2063 22.4284 30.2609 20.483 27.8696 20.483C25.4787 20.483 23.5333 22.4284 23.5333 24.8194C23.5333 25.6297 23.7551 26.4073 24.1761 27.0872H22.8443C22.5223 26.3835 22.3496 25.628 22.3496 24.8194C22.3496 24.1864 22.4558 23.5671 22.6659 22.9781C23.4744 20.6754 25.7876 19.1024 28.3027 19.3182C31.1553 19.5364 33.3896 21.9528 33.3896 24.8194C33.3896 25.5446 33.2494 26.2467 32.9769 26.9091ZM28.4235 29.1101L27.7528 29.4342C27.7585 29.415 27.761 29.3956 27.7661 29.3763C27.7837 29.3144 27.798 29.2518 27.8089 29.1882C27.8113 29.1752 27.815 29.162 27.8168 29.149C27.8344 29.1492 27.8478 29.1495 27.8696 29.1495C28.0578 29.1495 28.2417 29.1333 28.4235 29.1101ZM27.8696 28.8339C27.8639 28.8341 27.8514 28.8341 27.8365 28.8341C27.8123 27.8818 27.0162 27.0872 26.0417 27.0872H24.5542C24.0938 26.4192 23.8489 25.6374 23.8489 24.8194C23.8489 22.6022 25.6523 20.7986 27.8696 20.7986C30.0867 20.7986 31.8906 22.6022 31.8906 24.8194C31.8906 27.0331 30.0867 28.8339 27.8696 28.8339ZM34.6855 26.4339C35.6437 25.9702 36.7575 26.6701 36.7575 27.7367C36.7575 28.2857 36.4625 28.7487 36.0112 29.0058C35.9062 29.0801 25.4835 36.4516 21.3589 36.6802C18.8551 36.8172 12.2079 32.9402 11.4186 32.4723V24.8192C11.5814 24.8154 11.8683 24.8096 12.2521 24.8058C12.8386 24.795 14.4174 24.775 16.4162 24.8235C18.4825 24.8715 20.6404 25.9721 22.1806 27.3623C22.2097 27.3885 22.2473 27.4028 22.2865 27.4028C22.9794 27.4028 24.5579 27.4028 26.0417 27.4028C26.8374 27.4028 27.4969 28.0452 27.52 28.8345C27.5464 29.677 26.8766 30.36 26.0462 30.3624C26.0447 30.3624 26.0435 30.3617 26.0423 30.3617H18.7832C18.7174 30.3617 18.6614 30.402 18.6376 30.4592C18.6297 30.478 18.6251 30.4988 18.6251 30.5207C18.6251 30.608 18.6957 30.6786 18.7831 30.6786H26.0417C26.5215 30.6786 26.9725 30.4918 27.3115 30.1526C27.4034 30.0607 27.4699 29.9772 27.5218 29.8964L33.1568 27.1726C33.1617 27.171 33.1659 27.1683 33.1705 27.166L34.6855 26.4339ZM16.8456 23.0836V24.5328C16.7039 24.5202 16.563 24.5111 16.4236 24.5079C15.7621 24.4919 15.1477 24.4834 14.5984 24.4796V23.0836H16.8456ZM13.0235 22.768V20.5525C14.7521 20.5525 16.2955 20.5525 18.0571 20.5525V22.768H15.588V21.1367H15.2724V22.768C15.2243 22.768 12.9674 22.768 13.0235 22.768ZM14.9928 18.0213H17.2404V20.2369H14.9928V18.0213ZM17.556 18.0213H20.025V20.2369H17.556V18.0213ZM20.3406 18.0213H22.81V20.2369H20.3406V18.0213ZM21.1576 22.768V20.5525H23.6279V20.8187C23.0965 21.3813 22.6798 22.0518 22.4118 22.768H21.1576ZM18.3727 22.768V20.5525H20.8422V22.768H18.3727ZM22.5008 27.0872H22.3466C21.6986 26.5086 20.9888 26.0132 20.2536 25.6149H22.0917C22.1627 26.1251 22.3005 26.6182 22.5008 27.0872ZM22.034 24.8194C22.034 24.9752 22.0425 25.1363 22.0555 25.2993H19.9471V24.0089H19.6314V25.2993H19.6179C18.8023 24.9269 17.9683 24.6747 17.1612 24.5668V23.0836H22.3032C22.1278 23.6429 22.034 24.225 22.034 24.8194ZM23.1257 18.0213H28.1567V18.994C27.3858 18.9515 26.6241 19.0672 25.9096 19.3248V18.7094H25.594V19.4493C25.1136 19.6508 24.6656 19.9151 24.2632 20.2369H23.1257V18.0213ZM11.103 33.5952H9.5567V24.3932H11.103C11.103 26.6823 11.103 31.3144 11.103 33.5952ZM20.9414 15.5566C20.7437 15.7858 20.1687 16.1797 18.5342 16.2428C16.6415 16.3227 15.8097 14.9515 15.5131 14.2753C15.907 14.3724 16.6539 14.387 18.0556 14.0398C19.1694 13.7636 19.9933 13.8049 20.5053 14.1627C20.9139 14.448 21.0413 14.888 21.0763 15.2073C21.0835 15.271 21.0752 15.4012 20.9414 15.5566ZM21.797 7.04599V7.9583L21.3706 7.53067C21.3084 7.46906 21.209 7.46936 21.1473 7.53037C21.0856 7.59198 21.0856 7.69183 21.1469 7.75374L21.797 8.40565V9.84028C21.1733 9.53223 19.8074 8.59078 20.43 6.43474C20.9216 4.73304 20.8807 3.8702 20.7369 3.4362C21.6203 3.75032 23.6146 4.71361 23.5114 6.98893C23.4361 8.653 23.0003 9.6509 22.2476 9.9028C22.2467 9.80781 22.2446 9.74741 22.244 9.73557C22.241 9.66061 22.1812 9.60052 22.1126 9.58898V8.40535L22.7645 7.75374C22.8261 7.69213 22.8261 7.59228 22.7645 7.53067C22.7026 7.46906 22.603 7.46906 22.5411 7.53067L22.1126 7.95951V7.04599C22.1126 6.95858 22.0422 6.88817 21.9548 6.88817C21.8677 6.88817 21.797 6.95858 21.797 7.04599ZM22.6847 11.0861C23.366 10.6254 24.4331 10.7714 25.2328 10.9699C26.181 11.2051 26.9352 11.3068 27.4745 11.2758C27.6529 11.2679 27.7956 11.2458 27.9097 11.2166C27.5959 11.9207 26.6942 13.3787 24.7278 13.2989C23.3345 13.2449 22.4425 12.9472 22.1472 12.4379C22.122 12.3942 22.044 12.2604 22.0522 12.203C22.122 11.6986 22.3348 11.3229 22.6847 11.0861ZM28.4724 19.0217V17.8635C28.4724 17.7761 28.402 17.7057 28.3145 17.7057H21.5229C21.2878 16.2395 21.378 14.7939 21.8036 13.291C21.8601 13.0919 21.9083 12.8947 21.9514 12.7001C22.3536 13.2492 23.2777 13.5584 24.7154 13.6146C24.7709 13.6167 24.8249 13.6176 24.879 13.6176C27.584 13.6176 28.3473 10.9571 28.3552 10.9295C28.3762 10.8524 28.3397 10.7669 28.2663 10.7368C28.1922 10.7062 28.1109 10.7304 28.0717 10.7999C28.0708 10.8011 27.9549 10.9392 27.4581 10.9605C26.9518 10.9884 26.2265 10.891 25.3087 10.6637C24.0647 10.3541 23.1223 10.4087 22.5077 10.8248C22.39 10.9046 22.288 10.999 22.1961 11.1028C22.2264 10.7596 22.2401 10.4618 22.2452 10.2327C22.9475 10.0536 23.722 9.3216 23.8264 7.00289C23.9676 3.88507 20.4398 3.01282 20.4042 3.00463C20.3253 2.98551 20.2423 3.02709 20.2151 3.10296C20.1882 3.17883 20.2185 3.26078 20.291 3.29598C20.2968 3.29963 20.8871 3.71572 20.1268 6.34703C19.3358 9.08518 21.538 10.0876 21.9278 10.2415C21.9117 10.8737 21.8328 12.0294 21.4999 13.2048C21.3742 13.6489 21.2797 14.0874 21.2103 14.5235C21.1026 14.2996 20.9377 14.0795 20.6858 13.9038C20.0949 13.4916 19.1845 13.4349 17.9798 13.7335C15.7616 14.2832 15.3673 13.8759 15.363 13.8747C15.3233 13.8055 15.2385 13.7772 15.1653 13.8067C15.0915 13.8373 15.0524 13.9178 15.0734 13.9945C15.0807 14.0206 15.8116 16.5615 18.3901 16.5615C18.4414 16.5615 18.4935 16.5603 18.5465 16.5585C20.0529 16.4999 20.7566 16.1642 21.0861 15.8586C21.0692 16.4744 21.1082 17.0884 21.2042 17.7057H14.8351C14.7479 17.7057 14.6772 17.7761 14.6772 17.8635V20.2369H12.8656C12.7784 20.2369 12.7078 20.3076 12.7078 20.3947V22.9259C12.7078 23.013 12.7784 23.0836 12.8656 23.0836H14.2827V24.4779C13.3251 24.474 12.603 24.4838 12.2477 24.4902C11.8678 24.4938 11.5835 24.4996 11.4186 24.5036V24.2353C11.4186 24.1481 11.348 24.0776 11.2609 24.0776H9.5567V23.648C9.5567 23.5607 9.48611 23.4901 9.39888 23.4901H2.15779C2.07056 23.4901 2 23.5607 2 23.648C2 23.7352 2.07056 23.8057 2.15779 23.8057H9.24109C9.24109 28.68 9.24109 26.4682 9.24109 34.1826H2.15779C2.07056 34.1826 2 34.2532 2 34.3403C2 34.4275 2.07056 34.4982 2.15779 34.4982H9.39888C9.48611 34.4982 9.5567 34.4275 9.5567 34.3403V33.9108H11.2609C11.348 33.9108 11.4186 33.8402 11.4186 33.7529V32.8394C12.4632 33.4548 16.5836 35.8247 19.4809 36.6844H9.55761C9.47038 36.6844 9.39979 36.7549 9.39979 36.8421C9.39979 36.9293 9.47038 37 9.55761 37H32.4588C32.5462 37 32.6166 36.9293 32.6166 36.8421C32.6166 36.7549 32.5462 36.6844 32.4588 36.6844H22.9518C27.6978 35.2702 35.8082 29.5365 36.18 29.2718C36.7132 28.9699 37.0732 28.4027 37.0732 27.7367C37.0732 26.4388 35.718 25.5844 34.5478 26.1498L33.3851 26.7118C33.5936 26.1052 33.7052 25.4716 33.7052 24.8194C33.7052 21.8378 31.4172 19.3221 28.4724 19.0217Z" fill="#00AEEF"/>
<path d="M32.9769 26.9091L30.8958 27.915C31.7028 27.1283 32.2063 26.0321 32.2063 24.8194C32.2063 22.4284 30.2609 20.483 27.8696 20.483C25.4787 20.483 23.5333 22.4284 23.5333 24.8194C23.5333 25.6297 23.7551 26.4073 24.1761 27.0872H22.8443C22.5223 26.3835 22.3496 25.628 22.3496 24.8194C22.3496 24.1864 22.4558 23.5671 22.6659 22.9781C23.4744 20.6754 25.7876 19.1024 28.3027 19.3182C31.1553 19.5364 33.3896 21.9528 33.3896 24.8194C33.3896 25.5446 33.2494 26.2467 32.9769 26.9091ZM28.4235 29.1101L27.7528 29.4342C27.7585 29.415 27.761 29.3956 27.7661 29.3763C27.7837 29.3144 27.798 29.2518 27.8089 29.1882C27.8113 29.1752 27.815 29.162 27.8168 29.149C27.8344 29.1492 27.8478 29.1495 27.8696 29.1495C28.0578 29.1495 28.2417 29.1333 28.4235 29.1101ZM27.8696 28.8339C27.8639 28.8341 27.8514 28.8341 27.8365 28.8341C27.8123 27.8818 27.0162 27.0872 26.0417 27.0872H24.5542C24.0938 26.4192 23.8489 25.6374 23.8489 24.8194C23.8489 22.6022 25.6523 20.7986 27.8696 20.7986C30.0867 20.7986 31.8906 22.6022 31.8906 24.8194C31.8906 27.0331 30.0867 28.8339 27.8696 28.8339ZM34.6855 26.4339C35.6437 25.9702 36.7575 26.6701 36.7575 27.7367C36.7575 28.2857 36.4625 28.7487 36.0112 29.0058C35.9062 29.0801 25.4835 36.4516 21.3589 36.6802C18.8551 36.8172 12.2079 32.9402 11.4186 32.4723V24.8192C11.5814 24.8154 11.8683 24.8096 12.2521 24.8058C12.8386 24.795 14.4174 24.775 16.4162 24.8235C18.4825 24.8715 20.6404 25.9721 22.1806 27.3623C22.2097 27.3885 22.2473 27.4028 22.2865 27.4028C22.9794 27.4028 24.5579 27.4028 26.0417 27.4028C26.8374 27.4028 27.4969 28.0452 27.52 28.8345C27.5464 29.677 26.8766 30.36 26.0462 30.3624C26.0447 30.3624 26.0435 30.3617 26.0423 30.3617H18.7832C18.7174 30.3617 18.6614 30.402 18.6376 30.4592C18.6297 30.478 18.6251 30.4988 18.6251 30.5207C18.6251 30.608 18.6957 30.6786 18.7831 30.6786H26.0417C26.5215 30.6786 26.9725 30.4918 27.3115 30.1526C27.4034 30.0607 27.4699 29.9772 27.5218 29.8964L33.1568 27.1726C33.1617 27.171 33.1659 27.1683 33.1705 27.166L34.6855 26.4339ZM16.8456 23.0836V24.5328C16.7039 24.5202 16.563 24.5111 16.4236 24.5079C15.7621 24.4919 15.1477 24.4834 14.5984 24.4796V23.0836H16.8456ZM13.0235 22.768V20.5525C14.7521 20.5525 16.2955 20.5525 18.0571 20.5525V22.768H15.588V21.1367H15.2724V22.768C15.2243 22.768 12.9674 22.768 13.0235 22.768ZM14.9928 18.0213H17.2404V20.2369H14.9928V18.0213ZM17.556 18.0213H20.025V20.2369H17.556V18.0213ZM20.3406 18.0213H22.81V20.2369H20.3406V18.0213ZM21.1576 22.768V20.5525H23.6279V20.8187C23.0965 21.3813 22.6798 22.0518 22.4118 22.768H21.1576ZM18.3727 22.768V20.5525H20.8422V22.768H18.3727ZM22.5008 27.0872H22.3466C21.6986 26.5086 20.9888 26.0132 20.2536 25.6149H22.0917C22.1627 26.1251 22.3005 26.6182 22.5008 27.0872ZM22.034 24.8194C22.034 24.9752 22.0425 25.1363 22.0555 25.2993H19.9471V24.0089H19.6314V25.2993H19.6179C18.8023 24.9269 17.9683 24.6747 17.1612 24.5668V23.0836H22.3032C22.1278 23.6429 22.034 24.225 22.034 24.8194ZM23.1257 18.0213H28.1567V18.994C27.3858 18.9515 26.6241 19.0672 25.9096 19.3248V18.7094H25.594V19.4493C25.1136 19.6508 24.6656 19.9151 24.2632 20.2369H23.1257V18.0213ZM11.103 33.5952H9.5567V24.3932H11.103C11.103 26.6823 11.103 31.3144 11.103 33.5952ZM20.9414 15.5566C20.7437 15.7858 20.1687 16.1797 18.5342 16.2428C16.6415 16.3227 15.8097 14.9515 15.5131 14.2753C15.907 14.3724 16.6539 14.387 18.0556 14.0398C19.1694 13.7636 19.9933 13.8049 20.5053 14.1627C20.9139 14.448 21.0413 14.888 21.0763 15.2073C21.0835 15.271 21.0752 15.4012 20.9414 15.5566ZM21.797 7.04599V7.9583L21.3706 7.53067C21.3084 7.46906 21.209 7.46936 21.1473 7.53037C21.0856 7.59198 21.0856 7.69183 21.1469 7.75374L21.797 8.40565V9.84028C21.1733 9.53223 19.8074 8.59078 20.43 6.43474C20.9216 4.73304 20.8807 3.8702 20.7369 3.4362C21.6203 3.75032 23.6146 4.71361 23.5114 6.98893C23.4361 8.653 23.0003 9.6509 22.2476 9.9028C22.2467 9.80781 22.2446 9.74741 22.244 9.73557C22.241 9.66061 22.1812 9.60052 22.1126 9.58898V8.40535L22.7645 7.75374C22.8261 7.69213 22.8261 7.59228 22.7645 7.53067C22.7026 7.46906 22.603 7.46906 22.5411 7.53067L22.1126 7.95951V7.04599C22.1126 6.95858 22.0422 6.88817 21.9548 6.88817C21.8677 6.88817 21.797 6.95858 21.797 7.04599ZM22.6847 11.0861C23.366 10.6254 24.4331 10.7714 25.2328 10.9699C26.181 11.2051 26.9352 11.3068 27.4745 11.2758C27.6529 11.2679 27.7956 11.2458 27.9097 11.2166C27.5959 11.9207 26.6942 13.3787 24.7278 13.2989C23.3345 13.2449 22.4425 12.9472 22.1472 12.4379C22.122 12.3942 22.044 12.2604 22.0522 12.203C22.122 11.6986 22.3348 11.3229 22.6847 11.0861ZM28.4724 19.0217V17.8635C28.4724 17.7761 28.402 17.7057 28.3145 17.7057H21.5229C21.2878 16.2395 21.378 14.7939 21.8036 13.291C21.8601 13.0919 21.9083 12.8947 21.9514 12.7001C22.3536 13.2492 23.2777 13.5584 24.7154 13.6146C24.7709 13.6167 24.8249 13.6176 24.879 13.6176C27.584 13.6176 28.3473 10.9571 28.3552 10.9295C28.3762 10.8524 28.3397 10.7669 28.2663 10.7368C28.1922 10.7062 28.1109 10.7304 28.0717 10.7999C28.0708 10.8011 27.9549 10.9392 27.4581 10.9605C26.9518 10.9884 26.2265 10.891 25.3087 10.6637C24.0647 10.3541 23.1223 10.4087 22.5077 10.8248C22.39 10.9046 22.288 10.999 22.1961 11.1028C22.2264 10.7596 22.2401 10.4618 22.2452 10.2327C22.9475 10.0536 23.722 9.3216 23.8264 7.00289C23.9676 3.88507 20.4398 3.01282 20.4042 3.00463C20.3253 2.98551 20.2423 3.02709 20.2151 3.10296C20.1882 3.17883 20.2185 3.26078 20.291 3.29598C20.2968 3.29963 20.8871 3.71572 20.1268 6.34703C19.3358 9.08518 21.538 10.0876 21.9278 10.2415C21.9117 10.8737 21.8328 12.0294 21.4999 13.2048C21.3742 13.6489 21.2797 14.0874 21.2103 14.5235C21.1026 14.2996 20.9377 14.0795 20.6858 13.9038C20.0949 13.4916 19.1845 13.4349 17.9798 13.7335C15.7616 14.2832 15.3673 13.8759 15.363 13.8747C15.3233 13.8055 15.2385 13.7772 15.1653 13.8067C15.0915 13.8373 15.0524 13.9178 15.0734 13.9945C15.0807 14.0206 15.8116 16.5615 18.3901 16.5615C18.4414 16.5615 18.4935 16.5603 18.5465 16.5585C20.0529 16.4999 20.7566 16.1642 21.0861 15.8586C21.0692 16.4744 21.1082 17.0884 21.2042 17.7057H14.8351C14.7479 17.7057 14.6772 17.7761 14.6772 17.8635V20.2369H12.8656C12.7784 20.2369 12.7078 20.3076 12.7078 20.3947V22.9259C12.7078 23.013 12.7784 23.0836 12.8656 23.0836H14.2827V24.4779C13.3251 24.474 12.603 24.4838 12.2477 24.4902C11.8678 24.4938 11.5835 24.4996 11.4186 24.5036V24.2353C11.4186 24.1481 11.348 24.0776 11.2609 24.0776H9.5567V23.648C9.5567 23.5607 9.48611 23.4901 9.39888 23.4901H2.15779C2.07056 23.4901 2 23.5607 2 23.648C2 23.7352 2.07056 23.8057 2.15779 23.8057H9.24109C9.24109 28.68 9.24109 26.4682 9.24109 34.1826H2.15779C2.07056 34.1826 2 34.2532 2 34.3403C2 34.4275 2.07056 34.4982 2.15779 34.4982H9.39888C9.48611 34.4982 9.5567 34.4275 9.5567 34.3403V33.9108H11.2609C11.348 33.9108 11.4186 33.8402 11.4186 33.7529V32.8394C12.4632 33.4548 16.5836 35.8247 19.4809 36.6844H9.55761C9.47038 36.6844 9.39979 36.7549 9.39979 36.8421C9.39979 36.9293 9.47038 37 9.55761 37H32.4588C32.5462 37 32.6166 36.9293 32.6166 36.8421C32.6166 36.7549 32.5462 36.6844 32.4588 36.6844H22.9518C27.6978 35.2702 35.8082 29.5365 36.18 29.2718C36.7132 28.9699 37.0732 28.4027 37.0732 27.7367C37.0732 26.4388 35.718 25.5844 34.5478 26.1498L33.3851 26.7118C33.5936 26.1052 33.7052 25.4716 33.7052 24.8194C33.7052 21.8378 31.4172 19.3221 28.4724 19.0217Z" stroke="#00AEEF" stroke-width="0.2" mask="url(#path-2-outside-1_1681_21875)"/>
<path d="M6.53728 32.5083C6.53728 32.0933 6.87508 31.7558 7.29023 31.7558C7.7054 31.7558 8.04289 32.0933 8.04289 32.5083C8.04289 32.9235 7.7054 33.261 7.29023 33.261C6.87508 33.261 6.53728 32.9235 6.53728 32.5083ZM8.3585 32.5083C8.3585 31.9193 7.87923 31.4402 7.29023 31.4402C6.70094 31.4402 6.22168 31.9193 6.22168 32.5083C6.22168 33.0973 6.70094 33.5767 7.29023 33.5767C7.87923 33.5767 8.3585 33.0973 8.3585 32.5083Z" fill="#00AEEF"/>
</svg>
