<svg width="40" height="40" viewBox="0 0 40 40" fill="none" xmlns="http://www.w3.org/2000/svg">
<path d="M6.20003 3.11434C5.16226 3.52678 4.70324 4.75748 5.20217 5.75534C5.51483 6.37401 6.04702 6.69998 6.90518 6.81307C7.99618 6.94612 8.7479 7.49162 9.33331 8.556C9.67258 9.17467 9.96529 9.31437 10.2713 9.00171C10.5174 8.76222 10.4842 8.53604 10.0917 7.87745C9.39318 6.71328 8.48846 6.07465 7.19124 5.84847C6.43286 5.71542 6.2466 5.62229 6.08029 5.26971C5.86076 4.8107 6.04702 4.31842 6.5393 4.06563C6.93179 3.8594 8.22901 4.1255 9.20692 4.60447C10.4043 5.19654 11.2758 6.12787 12.0009 7.60471C12.7992 9.22789 13.1784 10.6049 14.163 15.5477C14.8814 19.1732 15.407 21.5481 15.6597 22.2932C16.0788 23.5239 16.8771 24.1027 18.5535 24.4087C19.1922 24.5284 21.6802 24.5284 22.545 24.4153C24.8866 24.1027 26.9156 23.5705 28.7184 22.7988C29.55 22.4396 29.836 22.3996 30.162 22.6059C30.5545 22.8454 30.6942 23.3443 30.4879 23.77C30.3549 24.0494 30.2485 24.1226 29.357 24.5018C27.368 25.3533 25.0729 25.952 22.8111 26.2048C21.6403 26.3379 18.946 26.3179 18.1211 26.1716C16.7907 25.9321 15.8992 25.5329 15.1675 24.8411C14.0233 23.7567 13.8303 23.1381 12.4267 16.1597C12.1007 14.5365 11.7282 12.7537 11.6018 12.2015C11.1428 10.2657 11.043 10.0328 10.6438 10.0328C10.431 10.0328 10.1715 10.279 10.1715 10.4719C10.1715 10.5384 10.3046 11.1371 10.4709 11.7957C10.6372 12.4543 11.0563 14.3968 11.4022 16.1198C12.0941 19.6056 12.3136 20.6168 12.7061 22.1735C13.1851 24.0428 13.8237 25.1271 14.9546 25.9786C14.9679 25.9853 14.8282 26.3246 14.6353 26.7237C14.0099 28.0409 13.4711 29.9634 13.3248 31.4003C13.2981 31.6531 13.2649 31.8527 13.2449 31.8527C13.1119 31.8527 11.5752 31.0012 10.8966 30.5555C9.9919 29.9501 9.69919 29.8503 9.28674 29.9834C8.70133 30.1763 8.41528 30.6287 8.41528 31.387C8.40863 32.0789 8.57494 32.3982 9.23353 32.9637C11.6483 35.0326 15.2539 36.4429 19.3186 36.9152C20.2832 37.0283 23.29 37.0283 24.2746 36.9152C25.7315 36.7489 27.2216 36.4429 28.5521 36.0304C30.8272 35.3319 33.2487 34.0147 34.5792 32.7574C35.3242 32.0523 35.4041 30.9214 34.7588 30.2761C34.5459 30.0632 34.4129 29.99 34.1734 29.9568C33.7543 29.8902 33.5946 29.9568 32.7032 30.5488C31.9049 31.081 30.4214 31.8793 30.3349 31.8261C30.3083 31.8061 30.2618 31.58 30.2352 31.3272C30.1553 30.4424 29.9291 29.4379 29.7761 29.2716C29.5766 29.0587 29.224 29.092 29.0444 29.3381L28.9113 29.5177L29.051 30.2362C29.1774 30.8748 29.3304 31.9259 29.3304 32.1654C29.3304 32.2518 29.1575 32.345 28.8382 32.4248C28.6918 32.4581 28.6785 32.4381 28.6053 31.9392C28.419 30.7484 27.98 29.3514 27.4811 28.3602C27.215 27.8214 26.6429 26.91 26.5032 26.7969C26.3169 26.6372 26.41 26.5574 26.9555 26.411C27.2549 26.3312 27.5276 26.2647 27.5542 26.2647C27.5875 26.2647 27.7937 26.6439 28.0133 27.1095C28.2394 27.5819 28.4656 28.0143 28.5188 28.0741C28.6652 28.2471 29.0111 28.2271 29.1974 28.0276C29.4036 27.808 29.357 27.5885 28.9246 26.6904C28.7317 26.2913 28.5654 25.952 28.5521 25.9321C28.5454 25.9121 28.765 25.8123 29.051 25.7059C29.8161 25.4198 30.7341 24.9808 30.9603 24.7879C31.0734 24.6881 31.253 24.4552 31.3594 24.2557C31.5324 23.9497 31.559 23.8366 31.559 23.3709C31.559 22.9518 31.5257 22.7788 31.406 22.5593C31.0867 21.9539 30.5611 21.5614 29.9691 21.4883C29.7362 21.4617 29.6564 21.4084 29.4502 21.1423C29.1375 20.7299 28.3459 20.211 27.7605 20.0181L27.2881 19.8651L27.2482 18.5279C27.1817 16.3526 26.8823 15.3681 26.0508 14.5299C24.8933 13.3856 23.2634 13.1329 20.4495 13.665C19.8375 13.7848 18.1877 14.1906 17.9282 14.2837C17.7286 14.3635 17.7486 14.4168 17.5889 13.3258C17.1698 10.4453 16.2718 7.91737 15.1475 6.46049C14.7018 5.88173 13.6707 4.94375 13.0853 4.57786C12.287 4.09224 11.6417 3.89932 10.7835 3.89932C10.1183 3.89932 10.0717 3.89267 9.55284 3.63988C8.8743 3.32056 7.85648 3.05446 7.11141 3.01455C6.64574 2.98129 6.48608 3.00124 6.20003 3.11434ZM12.134 5.19654C13.0054 5.61564 14.0831 6.60019 14.6818 7.53153C15.5333 8.84205 16.1986 10.8976 16.5977 13.4189C16.6842 13.991 16.7574 14.5032 16.7574 14.5565C16.7574 14.623 16.4979 14.7494 15.9525 14.949C15.5134 15.1086 15.1409 15.2284 15.1342 15.2151C15.1209 15.2017 14.9679 14.47 14.7949 13.5919C13.9168 9.12811 12.9855 6.67337 11.6084 5.18988C11.4288 5.00362 11.4222 4.97701 11.5419 4.97701C11.6151 4.97701 11.8812 5.07679 12.134 5.19654ZM24.1083 14.5299C25.0729 14.7693 25.7315 15.4346 26.0308 16.4857C26.1705 16.9912 26.2703 17.9958 26.2703 18.9337V19.7254L25.4587 19.7653C23.7491 19.8518 21.5139 20.4971 19.2986 21.5481C18.9128 21.7278 18.5602 21.8741 18.5136 21.8741C18.2808 21.8741 18.1943 21.1157 18.0147 17.6831C17.9748 16.8981 17.9216 16.0533 17.895 15.8005L17.8484 15.3548L18.2808 15.2217C20.8486 14.4633 22.851 14.2238 24.1083 14.5299ZM16.9104 16.0333C16.937 16.2262 16.9836 17.0112 17.0235 17.7829C17.1964 21.2222 17.2563 21.7278 17.5756 22.2999C17.8085 22.7123 18.028 22.8387 18.507 22.8387C18.8729 22.8387 19.0126 22.7921 19.7177 22.4595C21.9263 21.4217 23.8954 20.843 25.5319 20.7632L26.2903 20.7232L26.2437 21.6812C26.2171 22.2067 26.1905 22.6458 26.1772 22.6524C26.1306 22.699 25.1926 22.9385 24.4409 23.0915C23.1104 23.3709 21.9729 23.484 20.4827 23.4773C18.1012 23.4773 17.1432 23.178 16.7308 22.3132C16.5246 21.8741 16.019 19.732 15.367 16.5123L15.3138 16.2395L16.0522 15.9668C16.458 15.8138 16.8106 15.694 16.8306 15.6874C16.8505 15.6874 16.8904 15.847 16.9104 16.0333ZM27.7538 21.0825C28.113 21.2621 28.592 21.6213 28.5987 21.7078C28.5987 21.761 27.2615 22.3531 27.2216 22.3198C27.215 22.3132 27.2283 22.0005 27.2482 21.6213C27.2948 20.8629 27.2948 20.8563 27.7538 21.0825ZM16.5046 26.7769L16.9437 26.9432L16.6576 27.3889C16.2119 28.0808 15.7728 29.0121 15.4934 29.8503C15.2473 30.5887 14.9612 31.8061 14.9612 32.1321C14.9612 32.4315 14.8748 32.478 14.5554 32.3716L14.2627 32.2718L14.2827 31.9126C14.3492 30.7551 14.7617 28.9988 15.2673 27.7681C15.673 26.7769 15.8261 26.5175 15.9591 26.5707C16.0123 26.5973 16.2585 26.6904 16.5046 26.7769ZM25.5585 27.2093C26.1838 27.9477 26.8092 29.1186 27.1684 30.2229C27.4079 30.9413 27.6673 32.172 27.6673 32.5512C27.6673 32.8173 27.6607 32.8173 26.3701 33.0834C24.7137 33.4227 24.0484 33.4759 21.8132 33.4825C20.1302 33.4825 19.5447 33.4559 18.8529 33.3628C17.9748 33.2364 16.6842 32.9903 16.1653 32.8506L15.8793 32.7774L15.9258 32.3982C16.0389 31.4336 16.3782 30.1963 16.7707 29.2915C17.0168 28.7327 17.6089 27.7149 17.8683 27.4089L18.0546 27.1894L18.9859 27.2692C20.5093 27.3956 22.8709 27.2692 24.4742 26.9698C25.2392 26.8301 25.2325 26.8235 25.5585 27.2093ZM9.91207 31.0943C12.2404 32.8373 15.6597 34.0347 19.4184 34.4139C20.8819 34.5669 23.6626 34.5203 25.0396 34.3207C28.2993 33.8551 31.0268 32.8838 33.2088 31.407C33.6079 31.1409 33.9605 30.9214 33.9871 30.9214C34.2133 30.9214 34.2532 31.6199 34.047 31.8793C33.8208 32.1654 32.8362 32.9038 31.9781 33.4227C28.0066 35.8308 22.3986 36.6424 17.1898 35.5714C14.4823 35.0126 11.9144 33.8484 10.0252 32.325C9.46636 31.8793 9.33331 31.6531 9.40649 31.2739C9.48632 30.8548 9.55284 30.8282 9.91207 31.0943Z" fill="#00AEEF"/>
</svg>
