<svg width="40" height="40" viewBox="0 0 40 40" fill="none" xmlns="http://www.w3.org/2000/svg">
<path d="M10.0375 2.93235C9.75574 2.97069 9.29729 3.14798 9.02508 3.32528C8.68602 3.5457 8.40904 3.85237 8.2037 4.23571C7.94105 4.73405 7.91239 4.97843 7.91239 6.90471V8.63932L7.42529 8.67286C5.31452 8.8214 3.71473 10.1439 3.12257 12.2331L3.01751 12.6021L3.00318 22.6887C2.99363 31.5343 3.00318 32.8232 3.06526 33.197C3.38522 35.0466 4.73669 36.5129 6.55615 36.9777L6.98117 37.0879H19.9944H33.0076L33.4327 36.9777C35.085 36.556 36.3171 35.3485 36.8376 33.6378L36.9665 33.2066L36.9856 30.9065L37 28.6065L36.8901 28.4388C36.7469 28.228 36.5988 28.1513 36.3171 28.1513C36.1451 28.1513 36.0592 28.18 35.9398 28.2807C35.658 28.5203 35.658 28.525 35.658 30.7772C35.658 32.6747 35.6485 32.8616 35.5625 33.2114C35.3047 34.2272 34.6504 35.0274 33.7096 35.4683C33.022 35.7893 33.9341 35.7702 19.9896 35.7702C8.63349 35.7702 7.29635 35.7606 6.97162 35.6935C5.72521 35.4347 4.74624 34.4812 4.42628 33.2114C4.33077 32.8376 4.33077 32.6747 4.33077 24.6917V16.5553H19.9944H35.658V20.3983C35.658 22.7845 35.6771 24.3131 35.7058 24.4185C35.7822 24.6917 35.9923 24.8594 36.2884 24.8785C36.4842 24.8929 36.5797 24.8737 36.6943 24.8019C37.0191 24.5958 37 25.0415 36.9856 18.5055C36.9713 12.6021 36.9713 12.6021 36.8662 12.2331C36.6084 11.3179 36.2072 10.6279 35.5816 10.005C34.7459 9.18078 33.7956 8.76869 32.5205 8.66807L32.0764 8.63453V6.90471C32.0764 4.97363 32.0478 4.73405 31.7803 4.22612C31.6944 4.0632 31.4938 3.79966 31.3314 3.63674C30.171 2.46755 28.2274 2.76943 27.449 4.23571C27.1863 4.73405 27.1577 4.97843 27.1577 6.9095V8.6489H19.9944H12.8312V6.93346C12.8312 5.91761 12.8121 5.09822 12.7786 4.93051C12.5494 3.67028 11.3078 2.76464 10.0375 2.93235ZM10.7443 4.31717C10.8684 4.36029 11.0499 4.47529 11.155 4.58071C11.5083 4.9353 11.4988 4.82509 11.4845 8.51473L11.4701 11.7971L11.3269 12.0319C11.2361 12.1756 11.0929 12.3194 10.9496 12.4104C10.7443 12.535 10.6679 12.5542 10.3718 12.5542C10.0757 12.5542 9.99929 12.535 9.79394 12.4104C9.65067 12.3194 9.50741 12.1756 9.41668 12.0319L9.27341 11.7971L9.25908 8.58182C9.24953 6.81366 9.25908 5.27551 9.27341 5.1653C9.28774 5.05509 9.35937 4.88259 9.431 4.77717C9.74618 4.30758 10.2237 4.13987 10.7443 4.31717ZM29.9895 4.31717C30.1137 4.36029 30.2952 4.47529 30.4002 4.58071C30.7536 4.9353 30.7441 4.82509 30.7297 8.51473L30.7154 11.7971L30.5721 12.0319C30.4814 12.1756 30.3381 12.3194 30.1949 12.4104C29.9895 12.535 29.9131 12.5542 29.617 12.5542C29.321 12.5542 29.2445 12.535 29.0392 12.4104C28.8959 12.3194 28.7527 12.1756 28.6619 12.0319L28.5187 11.7971V8.41411V5.03114L28.6476 4.81551C28.9294 4.33633 29.4642 4.13508 29.9895 4.31717ZM7.91239 10.8148C7.91239 12.099 8.06998 12.5877 8.65737 13.1867C9.59814 14.145 11.1359 14.145 12.091 13.1867C12.6736 12.6021 12.8312 12.099 12.8312 10.8148V9.99059H19.9944H27.1577V10.8148C27.1577 12.099 27.3152 12.6021 27.8979 13.1867C28.853 14.145 30.3811 14.145 31.3362 13.1867C31.9188 12.6021 32.0764 12.1037 32.0764 10.81V9.97621L32.4776 10.005C34.0153 10.1152 35.19 11.0831 35.5625 12.559C35.6437 12.8752 35.658 13.0908 35.658 14.0732V15.2136H19.9896H4.32599L4.34032 13.9534C4.35942 12.741 4.3642 12.6835 4.48836 12.3098C4.93726 10.9585 6.21709 10.0145 7.61631 9.99538L7.91239 9.99059V10.8148Z" fill="#00AEEF"/>
<path d="M19.0389 17.8539C16.2071 18.2228 13.8384 19.9095 12.6159 22.4252C12.0094 23.6758 11.7754 24.6821 11.7754 26.0669C11.7802 26.9151 11.8327 27.3511 12.0189 28.1034C12.9693 31.8793 16.4649 34.4908 20.3283 34.3135C21.9377 34.2416 23.3225 33.7816 24.6406 32.8808C26.5412 31.5822 27.8497 29.4547 28.1601 27.169C28.227 26.6755 28.227 25.4488 28.1601 24.9648C27.7351 21.8885 25.6243 19.2914 22.7399 18.2803C21.5652 17.8683 20.1707 17.7053 19.0389 17.8539ZM20.8918 19.1908C23.1076 19.4735 25.142 20.9158 26.1496 22.9283C27.4247 25.4728 27.0474 28.482 25.1898 30.6287C24.0819 31.9033 22.5489 32.7179 20.8297 32.9479C20.2567 33.0245 19.144 32.9766 18.5757 32.852C15.9826 32.2818 13.9721 30.3555 13.3083 27.792C12.4487 24.4665 14.1727 20.9925 17.3436 19.6652C17.8068 19.4687 18.5423 19.2627 19.015 19.1956C19.4257 19.1381 20.4334 19.1333 20.8918 19.1908Z" fill="#00AEEF"/>
<path d="M19.5075 20.4175C19.2496 20.5564 19.2019 20.8631 19.4025 21.1027C19.5027 21.2225 19.5601 21.2512 19.7176 21.2512C20.1904 21.2512 20.3576 20.6235 19.9421 20.4079C19.775 20.3216 19.6699 20.3264 19.5075 20.4175Z" fill="#00AEEF"/>
<path d="M19.3877 21.8742C19.0773 22.0611 19.0916 21.9796 19.0868 24.3036C19.082 25.9855 19.0964 26.4455 19.1441 26.5461C19.2539 26.7474 20.9445 28.1418 21.1594 28.2041C21.422 28.2759 21.7181 28.1561 21.8614 27.9261C21.9903 27.7201 21.9999 27.3991 21.89 27.2361C21.847 27.1738 21.4937 26.8528 21.1068 26.5222L20.4001 25.9184L20.3857 24.0592C20.3762 22.2671 20.3714 22.1952 20.2759 22.0611C20.0753 21.7783 19.679 21.6921 19.3877 21.8742Z" fill="#00AEEF"/>
<path d="M14.6356 26.1148C14.478 26.2011 14.3873 26.4598 14.4494 26.6275C14.5115 26.7952 14.7264 26.9534 14.8887 26.9534C14.9604 26.9534 15.0845 26.8959 15.1657 26.8288C15.2899 26.7282 15.3138 26.6707 15.3138 26.4982C15.3138 26.1388 14.9604 25.9375 14.6356 26.1148Z" fill="#00AEEF"/>
<path d="M24.8228 26.1677C24.6987 26.2683 24.6748 26.3258 24.6748 26.4983C24.6748 26.6708 24.6987 26.7283 24.8228 26.8289C24.9995 26.9822 25.1906 26.987 25.3625 26.8529C25.5439 26.7091 25.5965 26.5462 25.5344 26.3497C25.4293 26.0383 25.0807 25.9472 24.8228 26.1677Z" fill="#00AEEF"/>
<path d="M19.3968 31.0359C19.0912 31.4001 19.4637 31.9271 19.903 31.7451C20.1943 31.6205 20.2707 31.2467 20.0463 31.0215C19.8409 30.8203 19.5735 30.825 19.3968 31.0359Z" fill="#00AEEF"/>
</svg>
