<svg width="40" height="40" viewBox="0 0 40 40" fill="none" xmlns="http://www.w3.org/2000/svg">
<path d="M25.3793 33.0731C25.3793 32.7489 25.6435 32.4858 25.9698 32.4858C26.2953 32.4858 26.5595 32.7489 26.5595 33.0731C26.5595 33.9821 26.1857 34.809 25.5838 35.408C24.9827 36.0064 24.1518 36.3787 23.2382 36.3787H6.86029C5.94676 36.3787 5.11585 36.0064 4.51474 35.408C3.91281 34.8096 3.53906 33.9827 3.53906 33.0731V6.91644C3.53906 6.00637 3.91281 5.18015 4.51474 4.58104C5.11585 3.98274 5.94676 3.61073 6.86029 3.61073H23.2382C23.8336 3.61073 24.3996 3.77272 24.8886 4.05356H24.8911C25.3932 4.34172 25.8161 4.76093 26.1088 5.26155C26.2716 5.54076 26.1751 5.89973 25.8946 6.06172C25.6141 6.22371 25.2534 6.12848 25.0906 5.84846C24.9017 5.52611 24.6269 5.25423 24.3006 5.067L24.3014 5.06619C23.9907 4.88792 23.6275 4.78535 23.2382 4.78535H6.86029C6.27226 4.78535 5.73658 5.0263 5.34893 5.41214C4.96128 5.79798 4.7192 6.33116 4.7192 6.91644V33.0731C4.7192 33.658 4.96128 34.1918 5.34893 34.5777C5.73658 34.9634 6.27226 35.2042 6.86029 35.2042H23.2382C23.8263 35.2042 24.362 34.9634 24.7496 34.5777C25.1381 34.1906 25.3793 33.658 25.3793 33.0731Z" fill="#00AEEF"/>
<path d="M7.35194 6.20095H22.2808C22.6148 6.20095 22.9184 6.35943 23.1366 6.61245C23.3555 6.8664 23.4921 7.21859 23.4921 7.606V14.4663C23.4921 14.8518 23.3547 15.2022 23.1366 15.4561V15.4589C22.9184 15.7129 22.6132 15.8713 22.2808 15.8713H7.35194C7.01795 15.8713 6.71512 15.7129 6.49619 15.4589C6.27726 15.205 6.14062 14.8537 6.14062 14.4663V7.606C6.14062 7.21859 6.27726 6.8664 6.49619 6.61245C6.71512 6.35943 7.01795 6.20095 7.35194 6.20095ZM22.2808 7.56986H7.35194C7.34395 7.56986 7.33515 7.57448 7.33036 7.58097C7.32477 7.58653 7.32077 7.59673 7.32077 7.606V14.4663C7.32077 14.4756 7.32477 14.4848 7.33036 14.4913C7.33515 14.4978 7.34395 14.5024 7.35194 14.5024H22.2808C22.2888 14.5024 22.2976 14.4978 22.3024 14.4913L22.304 14.4932C22.3088 14.4867 22.312 14.4765 22.312 14.4663V7.606C22.312 7.59673 22.308 7.58653 22.3024 7.58097C22.2976 7.57448 22.2888 7.56986 22.2808 7.56986Z" fill="#00AEEF"/>
<path d="M7.26196 17.7526H12.0446C12.2819 17.7526 12.4749 17.9383 12.4749 18.1672V18.1779V22.9822C12.4749 23.2109 12.2819 23.3965 12.0446 23.3965H12.0329H7.26196C7.02405 23.3965 6.83105 23.2109 6.83105 22.9822V22.9714V18.1672C6.83105 17.9383 7.02405 17.7526 7.26196 17.7526ZM11.6137 18.5813H7.69231V22.5679H11.6137V18.5813Z" fill="#00AEEF"/>
<path d="M7.26196 25.5085H12.0446C12.2819 25.5085 12.4749 25.6941 12.4749 25.9228V25.9335V30.7381C12.4749 30.9668 12.2819 31.1523 12.0446 31.1523H12.0329H7.26196C7.02405 31.1523 6.83105 30.9668 6.83105 30.7381V30.7273V25.9228C6.83105 25.6941 7.02405 25.5085 7.26196 25.5085ZM11.6137 26.3371H7.69231V30.3237H11.6137V26.3371Z" fill="#00AEEF"/>
<path d="M16.6677 17.7526H16.6788H21.4508C21.6881 17.7526 21.8812 17.9378 21.8812 18.1667V18.1775V22.9822C21.8812 23.2108 21.6881 23.3965 21.4508 23.3965H21.4391H16.6677C16.4297 23.3965 16.2373 23.2108 16.2373 22.9822V22.9714V18.1667C16.2373 17.9378 16.4297 17.7526 16.6677 17.7526ZM21.0198 18.581H17.0981V22.5678H21.0198V18.581Z" fill="#00AEEF"/>
<path d="M16.6703 25.2778H16.6815H21.4827C21.7215 25.2778 21.9157 25.471 21.9157 25.709V25.7202V30.7211C21.9157 30.9592 21.7215 31.1523 21.4827 31.1523H21.4709H16.6703C16.4309 31.1523 16.2373 30.9592 16.2373 30.7211V30.7099V25.709C16.2373 25.471 16.4309 25.2778 16.6703 25.2778ZM21.0491 26.1403H17.1033V30.2899H21.0491V26.1403Z" fill="#00AEEF"/>
<path d="M30.921 18.7517C32.3408 18.7517 33.6367 18.9173 34.582 19.1851C35.7427 19.5134 36.4613 20.0584 36.4613 20.7407C36.4613 21.4232 35.7427 21.9681 34.582 22.2963C33.6367 22.5641 32.3408 22.7297 30.921 22.7297C29.5003 22.7297 28.2044 22.5641 27.2582 22.2963C26.0976 21.9681 25.3789 21.4232 25.3789 20.7407C25.3789 20.0584 26.0976 19.5134 27.2582 19.1851C28.2044 18.9173 29.5003 18.7517 30.921 18.7517ZM34.2596 20.3138C33.4144 20.0748 32.2336 19.9263 30.921 19.9263C29.6075 19.9263 28.4267 20.0748 27.5806 20.3138C26.9498 20.4923 26.5588 20.6492 26.5588 20.7407C26.5588 20.8324 26.9498 20.9892 27.5806 21.1677C28.4267 21.4067 29.6075 21.5552 30.921 21.5552C32.2336 21.5552 33.4144 21.4067 34.2596 21.1677C34.8904 20.9892 35.2814 20.8324 35.2814 20.7407C35.2814 20.6492 34.8904 20.4923 34.2596 20.3138Z" fill="#00AEEF"/>
<path d="M36.4613 20.7405V23.473C36.4613 24.1559 35.7427 24.6997 34.582 25.0279C33.6367 25.2958 32.3399 25.4614 30.9201 25.4614C29.4995 25.4614 28.2027 25.2958 27.2582 25.0279C26.0976 24.6997 25.3789 24.1559 25.3789 23.473V20.7405H26.5588V20.7446C26.5711 20.8368 26.9595 20.9918 27.5798 21.1674C28.4258 21.4064 29.6058 21.555 30.9201 21.555C32.2336 21.555 33.4144 21.4064 34.2605 21.1674C34.8808 20.9918 35.2691 20.8368 35.2814 20.7446V20.7405H36.4613ZM35.2814 23.473V22.0483C35.0723 22.1405 34.8386 22.2239 34.5829 22.2961C33.6367 22.5639 32.3399 22.7295 30.9201 22.7295C29.4995 22.7295 28.2027 22.5639 27.2573 22.2961C27.0017 22.2239 26.768 22.1405 26.5588 22.0483V23.473C26.5588 23.564 26.9489 23.7208 27.5798 23.8993C28.4258 24.1383 29.6058 24.2869 30.9201 24.2869C32.2336 24.2869 33.4135 24.1383 34.2596 23.8993C34.8904 23.7208 35.2814 23.564 35.2814 23.473Z" fill="#00AEEF"/>
<path d="M36.4613 28.9359V31.6684C36.4613 32.3513 35.7427 32.8951 34.582 33.2233C33.6367 33.4911 32.3399 33.6567 30.9201 33.6567C29.4995 33.6567 28.2027 33.4911 27.2582 33.2233C26.0976 32.8951 25.3789 32.3513 25.3789 31.6684V28.9359H26.5588V28.94C26.5711 29.0322 26.9595 29.1872 27.5798 29.3628C28.4258 29.6018 29.6058 29.7504 30.9201 29.7504C32.2336 29.7504 33.4144 29.6018 34.2605 29.3628C34.8808 29.1872 35.2691 29.0322 35.2814 28.94V28.9359H36.4613ZM35.2814 31.6684V30.2437C35.0723 30.3359 34.8386 30.4193 34.5829 30.4915C33.6367 30.7592 32.3399 30.9249 30.9201 30.9249C29.4995 30.9249 28.2027 30.7592 27.2573 30.4915C27.0017 30.4193 26.768 30.3359 26.5588 30.2437V31.6684C26.5588 31.7594 26.9489 31.9162 27.5798 32.0947C28.4258 32.3337 29.6058 32.4822 30.9201 32.4822C32.2336 32.4822 33.4135 32.3337 34.2596 32.0947C34.8904 31.9162 35.2814 31.7594 35.2814 31.6684Z" fill="#00AEEF"/>
<path d="M36.4613 31.6682V34.4007C36.4613 35.0837 35.7427 35.6275 34.582 35.9558C33.6367 36.2235 32.3399 36.3892 30.9201 36.3892C29.4995 36.3892 28.2027 36.2235 27.2582 35.9558C26.0976 35.6275 25.3789 35.0837 25.3789 34.4007V31.6682H26.5588V31.6723C26.5711 31.7645 26.9595 31.9195 27.5798 32.0951C28.4258 32.3341 29.6058 32.4827 30.9201 32.4827C32.2336 32.4827 33.4144 32.3341 34.2605 32.0951C34.8808 31.9195 35.2691 31.7645 35.2814 31.6723V31.6682H36.4613ZM35.2814 34.4007V32.976C35.0723 33.0683 34.8386 33.1516 34.5829 33.2238C33.6367 33.4916 32.3399 33.6572 30.9201 33.6572C29.4995 33.6572 28.2027 33.4916 27.2573 33.2238C27.0017 33.1516 26.768 33.0683 26.5588 32.976V34.4007C26.5588 34.4917 26.9489 34.6485 27.5798 34.827C28.4258 35.0661 29.6058 35.2147 30.9201 35.2147C32.2336 35.2147 33.4135 35.0661 34.2596 34.827C34.8904 34.6485 35.2814 34.4917 35.2814 34.4007Z" fill="#00AEEF"/>
<path d="M36.4613 23.4722V26.2046C36.4613 26.8876 35.7427 27.4314 34.582 27.7597C33.6367 28.0275 32.3399 28.1931 30.9201 28.1931C29.4995 28.1931 28.2027 28.0275 27.2582 27.7597C26.0976 27.4314 25.3789 26.8876 25.3789 26.2046V23.4722H26.5588V23.4763C26.5711 23.5685 26.9595 23.7236 27.5798 23.8992C28.4258 24.1382 29.6058 24.2867 30.9201 24.2867C32.2336 24.2867 33.4144 24.1382 34.2605 23.8992C34.8808 23.7236 35.2691 23.5685 35.2814 23.4763V23.4722H36.4613ZM35.2814 26.2046V24.7799C35.0723 24.8722 34.8386 24.9555 34.5829 25.0278C33.6367 25.2956 32.3399 25.4613 30.9201 25.4613C29.4995 25.4613 28.2027 25.2956 27.2573 25.0278C27.0017 24.9555 26.768 24.8722 26.5588 24.7799V26.2046C26.5588 26.2957 26.9489 26.4525 27.5798 26.631C28.4258 26.87 29.6058 27.0186 30.9201 27.0186C32.2336 27.0186 33.4135 26.87 34.2596 26.631C34.8904 26.4525 35.2814 26.2957 35.2814 26.2046Z" fill="#00AEEF"/>
<path d="M36.4613 26.2041V28.9367C36.4613 29.6196 35.7427 30.1634 34.582 30.4917C33.6367 30.7594 32.3399 30.925 30.9201 30.925C29.4995 30.925 28.2027 30.7594 27.2582 30.4917C26.0976 30.1634 25.3789 29.6196 25.3789 28.9367V26.2041H26.5588V26.2083C26.5711 26.3005 26.9595 26.4555 27.5798 26.6311C28.4258 26.8701 29.6058 27.0187 30.9201 27.0187C32.2336 27.0187 33.4144 26.8701 34.2605 26.6311C34.8808 26.4555 35.2691 26.3005 35.2814 26.2083V26.2041H36.4613ZM35.2814 28.9367V27.512C35.0723 27.6041 34.8386 27.6876 34.5829 27.7598C33.6367 28.0276 32.3399 28.1932 30.9201 28.1932C29.4995 28.1932 28.2027 28.0276 27.2573 27.7598C27.0017 27.6876 26.768 27.6041 26.5588 27.512V28.9367C26.5588 29.0276 26.9489 29.1844 27.5798 29.363C28.4258 29.602 29.6058 29.7505 30.9201 29.7505C32.2336 29.7505 33.4135 29.602 34.2596 29.363C34.8904 29.1844 35.2814 29.0276 35.2814 28.9367Z" fill="#00AEEF"/>
<path d="M26.3877 17.2391C26.1574 17.4681 25.7838 17.4681 25.5536 17.2391C25.3233 17.0101 25.3233 16.6379 25.5536 16.4087L35.4539 6.55489C35.6841 6.32656 36.0577 6.32656 36.288 6.55489C36.5182 6.7841 36.5182 7.15677 36.288 7.38598L26.3877 17.2391Z" fill="#00AEEF"/>
<path d="M26.0751 7.07561C26.5378 6.61422 27.1483 6.3827 27.7563 6.3827C28.3634 6.3827 28.9714 6.61422 29.435 7.07561L29.4375 7.07812L29.4459 7.08564C29.9036 7.54619 30.1337 8.14799 30.1337 8.74896C30.1337 9.35411 29.901 9.96093 29.4375 10.4223C28.9731 10.8845 28.3643 11.1152 27.7563 11.1152C27.1508 11.1152 26.542 10.8837 26.0776 10.4223L26.0751 10.4198L26.0642 10.4089C25.6073 9.9484 25.3789 9.34659 25.3789 8.74896C25.3789 8.14381 25.6107 7.53783 26.0751 7.07561ZM27.7563 7.55706C27.4498 7.55706 27.1424 7.67408 26.909 7.9056C26.6763 8.13797 26.5588 8.44388 26.5588 8.74896C26.5588 9.05154 26.6721 9.35412 26.8989 9.58397L26.9073 9.59149L26.909 9.594C27.1407 9.8247 27.4489 9.94088 27.7563 9.94088C28.0628 9.94088 28.3702 9.82385 28.6036 9.59149C28.8362 9.35996 28.9538 9.05404 28.9538 8.74896C28.9538 8.44305 28.8371 8.13713 28.6045 7.90476C28.371 7.67324 28.0636 7.55706 27.7563 7.55706Z" fill="#00AEEF"/>
<path d="M32.4019 13.3726C32.8658 12.9116 33.4755 12.6797 34.0835 12.6797C34.6906 12.6797 35.2986 12.9116 35.7625 13.3726L35.7651 13.375L35.773 13.3832C36.2308 13.8436 36.4609 14.4455 36.4609 15.0463C36.4609 15.6512 36.2281 16.2584 35.7651 16.7193C35.3003 17.1816 34.6915 17.4124 34.0835 17.4124C33.4782 17.4124 32.8693 17.181 32.4045 16.7193L32.4019 16.717L32.3913 16.7065C31.9354 16.2454 31.7061 15.6442 31.7061 15.0463C31.7061 14.4409 31.938 13.8348 32.4019 13.3726ZM34.0835 13.8542C33.7769 13.8542 33.4694 13.971 33.2365 14.203C33.0037 14.4349 32.886 14.7409 32.886 15.0463C32.886 15.3488 32.9993 15.6512 33.226 15.8808L33.2339 15.889L33.2365 15.8914C33.4676 16.1221 33.776 16.2378 34.0835 16.2378C34.3901 16.2378 34.6976 16.1209 34.9304 15.889C35.1633 15.657 35.281 15.351 35.281 15.0463C35.281 14.7403 35.1642 14.4344 34.9313 14.2018C34.6976 13.9704 34.391 13.8542 34.0835 13.8542Z" fill="#00AEEF"/>
</svg>
