<svg width="119" height="27" viewBox="0 0 119 27" fill="none" xmlns="http://www.w3.org/2000/svg">
<path d="M69.1864 26.438H0.186401V6.95138C0.186401 3.35532 3.28199 0.437988 7.09777 0.437988H69.1864V26.438Z" fill="#0F4D8B"/>
<path d="M22.5256 10.8154H21.1995C21.1858 10.1683 20.9944 9.6556 20.6252 9.27734C20.2561 8.89909 19.6659 8.70996 18.8547 8.70996C17.8658 8.70996 16.9931 9.05859 16.2366 9.75586C15.4846 10.4486 14.956 11.5127 14.6506 12.9482C14.4 14.124 14.4706 15.0788 14.8625 15.8125C15.259 16.5417 16.0019 16.9062 17.0911 16.9062C18.0937 16.9062 18.939 16.5212 19.6272 15.751C19.9872 15.3454 20.3062 14.8122 20.5842 14.1514H21.9104C21.5686 15.2087 20.9898 16.0951 20.1741 16.8105C19.1897 17.6719 18.0208 18.1025 16.6672 18.1025C15.5006 18.1025 14.5959 17.7493 13.9534 17.043C13.1103 16.1087 12.8961 14.6663 13.3108 12.7158C13.6252 11.2347 14.2747 10.0202 15.259 9.07227C16.3254 8.04232 17.6038 7.52734 19.094 7.52734C20.3655 7.52734 21.2815 7.8623 21.842 8.53223C22.4026 9.20215 22.6305 9.96322 22.5256 10.8154ZM28.4661 14.0625C28.6119 13.3789 28.621 12.8229 28.4934 12.3945C28.2883 11.7201 27.762 11.3828 26.9143 11.3828C26.1624 11.3828 25.554 11.6699 25.0891 12.2441C24.6288 12.8184 24.3121 13.5111 24.1389 14.3223C23.9749 15.1016 24.0068 15.751 24.2346 16.2705C24.467 16.79 24.9547 17.0498 25.6975 17.0498C26.5133 17.0498 27.1376 16.7422 27.5706 16.127C28.0081 15.5072 28.3066 14.819 28.4661 14.0625ZM29.7581 14.0283C29.5074 15.2087 29.0129 16.1839 28.2747 16.9541C27.5364 17.7243 26.5634 18.1094 25.3557 18.1094C24.3486 18.1094 23.6217 17.7699 23.175 17.0908C22.7284 16.4072 22.6259 15.4912 22.8674 14.3428C23.1318 13.1123 23.6536 12.1325 24.4329 11.4033C25.2122 10.6742 26.1282 10.3096 27.1809 10.3096C28.1243 10.3096 28.8534 10.624 29.3684 11.2529C29.8879 11.8818 30.0178 12.807 29.7581 14.0283ZM31.9729 10.5215H33.1897L32.9709 11.5605C33.3401 11.2005 33.6591 10.9385 33.928 10.7744C34.3928 10.4964 34.8827 10.3574 35.3977 10.3574C35.981 10.3574 36.4208 10.501 36.717 10.7881C36.8811 10.9521 37.011 11.1937 37.1067 11.5127C37.4667 11.1208 37.8495 10.8314 38.2551 10.6445C38.6653 10.4531 39.1005 10.3574 39.5608 10.3574C40.5452 10.3574 41.1399 10.7129 41.345 11.4238C41.4543 11.8066 41.4407 12.3216 41.304 12.9688L40.2717 17.8428H38.9934L40.0735 12.7568C40.1737 12.2692 40.1213 11.9342 39.9163 11.752C39.7112 11.5697 39.4332 11.4785 39.0823 11.4785C38.5992 11.4785 38.148 11.6403 37.7288 11.9639C37.314 12.2874 37.0269 12.8275 36.8674 13.584L35.9651 17.8428H34.7141L35.7258 13.0645C35.8306 12.5677 35.8489 12.2054 35.7805 11.9775C35.6666 11.6357 35.3544 11.4648 34.844 11.4648C34.3792 11.4648 33.9166 11.6449 33.4563 12.0049C33.0006 12.3649 32.6724 13.0166 32.4719 13.96L31.6516 17.8428H30.4211L31.9729 10.5215ZM43.6282 10.5557H44.8792L43.3342 17.8428H42.0833L43.6282 10.5557ZM44.2161 7.80078H45.467L45.1663 9.19531H43.9153L44.2161 7.80078ZM46.7522 10.5215H47.9211L47.7024 11.5605C48.1399 11.1322 48.5706 10.8245 48.9944 10.6377C49.4228 10.4508 49.8739 10.3574 50.3479 10.3574C51.387 10.3574 52.0113 10.7197 52.2209 11.4443C52.3394 11.8408 52.3212 12.4082 52.1663 13.1465L51.1682 17.8428H49.9172L50.8948 13.2285C50.9905 12.7819 51.0019 12.4219 50.929 12.1484C50.8059 11.6927 50.4573 11.4648 49.8831 11.4648C49.5914 11.4648 49.3453 11.4945 49.1448 11.5537C48.7847 11.654 48.4452 11.8545 48.1262 12.1553C47.871 12.3968 47.6842 12.6475 47.5657 12.9072C47.4517 13.1624 47.3446 13.5293 47.2444 14.0078L46.4309 17.8428H45.2004L46.7522 10.5215ZM58.5715 10.8154C58.7721 10.9749 58.9589 11.2074 59.1321 11.5127L59.3303 10.5898H60.4651L59.05 17.248C58.8541 18.1777 58.5624 18.9115 58.175 19.4492C57.4504 20.4427 56.3795 20.9395 54.9622 20.9395C54.1737 20.9395 53.5471 20.7617 53.0823 20.4062C52.622 20.0553 52.4397 19.5039 52.5354 18.752H53.7864C53.7773 19.0801 53.8433 19.333 53.9846 19.5107C54.2034 19.7842 54.6112 19.9209 55.2083 19.9209C56.1516 19.9209 56.8398 19.5882 57.2727 18.9229C57.5279 18.5309 57.7558 17.8314 57.9563 16.8242C57.6327 17.1979 57.2773 17.4759 56.8899 17.6582C56.5071 17.8405 56.0308 17.9316 55.4612 17.9316C54.6682 17.9316 54.0325 17.6514 53.554 17.0908C53.08 16.5257 52.982 15.5938 53.26 14.2949C53.5198 13.069 54.0211 12.112 54.7639 11.4238C55.5113 10.7357 56.3088 10.3916 57.1565 10.3916C57.7307 10.3916 58.2024 10.5329 58.5715 10.8154ZM57.1497 11.4785C56.2838 11.4785 55.607 11.8841 55.1194 12.6953C54.8551 13.1283 54.65 13.6956 54.5042 14.3975C54.3264 15.2223 54.3583 15.8512 54.5999 16.2842C54.8459 16.7126 55.2515 16.9268 55.8167 16.9268C56.7008 16.9268 57.4071 16.528 57.9358 15.7305C58.232 15.2793 58.4439 14.7529 58.5715 14.1514C58.7675 13.2445 58.7242 12.5723 58.4417 12.1348C58.1591 11.6973 57.7284 11.4785 57.1497 11.4785Z" fill="#E9F4FE"/>
<path d="M74.1733 14.7324C74.1414 15.1927 74.1938 15.5368 74.3306 15.7646C74.5858 16.1794 75.1281 16.3867 75.9575 16.3867C76.4543 16.3867 76.869 16.332 77.2017 16.2227C77.8351 16.013 78.2111 15.6234 78.3296 15.0537C78.4025 14.721 78.3114 14.4635 78.0562 14.2812C77.8055 14.1035 77.3817 13.9463 76.7847 13.8096L75.7661 13.5703C74.7681 13.3333 74.0981 13.0758 73.7563 12.7979C73.1776 12.333 72.993 11.6061 73.2026 10.6172C73.394 9.71484 73.8817 8.96517 74.6655 8.36816C75.4494 7.77116 76.4771 7.47266 77.7485 7.47266C78.8104 7.47266 79.6558 7.75521 80.2847 8.32031C80.9136 8.88086 81.1323 9.69661 80.9409 10.7676H78.9175C79.0132 10.1615 78.8423 9.73079 78.4048 9.47559C78.1131 9.30697 77.7235 9.22266 77.2358 9.22266C76.6935 9.22266 76.2355 9.33203 75.8618 9.55078C75.4927 9.76953 75.2671 10.0749 75.1851 10.4668C75.1076 10.8268 75.2101 11.0957 75.4927 11.2734C75.6704 11.3919 76.0783 11.5309 76.7163 11.6904L78.3638 12.1074C79.0838 12.2897 79.6056 12.5335 79.9292 12.8389C80.4305 13.3128 80.5854 13.9987 80.394 14.8965C80.1981 15.8171 79.6831 16.5827 78.8491 17.1934C78.0151 17.7995 76.9556 18.1025 75.6704 18.1025C74.3579 18.1025 73.3895 17.804 72.7651 17.207C72.1408 16.6055 71.9403 15.7806 72.1636 14.7324H74.1733ZM87.0728 14.1309C87.2323 13.3835 87.2004 12.8092 86.9771 12.4082C86.7583 12.0026 86.3641 11.7998 85.7944 11.7998C85.2248 11.7998 84.744 12.0026 84.3521 12.4082C83.9601 12.8092 83.6844 13.3835 83.5249 14.1309C83.3654 14.8783 83.395 15.4548 83.6138 15.8604C83.8371 16.266 84.2336 16.4688 84.8032 16.4688C85.3729 16.4688 85.8537 16.266 86.2456 15.8604C86.6375 15.4548 86.9132 14.8783 87.0728 14.1309ZM84.4614 18.1025C83.1808 18.1025 82.3081 17.7152 81.8433 16.9404C81.383 16.1611 81.269 15.2246 81.5015 14.1309C81.7293 13.0553 82.242 12.1234 83.0396 11.335C83.8371 10.5465 84.8761 10.1523 86.1567 10.1523C87.4373 10.1523 88.3078 10.5465 88.7681 11.335C89.2284 12.1234 89.3446 13.0553 89.1167 14.1309C88.8843 15.2246 88.3693 16.1611 87.5718 16.9404C86.7788 17.7152 85.742 18.1025 84.4614 18.1025ZM95.6313 14.1309C95.7909 13.3835 95.759 12.8092 95.5356 12.4082C95.3169 12.0026 94.9227 11.7998 94.353 11.7998C93.7834 11.7998 93.3026 12.0026 92.9106 12.4082C92.5187 12.8092 92.243 13.3835 92.0835 14.1309C91.924 14.8783 91.9536 15.4548 92.1724 15.8604C92.3957 16.266 92.7922 16.4688 93.3618 16.4688C93.9315 16.4688 94.4123 16.266 94.8042 15.8604C95.1961 15.4548 95.4718 14.8783 95.6313 14.1309ZM93.02 18.1025C91.7394 18.1025 90.8667 17.7152 90.4019 16.9404C89.9416 16.1611 89.8276 15.2246 90.0601 14.1309C90.2879 13.0553 90.8006 12.1234 91.5981 11.335C92.3957 10.5465 93.4347 10.1523 94.7153 10.1523C95.9959 10.1523 96.8664 10.5465 97.3267 11.335C97.7869 12.1234 97.9032 13.0553 97.6753 14.1309C97.4429 15.2246 96.9279 16.1611 96.1304 16.9404C95.3374 17.7152 94.3006 18.1025 93.02 18.1025ZM106.111 12.8252L105.044 17.8428H103.048L104.005 13.3105C104.092 12.9186 104.103 12.6178 104.04 12.4082C103.93 12.0254 103.607 11.834 103.069 11.834C102.408 11.834 101.895 12.1143 101.531 12.6748C101.339 12.971 101.196 13.3493 101.1 13.8096L100.246 17.8428H98.3042L99.8833 10.4053H101.763L101.531 11.4922C101.863 11.1094 102.16 10.8337 102.419 10.665C102.884 10.3643 103.424 10.2139 104.04 10.2139C104.81 10.2139 105.395 10.4167 105.796 10.8223C106.202 11.2233 106.307 11.891 106.111 12.8252Z" fill="#0F4D8B"/>
<path fill-rule="evenodd" clip-rule="evenodd" d="M68.1864 0.819321C68.1864 0.608717 68.3596 0.437988 68.5732 0.437988H118.186V20.648C118.186 21.2517 118.172 22.1759 117.958 23.078C117.746 23.9749 117.322 24.9151 116.453 25.474C115.626 26.0054 114.539 26.2382 113.461 26.3452C112.496 26.4409 111.495 26.4391 110.634 26.4376C110.528 26.4374 110.424 26.4372 110.322 26.4372H68.5732V25.6745H110.322C110.425 25.6745 110.529 25.6747 110.635 25.6749C111.501 25.6763 112.461 25.6779 113.383 25.5863C114.424 25.483 115.362 25.2652 116.031 24.8351C116.657 24.4327 117.012 23.7205 117.205 22.9048C117.397 22.0945 117.413 21.2461 117.413 20.648V1.20065H68.5732C68.3596 1.20065 68.1864 1.02993 68.1864 0.819321Z" fill="#0F4D8B"/>
</svg>
