<svg width="13" height="13" viewBox="0 0 13 13" fill="none" xmlns="http://www.w3.org/2000/svg">
<g clip-path="url(#clip0_2326_97065)">
<path d="M9.83332 12.5703H3.16666C2.45441 12.5703 1.78476 12.2929 1.28106 11.7892C0.777385 11.2856 0.5 10.6159 0.5 9.90363V9.23694C0.5 8.86873 0.798461 8.57024 1.16667 8.57024C1.53488 8.57024 1.83334 8.86873 1.83334 9.23694V9.90363C1.83334 10.2598 1.97205 10.5946 2.22384 10.8464C2.4757 11.0982 2.81051 11.237 3.16666 11.237H9.83332C10.1894 11.237 10.5243 11.0982 10.7761 10.8464C11.0279 10.5945 11.1667 10.2597 11.1667 9.90363V9.23694C11.1667 8.86873 11.4651 8.57024 11.8333 8.57024C12.2015 8.57024 12.5 8.86873 12.5 9.23694V9.90363C12.5 10.6159 12.2226 11.2855 11.7189 11.7892C11.2152 12.2929 10.5456 12.5703 9.83332 12.5703ZM6.49999 9.90361C6.32591 9.90384 6.15869 9.83575 6.03427 9.71399L6.03422 9.71395L6.0329 9.71264L6.03252 9.71227C6.03215 9.71195 6.03183 9.7116 6.03148 9.71125L6.0308 9.71057C6.03056 9.71032 6.03031 9.71008 6.03006 9.70985L6.02861 9.70841L3.36193 7.0417C3.10159 6.78136 3.10159 6.35924 3.36193 6.09888C3.62227 5.83854 4.04441 5.83852 4.30475 6.09888L5.83334 7.62747V1.23698C5.83332 0.868774 6.13178 0.570312 6.49999 0.570312C6.8682 0.570312 7.16668 0.868774 7.16668 1.23698V7.62744L8.69525 6.09888C8.95556 5.83854 9.37775 5.83854 9.63807 6.09888C9.89841 6.35922 9.89841 6.78136 9.63807 7.0417L6.97139 9.70836L6.96994 9.7098L6.9692 9.71052L6.96852 9.7112C6.9682 9.71157 6.96782 9.7119 6.9675 9.71222L6.9671 9.7126C6.96668 9.71304 6.96624 9.71348 6.9658 9.7139L6.96575 9.71395C6.95842 9.7211 6.95099 9.72804 6.9434 9.73479C6.88897 9.78342 6.82689 9.82273 6.75965 9.85112L6.759 9.8514C6.75874 9.85149 6.75853 9.85163 6.75828 9.8517C6.67651 9.88609 6.58869 9.90374 6.49999 9.90361Z" fill="white"/>
</g>
<defs>
<clipPath id="clip0_2326_97065">
<rect width="12" height="12" fill="white" transform="translate(0.5 0.570312)"/>
</clipPath>
</defs>
</svg>
