<svg width="16" height="17" viewBox="0 0 16 17" fill="none" xmlns="http://www.w3.org/2000/svg">
<g clip-path="url(#clip0_412_11206)">
<path d="M8 10.1406C8.90609 10.1406 9.64062 9.40609 9.64062 8.5C9.64062 7.59391 8.90609 6.85938 8 6.85938C7.09391 6.85938 6.35938 7.59391 6.35938 8.5C6.35938 9.40609 7.09391 10.1406 8 10.1406Z" fill="white"/>
<path d="M8 0.6875C3.68528 0.6875 0.1875 4.18528 0.1875 8.5C0.1875 12.8147 3.68528 16.3125 8 16.3125C12.3147 16.3125 15.8125 12.8147 15.8125 8.5C15.8125 4.18528 12.3147 0.6875 8 0.6875ZM12.8268 10.4856C12.7893 11.2284 12.5806 11.9608 12.0393 12.4963C11.4928 13.037 10.7569 13.2384 10.007 13.2755H5.99306C5.24306 13.2384 4.50725 13.0371 3.96072 12.4963C3.41941 11.9608 3.21072 11.2284 3.17322 10.4856V6.51438C3.21072 5.77163 3.41944 5.03919 3.96072 4.50362C4.50725 3.963 5.24316 3.76156 5.99306 3.72447H10.0069C10.7569 3.76156 11.4927 3.96291 12.0393 4.50362C12.5806 5.03919 12.7893 5.77163 12.8268 6.51438L12.8268 10.4856Z" fill="white"/>
<path d="M9.95625 4.62948C8.97857 4.60267 7.02169 4.60267 6.044 4.62948C5.53522 4.64345 4.95844 4.77011 4.59594 5.1573C4.21925 5.55977 4.07691 6.04602 4.06247 6.58998C4.0371 7.54473 4.06247 10.4104 4.06247 10.4104C4.079 10.9543 4.21925 11.4406 4.59594 11.843C4.95844 12.2304 5.53522 12.3569 6.044 12.3709C7.02169 12.3977 8.97857 12.3977 9.95625 12.3709C10.465 12.3569 11.0418 12.2302 11.4043 11.843C11.781 11.4406 11.9233 10.9543 11.9378 10.4104V6.58998C11.9233 6.04602 11.781 5.55977 11.4043 5.1573C11.0417 4.76998 10.4649 4.64345 9.95625 4.62948ZM8 11.0431C7.49705 11.0431 7.00539 10.894 6.5872 10.6146C6.16902 10.3351 5.84308 9.93799 5.65061 9.47332C5.45813 9.00866 5.40778 8.49735 5.5059 8.00406C5.60402 7.51078 5.84621 7.05766 6.20185 6.70202C6.55749 6.34638 7.01061 6.10419 7.50389 6.00607C7.99718 5.90794 8.50849 5.9583 8.97315 6.15078C9.43782 6.34325 9.83498 6.66918 10.1144 7.08737C10.3938 7.50556 10.543 7.99722 10.543 8.50017C10.543 9.17461 10.2751 9.82142 9.79815 10.2983C9.32125 10.7752 8.67444 11.0431 8 11.0431ZM10.5538 6.48211C10.4532 6.48208 10.3549 6.45224 10.2713 6.39634C10.1876 6.34044 10.1225 6.261 10.084 6.16806C10.0455 6.07512 10.0355 5.97287 10.0551 5.87422C10.0747 5.77557 10.1232 5.68496 10.1943 5.61384C10.2655 5.54273 10.3561 5.4943 10.4547 5.47469C10.5534 5.45507 10.6556 5.46515 10.7486 5.50365C10.8415 5.54215 10.9209 5.60733 10.9768 5.69097C11.0327 5.7746 11.0625 5.87293 11.0625 5.97352C11.0625 6.04032 11.0493 6.10646 11.0238 6.16817C10.9982 6.22989 10.9607 6.28596 10.9135 6.33319C10.8663 6.38042 10.8102 6.41788 10.7485 6.44343C10.6867 6.46898 10.6206 6.48213 10.5538 6.48211Z" fill="white"/>
</g>
<defs>
<clipPath id="clip0_412_11206">
<rect width="16" height="16" fill="white" transform="translate(0 0.5)"/>
</clipPath>
</defs>
</svg>
