<svg width="16" height="15" viewBox="0 0 16 15" fill="none" xmlns="http://www.w3.org/2000/svg">
<path fill-rule="evenodd" clip-rule="evenodd" d="M0.667969 1.3894C0.667969 1.06442 0.797066 0.75275 1.02686 0.522956C1.25666 0.293161 1.56832 0.164064 1.8933 0.164064H14.108C14.269 0.163801 14.4285 0.195306 14.5774 0.256775C14.7263 0.318244 14.8615 0.408471 14.9755 0.522288C15.0894 0.636106 15.1798 0.77128 15.2414 0.920071C15.303 1.06886 15.3347 1.22835 15.3346 1.3894V13.6041C15.3348 13.7651 15.3032 13.9247 15.2417 14.0735C15.1801 14.2224 15.0899 14.3577 14.976 14.4716C14.8621 14.5855 14.7269 14.6759 14.5781 14.7375C14.4292 14.7991 14.2697 14.8308 14.1086 14.8307H1.8933C1.73233 14.8307 1.57294 14.799 1.42423 14.7374C1.27553 14.6758 1.14042 14.5855 1.02663 14.4716C0.912834 14.3577 0.82259 14.2226 0.76105 14.0738C0.699511 13.9251 0.667881 13.7657 0.667969 13.6047V1.3894ZM6.4733 5.75606H8.4593V6.7534C8.74597 6.18006 9.4793 5.66406 10.5813 5.66406C12.694 5.66406 13.1946 6.80606 13.1946 8.9014V12.7827H11.0566V9.37873C11.0566 8.1854 10.77 7.51206 10.042 7.51206C9.03197 7.51206 8.61197 8.23806 8.61197 9.37873V12.7827H6.4733V5.75606ZM2.80664 12.6914H4.9453V5.66406H2.80664V12.6907V12.6914ZM5.2513 3.37206C5.25534 3.55518 5.22275 3.73726 5.15546 3.90761C5.08817 4.07796 4.98754 4.23315 4.85946 4.36409C4.73138 4.49502 4.57844 4.59905 4.40961 4.67007C4.24078 4.74109 4.05946 4.77768 3.8763 4.77768C3.69314 4.77768 3.51183 4.74109 3.343 4.67007C3.17417 4.59905 3.02123 4.49502 2.89315 4.36409C2.76507 4.23315 2.66443 4.07796 2.59714 3.90761C2.52985 3.73726 2.49727 3.55518 2.5013 3.37206C2.50922 3.01263 2.65756 2.67059 2.91456 2.41919C3.17156 2.16778 3.51679 2.02701 3.8763 2.02701C4.23582 2.02701 4.58105 2.16778 4.83805 2.41919C5.09505 2.67059 5.24339 3.01263 5.2513 3.37206Z" fill="white"/>
</svg>
