<svg width="368" height="151" viewBox="0 0 368 151" fill="none" xmlns="http://www.w3.org/2000/svg">
<g clip-path="url(#clip0_291_3328)">
<path d="M2.91795 84.77H13.3186C13.3186 87.8324 14.4164 90.1437 16.6121 91.7616C18.49 93.1194 21.0035 93.8128 24.1525 93.8128C26.6082 93.8128 28.6595 93.4372 30.3062 92.6572C32.5308 91.6171 33.6575 89.9704 33.6575 87.7169C33.6575 84.9434 31.1441 82.8344 26.1171 81.4187C17.4499 78.963 12.7696 77.5474 12.0763 77.1718C7.0493 74.745 4.53582 70.9314 4.53582 65.7311C4.53582 61.022 6.47149 57.324 10.3428 54.5794C13.8097 52.1526 17.9699 50.9391 22.7947 50.9391C28.3995 50.9391 32.9353 52.1526 36.431 54.5794C40.3891 57.3529 42.3825 61.3975 42.3825 66.6845H31.9819C31.7219 61.7442 28.4861 59.2885 22.3324 59.2885C20.3679 59.2885 18.6922 59.693 17.3344 60.5308C15.7454 61.542 14.9364 62.9865 14.9364 64.8355C14.9364 66.6845 15.832 67.9268 17.5944 68.7358C18.9522 69.3714 22.9391 70.527 29.4973 72.2315C33.3398 73.1849 36.171 74.2828 38.0489 75.5251C42.0069 78.0674 44.0004 81.7365 44.0004 86.4746C44.0004 91.2126 42.2669 94.8818 38.8001 97.713C35.1599 100.689 30.104 102.162 23.6614 102.162C17.7677 102.162 12.943 100.775 9.15832 97.973C4.9114 94.824 2.80238 90.4326 2.86016 84.77" fill="#004B8D"/>
<path d="M49.6918 101.007V65.6156H58.879V70.4114H59.0235C61.7103 66.5689 65.3216 64.6622 69.8286 64.6622C74.9422 64.6622 78.3802 66.6267 80.1714 70.5559C82.7716 66.6267 86.3251 64.6622 90.8609 64.6622C99.4992 64.6622 103.804 68.8802 103.804 77.3163V101.007H94.0967V80.9565C94.0967 78.0963 93.8078 76.0451 93.2011 74.8605C92.3344 73.1849 90.6587 72.3182 88.1452 72.3182C83.8116 72.3182 81.6448 75.2939 81.6448 81.2743V100.978H71.9376V81.1298C71.9376 78.1541 71.7354 76.1895 71.3309 75.1783C70.522 73.2716 68.7596 72.2893 66.0728 72.2893C64.5705 72.2893 63.2415 72.7804 62.1148 73.7916C60.3814 75.2072 59.5146 77.4318 59.5146 80.4364V100.978H49.8074L49.6918 101.007Z" fill="#004B8D"/>
<path d="M120.792 76.5073H111.084C111.344 72.3182 113.193 69.198 116.631 67.2045C119.463 65.5289 123.161 64.6622 127.725 64.6622C138.097 64.6622 143.268 68.0135 143.268 74.7161V93.1194C143.268 97.0485 143.673 99.6776 144.511 101.007H134.659C134.255 99.7354 134.023 98.5797 133.966 97.5975C131.192 100.515 127.205 101.989 122.063 101.989C118.509 101.989 115.649 101.122 113.511 99.3887C111.171 97.5108 110.015 94.8528 110.015 91.386C110.015 87.9191 111.258 85.0878 113.771 83.2966C115.591 82.0543 118.365 81.1876 122.063 80.6387C127.321 79.9164 129.979 79.5119 130.065 79.483C132.406 78.8763 133.561 77.7207 133.561 75.9873C133.561 74.0805 132.926 72.7515 131.654 72.0293C130.73 71.4804 129.285 71.2203 127.263 71.2203C123.305 71.2203 121.138 73.0116 120.82 76.5651M133.561 87.3702V83.73C132.781 84.4233 131.106 84.9434 128.505 85.2901C125.53 85.7523 123.565 86.1857 122.612 86.5901C120.705 87.4569 119.723 88.9303 119.723 90.9815C119.723 93.9861 121.716 95.4884 125.674 95.4884C130.932 95.4884 133.532 92.7727 133.532 87.3413" fill="#004B8D"/>
<path d="M150.722 101.007V65.6156H159.967V72.1737H160.112C160.978 69.978 162.481 68.1868 164.619 66.7712C166.757 65.3555 169.01 64.6622 171.408 64.6622C172.13 64.6622 172.852 64.7777 173.517 65.0089V74.0516C172.506 73.8205 171.35 73.7049 170.021 73.7049C163.636 73.7049 160.43 77.4896 160.43 85.0589V101.007H150.722Z" fill="#004B8D"/>
<path d="M189.753 55.0127V65.6156H196.861V72.116H189.753V89.6526C189.753 91.2993 190.013 92.3972 190.562 92.9461C191.111 93.495 192.209 93.755 193.856 93.755C194.954 93.755 195.965 93.6684 196.861 93.495V101.093C195.503 101.324 193.596 101.44 191.169 101.44C183.744 101.44 180.017 98.6375 180.017 93.0328V72.1449H174.124V65.6445H180.017V55.0416H189.725L189.753 55.0127Z" fill="#004B8D"/>
<path d="M331.115 80.9276C331.115 117.243 301.676 146.711 265.331 146.711C228.987 146.711 199.547 117.272 199.547 80.9276C199.547 44.5832 228.987 15.1437 265.331 15.1437C301.676 15.1437 331.115 44.5832 331.115 80.9276Z" fill="#ED1C24"/>
<path d="M210.555 101.007V52.1237H221.302V70.8737H241.092V52.1237H251.839V101.007H241.092V79.9164H221.302V101.007H210.555Z" fill="white"/>
<path d="M293.442 65.6155V101.007H284.197V96.0662H283.995C281.568 99.9953 277.956 101.96 273.189 101.96C268.423 101.96 264.869 100.602 262.847 97.9152C261.113 95.6906 260.247 92.166 260.247 87.3702V65.6155H269.954V85.6078C269.954 91.4148 272.034 94.3039 276.194 94.3039C278.852 94.3039 280.759 93.495 281.943 91.906C283.128 90.317 283.735 87.7168 283.735 84.1633V65.6155H293.442Z" fill="white"/>
<path d="M300.838 101.007V52.1237H310.545V69.9203H310.69C313.03 66.3956 316.728 64.6622 321.841 64.6622C325.77 64.6622 329.093 66.1356 331.837 69.1113C334.929 72.5204 336.489 77.2585 336.489 83.2677C336.489 89.277 334.929 94.0728 331.837 97.5108C329.093 100.487 325.77 101.96 321.841 101.96C316.092 101.96 312.221 100.14 310.198 96.4707H310.054V100.978H300.809L300.838 101.007ZM326.782 83.3544C326.782 80.1187 326.117 77.4607 324.788 75.4095C323.315 73.1271 321.235 72.0004 318.49 72.0004C315.745 72.0004 313.665 73.1271 312.192 75.4095C310.863 77.4607 310.198 80.1187 310.198 83.3544C310.198 86.5901 310.863 89.1614 312.192 91.2126C313.694 93.495 315.803 94.6506 318.49 94.6506C321.177 94.6506 323.286 93.5239 324.788 91.2126C326.117 89.1614 326.782 86.5324 326.782 83.3544Z" fill="white"/>
<path d="M333.398 83.4699C333.398 90.2592 327.879 95.7773 321.09 95.7773C314.301 95.7773 308.783 90.2592 308.783 83.4699C308.783 76.6806 314.301 71.1625 321.09 71.1625C327.879 71.1625 333.398 76.6806 333.398 83.4699Z" fill="#004B8D"/>
<path d="M321.639 80.1186L357.695 44.0632" stroke="#0C4E81" stroke-width="0.49" stroke-miterlimit="10"/>
<path d="M367.171 44.0632C367.171 49.2924 362.924 53.5393 357.695 53.5393C352.465 53.5393 348.218 49.2924 348.218 44.0632C348.218 38.834 352.465 34.587 357.695 34.587C362.924 34.587 367.171 38.834 367.171 44.0632Z" fill="#004B8D"/>
<path d="M322.621 80.8987L353.794 91.0682" stroke="#0C4E81" stroke-width="0.49" stroke-miterlimit="10"/>
<path d="M356.972 96.2685C354.112 98.0019 350.356 97.1063 348.623 94.2173C346.889 91.3571 347.785 87.6013 350.674 85.8679C353.534 84.1345 357.29 85.0301 359.023 87.9191C360.757 90.7793 359.861 94.5351 356.972 96.2685Z" fill="#004B8D"/>
<path d="M328.197 90.3459L332.935 110.454" stroke="#0C4E81" stroke-width="0.49" stroke-miterlimit="10"/>
<path d="M331.173 113.863C329.295 112.881 328.544 110.569 329.526 108.691C330.508 106.814 332.82 106.062 334.698 107.045C336.575 108.027 337.327 110.338 336.344 112.216C335.362 114.094 333.051 114.845 331.173 113.863Z" fill="#004B8D"/>
<path d="M66.3039 114.354L55.4988 132.093L44.7226 114.354H40.1868H37.6444H33.5709L21.4079 141.973L9.30277 114.354H2.28235L18.3166 150.785H24.2103L39.1179 116.81L52.0897 138.102V150.785H58.5323V138.16L72.9777 114.354H66.3039Z" fill="#ED1C24"/>
<path d="M84.6495 114.354L68.1529 150.785H74.9422L78.7847 142.06H96.4079L100.25 150.785H107.126L90.572 114.354H84.6783H84.6495ZM81.1826 136.571L87.5674 122.01L93.9522 136.571H81.1537H81.1826Z" fill="#ED1C24"/>
<path d="M138.242 120.334C136.999 118.399 135.208 116.896 132.926 115.856C130.672 114.845 127.928 114.354 124.779 114.354H110.391V150.785H116.862V140.211H124.75C127.899 140.211 130.643 139.691 132.897 138.68C135.179 137.64 136.97 136.138 138.213 134.202C139.455 132.266 140.091 129.955 140.091 127.297C140.091 124.639 139.455 122.299 138.213 120.363L138.242 120.334ZM133.619 127.268C133.619 129.55 132.897 131.255 131.423 132.497C129.921 133.74 127.639 134.375 124.634 134.375H116.891V120.19H124.634C127.639 120.19 129.921 120.825 131.423 122.068C132.897 123.281 133.619 125.015 133.619 127.297V127.268Z" fill="#ED1C24"/>
<path d="M154.998 114.354L138.502 150.785H145.291L149.133 142.06H166.757L170.599 150.785H177.475L160.921 114.354H155.027H154.998ZM151.531 136.571L157.916 122.01L164.301 136.571H151.502H151.531Z" fill="#ED1C24"/>
<path d="M201.165 138.68C201.165 138.68 201.223 138.651 201.281 138.622C203.563 137.611 205.354 136.109 206.597 134.173C207.839 132.237 208.475 129.926 208.475 127.268C208.475 124.61 207.839 122.27 206.597 120.334C205.354 118.399 203.563 116.896 201.281 115.856C199.027 114.845 196.283 114.354 193.134 114.354H178.746V150.785H185.218V140.153H193.105C193.74 140.153 194.347 140.153 194.954 140.096L202.436 150.785H209.717L201.136 138.68H201.165ZM201.974 127.268C201.974 129.55 201.252 131.284 199.779 132.526C198.276 133.797 195.994 134.433 192.989 134.433H185.247V120.19H192.989C195.994 120.19 198.276 120.825 199.779 122.068C201.252 123.281 201.974 125.015 201.974 127.297V127.268Z" fill="#ED1C24"/>
</g>
<defs>
<clipPath id="clip0_291_3328">
<rect width="367.171" height="150" fill="white" transform="translate(0 0.785034)"/>
</clipPath>
</defs>
</svg>
