<svg width="251" height="100" viewBox="0 0 251 100" fill="none" xmlns="http://www.w3.org/2000/svg">
<g clip-path="url(#clip0_3_34778)">
<path d="M167.754 97.3747H144.864L111.019 38.0413V97.3747H88.0039V2.02051H111.03L144.812 61.3538V2.02051H167.765V97.3747H167.754Z" fill="#E12027"/>
<path d="M243.727 56.8955H207.524V79.6872H250.289V97.3643H184.498V2.02051H250.414V19.7705H207.513V39.8747H243.716V56.8955H243.727Z" fill="#104B85"/>
<path d="M64.9039 26.2601L56.6618 28.6663C51.0488 30.3018 45.4358 26.1038 45.4358 20.2601C45.4358 16.5309 47.8041 13.208 51.3409 11.9893L71.6437 4.97884C45.6027 -10.8128 0.584005 8.84342 0.156249 47.1143C-0.31324 88.6872 41.659 109.281 68.7015 95.9163V29.1038C68.7015 27.1247 66.8027 25.708 64.9039 26.2601Z" fill="#104B85"/>
</g>
<defs>
<clipPath id="clip0_3_34778">
<rect width="250.394" height="100" fill="white"/>
</clipPath>
</defs>
</svg>
