<svg width="185" height="72" viewBox="0 0 185 72" fill="none" xmlns="http://www.w3.org/2000/svg">
<g clip-path="url(#clip0_182_245)">
<path d="M36.1227 21.9284C35.4405 16.9448 34.3585 12.4941 34.3585 12.4941C34.5508 13.0118 34.8959 13.4587 35.3481 13.7757C35.8003 14.0927 36.3381 14.2647 36.8903 14.2691C37.4419 14.2652 37.9792 14.0932 38.4306 13.7761C38.882 13.4589 39.226 13.0118 39.4167 12.4941C38.5919 15.5978 37.9547 18.7482 37.5086 21.9284C36.9756 25.6222 37.0342 29.6091 36.9169 32.3115V31.5333C36.7677 28.8363 36.6344 25.6222 36.1227 21.9284ZM25.5105 40.8663C28.8098 41.0902 32.3384 41.2554 36.0108 41.346C53.5682 41.7938 68.1674 39.4485 68.9776 35.6908L68.9349 35.4456C67.16 39.1127 48.931 40.5199 31.5495 39.2833C19.5727 38.4305 12.8248 36.9274 12.8248 35.0618C12.8248 33.4628 17.1795 31.5067 26.246 30.6592C27.7918 30.4993 29.4441 30.3713 31.1871 30.2701C29.4548 30.3767 27.7918 30.4993 26.246 30.6592L31.8053 30.2274C15.5805 30.5739 3.02273 32.8925 3.02273 35.6908C3.02273 37.8761 10.6608 39.6031 21.7208 40.5732C17.3714 41.1861 15.3246 42.1296 15.3246 43.1849C15.3246 45.0292 24.2046 46.7081 35.2593 46.8361C47.2467 46.9746 55.3431 44.9012 55.3431 43.057C54.0959 44.4855 45.4078 45.6421 34.8275 45.253C27.5359 44.9812 23.0107 43.9525 23.0107 42.8225C22.9947 42.1669 23.6449 41.4367 25.5105 40.8663ZM40.3389 55.3749C40.3389 56.1919 40.0966 56.9906 39.6427 57.6699C39.1888 58.3492 38.5436 58.8786 37.7888 59.1913C37.034 59.504 36.2034 59.5858 35.4021 59.4264C34.6008 59.267 33.8648 58.8736 33.2871 58.2958C32.7094 57.7181 32.3159 56.9821 32.1566 56.1808C31.9972 55.3795 32.079 54.5489 32.3916 53.7941C32.7043 53.0393 33.2337 52.3941 33.9131 51.9402C34.5924 51.4863 35.391 51.2441 36.208 51.2441C37.3036 51.2441 38.3543 51.6793 39.129 52.454C39.9037 53.2286 40.3389 54.2793 40.3389 55.3749ZM39.1556 54.7779C39.1566 54.3086 39.0184 53.8495 38.7584 53.4587C38.4984 53.068 38.1284 52.7631 37.6951 52.5828C37.2617 52.4024 36.7847 52.3547 36.3242 52.4456C35.8638 52.5365 35.4406 52.762 35.1084 53.0935C34.7761 53.425 34.5497 53.8477 34.4577 54.3079C34.3658 54.7682 34.4125 55.2453 34.5918 55.6791C34.7712 56.1128 35.0752 56.4835 35.4654 56.7444C35.8555 57.0053 36.3143 57.1445 36.7837 57.1445C37.4118 57.1445 38.0143 56.8953 38.459 56.4517C38.9036 56.008 39.1542 55.4061 39.1556 54.7779Z" fill="white"/>
</g>
<path d="M83.8516 28.2617H85.5742V45.5H83.8516V28.2617ZM101.992 27.8281V45.5H100.375V43.3086C99.6875 44.1445 98.9141 44.7734 98.0547 45.1953C97.2031 45.6172 96.2695 45.8281 95.2539 45.8281C93.4492 45.8281 91.9062 45.1758 90.625 43.8711C89.3516 42.5586 88.7148 40.9648 88.7148 39.0898C88.7148 37.2539 89.3594 35.6836 90.6484 34.3789C91.9375 33.0742 93.4883 32.4219 95.3008 32.4219C96.3477 32.4219 97.293 32.6445 98.1367 33.0898C98.9883 33.5352 99.7344 34.2031 100.375 35.0938V27.8281H101.992ZM95.4297 34.0039C94.5156 34.0039 93.6719 34.2305 92.8984 34.6836C92.125 35.1289 91.5078 35.7578 91.0469 36.5703C90.5938 37.3828 90.3672 38.2422 90.3672 39.1484C90.3672 40.0469 90.5977 40.9062 91.0586 41.7266C91.5195 42.5469 92.1367 43.1875 92.9102 43.6484C93.6914 44.1016 94.5273 44.3281 95.418 44.3281C96.3164 44.3281 97.168 44.1016 97.9727 43.6484C98.7773 43.1953 99.3945 42.582 99.8242 41.8086C100.262 41.0352 100.48 40.1641 100.48 39.1953C100.48 37.7188 99.9922 36.4844 99.0156 35.4922C98.0469 34.5 96.8516 34.0039 95.4297 34.0039ZM116.453 41.2695L117.836 41.9961C117.383 42.8867 116.859 43.6055 116.266 44.1523C115.672 44.6992 115.004 45.1172 114.262 45.4062C113.52 45.6875 112.68 45.8281 111.742 45.8281C109.664 45.8281 108.039 45.1484 106.867 43.7891C105.695 42.4219 105.109 40.8789 105.109 39.1602C105.109 37.543 105.605 36.1016 106.598 34.8359C107.855 33.2266 109.539 32.4219 111.648 32.4219C113.82 32.4219 115.555 33.2461 116.852 34.8945C117.773 36.0586 118.242 37.5117 118.258 39.2539H106.797C106.828 40.7383 107.301 41.957 108.215 42.9102C109.129 43.8555 110.258 44.3281 111.602 44.3281C112.25 44.3281 112.879 44.2148 113.488 43.9883C114.105 43.7617 114.629 43.4609 115.059 43.0859C115.488 42.7109 115.953 42.1055 116.453 41.2695ZM116.453 37.8359C116.234 36.9609 115.914 36.2617 115.492 35.7383C115.078 35.2148 114.527 34.793 113.84 34.4727C113.152 34.1523 112.43 33.9922 111.672 33.9922C110.422 33.9922 109.348 34.3945 108.449 35.1992C107.793 35.7852 107.297 36.6641 106.961 37.8359H116.453ZM134.031 32.75V45.5H132.414V43.3086C131.727 44.1445 130.953 44.7734 130.094 45.1953C129.242 45.6172 128.309 45.8281 127.293 45.8281C125.488 45.8281 123.945 45.1758 122.664 43.8711C121.391 42.5586 120.754 40.9648 120.754 39.0898C120.754 37.2539 121.398 35.6836 122.688 34.3789C123.977 33.0742 125.527 32.4219 127.34 32.4219C128.387 32.4219 129.332 32.6445 130.176 33.0898C131.027 33.5352 131.773 34.2031 132.414 35.0938V32.75H134.031ZM127.469 34.0039C126.555 34.0039 125.711 34.2305 124.938 34.6836C124.164 35.1289 123.547 35.7578 123.086 36.5703C122.633 37.3828 122.406 38.2422 122.406 39.1484C122.406 40.0469 122.637 40.9062 123.098 41.7266C123.559 42.5469 124.176 43.1875 124.949 43.6484C125.73 44.1016 126.566 44.3281 127.457 44.3281C128.355 44.3281 129.207 44.1016 130.012 43.6484C130.816 43.1953 131.434 42.582 131.863 41.8086C132.301 41.0352 132.52 40.1641 132.52 39.1953C132.52 37.7188 132.031 36.4844 131.055 35.4922C130.086 34.5 128.891 34.0039 127.469 34.0039ZM137.488 27.8281H139.129V45.5H137.488V27.8281ZM155.242 32.75V45.5H153.625V43.3086C152.938 44.1445 152.164 44.7734 151.305 45.1953C150.453 45.6172 149.52 45.8281 148.504 45.8281C146.699 45.8281 145.156 45.1758 143.875 43.8711C142.602 42.5586 141.965 40.9648 141.965 39.0898C141.965 37.2539 142.609 35.6836 143.898 34.3789C145.188 33.0742 146.738 32.4219 148.551 32.4219C149.598 32.4219 150.543 32.6445 151.387 33.0898C152.238 33.5352 152.984 34.2031 153.625 35.0938V32.75H155.242ZM148.68 34.0039C147.766 34.0039 146.922 34.2305 146.148 34.6836C145.375 35.1289 144.758 35.7578 144.297 36.5703C143.844 37.3828 143.617 38.2422 143.617 39.1484C143.617 40.0469 143.848 40.9062 144.309 41.7266C144.77 42.5469 145.387 43.1875 146.16 43.6484C146.941 44.1016 147.777 44.3281 148.668 44.3281C149.566 44.3281 150.418 44.1016 151.223 43.6484C152.027 43.1953 152.645 42.582 153.074 41.8086C153.512 41.0352 153.73 40.1641 153.73 39.1953C153.73 37.7188 153.242 36.4844 152.266 35.4922C151.297 34.5 150.102 34.0039 148.68 34.0039ZM158.934 27.8281H160.586V37.8828L166.48 32.75H168.895L161.898 38.832L169.305 45.5H166.984L160.586 39.7695V45.5H158.934V27.8281ZM181.727 41.2695L183.109 41.9961C182.656 42.8867 182.133 43.6055 181.539 44.1523C180.945 44.6992 180.277 45.1172 179.535 45.4062C178.793 45.6875 177.953 45.8281 177.016 45.8281C174.938 45.8281 173.312 45.1484 172.141 43.7891C170.969 42.4219 170.383 40.8789 170.383 39.1602C170.383 37.543 170.879 36.1016 171.871 34.8359C173.129 33.2266 174.812 32.4219 176.922 32.4219C179.094 32.4219 180.828 33.2461 182.125 34.8945C183.047 36.0586 183.516 37.5117 183.531 39.2539H172.07C172.102 40.7383 172.574 41.957 173.488 42.9102C174.402 43.8555 175.531 44.3281 176.875 44.3281C177.523 44.3281 178.152 44.2148 178.762 43.9883C179.379 43.7617 179.902 43.4609 180.332 43.0859C180.762 42.7109 181.227 42.1055 181.727 41.2695ZM181.727 37.8359C181.508 36.9609 181.188 36.2617 180.766 35.7383C180.352 35.2148 179.801 34.793 179.113 34.4727C178.426 34.1523 177.703 33.9922 176.945 33.9922C175.695 33.9922 174.621 34.3945 173.723 35.1992C173.066 35.7852 172.57 36.6641 172.234 37.8359H181.727Z" fill="white"/>
<defs>
<clipPath id="clip0_182_245">
<rect width="72" height="72" fill="white"/>
</clipPath>
</defs>
</svg>
