<svg width="293" height="71" viewBox="0 0 293 71" fill="none" xmlns="http://www.w3.org/2000/svg">
<path d="M14.084 26.504C12.092 26.504 10.244 26.192 8.54 25.568C6.86 24.92 5.396 24.008 4.148 22.832C2.924 21.656 1.964 20.276 1.268 18.692C0.572 17.084 0.224 15.32 0.224 13.4C0.224 11.48 0.572 9.728 1.268 8.144C1.964 6.536 2.924 5.144 4.148 3.968C5.396 2.792 6.86 1.892 8.54 1.268C10.244 0.619998 12.092 0.295998 14.084 0.295998C16.412 0.295998 18.488 0.703999 20.312 1.52C22.16 2.336 23.696 3.512 24.92 5.048L20.384 9.152C19.568 8.192 18.668 7.46 17.684 6.956C16.724 6.452 15.644 6.2 14.444 6.2C13.412 6.2 12.464 6.368 11.6 6.704C10.736 7.04 9.992 7.532 9.368 8.18C8.768 8.804 8.288 9.56 7.928 10.448C7.592 11.336 7.424 12.32 7.424 13.4C7.424 14.48 7.592 15.464 7.928 16.352C8.288 17.24 8.768 18.008 9.368 18.656C9.992 19.28 10.736 19.76 11.6 20.096C12.464 20.432 13.412 20.6 14.444 20.6C15.644 20.6 16.724 20.348 17.684 19.844C18.668 19.34 19.568 18.608 20.384 17.648L24.92 21.752C23.696 23.264 22.16 24.44 20.312 25.28C18.488 26.096 16.412 26.504 14.084 26.504ZM44.9461 0.799998H52.0741V26H44.9461V0.799998ZM35.2261 26H28.0981V0.799998H35.2261V26ZM45.4501 16.172H34.7221V10.268H45.4501V16.172ZM54.078 26L65.202 0.799998H72.222L83.382 26H75.966L67.254 4.292H70.062L61.35 26H54.078ZM60.162 21.104L61.998 15.848H74.31L76.146 21.104H60.162ZM89.5012 26V6.452H81.7612V0.799998H104.333V6.452H96.6292V26H89.5012ZM106.989 26V0.799998H119.877C123.189 0.799998 125.661 1.412 127.293 2.636C128.925 3.836 129.741 5.42 129.741 7.388C129.741 8.684 129.393 9.824 128.697 10.808C128.025 11.768 127.065 12.536 125.817 13.112C124.593 13.664 123.129 13.94 121.425 13.94L122.145 12.212C123.921 12.212 125.469 12.488 126.789 13.04C128.109 13.568 129.129 14.348 129.849 15.38C130.593 16.388 130.965 17.624 130.965 19.088C130.965 21.272 130.077 22.976 128.301 24.2C126.549 25.4 123.981 26 120.597 26H106.989ZM114.045 20.852H120.021C121.245 20.852 122.169 20.648 122.793 20.24C123.441 19.808 123.765 19.16 123.765 18.296C123.765 17.432 123.441 16.796 122.793 16.388C122.169 15.956 121.245 15.74 120.021 15.74H113.541V10.808H118.941C120.141 10.808 121.041 10.604 121.641 10.196C122.241 9.788 122.541 9.176 122.541 8.36C122.541 7.544 122.241 6.944 121.641 6.56C121.041 6.152 120.141 5.948 118.941 5.948H114.045V20.852ZM131.633 26L142.757 0.799998H149.777L160.937 26H153.521L144.809 4.292H147.617L138.905 26H131.633ZM137.717 21.104L139.553 15.848H151.865L153.701 21.104H137.717ZM162.958 26V0.799998H168.826L182.722 17.576H179.95V0.799998H186.934V26H181.066L167.17 9.224H169.941V26H162.958ZM198.333 20.42L197.937 12.428L208.773 0.799998H216.621L205.821 12.5L201.861 16.64L198.333 20.42ZM191.961 26V0.799998H199.017V26H191.961ZM208.881 26L200.673 15.596L205.317 10.628L217.161 26H208.881ZM219.032 26V0.799998H226.16V26H219.032ZM231.231 26V0.799998H237.099L250.995 17.576H248.223V0.799998H255.207V26H249.339L235.443 9.224H238.215V26H231.231ZM272.835 26.504C270.843 26.504 268.995 26.192 267.291 25.568C265.587 24.92 264.111 24.008 262.863 22.832C261.639 21.656 260.679 20.276 259.983 18.692C259.287 17.084 258.939 15.32 258.939 13.4C258.939 11.48 259.287 9.728 259.983 8.144C260.679 6.536 261.651 5.144 262.899 3.968C264.147 2.792 265.623 1.892 267.327 1.268C269.055 0.619998 270.939 0.295998 272.979 0.295998C275.355 0.295998 277.479 0.691998 279.351 1.484C281.223 2.276 282.771 3.416 283.995 4.904L279.459 9.008C278.595 8.072 277.659 7.376 276.651 6.92C275.667 6.44 274.563 6.2 273.339 6.2C272.259 6.2 271.275 6.368 270.387 6.704C269.499 7.04 268.743 7.532 268.119 8.18C267.495 8.804 267.003 9.56 266.643 10.448C266.307 11.312 266.139 12.296 266.139 13.4C266.139 14.456 266.307 15.428 266.643 16.316C267.003 17.204 267.495 17.972 268.119 18.62C268.743 19.244 269.487 19.736 270.351 20.096C271.239 20.432 272.211 20.6 273.267 20.6C274.323 20.6 275.355 20.432 276.363 20.096C277.371 19.736 278.391 19.136 279.423 18.296L283.419 23.3C281.979 24.332 280.311 25.124 278.415 25.676C276.519 26.228 274.659 26.504 272.835 26.504ZM277.119 22.364V12.86H283.419V23.3L277.119 22.364Z" fill="#ED2024"/>
<path d="M14.228 70.504C12.212 70.504 10.352 70.18 8.648 69.532C6.944 68.884 5.456 67.972 4.184 66.796C2.936 65.596 1.964 64.204 1.268 62.62C0.572 61.036 0.224 59.296 0.224 57.4C0.224 55.504 0.572 53.764 1.268 52.18C1.964 50.596 2.936 49.216 4.184 48.04C5.456 46.84 6.944 45.916 8.648 45.268C10.352 44.62 12.212 44.296 14.228 44.296C16.268 44.296 18.128 44.62 19.808 45.268C21.512 45.916 22.988 46.84 24.236 48.04C25.484 49.216 26.456 50.596 27.152 52.18C27.872 53.764 28.232 55.504 28.232 57.4C28.232 59.296 27.872 61.048 27.152 62.656C26.456 64.24 25.484 65.62 24.236 66.796C22.988 67.972 21.512 68.884 19.808 69.532C18.128 70.18 16.268 70.504 14.228 70.504ZM14.228 64.6C15.188 64.6 16.076 64.432 16.892 64.096C17.732 63.76 18.452 63.28 19.052 62.656C19.676 62.008 20.156 61.24 20.492 60.352C20.852 59.464 21.032 58.48 21.032 57.4C21.032 56.296 20.852 55.312 20.492 54.448C20.156 53.56 19.676 52.804 19.052 52.18C18.452 51.532 17.732 51.04 16.892 50.704C16.076 50.368 15.188 50.2 14.228 50.2C13.268 50.2 12.368 50.368 11.528 50.704C10.712 51.04 9.992 51.532 9.368 52.18C8.768 52.804 8.288 53.56 7.928 54.448C7.592 55.312 7.424 56.296 7.424 57.4C7.424 58.48 7.592 59.464 7.928 60.352C8.288 61.24 8.768 62.008 9.368 62.656C9.992 63.28 10.712 63.76 11.528 64.096C12.368 64.432 13.268 64.6 14.228 64.6ZM31.9653 70V44.8H37.8333L51.7293 61.576H48.9573V44.8H55.9413V70H50.0733L36.1773 53.224H38.9493V70H31.9653ZM77.6738 70L69.5018 44.8H76.8458L83.7218 66.616H80.0138L87.2498 44.8H93.8018L100.642 66.616H97.0778L104.17 44.8H110.974L102.802 70H95.1698L89.3378 51.46H91.3898L85.3058 70H77.6738ZM130.376 44.8H137.504V70H130.376V44.8ZM120.656 70H113.528V44.8H120.656V70ZM130.88 60.172H120.152V54.268H130.88V60.172ZM139.508 70L150.632 44.8H157.652L168.812 70H161.396L152.684 48.292H155.492L146.78 70H139.508ZM145.592 65.104L147.428 59.848H159.74L161.576 65.104H145.592ZM174.931 70V50.452H167.191V44.8H189.763V50.452H182.059V70H174.931ZM201.204 70.504C199.14 70.504 197.148 70.252 195.228 69.748C193.332 69.22 191.784 68.548 190.584 67.732L192.924 62.476C194.052 63.196 195.348 63.796 196.812 64.276C198.3 64.732 199.776 64.96 201.24 64.96C202.224 64.96 203.016 64.876 203.616 64.708C204.216 64.516 204.648 64.276 204.912 63.988C205.2 63.676 205.344 63.316 205.344 62.908C205.344 62.332 205.08 61.876 204.552 61.54C204.024 61.204 203.34 60.928 202.5 60.712C201.66 60.496 200.724 60.28 199.692 60.064C198.684 59.848 197.664 59.572 196.632 59.236C195.624 58.9 194.7 58.468 193.86 57.94C193.02 57.388 192.336 56.68 191.808 55.816C191.28 54.928 191.016 53.812 191.016 52.468C191.016 50.956 191.424 49.588 192.24 48.364C193.08 47.14 194.328 46.156 195.984 45.412C197.64 44.668 199.704 44.296 202.176 44.296C203.832 44.296 205.452 44.488 207.036 44.872C208.644 45.232 210.072 45.772 211.32 46.492L209.124 51.784C207.924 51.136 206.736 50.656 205.56 50.344C204.384 50.008 203.244 49.84 202.14 49.84C201.156 49.84 200.364 49.948 199.764 50.164C199.164 50.356 198.732 50.62 198.468 50.956C198.204 51.292 198.072 51.676 198.072 52.108C198.072 52.66 198.324 53.104 198.828 53.44C199.356 53.752 200.04 54.016 200.88 54.232C201.744 54.424 202.68 54.628 203.688 54.844C204.72 55.06 205.74 55.336 206.748 55.672C207.78 55.984 208.716 56.416 209.556 56.968C210.396 57.496 211.068 58.204 211.572 59.092C212.1 59.956 212.364 61.048 212.364 62.368C212.364 63.832 211.944 65.188 211.104 66.436C210.288 67.66 209.052 68.644 207.396 69.388C205.764 70.132 203.7 70.504 201.204 70.504ZM212.633 70L223.757 44.8H230.777L241.937 70H234.521L225.809 48.292H228.617L219.905 70H212.633ZM218.717 65.104L220.553 59.848H232.865L234.701 65.104H218.717ZM243.958 70V44.8H255.478C257.782 44.8 259.762 45.172 261.418 45.916C263.098 46.66 264.394 47.74 265.306 49.156C266.218 50.548 266.674 52.204 266.674 54.124C266.674 56.02 266.218 57.664 265.306 59.056C264.394 60.448 263.098 61.528 261.418 62.296C259.762 63.04 257.782 63.412 255.478 63.412H247.918L251.086 60.316V70H243.958ZM251.086 61.072L247.918 57.796H255.046C256.534 57.796 257.638 57.472 258.358 56.824C259.102 56.176 259.474 55.276 259.474 54.124C259.474 52.948 259.102 52.036 258.358 51.388C257.638 50.74 256.534 50.416 255.046 50.416H247.918L251.086 47.14V61.072ZM270.149 70V44.8H281.669C283.973 44.8 285.953 45.172 287.609 45.916C289.289 46.66 290.585 47.74 291.497 49.156C292.409 50.548 292.865 52.204 292.865 54.124C292.865 56.02 292.409 57.664 291.497 59.056C290.585 60.448 289.289 61.528 287.609 62.296C285.953 63.04 283.973 63.412 281.669 63.412H274.109L277.277 60.316V70H270.149ZM277.277 61.072L274.109 57.796H281.237C282.725 57.796 283.829 57.472 284.549 56.824C285.293 56.176 285.665 55.276 285.665 54.124C285.665 52.948 285.293 52.036 284.549 51.388C283.829 50.74 282.725 50.416 281.237 50.416H274.109L277.277 47.14V61.072Z" fill="#0F4D8B"/>
</svg>
