<svg width="258" height="100" viewBox="0 0 258 100" fill="none" xmlns="http://www.w3.org/2000/svg">
<path d="M100.776 73.8909C111.63 53.746 122.315 33.9285 133.118 13.8909C120.52 13.8909 108.159 13.8909 95.7973 13.8909C95.7747 13.778 95.7578 13.6651 95.7352 13.5466C116.58 9.04233 137.43 4.5381 158.433 0C158.416 0.874882 157.92 1.41674 157.598 1.99812C147.658 19.8457 137.701 37.6877 127.756 55.5353C126.661 57.4995 126.667 57.4995 128.986 57.4995C159.652 57.4995 190.324 57.4995 220.99 57.4995C221.978 57.4995 222.971 57.4995 223.959 57.4995C223.965 57.6011 223.97 57.6971 223.976 57.7987C183.06 63.1439 142.149 68.4892 100.776 73.8909Z" fill="#EE2525"/>
<path d="M138.034 54.0564C141.556 46.5494 144.954 39.2963 148.358 32.0433C150.339 27.8156 152.365 23.6105 154.29 19.3546C154.736 18.3725 155.244 17.9718 156.356 18.0113C158.935 18.1016 161.526 18.1072 164.111 18.0113C165.342 17.9661 165.646 18.3556 165.68 19.5578C165.9 27.206 166.211 34.8485 166.499 42.4967C166.623 45.793 166.713 49.0894 166.9 52.38C166.967 53.5823 166.775 54.1806 165.347 54.0903C163.298 53.9605 161.238 54.0226 159.184 54.0734C158.331 54.0959 158.004 53.8363 158.049 52.9558C158.117 51.5052 158.043 50.0489 158.122 48.5983C158.173 47.6275 157.964 47.1703 156.847 47.2211C154.86 47.3114 152.868 47.2944 150.881 47.2267C149.893 47.1928 149.537 47.6105 149.216 48.4798C148.533 50.3142 148.143 52.7074 146.777 53.7234C145.293 54.8241 142.821 53.9718 140.777 54.0508C139.981 54.079 139.186 54.0564 138.034 54.0564ZM158.399 25.4506C156.288 30.7507 154.369 35.5541 152.382 40.5381C154.217 40.5381 155.741 40.5324 157.259 40.5437C157.914 40.5494 158.416 40.4929 158.41 39.618C158.388 35.0912 158.399 30.5644 158.399 25.4506Z" fill="#EE2626"/>
<path d="M64.6914 54.045C67.5023 48.045 70.1778 42.3272 72.8532 36.6038C75.5061 30.9368 78.1872 25.2755 80.8005 19.5916C81.3029 18.4966 81.9068 17.9999 83.1825 18.0563C85.6999 18.1692 88.2286 18.1466 90.746 18.062C91.9764 18.0224 92.3207 18.4514 92.3546 19.6367C92.6368 28.9444 92.9811 38.252 93.3142 47.5596C93.3763 49.3432 93.4327 51.1212 93.5399 52.9049C93.5907 53.7402 93.348 54.0845 92.4449 54.062C90.2549 54.0055 88.0649 53.9942 85.8748 54.062C84.8419 54.0958 84.6782 53.6499 84.7008 52.7694C84.746 50.997 85.3894 48.5982 84.4976 47.616C83.4478 46.4589 80.9868 47.4806 79.1749 47.2153C76.9623 46.8879 75.9238 47.7233 75.1956 49.8286C73.7112 54.0902 73.5813 54.045 69.0489 54.045C67.7225 54.045 66.4017 54.045 64.6914 54.045ZM85.0113 25.4392C83.0414 30.3498 81.2013 34.95 79.3499 39.5558C79.2314 39.855 79.079 40.1654 79.3499 40.4533C79.587 40.7017 84.6444 40.6113 84.8137 40.3348C84.9435 40.1259 85 39.8437 85 39.5897C85.0112 35.0008 85.0113 30.4119 85.0113 25.4392Z" fill="#253D7B"/>
<path d="M173.662 54.0565C172.505 53.9267 170.586 54.6717 169.908 53.7686C169.344 53.0179 170.151 51.1948 170.433 49.8627C172.573 39.7592 174.723 29.6558 176.902 19.5579C177.049 18.8862 176.992 17.9888 178.24 18.017C182.676 18.1243 187.13 17.8985 191.549 18.2146C197.577 18.6435 200.055 22.1826 199 28.239C197.634 36.0622 192.859 40.0753 184.889 40.1035C181.084 40.1148 181.107 40.1205 180.368 43.795C179.797 46.6341 179.03 49.4394 178.612 52.2955C178.375 53.8985 177.636 54.2089 176.264 54.0734C175.479 53.9944 174.678 54.0565 173.662 54.0565ZM182.569 33.556C187.474 34.2447 190.053 32.1167 190.003 27.5448C189.974 25.129 187.022 23.4131 184.81 24.5137C184.454 24.6887 184.409 24.9653 184.341 25.2926C183.76 28.0471 183.167 30.7959 182.569 33.556Z" fill="#EE2626"/>
<path d="M200.665 54.0565C199.519 53.8759 197.668 54.7 196.923 53.7122C196.387 53.0066 197.233 51.24 197.504 49.9587C199.643 39.8383 201.805 29.7235 203.939 19.6031C204.165 18.5194 204.548 17.9549 205.869 18.0001C210.108 18.1412 214.364 17.9944 218.603 18.175C225.41 18.4629 226.917 22.9728 226.037 28.2277C224.699 36.2428 219.924 40.0923 211.739 40.1035C208.144 40.1092 208.172 40.1148 207.467 43.6369C206.885 46.5438 206.134 49.4168 205.649 52.335C205.412 53.7574 204.87 54.2597 203.465 54.0734C202.618 53.9662 201.743 54.0565 200.665 54.0565ZM209.628 33.5786C214.669 34.2051 217.096 32.1957 217.068 27.556C217.051 25.1346 214.065 23.4018 211.875 24.5194C211.519 24.7 211.491 24.9878 211.423 25.3096C210.825 28.064 210.227 30.8129 209.628 33.5786Z" fill="#EE2626"/>
<path d="M59.5323 18.2146C61.8521 18.2146 64.1776 18.0791 66.4862 18.2428C71.1203 18.5645 73.6659 21.4714 73.553 26.0885C73.3893 32.8448 69.6866 38.0151 63.8954 39.5391C61.632 40.1318 59.3065 40.1995 56.9867 40.0753C55.8634 40.0132 55.3949 40.3124 55.1748 41.509C54.5088 45.1327 53.6226 48.7225 52.9171 52.3406C52.68 53.5598 52.2905 54.175 50.8964 54.0734C49.1184 53.938 47.3122 53.9605 45.5285 54.0678C44.236 54.1412 43.9368 53.7573 44.2077 52.5099C45.7148 45.6238 47.1598 38.7263 48.633 31.8288C49.5135 27.7084 50.4505 23.5937 51.2689 19.462C51.4777 18.4008 51.8898 18.0283 52.9622 18.0622C55.1466 18.1299 57.3366 18.0847 59.5266 18.0847C59.5323 18.1299 59.5323 18.175 59.5323 18.2146ZM58.6405 33.7536C62.6028 33.7141 65.346 30.1694 64.3583 26.557C63.7656 24.3895 61.9199 24.5137 60.1927 24.3613C58.4091 24.2033 58.6235 25.5184 58.4091 26.5626C58.0365 28.3688 57.7882 30.2146 57.2068 31.953C56.6028 33.7762 57.3423 34.0076 58.6405 33.7536Z" fill="#253D7B"/>
<path d="M122.637 18.0904C120.069 22.1713 117.692 25.9474 115.316 29.7235C115.034 30.1694 114.78 30.6379 114.447 31.05C109.514 37.1516 107.312 44.3143 106.285 51.923C106.065 53.5373 105.455 54.2654 103.66 54.0961C101.628 53.9042 99.5626 54.0509 97.2484 54.0509C97.8072 51.3472 98.1402 48.7508 98.8909 46.2729C100.172 42.0453 100.076 37.9249 98.9982 33.669C97.8298 29.0688 97.0283 24.3839 96.001 19.7442C95.7075 18.4122 96.0687 17.9945 97.4403 18.0622C99.4949 18.1638 101.561 18.1807 103.61 18.0566C104.936 17.9775 105.337 18.5025 105.422 19.7047C105.676 23.2551 106.003 26.7941 106.308 30.3896C107.363 30.2598 107.499 29.351 107.843 28.7188C109.497 25.6426 111.151 22.5552 112.68 19.4169C113.205 18.3444 113.854 18.0283 114.989 18.0679C117.422 18.1412 119.854 18.0904 122.637 18.0904Z" fill="#253D7C"/>
<path d="M8.14567 54.2315C5.82582 54.2315 3.50032 54.1976 1.18048 54.2484C0.102394 54.271 -0.162892 54.0057 0.0967501 52.8768C1.1579 48.254 2.10616 43.6087 3.08828 38.969C3.17859 38.5287 3.09393 37.8683 3.66401 37.8458C5.51538 37.7611 7.38932 37.6708 9.22375 37.8458C10.0365 37.9248 9.51726 38.8843 9.42695 39.3641C8.99233 41.6275 8.4674 43.874 7.94811 46.1204C7.67718 47.3058 7.84087 47.9379 9.33099 47.8533C11.5831 47.7291 13.8465 47.9041 16.0986 47.7912C17.4815 47.7235 17.6283 48.2597 17.4025 49.4168C16.4599 54.2371 16.4768 54.2371 11.5323 54.2371C10.4034 54.2315 9.27455 54.2315 8.14567 54.2315Z" fill="#EE2D29"/>
<path d="M17.5829 23.9719C16.0081 24.0509 14.089 23.6106 12.9545 24.3557C11.7692 25.1346 12.1304 27.2569 11.7014 28.764C11.6111 29.08 11.5434 29.4018 11.4813 29.7235C10.5669 34.414 10.0476 34.747 5.14829 34.1374C4.26212 34.0245 4.18874 33.6351 4.32985 32.9803C5.36842 28.16 6.44086 23.351 7.43427 18.5194C7.60361 17.6953 8.04951 17.6332 8.68169 17.6332C13.4512 17.6388 18.2207 17.6558 22.9846 17.6163C24.0006 17.6106 24.0288 18.0452 23.8538 18.8242C23.5378 20.2353 23.2612 21.6577 23.0015 23.08C22.8491 23.9324 22.2903 24.0678 21.5566 24.0509C20.2301 24.0227 18.9093 24.0452 17.5829 24.0452C17.5886 24.0227 17.5829 24.0001 17.5829 23.9719Z" fill="#EE2D29"/>
<path d="M28.3183 54.2312C25.9985 54.2312 23.6843 54.1973 21.3644 54.2481C20.3484 54.2707 20.038 53.8868 20.3033 52.9499C20.3202 52.8878 20.3428 52.8257 20.3541 52.758C21.3306 47.8135 21.3306 47.8135 26.467 47.8135C31.5921 47.8135 31.5921 47.8135 32.5686 42.8464C32.6081 42.6545 32.6081 42.4513 32.6476 42.2594C33.7426 37.3375 33.7426 37.36 38.9355 37.7326C39.8611 37.8003 40.0135 38.0261 39.8216 38.9066C38.7887 43.6592 37.8066 48.4231 36.8244 53.1869C36.6382 54.0844 36.1076 54.2707 35.2609 54.2481C32.9524 54.1973 30.6325 54.2312 28.3183 54.2312Z" fill="#EE2D29"/>
<path d="M36.012 17.633C38.3319 17.633 40.6574 17.6895 42.9772 17.6104C44.1456 17.5709 44.3375 18.0451 44.1231 19.0215C43.1127 23.6556 42.1024 28.284 41.1259 32.9237C40.9565 33.7365 40.6913 34.1993 39.7204 34.1372C38.3996 34.0469 37.0619 34.0469 35.7411 34.1316C34.505 34.2106 34.4824 33.6292 34.6913 32.6923C35.2444 30.2539 35.6621 27.776 36.3056 25.3602C36.6216 24.1579 36.2152 24.0225 35.2049 24.0394C32.8173 24.0789 30.4241 23.9943 28.0422 24.0733C26.7214 24.1184 26.5351 23.7515 26.823 22.4816C27.9123 17.6499 27.8559 17.633 32.823 17.633C33.8841 17.633 34.9509 17.633 36.012 17.633Z" fill="#EE2D29"/>
<path d="M20.6818 41.3339C19.1804 41.1307 16.6799 42.1524 15.7429 40.9106C15.0317 39.9736 16.2453 37.5917 16.6065 35.8589C16.8379 34.7639 17.2443 33.6745 17.2726 32.5738C17.3177 30.5588 18.3789 30.2766 20.1004 30.3782C22.4823 30.5193 24.8756 30.4628 27.2631 30.3894C28.4033 30.3556 28.8323 30.666 28.5614 31.8401C27.9292 34.5324 27.2857 37.2248 26.8003 39.9511C26.5915 41.142 26.0778 41.4299 24.9715 41.3565C23.6507 41.2662 22.3187 41.3339 20.6818 41.3339Z" fill="#253D7B"/>
<path d="M101.722 93.1469V85.7935H102.569V88.5079H102.641C102.703 88.4122 102.79 88.2901 102.9 88.1417C103.012 87.9909 103.173 87.8568 103.381 87.7395C103.591 87.6199 103.876 87.56 104.235 87.56C104.7 87.56 105.109 87.6761 105.463 87.9083C105.818 88.1405 106.094 88.4696 106.293 88.8957C106.491 89.3218 106.591 89.8244 106.591 90.4037C106.591 90.9878 106.491 91.4941 106.293 91.9225C106.094 92.3486 105.819 92.6789 105.467 92.9135C105.115 93.1457 104.709 93.2618 104.25 93.2618C103.895 93.2618 103.612 93.2032 103.399 93.0859C103.186 92.9662 103.022 92.8309 102.907 92.6801C102.792 92.5269 102.703 92.4001 102.641 92.2995H102.541V93.1469H101.722ZM102.555 90.3894C102.555 90.8059 102.616 91.1733 102.738 91.4917C102.86 91.8076 103.038 92.0554 103.273 92.2349C103.508 92.412 103.795 92.5006 104.135 92.5006C104.489 92.5006 104.785 92.4073 105.022 92.2205C105.261 92.0314 105.441 91.7777 105.56 91.4593C105.682 91.1386 105.743 90.7819 105.743 90.3894C105.743 90.0016 105.683 89.6521 105.564 89.3409C105.447 89.0273 105.268 88.7796 105.029 88.5977C104.792 88.4134 104.494 88.3212 104.135 88.3212C103.79 88.3212 103.5 88.4086 103.266 88.5833C103.031 88.7557 102.854 88.9974 102.734 89.3086C102.615 89.6174 102.555 89.9776 102.555 90.3894Z" fill="#0E4D8C"/>
<path d="M108.235 95.2151C108.092 95.2151 107.963 95.2031 107.851 95.1792C107.738 95.1576 107.661 95.1361 107.618 95.1145L107.833 94.3677C108.039 94.4204 108.221 94.4395 108.379 94.4251C108.537 94.4108 108.677 94.3402 108.799 94.2133C108.923 94.0888 109.037 93.8866 109.14 93.6065L109.298 93.1756L107.259 87.6318H108.178L109.7 92.0267H109.758L111.28 87.6318H112.199L109.858 93.9512C109.753 94.236 109.622 94.4718 109.467 94.6585C109.311 94.8476 109.13 94.9877 108.925 95.0786C108.721 95.1696 108.491 95.2151 108.235 95.2151Z" fill="#0E4D8C"/>
<path d="M226.26 80.6123H119.937V99.9997H226.26V80.6123Z" fill="white"/>
<path d="M224.627 82.0095H121.734V98.1701H224.627V82.0095Z" fill="#1A4684"/>
<path d="M224.62 82.0095H138.879V98.1701H224.62V82.0095Z" fill="#1A4684"/>
<path d="M144.335 93.9135V86.2661H147.004V88.8502H149.503V86.2661H152.179V93.9135H149.503V90.949H147.004V93.9135H144.335Z" fill="white"/>
<path d="M156.403 88.1684H157.092C157.463 88.1483 157.834 88.1972 158.187 88.3126C158.36 88.381 158.511 88.497 158.62 88.6471C158.75 88.8285 158.844 89.0334 158.896 89.2505C158.958 89.5061 158.988 89.7681 158.988 90.031C159 90.4151 158.931 90.7974 158.784 91.1526C158.671 91.4317 158.465 91.6633 158.201 91.8084C157.846 91.9648 157.459 92.0345 157.072 92.0117H156.417L156.403 88.1684ZM157.433 93.9138C157.958 93.9177 158.482 93.8605 158.994 93.7432C159.36 93.6611 159.712 93.524 160.037 93.3366C160.319 93.1608 160.569 92.9392 160.778 92.6807C161.033 92.3446 161.228 91.9675 161.355 91.5657C161.518 91.073 161.595 90.5563 161.585 90.0376C161.607 89.29 161.431 88.5498 161.073 87.8929C160.746 87.3318 160.244 86.8939 159.643 86.6467C158.953 86.382 158.218 86.255 157.479 86.2729H153.773V93.9203L157.433 93.9138Z" fill="white"/>
<path d="M162.831 93.9135V86.2661H169.16V88.155H165.461V89.3815H168.419V91.2113H165.461V93.9135H162.831Z" fill="white"/>
<path d="M178.1 89.1916H175.581C175.549 88.8486 175.393 88.5292 175.142 88.2931C174.878 88.0772 174.544 87.9653 174.204 87.9782C173.986 87.9732 173.77 88.0171 173.571 88.1068C173.372 88.1965 173.196 88.3296 173.056 88.4964C172.713 88.9832 172.555 89.5761 172.61 90.1688C172.591 90.582 172.655 90.9948 172.8 91.3822C172.905 91.6403 173.088 91.8585 173.325 92.0053C173.587 92.1445 173.881 92.2123 174.178 92.202C174.354 92.2154 174.531 92.1931 174.698 92.1364C174.865 92.0798 175.019 91.99 175.151 91.8724C175.282 91.7549 175.389 91.6119 175.464 91.4522C175.539 91.2924 175.581 91.1192 175.588 90.9428H178.152C178.114 91.3538 178.012 91.7564 177.85 92.1364C177.676 92.5058 177.428 92.836 177.122 93.1071C176.768 93.4377 176.351 93.6941 175.896 93.8614C175.368 94.041 174.814 94.1276 174.256 94.1172C173.674 94.1231 173.094 94.0368 172.538 93.8614C172.056 93.7093 171.61 93.4617 171.226 93.1334C170.878 92.8258 170.593 92.4539 170.387 92.0381C170.096 91.4445 169.95 90.7904 169.96 90.1295C169.954 89.5615 170.058 88.9978 170.269 88.4701C170.452 87.9767 170.741 87.5291 171.115 87.1584C171.458 86.8211 171.863 86.5537 172.308 86.3714C172.898 86.1441 173.526 86.0328 174.158 86.0434C174.718 86.0378 175.276 86.1197 175.811 86.2861C176.284 86.4297 176.719 86.6785 177.083 87.0141C177.414 87.3233 177.675 87.6987 177.85 88.116C177.99 88.4591 178.074 88.8221 178.1 89.1916Z" fill="white"/>
<path d="M186.645 87.9912C186.893 87.9802 187.142 87.9956 187.387 88.0371C187.535 88.073 187.669 88.1558 187.767 88.2732C187.862 88.3849 187.913 88.5269 187.911 88.6733C187.911 88.7665 187.889 88.8583 187.847 88.9415C187.805 89.0246 187.744 89.0967 187.669 89.1521C187.405 89.2996 187.103 89.3637 186.803 89.3357H185.799V87.9912H186.645ZM187.301 93.894C187.74 93.907 188.179 93.8785 188.613 93.8087C188.886 93.7491 189.152 93.6612 189.407 93.5464C189.627 93.4533 189.829 93.3224 190.003 93.1594C190.211 92.9813 190.372 92.7565 190.476 92.5035C190.592 92.2207 190.65 91.9173 190.646 91.6116C190.66 91.1981 190.53 90.7927 190.279 90.4638C190.031 90.1411 189.682 89.9103 189.289 89.8079C189.596 89.6621 189.857 89.4344 190.043 89.1497C190.23 88.8651 190.334 88.5345 190.345 88.1945C190.353 87.8744 190.271 87.5585 190.107 87.2834C189.944 87.0082 189.705 86.7852 189.42 86.6401C188.727 86.3202 187.965 86.1782 187.203 86.2269H183.176V93.8743L187.301 93.894ZM186.875 90.6933C187.233 90.6581 187.594 90.7216 187.918 90.877C188.003 90.9376 188.073 91.0178 188.121 91.1108C188.169 91.2038 188.194 91.3069 188.194 91.4115C188.194 91.5162 188.169 91.6193 188.121 91.7123C188.073 91.8053 188.003 91.8854 187.918 91.946C187.602 92.1145 187.243 92.1831 186.888 92.1428H185.799V90.6933H186.875Z" fill="white"/>
<path d="M196.549 91.3425H194.85L195.723 88.5616L196.549 91.3425ZM194.05 93.9135L194.358 92.91H197.034L197.349 93.9135H199.973L197.067 86.2661H194.352L191.44 93.9135H194.05Z" fill="white"/>
<path d="M201.101 93.9135V86.2661H203.593L206.4 90.3587V86.2661H208.958V93.9135H206.413L203.665 89.9193V93.9135H201.101Z" fill="white"/>
<path d="M210.729 93.9135V86.2661H213.313V88.7912L215.727 86.2661H218.862L215.891 89.1519L219.17 93.9201H215.976L214.008 90.8769L213.3 91.5327V93.9201L210.729 93.9135Z" fill="white"/>
<path d="M138.885 82.0095H121.734V98.1701H138.885V82.0095Z" fill="#DF1F26"/>
<path d="M135.875 84.8433H124.731V95.3437H135.875V84.8433Z" fill="white"/>
<path d="M131.166 82.0095H129.447V98.1701H131.166V82.0095Z" fill="white"/>
<path d="M138.885 89.2832H121.734V90.8966H138.885V89.2832Z" fill="white"/>
<path d="M132.877 87.6697H127.735V92.5165H132.877V87.6697Z" fill="#1A4684"/>
<path d="M92.2197 90.8835H79.3516" stroke="#0E4D8C" stroke-miterlimit="10"/>
</svg>
