<svg width="167" height="64" viewBox="0 0 167 64" fill="none" xmlns="http://www.w3.org/2000/svg">
<g clip-path="url(#clip0_412_4784)">
<path d="M0 14.8682V55.0322H14.4759V29.4235H28.9605V55.0322H43.3069V14.8682H0Z" fill="white"/>
<path d="M52.445 10.48C58.5083 4.37979 65.8154 1.33838 74.3748 1.33838C82.9343 1.33838 90.25 4.3711 96.3047 10.4279C102.368 16.4933 105.391 23.8274 105.391 32.439C105.391 41.0505 102.359 48.4107 96.3047 54.5023C90.2413 60.6025 82.9343 63.6439 74.3748 63.6439C65.8154 63.6439 58.4997 60.5938 52.445 54.5023C46.3817 48.4021 43.3587 41.0505 43.3587 32.439C43.3587 23.8274 46.3904 16.502 52.445 10.48ZM62.6801 44.2484C65.919 47.4896 69.8144 49.1059 74.3748 49.1059C78.9353 49.1059 82.8306 47.4636 86.0696 44.1875C89.3085 40.9115 90.9237 36.9924 90.9237 32.4303C90.9237 27.8682 89.2999 23.9752 86.0696 20.7339C82.8306 17.4926 78.9353 15.8763 74.3748 15.8763C69.8144 15.8763 65.919 17.5013 62.6801 20.7339C59.4411 23.9752 57.826 27.8769 57.826 32.4303C57.826 36.9837 59.4411 40.9289 62.6801 44.2397V44.2484Z" fill="#CB2229" stroke="white" stroke-width="0.79" stroke-miterlimit="10"/>
<path d="M74.3748 42.7795L64.1484 32.4908L74.3748 22.2021L84.6012 32.4908L74.3748 42.7795Z" fill="white"/>
<path d="M86.7864 29.5193L80.0667 22.7587L86.7864 15.998L93.5062 22.7587L86.7864 29.5193Z" fill="white"/>
<path d="M90.2471 7.23208L85.3673 12.1416L90.2471 17.0511L95.127 12.1416L90.2471 7.23208Z" fill="#2F4E89"/>
<path d="M90.2499 7.70773L94.6549 12.1395L90.2499 16.5713L85.845 12.1395L90.2499 7.70773ZM90.2499 6.74316L84.8862 12.1395L90.2499 17.5358L95.6136 12.1395L90.2499 6.74316Z" fill="white"/>
<path d="M98.4121 10.9229L95.6136 8.10747L98.4121 5.29199L101.211 8.10747L98.4121 10.9229Z" fill="white"/>
<path d="M100.001 5.63096L97.2029 2.81548L100.001 0L102.8 2.81548L100.001 5.63096Z" fill="white"/>
<path d="M135.414 47.3505L121.603 55.067L103.482 21.9156L116.153 14.877L126.077 33.0038L135.414 27.8247L144.526 32.8821L154.416 14.903L167 22.0286L148.819 55.1105L135.414 47.3505Z" fill="white"/>
<path d="M90.034 25.9912C89.2049 23.9926 87.9525 22.1503 86.3114 20.4993C85.6809 19.8649 85.0072 19.2827 84.299 18.7526L86.7865 16.25L93.2557 22.7586L90.0427 25.9912H90.034Z" fill="#2F4E89"/>
<path d="M86.7864 16.7365L92.772 22.7585L90.1463 25.4002C89.3085 23.5406 88.0993 21.8113 86.5532 20.2646C86.0005 19.7171 85.4218 19.2044 84.8172 18.7265L86.7951 16.7365M86.7951 15.772L83.7807 18.8047C84.584 19.3695 85.344 20.0126 86.0782 20.7512C87.8315 22.5065 89.1098 24.4617 89.9131 26.6081L93.7307 22.7672L86.7864 15.7807L86.7951 15.772Z" fill="white"/>
</g>
<defs>
<clipPath id="clip0_412_4784">
<rect width="167" height="64" fill="white"/>
</clipPath>
</defs>
</svg>
