<svg width="65" height="24" viewBox="0 0 65 24" fill="none" xmlns="http://www.w3.org/2000/svg">
<g clip-path="url(#clip0_251_3562)">
<path d="M0 5.21021V20.6804H5.60685V10.8171H11.2209V20.6804H16.7799V5.21021H0Z" fill="#004B8D"/>
<path d="M20.3195 3.5228C22.6664 1.17347 25.5009 0 28.8182 0C32.1354 0 34.9675 1.1663 37.3169 3.50129C39.6638 5.83629 40.8397 8.66122 40.8397 11.9785C40.8397 15.2958 39.6662 18.1279 37.3169 20.4772C34.9675 22.8265 32.1354 24 28.8182 24C25.5009 24 22.6688 22.8265 20.3195 20.4772C17.9701 18.1303 16.7967 15.2958 16.7967 11.9785C16.7967 8.66122 17.9701 5.84346 20.3195 3.52041V3.5228ZM24.2868 16.5266C25.5415 17.7741 27.052 18.3979 28.8182 18.3979C30.5844 18.3979 32.0948 17.767 33.3495 16.5051C34.6043 15.2432 35.2328 13.7351 35.2328 11.9785C35.2328 10.2219 34.6043 8.72097 33.3495 7.47341C32.0948 6.22585 30.5844 5.60207 28.8182 5.60207C27.052 5.60207 25.5415 6.22585 24.2868 7.47341C23.0321 8.72097 22.4035 10.2219 22.4035 11.9785C22.4035 13.7351 23.0297 15.2503 24.2868 16.5266Z" fill="#ED1C24"/>
<path d="M28.8182 15.9601L24.858 12L28.8182 8.03979L32.7783 12L28.8182 15.9601Z" fill="#004B8D"/>
<path d="M33.6244 10.8528L31.0217 8.25013L33.6244 5.64746L36.2271 8.25013L33.6244 10.8528Z" fill="#004B8D"/>
<path d="M34.9675 6.23774L32.8907 4.16086L34.9675 2.08398L37.0444 4.16086L34.9675 6.23774Z" fill="white"/>
<path d="M38.6505 4.2111L37.5654 3.12606L38.6505 2.04102L39.7355 3.12606L38.6505 4.2111Z" fill="#004B8D"/>
<path d="M39.2647 2.17478L38.1796 1.08973L39.2647 0.00708008L40.3497 1.09212L39.2647 2.17717V2.17478Z" fill="#004B8D"/>
<path d="M52.4668 17.7215L47.1133 20.6922L40.0964 7.92262L45.0054 5.2124L48.846 12.1959L52.4668 10.2003L55.9944 12.1481L59.8279 5.22435L64.7034 7.96803L57.6602 20.7113L52.4668 17.7215Z" fill="#004B8D"/>
<path d="M34.8361 9.72957L36.3155 8.25018L33.6244 5.55908L32.4581 6.72538C32.7688 6.94287 33.0651 7.19143 33.3495 7.47344C34.0307 8.1498 34.5254 8.90264 34.8361 9.72957Z" fill="white"/>
</g>
<defs>
<clipPath id="clip0_251_3562">
<rect width="64.7034" height="24" fill="white"/>
</clipPath>
</defs>
</svg>
