<svg width="157" height="81" viewBox="0 0 157 81" fill="none" xmlns="http://www.w3.org/2000/svg">
<g clip-path="url(#clip0_291_3558)">
<path d="M18.763 18.6911C18.7158 18.3219 18.7049 17.7334 18.7013 17.4117C18.694 16.8634 18.6867 16.5417 18.625 16.2858L18.4071 15.3683C17.5429 11.7092 16.6496 7.92942 15.1136 4.36533C14.6343 3.25407 14.0097 2.21957 13.3053 1.3715C12.6771 0.611163 11.7983 0.28217 10.945 0.486877C10.0843 0.695239 9.43436 1.4044 9.21285 2.38772C9.01314 3.25772 9.04219 4.13138 9.07487 4.9758L9.08576 5.28286C9.11118 6.03954 9.15112 6.79257 9.19107 7.54925C9.23101 8.26938 9.26732 8.9895 9.28911 9.70963C9.29637 9.95455 9.30363 10.1995 9.30727 10.448C9.21285 10.247 9.11844 10.0459 9.01677 9.84854L8.91509 9.64383C8.56649 8.95295 8.21426 8.26207 7.84751 7.57484C7.12489 6.22231 6.38775 5.08912 5.59978 4.1131C5.13498 3.53554 3.7188 1.78091 1.86324 2.48642C-0.471645 3.3747 -0.0431598 6.21135 0.189239 7.73568L0.265495 8.26938C0.407113 9.34409 0.595937 10.4151 0.802918 11.4789C1.51464 15.1015 2.26994 17.8211 3.254 20.2959C3.75874 21.5607 4.39421 22.9424 5.58162 23.3774C5.80313 23.4579 6.03189 23.4981 6.26066 23.4981C6.63831 23.4981 7.01233 23.3884 7.33914 23.1727C7.89835 22.8108 8.26147 22.1894 8.31231 21.5168C8.37041 20.8113 8.27963 20.0363 8.03633 19.0713C7.63327 17.4665 7.22294 15.8618 6.80535 14.257C7.32824 15.244 7.90198 16.0738 8.51203 16.7281C9.17654 17.441 10.0262 17.759 10.876 17.5908C11.7111 17.4263 12.3902 16.8049 12.7388 15.8874C13.0946 14.9516 13.2907 13.9134 13.3089 12.8826C13.3125 12.645 13.3161 12.4037 13.3161 12.1661C13.3452 12.316 13.3779 12.4805 13.4142 12.6596C13.879 15.0101 14.1477 16.3662 14.3728 17.1485C14.2058 17.9271 14.8631 18.3548 16.4971 19.4222C16.7295 19.5758 16.9546 19.7183 17.1435 19.8426C17.3287 20.2191 17.6264 20.4787 18.0985 20.5335L18.9264 20.5993L19.1806 19.8901C19.3549 19.3966 19.2205 19.075 18.7594 18.6838L18.763 18.6911Z" fill="white"/>
<path d="M30.1107 15.668C29.9473 14.6006 29.7839 13.5515 29.5479 12.517C29.1847 10.9342 28.7526 9.43912 28.2588 8.07928C27.7395 6.63903 27.1149 5.18049 26.3415 3.62326C26.08 3.09688 25.6515 2.73864 25.1286 2.61435C24.5513 2.47545 23.8795 2.63994 23.3094 3.06763C22.7248 3.50263 22.0748 4.31049 22.289 5.67398C22.3108 5.8202 22.3616 6.07243 22.4306 6.39411C23.2186 10.1666 23.0407 11.3473 22.8809 11.7092C22.8555 11.669 22.8228 11.6214 22.7901 11.5593C22.5723 11.1828 22.4379 10.6856 22.3362 10.2506C22.1292 9.36967 21.9332 8.4887 21.7407 7.60773C21.5555 6.77794 21.374 5.94814 21.1779 5.11835C20.8365 3.65982 19.8488 2.947 18.469 3.16267C17.71 3.27965 17.2888 3.66713 17.0673 3.97053C16.7114 4.46402 16.5916 5.11104 16.7151 5.90062C16.9184 7.20928 17.2162 8.60933 17.6447 10.3128C18.1857 12.4476 18.9374 14.5824 20.7712 15.7521C21.5265 16.2346 22.5396 16.3991 23.3493 16.1762C23.5491 16.1213 23.7415 16.0409 23.9267 15.9422C24.3733 15.7009 24.7038 15.372 24.9543 15.0064C25.2122 16.0994 25.3393 17.2947 25.332 18.2452C24.7982 17.8467 24.2136 17.5689 23.7887 17.4263C23.1569 17.2107 22.4161 17.3934 21.9513 17.6383C21.4647 17.8906 21.1198 18.3402 20.9781 18.9031C20.7712 19.7475 21.0689 20.5554 21.3231 21.228C21.6536 22.1053 22.0167 22.9497 22.4197 23.7942C22.6921 24.3608 23.2622 24.4997 23.8759 24.4997C24.2099 24.4997 24.5549 24.4595 24.8745 24.4192C26.8499 24.4156 28.8652 22.7121 29.5987 21.1366C30.2814 19.6818 30.4557 17.8394 30.1216 15.6644L30.1107 15.668Z" fill="white"/>
<path d="M10.0697 13.3505C10.3892 13.1129 10.2185 12.2356 10.2331 11.8883C10.2585 11.1536 10.2512 10.4152 10.2294 9.68041C10.1822 8.2036 10.0697 6.73044 10.0261 5.25363C10.0007 4.36901 9.9353 3.44783 10.1314 2.60342C10.4328 1.2911 11.7328 0.958453 12.5825 1.98199C13.2615 2.80081 13.828 3.76586 14.2528 4.74918C15.8833 8.52162 16.7657 12.528 17.7134 16.5125C17.8405 17.0498 17.6081 19.5282 18.2145 19.5977C18.9734 19.6854 14.5252 17.2692 15.4366 17.2692C15.2514 17.2692 14.2238 11.7604 14.0931 11.2157C13.8534 10.2324 13.5956 9.25272 13.3015 8.28402C13.1489 7.77956 12.9892 7.27511 12.8076 6.77796C12.5207 5.99204 12.2266 6.50015 12.2411 7.09965C12.2883 9.02242 12.4082 10.9489 12.3755 12.868C12.361 13.7672 12.1867 14.7103 11.8671 15.5511C11.3842 16.8195 10.1314 17.0681 9.20906 16.0811C8.57359 15.4012 8.05069 14.5861 7.61495 13.7563C6.79066 12.1807 6.07167 10.5468 5.29096 8.94566C4.92783 8.19994 4.26695 8.13049 4.5175 9.11381C5.38174 12.5134 6.27865 15.9057 7.13199 19.3089C7.30629 20.0035 7.43702 20.7419 7.38255 21.4437C7.32445 22.1748 6.63088 22.7487 5.9119 22.4855C5.02588 22.1638 4.45577 20.7455 4.13623 19.945C3.0287 17.1595 2.31335 14.2351 1.73598 11.2961C1.53263 10.2507 1.34381 9.2052 1.20945 8.14877C1.02063 6.69023 0.367005 4.07291 2.19352 3.37838C3.29378 2.958 4.24153 3.94132 4.8661 4.71262C5.69039 5.73615 6.39485 6.86935 7.01579 8.02814C7.41523 8.77385 7.79288 9.52688 8.17416 10.2799C8.5627 11.0476 8.89314 11.8481 9.27079 12.6231C9.37246 12.8314 9.72469 13.61 10.0733 13.3505H10.0697Z" fill="#E1252A"/>
<path d="M23.0913 15.2623C23.222 15.2258 23.3491 15.1746 23.4726 15.1088C24.4457 14.5824 24.66 13.3651 24.965 12.4001C26.2287 14.491 26.7225 19.3528 25.7421 20.5372C25.7421 19.4844 24.3368 18.6144 23.4835 18.3256C23.1421 18.2086 22.6882 18.3183 22.3759 18.4791C22.1181 18.6144 21.9547 18.852 21.8857 19.1298C21.7405 19.7183 21.9947 20.3471 22.198 20.8881C22.5176 21.7398 22.8698 22.5623 23.262 23.3811C23.4181 23.7101 24.6491 23.4689 24.8633 23.4689C26.3885 23.4689 28.1097 22.0725 28.7379 20.7309C29.446 19.2212 29.4278 17.43 29.1809 15.8106C29.0211 14.7688 28.8613 13.738 28.6289 12.7291C28.2949 11.2669 27.8809 9.81202 27.3762 8.40101C26.8424 6.91323 26.1996 5.46201 25.4988 4.04734C25.1466 3.33818 24.4312 3.41129 23.872 3.82801C23.2946 4.25936 23.1131 4.8223 23.222 5.5278C23.3745 6.52209 24.9723 12.5427 22.9097 12.7839C22.4812 12.8351 22.1617 12.3562 21.9765 12.0382C21.7042 11.5666 21.548 11.011 21.4209 10.47C21.0179 8.7629 20.6656 7.04483 20.2626 5.33772C20.0302 4.3544 19.4818 3.97057 18.614 4.10583C17.8732 4.21915 17.4883 4.73822 17.6481 5.75444C17.8768 7.20932 18.2 8.65323 18.5595 10.0789C19.0062 11.8408 19.6634 13.9208 21.2757 14.9516C21.7804 15.2733 22.5067 15.4268 23.0949 15.2623H23.0913Z" fill="#E1252A"/>
<path d="M11.3193 16.5271H19.7837C24.6641 16.5417 27.1043 19.2321 27.1043 24.5984V30.3631C27.1043 32.878 26.1021 34.6582 24.094 35.7C26.0985 36.7419 27.1043 38.5221 27.1043 41.0334V46.82C27.1043 52.1753 24.5479 54.8584 19.4351 54.873H11.3193V16.5271ZM16.8134 21.9811V32.9658H18.5419C19.3044 32.9658 19.8309 32.9146 20.1142 32.8086C21.1091 32.4065 21.6103 31.5913 21.6103 30.3667V24.602C21.6103 22.8547 20.815 21.9811 19.2209 21.9811H16.8134ZM16.8134 38.438V49.4227H19.2209C20.8114 49.4227 21.6103 48.5563 21.6103 46.8236V41.037C21.6103 39.8125 21.1128 39.0046 20.1142 38.6135C19.8309 38.4965 19.3044 38.438 18.5419 38.438H16.8134Z" fill="#014E81"/>
<path d="M46.9637 47.4268C46.9637 52.793 44.331 55.4835 39.0621 55.4981C33.8077 55.4981 31.1787 52.8077 31.1787 47.4268V16.5271H36.6728V47.4268C36.6728 49.1595 37.468 50.0258 39.0621 50.0258C40.6562 50.0258 41.4696 49.1595 41.4696 47.4268V16.5271H46.9637V47.4268Z" fill="#014E81"/>
<path d="M51.2334 23.9734C51.2334 18.6072 53.8624 15.9204 59.1168 15.9204C64.3712 15.9204 67.0184 18.6035 67.0184 23.9734V29.1349H61.5243V23.9734C61.5243 22.2517 60.7291 21.3853 59.135 21.3744H59.095C57.5154 21.3744 56.7275 22.2407 56.7275 23.9734V27.4534C56.7275 29.1605 58.4414 31.2515 61.8729 33.7262C65.3008 36.1863 67.0184 39.14 67.0184 42.5798V47.4269C67.0184 52.8078 64.393 55.4982 59.135 55.4982C53.866 55.4836 51.2334 52.7932 51.2334 47.4269V42.2654H56.7275V47.4269C56.7275 49.1596 57.53 50.026 59.135 50.026C60.74 50.026 61.5243 49.1596 61.5243 47.4269V43.0477C61.5243 41.198 59.8104 39.034 56.3789 36.5592C52.9473 34.0991 51.2334 31.1016 51.2334 27.5704V23.9734Z" fill="#014E81"/>
<path d="M71.2891 16.5271H76.7831V54.873H71.2891V16.5271Z" fill="#014E81"/>
<path d="M86.5478 54.8731H81.0537V23.9734C81.0537 18.6072 83.6827 15.9204 88.9371 15.9204C94.1915 15.9204 96.8387 18.6035 96.8387 23.9734V54.8731H91.3446V23.9734C91.3446 22.2517 90.5494 21.3853 88.9589 21.3744H88.919C87.3394 21.3744 86.5514 22.2407 86.5514 23.9734V54.8731H86.5478Z" fill="#014E81"/>
<path d="M106.603 38.4381V47.4269C106.603 49.1596 107.398 50.026 108.989 50.026C110.579 50.026 111.396 49.1596 111.396 47.4269V42.2654H116.89V47.4269C116.89 52.7932 114.258 55.4836 108.989 55.4982C103.734 55.4982 101.105 52.8078 101.105 47.4269V23.9734C101.105 18.6072 103.731 15.9204 108.989 15.9204C114.247 15.9204 116.89 18.6035 116.89 23.9734V38.4345H106.6L106.603 38.4381ZM106.603 32.9659H111.396V23.9771C111.396 22.2553 110.601 21.389 109.011 21.378H108.971C107.391 21.378 106.603 22.2444 106.603 23.9771V32.9659Z" fill="#014E81"/>
<path d="M121.164 23.9734C121.164 18.6072 123.793 15.9204 129.047 15.9204C134.302 15.9204 136.949 18.6035 136.949 23.9734V29.1349H131.455V23.9734C131.455 22.2517 130.66 21.3853 129.066 21.3744H129.029C127.45 21.3744 126.662 22.2407 126.662 23.9734V27.4534C126.662 29.1605 128.376 31.2515 131.807 33.7262C135.239 36.1863 136.953 39.14 136.953 42.5798V47.4269C136.953 52.8078 134.324 55.4982 129.069 55.4982C123.8 55.4836 121.168 52.7932 121.168 47.4269V42.2654H126.662V47.4269C126.662 49.1596 127.464 50.026 129.069 50.026C130.674 50.026 131.459 49.1596 131.459 47.4269V43.0477C131.459 41.198 129.745 39.034 126.313 36.5592C122.882 34.0991 121.168 31.1016 121.168 27.5704V23.9734H121.164Z" fill="#014E81"/>
<path d="M141.22 23.9734C141.22 18.6072 143.845 15.9204 149.103 15.9204C154.361 15.9204 157.005 18.6035 157.005 23.9734V29.1349H151.511V23.9734C151.511 22.2517 150.715 21.3853 149.125 21.3744H149.085C147.505 21.3744 146.717 22.2407 146.717 23.9734V27.4534C146.717 29.1605 148.431 31.2515 151.863 33.7262C155.291 36.1863 157.008 39.14 157.008 42.5798V47.4269C157.008 52.8078 154.379 55.4982 149.125 55.4982C143.856 55.4836 141.223 52.7932 141.223 47.4269V42.2654H146.717V47.4269C146.717 49.1596 147.52 50.026 149.125 50.026C150.73 50.026 151.511 49.1596 151.511 47.4269V43.0477C151.511 41.198 149.797 39.034 146.365 36.5592C142.934 34.0991 141.22 31.1016 141.22 27.5704V23.9734Z" fill="#014E81"/>
<path d="M47.7797 76.4438H44.9909L39.5622 67.4806V76.4438H36.7734V62.8235H39.5622L44.9982 71.805V62.8235H47.7761V76.4438H47.7797Z" fill="#E1252A"/>
<path d="M54.4754 76.6303C53.0011 76.6303 51.7991 76.1734 50.8732 75.2632C49.9472 74.353 49.4824 73.1394 49.4824 71.6223V71.3592C49.4824 70.3429 49.6785 69.4327 50.0671 68.6322C50.4556 67.8316 51.0112 67.2138 51.7265 66.7788C52.4419 66.3438 53.2589 66.1282 54.174 66.1282C55.5502 66.1282 56.6323 66.5632 57.4203 67.4368C58.2119 68.3105 58.6041 69.546 58.6041 71.1508V72.2547H52.2022C52.2894 72.9164 52.5508 73.4464 52.9866 73.8449C53.4223 74.2433 53.9779 74.4444 54.646 74.4444C55.6809 74.4444 56.4907 74.0679 57.0717 73.3112L58.3898 74.799C57.9868 75.3729 57.4421 75.8188 56.7558 76.1405C56.0695 76.4622 55.3069 76.623 54.4681 76.623L54.4754 76.6303ZM54.1703 68.3142C53.6365 68.3142 53.2044 68.4969 52.874 68.8588C52.5436 69.2207 52.3293 69.7434 52.2385 70.4197H55.9751V70.204C55.9642 69.6009 55.8008 69.1366 55.4921 68.8076C55.1835 68.4786 54.7441 68.3142 54.174 68.3142H54.1703Z" fill="#E1252A"/>
<path d="M63.158 63.8325V66.3219H64.8756V68.3068H63.158V73.3587C63.158 73.7315 63.2307 74.002 63.3723 74.1629C63.5139 74.3237 63.7862 74.4078 64.1893 74.4078C64.4871 74.4078 64.7485 74.3859 64.9773 74.342V76.3891C64.4508 76.5499 63.9097 76.634 63.3505 76.634C61.4659 76.634 60.5072 75.6762 60.4709 73.7608V68.3068H59.0039V66.3219H60.4709V63.8325H63.158Z" fill="#E1252A"/>
<path d="M66.7236 76.4438V62.8235H71.1465C72.6135 62.8235 73.7174 63.1305 74.4582 63.741C75.1989 64.3515 75.5693 65.258 75.5693 66.4534C75.5693 67.0894 75.3878 67.6524 75.0319 68.1422C74.6724 68.632 74.1822 69.0122 73.5649 69.2791C74.2948 69.4838 74.8721 69.8749 75.297 70.4525C75.7218 71.03 75.9324 71.7172 75.9324 72.5141C75.9324 73.7351 75.5403 74.6965 74.7523 75.3947C73.9643 76.0928 72.8532 76.4438 71.4152 76.4438H66.7236ZM68.5066 68.632H71.2009C71.9817 68.632 72.6062 68.4346 73.0747 68.0398C73.5431 67.6451 73.7755 67.1114 73.7755 66.4351C73.7755 65.6857 73.5576 65.1411 73.1255 64.7974C72.6934 64.4538 72.0325 64.2857 71.1465 64.2857H68.5066V68.6247V68.632ZM68.5066 70.0723V74.9743H71.4515C72.2831 74.9743 72.9367 74.7586 73.416 74.3236C73.8953 73.8886 74.135 73.2928 74.135 72.5324C74.135 70.8911 73.249 70.0723 71.4769 70.0723H68.5029H68.5066Z" fill="#014E81"/>
<path d="M84.3176 76.4439C84.2195 76.2429 84.136 75.8883 84.0743 75.3765C83.2754 76.2136 82.3204 76.6304 81.2129 76.6304C80.2215 76.6304 79.4081 76.3489 78.7727 75.7823C78.1372 75.2193 77.8213 74.5029 77.8213 73.6365C77.8213 72.5837 78.2207 71.7649 79.016 71.18C79.8112 70.5952 80.9333 70.3064 82.3749 70.3064H84.0489V69.5095C84.0489 68.9063 83.8673 68.4238 83.5114 68.0656C83.1519 67.7073 82.6218 67.5282 81.921 67.5282C81.3073 67.5282 80.7916 67.6854 80.3777 67.9961C79.9637 68.3068 79.7567 68.687 79.7567 69.1293H78.0283C78.0283 68.6249 78.2062 68.135 78.5621 67.6635C78.9179 67.1919 79.4009 66.8191 80.0109 66.5449C80.621 66.2707 81.2928 66.1318 82.0226 66.1318C83.181 66.1318 84.0888 66.4243 84.7461 67.0055C85.4033 67.5867 85.7446 68.3909 85.7701 69.4144V74.0715C85.7701 75 85.8863 75.7384 86.1223 76.2867V76.4366H84.3212L84.3176 76.4439ZM81.4634 75.1243C82.0008 75.1243 82.5128 74.9854 82.9958 74.7039C83.4788 74.4224 83.8273 74.0569 84.0452 73.6109V71.5346H82.698C80.5919 71.5346 79.5389 72.1561 79.5389 73.3953C79.5389 73.9363 79.7204 74.3603 80.0763 74.6674C80.4321 74.9744 80.8969 75.1243 81.4598 75.1243H81.4634Z" fill="#014E81"/>
<path d="M89.8988 66.3219L89.9533 67.594C90.7231 66.6217 91.7253 66.1355 92.9636 66.1355C95.0879 66.1355 96.1591 67.3418 96.1809 69.7544V76.4439H94.4633V69.7471C94.456 69.016 94.2926 68.4787 93.9658 68.1277C93.639 67.7768 93.1343 67.605 92.448 67.605C91.8887 67.605 91.4022 67.7549 90.9809 68.0546C90.5597 68.3544 90.2293 68.7455 89.9969 69.2317V76.4439H88.2793V66.3219H89.9061H89.8988Z" fill="#014E81"/>
<path d="M101.391 71.7576L100.312 72.8908V76.4439H98.5947V62.0742H100.312V70.7633L101.231 69.6484L104.361 66.3182H106.453L102.542 70.5476L106.91 76.4402H104.895L101.391 71.7539V71.7576Z" fill="#014E81"/>
<path d="M108.047 63.6351C108.047 63.3537 108.13 63.1161 108.301 62.9223C108.472 62.7286 108.722 62.6335 109.056 62.6335C109.39 62.6335 109.645 62.7286 109.819 62.9223C109.993 63.1161 110.08 63.3537 110.08 63.6351C110.08 63.9166 109.993 64.1506 109.819 64.337C109.645 64.5234 109.39 64.6185 109.056 64.6185C108.722 64.6185 108.468 64.5234 108.301 64.337C108.13 64.1506 108.047 63.9166 108.047 63.6351ZM109.906 76.4403H108.188V66.3183H109.906V76.4403Z" fill="#014E81"/>
<path d="M114.093 66.3219L114.148 67.594C114.917 66.6217 115.92 66.1355 117.158 66.1355C119.282 66.1355 120.353 67.3418 120.375 69.7544V76.4439H118.658V69.7471C118.65 69.016 118.487 68.4787 118.16 68.1277C117.833 67.7768 117.329 67.605 116.642 67.605C116.083 67.605 115.596 67.7549 115.175 68.0546C114.754 68.3544 114.424 68.7455 114.191 69.2317V76.4439H112.474V66.3219H114.1H114.093Z" fill="#014E81"/>
<path d="M122.369 71.297C122.369 69.7178 122.732 68.464 123.455 67.5319C124.181 66.5997 125.139 66.1318 126.334 66.1318C127.529 66.1318 128.517 66.5668 129.206 67.4405L129.29 66.3183H130.859V76.1953C130.859 77.504 130.474 78.5385 129.7 79.2915C128.927 80.0446 127.892 80.4247 126.592 80.4247C125.866 80.4247 125.158 80.2675 124.464 79.9568C123.771 79.6461 123.24 79.2184 122.874 78.6738L123.767 77.6356C124.504 78.5531 125.405 79.0101 126.472 79.0101C127.307 79.0101 127.961 78.7725 128.429 78.3009C128.898 77.8257 129.13 77.1604 129.13 76.2977V75.4277C128.444 76.2246 127.503 76.6267 126.316 76.6267C125.129 76.6267 124.184 76.1478 123.458 75.1937C122.732 74.2397 122.365 72.9383 122.365 71.2934L122.369 71.297ZM124.097 71.4944C124.097 72.6349 124.33 73.5305 124.795 74.1848C125.259 74.8355 125.909 75.1608 126.745 75.1608C127.83 75.1608 128.625 74.6637 129.134 73.6731V69.0526C128.607 68.0875 127.819 67.6013 126.763 67.6013C125.927 67.6013 125.274 67.9303 124.802 68.5847C124.33 69.239 124.094 70.2077 124.094 71.4944H124.097Z" fill="#014E81"/>
</g>
<defs>
<clipPath id="clip0_291_3558">
<rect width="157" height="80" fill="white" transform="translate(0 0.428467)"/>
</clipPath>
</defs>
</svg>
