<svg width="200" height="47" viewBox="0 0 200 47" fill="none" xmlns="http://www.w3.org/2000/svg">
<g clip-path="url(#clip0_251_3709)">
<path d="M145.572 34.3497C145.833 30.0277 149.698 28.7272 153.468 28.7272C156.815 28.7272 160.844 29.4756 160.844 33.5043V42.2453C160.844 43.7722 161.005 45.2991 161.428 45.9829H156.748C156.586 45.4631 156.455 44.911 156.422 44.359C154.96 45.8859 152.816 46.438 150.767 46.438C147.582 46.438 145.048 44.8464 145.048 41.4022C145.048 37.5999 147.908 36.6898 150.767 36.2994C153.595 35.8766 156.226 35.9737 156.226 34.0887C156.226 32.1067 154.861 31.8133 153.237 31.8133C151.481 31.8133 150.345 32.5271 150.183 34.3474H145.568L145.572 34.3497ZM156.231 37.7616C155.45 38.443 153.826 38.4754 152.396 38.7364C150.966 39.0298 149.666 39.5172 149.666 41.2058C149.666 42.8944 150.998 43.3495 152.493 43.3495C156.099 43.3495 156.231 40.4897 156.231 39.4825V37.7593V37.7616Z" fill="#005189"/>
<path d="M164.549 23.2363H169.164V46.438H164.549V23.2363Z" fill="#005189"/>
<path d="M178.652 29.4433H182.031V32.5294H178.652V40.8478C178.652 42.407 179.042 42.7974 180.601 42.7974C181.089 42.7974 181.544 42.7651 182.031 42.668V46.274C181.25 46.4033 180.243 46.4357 179.333 46.4357C176.506 46.4357 174.036 45.7865 174.036 42.4394V32.5294H171.241V29.4433H174.036V24.4075H178.652V29.4433Z" fill="#005189"/>
<path d="M184.239 23.2363H188.855V31.9774H188.952C190.121 30.0924 192.137 29.1823 193.858 29.1823C198.765 29.1823 200 31.945 200 36.103V46.4357H195.385V36.9462C195.385 34.1834 194.572 32.8182 192.428 32.8182C189.926 32.8182 188.855 34.2158 188.855 37.6276V46.4334H184.239V23.2317V23.2363Z" fill="#005189"/>
<path d="M129.185 16.6782C126.503 26.565 124.41 34.9064 121.4 46.438H115.163C113.705 42.1968 112.241 37.7616 110.778 33.5066C110.73 33.5019 110.681 33.495 110.633 33.4904C109.376 37.7962 108.12 42.0975 106.851 46.4403H101.167L95.9229 31.4622L102.206 31.3144C102.825 33.3841 103.43 35.4146 104.036 37.4451C104.052 37.4451 104.073 37.4451 104.089 37.4451C104.107 37.4451 104.126 37.4451 104.144 37.4451C105.362 33.1416 106.581 28.8357 107.808 24.5022L113.234 24.3728C114.673 28.614 116.119 32.8759 117.6 37.2441C119.545 29.7597 121.414 22.571 123.345 15.1536L121.589 14.6939L128.376 7.81934L130.936 17.1333L129.189 16.6782H129.185Z" fill="#005189"/>
<path d="M142.414 46.438H123.761L125.431 40.9979H142.414V46.438Z" fill="#005189"/>
<path d="M142.414 34.6547H127.376L129.044 29.1892H142.414V34.6547Z" fill="#005189"/>
<path d="M142.414 22.8829H130.924L132.629 17.3712H142.414V22.8829Z" fill="#005189"/>
<path d="M5.32943 38.1474C5.32943 41.2358 7.73646 42.4394 10.4669 42.4394C12.2548 42.4394 14.9876 41.9196 14.9876 39.5449C14.9876 37.0409 11.5087 36.6181 8.0922 35.708C4.64567 34.7979 1.1645 33.465 1.1645 29.106C1.1645 24.359 5.65283 22.0813 9.8478 22.0813C14.6942 22.0813 19.1502 24.195 19.1502 29.5611H14.2068C14.0451 26.7637 12.0608 26.0499 9.62142 26.0499C7.99518 26.0499 6.11022 26.7336 6.11022 28.6833C6.11022 30.4712 7.21671 30.6999 13.0379 32.1945C14.7288 32.6172 19.9333 33.6914 19.9333 38.9582C19.9333 43.2178 16.5838 46.4056 10.2751 46.4056C5.1377 46.4056 0.32366 43.8692 0.38834 38.1451H5.33174L5.32943 38.1474Z" fill="#F2132A"/>
<path d="M22.5986 29.6234H26.9576V31.8987H27.0223C28.2258 30.1755 29.9814 29.166 32.1597 29.166C34.3381 29.166 36.1607 29.9468 37.0708 31.9634C38.0456 30.4989 39.8035 29.166 42.1436 29.166C45.7218 29.166 48.2905 30.8246 48.2905 35.1836V46.4356H43.6728V36.9068C43.6728 34.6638 43.4787 32.8089 40.843 32.8089C38.2073 32.8089 37.7546 34.9549 37.7546 37.0685V46.4356H33.1369V37.0039C33.1369 35.0519 33.2662 32.8089 30.3394 32.8089C29.4293 32.8089 27.2163 33.3933 27.2163 36.6781V46.4356H22.5986V29.6211V29.6234Z" fill="#F2132A"/>
<path d="M51.7369 34.3381C51.9979 30.0138 55.8672 28.7109 59.6394 28.7109C62.9889 28.7109 67.0222 29.4594 67.0222 33.4926V42.2406C67.0222 43.7698 67.1839 45.2968 67.6066 45.9805H62.9242C62.7625 45.4608 62.6309 44.9064 62.5985 44.3543C61.134 45.8835 58.988 46.4356 56.939 46.4356C53.7512 46.4356 51.2148 44.8417 51.2148 41.3952C51.2148 37.5906 54.0769 36.6804 56.939 36.2901C59.7688 35.8673 62.4022 35.9643 62.4022 34.0794C62.4022 32.0951 61.037 31.804 59.4107 31.804C57.6551 31.804 56.5163 32.5201 56.3546 34.3404H51.7369V34.3381ZM62.4045 37.7523C61.6237 38.436 59.9975 38.4684 58.5676 38.7271C57.1377 39.0205 55.8348 39.5079 55.8348 41.1988C55.8348 42.8897 57.1677 43.3448 58.6646 43.3448C62.2751 43.3448 62.4045 40.4827 62.4045 39.4755V37.7523Z" fill="#F2132A"/>
<path d="M70.5986 29.6234H74.9899V32.7465H75.0546C75.9001 30.6329 78.1778 29.1683 80.4208 29.1683C80.7465 29.1683 81.1369 29.233 81.4279 29.33V33.622C81.0052 33.525 80.3214 33.4603 79.7693 33.4603C76.3875 33.4603 75.2163 35.8997 75.2163 38.8588V46.4356H70.5986V29.6211V29.6234Z" fill="#F2132A"/>
<path d="M89.1039 29.4271H92.4858V32.5156H89.1039V40.8409C89.1039 42.4024 89.4943 42.7928 91.0559 42.7928C91.5433 42.7928 91.9984 42.7605 92.4858 42.6635V46.274C91.705 46.4034 90.6978 46.4357 89.7854 46.4357C86.9556 46.4357 84.4839 45.7843 84.4839 42.4348V32.5156H81.6865V29.4271H84.4839V24.3867H89.1016V29.4271H89.1039Z" fill="#F2132A"/>
</g>
<defs>
<clipPath id="clip0_251_3709">
<rect width="200" height="46.438" fill="white"/>
</clipPath>
</defs>
</svg>
