<svg width="169" height="37" viewBox="0 0 169 37" fill="none" xmlns="http://www.w3.org/2000/svg">
<g clip-path="url(#clip0_3_39499)">
<path d="M-0.000228179 0.571289H7.38061V22.2123C7.38061 24.631 7.66448 26.3998 8.22173 27.5186C9.09439 29.4898 11.0079 30.4808 13.9624 30.4808C16.9168 30.4808 18.7988 29.4898 19.6715 27.5186C20.2392 26.3998 20.5126 24.631 20.5126 22.2123V0.571289H27.8934V22.2336C27.8934 25.9842 27.3257 28.8931 26.1797 30.9816C24.0453 34.8068 19.9659 36.7141 13.9624 36.7141C7.95888 36.7141 3.86893 34.8068 1.71356 30.9816C0.567528 28.8931 -0.0107422 25.9736 -0.0107422 22.2336V0.571289H-0.000228179Z" fill="#0F4D8B"/>
<path d="M58.2371 20.5607C56.1974 22.2868 53.2955 23.1393 49.521 23.1393H42.2768V35.8084H35.0537V0.571289H49.9836C53.4217 0.571289 56.1658 1.47699 58.2161 3.29905C60.2663 5.12111 61.2862 7.93412 61.2862 11.7381C61.2862 15.8936 60.2663 18.8345 58.2371 20.5607ZM52.6962 7.87019C51.771 7.09235 50.4883 6.6981 48.8271 6.6981H42.2768V17.0764H48.8271C50.4883 17.0764 51.771 16.6502 52.6962 15.8084C53.6215 14.9666 54.0736 13.6241 54.0736 11.7913C54.0736 9.95863 53.6109 8.64802 52.6962 7.87019Z" fill="#0F4D8B"/>
<path d="M73.7456 35.8084H66.5225V0.571289H73.7456V35.8084Z" fill="#0F4D8B"/>
<path d="M93.627 11.898V7.26288C95.7403 7.16699 97.2227 7.02847 98.0744 6.83667C99.4202 6.53832 100.524 5.93097 101.365 5.01461C101.944 4.3966 102.385 3.56549 102.68 2.53192C102.848 1.91391 102.942 1.44508 102.942 1.14673H108.557V35.8085H101.67V11.898H93.627Z" fill="#DF1F26"/>
<path d="M120.238 28.9996C121.195 26.6874 123.466 24.2473 127.03 21.6581C130.132 19.4098 132.13 17.8008 133.044 16.8312C134.443 15.3181 135.147 13.6559 135.147 11.8552C135.147 10.3847 134.748 9.17002 133.949 8.20038C133.149 7.23075 132.003 6.7406 130.5 6.7406C128.46 6.7406 127.062 7.51844 126.326 9.06347C125.905 9.95851 125.653 11.3757 125.569 13.3149H119.04C119.145 10.3634 119.681 7.98728 120.617 6.16522C122.415 2.70224 125.6 0.976074 130.184 0.976074C133.801 0.976074 136.682 1.98833 138.827 4.0235C140.972 6.05866 142.034 8.74381 142.034 12.0896C142.034 14.6575 141.277 16.9378 139.763 18.9303C138.774 20.2516 137.134 21.7326 134.874 23.3523L132.182 25.2915C130.5 26.5062 129.343 27.38 128.723 27.9234C128.103 28.4668 127.577 29.0955 127.156 29.8094H142.086V35.8083H118.661C118.724 33.3256 119.25 31.0561 120.238 28.9996Z" fill="#DF1F26"/>
<path d="M151.896 25.1743C151.896 26.5595 152.117 27.7103 152.559 28.616C153.379 30.2889 154.861 31.1306 157.006 31.1306C158.32 31.1306 159.477 30.6725 160.455 29.7561C161.432 28.8397 161.927 27.5185 161.927 25.803C161.927 23.5227 161.012 21.999 159.203 21.2318C158.173 20.8056 156.533 20.5819 154.314 20.5819V15.7017C156.491 15.6698 158.015 15.4567 158.878 15.0518C160.371 14.3805 161.106 13.0272 161.106 10.9921C161.106 9.67082 160.728 8.59463 159.96 7.76351C159.193 6.9324 158.131 6.51684 156.754 6.51684C155.166 6.51684 153.999 7.0283 153.263 8.05121C152.517 9.07412 152.159 10.438 152.191 12.1429H145.914C145.977 10.4167 146.271 8.78643 146.786 7.2414C147.333 5.88818 148.195 4.63085 149.383 3.49073C150.267 2.68093 151.307 2.05226 152.517 1.62605C153.726 1.19984 155.208 0.976074 156.974 0.976074C160.244 0.976074 162.873 1.8285 164.881 3.54401C166.879 5.25951 167.888 7.56106 167.888 10.438C167.888 12.4838 167.289 14.1993 166.09 15.6058C165.333 16.4796 164.545 17.0763 163.735 17.3959C164.345 17.3959 165.228 17.9287 166.374 18.9942C168.088 20.6032 168.95 22.8088 168.95 25.5899C168.95 28.5201 167.951 31.0987 165.943 33.3256C163.935 35.5526 160.97 36.6608 157.048 36.6608C152.212 36.6608 148.847 35.0625 146.965 31.8552C145.977 30.1504 145.43 27.9234 145.314 25.1637H151.917L151.896 25.1743Z" fill="#DF1F26"/>
</g>
<defs>
<clipPath id="clip0_3_39499">
<rect width="168.929" height="36.1429" fill="white" transform="translate(0 0.571289)"/>
</clipPath>
</defs>
</svg>
