<svg width="506" height="79" viewBox="0 0 506 79" fill="none" xmlns="http://www.w3.org/2000/svg">
<path d="M115.862 67.5772V13.6064H135.728C141.332 13.6064 145.74 15.0758 148.953 18.0146C152.166 20.9534 153.787 25.4057 153.817 31.3714C153.817 43.5869 147.939 49.6947 136.184 49.6947H128.837V67.5919L115.862 67.5772ZM128.837 24.9648V38.4245H131.026C132.261 38.4245 133.201 38.4245 133.833 38.4245C134.661 38.3671 135.482 38.2343 136.287 38.0277C137.096 37.8775 137.857 37.5348 138.505 37.0286C139.075 36.4859 139.517 35.8234 139.799 35.0889C140.207 34.0669 140.397 32.9708 140.357 31.871C140.391 30.7406 140.211 29.614 139.828 28.5502C139.556 27.7909 139.131 27.0956 138.579 26.5077C137.969 25.967 137.222 25.6058 136.419 25.4644C135.61 25.28 134.791 25.1475 133.965 25.0677C133.289 25.0677 132.305 24.9942 131.026 24.9942L128.837 24.9648Z" fill="#0F4D8B"/>
<path d="M188.082 45.4633L203.775 67.5041H187.612L175.372 46.7416H175.225V67.5041H162.25V13.6069H181.661C186.221 13.3873 190.702 14.8633 194.239 17.7505C197.413 20.5277 198.999 24.6714 198.999 30.211C199.074 33.7742 198.048 37.2736 196.061 40.2322C195.153 41.5979 193.978 42.7655 192.607 43.6646C191.236 44.5637 189.696 45.1755 188.082 45.4633ZM175.254 24.3481V37.8077H176.518C182.528 37.8077 185.525 35.5743 185.525 31.0779C185.525 26.5816 182.586 24.3481 176.518 24.3481H175.254Z" fill="#0F4D8B"/>
<path d="M239.702 25.4791H224.274V34.5012H238.967V46.3886H224.274V55.6898H239.702V67.5772H211.284V13.6064H239.702V25.4791Z" fill="#0F4D8B"/>
<path d="M284.269 16.6042L279.097 27.4924C276.792 25.238 273.71 23.9545 270.486 23.9071C269.122 23.9095 267.792 24.3356 266.68 25.1267C266.13 25.4783 265.68 25.9661 265.374 26.5427C265.067 27.1194 264.915 27.7654 264.932 28.4182C264.932 28.8998 265.029 29.3765 265.215 29.8205C265.402 30.2646 265.675 30.6669 266.019 31.0043C266.6 31.6523 267.298 32.1857 268.076 32.5766C268.708 32.8557 269.546 33.1937 270.692 33.5757L273.998 34.6484C277.416 35.6161 280.538 37.4246 283.079 39.9088C285.357 42.5221 286.518 45.9256 286.311 49.3864C286.311 55.9301 284.592 60.7742 281.154 63.9187C277.259 67.3779 272.179 69.1993 266.974 69.0028C260.602 68.9691 254.425 66.8015 249.43 62.846L254.999 51.5464C258.917 55.2688 262.757 57.1301 266.519 57.1301C268.101 57.1577 269.649 56.6676 270.927 55.7342C271.548 55.2638 272.045 54.648 272.373 53.9409C272.701 53.2338 272.85 52.457 272.808 51.6786C272.808 49.2542 270.706 47.3586 266.519 46.0362C266.386 46.0362 265.857 45.8158 264.932 45.5219C263.013 44.9815 261.133 44.3139 259.304 43.5235C257.82 42.8425 256.436 41.9625 255.19 40.908C253.819 39.8016 252.798 38.3214 252.251 36.6468C251.626 34.5854 251.333 32.4377 251.384 30.2843C251.277 27.8833 251.649 25.485 252.479 23.2295C253.309 20.974 254.58 18.9066 256.218 17.1479C257.824 15.5027 259.754 14.2101 261.887 13.3524C264.02 12.4948 266.308 12.091 268.605 12.1667C271.333 12.2006 274.042 12.611 276.657 13.3863C279.326 14.1163 281.886 15.1985 284.269 16.6042Z" fill="#0F4D8B"/>
<path d="M327.674 16.6044L322.517 27.4926C320.209 25.2432 317.128 23.9606 313.906 23.9073C312.541 23.9077 311.211 24.334 310.1 25.1269C309.548 25.4777 309.096 25.9649 308.787 26.5415C308.478 27.118 308.323 27.7644 308.337 28.4183C308.34 28.9009 308.44 29.378 308.629 29.8219C308.818 30.2659 309.093 30.6678 309.439 31.0044C310.024 31.6545 310.727 32.188 311.511 32.5767C312.158 32.8559 312.98 33.1938 314.126 33.5759L317.389 34.6338C320.804 35.598 323.922 37.4072 326.455 39.8943C328.738 42.5053 329.904 45.909 329.702 49.3718C329.702 55.9155 327.978 60.7596 324.53 63.9041C320.641 67.3637 315.566 69.1855 310.365 68.9882C303.992 68.9602 297.813 66.792 292.82 62.8315L298.375 51.5318C302.298 55.2494 306.148 57.1155 309.895 57.1155C311.477 57.1432 313.025 56.653 314.303 55.7196C314.927 55.2519 315.426 54.6366 315.754 53.9288C316.082 53.221 316.23 52.4429 316.184 51.6641C316.184 49.2396 314.097 47.3441 309.895 46.0216C309.762 46.0216 309.233 45.8012 308.308 45.5073C306.39 44.9645 304.51 44.297 302.68 43.509C301.203 42.8241 299.824 41.9444 298.58 40.8934C297.206 39.7906 296.184 38.3092 295.642 36.6322C295.022 34.5699 294.734 32.4223 294.789 30.2697C294.697 27.8616 295.09 25.4594 295.943 23.2055C296.796 20.9516 298.092 18.8919 299.756 17.1481C301.36 15.5007 303.29 14.2066 305.423 13.3487C307.556 12.4909 309.845 12.0884 312.143 12.1668C314.865 12.2009 317.57 12.6113 320.18 13.3864C322.81 14.1208 325.331 15.203 327.674 16.6044Z" fill="#0F4D8B"/>
<path d="M349.598 13.6064L358.268 48.4604H358.4L368.818 13.6064H379.103L388.904 48.4604H389.037L398.441 13.6064H411.959L396.002 67.5772H382.777L373.961 36.2939H373.828L364.028 67.5772H350.803L335.889 13.6064H349.598Z" fill="#ED2224"/>
<path d="M444.564 58.1437H426.681L423.184 67.5772H409.416L428.621 13.6064H442.801L461.594 67.5772H447.767L444.564 58.1437ZM441.052 47.4025L435.747 30.2253H435.615L430.252 47.4025H441.052Z" fill="#ED2224"/>
<path d="M474.614 41.6571L456.202 13.6064H471.763L481.094 28.3004L490.439 13.6064H506L487.588 41.6571V67.5772H474.614V41.6571Z" fill="#ED2224"/>
<path d="M114.055 2.38031L0.823242 78.7887C1.20528 78.6271 58.394 47.6082 58.394 47.6082C58.394 47.6082 67.3279 60.5095 71.5157 66.3429L72.2945 67.4156C72.2945 67.4156 83.8586 67.4156 88.9574 67.4156H90.7794C84.4023 58.3641 77.9663 49.3421 71.6773 40.3788C72.1034 40.0261 83.2855 33.8547 88.546 30.813L90.4268 29.7551L91.6023 31.6212C92.9247 33.7665 94.3647 35.8531 95.9223 38.2041L114.495 2.58603C114.495 2.46848 115.171 1.45459 115.171 1.45459L114.055 2.38031Z" fill="#ED2224"/>
<path d="M42.0099 48.6222L48.152 44.4785L58.0704 37.7928L113.305 0.484902L113.966 0H113.099L73.3374 3.01226L78.73 11.3143L61.7145 25.4499C61.1708 24.8327 52.5602 12.7543 48.5781 7.24411L47.6671 6.00983H29.9462L50.5177 34.7365C37.7046 45.3602 0 76.8492 0 76.8492L1.23429 76.1439L42.0099 48.6222Z" fill="#ED2224"/>
</svg>
