<svg width="16" height="11" viewBox="0 0 16 11" fill="none" xmlns="http://www.w3.org/2000/svg">
<path d="M15.6671 1.8387C15.5765 1.51552 15.4 1.22293 15.1564 0.992035C14.9059 0.754037 14.5989 0.583792 14.2644 0.497368C13.0124 0.167368 7.99641 0.167368 7.99641 0.167368C5.9053 0.143577 3.8147 0.248218 1.73641 0.480702C1.40187 0.57351 1.09545 0.74756 0.844411 0.987368C0.597745 1.2247 0.419078 1.51737 0.325745 1.83804C0.10154 3.04586 -0.00739386 4.27226 0.000411455 5.5007C-0.00758854 6.72804 0.101078 7.95404 0.325745 9.16337C0.417078 9.4827 0.595078 9.77404 0.842411 10.0094C1.08974 10.2447 1.39774 10.4147 1.73641 10.5047C3.00508 10.834 7.99641 10.834 7.99641 10.834C10.0902 10.8579 12.1835 10.7532 14.2644 10.5207C14.5989 10.4343 14.9059 10.264 15.1564 10.026C15.3999 9.79518 15.5762 9.50255 15.6664 9.17937C15.8965 7.972 16.0083 6.7451 16.0004 5.51604C16.0177 4.28177 15.906 3.04908 15.6671 1.83804V1.8387ZM6.40174 7.78337V3.2187L10.5751 5.50137L6.40174 7.78337Z" fill="white"/>
</svg>
