<svg width="62" height="62" viewBox="0 0 62 62" fill="none" xmlns="http://www.w3.org/2000/svg">
<g clip-path="url(#clip0_635_5251)">
<path d="M14.1786 24.4715C14.1149 24.6341 14.0352 24.7805 13.9078 24.8943C13.844 24.9593 13.7644 25.0081 13.7007 25.0569C13.621 25.1057 13.5254 25.1382 13.4139 25.1707C13.3024 25.2033 13.1749 25.2195 13.0475 25.2358C12.92 25.252 12.7448 25.2683 12.5536 25.2683H12.0598L11.9482 26.0813L14.4016 29.0081H15.5487L13.0953 26.065L13.4139 26C13.9237 25.8862 14.322 25.7073 14.6087 25.4472C14.8955 25.1707 15.0867 24.813 15.1663 24.3902L15.1982 24.2276H16.855V23.4146H15.1663L15.1345 23.2683C15.1026 23.122 15.0548 22.9919 14.9751 22.878C14.9592 22.8455 14.9273 22.813 14.9114 22.7642L14.7043 22.4553H16.8391V21.6423H11.9482V22.4553H12.697C12.9997 22.4553 13.2227 22.4715 13.398 22.5203C13.5732 22.5528 13.7166 22.6179 13.8281 22.7154C13.9396 22.7967 14.0193 22.8943 14.0989 23.0244C14.1308 23.0569 14.1467 23.1057 14.1627 23.1545L14.2901 23.4309H11.9482V24.2439H14.2901L14.1786 24.4715Z" fill="black"/>
<path d="M43.6356 30.0976C44.5277 29.7886 45.1968 29.0081 45.3721 28.0813C45.4358 27.7236 45.2287 27.3821 44.8782 27.3171C44.5277 27.252 44.1932 27.4634 44.1294 27.8211C44.0338 28.3089 43.6834 28.7154 43.2214 28.8618L36.8649 31.0732C36.5622 31.1707 36.2436 31.1707 35.9568 31.0569C35.5585 30.9106 35.2558 30.6016 35.1284 30.1951C35.0169 29.8374 35.0328 29.4634 35.1921 29.122C35.3514 28.7805 35.6382 28.5366 35.9887 28.4065L41.2618 26.5691C41.4689 26.5041 41.6283 26.3252 41.676 26.0976L42.2496 23.561C42.3292 23.2033 42.1221 22.8618 41.7716 22.7805C41.4212 22.6992 41.0866 22.9106 41.0069 23.2683L40.5131 25.4634L35.5745 27.187C34.9054 27.4146 34.3637 27.9024 34.0451 28.5528C33.7265 29.2033 33.6787 29.935 33.9176 30.6179C34.0132 30.9106 34.1566 31.1707 34.3318 31.3984C33.1529 31.9024 32.3086 33.0894 32.3086 34.4715V55.3171C32.3086 55.6748 32.5954 55.9675 32.9458 55.9675C33.2963 55.9675 33.5831 55.6748 33.5831 55.3171V34.4878C33.5831 33.3659 34.4752 32.4553 35.5745 32.4553C36.6737 32.4553 37.5658 33.3659 37.5658 34.4878C37.5658 34.8455 37.8526 35.1382 38.2031 35.1382C38.5536 35.1382 38.8403 34.8455 38.8403 34.4878C38.8403 33.561 38.458 32.7154 37.8526 32.1138L43.6356 30.0976Z" fill="black"/>
<path d="M57.0333 37.3984C56.9537 37.0407 56.6032 36.8293 56.2686 36.9106C55.9181 36.9919 55.711 37.3496 55.7907 37.6911L58.9291 51.3171V51.3333C59.1043 52 59.2796 52.8293 59.2955 53.0081C59.2796 53.6748 58.8813 54.2927 58.2759 54.5528C58.1644 54.6016 58.0529 54.6341 57.9255 54.6504C57.0492 54.813 56.2527 54.3415 56.0934 53.5772C55.8703 52.5041 53.6081 42.1138 53.5125 41.6748C53.4329 41.3171 53.0983 41.1057 52.7479 41.187C52.3974 41.2683 52.1903 41.6098 52.2699 41.9675C52.2859 42.0813 54.6277 52.7967 54.8508 53.8699C54.9941 54.5691 55.4243 55.187 56.0456 55.5772C56.5076 55.8699 57.0333 56.0163 57.5909 56.0163C57.7821 56.0163 57.9732 56 58.1644 55.9675C58.3715 55.935 58.5786 55.8699 58.7698 55.7886C59.8531 55.3333 60.5541 54.2602 60.57 53.0569C60.57 52.7154 60.3151 51.6585 60.1558 51.0407L57.0333 37.3984Z" fill="black"/>
<path d="M38.1872 16.3415C39.5413 16.3415 40.8158 15.8049 41.7717 14.8293C42.7275 13.8537 43.2532 12.5528 43.2532 11.1707C43.2532 9.78862 42.7275 8.4878 41.7717 7.51219C40.8158 6.53659 39.5413 6 38.1872 6C36.833 6 35.5585 6.53659 34.6027 7.51219C33.6468 8.4878 33.1211 9.78862 33.1211 11.1707C33.1211 12.5528 33.6468 13.8537 34.6027 14.8293C35.5745 15.8049 36.833 16.3415 38.1872 16.3415ZM38.1872 7.30081C40.2741 7.30081 41.9788 9.04065 41.9788 11.1707C41.9788 13.3008 40.2741 15.0406 38.1872 15.0406C36.1002 15.0406 34.3956 13.3008 34.3956 11.1707C34.4115 9.04065 36.1002 7.30081 38.1872 7.30081Z" fill="black"/>
<path d="M56.858 31.5122C57.0332 30.7154 56.9376 29.9024 56.619 29.1545C56.619 29.1545 56.619 29.1545 56.619 29.1382C56.619 29.1382 56.619 29.122 56.6031 29.122V29.1057V29.0894L56.5871 29.0732L50.9157 20.0325L53.2894 19.935L56.1411 24.374C56.5234 24.9756 57.1288 25.3984 57.8138 25.5447C58.5148 25.6911 59.2158 25.561 59.8052 25.1545C60.4743 24.6992 60.9204 23.9675 61 23.1545C61.0638 22.5366 60.9044 21.9187 60.5858 21.3984L56.9058 15.6585C56.396 14.8618 55.5038 14.3902 54.5639 14.439C54.3886 14.439 52.1105 14.4553 49.8324 14.4878C45.8018 14.5366 45.0371 14.5691 44.83 14.5854H44.7822C44.7026 14.5854 44.607 14.6016 44.5432 14.6341C44.0653 14.748 43.6192 14.9431 43.221 15.2358C41.5641 16.439 41.1818 18.7967 42.3607 20.5041L49.5775 31.7398L43.7467 39.2358L43.7308 39.252C43.2847 39.8699 43.0776 40.6667 43.1732 41.4309L43.205 52.813C43.1732 53.7398 43.5077 54.6016 44.129 55.2033C44.6548 55.7236 45.3398 56 46.0408 56C46.1204 56 46.1842 56 46.2638 55.9837C46.2797 55.9837 46.2797 55.9837 46.2957 55.9837C46.3435 55.9837 46.4072 55.9675 46.455 55.9675C47.2197 55.8537 47.8728 55.4472 48.3348 54.7967C48.749 54.2114 48.988 53.4634 49.0039 52.6667C49.0039 52.6667 49.0039 52.6667 49.0039 52.6504L49.1155 41.8862L55.7587 33.4797C56.3163 32.9593 56.6986 32.2764 56.858 31.5122ZM54.8666 32.5528C54.8347 32.5691 54.8188 32.6016 54.8029 32.6341L48.0003 41.252C47.9047 41.3659 47.8569 41.5122 47.8569 41.6585L47.7454 52.6504C47.7295 53.561 47.2675 54.5366 46.2797 54.6992C46.2638 54.6992 46.2319 54.6992 46.2001 54.6992C46.1841 54.6992 46.1682 54.6992 46.1523 54.6992C45.754 54.7317 45.3239 54.5691 45.0053 54.2602C44.6388 53.9024 44.4477 53.3984 44.4636 52.8455C44.4636 52.8293 44.4636 52.8293 44.4636 52.813L44.4317 41.3821C44.4317 41.3496 44.4317 41.3171 44.4317 41.2846C44.368 40.8455 44.4795 40.3902 44.7344 40.0325L50.836 32.1789C50.836 32.1789 50.836 32.1789 50.836 32.1626C50.836 32.1463 50.8519 32.1463 50.8519 32.1301L50.8679 32.1138L50.8838 32.0976C50.8838 32.0976 50.8838 32.0976 50.8838 32.0813C50.8838 32.0813 50.8838 32.065 50.8997 32.065V32.0488C50.8997 32.0488 50.8997 32.0488 50.8997 32.0325C50.8997 32.0325 50.8997 32.0163 50.9157 32.0163C50.9157 32.0163 50.9157 32 50.9316 32C50.9316 31.9837 50.9316 31.9837 50.9475 31.9675C50.9475 31.9512 50.9475 31.9512 50.9475 31.935C50.9475 31.9187 50.9475 31.9187 50.9475 31.9024C50.9475 31.8862 50.9475 31.8862 50.9475 31.8699V31.8537C50.9475 31.8537 50.9475 31.8537 50.9475 31.8374V31.8211V31.8049V31.7886V31.7724C50.9475 31.7724 50.9475 31.7724 50.9475 31.7561C50.9475 31.7398 50.9475 31.7398 50.9475 31.7236C50.9475 31.7073 50.9475 31.7073 50.9475 31.6911C50.9475 31.6748 50.9475 31.6748 50.9475 31.6585C50.9475 31.6423 50.9475 31.6423 50.9475 31.626C50.9475 31.6098 50.9475 31.6098 50.9475 31.5935C50.9475 31.5772 50.9475 31.5772 50.9475 31.561V31.5447C50.9475 31.5447 50.9475 31.5447 50.9475 31.5285V31.5122V31.4959C50.9475 31.4959 50.9475 31.4959 50.9475 31.4797C50.9475 31.4797 50.9475 31.4634 50.9316 31.4634C50.9316 31.4472 50.9157 31.4472 50.9157 31.4309C50.9157 31.4146 50.8997 31.4146 50.8997 31.3984C50.8997 31.3984 50.8997 31.3984 50.8997 31.3821L43.4281 19.7561L43.4121 19.7398C42.6315 18.6341 42.8864 17.0732 43.9697 16.2927C44.2565 16.0813 44.5751 15.935 44.9256 15.8699C44.9415 15.8699 44.9415 15.8699 44.9575 15.8699C45.3876 15.8374 50.9475 15.7724 54.5957 15.7398H54.6117C55.0896 15.7236 55.5675 15.9675 55.8224 16.374L59.5025 22.1138C59.6777 22.3902 59.7574 22.6992 59.7255 23.0244C59.6778 23.4472 59.4547 23.8374 59.1042 24.065C58.8015 24.2764 58.4351 24.3415 58.0687 24.2602C57.7023 24.1789 57.3996 23.9675 57.1925 23.6585L54.1497 18.8943C54.0222 18.6992 53.8151 18.5854 53.5921 18.6016L49.7368 18.7642C49.5137 18.7805 49.3066 18.9106 49.1951 19.122C49.0836 19.3333 49.0995 19.5772 49.227 19.7724L55.472 29.7236C55.8862 30.6992 55.6472 31.8374 54.8666 32.5528Z" fill="black"/>
<path d="M8.69862 31.1382C9.43144 31.8862 10.2917 32.4878 11.2635 32.8943C12.2512 33.3171 13.3027 33.5447 14.4019 33.5447C15.4852 33.5447 16.5367 33.3333 17.5404 32.8943C18.4962 32.4878 19.3565 31.8862 20.1052 31.1382C20.8381 30.3902 21.4275 29.5122 21.8258 28.5203C22.24 27.5122 22.463 26.439 22.463 25.3171C22.463 24.2114 22.2559 23.1382 21.8258 22.1138C21.4275 21.1382 20.8381 20.2602 20.1052 19.4959C19.3724 18.748 18.5121 18.1463 17.5404 17.7398C16.5526 17.3171 15.5012 17.0894 14.4019 17.0894C13.3186 17.0894 12.2672 17.3008 11.2635 17.7398C10.3077 18.1463 9.44738 18.748 8.69862 19.4959C7.96579 20.2439 7.37634 21.122 6.97806 22.1138C6.56386 23.122 6.34082 24.1951 6.34082 25.3171C6.34082 26.439 6.54792 27.4959 6.97806 28.5203C7.37634 29.4959 7.94986 30.374 8.69862 31.1382ZM14.386 18.3577C18.1457 18.3577 21.2045 21.4797 21.2045 25.3171C21.2045 29.1545 18.1457 32.2764 14.386 32.2764C10.6263 32.2764 7.56751 29.1545 7.56751 25.3171C7.56751 21.4797 10.6263 18.3577 14.386 18.3577Z" fill="black"/>
<path d="M18.1772 38.813C18.0338 38.7642 14.5608 37.8049 10.6099 38.748C10.2754 38.8293 10.0683 39.1707 10.1479 39.5122C10.2116 39.8049 10.4665 40 10.7533 40C10.8011 40 10.8489 40 10.8967 39.9837C14.5289 39.1057 17.8107 40.0325 17.8426 40.0325C17.9063 40.0488 17.9541 40.0488 18.0178 40.0488C18.2887 40.0488 18.5436 39.8699 18.6232 39.5772C18.7029 39.2683 18.5117 38.9106 18.1772 38.813Z" fill="black"/>
<path d="M30.3486 43.2033C30.3327 43.2033 30.3327 43.2033 30.3168 43.2033C29.3609 43.0407 28.1979 42.5528 26.3181 40C25.9676 39.5447 25.7286 39.3171 25.5215 39.122C25.7605 38.5041 26.2862 37.2683 27.2262 35.7561C27.3377 35.5772 27.3536 35.3496 27.2739 35.1707C27.1943 34.9919 27.0191 34.8455 26.8279 34.7967C25.2188 34.4715 23.6417 34.4878 22.1123 34.8455C20.9175 35.122 20.0731 35.5447 19.6589 35.7724C19.3881 35.6911 18.1295 35.3821 16.4727 35.187C14.8955 34.9919 12.5696 34.8618 10.4986 35.3333C10.4667 35.3496 10.403 35.3496 10.3552 35.3659C10.1799 35.3984 9.9569 35.4472 9.86131 35.4797C7.88586 36.0163 6.30868 37.0732 5.0342 38.7155C4.09427 39.935 3.47296 41.4797 3.23399 43.1545C3.20213 43.1707 3.17027 43.1707 3.15434 43.187C2.67641 43.4146 1.99137 43.4797 1.48158 42.9431C1.30634 42.748 1.17889 42.3252 1.2904 42.0813C1.37006 41.9024 1.48158 41.8211 1.64089 41.8211C1.64089 41.8211 1.64089 41.8211 1.65682 41.8211C1.78427 41.8211 1.89578 41.8862 1.92765 41.9024C1.97544 42.2276 2.2622 42.4715 2.59675 42.439C2.9313 42.4065 3.1862 42.0976 3.17027 41.7561C3.12247 41.1707 2.62861 40.6829 1.95951 40.5691C1.19482 40.439 0.493851 40.8293 0.17523 41.561C-0.159322 42.3415 0.127437 43.3171 0.605369 43.8374C1.0833 44.3415 1.7524 44.6341 2.45337 44.6341C2.69234 44.6341 2.91537 44.6016 3.15434 44.5528C3.13841 46.2927 3.52075 47.9837 4.28544 49.4634L7.64689 55.561C7.75841 55.7561 7.96551 55.8862 8.18855 55.8862L9.82945 55.9024C10.0206 55.9024 10.2118 55.8049 10.3392 55.6423L11.8846 53.4959C11.9323 53.5122 11.9961 53.5122 12.0598 53.5285C13.0316 53.6748 13.9078 53.7398 14.7362 53.7561C15.6284 53.7561 16.5046 53.7073 17.5719 53.5447L18.8146 55.6748C18.9261 55.8699 19.1332 55.9837 19.3403 55.9837L20.7581 56C20.9015 56 21.0449 55.9512 21.1564 55.8537L26.334 51.4797C28.5484 49.6098 29.5202 49.7236 29.5202 49.7236C29.807 49.7724 30.0937 49.7073 30.3327 49.5285C30.6035 49.3171 30.7947 48.9756 30.8425 48.5854L31.3045 44.7317C31.3523 44 30.9381 43.3333 30.3486 43.2033ZM29.568 48.439C29.568 48.4553 29.568 48.4553 29.568 48.4553C29.2972 48.439 28.8671 48.4715 28.2457 48.7154C27.4492 49.0407 26.5252 49.6423 25.5056 50.4878L20.5033 54.7154H19.6748L18.8624 53.3171C18.9898 53.3008 19.1173 53.2683 19.2447 53.252C19.404 53.2195 19.5474 53.122 19.643 52.9919C19.7386 52.8455 19.7704 52.6829 19.7386 52.5203C19.6748 52.1789 19.3562 51.9512 19.0217 52C18.6075 52.0813 18.2251 52.1463 17.8906 52.1951C17.8109 52.1951 17.7153 52.1951 17.6357 52.2276C15.6124 52.5203 14.1468 52.5366 12.2032 52.2602C11.6297 52.1789 11.0561 52.0488 10.5145 51.8862C10.1799 51.7886 9.82945 51.9675 9.73386 52.3089C9.63828 52.6504 9.81352 53.0081 10.1481 53.1057C10.2596 53.1382 10.387 53.1707 10.5145 53.2195L9.4949 54.6504H8.53903L5.35282 48.8943C3.82344 45.8862 4.09427 42.0488 6.02193 39.5447C7.12117 38.1138 8.47531 37.2033 10.1799 36.748C10.2596 36.7317 10.5463 36.6667 10.6897 36.6341C10.7216 36.6341 10.7534 36.6179 10.7694 36.6179C12.3147 36.2764 14.1468 36.2276 16.2019 36.4553C17.795 36.6341 19.0854 36.9594 19.5474 37.1057C19.5474 37.1057 19.5474 37.1057 19.5633 37.1057C20.1528 37.3008 20.6944 37.5285 21.2361 37.8049C21.3157 37.8537 21.4113 37.8699 21.5069 37.8699C21.7459 37.8699 21.953 37.7398 22.0645 37.5285C22.1441 37.3821 22.1601 37.2033 22.0964 37.0407C22.0486 36.8781 21.937 36.748 21.7937 36.6667C21.6344 36.5854 21.475 36.5041 21.3157 36.439C22.3035 36.0813 23.8169 35.7236 25.6808 35.935C24.6135 37.8049 24.2152 39.0732 24.1993 39.1382V39.1545V39.1707C24.1993 39.187 24.1993 39.187 24.1993 39.2033C24.1993 39.2195 24.1993 39.2195 24.1993 39.2358V39.252V39.2683C24.1993 39.2846 24.1993 39.2846 24.1993 39.3008C24.1993 39.3171 24.1993 39.3171 24.1993 39.3333C24.1993 39.3496 24.1993 39.3496 24.1993 39.3659C24.1993 39.3821 24.1993 39.3821 24.1993 39.3821C24.1993 39.3984 24.1993 39.3984 24.1993 39.4146C24.1993 39.4309 24.1993 39.4309 24.1993 39.4472C24.1993 39.4634 24.1993 39.4634 24.1993 39.4797C24.1993 39.4959 24.1993 39.4959 24.1993 39.5122V39.5285V39.5447C24.1993 39.561 24.1993 39.561 24.2152 39.5772V39.5935V39.6098C24.2152 39.626 24.2311 39.626 24.2311 39.6423C24.2311 39.6423 24.2311 39.6585 24.247 39.6585C24.247 39.6748 24.263 39.6748 24.263 39.6911C24.263 39.7073 24.2789 39.7073 24.2789 39.7236L24.2948 39.7398C24.2948 39.7561 24.3108 39.7561 24.3108 39.7724C24.3108 39.7724 24.3108 39.7886 24.3267 39.7886C24.3267 39.7886 24.3267 39.7886 24.3426 39.8049C24.4542 39.935 24.5816 40.0488 24.6772 40.1301C24.8524 40.2927 25.0436 40.4715 25.3144 40.8455C26.2862 42.1463 27.1624 43.0732 28.0227 43.6748C28.8352 44.2439 29.5043 44.4228 30.0141 44.5203C30.03 44.5528 30.03 44.6016 30.03 44.6504L29.568 48.439Z" fill="black"/>
<path d="M20.3279 41.4797C20.073 41.4797 19.8341 41.5772 19.6588 41.7561C19.4836 41.935 19.3721 42.1789 19.3721 42.439C19.3721 42.9756 19.7863 43.4146 20.312 43.4146C20.8377 43.4146 21.2519 42.9919 21.2519 42.4553C21.2679 41.9187 20.8537 41.4797 20.3279 41.4797Z" fill="black"/>
</g>
<defs>
<clipPath id="clip0_635_5251">
<rect width="61" height="50" fill="white" transform="translate(0 6)"/>
</clipPath>
</defs>
</svg>
