<svg width="62" height="62" viewBox="0 0 62 62" fill="none" xmlns="http://www.w3.org/2000/svg">
<g clip-path="url(#clip0_635_5271)">
<path fill-rule="evenodd" clip-rule="evenodd" d="M46.1598 9.07516C46.1303 8.62948 46.4696 8.25809 46.9122 8.24323L52.0465 7.96097C52.2826 7.94612 52.5186 8.05011 52.6661 8.21352C52.8284 8.39179 52.9022 8.62948 52.8579 8.86718L52.1203 13.9776C52.0612 14.3787 51.7219 14.6609 51.3383 14.6609C51.2941 14.6609 51.2646 14.6609 51.2203 14.6461C50.7924 14.5867 50.4826 14.1856 50.5564 13.7399L50.9842 10.8281C44.95 16.2505 38.2814 21.0787 31.1259 25.1937C24.4572 29.0265 17.1985 32.3245 9.54133 34.9985C9.45281 35.0283 9.36429 35.0431 9.27576 35.0431C8.95118 35.0431 8.64136 34.8351 8.52333 34.5083C8.37579 34.0923 8.5971 33.6318 9.0102 33.4981C24.6638 28.0015 38.4142 19.9942 49.9072 9.65453L47.0008 9.81795C46.5434 9.84766 46.1746 9.52083 46.1598 9.07516Z" fill="#2A2A2A"/>
<path fill-rule="evenodd" clip-rule="evenodd" d="M56 52.7661C56 52.3204 55.6459 51.9639 55.2033 51.9639H52.8575V21.0192C52.8575 20.5735 52.5034 20.217 52.0608 20.217H45.643C45.2004 20.217 44.8463 20.5735 44.8463 21.0192V51.9787H40.9366V27.1101C40.9366 26.6644 40.5825 26.3079 40.1399 26.3079H33.722C33.2794 26.3079 32.9253 26.6644 32.9253 27.1101V51.9639H29.0156V33.8844C29.0156 33.4387 28.6616 33.0821 28.2189 33.0821H21.8011C21.3585 33.0821 21.0044 33.4387 21.0044 33.8844V51.9639H17.139V40.3763C17.139 39.9307 16.7849 39.5741 16.3423 39.5741H9.93922C9.49661 39.5741 9.14252 39.9307 9.14252 40.3763V51.9639H6.7967C6.35409 51.9639 6 52.3204 6 52.7661V56.1978C6 56.6435 6.35409 57 6.7967 57H55.2181C55.6607 57 56.0148 56.6435 56.0148 56.1978L56 52.7661ZM46.4544 21.8066H51.2788V51.9639H46.4544V21.8066ZM34.5482 27.9123H39.3727V51.9787H34.5482V27.9123ZM22.6273 34.6866H27.4518V51.9639H22.6273V34.6866ZM10.7212 41.1786H15.5456V51.9787H10.7212V41.1786ZM54.4214 55.4104H7.57864V53.5683H54.4214V55.4104Z" fill="#2A2A2A"/>
<path fill-rule="evenodd" clip-rule="evenodd" d="M16.003 6C10.4851 6 6 10.5162 6 16.0722C6 21.6283 10.4851 26.1445 16.003 26.1445C21.5208 26.1445 26.0059 21.6283 26.0059 16.0722C26.0207 10.5162 21.5356 6 16.003 6ZM16.003 24.5698C11.3556 24.5698 7.57864 20.7667 7.57864 16.0871C7.57864 11.4075 11.3556 7.60443 16.003 7.60443C20.6503 7.60443 24.4273 11.4075 24.4273 16.0871C24.442 20.7518 20.6503 24.5698 16.003 24.5698Z" fill="#2A2A2A"/>
<path d="M15.7377 14.9432C15.6492 15.166 15.5311 15.3592 15.3689 15.5077C15.2656 15.5969 15.1771 15.6711 15.0738 15.7306C14.9705 15.79 14.8525 15.8345 14.7049 15.8791C14.5574 15.9237 14.3804 15.9385 14.1886 15.9682C13.9968 15.9831 13.7755 15.998 13.5247 15.998H12.8312L12.6837 17.0973L16.0328 21.0341H17.5967L14.2328 17.0824L14.6607 16.9933C15.3541 16.8447 15.9 16.5922 16.2836 16.2357C16.6819 15.8643 16.9327 15.3889 17.036 14.7946L17.0803 14.5718H19.3523V13.5022H17.0655L17.0213 13.2942C16.977 13.1011 16.9032 12.9228 16.8147 12.7594C16.7852 12.7148 16.7557 12.6554 16.7262 12.6108L16.4311 12.1949H19.3523V11.1104H12.6689V12.1949H13.7017C14.1 12.1949 14.4099 12.2246 14.6459 12.2692C14.882 12.3286 15.0885 12.4029 15.2361 12.5217C15.3836 12.6405 15.5016 12.7742 15.6049 12.9228C15.6344 12.9674 15.6639 13.0417 15.7082 13.1011L15.8705 13.4725H12.6689V14.5569H15.8557L15.7377 14.9432Z" fill="#2A2A2A"/>
</g>
<defs>
<clipPath id="clip0_635_5271">
<rect width="50" height="51" fill="white" transform="translate(6 6)"/>
</clipPath>
</defs>
</svg>
