<svg width="40" height="40" viewBox="0 0 40 40" fill="none" xmlns="http://www.w3.org/2000/svg">
<g filter="url(#filter0_d_1061_12598)">
<g clip-path="url(#clip0_1061_12598)">
<path fill-rule="evenodd" clip-rule="evenodd" d="M33.375 11.8103C33.375 16.332 29.8492 19.9975 25.5 19.9975C21.1508 19.9975 17.625 16.332 17.625 11.8103C17.625 7.28859 21.1508 3.62305 25.5 3.62305C29.8492 3.62305 33.375 7.28859 33.375 11.8103ZM28.3354 8.71848V7.6875H22.665V8.71848H24.4693C25.1404 8.71848 25.707 9.15047 25.9204 9.74947H22.665V10.7805H25.9204C25.8146 11.0811 25.6183 11.3416 25.3584 11.5262C25.0986 11.7108 24.788 11.8105 24.4693 11.8114H22.665V13.0558L25.5446 15.9354H27.0024L23.9094 12.8424H24.4693C25.0631 12.8417 25.6386 12.6362 26.0985 12.2606C26.5585 11.885 26.8748 11.3622 26.9941 10.7805H28.3354V9.74947H26.9941C26.9151 9.3743 26.7523 9.02185 26.5178 8.71848H28.3354ZM9.06836 23.0165C9.48754 22.7747 10.0214 22.9196 10.2617 23.3362L14.7688 31.1425C15.0099 31.5607 14.8672 32.0947 14.449 32.3358L10.0392 34.8821C9.62086 35.1232 9.08711 34.9798 8.84586 34.5623L4.33873 26.756C4.09767 26.3378 4.24092 25.8038 4.65848 25.5621L9.06836 23.0165ZM33.6954 21.4798C34.2842 21.0555 35.1054 21.1886 35.5298 21.778C35.9548 22.3673 35.821 23.1898 35.231 23.6136C35.2307 23.6138 35.1715 23.657 35.064 23.7354C34.2613 24.3207 30.7648 26.8706 28.9448 28.178C28.4523 28.5317 27.9979 28.8248 27.5735 29.0686C26.3492 29.773 24.9579 30.1342 23.5454 30.1342H16.3517L12.5167 23.4923C13.4973 21.4936 15.8623 19.9961 18.2392 19.9961C19.576 19.9961 20.811 20.4317 21.8104 21.1686C22.101 21.383 22.3723 21.623 22.6198 21.8848H26.2754C26.9467 21.8848 27.5192 22.4048 27.5467 23.0755C27.576 23.7823 27.011 24.3698 26.3054 24.3698H21.5029C20.986 24.3698 20.5654 24.7886 20.5654 25.3073C20.5654 25.8255 20.9854 26.2448 21.5029 26.2448H25.9935C26.6467 26.2448 27.2723 26.0636 27.8117 25.7242C27.9503 25.6376 28.0823 25.5409 28.2067 25.4348C28.4792 25.238 31.9092 22.7667 33.6954 21.4798Z" fill="url(#paint0_linear_1061_12598)"/>
</g>
</g>
<defs>
<filter id="filter0_d_1061_12598" x="0" y="0" width="40" height="40" filterUnits="userSpaceOnUse" color-interpolation-filters="sRGB">
<feFlood flood-opacity="0" result="BackgroundImageFix"/>
<feColorMatrix in="SourceAlpha" type="matrix" values="0 0 0 0 0 0 0 0 0 0 0 0 0 0 0 0 0 0 127 0" result="hardAlpha"/>
<feOffset dy="1"/>
<feGaussianBlur stdDeviation="2"/>
<feComposite in2="hardAlpha" operator="out"/>
<feColorMatrix type="matrix" values="0 0 0 0 0.592157 0 0 0 0 0.0784314 0 0 0 0 0.301961 0 0 0 0.1 0"/>
<feBlend mode="normal" in2="BackgroundImageFix" result="effect1_dropShadow_1061_12598"/>
<feBlend mode="normal" in="SourceGraphic" in2="effect1_dropShadow_1061_12598" result="shape"/>
</filter>
<linearGradient id="paint0_linear_1061_12598" x1="25.5" y1="3.62305" x2="25.5" y2="34.999" gradientUnits="userSpaceOnUse">
<stop stop-color="white"/>
<stop offset="1" stop-color="white" stop-opacity="0.4"/>
</linearGradient>
<clipPath id="clip0_1061_12598">
<rect width="32" height="32" fill="white" transform="translate(4 3)"/>
</clipPath>
</defs>
</svg>
