<svg width="62" height="62" viewBox="0 0 62 62" fill="none" xmlns="http://www.w3.org/2000/svg">
<g clip-path="url(#clip0_635_5277)">
<path d="M18.4275 26.4277H17.0898V23.4795C17.0898 19.8217 19.4709 15.3722 26.1727 14.8399L26.3734 14.8262L26.5473 14.9217C29.0889 16.3139 32.4197 16.3003 34.9479 14.9081L35.1218 14.8126L35.3091 14.8262C42.1848 15.2766 44.6194 19.7671 44.6194 23.4795V27.3831H43.2817V23.4795C43.2817 20.3813 41.2217 16.6551 35.4161 16.1911C32.5802 17.6788 28.9417 17.6788 26.1058 16.2047C20.4608 16.7234 18.4543 20.2857 18.4543 23.4659V26.4277H18.4275Z" fill="#29303A"/>
<path d="M30.7209 15.4813C26.4938 15.4813 23.0693 12.2329 23.0693 8.23385C23.0693 4.24841 26.5072 1 30.7209 1C34.9346 1 38.3724 4.24841 38.3724 8.23385C38.3724 12.2329 34.948 15.4813 30.7209 15.4813ZM30.7209 2.36488C27.2429 2.36488 24.407 4.99909 24.407 8.23385C24.407 11.4686 27.2429 14.1165 30.7209 14.1165C34.1989 14.1165 37.0347 11.4823 37.0347 8.23385C37.0347 4.98544 34.1989 2.36488 30.7209 2.36488Z" fill="#29303A"/>
<path d="M28.7407 50.1765C28.647 50.1765 28.54 50.1629 28.4464 50.1356L26.7208 49.6033C26.2258 49.4531 25.9449 48.9754 25.9984 48.4022C26.0118 48.2794 26.0385 48.1156 26.0653 47.9518C26.1188 47.5969 26.266 46.6824 26.1589 46.3822C25.985 46.2457 25.8111 46.1092 25.6506 45.9454C25.4767 45.9045 24.5403 46.2457 24.2059 46.3822C24.032 46.4504 23.8849 46.505 23.7645 46.546C23.2294 46.7097 22.7211 46.5187 22.4803 46.0683L21.6376 44.444C21.3968 43.98 21.5306 43.434 21.9586 43.0792C22.0522 42.9973 22.186 42.9017 22.3332 42.7925C22.6141 42.5878 23.3498 42.0419 23.4836 41.7552C23.4434 41.4959 23.4301 41.2775 23.4167 41.0728C23.3097 40.9227 22.4268 40.4996 22.0924 40.3494C21.9319 40.2675 21.7847 40.1993 21.6777 40.1447C21.1961 39.8854 20.9553 39.3667 21.1025 38.8754L21.6242 37.1147C21.7713 36.6097 22.2261 36.323 22.8013 36.3776C22.9217 36.3913 23.0823 36.4186 23.2562 36.4459C23.604 36.5005 24.4868 36.6506 24.7945 36.5414C24.955 36.3367 25.0888 36.1592 25.2359 36.0091C25.2627 35.8453 24.9283 34.9036 24.7945 34.5487C24.7276 34.3713 24.6741 34.2211 24.6474 34.1119C24.4735 33.5796 24.6741 33.0337 25.1289 32.788L26.7074 31.9281C27.1622 31.6824 27.6973 31.8189 28.0451 32.2557C28.1253 32.3512 28.219 32.4877 28.326 32.6379C28.5266 32.9245 29.0617 33.6752 29.3426 33.8117C29.5968 33.7707 29.8108 33.7571 30.0115 33.7434C30.1586 33.6479 30.5599 32.7334 30.7204 32.3922C30.8007 32.2284 30.8676 32.0783 30.9211 31.9691C31.1752 31.4777 31.6836 31.232 32.1651 31.3822L33.8907 31.9145C34.3857 32.0646 34.6666 32.5423 34.6131 33.1156C34.5997 33.2384 34.573 33.4022 34.5462 33.5796C34.4927 33.9345 34.3456 34.849 34.4526 35.1492C34.6666 35.313 34.8137 35.4495 34.9609 35.586C35.1348 35.6269 36.0578 35.2857 36.4056 35.1492C36.5795 35.081 36.7266 35.0264 36.8336 34.9991C37.3553 34.8353 37.8904 35.0264 38.1312 35.4768L38.9739 37.0874C39.2147 37.5378 39.081 38.111 38.6529 38.4522C38.5593 38.5341 38.4255 38.6297 38.2917 38.7252C38.0108 38.9299 37.2751 39.4759 37.1413 39.7625C37.1814 40.0218 37.1948 40.2266 37.2082 40.4177C37.3152 40.5951 38.1981 41.0182 38.5325 41.1683C38.693 41.2502 38.8402 41.3185 38.9472 41.3731C39.4421 41.6324 39.6695 42.1511 39.5224 42.6424L39.0007 44.4031C38.8535 44.8945 38.3854 45.1947 37.8235 45.1401C37.7031 45.1265 37.556 45.0992 37.3687 45.0719C37.0209 45.0173 36.1247 44.8672 35.8304 44.9764C35.6699 45.1811 35.5495 45.3312 35.4291 45.4814C35.3756 45.6861 35.71 46.6279 35.8438 46.9827C35.9106 47.1465 35.9642 47.2966 35.9909 47.4195C36.1648 47.9654 35.9642 48.4977 35.5227 48.7434L33.9443 49.6033C33.5028 49.849 32.9544 49.7125 32.6066 49.2757C32.5263 49.1802 32.4327 49.0437 32.3257 48.8936C32.125 48.6069 31.5899 47.8562 31.309 47.7198C31.0816 47.7471 30.881 47.7743 30.6937 47.788C30.4663 47.9654 30.0783 48.8253 29.9312 49.1529C29.8643 49.3167 29.7974 49.4532 29.7439 49.5623C29.4898 49.9445 29.1286 50.1765 28.7407 50.1765ZM27.3629 48.3612L28.5935 48.7434C28.6203 48.6888 28.647 48.6206 28.6872 48.5523C29.1553 47.515 29.5968 46.6415 30.3325 46.4231L30.493 46.3958C30.7071 46.3822 30.9211 46.3685 31.1351 46.3412L31.3759 46.3276C32.125 46.3822 32.7403 47.1602 33.3958 48.0746C33.4359 48.1429 33.4894 48.1975 33.5296 48.2521L34.6532 47.6379C34.6265 47.5696 34.5997 47.5014 34.5863 47.4331C34.1984 46.3685 33.9041 45.4268 34.2787 44.7443L34.3723 44.6078C34.5596 44.4031 34.6666 44.2666 34.7736 44.1165L34.9341 43.9254C35.5093 43.4204 36.4725 43.5296 37.5694 43.707C37.6496 43.7207 37.7165 43.7343 37.7834 43.748L38.158 42.4923C38.0911 42.465 38.0242 42.4377 37.9573 42.3967C36.9407 41.919 36.0979 41.4686 35.8839 40.7316L35.8571 40.5678C35.8438 40.2812 35.8304 40.1037 35.8036 39.9263L35.7769 39.667C35.8304 38.9026 36.5929 38.2748 37.4891 37.606C37.556 37.5651 37.6095 37.5105 37.663 37.4695L37.0611 36.323C36.9942 36.3503 36.9273 36.3776 36.8604 36.4049C35.8036 36.8007 34.894 37.0874 34.2252 36.7188L34.1048 36.6233C33.9041 36.4459 33.7704 36.323 33.6098 36.2138L33.4092 36.0501C32.9142 35.4632 33.0213 34.4804 33.1952 33.3612C33.2085 33.2794 33.2219 33.2111 33.2353 33.1429L32.0046 32.7607C31.9779 32.8153 31.9511 32.8835 31.911 32.9654C31.4428 34.0027 31.0013 34.8626 30.2656 35.081L30.1185 35.1083C29.8509 35.1219 29.6503 35.1356 29.463 35.1629L29.2222 35.1765C28.4598 35.1219 27.8578 34.344 27.2023 33.4295C27.1622 33.3612 27.1087 33.3066 27.0686 33.2521L25.9449 33.8663C25.9717 33.9345 25.9984 34.0027 26.0252 34.071C26.4131 35.1356 26.694 36.0774 26.3328 36.7461L26.2258 36.8963C26.0653 37.0737 25.9449 37.2238 25.8245 37.4013L25.6774 37.5787C25.1022 38.0837 24.139 37.9745 23.0421 37.7971C22.9619 37.7834 22.895 37.7698 22.8281 37.7562L22.4536 39.0118C22.5071 39.0391 22.5739 39.0664 22.6542 39.1074C23.6708 39.5851 24.5136 40.0355 24.7276 40.7725L24.7544 40.9227C24.7677 41.2093 24.7811 41.414 24.8213 41.6051L24.8346 41.8235C24.7811 42.5878 24.0186 43.2157 23.1224 43.8844C23.0555 43.9254 23.002 43.98 22.9485 44.0209L23.5505 45.1674C23.6173 45.1401 23.6842 45.1128 23.7645 45.0855C24.8079 44.6897 25.7309 44.4031 26.3863 44.7716L26.5201 44.8672C26.7475 45.0719 26.908 45.2084 27.0819 45.3449L27.2023 45.4541C27.6973 46.041 27.5903 47.0237 27.4164 48.1429C27.3896 48.2248 27.3762 48.3067 27.3629 48.3612ZM37.6898 43.98C37.6898 43.9936 37.6898 43.9936 37.6898 43.98V43.98ZM25.7443 33.9754C25.7309 33.9754 25.7309 33.9754 25.7443 33.9754V33.9754Z" fill="#29303A"/>
<path d="M30.2926 44.4713C29.9448 44.4713 29.5837 44.4168 29.2359 44.3076C28.2995 44.0209 27.537 43.3794 27.0688 42.5059C26.6006 41.6324 26.507 40.6224 26.7879 39.667C27.0688 38.7116 27.6975 37.9336 28.5536 37.4695C29.4098 37.0055 30.3996 36.8963 31.336 37.1829C32.2724 37.4695 33.0349 38.111 33.5031 38.9845C33.9713 39.8581 34.0649 40.8681 33.784 41.8235C33.3158 43.434 31.8577 44.4713 30.2926 44.4713ZM30.2926 38.384C29.9181 38.384 29.5435 38.4795 29.2091 38.6706C28.6607 38.9709 28.2593 39.4623 28.0855 40.0628C27.9116 40.6633 27.9651 41.3048 28.2593 41.8644C28.5536 42.424 29.0352 42.8335 29.6238 43.0109C30.2124 43.1884 30.8411 43.1338 31.3895 42.8335C31.938 42.5332 32.3393 42.0419 32.5132 41.4413C32.6871 40.8408 32.6336 40.1993 32.3393 39.6397C32.045 39.0801 31.5634 38.6706 30.9748 38.4932C30.7474 38.4113 30.52 38.384 30.2926 38.384Z" fill="#29303A"/>
<path d="M30.3866 61C22.8555 61 15.8326 56.5642 12.5687 49.2757C12.4216 48.9345 12.5687 48.525 12.9031 48.3749C13.2375 48.2248 13.6388 48.3749 13.786 48.7161C17.5047 57.0555 26.5207 61.3822 35.1889 58.9936C41.262 57.3285 46.0108 52.6743 47.9103 46.546C48.0173 46.1911 48.4052 45.9864 48.753 46.0955C49.1008 46.2047 49.3015 46.5869 49.1945 46.9554C47.1612 53.5341 42.0646 58.5159 35.5501 60.3039C33.8245 60.768 32.0989 61 30.3866 61Z" fill="#29303A"/>
<path d="M30.761 56.3594C28.0054 56.3594 25.2899 55.6224 22.8285 54.1756C18.9492 51.8963 16.1936 48.1565 15.0432 43.6524C14.9496 43.2976 15.1636 42.9154 15.5114 42.8198L16.6484 42.5059L13.0902 39.0801L11.6589 43.9254L12.836 43.5978C13.1972 43.5023 13.5584 43.707 13.6654 44.0755C13.759 44.444 13.5584 44.8126 13.1972 44.9218L10.8429 45.5905C10.6155 45.6588 10.3613 45.5905 10.1874 45.4131C10.0135 45.2357 9.96001 44.9764 10.0269 44.7443L12.1271 37.6606C12.1939 37.4286 12.3678 37.2648 12.5952 37.1966C12.8227 37.142 13.0634 37.1966 13.224 37.3603L18.4142 42.3831C18.5881 42.5469 18.655 42.8062 18.6014 43.0382C18.5479 43.2703 18.3607 43.4613 18.1333 43.5296L16.5147 43.9936C17.6651 47.8562 20.1264 51.0501 23.4974 53.0291C26.9218 55.0355 30.8814 55.5541 34.667 54.4895C36.2054 54.0528 37.6501 53.3703 38.9744 52.4559C39.282 52.2375 39.6967 52.3194 39.8974 52.6333C40.1114 52.9472 40.0178 53.3703 39.7235 53.5751C38.2788 54.5714 36.7003 55.3085 35.0282 55.7862C33.6103 56.1547 32.1789 56.3594 30.761 56.3594Z" fill="#29303A"/>
<path d="M12.3408 35.818C12.274 35.818 12.2071 35.8044 12.1402 35.7907C11.7924 35.6815 11.5917 35.2994 11.6987 34.9309C13.732 28.3521 18.8286 23.3703 25.3431 21.5824C34.6668 19.03 44.3249 23.6706 48.3245 32.6106C48.4717 32.9518 48.3245 33.3612 47.9901 33.5114C47.6557 33.6615 47.2544 33.5114 47.1072 33.1702C43.3885 24.8308 34.3859 20.5178 25.6909 22.8926C19.6178 24.5578 14.8691 29.212 12.9695 35.3403C12.8759 35.6406 12.6217 35.818 12.3408 35.818Z" fill="#29303A"/>
<path d="M48.2714 44.5532C48.0975 44.5532 47.937 44.485 47.8032 44.3622L42.7067 39.3394C42.5328 39.1756 42.4659 38.9163 42.5194 38.6843C42.5729 38.4522 42.7602 38.2612 42.9876 38.1929L44.5794 37.7425C43.4424 33.839 40.981 30.6178 37.6235 28.6388C34.2926 26.687 30.4401 26.182 26.7748 27.2466C25.2633 27.6834 23.8453 28.3658 22.5478 29.2666C22.2401 29.485 21.8254 29.4031 21.6114 29.0892C21.3974 28.7753 21.4776 28.3521 21.7853 28.1338C23.2032 27.1374 24.7549 26.4004 26.4137 25.9227C30.4267 24.7625 34.6404 25.3085 38.2923 27.4513C42.1582 29.717 44.9138 33.4841 46.0509 38.0291C46.1445 38.384 45.9305 38.7525 45.5827 38.8617L44.4724 39.1756L47.937 42.5878L49.3416 37.7698L48.2045 38.0974C47.8567 38.2066 47.4822 37.9882 47.3752 37.6197C47.2682 37.2511 47.4822 36.8826 47.8434 36.7734L50.1442 36.1046C50.385 36.0364 50.6257 36.1047 50.7996 36.2821C50.9735 36.4595 51.0404 36.7188 50.9602 36.9509L48.9001 44.0346C48.8332 44.2666 48.6593 44.444 48.4319 44.4986C48.3784 44.5396 48.3249 44.5532 48.2714 44.5532Z" fill="#29303A"/>
</g>
<defs>
<clipPath id="clip0_635_5277">
<rect width="41" height="60" fill="white" transform="translate(10 1)"/>
</clipPath>
</defs>
</svg>
