<svg width="53" height="55" viewBox="0 0 53 55" fill="none" xmlns="http://www.w3.org/2000/svg">
<g filter="url(#filter0_b_1343_10583)">
<ellipse rx="26.5" ry="27" transform="matrix(1 0 0 -1 26.5 27.9375)" fill="url(#paint0_linear_1343_10583)"/>
</g>
<g filter="url(#filter1_b_1343_10583)">
<g filter="url(#filter2_b_1343_10583)">
<path d="M46 27.2132C46 37.8247 37.2698 46.4265 26.5 46.4265C15.7302 46.4265 7 37.8247 7 27.2132C7 16.6037 15.7302 8 26.5 8C37.2698 8 46 16.6037 46 27.2132Z" fill="#154D83"/>
<path d="M45 27.2132C45 37.2585 36.7316 45.4265 26.5 45.4265C16.2684 45.4265 8 37.2585 8 27.2132C8 17.1698 16.2685 9 26.5 9C36.7315 9 45 17.1698 45 27.2132Z" stroke="url(#paint1_linear_1343_10583)" stroke-width="2"/>
</g>
</g>
<g clip-path="url(#clip0_1343_10583)">
<g filter="url(#filter3_d_1343_10583)">
<path fill-rule="evenodd" clip-rule="evenodd" d="M30.7899 15.8961C30.8106 15.8885 30.8312 15.881 30.8518 15.8737C31.0374 15.8737 31.2236 15.8737 31.4086 15.8743C31.4315 15.8827 31.4543 15.8915 31.4772 15.9004C31.5243 15.9186 31.5715 15.9368 31.6196 15.9517C32.4166 16.1993 32.9212 16.9887 32.7909 17.7843C32.6549 18.6174 31.9554 19.2066 31.1106 19.2005C30.2869 19.1943 29.58 18.5941 29.4626 17.8003C29.3397 16.9685 29.8301 16.1968 30.6383 15.9486C30.6893 15.9329 30.7397 15.9145 30.7899 15.8961L30.7899 15.8961ZM20.373 15.8981C20.3968 15.8898 20.4207 15.8816 20.4447 15.8737H21.0021C21.0189 15.8794 21.0355 15.8852 21.0522 15.8911C21.0928 15.9054 21.1332 15.9196 21.1746 15.9314C21.9965 16.1667 22.5123 16.9531 22.3894 17.7856C22.2708 18.5861 21.5731 19.1869 20.747 19.1986C19.9034 19.2109 19.1822 18.6076 19.058 17.7862C18.9339 16.9648 19.4379 16.1833 20.2498 15.9388C20.2913 15.9264 20.3321 15.9122 20.373 15.8981L20.373 15.8981L20.373 15.8981ZM20.0235 39.4113H25.2169L25.2188 39.3845L25.2216 39.3497L25.2216 39.3496C25.2255 39.2999 25.2293 39.2527 25.2293 39.2055L25.2296 38.4486C25.2302 36.5556 25.2309 34.6625 25.2243 32.7694C25.2237 32.6631 25.1679 32.5304 25.0921 32.4555C23.9541 31.3217 22.8127 30.1913 21.6712 29.0608L21.6711 29.0607L21.6706 29.0602C21.2034 28.5976 20.7362 28.1349 20.2693 27.672C19.9986 27.4035 19.6846 27.2991 19.3183 27.4275C18.9825 27.5454 18.7895 27.7949 18.7448 28.1432C18.7063 28.4467 18.8317 28.6925 19.0465 28.9044C19.5804 29.4308 20.1131 29.9582 20.6459 30.4855L20.6471 30.4867C21.0827 30.9178 21.5183 31.349 21.9545 31.7797C21.9971 31.8219 22.0455 31.8585 22.0855 31.8887C22.1014 31.9007 22.1159 31.9116 22.1283 31.9216L21.1314 32.9064L21.1188 32.8951C21.0921 32.8711 21.0449 32.8287 20.9998 32.7841C20.7067 32.4942 20.4143 32.2037 20.1219 31.9132L20.1205 31.9118L20.1197 31.9111L20.119 31.9103L20.1182 31.9096L20.1174 31.9088C19.4497 31.2455 18.7821 30.5822 18.1067 29.9261C17.5773 29.4119 17.3333 28.8018 17.3364 28.0732C17.3433 26.4181 17.3414 24.763 17.3371 23.1085C17.3352 22.4658 16.743 22.0499 16.1615 22.2699C15.8194 22.3989 15.6078 22.703 15.6053 23.0925C15.6021 23.6149 15.6026 24.1373 15.6031 24.6594V24.6602C15.6033 24.8501 15.6034 25.04 15.6034 25.2299C15.6034 25.5993 15.6033 25.9688 15.6031 26.3382C15.6025 27.6927 15.6018 29.0472 15.6096 30.4016C15.6103 30.5491 15.6674 30.718 15.7524 30.8391C16.4269 31.7981 17.1039 32.7553 17.7809 33.7124L17.7811 33.7125C18.484 34.7063 19.1869 35.7 19.8869 36.6958C19.9676 36.8107 20.0142 36.9729 20.0166 37.1142C20.0265 37.686 20.0254 38.2575 20.0242 38.8392V38.8394V38.8395V38.8397V38.8398V38.8403C20.0238 39.0294 20.0235 39.2197 20.0235 39.4113ZM29.6847 31.9121L29.6854 31.9128L29.6947 31.922L29.6978 31.925L29.7033 31.9305C30.0684 32.2919 30.3788 32.5991 30.7215 32.9389C30.7342 32.9241 30.7473 32.908 30.7611 32.8911C30.7917 32.8534 30.8251 32.8123 30.8624 32.7749C31.1216 32.5181 31.3804 32.2608 31.6392 32.0035L31.6397 32.0031L31.6402 32.0026L31.6406 32.0022L31.6411 32.0017C32.343 31.304 33.045 30.6062 33.7543 29.9163C34.2707 29.4143 34.5184 28.8178 34.5146 28.1063C34.5112 27.4574 34.512 26.8085 34.5127 26.1595V26.1595C34.5131 25.8813 34.5134 25.6032 34.5134 25.3251C34.5134 25.1138 34.513 24.9026 34.5125 24.6914V24.6914V24.6913V24.6912V24.6911C34.5114 24.1513 34.5103 23.6118 34.5165 23.0722C34.5227 22.5328 34.9702 22.1562 35.5034 22.2219C35.9522 22.2772 36.2483 22.6421 36.2483 23.1527C36.2501 25.5893 36.2507 28.0259 36.2439 30.4624C36.2439 30.581 36.1905 30.7168 36.1204 30.8157C35.8349 31.221 35.5506 31.6271 35.2663 32.0332L35.2662 32.0333L35.2661 32.0335L35.2659 32.0338C34.3516 33.3397 33.4373 34.6457 32.4843 35.9235C31.9996 36.5742 31.7277 37.2168 31.8202 38.0271C31.8556 38.3379 31.8467 38.6537 31.8377 38.9722C31.8336 39.1164 31.8295 39.2612 31.8295 39.4064H26.623V39.168L26.6232 37.8943C26.6235 36.1964 26.6238 34.4988 26.6193 32.8007C26.6193 32.6416 26.6677 32.5329 26.7801 32.4217C28.0172 31.2024 29.2517 29.9806 30.4862 28.7587L30.4865 28.7584L31.5452 27.7107L31.5578 27.6982C31.6083 27.6482 31.6591 27.5977 31.7153 27.5546C32.1113 27.2524 32.6798 27.3427 32.9629 27.7512C33.2137 28.1137 33.159 28.5505 32.8102 28.8964C31.8376 29.8622 30.863 30.8268 29.8861 31.7882C29.8451 31.8288 29.7906 31.856 29.7423 31.8802L29.7422 31.8802C29.721 31.8908 29.7009 31.9008 29.6837 31.9111L29.6847 31.9121ZM18.7331 26.1569C19.9311 25.7429 20.8541 26.1582 21.6095 27.0594C22.4636 25.8964 22.7106 25.6667 23.7329 25.0861C22.6665 23.8475 22.5604 22.5303 23.4238 21.1234C23.1165 20.7517 22.7317 20.4636 22.2867 20.2553C22.2308 20.2295 22.1358 20.251 22.0725 20.2799C21.1737 20.6884 20.2781 20.6811 19.378 20.2805C19.306 20.2486 19.1937 20.2424 19.1254 20.2756C18.6313 20.5146 18.218 20.8537 17.8511 21.3483C17.8675 21.3574 17.8848 21.3658 17.9023 21.3742L17.9023 21.3742L17.9024 21.3743C17.9399 21.3924 17.9781 21.4107 18.0082 21.438C18.4849 21.8791 18.7319 22.4228 18.7325 23.071C18.7334 23.7721 18.7333 24.4732 18.7332 25.1743L18.7331 25.8762V26.1569ZM32.7095 20.2681C33.2142 20.5053 33.63 20.8512 33.9795 21.3169C33.3153 21.8612 33.0894 22.5554 33.1148 23.3719C33.1325 23.9566 33.1283 24.5423 33.1241 25.128L33.1241 25.128C33.1223 25.3848 33.1204 25.6415 33.1204 25.8982V26.1618C31.9094 25.744 30.9989 26.1673 30.2335 27.0698C29.7115 26.1876 29.0039 25.5382 28.1107 25.086C29.1982 23.7387 29.2721 22.7913 28.4366 21.1338C28.6619 20.8229 29.2168 20.3787 29.5514 20.2614C29.619 20.2374 29.7171 20.254 29.7866 20.2847C30.686 20.6859 31.5805 20.6847 32.478 20.2767C32.5438 20.2466 32.6468 20.2386 32.7095 20.2681ZM25.925 31.3084C25.951 31.284 25.9751 31.2618 25.9979 31.2409L25.998 31.2408C26.0372 31.2047 26.0725 31.1722 26.1063 31.1388C26.3642 30.8836 26.622 30.6283 26.8797 30.373C27.5956 29.6638 28.3114 28.9546 29.0316 28.2494C29.1552 28.1284 29.1868 28.0412 29.0962 27.882C28.401 26.6576 27.3539 25.9836 25.9319 25.9806C24.5086 25.9775 23.4602 26.6502 22.7625 27.8728C22.6781 28.0209 22.6806 28.1137 22.8122 28.2427C23.5462 28.9591 24.2747 29.681 25.0033 30.403C25.2538 30.6512 25.5042 30.8994 25.755 31.1474C25.7873 31.1794 25.8201 31.2101 25.8583 31.2458L25.8584 31.2459C25.8788 31.265 25.9008 31.2855 25.925 31.3084ZM25.9294 24.5873C24.9996 24.5897 24.2498 23.8488 24.2486 22.9266C24.2479 22.0051 24.9959 21.2592 25.9232 21.2574C26.8493 21.2556 27.6035 22.0014 27.6041 22.9205C27.6053 23.8439 26.8605 24.5848 25.9294 24.5873Z" fill="url(#paint2_linear_1343_10583)" shape-rendering="crispEdges"/>
</g>
</g>
<defs>
<filter id="filter0_b_1343_10583" x="-8" y="-7.0625" width="69" height="70" filterUnits="userSpaceOnUse" color-interpolation-filters="sRGB">
<feFlood flood-opacity="0" result="BackgroundImageFix"/>
<feGaussianBlur in="BackgroundImage" stdDeviation="4"/>
<feComposite in2="SourceAlpha" operator="in" result="effect1_backgroundBlur_1343_10583"/>
<feBlend mode="normal" in="SourceGraphic" in2="effect1_backgroundBlur_1343_10583" result="shape"/>
</filter>
<filter id="filter1_b_1343_10583" x="-1" y="0" width="55" height="54.4265" filterUnits="userSpaceOnUse" color-interpolation-filters="sRGB">
<feFlood flood-opacity="0" result="BackgroundImageFix"/>
<feGaussianBlur in="BackgroundImage" stdDeviation="4"/>
<feComposite in2="SourceAlpha" operator="in" result="effect1_backgroundBlur_1343_10583"/>
<feBlend mode="normal" in="SourceGraphic" in2="effect1_backgroundBlur_1343_10583" result="shape"/>
</filter>
<filter id="filter2_b_1343_10583" x="-8" y="-7" width="69" height="68.4265" filterUnits="userSpaceOnUse" color-interpolation-filters="sRGB">
<feFlood flood-opacity="0" result="BackgroundImageFix"/>
<feGaussianBlur in="BackgroundImage" stdDeviation="7.5"/>
<feComposite in2="SourceAlpha" operator="in" result="effect1_backgroundBlur_1343_10583"/>
<feBlend mode="normal" in="SourceGraphic" in2="effect1_backgroundBlur_1343_10583" result="shape"/>
</filter>
<filter id="filter3_d_1343_10583" x="11.6025" y="12.8737" width="28.647" height="31.5377" filterUnits="userSpaceOnUse" color-interpolation-filters="sRGB">
<feFlood flood-opacity="0" result="BackgroundImageFix"/>
<feColorMatrix in="SourceAlpha" type="matrix" values="0 0 0 0 0 0 0 0 0 0 0 0 0 0 0 0 0 0 127 0" result="hardAlpha"/>
<feOffset dy="1"/>
<feGaussianBlur stdDeviation="2"/>
<feComposite in2="hardAlpha" operator="out"/>
<feColorMatrix type="matrix" values="0 0 0 0 0.592157 0 0 0 0 0.0784314 0 0 0 0 0.301961 0 0 0 0.1 0"/>
<feBlend mode="normal" in2="BackgroundImageFix" result="effect1_dropShadow_1343_10583"/>
<feBlend mode="normal" in="SourceGraphic" in2="effect1_dropShadow_1343_10583" result="shape"/>
</filter>
<linearGradient id="paint0_linear_1343_10583" x1="37.1777" y1="-2.94322e-07" x2="13.4888" y2="53.677" gradientUnits="userSpaceOnUse">
<stop offset="0.508047" stop-color="white" stop-opacity="0.97"/>
<stop offset="1" stop-color="#FFFDFD" stop-opacity="0"/>
</linearGradient>
<linearGradient id="paint1_linear_1343_10583" x1="28.9643" y1="8" x2="26.5717" y2="46.4309" gradientUnits="userSpaceOnUse">
<stop offset="0.390595" stop-color="white"/>
<stop offset="1" stop-color="white" stop-opacity="0"/>
</linearGradient>
<linearGradient id="paint2_linear_1343_10583" x1="25.9261" y1="15.8737" x2="25.9728" y2="48.8081" gradientUnits="userSpaceOnUse">
<stop stop-color="white"/>
<stop offset="1" stop-color="white" stop-opacity="0.24"/>
</linearGradient>
<clipPath id="clip0_1343_10583">
<rect width="20.6471" height="23.5377" fill="white" transform="matrix(-1 0 0 1 36.25 15.8737)"/>
</clipPath>
</defs>
</svg>
