<svg width="54" height="57" viewBox="0 0 54 57" fill="none" xmlns="http://www.w3.org/2000/svg">
<g clip-path="url(#clip0_1061_12707)">
<path d="M20.7017 36.6748C21.9468 38.3387 23.7494 39.411 25.682 39.6698C26.9457 39.8362 28.2651 39.8178 29.5474 39.7993C29.9376 39.7993 30.3093 39.7808 30.6996 39.7993H30.7182C32.5393 39.7993 34.1933 39.1892 35.6242 37.9874C37.594 36.3235 38.5604 34.1235 38.4674 31.4797C38.4674 31.3318 38.486 30.8881 38.6904 30.8141C39.4524 30.5183 39.9913 29.9267 40.5302 29.3721C40.716 29.1687 40.9019 28.9838 41.0877 28.7804C41.4408 28.4477 41.7567 28.3183 42.1841 28.3183H42.2027C45.0088 28.3367 47.8521 28.3183 50.6024 28.3367H53.5015V26.7653H50.0264V12.4186H53.5015V10.8656H50.2679C47.6291 10.8656 44.8973 10.8656 42.2027 10.8656H42.1841C41.7196 10.8656 41.4036 10.7362 41.0877 10.3849C40.3444 9.60845 39.5639 8.85044 38.8205 8.11092C38.5232 7.81512 38.2259 7.51931 37.9285 7.2235C37.3896 6.68735 36.8507 6.1512 36.2932 5.59656C34.918 4.22845 33.4871 2.80488 32.0747 1.41829C31.2942 0.66028 30.2721 0.309009 29.2315 0.438425C28.228 0.56784 27.3731 1.14097 26.8528 2.02839C26.7599 2.17629 26.6855 2.34268 26.6112 2.50907C26.5555 2.58303 26.5183 2.65698 26.4811 2.74942L26.444 2.84186L26.351 2.78639C25.3475 2.17629 24.2511 2.02839 23.3034 2.36117C22.3556 2.67547 21.5937 3.45196 21.1663 4.50577L21.1291 4.57973L21.0362 4.54275C20.107 4.11753 19.5495 3.93265 19.0106 3.93265C18.7132 3.93265 18.4345 3.98811 18.1 4.08055C16.985 4.43182 16.1301 5.30076 15.8514 6.41003C15.5541 7.5378 15.87 8.72103 16.7248 9.57147C18.0814 10.9581 19.4752 12.3262 20.8318 13.6758C21.445 14.2859 22.0583 14.896 22.6715 15.5061C22.7644 15.5985 22.8388 15.6725 22.9317 15.7834C22.9874 15.8389 23.0432 15.9128 23.1175 15.9683L23.229 16.0792L22.8945 16.1532C22.7459 16.1902 22.6158 16.2271 22.5043 16.2456C20.0327 16.7448 18.2858 18.8339 18.2858 21.3113C18.2858 22.6979 18.2858 24.0845 18.2858 25.4896C18.2858 26.3216 18.2858 27.1535 18.2858 27.9855C18.2858 28.725 18.5274 29.3721 18.992 29.8897C19.2336 30.1486 19.3079 30.4259 19.2522 30.8141C18.8805 32.8293 19.4194 34.9554 20.7017 36.6748ZM42.9275 12.4741H44.7487L46.5141 12.4371C47.0716 12.4371 47.5362 12.4371 47.9822 12.4371C48.0565 12.4371 48.1123 12.4371 48.1866 12.4556L48.3538 12.4741V26.7283H42.9089V12.4741H42.9275ZM28.6926 37.9874C28.1536 38.1354 27.5961 38.2093 27.0386 38.2093C25.8865 38.2093 24.7714 37.895 23.7679 37.2849C22.2627 36.379 21.2406 34.9369 20.8503 33.2176C20.4415 31.4057 20.999 29.3351 22.2813 27.8376C23.5264 26.3955 25.3289 25.619 27.4103 25.619C27.5404 25.619 27.6705 25.619 27.8005 25.619V24.029C26.6484 24.1585 25.5334 24.2879 24.3812 24.4173L24.2697 24.4358V24.3249C24.2697 24.2694 24.2697 24.1954 24.2697 24.1215C24.2697 23.9366 24.2511 23.7148 24.2883 23.4929C24.3626 22.6979 24.9573 22.1803 25.7564 22.1803C28.6554 22.1618 31.6102 22.1618 34.5092 22.1803C35.3268 22.1803 35.9587 22.7904 35.9773 23.5668C35.9958 24.3618 35.3454 24.9719 34.4906 24.9904C33.9517 25.0089 33.4128 25.0089 32.8924 24.9904C32.5579 24.9904 32.2234 24.9904 31.8889 24.9904C30.2164 25.0089 28.897 26.3216 28.897 27.9855C28.897 29.6494 30.2164 30.962 31.8889 30.9805C32.1862 30.9805 32.465 30.9805 32.7437 30.9805H33.1526L33.1712 31.036C33.5428 32.1453 33.357 33.4764 32.6508 34.7705C31.7774 36.3605 30.3093 37.5622 28.6926 37.9874ZM36.8135 32.6075C36.8135 32.7738 36.7949 32.9217 36.7764 33.0697C36.7206 33.4579 36.4604 34.2344 36.2188 34.6966C35.4198 36.2311 34.2304 37.2849 32.5765 37.8765L32.2792 37.9874L32.8181 37.2664C33.1526 36.8227 33.4685 36.416 33.7844 35.9907C33.8588 35.8983 33.9145 35.7689 33.9703 35.658L34.0074 35.5655C34.249 35.2143 34.4348 34.7521 34.6021 34.1604C34.7879 33.4949 34.8994 32.7369 34.8994 31.9234V31.0175H36.7764V32.6075H36.8135ZM19.8468 21.4962C19.8654 19.2776 21.4264 17.7431 23.6379 17.7431C24.4369 17.7431 25.0316 17.6877 25.3104 16.9851C25.6077 16.2456 25.1989 15.7649 24.6414 15.2103C22.3928 12.9917 20.1628 10.7732 18.0257 8.6101C17.7283 8.2958 17.5053 7.92604 17.4124 7.55628C17.2266 6.83526 17.5611 6.09574 18.2487 5.74447C18.9177 5.41168 19.7167 5.52261 20.2557 6.05876C20.9247 6.72433 21.6123 7.38989 22.2627 8.05546L24.6042 10.3849C25.682 11.4572 26.7413 12.5111 27.8191 13.5834C27.9121 13.6758 27.9864 13.7497 28.0793 13.8422L28.1536 13.9161L29.343 12.7144C29.3244 12.7144 29.3058 12.6959 29.2872 12.6774C29.1571 12.6035 29.0271 12.5295 28.9156 12.4186C27.9678 11.4942 27.0386 10.5513 26.0909 9.60845C25.1431 8.66556 24.2139 7.74116 23.2662 6.79828C22.6901 6.20666 22.5229 5.55959 22.8016 4.83856C23.006 4.30241 23.4334 3.93265 23.9724 3.82172C24.5484 3.6923 25.1803 3.89567 25.6449 4.33938C27.4846 6.1512 29.3244 7.98151 30.904 9.57147C31.1084 9.77484 31.2757 9.97821 31.4615 10.2001C31.5358 10.274 31.5916 10.348 31.6659 10.4404L32.1677 9.92274C32.4092 9.6824 32.6508 9.42357 32.911 9.14625C32.8924 9.14625 32.8738 9.12776 32.8738 9.12776C32.7437 9.05381 32.6137 8.97986 32.5022 8.88742C31.0898 7.50082 29.8076 6.22515 28.5811 4.98646C27.8749 4.26543 27.8191 3.21162 28.4881 2.52756C28.8041 2.21327 29.2129 2.02839 29.6589 2.02839H29.6775C30.1606 2.02839 30.6252 2.23176 30.9969 2.60151C34.7136 6.28062 37.9843 9.55298 41.0134 12.585C41.1806 12.7514 41.3107 13.0472 41.3107 13.306C41.3293 17.4843 41.3293 21.6996 41.3107 25.8778C41.3107 26.1182 41.1806 26.414 41.0134 26.5989C40.586 27.0611 40.14 27.5048 39.694 27.93C39.3966 28.2258 39.0807 28.5216 38.7834 28.8359C38.4117 29.2057 37.9657 29.3906 37.4454 29.3906C36.5534 29.3906 35.6613 29.3906 34.7879 29.3906C33.8959 29.3906 33.0039 29.3906 32.1305 29.3906C31.6659 29.3906 31.2571 29.2426 30.9597 28.9838C30.6624 28.725 30.4951 28.3552 30.5137 27.967C30.5137 27.135 31.1827 26.5619 32.1305 26.5619C32.5207 26.5619 32.9296 26.5619 33.3198 26.5619C33.7473 26.5619 34.1933 26.5619 34.6207 26.5619C36.2932 26.5434 37.594 25.2123 37.594 23.5484C37.594 21.9214 36.256 20.5903 34.6393 20.5903C31.6659 20.5718 28.6368 20.5718 25.6635 20.5903C24.8458 20.5903 24.0653 20.9231 23.5078 21.5147C22.9874 22.0693 22.7087 22.7719 22.7459 23.5114C22.8016 24.7131 22.6158 25.6745 21.5008 26.451C21.1105 26.7098 20.8318 27.1165 20.5158 27.5418C20.3858 27.7451 20.2371 27.93 20.0698 28.1334L19.9398 28.2998L19.9212 28.0779C19.9212 28.0409 19.9212 28.004 19.9026 27.967C19.884 27.8745 19.884 27.7821 19.884 27.6897V26.0442C19.8283 24.5467 19.8282 23.0122 19.8468 21.4962Z" fill="#2A2A2A"/>
<path d="M1.39201 51.2423C2.20968 51.7784 2.93443 52.1482 3.62202 52.37C5.74053 53.0726 8.11921 53.239 10.8696 52.8877C12.2076 52.7213 13.75 52.4255 15.088 51.5011C15.9243 50.9465 16.2959 50.3364 16.2959 49.5599C16.2959 46.8791 16.2959 44.1984 16.2959 41.5176C16.2959 35.4905 16.2959 29.2601 16.2773 23.1406C16.2773 22.7339 16.1287 22.2532 15.8871 21.9759C14.7349 20.5338 13.0624 20.2195 11.297 19.8867H11.2598L11.0368 21.4582C11.0926 21.4767 11.1483 21.4767 11.2041 21.4952C11.3713 21.5321 11.5386 21.5506 11.6687 21.6061L12.1332 21.791C12.858 22.0683 13.6013 22.3456 14.3075 22.6784C14.5119 22.7708 14.642 22.9187 14.6606 23.1036C14.6792 23.2885 14.5491 23.4734 14.3261 23.6213L14.2889 23.6398C13.973 23.8247 13.6199 24.065 13.2111 24.1944C10.5908 25.1003 7.76613 25.2297 4.82994 24.5642C4.16094 24.4163 3.45477 24.1389 2.65568 23.7322C2.30259 23.5473 2.13534 23.3625 2.11676 23.1406C2.11676 22.9187 2.28401 22.7154 2.65568 22.512C3.1946 22.1977 3.78927 21.9943 4.29102 21.8095C4.64411 21.6985 4.99719 21.6061 5.36886 21.5321C5.49895 21.4952 5.62903 21.4767 5.75912 21.4397L5.51753 19.8867C4.01227 20.1456 2.80435 20.4783 1.72651 21.1809C0.890253 21.754 0.5 22.475 0.5 23.4549C0.518583 31.035 0.518583 39.2621 0.5 49.375C0.5 50.2254 0.797335 50.854 1.39201 51.2423ZM2.09818 25.3776L2.22826 25.4331C6.37237 26.9861 10.4236 26.9861 14.5863 25.4331L14.7163 25.3776V25.5071C14.7163 25.7659 14.7163 26.0247 14.7163 26.2651C14.7163 26.9491 14.7349 27.6517 14.6792 28.3542C14.6606 28.6315 14.3075 28.9828 14.0288 29.0937L13.8615 29.1677C13.0624 29.482 12.2262 29.8332 11.3713 29.9996C10.3678 30.203 9.36431 30.2954 8.3608 30.2954C6.96704 30.2954 5.57328 30.1106 4.19811 29.7223C4.03086 29.6668 3.88219 29.6114 3.73352 29.5559L3.65919 29.5189C2.20968 28.9828 2.09818 28.8164 2.09818 27.2819V25.3776ZM2.09818 30.6652L2.22826 30.7207C6.37237 32.2736 10.4236 32.2736 14.5863 30.7207L14.7163 30.6652V30.7946C14.7163 31.0534 14.7163 31.2938 14.7163 31.5526C14.7163 32.2182 14.7349 32.9207 14.6792 33.6048C14.6606 33.9006 14.3261 34.2519 14.0659 34.3628L13.9172 34.4182C13.0996 34.751 12.2633 35.1023 11.3899 35.2687C10.3864 35.4721 9.36431 35.583 8.3608 35.583C6.96704 35.583 5.57328 35.3981 4.17952 35.0099C3.97511 34.9544 3.77069 34.8804 3.60344 34.8065C2.22826 34.2703 2.11676 34.104 2.11676 32.6434V30.6652H2.09818ZM2.09818 35.9712L2.22826 36.0267C6.35379 37.5797 10.405 37.5797 14.5863 36.0267L14.7163 35.9712V36.1007C14.7163 36.3595 14.7163 36.6183 14.7163 36.8771C14.7163 37.5242 14.7349 38.1898 14.6792 38.8369C14.6606 39.1512 14.3447 39.5579 14.0288 39.6873C13.1367 40.0571 12.2447 40.4268 11.297 40.6117C10.2935 40.7966 9.30855 40.889 8.32363 40.889C6.94846 40.889 5.61045 40.7041 4.29102 40.3344C4.10519 40.2789 3.90077 40.2235 3.71494 40.1495C2.20968 39.5949 2.09818 39.4285 2.09818 37.8385V35.9712ZM2.09818 41.2588L2.22826 41.3143C6.35379 42.8672 10.3864 42.8672 14.5677 41.3327L14.6978 41.2773V41.4067C14.6978 41.6655 14.6978 41.9244 14.6978 42.1832C14.7163 42.8672 14.7163 43.5883 14.6606 44.2908C14.6234 44.6236 14.1588 44.9749 13.8429 45.0858L13.5827 45.1782C12.5978 45.511 11.5757 45.8623 10.5536 46.0102C9.79172 46.1211 9.04839 46.1766 8.30505 46.1766C6.92987 46.1766 5.5547 45.9917 4.19811 45.6035C4.03086 45.548 3.84502 45.4925 3.71494 45.4371C2.20968 44.8824 2.07959 44.716 2.07959 43.1446V41.2588H2.09818ZM2.09818 46.5463L2.22826 46.6018C6.35379 48.1548 10.3864 48.1548 14.5863 46.6203L14.7163 46.5648V46.6942C14.7163 46.9531 14.7163 47.2119 14.7163 47.4707C14.7349 48.1363 14.7349 48.8388 14.6792 49.5229C14.6606 49.8187 14.2518 50.207 13.9544 50.3179L13.5456 50.4658C12.5607 50.7986 11.5386 51.1498 10.5165 51.3162C9.79172 51.4272 9.04839 51.4826 8.32363 51.4826C6.96704 51.4826 5.62903 51.2977 4.29102 50.9095C4.12377 50.8725 3.93794 50.7986 3.7521 50.7431C2.24684 50.1885 2.13534 50.0221 2.13534 48.4506V46.5463H2.09818Z" fill="#2A2A2A"/>
<path d="M35.9013 54.1088C36.5703 54.5525 37.3508 55.0332 38.2057 55.3105C40.3428 56.013 42.7214 56.1979 45.4904 55.8466C46.6983 55.6987 48.2593 55.4029 49.6159 54.534C50.5451 53.9424 50.9539 53.2029 50.9167 52.2045C50.8796 51.0583 50.8796 49.8935 50.8982 48.7658C50.8982 48.2666 50.8982 47.7859 50.8982 47.2867C50.8982 46.7876 50.8982 46.2884 50.8982 45.7707C50.8982 44.569 50.8982 43.3303 50.8982 42.0916C50.8982 41.3706 50.6566 40.8159 50.1734 40.4832C49.5416 40.0394 48.8726 39.5773 48.1478 39.3369C46.624 38.8008 44.97 38.5234 43.1674 38.5234C42.2754 38.5234 41.3463 38.5974 40.3799 38.7268C39.1906 38.8932 37.6667 39.189 36.3101 40.0764C35.4553 40.6311 35.0651 41.3521 35.0836 42.332C35.1208 45.6968 35.1022 49.117 35.0836 52.4264C35.1208 53.2029 35.381 53.776 35.9013 54.1088ZM37.1278 41.5C37.9269 41.0933 38.8003 40.705 39.6923 40.5016C40.4728 40.3168 41.2719 40.2428 41.9223 40.1874C42.1639 40.1689 42.3869 40.1504 42.5728 40.1134H42.5914C44.7842 40.1874 46.4753 40.2983 48.0735 41.0378C48.3894 41.1857 48.6496 41.426 48.9097 41.6479C49.0212 41.7588 49.1513 41.8513 49.2628 41.9437L49.3557 42.0177L49.2628 42.0916C49.1327 42.1841 49.0212 42.2765 48.9097 42.3874C48.6496 42.6093 48.3894 42.8311 48.0735 42.9605C46.6611 43.5522 45.0815 43.848 43.3904 43.848C42.9259 43.848 42.4427 43.8295 41.9595 43.774C40.8817 43.6816 39.8038 43.4227 38.7632 43.1824L38.2242 43.053C37.834 42.9605 37.4623 42.7202 37.1278 42.4799C36.8491 42.295 36.7376 42.1101 36.7376 41.9252C36.7376 41.7588 36.8676 41.6294 37.1278 41.5ZM36.719 44.2362L36.8491 44.2917C40.9932 45.8447 45.0258 45.8447 49.2071 44.2917L49.3371 44.2362V44.3656C49.3371 44.6245 49.3371 44.8833 49.3371 45.1236C49.3371 45.7892 49.3557 46.3993 49.3 47.0464C49.2814 47.3792 48.9841 47.7859 48.6867 47.9153C47.8319 48.2666 46.8841 48.6733 45.9178 48.8582C44.9143 49.0431 43.9294 49.1355 42.9444 49.1355C41.5693 49.1355 40.2313 48.9506 38.9118 48.5809L38.7817 48.5439C38.6702 48.5069 38.5402 48.47 38.4287 48.433C36.8677 47.8968 36.719 47.675 36.719 46.0295V44.2362ZM36.719 49.5423L36.8491 49.5977C40.9932 51.1507 45.0444 51.1507 49.2071 49.5977L49.3371 49.5423V49.6717C49.3371 49.9305 49.3371 50.1893 49.3371 50.4297C49.3371 51.0952 49.3557 51.7238 49.3 52.3524C49.2814 52.6667 48.9841 53.0919 48.6867 53.2214C47.8505 53.5726 46.8841 53.9794 45.9178 54.1642C44.9329 54.3491 43.9479 54.4416 42.9816 54.4416C41.5878 54.4416 40.1941 54.2567 38.8189 53.8684C38.6888 53.8315 38.5773 53.7945 38.4472 53.739C36.8862 53.1844 36.7376 52.981 36.7376 51.3356V49.5423H36.719Z" fill="#2A2A2A"/>
<path d="M12.5802 17.7057C14.2713 17.7057 15.7765 16.541 16.111 14.9695C16.2597 14.2485 16.2783 13.4905 16.2969 12.6955C16.2969 12.3812 16.3155 12.0484 16.334 11.7341H14.2155C13.0819 11.7341 12.0599 12.1409 11.3537 12.8619C10.6475 13.5829 10.2573 14.5813 10.2944 15.6721C10.313 16.4855 10.0343 17.0032 9.32809 17.4469L9.198 17.5393V17.3729C9.198 16.8738 9.198 16.3746 9.198 15.8754C9.21659 14.6922 9.21659 13.5829 9.16084 12.4552C9.12367 11.5123 9.40242 10.8652 10.09 10.1811C11.5395 8.73907 12.097 6.94574 11.7625 4.80114C11.428 2.82293 10.09 1.56575 8.80775 0.327057C8.69625 0.234617 8.58475 0.12369 8.47325 0.03125C8.25025 0.234617 8.02725 0.437985 7.80424 0.622864C7.28391 1.08506 6.78215 1.52877 6.35473 2.02795C5.16539 3.43303 4.73797 5.07846 5.03531 6.94574C5.25831 8.29536 5.90873 9.4601 7.02374 10.5324C7.06091 10.5694 7.09807 10.6064 7.13524 10.6433C7.33966 10.8282 7.58124 11.0501 7.58124 11.2719C7.61841 12.3257 7.61841 13.4165 7.59983 14.4703C7.59983 14.8401 7.59983 15.2099 7.59983 15.5796V15.7275L7.46974 15.6536C6.65207 15.2283 6.5034 14.5998 6.52199 13.7678C6.55915 11.956 5.31406 10.4215 3.5858 10.1072C2.89821 9.97777 2.19204 9.97777 1.4487 9.95928C1.15137 9.95928 0.83545 9.95928 0.519531 9.94079V12.2518C0.519531 12.9913 0.742533 13.6938 1.18854 14.3224C1.95046 15.4132 2.95396 15.9494 4.1433 15.9494C4.23622 15.9494 4.34772 15.9494 4.44064 15.9494C5.22114 15.9494 5.76006 16.2082 6.22465 16.7813C6.3919 16.9847 6.59632 17.1881 6.78215 17.3729C6.94941 17.5393 7.13524 17.7057 7.28391 17.8906C7.46974 18.094 7.58124 18.3713 7.58124 18.6116C7.59983 19.5175 7.59983 20.4419 7.59983 21.3479C7.59983 21.7546 7.59983 22.1798 7.59983 22.5865C7.59983 22.716 7.59983 22.8454 7.61841 22.9748V23.0303H9.17942C9.17942 22.9378 9.17942 22.8454 9.17942 22.7529C9.198 22.4941 9.198 22.2538 9.16084 22.0319C8.93783 20.6083 9.38384 19.4991 10.5918 18.5192C11.1864 18.0385 11.6696 17.7612 12.4129 17.7612C12.4873 17.7057 12.543 17.7242 12.5802 17.7057ZM4.92381 14.2855L4.86806 14.3039C4.66364 14.3594 4.45922 14.3779 4.27339 14.3779C3.79022 14.3779 3.3628 14.23 2.99113 13.9157C2.37788 13.435 2.06196 12.6215 2.11771 11.6971V11.6232H2.19204C3.0283 11.5308 3.73447 11.7156 4.21764 12.1778C4.71939 12.64 4.96098 13.3611 4.92381 14.2485V14.2855ZM8.45466 9.51557L8.39891 9.55254L8.34316 9.51557C7.19099 8.64664 6.54057 7.33399 6.54057 5.89193C6.54057 4.46836 7.19099 3.1742 8.34316 2.30527L8.39891 2.26829L8.45466 2.30527C9.60684 3.1742 10.2573 4.48685 10.2573 5.92891C10.2573 7.35248 9.58825 8.66512 8.45466 9.51557ZM11.9669 16.1158H11.8926V16.0418C11.8183 15.1544 12.0413 14.4519 12.5244 13.9712C12.9519 13.5459 13.5279 13.3426 14.2341 13.3426C14.3456 13.3426 14.4385 13.3426 14.55 13.3611H14.6244V13.435C14.7916 14.1745 14.6244 14.8586 14.1598 15.3762C13.7138 15.8754 13.0448 16.1343 12.2829 16.1343C12.1714 16.1343 12.0784 16.1343 11.9669 16.1158Z" fill="#2A2A2A"/>
<path d="M26.685 36.2301C26.7594 36.2301 26.8337 36.2301 26.908 36.2301V34.6956C25.3656 34.4922 24.4736 33.6233 24.2506 32.0703H22.7268C22.6524 33.0502 23.0984 34.1225 23.9533 34.9729C24.7524 35.7679 25.7559 36.2301 26.685 36.2301Z" fill="#2A2A2A"/>
</g>
<defs>
<clipPath id="clip0_1061_12707">
<rect width="53" height="56" fill="white" transform="translate(0.5 0.03125)"/>
</clipPath>
</defs>
</svg>
