<svg width="365" height="133" viewBox="0 0 365 133" fill="none" xmlns="http://www.w3.org/2000/svg">
<path d="M190.302 126.761C199.783 120.341 227.276 110.508 261.406 122.533C295.536 134.558 313.718 129.737 321.845 126.761C339.113 120.436 351.099 122.251 364.507 126.761M180.144 126.761C171.341 125.352 148.452 121.594 127.324 117.836C100.914 113.139 64.039 119.057 47.078 122.533C29.8099 126.072 10.6795 123.942 0.860352 122.533" stroke="url(#paint0_linear_644_4306)" stroke-width="3"/>
<path d="M125.233 56.9136H128.845L114.33 132.337H113.362L125.233 56.9136Z" fill="#312E63"/>
<path d="M128.844 56.9136H127.038L117.055 118.176L128.844 56.9136Z" fill="#232056"/>
<path d="M111.266 56.9261C111.266 56.094 111.94 55.4194 112.772 55.4194H226.494C227.326 55.4194 228 56.094 228 56.9261C228 57.7582 227.326 58.4328 226.494 58.4328H112.772C111.94 58.4328 111.266 57.7582 111.266 56.9261Z" fill="#312E63"/>
<path d="M213.158 56.8418H209.546L224.061 132.265H225.028L213.158 56.8418Z" fill="#312E63"/>
<path d="M176.907 88.5646V85.3673V70.814C176.907 62.8209 191.841 62.8209 207.821 62.8209C208.58 56.0458 209.397 40.6001 213.284 39.4857C228.788 35.0409 232.208 40.3529 230.789 52.0247C226.236 89.4781 221.295 88.5646 216.97 88.5646H176.907Z" fill="#F47920"/>
<rect width="4.19249" height="38.2565" transform="matrix(-1 0 0 1 199.833 87.1255)" fill="#312E63"/>
<path d="M199.833 125.382H195.641L199.833 87.1255V125.382Z" fill="#232056"/>
<path d="M199.779 125.382H195.664C194.521 126.539 191.549 127.465 188.12 127.928C184.463 128.422 181.491 128.391 181.491 132.326H214.638C214.638 128.391 212.809 128.391 207.551 127.928C203.345 127.558 200.617 126.076 199.779 125.382Z" fill="#232056"/>
<path d="M163.018 53.7681H182.408V55.4201H163.018V53.7681Z" fill="#FE8100"/>
<path d="M163.047 54.8164H182.437V55.4715H163.047V54.8164Z" fill="#FF7301"/>
<path d="M163.047 53.7681H182.437V54.2921H163.047V53.7681Z" fill="#FF7301"/>
<path d="M148.443 38.3084C147.848 35.2239 150.211 32.3613 153.353 32.3613H158.373C160.769 32.3613 162.828 34.0614 163.282 36.4143L165.801 49.473C166.396 52.5575 164.033 55.4201 160.892 55.4201H155.872C153.475 55.4201 151.416 53.72 150.962 51.3671L148.443 38.3084Z" fill="#FE8100"/>
<path d="M152.358 55.4203H166.582C166.772 55.4203 166.914 55.2474 166.878 55.0612C166.851 54.9191 166.727 54.8164 166.582 54.8164H151.627C151.695 55.167 152.001 55.4203 152.358 55.4203Z" fill="#FF7301"/>
<path d="M166.781 54.2921L162.722 33.4964C162.593 32.8371 162.015 32.3613 161.344 32.3613L165.667 54.2921H166.781Z" fill="#FF7301"/>
<ellipse cx="156.289" cy="42.981" rx="0.673001" ry="1.89972" transform="rotate(-10.1693 156.289 42.981)" fill="#FFDD79"/>
<path d="M179.452 122.261C183.219 120.074 179.704 114.04 179.704 114.04L189.349 109.379C189.349 109.379 189.554 113.872 191.161 117.531C192.058 119.572 193.386 123.589 193.306 125.125C192.902 127.998 177.124 129.946 179.452 122.261Z" fill="#FDCBB4"/>
<path d="M189.35 109.379C189.35 109.379 189.555 113.872 191.163 117.532C192.059 119.572 193.388 123.589 193.307 125.125C193.275 125.352 193.148 125.572 192.942 125.783C192.935 123.917 192.002 119.683 191.139 118.779C190.277 117.876 190.269 115.964 189.811 116.341C188.697 117.258 184.243 117.532 181.164 118.503C180.723 116.98 179.706 114.04 179.706 114.04L189.35 109.379Z" fill="#F1A089"/>
<path d="M168.787 129.486C170.924 128.472 175.927 124.255 179.58 122.175C181.588 123.028 182.051 125.438 182.873 126.386C183.695 127.333 184.133 128.013 188.818 126.807C193.503 125.601 192.957 125.32 193.327 125.12C193.696 124.919 194.127 126.389 193.831 126.465C193.697 126.5 189.416 127.805 184.634 128.46C178.608 130.491 172.259 132.047 171.142 132.305C169.108 132.776 167.126 130.388 168.787 129.486Z" fill="black"/>
<path d="M147.887 120.776C152.203 121.143 152.798 111.757 152.798 111.757L163.925 116.007C163.925 116.007 161.696 119.809 160.329 123.663C159.584 125.765 158.821 129.879 157.854 131.075C155.702 133.482 142.927 125.819 147.887 120.776Z" fill="#FDCBB4"/>
<path d="M163.925 116.007C163.925 116.007 161.696 119.808 160.329 123.663C159.584 125.764 158.821 129.879 157.854 131.075C157.621 131.086 157.382 131.087 157.137 131.079C159.623 128.571 158.813 124.989 159.547 123.644C160.095 122.638 162.693 118.977 160.528 119.093C158.796 119.186 156.139 116.145 152.208 115.425C152.422 114.377 152.798 112.215 152.798 112.215L163.925 116.007Z" fill="#F1A089"/>
<path d="M135.396 120.511C137.719 120.95 143.311 120.336 148.345 120.77C149.466 122.637 148.425 124.852 148.533 126.1C148.641 127.347 148.732 128.028 153.228 129.81C157.724 131.592 157.448 131.045 157.864 131.1C158.281 131.156 157.765 132.594 157.481 132.481C157.197 132.369 137.565 124.984 135.644 124.167C133.722 123.351 133.523 120.261 135.396 120.511Z" fill="black"/>
<path d="M180.193 27.4719C180.499 28.2991 179.789 31.1946 179.66 31.8365H183.928C185.603 29.7826 183.942 27.9853 185.616 28.1137C187.29 28.242 185.745 26.5732 186.904 26.83C188.063 27.0867 187.065 25.0316 187.451 25.4167C188.095 26.0586 189.05 26.1453 189.351 26.0597C188.922 25.589 187.831 24.468 186.904 23.7491C185.745 22.8506 185.358 24.2626 184.457 23.4924C183.298 22.5938 182.911 24.0059 182.267 23.7491C181.623 23.4924 179.472 25.5206 180.193 27.4719Z" fill="#FBCBB8"/>
<path d="M180.193 27.4719C180.499 28.2991 179.789 31.1946 179.66 31.8365H183.928C184.073 31.6595 184.192 31.4845 184.291 31.3124H180.114C180.298 30.4553 180.542 28.7247 180.311 27.7095C179.773 25.3512 181.49 23.6284 182.21 23.8445C182.865 24.0411 183.521 22.7309 184.372 23.5825C185.027 24.2376 186.206 23.1239 186.861 23.8445C187.286 24.3115 188.696 25.5014 189.318 26.0678C189.33 26.0653 189.341 26.0626 189.351 26.0597C188.922 25.589 187.831 24.468 186.904 23.7491C185.745 22.8506 185.358 24.2626 184.457 23.4924C183.298 22.5938 182.911 24.0059 182.267 23.7491C181.623 23.4924 179.472 25.5206 180.193 27.4719Z" fill="#F1A089"/>
<path d="M186.468 26.8581L185.354 25.8755" stroke="#F1A089"/>
<path d="M187.451 25.3514L186.6 24.6963" stroke="#F1A089"/>
<path d="M184.651 42.888C186.469 35.8331 188.434 29.1513 189.448 28.8608L189.45 28.8648C191.649 33.342 195.491 41.1649 192.326 47.3025C188.369 54.9767 177.346 59.0537 176.267 51.1396C175.403 44.8084 176.446 42.7114 177.708 31.7387H184.501C184.621 35.2161 184.651 39.2395 184.651 42.888Z" fill="#EDF9FF"/>
<path d="M184.502 32.5249H177.578" stroke="white" stroke-width="2"/>
<path d="M184.65 41.4009C184.652 41.9017 184.652 42.3981 184.652 42.8877C184.815 42.2566 184.979 41.6286 185.143 41.0078C184.979 42.9512 184.372 47.1786 183.26 48.5412C184.046 47.1262 184.514 43.1914 184.65 41.4009Z" fill="#154D83"/>
<path d="M180.31 48.3444C181.882 48.7376 183.729 49.2282 184.656 49.8512C184.364 50.492 185.011 53.4179 184.656 54.4362C180.677 53.7225 181.522 51.489 180.677 52.1132C179.384 53.0683 178.257 53.3137 177.296 53.7225C174.349 53.7225 174.283 53.7817 173.169 53.7817C174.283 50.8338 178.457 47.8808 180.31 48.3444Z" fill="#FBCBB8"/>
<path d="M184.656 54.4359C180.677 53.7223 181.522 51.4887 180.677 52.113C179.384 53.0681 178.257 53.3135 177.296 53.7223L176.969 53.7225C180.769 52.5501 180.677 50.8335 181.031 51.6851C182.446 53.8862 183.629 54.0871 184.044 53.9124L183.913 49.4539C184.198 49.58 184.45 49.7122 184.656 49.851C184.364 50.4918 185.011 53.4177 184.656 54.4359Z" fill="#F1A089"/>
<path d="M174.414 53.6861C175.397 52.6027 176.117 51.8166 177.493 50.965" stroke="#F1A089"/>
<path d="M189.023 22.6252C191.23 25.1193 191.302 27.7414 191.062 28.7406C186.865 39.0529 199.296 29.6999 201.734 22.6252C201.734 22.6252 195.837 20.1762 195.575 19.2592C195.313 18.3422 193.82 20.227 189.023 22.6252Z" fill="#FBCBB8"/>
<path d="M195.574 19.2592C195.312 18.3422 193.819 20.227 189.022 22.6252C190.137 24.0412 190.399 24.4998 190.792 25.6789C192.926 25.4169 195.125 21.8228 195.836 19.6C195.694 19.4722 195.602 19.357 195.574 19.2592Z" fill="#F1A089"/>
<path d="M211.687 28.7375C214.265 33.8933 218.442 56.4456 221.04 63.6802C213.126 64.8393 193.1 67.4245 190.606 67.0408C188.923 56.0091 188.248 29.3401 189.447 28.8605C190.047 28.6207 191.128 28.3774 191.128 28.3774C189.45 36.0517 198.682 26.8219 201.68 22.6251C204.797 22.2654 209.948 25.2601 211.687 28.7375Z" fill="#EDF9FF"/>
<path d="M202.387 22.666C199.046 28.3777 188.565 36.8812 190.596 28.4962" stroke="white" stroke-width="2"/>
<path d="M190.137 56.9263L188.913 32.6885C188.699 38.1081 188.965 48.3094 189.577 56.9263H190.137Z" fill="#154D83"/>
<path d="M198.327 46.7731C197.174 46.878 192.234 47.9522 189.155 48.2143C189.283 51.4624 189.376 54.1406 189.601 57.2544C203.738 59.8092 214.769 59.1541 214.769 55.8132C213.852 28.2346 206.974 25.6142 203.371 26.7933C194.069 29.9377 199.768 46.6421 198.327 46.7731Z" fill="#154D83"/>
<path d="M188.304 23.9558C184.008 24.6587 183.049 14.363 184.008 8.24756C186.886 8.36747 195.98 8.96201 196.817 12.4444C198.201 18.2001 194.899 22.8765 188.304 23.9558Z" fill="#FBCBB8"/>
<path d="M184.008 8.24756C186.886 8.36747 195.98 8.96201 196.817 12.4444C197.483 15.2117 197.065 17.7296 195.718 19.7181C195.273 18.8665 194.854 17.8838 195.181 17.3598C196.95 14.6085 197.278 13.1673 195.509 12.5122C193.74 11.8571 195.312 15.4601 194.657 15.4601C192.216 15.198 192.365 11.4641 190.727 12.4444C187.635 14.4864 184.741 14.2576 183.68 13.8879C183.627 11.9021 183.746 9.91874 184.008 8.24756Z" fill="#F1A089"/>
<path d="M181.513 11.13C180.788 6.3199 184.494 5.45917 186.611 5.67152C187.337 4.14261 189.827 2.57815 191.373 2.82134C195.026 3.39615 196.028 6.20979 196.344 7.44796C201.004 10.2142 198.285 14.8323 197.204 16.0388C197.11 16.3062 196.675 18.2875 196.005 19.7604C195.21 19.028 195.435 18.2573 195.332 17.6953C195.204 16.9928 196.078 16.6431 196.754 14.7212C197.43 12.7994 195.596 11.8727 194.747 12.419C193.897 12.9652 195.227 15.5925 194.391 15.2986C192.14 14.2249 192.952 10.8486 190.236 12.4286C186.34 14.6956 181.99 14.3026 181.513 11.13Z" fill="#154D83"/>
<path d="M190.236 12.4297C186.34 14.6967 181.99 14.3037 181.513 11.1312C181.246 9.35784 181.581 8.1213 182.216 7.2774C181.379 12.7312 187.214 12.9847 190.236 12.4297Z" fill="#312E63"/>
<path d="M214.669 87.6137C228.129 84.4214 224.46 70.7154 220.943 64.0649C202.501 64.73 164.772 62.232 166.189 72.1466C166.759 76.1369 171.353 116.194 171.924 120.469C177.624 118.045 192.362 116.276 194.459 113.132C192.297 106.646 186.336 95.5754 183.126 85.6838C193.28 86.3388 205.771 89.6658 214.669 87.6137Z" fill="black"/>
<path d="M220.943 64.0649C224.287 70.3879 227.768 83.0884 216.535 87.0676C207.495 87.4688 182.144 83.9806 180.899 83.9806C181.358 86.0768 191.315 110.773 192.363 112.411C190.791 114.376 176.576 115.817 171.707 118.503" stroke="#4B4FE2" stroke-width="2"/>
<path d="M214.669 87.6137C228.129 84.4215 224.46 70.7154 220.943 64.0649C202.501 64.73 164.772 62.232 166.189 72.1466C166.759 76.1369 171.158 114.752 171.728 119.027L176.379 84.5046L183.387 86.4699C183.298 86.2081 183.211 85.946 183.126 85.6838C193.28 86.3389 205.771 89.6658 214.669 87.6137Z" fill="#09125A"/>
<path d="M214.678 87.863C228.38 86.0473 224.46 70.712 220.946 64.0651C192.101 64.065 176.261 63.746 168.649 66.4246C165.112 67.6693 161.509 70.9446 148.801 113.59C148.587 114.306 153.452 114.18 158.168 117.062C162.884 119.944 168.232 122.177 170.731 121.784C170.731 121.784 173.89 95.248 175.462 83.0636C187.035 86.4383 202.451 89.4834 214.678 87.863Z" fill="black"/>
<path d="M149.468 111.231C151.931 112.039 157.278 114.022 158.955 115.489C160.632 116.957 166.466 118.809 169.174 119.551L174.48 80.5084C180.579 83.0195 197.156 87.7404 214.678 86.5351C227.017 85.6863 223.938 71.5993 219.484 64.0645" stroke="#4B4FE2" stroke-width="2"/>
<path d="M175.463 83.0635C175.393 83.6076 175.32 84.1764 175.245 84.7666C174.609 82.5393 173.648 77.0367 171.008 73.3027C173.563 75.792 175.07 80.1111 176.249 83.2904C175.985 83.215 175.723 83.1393 175.463 83.0635Z" fill="#031677"/>
<path d="M207.674 27.5853C201.011 23.5304 198.366 31.509 198.801 35.7392C199.16 39.2343 201.076 47.6817 200.521 47.728C199.37 47.8239 190.857 48.279 184.453 48.6117V55.3689C208.348 59.8083 213.878 57.8431 213.878 54.4452C213.878 52.044 213.261 30.9851 207.674 27.5853Z" fill="#EDF9FF"/>
<path d="M185.37 55.5004C185.37 53.2941 185.37 50.2511 185.37 48.6123" stroke="white" stroke-width="2"/>
<path d="M183.944 88.5518L183.354 86.4556H197.999C201.794 85.3644 202.069 82.3594 202.871 79.8429C206.971 66.9904 210.317 62.1708 219.883 60.7937C224.984 60.0592 228.731 58.6516 229.967 58.0396C225.137 89.3783 220.931 88.5642 216.857 88.5642C213.395 88.5642 208.801 88.5518 183.944 88.5518Z" fill="#F18F48"/>
<path d="M106.025 132.326H261.41" stroke="#232056"/>
<g clip-path="url(#clip0_644_4306)">
<path d="M164.715 29.2931C164.683 29.2854 164.66 29.26 164.656 29.2289C164.639 29.1065 164.595 28.7937 164.568 28.5994C164.564 28.5727 164.525 28.5731 164.522 28.5998L164.434 29.2289C164.429 29.26 164.406 29.2854 164.375 29.293C164.296 29.3123 164.144 29.3493 164.046 29.3732C164.022 29.379 164.022 29.4125 164.046 29.4182C164.144 29.4422 164.296 29.4791 164.375 29.4984C164.406 29.506 164.429 29.5314 164.434 29.5625L164.522 30.1915C164.525 30.2182 164.564 30.2182 164.568 30.1915L164.656 29.5625C164.66 29.5314 164.683 29.506 164.715 29.4984C164.793 29.4791 164.945 29.4421 165.043 29.4182C165.067 29.4124 165.067 29.3789 165.043 29.3731L164.715 29.2931Z" fill="white"/>
<path d="M164.434 29.5625L164.522 30.1915C164.525 30.2182 164.564 30.2182 164.568 30.1915L164.65 29.6021C164.526 29.465 164.467 29.3013 164.439 29.189L164.434 29.2289C164.429 29.26 164.406 29.2854 164.375 29.293C164.296 29.3123 164.144 29.3493 164.046 29.3732C164.022 29.379 164.022 29.4125 164.046 29.4182C164.144 29.4422 164.296 29.4792 164.375 29.4984C164.406 29.506 164.429 29.5314 164.434 29.5625Z" fill="white"/>
</g>
<mask id="path-55-inside-1_644_4306" fill="white">
<path fill-rule="evenodd" clip-rule="evenodd" d="M151.961 13.2935C148.29 13.2935 145.314 16.2693 145.314 19.9401C145.314 23.328 147.849 26.1239 151.126 26.5348C153.711 27.2664 153.717 29.3204 153.547 29.8583C154.696 28.8487 155.155 26.9437 154.676 26.5231H153.476C156.709 26.0733 159.199 23.2974 159.199 19.9401C159.199 16.2693 156.223 13.2935 152.552 13.2935H151.961Z"/>
</mask>
<path fill-rule="evenodd" clip-rule="evenodd" d="M151.961 13.2935C148.29 13.2935 145.314 16.2693 145.314 19.9401C145.314 23.328 147.849 26.1239 151.126 26.5348C153.711 27.2664 153.717 29.3204 153.547 29.8583C154.696 28.8487 155.155 26.9437 154.676 26.5231H153.476C156.709 26.0733 159.199 23.2974 159.199 19.9401C159.199 16.2693 156.223 13.2935 152.552 13.2935H151.961Z" fill="white"/>
<path d="M151.126 26.5348L151.398 25.5726L151.325 25.552L151.25 25.5426L151.126 26.5348ZM153.547 29.8583L152.593 29.5568L151.512 32.9767L154.207 30.6097L153.547 29.8583ZM154.676 26.5231L155.336 25.7717L155.052 25.5231H154.676V26.5231ZM153.476 26.5231L153.338 25.5326L153.476 27.5231V26.5231ZM146.314 19.9401C146.314 16.8216 148.843 14.2935 151.961 14.2935V12.2935C147.738 12.2935 144.314 15.717 144.314 19.9401H146.314ZM151.25 25.5426C148.468 25.1936 146.314 22.8175 146.314 19.9401H144.314C144.314 23.8385 147.231 27.0541 151.001 27.527L151.25 25.5426ZM150.853 27.497C151.88 27.7875 152.283 28.2935 152.458 28.6805C152.554 28.8922 152.595 29.1011 152.606 29.2757C152.617 29.4638 152.59 29.5656 152.593 29.5568L154.5 30.1599C154.66 29.6535 154.684 28.7518 154.281 27.8578C153.849 26.9004 152.957 26.0137 151.398 25.5726L150.853 27.497ZM154.207 30.6097C154.951 29.956 155.439 29.0517 155.679 28.2598C155.8 27.8609 155.872 27.4426 155.863 27.0544C155.854 26.7194 155.777 26.1599 155.336 25.7717L154.016 27.2744C153.813 27.0966 153.859 26.9329 153.863 27.105C153.866 27.2239 153.842 27.4238 153.765 27.6799C153.608 28.198 153.292 28.7511 152.887 29.107L154.207 30.6097ZM154.676 25.5231H153.476V27.5231H154.676V25.5231ZM158.199 19.9401C158.199 22.7915 156.084 25.1506 153.338 25.5326L153.614 27.5135C157.335 26.996 160.199 23.8033 160.199 19.9401H158.199ZM152.552 14.2935C155.671 14.2935 158.199 16.8216 158.199 19.9401H160.199C160.199 15.717 156.775 12.2935 152.552 12.2935V14.2935ZM151.961 14.2935H152.552V12.2935H151.961V14.2935Z" fill="#EBEBEB" mask="url(#path-55-inside-1_644_4306)"/>
<path d="M156.676 16.6574V19.5562C156.676 22.1962 154.883 24.4981 152.322 25.1463C149.765 24.5003 147.973 22.1962 147.973 19.5562V16.6574C149.986 16.4306 151.126 15.6648 152.324 14.7705C153.522 15.6648 154.662 16.4306 156.676 16.6574Z" fill="#FFD15C"/>
<path d="M152.323 24.0017C150.396 23.3898 149.071 21.6014 149.071 19.5561V17.5922C150.425 17.297 151.42 16.7515 152.323 16.1289C153.245 16.7686 154.221 17.3034 155.575 17.5944V19.5583C155.575 21.6014 154.251 23.3898 152.323 24.0017Z" fill="#F8B64C"/>
<g clip-path="url(#clip1_644_4306)">
<mask id="path-59-inside-2_644_4306" fill="white">
<path d="M153.115 19.0097V18.6934H151.375V19.0097H151.929C152.135 19.0097 152.308 19.1422 152.374 19.326H151.375V19.6424H152.374C152.341 19.7346 152.281 19.8146 152.201 19.8712C152.122 19.9278 152.026 19.9584 151.929 19.9587H151.375V20.3405L152.259 21.224H152.706L151.757 20.275H151.929C152.111 20.2748 152.287 20.2117 152.428 20.0965C152.57 19.9812 152.667 19.8208 152.703 19.6424H153.115V19.326H152.703C152.679 19.2109 152.629 19.1028 152.557 19.0097H153.115Z"/>
</mask>
<path d="M153.115 19.0097V18.6934H151.375V19.0097H151.929C152.135 19.0097 152.308 19.1422 152.374 19.326H151.375V19.6424H152.374C152.341 19.7346 152.281 19.8146 152.201 19.8712C152.122 19.9278 152.026 19.9584 151.929 19.9587H151.375V20.3405L152.259 21.224H152.706L151.757 20.275H151.929C152.111 20.2748 152.287 20.2117 152.428 20.0965C152.57 19.9812 152.667 19.8208 152.703 19.6424H153.115V19.326H152.703C152.679 19.2109 152.629 19.1028 152.557 19.0097H153.115Z" fill="white"/>
<path d="M153.115 19.0097V20.0097H154.115V19.0097H153.115ZM153.115 18.6934H154.115V17.6934H153.115V18.6934ZM151.375 18.6934V17.6934H150.375V18.6934H151.375ZM151.375 19.0097H150.375V20.0097H151.375V19.0097ZM152.374 19.326V20.326H153.792L153.316 18.9904L152.374 19.326ZM151.375 19.326V18.326H150.375V19.326H151.375ZM151.375 19.6424H150.375V20.6424H151.375V19.6424ZM152.374 19.6424L153.317 19.9744L153.786 18.6424H152.374V19.6424ZM151.929 19.9587V20.9587L151.932 20.9587L151.929 19.9587ZM151.375 19.9587V18.9587H150.375V19.9587H151.375ZM151.375 20.3405H150.375V20.7547L150.668 21.0476L151.375 20.3405ZM152.259 21.224L151.551 21.9312L151.844 22.224H152.259V21.224ZM152.706 21.224V22.224H155.12L153.413 20.5169L152.706 21.224ZM151.757 20.275V19.275H149.343L151.05 20.9821L151.757 20.275ZM151.929 20.275V21.275L151.93 21.275L151.929 20.275ZM152.703 19.6424V18.6424H151.888L151.724 19.4412L152.703 19.6424ZM153.115 19.6424V20.6424H154.115V19.6424H153.115ZM153.115 19.326H154.115V18.326H153.115V19.326ZM152.703 19.326L151.725 19.5321L151.892 20.326H152.703V19.326ZM152.557 19.0097V18.0097H150.52L151.766 19.6212L152.557 19.0097ZM154.115 19.0097V18.6934H152.115V19.0097H154.115ZM153.115 17.6934H151.375V19.6934H153.115V17.6934ZM150.375 18.6934V19.0097H152.375V18.6934H150.375ZM151.375 20.0097H151.929V18.0097H151.375V20.0097ZM151.929 20.0097C151.69 20.0097 151.501 19.8559 151.432 19.6616L153.316 18.9904C153.116 18.4286 152.579 18.0097 151.929 18.0097V20.0097ZM152.374 18.326H151.375V20.326H152.374V18.326ZM150.375 19.326V19.6424H152.375V19.326H150.375ZM151.375 20.6424H152.374V18.6424H151.375V20.6424ZM151.431 19.3104C151.467 19.2078 151.534 19.119 151.622 19.056L152.781 20.6864C153.029 20.5101 153.216 20.2614 153.317 19.9744L151.431 19.3104ZM151.622 19.056C151.711 18.993 151.817 18.959 151.926 18.9587L151.932 20.9587C152.236 20.9578 152.533 20.8626 152.781 20.6864L151.622 19.056ZM151.929 18.9587H151.375V20.9587H151.929V18.9587ZM150.375 19.9587V20.3405H152.375V19.9587H150.375ZM150.668 21.0476L151.551 21.9312L152.966 20.5169L152.082 19.6334L150.668 21.0476ZM152.259 22.224H152.706V20.224H152.259V22.224ZM153.413 20.5169L152.464 19.5679L151.05 20.9821L151.999 21.9312L153.413 20.5169ZM151.757 21.275H151.929V19.275H151.757V21.275ZM151.93 21.275C152.342 21.2745 152.742 21.1318 153.061 20.871L151.796 19.3219C151.833 19.2917 151.879 19.2751 151.927 19.275L151.93 21.275ZM153.061 20.871C153.38 20.6102 153.6 20.2473 153.683 19.8435L151.724 19.4412C151.733 19.3944 151.759 19.3522 151.796 19.3219L153.061 20.871ZM152.703 20.6424H153.115V18.6424H152.703V20.6424ZM154.115 19.6424V19.326H152.115V19.6424H154.115ZM153.115 18.326H152.703V20.326H153.115V18.326ZM153.682 19.1199C153.627 18.8573 153.513 18.6105 153.348 18.3982L151.766 19.6212C151.746 19.595 151.732 19.5646 151.725 19.5321L153.682 19.1199ZM152.557 20.0097H153.115V18.0097H152.557V20.0097Z" fill="white" mask="url(#path-59-inside-2_644_4306)"/>
</g>
<defs>
<linearGradient id="paint0_linear_644_4306" x1="5.93921" y1="123.473" x2="340.407" y2="131.364" gradientUnits="userSpaceOnUse">
<stop stop-color="#00AEEF" stop-opacity="0"/>
<stop offset="0.479167" stop-color="#00AEEF"/>
<stop offset="1" stop-color="#00AEEF" stop-opacity="0"/>
</linearGradient>
<clipPath id="clip0_644_4306">
<rect width="10.3758" height="10.3758" fill="white" transform="translate(160.688 19.9927)"/>
</clipPath>
<clipPath id="clip1_644_4306">
<rect width="3.79603" height="3.79603" fill="white" transform="translate(150.426 18.0605)"/>
</clipPath>
</defs>
</svg>
