<svg width="66" height="66" viewBox="0 0 66 66" fill="none" xmlns="http://www.w3.org/2000/svg">
<path d="M23.5311 25.9021C23.6487 16.8117 13.0137 11.2173 5.67348 16.5617C5.47077 16.709 5.33427 16.9302 5.29357 17.1774C5.25288 17.4246 5.31127 17.6779 5.45609 17.8823C5.60091 18.0868 5.82048 18.2259 6.06719 18.2695C6.3139 18.3131 6.56786 18.2578 6.774 18.1154C12.886 13.6673 21.7261 18.335 21.6271 25.9023C21.6272 31.1474 17.3941 35.4148 12.1907 35.4148C5.22253 35.5025 0.537517 27.7197 3.79937 21.5526C3.91429 21.3278 3.93521 21.0666 3.85752 20.8264C3.77983 20.5862 3.60989 20.3867 3.3851 20.2718C3.16031 20.1568 2.89908 20.1359 2.65886 20.2136C2.41865 20.2913 2.21914 20.4612 2.10422 20.686C-1.81153 28.0932 3.82069 37.4235 12.1907 37.3186C18.4438 37.3184 23.5311 32.1969 23.5311 25.9021Z" fill="#2A2A2A"/>
<path d="M8.99623 30.9295C9.18962 30.9295 9.37841 30.8706 9.5375 30.7606C9.69658 30.6507 9.81843 30.4949 9.88683 30.314L10.4109 28.9279H13.9751L14.4934 30.3113C14.582 30.5477 14.7609 30.7393 14.9907 30.8438C15.2205 30.9484 15.4824 30.9573 15.7188 30.8687C15.9552 30.7802 16.1468 30.6013 16.2513 30.3715C16.3559 30.1417 16.3648 29.8797 16.2763 29.6433L13.2656 21.6072C13.1836 21.3919 13.0382 21.2065 12.8485 21.0757C12.6588 20.945 12.4338 20.8749 12.2034 20.8749C11.9775 20.8746 11.7567 20.9419 11.5694 21.0683C11.3822 21.1946 11.237 21.3741 11.1527 21.5836L11.1445 21.6048L8.10626 29.6405C7.88681 30.2208 8.395 30.9295 8.99623 30.9295ZM12.2011 24.193L13.2618 27.0241H11.1306L12.2011 24.193ZM37.0507 13.8278C37.0507 12.8186 36.5749 11.9195 35.8376 11.3436C37.1101 9.53292 35.7406 6.89602 33.5104 6.92902H31.1601C30.9076 6.92902 30.6655 7.02931 30.487 7.20782C30.3085 7.38634 30.2082 7.62846 30.2082 7.88092V16.0315C30.2082 16.5054 30.682 16.9834 31.1644 16.9834C31.1645 16.9834 33.3253 16.9736 33.921 16.9736C35.6467 16.9735 37.0507 15.5623 37.0507 13.8278ZM33.5105 8.8327C34.7141 8.87191 34.7127 10.643 33.5072 10.6798C33.0422 10.6818 32.5771 10.6826 32.1121 10.6819V8.8327H33.5105ZM32.112 12.5884C32.715 12.5859 33.318 12.585 33.9209 12.5856C35.5437 12.6439 35.5429 15.0117 33.9209 15.0696C33.5888 15.0696 32.7722 15.0726 32.112 15.0753V12.5884ZM54.4931 14.4857C48.24 14.4857 43.1528 19.6071 43.1528 25.9021C43.7241 41.0271 65.2644 41.0229 65.8335 25.902C65.8335 19.6071 60.7462 14.4857 54.4931 14.4857ZM54.4931 35.4147C49.2898 35.4147 45.0566 31.1473 45.0566 25.9021C45.5322 13.2993 63.456 13.3027 63.9297 25.9022C63.9297 31.1472 59.6965 35.4147 54.4931 35.4147Z" fill="#2A2A2A"/>
<path d="M57.8243 28.0961C57.6303 27.9346 57.38 27.8568 57.1286 27.8798C56.8772 27.9028 56.6453 28.0247 56.4837 28.2187C54.709 30.1439 51.4901 28.3689 51.5729 25.9029C51.541 23.4462 54.3825 21.9071 56.3931 23.3106C56.6018 23.4526 56.8584 23.5059 57.1065 23.4588C57.3545 23.4116 57.5736 23.2679 57.7156 23.0592C57.8577 22.8505 57.911 22.5939 57.8638 22.3458C57.8167 22.0978 57.6729 21.8787 57.4642 21.7367C54.2209 19.4699 49.6179 21.9399 49.6693 25.9031C49.5564 30.1145 55.0843 32.758 57.947 29.4368C58.1085 29.2427 58.1863 28.9925 58.1633 28.741C58.1403 28.4896 58.0183 28.2577 57.8243 28.0961ZM50.0136 50.4909C49.7611 50.4909 49.519 50.5911 49.3405 50.7697C49.162 50.9482 49.0617 51.1903 49.0617 51.4428C49.0617 53.3827 48.3437 55.2369 47.0444 56.6588L45.2385 58.6078C45.0756 58.7836 44.985 59.0144 44.9848 59.2541L44.981 64.571C44.9809 64.696 45.0054 64.8198 45.0532 64.9354C45.1009 65.0509 45.171 65.1559 45.2593 65.2443C45.3476 65.3328 45.4525 65.4029 45.568 65.4509C45.6835 65.4988 45.8072 65.5235 45.9322 65.5236H45.9329C46.1852 65.5236 46.4272 65.4234 46.6057 65.245C46.7842 65.0666 46.8846 64.8246 46.8848 64.5723L46.8883 59.6281L48.4454 57.9477C50.0705 56.169 50.9654 53.8588 50.9654 51.4425C50.9654 51.3175 50.9408 51.1938 50.8929 51.0783C50.8451 50.9628 50.775 50.8579 50.6866 50.7695C50.5982 50.6812 50.4933 50.6111 50.3778 50.5633C50.2624 50.5154 50.1386 50.4908 50.0136 50.4909Z" fill="#2A2A2A"/>
<path d="M45.4742 43.0327V40.6507C45.5053 38.2589 49.1071 38.5705 49.056 40.9142L49.0588 45.9146C49.059 46.167 49.1593 46.409 49.3378 46.5874C49.5163 46.7658 49.7584 46.866 50.0107 46.866H50.0112C50.1362 46.8659 50.26 46.8412 50.3755 46.7933C50.4909 46.7454 50.5958 46.6753 50.6842 46.5868C50.7725 46.4984 50.8426 46.3934 50.8904 46.2779C50.9381 46.1624 50.9627 46.0386 50.9626 45.9136L50.9598 40.9137C51.0223 37.9474 47.7271 36.1564 45.2403 37.5986C44.4486 35.4296 41.5431 34.63 39.6583 35.8692C38.8143 34.0477 36.3078 33.424 34.5665 34.3241V23.3044C48.7227 21.2508 47.6364 1.06244 33.3421 0.540039C22.0342 0.592838 17.7806 15.4891 27.2526 21.5885C27.0298 22.5794 27.2303 40.1208 27.1715 46.8773L21.012 41.4195C19.6407 40.2037 17.4134 40.6166 16.2405 41.8667C14.9556 43.2364 14.8661 45.1809 16.0227 46.5949L16.0368 46.6116L27.1723 59.6064V64.5713C27.1723 64.8237 27.2726 65.0658 27.4511 65.2443C27.6296 65.4229 27.8717 65.5232 28.1242 65.5232C28.3767 65.5232 28.6188 65.4229 28.7973 65.2443C28.9758 65.0658 29.0761 64.8237 29.0761 64.5713V59.2543C29.0761 59.0271 28.9949 58.8074 28.847 58.6349L17.4902 45.3819C16.828 44.5643 17.1504 43.6795 17.6291 43.169C18.098 42.6692 18.9413 42.2996 19.7897 42.8801L27.4929 49.7056C27.6302 49.8271 27.7997 49.9065 27.9809 49.9341C28.1622 49.9616 28.3476 49.9362 28.5148 49.861C28.6821 49.7857 28.824 49.6637 28.9235 49.5098C29.0231 49.3558 29.0761 49.1763 29.0761 48.9929C29.0757 47.9361 29.0668 23.1036 29.0643 22.4456C29.0616 21.7882 29.3181 21.3051 29.8265 21.0098C30.4311 20.6587 31.2784 20.6578 31.8869 21.008C32.399 21.3027 32.6596 21.785 32.6624 22.4407V22.4421L32.6627 22.4462C32.661 22.4437 32.6645 40.0095 32.663 40.0094C32.7031 41.2678 34.5273 41.2677 34.5668 40.0094V37.4958C34.5668 36.4763 35.3484 35.8197 36.3373 35.8197C37.6508 35.8197 38.1169 36.7226 38.1169 37.4958V41.3174C38.1548 42.5738 39.9817 42.5768 40.0207 41.3174V38.8105C40.0207 37.6099 40.9391 37.1839 41.7256 37.1839C42.4109 37.1839 43.5708 37.5541 43.5708 38.9418V43.0327C43.6059 44.2868 45.4358 44.2937 45.4742 43.0327ZM28.8701 19.3636C28.6115 19.5135 28.3734 19.6964 28.1619 19.9077C20.4121 14.7591 23.9992 2.48294 33.3423 2.44385C45.1999 2.87182 46.1498 19.6275 34.4254 21.4055C34.183 20.5366 33.6338 19.8168 32.8365 19.3579C31.6478 18.6738 30.0538 18.6761 28.8701 19.3636Z" fill="#2A2A2A"/>
</svg>
