<svg width="62" height="62" viewBox="0 0 62 62" fill="none" xmlns="http://www.w3.org/2000/svg">
<path d="M37.2054 43.7227C37.2217 43.7709 37.2217 43.8352 37.2381 43.8835C37.2544 43.9478 37.3034 43.996 37.3361 44.0442C37.3524 44.0764 37.3687 44.1085 37.385 44.1407C37.385 44.1407 37.4014 44.1407 37.4014 44.1567C37.4667 44.2371 37.5483 44.2853 37.6463 44.3335L37.6626 44.3496C37.7606 44.3978 37.8749 44.4139 37.9892 44.4139C38.0872 44.4139 38.2015 44.3978 38.2995 44.3496C38.3485 44.3335 38.3811 44.3014 38.4301 44.2692C38.4791 44.2371 38.5118 44.221 38.5607 44.1889L48.1623 35.5249C48.3256 35.3802 48.4236 35.1552 48.4236 34.9301C48.4236 34.7051 48.3256 34.4961 48.1623 34.3354L38.5607 25.6714C38.5281 25.6393 38.4954 25.6393 38.4628 25.6071C38.4138 25.575 38.3648 25.5428 38.3158 25.5107C38.2505 25.4946 38.2015 25.4785 38.1362 25.4785C38.1035 25.4785 38.0709 25.4624 38.0219 25.4624H38.0056C37.9402 25.4624 37.8912 25.4785 37.8423 25.4946C37.7933 25.5107 37.7443 25.5107 37.6953 25.5267C37.6626 25.5428 37.6463 25.5589 37.6136 25.575C37.5483 25.6071 37.483 25.6553 37.434 25.7036C37.434 25.7036 37.4177 25.7036 37.4177 25.7196C37.385 25.7518 37.385 25.7839 37.3687 25.8161C37.3361 25.8643 37.2871 25.9125 37.2707 25.9768C37.2544 26.025 37.2544 26.0893 37.2381 26.1376C37.2381 26.1858 37.2054 26.2179 37.2054 26.2662V31.7635H30.0206C29.5634 31.7635 29.2041 32.1172 29.2041 32.5672C29.2041 33.0173 29.5634 33.3709 30.0206 33.3709H38.0219C38.4791 33.3709 38.8383 33.0173 38.8383 32.5672V28.0986L46.4151 34.9301L38.8383 41.7617V37.2931C38.8383 36.843 38.4791 36.4893 38.0219 36.4893H26.0362V30.992C26.0362 30.9437 26.0199 30.9116 26.0036 30.8634C25.9873 30.8152 25.9873 30.7509 25.9709 30.7026C25.9546 30.6383 25.9056 30.5901 25.873 30.5419C25.8566 30.5097 25.8403 30.4776 25.824 30.4454C25.824 30.4454 25.8076 30.4454 25.8076 30.4294C25.7586 30.3811 25.6933 30.349 25.6443 30.3169C25.6117 30.3008 25.579 30.2686 25.5464 30.2526C25.5137 30.2365 25.4647 30.2365 25.4157 30.2204C25.3504 30.2043 25.3014 30.1883 25.2361 30.1883H25.2198C25.1708 30.1883 25.1381 30.2043 25.1055 30.2043C25.0402 30.2204 24.9912 30.2204 24.9259 30.2365C24.8605 30.2526 24.8116 30.3008 24.7626 30.3329C24.7299 30.349 24.6973 30.3651 24.6646 30.3812L15.063 39.0451C14.8997 39.1898 14.8018 39.4148 14.8018 39.6399C14.8018 39.8649 14.8997 40.0739 15.063 40.2346L24.6646 48.8986C24.6973 48.9308 24.7462 48.9468 24.7952 48.979C24.8442 49.0111 24.8769 49.0433 24.9259 49.0594C25.0238 49.0915 25.1218 49.1237 25.2361 49.1237C25.3504 49.1237 25.4647 49.1076 25.5627 49.0594L25.579 49.0433C25.677 48.9951 25.7587 48.9468 25.824 48.8665C25.824 48.8665 25.8403 48.8665 25.8403 48.8504C25.873 48.8182 25.873 48.7861 25.8893 48.7539C25.9219 48.7057 25.9709 48.6575 25.9873 48.5932C26.0036 48.545 26.0036 48.4807 26.0199 48.4325C26.0199 48.3842 26.0526 48.3521 26.0526 48.3039V42.8065H33.2374C33.6946 42.8065 34.0539 42.4529 34.0539 42.0028C34.0539 41.5527 33.6946 41.1991 33.2374 41.1991H25.2361C24.7789 41.1991 24.4197 41.5527 24.4197 42.0028V46.4714L16.8429 39.6399L24.4197 32.8084V37.277C24.4197 37.7271 24.7789 38.0807 25.2361 38.0807H37.2217V43.5781C37.1728 43.6424 37.1891 43.6745 37.2054 43.7227Z" fill="#2A2A2A"/>
<path d="M18.8021 11.3011H6V12.9085H18.8021V11.3011Z" fill="#2A2A2A"/>
<path d="M44.3897 12.9085H50.7907C51.248 12.9085 51.6072 12.5549 51.6072 12.1048C51.6072 11.6547 51.248 11.3011 50.7907 11.3011H44.3897C43.9325 11.3011 43.5732 11.6547 43.5732 12.1048C43.5732 12.5549 43.9325 12.9085 44.3897 12.9085Z" fill="#2A2A2A"/>
<path d="M52.489 45.3462C52.8319 43.996 53.0115 42.5332 53.0115 40.9901C53.0115 31.7796 47.2473 21.5886 39.7359 17.1842C40.1604 16.6538 40.4217 15.9947 40.4217 15.2553C40.4217 14.1784 39.8665 13.23 39.0337 12.6674C41.2055 10.3366 42.5282 7.53972 42.6915 5.90015C42.7078 5.67512 42.6425 5.45008 42.4792 5.28934C42.3159 5.12859 42.0873 5 41.8587 5H36.3884C36.1761 5 35.9638 5.08037 35.8169 5.24111L32.4204 8.58454V5.80371C32.4204 5.35363 32.0612 5 31.6039 5H21.3165C21.0879 5 20.8757 5.09645 20.7124 5.25719C20.5491 5.41793 20.4837 5.65904 20.5164 5.88408C20.6797 7.53972 22.0024 10.3206 24.1741 12.6674C23.3414 13.2461 22.7862 14.1944 22.7862 15.2553C22.7862 15.9787 23.0474 16.6377 23.472 17.1842C21.7574 18.1648 20.1408 19.4346 18.6222 20.9938C18.312 21.3153 18.3283 21.8297 18.6549 22.1351C18.8182 22.2798 19.0141 22.3601 19.2101 22.3601C19.4224 22.3601 19.6346 22.2798 19.7979 22.1029C21.3982 20.4634 23.0964 19.1614 24.8926 18.213C25.2355 18.3416 25.6111 18.4219 26.003 18.4219H37.2048C37.5968 18.4219 37.956 18.3416 38.3152 18.213C45.5491 22.0869 51.3949 32.1975 51.3949 40.9901C51.3949 42.5493 51.199 44.0121 50.8234 45.3301C50.7418 45.5873 50.8071 45.8767 51.003 46.0856C54.0566 49.4934 55.2649 53.319 53.779 54.7818C52.5706 55.9713 49.6477 55.3444 46.7084 53.3833C48.0311 52.5153 49.1741 51.5187 50.0886 50.3453C50.3662 49.9917 50.3009 49.4934 49.9416 49.2201C49.5824 48.9468 49.0762 49.0111 48.7986 49.3648C44.8796 54.3478 37.3028 55.3926 31.6203 55.3926C25.9377 55.3926 18.3283 54.3478 14.4256 49.3648C14.148 49.0111 13.6418 48.9468 13.2826 49.2201C12.9233 49.4934 12.858 49.9917 13.1356 50.3453C14.05 51.5026 15.1931 52.5153 16.5158 53.3833C13.5765 55.3444 10.6536 55.9713 9.44521 54.7818C7.95925 53.319 9.16762 49.4934 12.2212 46.0856C12.4008 45.8767 12.4661 45.6034 12.4008 45.3301C12.0252 44.0121 11.8293 42.5493 11.8293 40.9901C11.8293 36.9233 13.0866 32.3904 15.3564 28.2433C15.5687 27.8575 15.4217 27.3592 15.0298 27.1502C14.6379 26.9413 14.1317 27.0859 13.9194 27.4717C11.519 31.86 10.1964 36.6501 10.1964 40.9901C10.1964 42.5332 10.376 43.996 10.7189 45.3462C7.20811 49.4291 6.1957 53.8334 8.30217 55.907C9.05331 56.6464 10.0657 57 11.2741 57C13.2173 57 15.634 56.0516 18.067 54.2835C21.5451 56.0677 26.1173 57 31.6039 57C37.0905 57 41.6627 56.0677 45.1408 54.2835C47.5739 56.0677 49.9743 57 51.9338 57C53.1421 57 54.1709 56.6464 54.9057 55.907C57.0122 53.8334 55.9998 49.4291 52.489 45.3462ZM22.3289 6.60742H30.7875V10.5295C30.7875 10.851 30.9834 11.1403 31.2937 11.2689C31.6039 11.3975 31.9468 11.3172 32.1755 11.0921L36.7313 6.60742H40.8626C40.389 8.18269 39.0827 10.3527 37.2865 12.0887C37.2538 12.0887 37.2212 12.0726 37.1885 12.0726H25.9867C25.954 12.0726 25.9214 12.0887 25.8887 12.0887C24.1088 10.3527 22.8025 8.18269 22.3289 6.60742ZM26.003 16.8145C25.1212 16.8145 24.4191 16.1233 24.4191 15.2553C24.4191 14.3873 25.1212 13.6961 26.003 13.6961H37.2048C38.0866 13.6961 38.7888 14.3873 38.7888 15.2553C38.7888 16.1073 38.0866 16.8145 37.2048 16.8145H26.003Z" fill="#2A2A2A"/>
<path d="M31.5882 23.8872H12.4014C11.9442 23.8872 11.585 24.2408 11.585 24.6909C11.585 25.141 11.9442 25.4946 12.4014 25.4946H31.6046C32.0618 25.4946 32.421 25.141 32.421 24.6909C32.421 24.2408 32.0454 23.8872 31.5882 23.8872Z" fill="#2A2A2A"/>
</svg>
