<svg width="32" height="32" viewBox="0 0 32 32" fill="none" xmlns="http://www.w3.org/2000/svg">
<g clip-path="url(#clip0_1061_12610)">
<path fill-rule="evenodd" clip-rule="evenodd" d="M20.75 5.75C20.75 8.904 16.22 11.375 10.4375 11.375C4.655 11.375 0 8.904 0 5.75C0 2.596 4.655 0 10.4375 0C16.22 0 20.75 2.596 20.75 5.75ZM0 22.625V21.0974C2.02262 23.0771 5.65344 24.362 9.835 24.4774C10.1461 25.7989 10.6773 27.0587 11.4062 28.204C11.302 28.2091 11.1983 28.2157 11.0946 28.2223C10.877 28.2362 10.6596 28.25 10.4375 28.25C4.655 28.25 0 25.779 0 22.625ZM9.53988 22.5065C9.54161 22.5301 9.54334 22.5537 9.54506 22.5772C4.20387 22.3339 0 19.9867 0 17V15.4724C2.02444 17.4539 5.65969 18.7395 9.84644 18.8529C9.62806 19.7643 9.5 20.7102 9.5 21.6875C9.5 21.9638 9.51994 22.2352 9.53988 22.5065ZM10.4404 16.9999L10.4375 17C4.655 17 0 14.529 0 11.375V9.84744C2.12037 11.9227 5.98644 13.25 10.4375 13.25C11.352 13.25 12.227 13.1809 13.0737 13.0739C11.9489 14.1988 11.0544 15.5324 10.4404 16.9999ZM31.5 21.8631C31.5 27.4614 27.1348 31.9997 21.75 31.9997C16.3652 31.9997 12 27.4614 12 21.8631C12 16.2649 16.3652 11.7266 21.75 11.7266C27.1348 11.7266 31.5 16.2649 31.5 21.8631ZM25.2603 18.0343V16.7578H18.2397V18.0343H20.4735C21.3045 18.0343 22.0059 18.5691 22.2702 19.3107H18.2397V20.5872H22.2702C22.1391 20.9594 21.8961 21.282 21.5744 21.5105C21.2527 21.7391 20.8682 21.8624 20.4735 21.8636H18.2397V23.4043L21.8049 26.9695H23.6098L19.7804 23.1401H20.4735C21.2088 23.1392 21.9212 22.8848 22.4907 22.4197C23.0602 21.9547 23.4518 21.3074 23.5996 20.5872H25.2603V19.3107H23.5996C23.5017 18.8462 23.3001 18.4099 23.0099 18.0343H25.2603Z" fill="url(#paint0_linear_1061_12610)"/>
</g>
<defs>
<linearGradient id="paint0_linear_1061_12610" x1="15.75" y1="0" x2="15.75" y2="31.9997" gradientUnits="userSpaceOnUse">
<stop stop-color="white"/>
<stop offset="1" stop-color="white" stop-opacity="0.4"/>
</linearGradient>
<clipPath id="clip0_1061_12610">
<rect width="32" height="32" fill="white"/>
</clipPath>
</defs>
</svg>
