<svg width="80" height="80" viewBox="0 0 80 80" fill="none" xmlns="http://www.w3.org/2000/svg">
<path d="M30.8655 52.358C32.6446 54.7355 35.2202 56.2677 37.9818 56.6375C39.7874 56.8753 41.6727 56.8489 43.5049 56.8225C44.0625 56.8225 44.5935 56.796 45.1512 56.8225H45.1777C47.7799 56.8225 50.1432 55.9507 52.1878 54.2336C55.0024 51.8561 56.3832 48.7125 56.2504 44.9349C56.2504 44.7236 56.277 44.0896 56.5691 43.9839C57.6577 43.5612 58.4278 42.7159 59.1978 41.9234C59.4634 41.6328 59.7289 41.3686 59.9944 41.078C60.499 40.6025 60.9504 40.4176 61.5611 40.4176H61.5876C65.5972 40.444 69.6598 40.4176 73.5897 40.444H77.732V38.1986H72.7666V17.6992H77.732V15.4801H73.1118C69.3412 15.4801 65.4379 15.4801 61.5876 15.4801H61.5611C60.8973 15.4801 60.4458 15.2952 59.9944 14.7933C58.9323 13.6838 57.8171 12.6007 56.7549 11.544C56.3301 11.1214 55.9052 10.6987 55.4804 10.276C54.7103 9.50994 53.9403 8.74385 53.1437 7.95135C51.1788 5.99651 49.1341 3.96241 47.1161 1.98115C46.0009 0.89806 44.5404 0.39614 43.0535 0.581058C41.6196 0.765976 40.3981 1.5849 39.6546 2.8529C39.5219 3.06424 39.4157 3.30199 39.3094 3.53974C39.2298 3.64541 39.1767 3.75108 39.1236 3.88316L39.0705 4.01524L38.9377 3.93599C37.5038 3.06424 35.9372 2.8529 34.583 3.32841C33.2287 3.77749 32.1401 4.887 31.5293 6.39276L31.4762 6.49843L31.3435 6.44559C30.0158 5.838 29.2192 5.57384 28.4491 5.57384C28.0243 5.57384 27.626 5.65309 27.148 5.78517C25.5548 6.28709 24.3334 7.52868 23.9351 9.11369C23.5102 10.7251 23.9616 12.4158 25.1831 13.631C27.1215 15.6122 29.113 17.5671 31.0514 19.4955C31.9276 20.3673 32.8039 21.239 33.6801 22.1108C33.8129 22.2428 33.9191 22.3485 34.0519 22.507C34.1315 22.5863 34.2112 22.6919 34.3174 22.7712L34.4767 22.9297L33.9988 23.0354C33.7864 23.0882 33.6005 23.141 33.4412 23.1674C29.9096 23.8807 27.4136 26.8658 27.4136 30.4056C27.4136 32.3869 27.4136 34.3682 27.4136 36.3758C27.4136 37.5646 27.4136 38.7534 27.4136 39.9421C27.4136 40.9988 27.7588 41.9234 28.4226 42.663C28.7678 43.0329 28.874 43.4291 28.7943 43.9839C28.2633 46.8633 29.0333 49.9013 30.8655 52.358ZM62.6232 17.7784H65.2254L67.748 17.7256C68.5446 17.7256 69.2084 17.7256 69.8457 17.7256C69.9519 17.7256 70.0316 17.7256 70.1378 17.752L70.3768 17.7784V38.1458H62.5967V17.7784H62.6232ZM42.2834 54.2336C41.5134 54.4449 40.7168 54.5506 39.9202 54.5506C38.2739 54.5506 36.6807 54.1015 35.2468 53.2298C33.096 51.9353 31.6355 49.8748 31.0779 47.4181C30.4938 44.8292 31.2903 41.8705 33.1225 39.7308C34.9016 37.6703 37.4773 36.5608 40.4512 36.5608C40.6371 36.5608 40.823 36.5608 41.0088 36.5608V34.2889C39.3625 34.4738 37.7693 34.6587 36.123 34.8437L35.9637 34.8701V34.7116C35.9637 34.6323 35.9637 34.5267 35.9637 34.421C35.9637 34.1568 35.9372 33.8398 35.9903 33.5228C36.0965 32.3869 36.9462 31.6472 38.088 31.6472C42.2303 31.6208 46.4523 31.6208 50.5946 31.6472C51.7629 31.6472 52.6657 32.519 52.6923 33.6285C52.7188 34.7644 51.7895 35.6362 50.568 35.6626C49.798 35.689 49.0279 35.689 48.2844 35.6626C47.8065 35.6626 47.3285 35.6626 46.8506 35.6626C44.4608 35.689 42.5755 37.5646 42.5755 39.9421C42.5755 42.3196 44.4608 44.1952 46.8506 44.2216C47.2754 44.2216 47.6737 44.2216 48.072 44.2216H48.6562L48.6827 44.3009C49.2138 45.8859 48.9483 47.7879 47.9393 49.6371C46.6912 51.9089 44.5935 53.626 42.2834 54.2336ZM53.8872 46.5463C53.8872 46.7841 53.8606 46.9954 53.8341 47.2067C53.7544 47.7615 53.3827 48.871 53.0375 49.5314C51.8957 51.724 50.1963 53.2298 47.833 54.0751L47.4082 54.2336L48.1782 53.2034C48.6562 52.5694 49.1076 51.9882 49.559 51.3806C49.6652 51.2485 49.7449 51.0636 49.8245 50.9051L49.8776 50.773C50.2228 50.2711 50.4884 49.6107 50.7273 48.7653C50.9929 47.8143 51.1522 46.7312 51.1522 45.5689V44.2745H53.8341V46.5463H53.8872ZM29.644 30.6698C29.6706 27.4998 31.9011 25.3072 35.0609 25.3072C36.2027 25.3072 37.0524 25.2279 37.4507 24.2241C37.8756 23.1674 37.2914 22.4806 36.4948 21.6881C33.2818 18.5181 30.0955 15.3481 27.0418 12.2573C26.617 11.8082 26.2983 11.2799 26.1656 10.7515C25.9 9.72128 26.378 8.6646 27.3605 8.16268C28.3164 7.68718 29.4582 7.84568 30.2282 8.61177C31.1841 9.56278 32.1666 10.5138 33.096 11.4648L36.4417 14.7933C37.9818 16.3255 39.4953 17.8312 41.0354 19.3634C41.1682 19.4955 41.2744 19.6012 41.4071 19.7332L41.5134 19.8389L43.2128 18.1218C43.1862 18.1218 43.1597 18.0954 43.1331 18.069C42.9472 17.9633 42.7614 17.8577 42.602 17.6992C41.2478 16.3783 39.9202 15.0311 38.5659 13.6838C37.2117 12.3365 35.8841 11.0157 34.5298 9.66844C33.7067 8.82311 33.4677 7.89852 33.866 6.86826C34.1581 6.10217 34.7688 5.57384 35.5389 5.41534C36.362 5.23042 37.2648 5.521 37.9287 6.15501C40.5574 8.74385 43.1862 11.3591 45.4432 13.631C45.7353 13.9216 45.9743 14.2121 46.2398 14.5291C46.3461 14.6348 46.4257 14.7405 46.5319 14.8726L47.2489 14.1329C47.5941 13.7895 47.9393 13.4196 48.311 13.0234C48.2844 13.0234 48.2579 12.997 48.2579 12.997C48.072 12.8913 47.8861 12.7856 47.7268 12.6535C45.7088 10.6723 43.8766 8.84952 42.1241 7.0796C41.1151 6.04934 41.0354 4.54358 41.9913 3.56616C42.4427 3.11707 43.0269 2.8529 43.6642 2.8529H43.6907C44.3811 2.8529 45.0449 3.14349 45.576 3.67183C50.8867 8.92877 55.56 13.6045 59.8882 17.9369C60.1272 18.1747 60.3131 18.5973 60.3131 18.9672C60.3396 24.9374 60.3396 30.9604 60.3131 36.9306C60.3131 37.274 60.1272 37.6967 59.8882 37.9609C59.2775 38.6213 58.6402 39.2553 58.0029 39.8629C57.5781 40.2855 57.1267 40.7082 56.7018 41.1573C56.1708 41.6856 55.5335 41.9498 54.79 41.9498C53.5154 41.9498 52.2409 41.9498 50.9929 41.9498C49.7183 41.9498 48.4438 41.9498 47.1958 41.9498C46.5319 41.9498 45.9478 41.7385 45.5229 41.3686C45.0981 40.9988 44.8591 40.4704 44.8856 39.9157C44.8856 38.7269 45.8415 37.908 47.1958 37.908C47.7534 37.908 48.3376 37.908 48.8952 37.908C49.5059 37.908 50.1432 37.908 50.7539 37.908C53.1437 37.8816 55.0024 35.9796 55.0024 33.6021C55.0024 31.2774 53.0906 29.3754 50.7805 29.3754C46.5319 29.349 42.2037 29.349 37.9552 29.3754C36.7869 29.3754 35.6716 29.8509 34.875 30.6962C34.1316 31.4887 33.7333 32.4926 33.7864 33.5492C33.866 35.2663 33.6005 36.64 32.0073 37.7495C31.4497 38.1194 31.0514 38.7005 30.6 39.3081C30.4141 39.5987 30.2017 39.8629 29.9627 40.1534L29.7768 40.3912L29.7503 40.0742C29.7503 40.0214 29.7503 39.9685 29.7237 39.9157C29.6972 39.7836 29.6972 39.6515 29.6972 39.5194V37.1683C29.6175 35.0286 29.6175 32.836 29.644 30.6698Z" fill="#2A2A2A"/>
<path d="M3.27456 73.1745C4.4429 73.9406 5.47848 74.4689 6.46095 74.7859C9.48802 75.7898 12.8868 76.0275 16.8167 75.5256C18.7286 75.2879 20.9325 74.8652 22.8443 73.5443C24.0392 72.7518 24.5703 71.8801 24.5703 70.7706C24.5703 66.9401 24.5703 63.1097 24.5703 59.2793C24.5703 50.6674 24.5703 41.7649 24.5437 33.0209C24.5437 32.4398 24.3313 31.7529 23.9861 31.3567C22.3398 29.2962 19.95 28.8471 17.4275 28.3716H17.3743L17.0557 30.617C17.1354 30.6434 17.215 30.6434 17.2947 30.6698C17.5337 30.7227 17.7726 30.7491 17.9585 30.8283L18.6224 31.0925C19.6579 31.4888 20.7201 31.885 21.7291 32.3605C22.0212 32.4926 22.207 32.7039 22.2336 32.9681C22.2601 33.2323 22.0743 33.4964 21.7556 33.7078L21.7025 33.7342C21.2511 33.9984 20.7466 34.3418 20.1624 34.5267C16.4184 35.8211 12.3823 36.006 8.18691 35.055C7.231 34.8437 6.22197 34.4475 5.08018 33.8663C4.57567 33.6021 4.33669 33.3379 4.31013 33.0209C4.31013 32.7039 4.54911 32.4134 5.08018 32.1228C5.85022 31.6737 6.69993 31.3831 7.41687 31.1189C7.92138 30.9604 8.42589 30.8283 8.95696 30.7227C9.14283 30.6698 9.3287 30.6434 9.51458 30.5906L9.16938 28.3716C7.01857 28.7414 5.29261 29.2169 3.75252 30.2208C2.55762 31.0397 2 32.0699 2 33.47C2.02655 44.3009 2.02655 56.0564 2 70.5064C2 71.7216 2.42485 72.6198 3.27456 73.1745ZM4.28358 36.2174L4.46945 36.2966C10.3908 38.5156 16.1794 38.5156 22.1274 36.2966L22.3133 36.2174V36.4023C22.3133 36.7721 22.3133 37.142 22.3133 37.4854C22.3133 38.4628 22.3398 39.4666 22.2601 40.4705C22.2336 40.8667 21.7291 41.3687 21.3308 41.5272L21.0918 41.6328C19.95 42.0819 18.7551 42.5838 17.5337 42.8216C16.0998 43.1122 14.6659 43.2443 13.232 43.2443C11.2405 43.2443 9.24904 42.9801 7.2841 42.4253C7.04512 42.3461 6.8327 42.2668 6.62027 42.1876L6.51406 42.1347C4.4429 41.3687 4.28358 41.1309 4.28358 38.9383V36.2174ZM4.28358 43.7726L4.46945 43.8518C10.3908 46.0709 16.1794 46.0709 22.1274 43.8518L22.3133 43.7726V43.9575C22.3133 44.3273 22.3133 44.6708 22.3133 45.0406C22.3133 45.9916 22.3398 46.9954 22.2601 47.9729C22.2336 48.3955 21.7556 48.8975 21.3839 49.056L21.1715 49.1352C20.0031 49.6107 18.8082 50.1126 17.5602 50.3504C16.1263 50.641 14.6659 50.7995 13.232 50.7995C11.2405 50.7995 9.24904 50.5353 7.25755 49.9805C6.96546 49.9013 6.67338 49.7956 6.4344 49.69C4.46945 48.9239 4.31013 48.6861 4.31013 46.5992V43.7726H4.28358ZM4.28358 51.3542L4.46945 51.4335C10.3643 53.6525 16.1529 53.6525 22.1274 51.4335L22.3133 51.3542V51.5391C22.3133 51.909 22.3133 52.2788 22.3133 52.6486C22.3133 53.5732 22.3398 54.5242 22.2601 55.4488C22.2336 55.8979 21.7822 56.4791 21.3308 56.664C20.0562 57.1923 18.7817 57.7207 17.4275 57.9848C15.9936 58.249 14.5863 58.3811 13.1789 58.3811C11.214 58.3811 9.30215 58.1169 7.41687 57.5886C7.15134 57.5093 6.85925 57.4301 6.59372 57.3244C4.4429 56.5319 4.28358 56.2942 4.28358 54.0223V51.3542V51.3542ZM4.28358 58.9094L4.46945 58.9887C10.3643 61.2077 16.1263 61.2077 22.1008 59.0151L22.2867 58.9358V59.1208C22.2867 59.4906 22.2867 59.8604 22.2867 60.2303C22.3133 61.2077 22.3133 62.2379 22.2336 63.2418C22.1805 63.7173 21.5167 64.2192 21.0653 64.3777L20.6935 64.5098C19.2862 64.9853 17.8258 65.4872 16.3653 65.6986C15.2766 65.8571 14.2145 65.9363 13.1524 65.9363C11.1874 65.9363 9.22249 65.6721 7.2841 65.1174C7.04512 65.0381 6.77959 64.9589 6.59372 64.8796C4.4429 64.0871 4.25703 63.8494 4.25703 61.6039V58.9094H4.28358ZM4.28358 66.4646L4.46945 66.5439C10.3643 68.7629 16.1263 68.7629 22.1274 66.5703L22.3133 66.4911V66.676C22.3133 67.0458 22.3133 67.4156 22.3133 67.7855C22.3398 68.7365 22.3398 69.7403 22.2601 70.7177C22.2336 71.1404 21.6494 71.6952 21.2246 71.8537L20.6404 72.065C19.2331 72.5405 17.7726 73.0424 16.3122 73.2802C15.2766 73.4387 14.2145 73.5179 13.1789 73.5179C11.2405 73.5179 9.3287 73.2538 7.41687 72.699C7.17789 72.6462 6.91236 72.5405 6.64682 72.4613C4.49601 71.6687 4.33669 71.431 4.33669 69.1856V66.4646H4.28358Z" fill="#2A2A2A"/>
<path d="M52.5837 77.2691C53.5397 77.9031 54.6549 78.59 55.8763 78.9862C58.93 79.9901 62.3288 80.2542 66.2852 79.7523C68.0112 79.541 70.2417 79.1183 72.1801 77.8767C73.5077 77.0314 74.0919 75.9747 74.0388 74.5482C73.9857 72.9104 73.9857 71.2461 74.0122 69.6347C74.0122 68.9214 74.0122 68.2346 74.0122 67.5213C74.0122 66.8081 74.0122 66.0948 74.0122 65.3552C74.0122 63.6381 74.0122 61.8681 74.0122 60.0982C74.0122 59.0679 73.667 58.2754 72.9766 57.7999C72.0738 57.1659 71.1179 56.5055 70.0823 56.1621C67.905 55.396 65.5417 54.9998 62.9661 54.9998C61.6915 54.9998 60.3638 55.1054 58.9831 55.2903C57.2837 55.5281 55.1063 55.9508 53.1679 57.2188C51.9465 58.0113 51.3888 59.0415 51.4154 60.4416C51.4685 65.2495 51.4419 70.1366 51.4154 74.8652C51.4685 75.9747 51.8402 76.7936 52.5837 77.2691ZM54.3362 59.2529C55.478 58.6717 56.726 58.1169 58.0006 57.8264C59.1158 57.5622 60.2576 57.4565 61.187 57.3773C61.5322 57.3509 61.8508 57.3244 62.1164 57.2716H62.1429C65.2762 57.3773 67.6925 57.5358 69.9761 58.5924C70.4275 58.8038 70.7993 59.1472 71.171 59.4642C71.3303 59.6227 71.5162 59.7548 71.6755 59.8869L71.8083 59.9925L71.6755 60.0982C71.4897 60.2303 71.3303 60.3624 71.171 60.5209C70.7993 60.8379 70.4275 61.1549 69.9761 61.3398C67.9581 62.1851 65.7011 62.6078 63.2847 62.6078C62.6209 62.6078 61.9305 62.5814 61.2401 62.5021C59.7 62.3701 58.1599 62.0002 56.6729 61.6568L55.9029 61.4719C55.3453 61.3398 54.8142 60.9964 54.3362 60.653C53.938 60.3888 53.7786 60.1246 53.7786 59.8605C53.7786 59.6227 53.9645 59.4378 54.3362 59.2529ZM53.7521 63.1626L53.938 63.2418C59.8593 65.4608 65.6214 65.4608 71.5959 63.2418L71.7818 63.1626V63.3475C71.7818 63.7173 71.7818 64.0871 71.7818 64.4306C71.7818 65.3816 71.8083 66.2533 71.7286 67.1779C71.7021 67.6534 71.2772 68.2346 70.8524 68.4195C69.6309 68.9214 68.2767 69.5026 66.896 69.7668C65.4621 70.0309 64.0547 70.163 62.6474 70.163C60.6825 70.163 58.7706 69.8988 56.8854 69.3705L56.6995 69.3177C56.5402 69.2648 56.3543 69.212 56.195 69.1592C53.9645 68.3931 53.7521 68.0761 53.7521 65.725V63.1626ZM53.7521 70.7442L53.938 70.8234C59.8593 73.0424 65.6479 73.0424 71.5959 70.8234L71.7818 70.7442V70.9291C71.7818 71.2989 71.7818 71.6688 71.7818 72.0122C71.7818 72.9632 71.8083 73.8614 71.7286 74.7595C71.7021 75.2086 71.2772 75.8162 70.8524 76.0011C69.6575 76.5031 68.2767 77.0842 66.896 77.3484C65.4886 77.6126 64.0813 77.7446 62.7005 77.7446C60.709 77.7446 58.7175 77.4805 56.7526 76.9257C56.5667 76.8729 56.4074 76.8201 56.2215 76.7408C53.9911 75.9483 53.7786 75.6577 53.7786 73.3066V70.7442H53.7521Z" fill="#2A2A2A"/>
<path d="M19.261 25.2545C21.6773 25.2545 23.8281 23.5902 24.3061 21.3448C24.5185 20.3145 24.5451 19.2314 24.5716 18.0955C24.5716 17.6464 24.5982 17.1709 24.6247 16.7218H21.5977C19.9779 16.7218 18.5175 17.303 17.5085 18.3333C16.4994 19.3635 15.9418 20.79 15.9949 22.3486C16.0215 23.511 15.6232 24.2506 14.6141 24.8846L14.4283 25.0167V24.779C14.4283 24.0657 14.4283 23.3525 14.4283 22.6392C14.4548 20.9485 14.4548 19.3635 14.3752 17.7521C14.3221 16.4048 14.7204 15.4803 15.7028 14.5028C17.774 12.4423 18.5706 9.87989 18.0926 6.81554C17.6147 3.98894 15.7028 2.1926 13.8707 0.422669C13.7113 0.290585 13.552 0.132084 13.3927 0C13.0741 0.290585 12.7554 0.58117 12.4368 0.845338C11.6933 1.50576 10.9763 2.13976 10.3656 2.85302C8.66621 4.86069 8.05549 7.21179 8.48034 9.87989C8.79898 11.8083 9.72834 13.4726 11.3215 15.0048C11.3746 15.0576 11.4278 15.1104 11.4809 15.1633C11.7729 15.4274 12.1181 15.7444 12.1181 16.0614C12.1712 17.5672 12.1712 19.1258 12.1447 20.6315C12.1447 21.1599 12.1447 21.6882 12.1447 22.2165V22.4279L11.9588 22.3222C10.7905 21.7146 10.578 20.8165 10.6046 19.6277C10.6577 17.0388 8.87864 14.8463 6.40918 14.3972C5.42671 14.2122 4.41769 14.2122 3.35556 14.1858C2.9307 14.1858 2.4793 14.1858 2.02789 14.1594V17.4615C2.02789 18.5182 2.34653 19.522 2.98381 20.4202C4.0725 21.9788 5.50637 22.7449 7.20578 22.7449C7.33855 22.7449 7.49787 22.7449 7.63063 22.7449C8.74587 22.7449 9.51592 23.1147 10.1797 23.9336C10.4187 24.2242 10.7108 24.5148 10.9763 24.779C11.2153 25.0167 11.4809 25.2545 11.6933 25.5186C11.9588 25.8092 12.1181 26.2055 12.1181 26.5489C12.1447 27.8433 12.1447 29.1642 12.1447 30.4586C12.1447 31.0398 12.1447 31.6473 12.1447 32.2285C12.1447 32.4134 12.1447 32.5984 12.1712 32.7833V32.8625H14.4017C14.4017 32.7304 14.4017 32.5984 14.4017 32.4663C14.4283 32.0964 14.4283 31.753 14.3752 31.436C14.0565 29.4019 14.6938 27.8169 16.4198 26.4168C17.2695 25.73 17.9599 25.3337 19.022 25.3337C19.1282 25.2545 19.2079 25.2809 19.261 25.2545ZM8.32102 20.3674L8.24136 20.3938C7.94927 20.473 7.65719 20.4995 7.39166 20.4995C6.70127 20.4995 6.09054 20.2881 5.55948 19.839C4.68322 19.1522 4.23182 17.9899 4.31148 16.669V16.5633H4.41769C5.61259 16.4313 6.62161 16.6954 7.312 17.3559C8.02893 18.0163 8.37413 19.0465 8.32102 20.3145V20.3674ZM13.3661 13.5518L13.2865 13.6047L13.2068 13.5518C11.5605 12.3102 10.6312 10.4346 10.6312 8.37413C10.6312 6.34004 11.5605 4.49086 13.2068 3.24927L13.2865 3.19644L13.3661 3.24927C15.0124 4.49086 15.9418 6.36645 15.9418 8.42697C15.9418 10.4611 14.9859 12.3367 13.3661 13.5518ZM18.3847 22.9826H18.2785V22.877C18.1723 21.609 18.4909 20.6051 19.1813 19.9183C19.792 19.3107 20.6152 19.0201 21.6242 19.0201C21.7835 19.0201 21.9163 19.0201 22.0756 19.0465H22.1818V19.1522C22.4208 20.2089 22.1818 21.1863 21.518 21.926C20.8807 22.6392 19.9248 23.009 18.8361 23.009C18.6768 23.009 18.544 23.009 18.3847 22.9826Z" fill="#2A2A2A"/>
<path d="M39.4149 51.7241C39.5211 51.7241 39.6273 51.7241 39.7335 51.7241V49.5315C37.5296 49.2409 36.2551 47.9993 35.9364 45.7803H33.7591C33.6528 47.1804 34.2901 48.7125 35.5116 49.9277C36.6534 51.0636 38.0872 51.7241 39.4149 51.7241Z" fill="#2A2A2A"/>
</svg>
