<svg width="80" height="80" viewBox="0 0 80 80" fill="none" xmlns="http://www.w3.org/2000/svg">
<path d="M39.7226 62.1276L39.7065 59.6288C40.4806 59.6238 41.2621 59.5708 42.0282 59.4711L42.3474 61.9488C41.4803 62.0616 40.5971 62.122 39.7226 62.1276ZM37.0978 61.9849C36.224 61.884 35.3525 61.7276 34.5066 61.5213L35.0935 59.0935C35.8397 59.2761 36.6101 59.4138 37.3823 59.5041L37.0978 61.9849ZM44.9318 61.4484L44.3102 59.0293C45.0607 58.8343 45.8051 58.5912 46.5228 58.3071L47.4345 60.6308C46.622 60.953 45.7803 61.2278 44.9318 61.4484ZM31.9921 60.7392C31.1752 60.4289 30.3677 60.0637 29.5917 59.6537L30.7488 57.4421C31.4343 57.8048 32.1483 58.1282 32.8703 58.4018L31.9921 60.7392ZM49.8157 59.5129L48.63 57.3169C49.3068 56.948 49.97 56.5304 50.6016 56.0774L52.0456 58.1114C51.3316 58.6236 50.5817 59.0947 49.8157 59.5129ZM27.3432 58.2809C26.6267 57.7811 25.9319 57.2315 25.2768 56.6476L26.9273 54.7794C27.508 55.2978 28.1241 55.7845 28.7587 56.2276L27.3432 58.2809ZM54.089 56.4501L52.4144 54.6043C52.9846 54.0808 53.5306 53.5156 54.0376 52.9242L55.9199 54.555C55.3484 55.2224 54.7324 55.8599 54.089 56.4501ZM23.4212 54.7769C22.8423 54.1201 22.2976 53.4215 21.8017 52.7005L23.8445 51.2785C24.2852 51.9178 24.7686 52.5385 25.2818 53.1218L23.4212 54.7769ZM57.5121 52.4538L55.4507 51.0597C55.8827 50.4129 56.2812 49.7337 56.6351 49.0395L58.8465 50.1792C58.4486 50.9607 57.9998 51.7259 57.5121 52.4538ZM20.4376 50.4441C20.0292 49.6689 19.6635 48.8594 19.3499 48.0399L21.6691 47.1438C21.9474 47.8711 22.2721 48.5883 22.6341 49.2769L20.4376 50.4441ZM59.9026 47.7583L57.5716 46.8933C57.8399 46.1624 58.0674 45.4065 58.2484 44.6475L60.6649 45.2295C60.461 46.0851 60.205 46.9357 59.9026 47.7583ZM18.5547 45.5218C18.3403 44.6712 18.1748 43.7987 18.0614 42.9288L20.5262 42.6054C20.626 43.3781 20.7729 44.1527 20.9638 44.9079L18.5547 45.5218ZM61.1241 42.6297L58.6562 42.3405C58.746 41.5697 58.7913 40.7814 58.7913 39.9975C58.7913 39.818 58.7888 39.6385 58.7845 39.4603L61.2685 39.3955C61.2741 39.5955 61.2766 39.7968 61.2766 39.9975C61.276 40.8774 61.2245 41.7635 61.1241 42.6297ZM17.8742 40.2991L17.8723 40.0012C17.8723 39.2185 17.912 38.4334 17.9913 37.6638L20.463 37.9211C20.3924 38.606 20.3564 39.3045 20.3564 39.9969L20.3589 40.2667L17.8742 40.2991ZM58.5868 37.1247C58.4752 36.3495 58.3172 35.5768 58.1176 34.8278L60.518 34.1809C60.743 35.0241 60.9202 35.894 61.0467 36.7664L58.5868 37.1247ZM20.8392 35.608L18.4146 35.0602C18.6068 34.2021 18.8516 33.3478 19.1429 32.5209L21.485 33.3546C21.2266 34.0887 21.0097 34.8465 20.8392 35.608ZM57.3807 32.6044C57.0937 31.8834 56.759 31.1698 56.3866 30.4844L58.5682 29.2867C58.9878 30.0594 59.364 30.8626 59.6875 31.6759L57.3807 32.6044ZM22.3924 31.1942L20.1655 30.0868C20.5523 29.2998 20.9904 28.5283 21.4683 27.7923L23.5489 29.1577C23.1256 29.8107 22.7364 30.4962 22.3924 31.1942ZM55.1507 28.499C54.7026 27.8665 54.2099 27.2527 53.688 26.675L55.5263 24.9944C56.1157 25.6449 56.6704 26.336 57.1749 27.0495L55.1507 28.499ZM24.9384 27.2757L23.0338 25.6711C23.5941 24.9981 24.2021 24.3525 24.8386 23.7512L26.5393 25.5733C25.9747 26.1055 25.4361 26.6788 24.9384 27.2757ZM52.0184 25.0386C51.4339 24.5307 50.8123 24.0522 50.1696 23.6178L51.5566 21.5446C52.2824 22.0356 52.9852 22.5753 53.6453 23.1504L52.0184 25.0386ZM28.3298 24.0752L26.8591 22.0612C27.565 21.5402 28.3082 21.0585 29.068 20.6292L30.2859 22.8065C29.6134 23.1866 28.9552 23.6141 28.3298 24.0752ZM48.164 22.4319C47.4711 22.078 46.7521 21.7652 46.0276 21.501L46.873 19.1517C47.6936 19.4501 48.5061 19.8041 49.2882 20.2035L48.164 22.4319ZM32.3789 21.7882L31.4356 19.4769C32.2462 19.1423 33.0842 18.8557 33.9271 18.6245L34.5809 21.0355C33.8353 21.2386 33.0947 21.4929 32.3789 21.7882ZM43.7958 20.8417C43.044 20.6697 42.2717 20.5425 41.5014 20.464L41.7505 17.9783C42.6225 18.0674 43.4958 18.2107 44.348 18.4057L43.7958 20.8417ZM36.8561 20.5606L36.5035 18.0873C37.3674 17.9627 38.2481 17.8904 39.1239 17.8723L39.1741 20.3705C38.4 20.3861 37.6203 20.4503 36.8561 20.5606Z" fill="#1F2431"/>
<path d="M45.0308 8.51064L40.0003 3.4943L34.9692 8.51064L33.1915 6.78918L40.0003 0L46.8085 6.78918L45.0308 8.51064Z" fill="#1F2431"/>
<path d="M39.1489 2.55322H41.7021V13.6171H39.1489V2.55322Z" fill="#1F2431"/>
<path d="M14.343 21.2765L11.9149 21.2758L11.9179 11.067L21.276 11.0637L21.2766 13.679L14.3448 13.6816L14.343 21.2765Z" fill="#1F2431"/>
<path d="M14.9088 12.6243L22.0507 19.872L20.2579 21.6387L13.116 14.3909L14.9088 12.6243Z" fill="#1F2431"/>
<path d="M6.74228 46.8084L0 39.575L6.74228 32.3403L8.51064 34.1799L3.48286 39.575L8.51002 44.9688L6.74228 46.8084Z" fill="#1F2431"/>
<path d="M2.55319 38.2979H12.766V40.851H2.55319V38.2979Z" fill="#1F2431"/>
<path d="M21.2753 68.0851L11.0651 68.0803L11.0638 58.7234H13.7125L13.7138 65.6849L21.2766 65.6879L21.2753 68.0851Z" fill="#1F2431"/>
<path d="M19.5796 57.9521L21.373 59.7173L14.2343 66.9701L12.4409 65.2049L19.5796 57.9521Z" fill="#1F2431"/>
<path d="M57.8736 68.9362L57.8723 66.3215L64.802 66.3176L64.8063 58.7234L67.234 58.7247L67.2292 68.9309L57.8736 68.9362Z" fill="#1F2431"/>
<path d="M58.8897 58.6348L66.0327 65.8805L64.2408 67.6469L57.0979 60.4012L58.8897 58.6348Z" fill="#1F2431"/>
<path d="M72.4059 47.6595L70.6383 45.928L75.6657 40.851L70.6383 35.774L72.4059 34.0425L79.1489 40.851L72.4059 47.6595Z" fill="#1F2431"/>
<path d="M66.383 39.1489H76.5957V41.7021H66.383V39.1489Z" fill="#1F2431"/>
<path d="M39.148 79.9999L32.3404 73.2113L34.1173 71.4893L39.148 76.5062L44.1806 71.4893L45.9574 73.2113L39.148 79.9999Z" fill="#1F2431"/>
<path d="M37.4468 67.2341H40V77.4469H37.4468V67.2341Z" fill="#1F2431"/>
<path d="M65.436 22.1276L65.4327 14.5322L57.8723 14.529L57.8737 11.9148L68.0805 11.9194L68.0851 22.1263L65.436 22.1276Z" fill="#1F2431"/>
<path d="M64.9091 13.3057L66.7018 15.0714L59.5623 22.3197L57.7697 20.554L64.9091 13.3057Z" fill="#1F2431"/>
<path d="M39.5745 56.1703C30.8926 56.1703 23.8298 48.9162 23.8298 39.9997C23.8298 31.0839 30.8932 23.8298 39.5745 23.8298C48.2557 23.8298 55.3191 31.0839 55.3191 39.9997C55.3191 48.9162 48.2557 56.1703 39.5745 56.1703ZM39.5745 26.377C32.279 26.377 26.3431 32.4884 26.3431 39.9997C26.3431 47.5117 32.279 53.6231 39.5745 53.6231C46.8699 53.6231 52.8052 47.5117 52.8052 39.9997C52.8052 32.4884 46.8699 26.377 39.5745 26.377Z" fill="#1F2431"/>
<path d="M39.5748 45.1063C36.0546 45.1063 33.1915 42.2425 33.1915 38.7236C33.1915 35.2035 36.0546 32.3403 39.5748 32.3403C43.0937 32.3403 45.9574 35.2035 45.9574 38.7236C45.9574 42.2425 43.0937 45.1063 39.5748 45.1063ZM39.5748 34.8389C37.4495 34.8389 35.7197 36.5809 35.7197 38.723C35.7197 40.8651 37.4495 42.6064 39.5748 42.6064C41.7 42.6064 43.4292 40.8645 43.4292 38.723C43.4292 36.5809 41.7 34.8389 39.5748 34.8389Z" fill="#1F2431"/>
<path d="M49.3617 50.2128H46.9409V49.7942C46.9409 47.6495 45.2852 45.9059 43.2503 45.9059H35.8986C33.8637 45.9059 32.208 47.6501 32.208 49.7942V50.2128H29.7872V49.7942C29.7872 46.2708 32.5286 43.4043 35.8986 43.4043H43.2503C46.6197 43.4043 49.3617 46.2708 49.3617 49.7942V50.2128Z" fill="#1F2431"/>
</svg>
