<svg width="1083" height="333" viewBox="0 0 1083 333" fill="none" xmlns="http://www.w3.org/2000/svg">
<path d="M564.147 320.615C592.329 301.532 674.058 272.302 775.515 308.048C876.972 343.794 931.022 329.464 955.179 320.615C1006.51 301.813 1042.14 307.211 1082 320.615M533.951 320.615C507.782 316.426 439.741 305.256 376.934 294.085C298.426 280.122 188.809 297.715 138.39 308.048C87.0573 318.569 30.189 312.237 1 308.048" stroke="url(#paint0_linear_643_4357)" stroke-width="3"/>
<path d="M399.145 141.523H408.126L372.033 329.074H369.627L399.145 141.523Z" fill="#312E63"/>
<path d="M408.126 141.523H403.635L378.81 293.861L408.126 141.523Z" fill="#232056"/>
<path d="M364.413 141.555C364.413 139.486 366.09 137.808 368.16 137.808H652.691C653.795 137.808 654.691 138.704 654.691 139.808V143.301C654.691 144.406 653.795 145.301 652.691 145.301H368.16C366.09 145.301 364.413 143.624 364.413 141.555Z" fill="#312E63"/>
<path d="M617.785 141.344H608.803L644.896 328.895H647.303L617.785 141.344Z" fill="#312E63"/>
<path d="M527.636 220.228V212.278V176.089C527.636 156.213 564.772 156.213 604.508 156.213C606.395 139.366 608.428 100.958 618.093 98.1868C656.644 87.1343 665.15 100.343 661.621 129.367C650.3 222.5 638.014 220.228 627.259 220.228H527.636Z" fill="#F47920"/>
<rect width="10.4252" height="95.1302" transform="matrix(-1 0 0 1 584.646 216.648)" fill="#312E63"/>
<path d="M584.646 311.779H574.221L584.646 216.648V311.779Z" fill="#232056"/>
<path d="M584.511 311.779H574.279C571.437 314.657 564.047 316.959 555.52 318.11C546.425 319.338 539.035 319.261 539.035 329.046H621.46C621.46 319.261 616.912 319.261 603.838 318.11C593.379 317.189 586.595 313.505 584.511 311.779Z" fill="#232056"/>
<path d="M493.101 133.701H541.317V137.809H493.101V133.701Z" fill="#FE8100"/>
<path d="M493.171 136.307H541.388V137.936H493.171V136.307Z" fill="#FF7301"/>
<path d="M493.171 133.701H541.388V135.004H493.171V133.701Z" fill="#FF7301"/>
<path d="M455.152 86.4168C454.557 83.3323 456.92 80.4697 460.062 80.4697H487.685C490.081 80.4697 492.141 82.1698 492.594 84.5227L501.726 131.861C502.321 134.946 499.958 137.808 496.816 137.808H469.193C466.797 137.808 464.738 136.108 464.284 133.756L455.152 86.4168Z" fill="#FE8100"/>
<path d="M466.595 137.809H501.964C502.436 137.809 502.791 137.379 502.701 136.916C502.633 136.562 502.324 136.307 501.964 136.307H464.776C464.945 137.179 465.708 137.809 466.595 137.809Z" fill="#FF7301"/>
<path d="M502.457 135.004L492.363 83.2922C492.043 81.6528 490.607 80.4697 488.937 80.4697L499.688 135.004H502.457Z" fill="#FF7301"/>
<ellipse cx="476.367" cy="106.877" rx="1.67351" ry="4.72393" transform="rotate(-10.1693 476.367 106.877)" fill="#FFDD79"/>
<path d="M533.966 304.018C543.331 298.579 534.592 283.575 534.592 283.575L558.574 271.986C558.574 271.986 559.085 283.159 563.082 292.258C565.31 297.331 568.615 307.321 568.415 311.14C567.41 318.285 528.176 323.128 533.966 304.018Z" fill="#FDCBB4"/>
<path d="M558.574 271.986C558.574 271.986 559.085 283.159 563.082 292.258C565.311 297.331 568.615 307.321 568.415 311.14C568.336 311.704 568.02 312.252 567.506 312.776C567.49 308.137 565.169 297.608 563.024 295.361C560.879 293.114 560.86 288.361 559.721 289.298C556.952 291.579 545.875 292.258 538.219 294.674C537.124 290.887 534.593 283.575 534.593 283.575L558.574 271.986Z" fill="#F1A089"/>
<path d="M507.447 321.985C512.76 319.465 525.203 308.978 534.286 303.804C539.278 305.926 540.429 311.919 542.474 314.276C544.519 316.632 545.607 318.322 557.257 315.323C568.907 312.325 567.55 311.626 568.468 311.127C569.386 310.629 570.457 314.284 569.722 314.474C569.389 314.559 558.745 317.805 546.854 319.434C531.868 324.484 516.08 328.352 513.304 328.994C508.245 330.166 503.317 324.227 507.447 321.985Z" fill="black"/>
<path d="M455.477 300.325C466.209 301.238 467.689 277.898 467.689 277.898L495.357 288.467C495.357 288.467 489.815 297.92 486.417 307.506C484.564 312.731 482.667 322.962 480.261 325.936C474.911 331.92 443.142 312.866 455.477 300.325Z" fill="#FDCBB4"/>
<path d="M495.356 288.467C495.356 288.467 489.815 297.92 486.416 307.505C484.564 312.73 482.667 322.961 480.26 325.935C479.682 325.964 479.087 325.967 478.479 325.946C484.66 319.709 482.646 310.802 484.47 307.458C485.834 304.956 492.294 295.853 486.91 296.141C482.602 296.372 475.996 288.811 466.222 287.019C466.754 284.413 467.688 279.037 467.688 279.037L495.356 288.467Z" fill="#F1A089"/>
<path d="M424.417 299.667C430.194 300.759 444.099 299.232 456.617 300.311C459.406 304.956 456.815 310.464 457.084 313.565C457.353 316.666 457.58 318.361 468.76 322.792C479.94 327.223 479.254 325.862 480.289 326C481.324 326.138 480.043 329.714 479.336 329.434C478.63 329.154 429.813 310.79 425.034 308.76C420.256 306.73 419.761 299.047 424.417 299.667Z" fill="black"/>
<path d="M535.812 68.3134C536.572 70.3703 534.807 77.5705 534.486 79.1666H545.1C549.263 74.0593 545.133 69.5901 549.296 69.9093C553.459 70.2285 549.616 66.0788 552.499 66.7172C555.381 67.3556 552.899 62.2453 553.859 63.203C555.461 64.799 557.836 65.0147 558.583 64.8019C557.516 63.6315 554.804 60.8437 552.499 59.0562C549.616 56.8219 548.656 60.333 546.414 58.4178C543.532 56.1833 542.57 59.6947 540.969 59.0562C539.368 58.4178 534.018 63.4614 535.812 68.3134Z" fill="#FBCBB8"/>
<path d="M535.812 68.3134C536.572 70.3703 534.807 77.5705 534.486 79.1666H545.1C545.458 78.7266 545.755 78.2913 546.002 77.8634H535.615C536.072 75.732 536.68 71.4288 536.104 68.9043C534.766 63.0401 539.036 58.7559 540.828 59.2935C542.457 59.7822 544.086 56.5243 546.203 58.6419C547.832 60.2709 550.764 57.5017 552.393 59.2935C553.449 60.4546 556.955 63.4135 558.503 64.8219C558.531 64.8158 558.558 64.8091 558.583 64.8019C557.516 63.6315 554.804 60.8437 552.499 59.0562C549.616 56.8219 548.656 60.333 546.414 58.4178C543.532 56.1833 542.57 59.6947 540.969 59.0562C539.368 58.4178 534.018 63.4614 535.812 68.3134Z" fill="#F1A089"/>
<path d="M551.416 66.7867L548.646 64.3433" stroke="#F1A089"/>
<path d="M553.86 63.0406L551.742 61.4116" stroke="#F1A089"/>
<path d="M546.898 106.646C551.417 89.103 556.304 72.4878 558.825 71.7656L558.83 71.7754C564.298 82.9088 573.851 102.361 565.982 117.623C556.142 136.706 528.732 146.844 526.048 127.165C523.901 111.421 526.493 106.207 529.632 78.9218H546.523C546.821 87.5688 546.898 97.5735 546.898 106.646Z" fill="#EDF9FF"/>
<path d="M546.522 80.876H529.306" stroke="white" stroke-width="2"/>
<path d="M546.894 102.949C546.897 104.194 546.898 105.428 546.898 106.646C547.302 105.077 547.71 103.515 548.118 101.971C547.71 106.804 546.202 117.316 543.436 120.704C545.39 117.186 546.555 107.401 546.894 102.949Z" fill="#154D83"/>
<path d="M536.104 120.215C540.013 121.193 544.607 122.413 546.912 123.962C546.185 125.556 547.795 132.831 546.912 135.363C537.017 133.589 539.118 128.035 537.017 129.587C533.802 131.962 530.999 132.572 528.611 133.589C521.281 133.589 521.118 133.736 518.348 133.736C521.118 126.405 531.497 119.063 536.104 120.215Z" fill="#FBCBB8"/>
<path d="M546.912 135.363C537.017 133.588 539.118 128.034 537.017 129.587C533.802 131.962 530.999 132.572 528.611 133.588C528.329 133.588 528.058 133.589 527.797 133.589C537.246 130.674 537.017 126.405 537.896 128.523C541.415 133.996 544.358 134.496 545.39 134.061L545.064 122.975C545.772 123.288 546.399 123.617 546.912 123.962C546.186 125.555 547.795 132.831 546.912 135.363Z" fill="#F1A089"/>
<path d="M521.443 133.498C523.887 130.804 525.679 128.849 529.1 126.731" stroke="#F1A089"/>
<path d="M557.77 56.2607C563.256 62.4627 563.435 68.9828 562.838 71.4676C552.402 97.1104 583.313 73.8529 589.376 56.2607C589.376 56.2607 574.713 50.171 574.061 47.8908C573.41 45.6105 569.696 50.2973 557.77 56.2607Z" fill="#FBCBB8"/>
<path d="M574.06 47.8908C573.408 45.6105 569.694 50.2973 557.768 56.2607C560.539 59.7818 561.191 60.9221 562.168 63.8542C567.473 63.2026 572.942 54.2655 574.711 48.7381C574.358 48.4204 574.129 48.1339 574.06 47.8908Z" fill="#F1A089"/>
<path d="M614.123 71.4594C620.534 84.28 630.92 140.36 637.381 158.349C617.702 161.232 567.905 167.66 561.703 166.706C557.519 139.274 555.84 72.9579 558.823 71.7654C560.313 71.169 563.002 70.5641 563.002 70.5641C558.828 89.6474 581.785 66.696 589.24 56.2601C596.992 55.3656 609.8 62.8124 614.123 71.4594Z" fill="#EDF9FF"/>
<path d="M590.999 56.3608C582.692 70.5637 556.629 91.7089 561.679 70.8584" stroke="white" stroke-width="2"/>
<path d="M560.538 141.555L557.492 81.2842C556.962 94.7609 557.622 120.128 559.145 141.555H560.538Z" fill="#154D83"/>
<path d="M580.9 116.307C578.033 116.568 565.751 119.239 558.095 119.891C558.413 127.967 558.643 134.627 559.204 142.37C594.358 148.723 621.787 147.094 621.787 138.786C619.506 70.2082 602.402 63.6922 593.443 66.6243C570.312 74.4432 584.484 115.981 580.9 116.307Z" fill="#154D83"/>
<path d="M555.979 59.5689C545.298 61.3169 542.911 35.7151 545.297 20.5083C552.453 20.8065 575.067 22.2849 577.149 30.9444C580.589 45.2566 572.379 56.8853 555.979 59.5689Z" fill="#FBCBB8"/>
<path d="M545.297 20.5083C552.453 20.8065 575.067 22.2849 577.149 30.9443C578.803 37.8257 577.764 44.0867 574.416 49.0313C573.308 46.9137 572.267 44.4703 573.081 43.1671C577.479 36.3256 578.294 32.7419 573.896 31.113C569.497 29.484 573.407 38.4432 571.778 38.4432C565.708 37.7916 566.077 28.5067 562.004 30.9443C554.316 36.0221 547.119 35.453 544.482 34.5337C544.35 29.5958 544.645 24.6639 545.297 20.5083Z" fill="#F1A089"/>
<path d="M539.099 27.6759C537.297 15.7149 546.513 13.5745 551.775 14.1026C553.58 10.3007 559.774 6.41049 563.617 7.01521C572.7 8.44455 575.193 15.4411 575.978 18.5199C587.567 25.3987 580.805 36.8821 578.117 39.8824C577.883 40.5473 576.801 45.4739 575.136 49.1365C573.158 47.3154 573.718 45.3989 573.462 44.0014C573.143 42.2546 575.317 41.3849 576.998 36.606C578.679 31.8271 574.119 29.5227 572.007 30.8811C569.895 32.2394 573.2 38.7725 571.123 38.0416C565.524 35.3717 567.543 26.976 560.791 30.905C551.103 36.5421 540.286 35.565 539.099 27.6759Z" fill="#154D83"/>
<path d="M560.788 30.9068C551.1 36.5439 540.284 35.5668 539.096 27.6778C538.432 23.2682 539.265 20.1933 540.846 18.0949C538.764 31.6564 553.273 32.2868 560.788 30.9068Z" fill="#312E63"/>
<path d="M621.544 217.865C655.015 209.927 645.891 175.845 637.145 159.308C591.288 160.961 497.468 154.75 500.992 179.404C502.41 189.326 513.833 288.934 515.252 299.565C529.426 293.536 566.076 289.137 571.29 281.319C565.914 265.192 551.089 237.663 543.108 213.066C568.356 214.695 599.419 222.968 621.544 217.865Z" fill="black"/>
<path d="M637.144 159.308C645.459 175.031 654.116 206.612 626.184 216.507C603.704 217.505 540.664 208.831 537.569 208.831C538.71 214.043 563.47 275.454 566.076 279.527C562.166 284.414 526.818 287.997 514.712 294.676" stroke="#4B4FE2" stroke-width="2"/>
<path d="M621.543 217.865C655.014 209.927 645.89 175.845 637.144 159.308C591.287 160.961 497.467 154.75 500.991 179.404C502.409 189.326 513.346 285.348 514.764 295.979L526.33 210.134L543.756 215.021C543.535 214.37 543.318 213.718 543.107 213.066C568.355 214.695 599.418 222.968 621.543 217.865Z" fill="#09125A"/>
<path d="M621.568 218.483C655.639 213.968 645.893 175.835 637.155 159.306C565.426 159.306 526.038 158.513 507.11 165.174C498.315 168.269 489.356 176.413 457.754 282.458C457.224 284.237 469.321 283.923 481.048 291.091C492.775 298.258 506.074 303.81 512.287 302.833C512.287 302.833 520.143 236.847 524.053 206.549C552.829 214.94 591.164 222.512 621.568 218.483Z" fill="black"/>
<path d="M459.411 276.594C465.537 278.603 478.832 283.533 483.002 287.182C487.172 290.831 501.681 295.435 508.414 297.281L521.608 200.196C536.773 206.441 577.995 218.18 621.567 215.182C652.249 213.072 644.593 178.043 633.517 159.306" stroke="#4B4FE2" stroke-width="2"/>
<path d="M524.05 206.549C523.876 207.902 523.695 209.316 523.508 210.784C521.927 205.245 519.537 191.562 512.973 182.277C519.326 188.467 523.073 199.207 526.005 207.113C525.349 206.926 524.697 206.737 524.05 206.549Z" fill="#031677"/>
<path d="M604.149 68.5943C587.58 58.5112 581.003 78.3511 582.084 88.8701C582.978 97.5612 587.743 118.567 586.362 118.682C583.5 118.92 562.331 120.052 546.407 120.88V137.682C605.824 148.721 619.576 143.835 619.576 135.385C619.576 129.414 618.041 77.0485 604.149 68.5943Z" fill="#EDF9FF"/>
<path d="M548.687 138.009C548.687 132.522 548.687 124.955 548.687 120.88" stroke="white" stroke-width="2"/>
<path d="M545.134 220.197L543.668 214.985H580.084C589.519 212.271 590.204 204.799 592.199 198.541C602.393 166.582 610.715 154.597 634.502 151.173C647.187 149.346 656.504 145.846 659.576 144.324C647.565 222.252 637.108 220.228 626.976 220.228C618.368 220.228 606.944 220.197 545.134 220.197Z" fill="#F18F48"/>
<path d="M351.381 329.046H737.766" stroke="#232056"/>
<g clip-path="url(#clip0_643_4357)">
<path d="M497.318 72.8401C497.24 72.8211 497.182 72.758 497.172 72.6806C497.129 72.376 497.02 71.5984 496.953 71.1151C496.943 71.0488 496.848 71.0499 496.838 71.1163L496.619 72.6805C496.609 72.7579 496.551 72.821 496.473 72.8399C496.277 72.8878 495.9 72.9798 495.655 73.0393C495.597 73.0537 495.597 73.1369 495.655 73.1513C495.9 73.2108 496.277 73.3028 496.473 73.3506C496.551 73.3695 496.609 73.4326 496.62 73.51L496.838 75.0742C496.848 75.1406 496.943 75.1406 496.953 75.0742L497.172 73.51C497.182 73.4326 497.24 73.3695 497.318 73.3506C497.514 73.3028 497.891 73.2108 498.136 73.1512C498.194 73.1369 498.194 73.0535 498.135 73.0391L497.318 72.8401Z" fill="white"/>
<path d="M496.619 73.5099L496.838 75.0741C496.848 75.1404 496.943 75.1404 496.953 75.0741L497.158 73.6083C496.85 73.2675 496.702 72.8604 496.633 72.5811L496.619 72.6804C496.609 72.7578 496.551 72.8209 496.473 72.8398C496.277 72.8876 495.9 72.9797 495.655 73.0392C495.597 73.0535 495.597 73.1368 495.655 73.1511C495.9 73.2107 496.277 73.3027 496.473 73.3505C496.551 73.3694 496.609 73.4324 496.619 73.5099Z" fill="white"/>
</g>
<mask id="path-55-inside-1_643_4357" fill="white">
<path fill-rule="evenodd" clip-rule="evenodd" d="M461.079 33.0547C454.452 33.0547 449.079 38.4273 449.079 45.0547V54.1104C449.079 60.7379 454.452 66.1104 461.079 66.1104H463.957C469.958 68.0308 469.962 72.9385 469.549 74.2458C472.304 71.8257 473.463 67.3364 472.475 66.0793C478.696 65.6329 483.604 60.4448 483.604 54.1105V45.0547C483.604 38.4273 478.231 33.0547 471.604 33.0547H461.079Z"/>
</mask>
<path fill-rule="evenodd" clip-rule="evenodd" d="M461.079 33.0547C454.452 33.0547 449.079 38.4273 449.079 45.0547V54.1104C449.079 60.7379 454.452 66.1104 461.079 66.1104H463.957C469.958 68.0308 469.962 72.9385 469.549 74.2458C472.304 71.8257 473.463 67.3364 472.475 66.0793C478.696 65.6329 483.604 60.4448 483.604 54.1105V45.0547C483.604 38.4273 478.231 33.0547 471.604 33.0547H461.079Z" fill="white"/>
<path d="M463.957 66.1104L464.261 65.158L464.113 65.1104H463.957V66.1104ZM469.549 74.2458L468.595 73.9443L467.514 77.3642L470.208 74.9972L469.549 74.2458ZM472.475 66.0793L472.404 65.0818L470.527 65.2166L471.689 66.6968L472.475 66.0793ZM450.079 45.0547C450.079 38.9795 455.004 34.0547 461.079 34.0547V32.0547C453.899 32.0547 448.079 37.875 448.079 45.0547H450.079ZM450.079 54.1104V45.0547H448.079V54.1104H450.079ZM461.079 65.1104C455.004 65.1104 450.079 60.1856 450.079 54.1104H448.079C448.079 61.2901 453.899 67.1104 461.079 67.1104V65.1104ZM463.957 65.1104H461.079V67.1104H463.957V65.1104ZM463.652 67.0629C466.386 67.938 467.658 69.4477 468.239 70.8023C468.846 72.2176 468.728 73.5245 468.595 73.9443L470.502 74.5474C470.783 73.6598 470.869 71.8593 470.077 70.0137C469.259 68.1077 467.528 66.2033 464.261 65.158L463.652 67.0629ZM470.208 74.9972C471.751 73.6427 472.814 71.7465 473.367 70.0336C473.645 69.1733 473.807 68.3205 473.822 67.5656C473.836 66.8515 473.723 66.0492 473.262 65.4617L471.689 66.6968C471.721 66.7379 471.834 66.9683 471.822 67.5251C471.812 68.0411 471.697 68.6976 471.464 69.4192C470.995 70.8703 470.102 72.4288 468.889 73.4945L470.208 74.9972ZM482.604 54.1105C482.604 59.9165 478.105 64.6727 472.404 65.0818L472.547 67.0767C479.287 66.593 484.604 60.9731 484.604 54.1105H482.604ZM482.604 45.0547V54.1105H484.604V45.0547H482.604ZM471.604 34.0547C477.679 34.0547 482.604 38.9796 482.604 45.0547H484.604C484.604 37.875 478.784 32.0547 471.604 32.0547V34.0547ZM461.079 34.0547H471.604V32.0547H461.079V34.0547Z" fill="#EBEBEB" mask="url(#path-55-inside-1_643_4357)"/>
<path d="M477.332 41.4206V48.6289C477.332 55.1935 472.874 60.9176 466.507 62.5295C460.149 60.9229 455.691 55.1935 455.691 48.6289V41.4206C460.697 40.8567 463.533 38.9522 466.512 36.7285C469.491 38.9522 472.326 40.8567 477.332 41.4206Z" fill="#FFD15C"/>
<path d="M466.512 59.6833C461.719 58.1618 458.426 53.7145 458.426 48.6287V43.7452C461.793 43.011 464.267 41.6545 466.512 40.1064C468.805 41.6971 471.231 43.027 474.598 43.7505V48.6341C474.598 53.7145 471.305 58.1618 466.512 59.6833Z" fill="#F8B64C"/>
<mask id="path-59-inside-2_643_4357" fill="white">
<path d="M468.479 47.2695V46.4829H464.152V47.2695H465.529C466.041 47.2695 466.473 47.5991 466.636 48.0561H464.152V48.8428H466.636C466.555 49.0721 466.406 49.2709 466.207 49.4118C466.009 49.5526 465.772 49.6286 465.529 49.6294H464.152V50.5788L466.349 52.7758H467.462L465.102 50.416H465.529C465.982 50.4154 466.421 50.2586 466.772 49.972C467.123 49.6854 467.364 49.2866 467.455 48.8428H468.479V48.0561H467.455C467.395 47.7699 467.271 47.501 467.092 47.2695H468.479Z"/>
</mask>
<path d="M468.479 47.2695V46.4829H464.152V47.2695H465.529C466.041 47.2695 466.473 47.5991 466.636 48.0561H464.152V48.8428H466.636C466.555 49.0721 466.406 49.2709 466.207 49.4118C466.009 49.5526 465.772 49.6286 465.529 49.6294H464.152V50.5788L466.349 52.7758H467.462L465.102 50.416H465.529C465.982 50.4154 466.421 50.2586 466.772 49.972C467.123 49.6854 467.364 49.2866 467.455 48.8428H468.479V48.0561H467.455C467.395 47.7699 467.271 47.501 467.092 47.2695H468.479Z" fill="white"/>
<path d="M468.479 47.2695V48.2695H469.479V47.2695H468.479ZM468.479 46.4829H469.479V45.4829H468.479V46.4829ZM464.152 46.4829V45.4829H463.152V46.4829H464.152ZM464.152 47.2695H463.152V48.2695H464.152V47.2695ZM466.636 48.0561V49.0561H468.054L467.578 47.7205L466.636 48.0561ZM464.152 48.0561V47.0561H463.152V48.0561H464.152ZM464.152 48.8428H463.152V49.8428H464.152V48.8428ZM466.636 48.8428L467.579 49.1747L468.048 47.8428H466.636V48.8428ZM465.529 49.6294V50.6294L465.532 50.6294L465.529 49.6294ZM464.152 49.6294V48.6294H463.152V49.6294H464.152ZM464.152 50.5788H463.152V50.993L463.445 51.2859L464.152 50.5788ZM466.349 52.7758L465.642 53.4829L465.935 53.7758H466.349V52.7758ZM467.462 52.7758V53.7758H469.876L468.169 52.0687L467.462 52.7758ZM465.102 50.416V49.416H462.688L464.395 51.1231L465.102 50.416ZM465.529 50.416V51.416L465.53 51.416L465.529 50.416ZM467.455 48.8428V47.8428H466.64L466.476 48.6416L467.455 48.8428ZM468.479 48.8428V49.8428H469.479V48.8428H468.479ZM468.479 48.0561H469.479V47.0561H468.479V48.0561ZM467.455 48.0561L466.477 48.2622L466.644 49.0561H467.455V48.0561ZM467.092 47.2695V46.2695H465.055L466.301 47.8811L467.092 47.2695ZM469.479 47.2695V46.4829H467.479V47.2695H469.479ZM468.479 45.4829H464.152V47.4829H468.479V45.4829ZM463.152 46.4829V47.2695H465.152V46.4829H463.152ZM464.152 48.2695H465.529V46.2695H464.152V48.2695ZM465.529 48.2695C465.597 48.2695 465.666 48.3128 465.694 48.3918L467.578 47.7205C467.281 46.8855 466.485 46.2695 465.529 46.2695V48.2695ZM466.636 47.0561H464.152V49.0561H466.636V47.0561ZM463.152 48.0561V48.8428H465.152V48.0561H463.152ZM464.152 49.8428H466.636V47.8428H464.152V49.8428ZM465.693 48.5108C465.681 48.5453 465.658 48.5753 465.628 48.5966L466.787 50.227C467.153 49.9665 467.43 49.5989 467.579 49.1747L465.693 48.5108ZM465.628 48.5966C465.598 48.6178 465.563 48.6293 465.526 48.6294L465.532 50.6294C465.982 50.628 466.42 50.4874 466.787 50.227L465.628 48.5966ZM465.529 48.6294H464.152V50.6294H465.529V48.6294ZM463.152 49.6294V50.5788H465.152V49.6294H463.152ZM463.445 51.2859L465.642 53.4829L467.056 52.0687L464.859 49.8717L463.445 51.2859ZM466.349 53.7758H467.462V51.7758H466.349V53.7758ZM468.169 52.0687L465.809 49.7089L464.395 51.1231L466.755 53.4829L468.169 52.0687ZM465.102 51.416H465.529V49.416H465.102V51.416ZM465.53 51.416C466.213 51.4151 466.875 51.1786 467.404 50.7465L466.139 49.1974C465.967 49.3385 465.751 49.4157 465.528 49.416L465.53 51.416ZM467.404 50.7465C467.934 50.3144 468.298 49.7131 468.435 49.0439L466.476 48.6416C466.431 48.8601 466.312 49.0564 466.139 49.1974L467.404 50.7465ZM467.455 49.8428H468.479V47.8428H467.455V49.8428ZM469.479 48.8428V48.0561H467.479V48.8428H469.479ZM468.479 47.0561H467.455V49.0561H468.479V47.0561ZM468.434 47.85C468.343 47.4163 468.154 47.0087 467.883 46.658L466.301 47.8811C466.387 47.9932 466.448 48.1235 466.477 48.2622L468.434 47.85ZM467.092 48.2695H468.479V46.2695H467.092V48.2695Z" fill="white" mask="url(#path-59-inside-2_643_4357)"/>
<defs>
<linearGradient id="paint0_linear_643_4357" x1="16.0978" y1="310.841" x2="1010.36" y2="334.3" gradientUnits="userSpaceOnUse">
<stop stop-color="#00AEEF" stop-opacity="0"/>
<stop offset="0.479167" stop-color="#00AEEF"/>
<stop offset="1" stop-color="#00AEEF" stop-opacity="0"/>
</linearGradient>
<clipPath id="clip0_643_4357">
<rect width="25.801" height="25.801" fill="white" transform="translate(487.308 49.7134)"/>
</clipPath>
</defs>
</svg>
