<svg width="22" height="22" viewBox="0 0 22 22" fill="none" xmlns="http://www.w3.org/2000/svg">
<path d="M20.625 17.1875L19.6529 16.2154L17.875 17.9933V12.375H16.5V17.9933L14.7221 16.2154L13.75 17.1875L17.1875 20.625L20.625 17.1875Z" fill="#154D83"/>
<path d="M12.375 19.2502H5.5V2.75024H11V6.87524C11.0011 7.23959 11.1463 7.58871 11.4039 7.84635C11.6615 8.10398 12.0107 8.24918 12.375 8.25024H16.5V10.3127H17.875V6.87524C17.8775 6.78488 17.8603 6.69506 17.8247 6.61198C17.7891 6.52889 17.7359 6.45452 17.6688 6.39399L12.8563 1.58149C12.7957 1.51434 12.7214 1.46112 12.6383 1.42551C12.5552 1.3899 12.4654 1.37275 12.375 1.37524H5.5C5.13565 1.37629 4.78653 1.52149 4.52889 1.77913C4.27126 2.03676 4.12605 2.38589 4.125 2.75024V19.2502C4.12605 19.6146 4.27126 19.9637 4.52889 20.2213C4.78653 20.479 5.13565 20.6242 5.5 20.6252H12.375V19.2502ZM12.375 3.02524L16.225 6.87524H12.375V3.02524Z" fill="#154D83"/>
</svg>
