<svg width="32" height="32" viewBox="0 0 32 32" fill="none" xmlns="http://www.w3.org/2000/svg">
<g clip-path="url(#clip0_1061_12625)">
<path fill-rule="evenodd" clip-rule="evenodd" d="M3.281 9.56322C2.8325 9.30415 2.25925 9.45797 2.0005 9.90622C1.74144 10.3547 1.89525 10.928 2.3435 11.1867C2.79175 11.4458 3.36525 11.292 3.624 10.8437C3.88306 10.3952 3.72925 9.82197 3.281 9.56322ZM27.1872 7.56272H26.2497V6.62522C26.2497 6.10709 25.8306 5.68772 25.3122 5.68772C24.7942 5.68772 24.3747 6.10709 24.3747 6.62522V7.56272H23.4372C22.9192 7.56272 22.4997 7.98209 22.4997 8.50022C22.4997 9.01853 22.9192 9.43772 23.4372 9.43772H24.3747V10.3752C24.3747 10.8933 24.7942 11.3127 25.3122 11.3127C25.8306 11.3127 26.2497 10.8933 26.2497 10.3752V9.43772H27.1872C27.7054 9.43772 28.1247 9.01853 28.1247 8.50022C28.1247 7.98209 27.7054 7.56272 27.1872 7.56272ZM1.875 4.68772C1.875 5.20603 2.29419 5.62522 2.8125 5.62522C3.33062 5.62522 3.75 5.20603 3.75 4.68772V3.75022H4.6875C5.20562 3.75022 5.625 3.33103 5.625 2.81272C5.625 2.29459 5.20562 1.87522 4.6875 1.87522H3.75V0.937717C3.75 0.419592 3.33062 0.000216594 2.8125 0.000216594C2.29419 0.000216594 1.875 0.419592 1.875 0.937717V1.87522H0.9375C0.419375 1.87522 0 2.29459 0 2.81272C0 3.33103 0.419375 3.75022 0.9375 3.75022H1.875V4.68772ZM7.79662 1.75265C8.68894 3.53778 9.18456 5.50853 9.30931 7.50015H18.8157C18.9402 5.50878 19.4358 3.53778 20.3281 1.75265L20.5259 1.35715C20.6139 1.18118 20.6443 0.981958 20.6127 0.787741C20.5812 0.593525 20.4893 0.414165 20.3501 0.275092C20.0654 -0.0105334 19.6296 -0.0810959 19.2681 0.0993416L16.1223 1.67209L14.7251 0.275092C14.3589 -0.0910959 13.7656 -0.0910959 13.3994 0.275092L12.0024 1.67209L8.85669 0.0990916C8.49419 -0.0810959 8.06125 -0.0115334 7.77469 0.275092C7.63547 0.414148 7.54357 0.593505 7.51201 0.787726C7.48045 0.981948 7.51084 1.18118 7.59887 1.35715L7.79662 1.75265ZM19.8022 9.43772H8.32225L4.66187 13.8679C2.86475 16.0442 1.875 18.8612 1.875 21.6877C1.875 27.9523 6.65875 32 14.0622 32C21.4661 32 26.2497 27.9523 26.2497 21.6877C26.2497 18.8613 25.26 16.1067 23.4619 13.9304L19.8022 9.43772ZM17.5728 16V17.2765H15.3224C15.6126 17.6521 15.8142 18.0884 15.9121 18.5529H17.5728V19.8294H15.9121C15.7643 20.5496 15.3727 21.1969 14.8032 21.6619C14.2337 22.127 13.5213 22.3814 12.786 22.3823H12.0929L15.9223 26.2116H14.1174L10.5522 22.6465V21.1058H12.786C13.1807 21.1046 13.5652 20.9813 13.8869 20.7527C14.2086 20.5241 14.4516 20.2016 14.5827 19.8294H10.5522V18.5529H14.5827C14.3184 17.8113 13.617 17.2765 12.786 17.2765H10.5522V16H17.5728Z" fill="url(#paint0_linear_1061_12625)"/>
</g>
<defs>
<linearGradient id="paint0_linear_1061_12625" x1="14.0624" y1="0" x2="14.0624" y2="32" gradientUnits="userSpaceOnUse">
<stop stop-color="white"/>
<stop offset="1" stop-color="white" stop-opacity="0.4"/>
</linearGradient>
<clipPath id="clip0_1061_12625">
<rect width="32" height="32" fill="white"/>
</clipPath>
</defs>
</svg>
