<svg width="48" height="40" viewBox="0 0 48 40" fill="none" xmlns="http://www.w3.org/2000/svg">
<path fill-rule="evenodd" clip-rule="evenodd" d="M14.5001 31.3002C10.3001 31.2002 6.70009 28.5002 5.40009 24.5002C6.80009 24.8002 8.2001 24.8002 9.6001 24.5002H9.7001C7.1001 24.0002 4.80009 22.3002 3.40009 20.0002C2.40009 18.4002 1.90009 16.6002 2.00009 14.7002C3.30009 15.4002 4.80008 15.8002 6.30008 15.9002C4.30008 14.5002 2.90009 12.3002 2.40009 9.90017C1.80009 7.50017 2.20009 5.00017 3.40009 2.80017C8.40009 8.90017 15.7001 12.6002 23.5001 13.0002C23.5001 12.6002 23.5001 12.3002 23.3001 11.9002C22.7001 6.60017 26.5001 1.70017 31.8001 1.00017C34.8001 0.600172 37.7001 1.70017 39.9001 3.80017C40.0001 4.00017 40.2001 4.00017 40.4001 4.00017C42.4001 3.60017 44.2001 2.80017 46.0001 1.80017C45.3001 4.00017 43.8001 5.90018 41.8001 7.10018C43.7001 6.90018 45.5001 6.40018 47.2001 5.60018C46.8001 6.10018 46.5001 6.60018 46.1001 7.10018C45.1001 8.40018 43.9001 9.50017 42.6001 10.5002C42.5001 10.6002 42.4001 10.7002 42.4001 10.8002C42.5001 12.2002 42.4001 13.7002 42.2001 15.1002C41.8001 18.1002 41.0001 21.0002 39.7001 23.8002C38.5001 26.6002 36.8001 29.2002 34.7001 31.4002C31.1001 35.2002 26.4001 37.8002 21.3001 38.9002C19.5001 39.3002 17.7001 39.5002 15.9001 39.5002C10.4001 39.7002 5.00008 38.2002 0.300079 35.3002L0.100098 35.2002C3.4001 35.6002 6.80008 35.1002 9.80008 33.9002C11.6001 33.3002 13.1001 32.4002 14.5001 31.3002Z" fill="#42ACE2"/>
</svg>
