<svg width="32" height="32" viewBox="0 0 32 32" fill="none" xmlns="http://www.w3.org/2000/svg">
<circle cx="16" cy="16" r="15.75" stroke="#2A2A2A" stroke-width="0.5"/>
<path d="M9.04751 6.19457C8.73176 6.2101 8.42176 6.34995 8.1944 6.61012L6.60417 8.4299C6.60636 8.42449 6.59788 8.4252 6.55287 8.49157H6.55301C6.52893 8.52589 6.51033 8.56377 6.49761 8.60407C5.85039 10.7504 6.28419 13.1114 7.34115 15.3569C8.39813 17.6025 10.0841 19.7515 12.0198 21.5147C13.9555 23.278 16.1391 24.6576 18.2216 25.3421C20.3039 26.0264 22.323 26.0173 23.8192 24.8873L23.8193 24.8874C23.8356 24.8749 23.8508 24.8611 23.865 24.846C23.9043 24.8051 23.9055 24.8 23.8992 24.8061L23.9052 24.7983L25.4878 22.9865C25.9425 22.4661 25.9059 21.6481 25.4059 21.1747L21.6515 17.6202C21.1516 17.1468 20.3658 17.1845 19.911 17.7049L18.2123 19.6496C16.8334 19.2339 15.6545 18.5293 14.5206 17.4557C13.3866 16.3819 12.6011 15.2263 12.0733 13.8361L13.7716 11.8914C14.2263 11.371 14.1902 10.553 13.6902 10.0796L9.93579 6.52507C9.68584 6.28838 9.36422 6.17929 9.04846 6.19481L9.04751 6.19457ZM9.08321 6.9921C9.1995 6.98669 9.31784 7.0287 9.41456 7.12027L13.169 10.6748C13.3624 10.8579 13.3755 11.1502 13.1996 11.3515L11.3223 13.4994H11.3222C11.226 13.6101 11.1966 13.767 11.2459 13.9072C11.8157 15.5258 12.7347 16.8536 13.9993 18.051C15.264 19.2485 16.6196 20.0759 18.2213 20.5134L18.2212 20.5135C18.3603 20.5514 18.508 20.5058 18.6048 20.3952L20.4824 18.2468C20.6583 18.0456 20.9386 18.0324 21.132 18.2154L24.8867 21.7699C25.0802 21.953 25.0927 22.2448 24.9168 22.4461L23.3473 24.2422C22.1194 25.1597 20.3897 25.2111 18.4525 24.5746C16.5078 23.9356 14.3969 22.6119 12.5281 20.9095C10.6596 19.2072 9.03358 17.1284 8.03408 15.0051C7.04498 12.9036 6.68614 10.7792 7.23021 8.90635L8.76366 7.15209C8.85163 7.0514 8.96613 6.99757 9.08242 6.99187L9.08321 6.9921Z" fill="#2A2A2A"/>
</svg>
