<svg width="53" height="56" viewBox="0 0 53 56" fill="none" xmlns="http://www.w3.org/2000/svg">
<g clip-path="url(#clip0_635_5563)">
<path d="M20.2017 36.6431C21.4468 38.307 23.2494 39.3793 25.182 39.6381C26.4457 39.8045 27.7651 39.786 29.0474 39.7675C29.4376 39.7675 29.8093 39.749 30.1996 39.7675H30.2182C32.0393 39.7675 33.6933 39.1574 35.1242 37.9557C37.094 36.2918 38.0604 34.0917 37.9674 31.448C37.9674 31.3 37.986 30.8563 38.1904 30.7824C38.9524 30.4866 39.4913 29.895 40.0302 29.3403C40.216 29.137 40.4019 28.9521 40.5877 28.7487C40.9408 28.4159 41.2567 28.2865 41.6841 28.2865H41.7027C44.5088 28.305 47.3521 28.2865 50.1024 28.305H53.0015V26.7335H49.5264V12.3869H53.0015V10.8339H49.7679C47.1291 10.8339 44.3973 10.8339 41.7027 10.8339H41.6841C41.2196 10.8339 40.9036 10.7045 40.5877 10.3532C39.8444 9.57671 39.0639 8.8187 38.3205 8.07918C38.0232 7.78338 37.7259 7.48757 37.4285 7.19176C36.8896 6.65561 36.3507 6.11946 35.7932 5.56482C34.418 4.19672 32.9871 2.77314 31.5747 1.38655C30.7942 0.628542 29.7721 0.277271 28.7315 0.406686C27.728 0.536102 26.8731 1.10923 26.3528 1.99665C26.2599 2.14455 26.1855 2.31095 26.1112 2.47734C26.0555 2.55129 26.0183 2.62524 25.9811 2.71768L25.944 2.81012L25.851 2.75466C24.8475 2.14455 23.7511 1.99665 22.8034 2.32943C21.8556 2.64373 21.0937 3.42022 20.6663 4.47404L20.6291 4.54799L20.5362 4.51101C19.607 4.08579 19.0495 3.90091 18.5106 3.90091C18.2132 3.90091 17.9345 3.95637 17.6 4.04881C16.485 4.40008 15.6301 5.26902 15.3514 6.37829C15.0541 7.50606 15.37 8.68929 16.2248 9.53973C17.5814 10.9263 18.9752 12.2944 20.3318 13.6441C20.945 14.2542 21.5583 14.8643 22.1715 15.4744C22.2644 15.5668 22.3388 15.6408 22.4317 15.7517C22.4874 15.8071 22.5432 15.8811 22.6175 15.9366L22.729 16.0475L22.3945 16.1214C22.2459 16.1584 22.1158 16.1954 22.0043 16.2139C19.5327 16.7131 17.7858 18.8022 17.7858 21.2796C17.7858 22.6662 17.7858 24.0528 17.7858 25.4579C17.7858 26.2898 17.7858 27.1218 17.7858 27.9537C17.7858 28.6932 18.0274 29.3403 18.492 29.858C18.7336 30.1168 18.8079 30.3941 18.7522 30.7824C18.3805 32.7976 18.9194 34.9237 20.2017 36.6431ZM42.4275 12.4423H44.2487L46.0141 12.4054C46.5716 12.4054 47.0362 12.4054 47.4822 12.4054C47.5565 12.4054 47.6123 12.4054 47.6866 12.4239L47.8538 12.4423V26.6965H42.4089V12.4423H42.4275ZM28.1926 37.9557C27.6536 38.1036 27.0961 38.1776 26.5386 38.1776C25.3865 38.1776 24.2714 37.8633 23.2679 37.2532C21.7627 36.3473 20.7406 34.9052 20.3503 33.1858C19.9415 31.374 20.499 29.3033 21.7813 27.8058C23.0264 26.3638 24.8289 25.5873 26.9103 25.5873C27.0404 25.5873 27.1705 25.5873 27.3005 25.5873V23.9973C26.1484 24.1267 25.0334 24.2561 23.8812 24.3856L23.7697 24.404V24.2931C23.7697 24.2377 23.7697 24.1637 23.7697 24.0897C23.7697 23.9049 23.7511 23.683 23.7883 23.4612C23.8626 22.6662 24.4573 22.1485 25.2564 22.1485C28.1554 22.13 31.1102 22.13 34.0092 22.1485C34.8268 22.1485 35.4587 22.7586 35.4773 23.5351C35.4958 24.3301 34.8454 24.9402 33.9906 24.9587C33.4517 24.9772 32.9128 24.9772 32.3924 24.9587C32.0579 24.9587 31.7234 24.9587 31.3889 24.9587C29.7164 24.9772 28.397 26.2898 28.397 27.9537C28.397 29.6176 29.7164 30.9303 31.3889 30.9488C31.6862 30.9488 31.965 30.9488 32.2437 30.9488H32.6526L32.6712 31.0042C33.0428 32.1135 32.857 33.4447 32.1508 34.7388C31.2774 36.3288 29.8093 37.5305 28.1926 37.9557ZM36.3135 32.5757C36.3135 32.7421 36.2949 32.89 36.2764 33.0379C36.2206 33.4262 35.9604 34.2027 35.7188 34.6649C34.9198 36.1994 33.7304 37.2532 32.0765 37.8448L31.7792 37.9557L32.3181 37.2347C32.6526 36.791 32.9685 36.3842 33.2844 35.959C33.3588 35.8666 33.4145 35.7372 33.4703 35.6262L33.5074 35.5338C33.749 35.1825 33.9348 34.7203 34.1021 34.1287C34.2879 33.4631 34.3994 32.7051 34.3994 31.8917V30.9858H36.2764V32.5757H36.3135ZM19.3468 21.4645C19.3654 19.2459 20.9264 17.7114 23.1379 17.7114C23.9369 17.7114 24.5316 17.6559 24.8104 16.9534C25.1077 16.2139 24.6989 15.7332 24.1414 15.1786C21.8928 12.96 19.6628 10.7414 17.5257 8.57836C17.2283 8.26406 17.0053 7.89431 16.9124 7.52455C16.7266 6.80352 17.0611 6.064 17.7487 5.71273C18.4177 5.37994 19.2167 5.49087 19.7557 6.02702C20.4247 6.69259 21.1123 7.35816 21.7627 8.02372L24.1042 10.3532C25.182 11.4255 26.2413 12.4793 27.3191 13.5516C27.4121 13.6441 27.4864 13.718 27.5793 13.8104L27.6536 13.8844L28.843 12.6827C28.8244 12.6827 28.8058 12.6642 28.7872 12.6457C28.6571 12.5718 28.5271 12.4978 28.4156 12.3869C27.4678 11.4625 26.5386 10.5196 25.5909 9.57671C24.6431 8.63382 23.7139 7.70943 22.7662 6.76654C22.1901 6.17493 22.0229 5.52785 22.3016 4.80682C22.506 4.27067 22.9334 3.90091 23.4724 3.78998C24.0484 3.66057 24.6803 3.86393 25.1449 4.30764C26.9846 6.11946 28.8244 7.94977 30.404 9.53973C30.6084 9.7431 30.7757 9.94647 30.9615 10.1683C31.0358 10.2423 31.0916 10.3162 31.1659 10.4087L31.6677 9.891C31.9092 9.65066 32.1508 9.39183 32.411 9.11451C32.3924 9.11451 32.3738 9.09602 32.3738 9.09602C32.2437 9.02207 32.1137 8.94812 32.0022 8.85568C30.5898 7.46908 29.3076 6.19341 28.0811 4.95472C27.3749 4.23369 27.3191 3.17988 27.9881 2.49582C28.3041 2.18153 28.7129 1.99665 29.1589 1.99665H29.1775C29.6606 1.99665 30.1252 2.20002 30.4969 2.56978C34.2136 6.24888 37.4843 9.52125 40.5134 12.5533C40.6806 12.7197 40.8107 13.0155 40.8107 13.2743C40.8293 17.4526 40.8293 21.6678 40.8107 25.8461C40.8107 26.0864 40.6806 26.3823 40.5134 26.5671C40.086 27.0293 39.64 27.473 39.194 27.8983C38.8966 28.1941 38.5807 28.4899 38.2834 28.8042C37.9117 29.1739 37.4657 29.3588 36.9454 29.3588C36.0534 29.3588 35.1613 29.3588 34.2879 29.3588C33.3959 29.3588 32.5039 29.3588 31.6305 29.3588C31.1659 29.3588 30.7571 29.2109 30.4597 28.9521C30.1624 28.6932 29.9951 28.3235 30.0137 27.9352C30.0137 27.1033 30.6827 26.5302 31.6305 26.5302C32.0207 26.5302 32.4296 26.5302 32.8198 26.5302C33.2473 26.5302 33.6933 26.5302 34.1207 26.5302C35.7932 26.5117 37.094 25.1805 37.094 23.5166C37.094 21.8897 35.756 20.5585 34.1393 20.5585C31.1659 20.5401 28.1368 20.5401 25.1635 20.5585C24.3458 20.5585 23.5653 20.8913 23.0078 21.4829C22.4874 22.0376 22.2087 22.7401 22.2459 23.4796C22.3016 24.6814 22.1158 25.6427 21.0008 26.4192C20.6105 26.6781 20.3318 27.0848 20.0158 27.51C19.8858 27.7134 19.7371 27.8983 19.5698 28.1016L19.4398 28.268L19.4212 28.0462C19.4212 28.0092 19.4212 27.9722 19.4026 27.9352C19.384 27.8428 19.384 27.7504 19.384 27.6579V26.0125C19.3283 24.515 19.3282 22.9805 19.3468 21.4645Z" fill="#2A2A2A"/>
<path d="M0.892006 51.2116C1.70968 51.7478 2.43443 52.1175 3.12202 52.3394C5.24053 53.0419 7.61921 53.2083 10.3696 52.8571C11.7076 52.6907 13.25 52.3949 14.588 51.4705C15.4243 50.9158 15.7959 50.3057 15.7959 49.5292C15.7959 46.8485 15.7959 44.1677 15.7959 41.487C15.7959 35.4599 15.7959 29.2295 15.7773 23.11C15.7773 22.7032 15.6287 22.2225 15.3871 21.9452C14.2349 20.5032 12.5624 20.1889 10.797 19.8561H10.7598L10.5368 21.4276C10.5926 21.446 10.6483 21.446 10.7041 21.4645C10.8713 21.5015 11.0386 21.52 11.1687 21.5755L11.6332 21.7603C12.358 22.0377 13.1013 22.315 13.8075 22.6478C14.0119 22.7402 14.142 22.8881 14.1606 23.073C14.1792 23.2579 14.0491 23.4427 13.8261 23.5906L13.7889 23.6091C13.473 23.794 13.1199 24.0344 12.7111 24.1638C10.0908 25.0697 7.26613 25.1991 4.32994 24.5335C3.66094 24.3856 2.95477 24.1083 2.15568 23.7016C1.80259 23.5167 1.63534 23.3318 1.61676 23.11C1.61676 22.8881 1.78401 22.6847 2.15568 22.4814C2.6946 22.1671 3.28927 21.9637 3.79102 21.7788C4.14411 21.6679 4.49719 21.5755 4.86886 21.5015C4.99895 21.4645 5.12903 21.446 5.25912 21.4091L5.01753 19.8561C3.51227 20.1149 2.30435 20.4477 1.22651 21.1502C0.390253 21.7234 0 22.4444 0 23.4243C0.0185834 31.0043 0.0185834 39.2315 0 49.3444C0 50.1948 0.297335 50.8234 0.892006 51.2116ZM1.59818 25.347L1.72826 25.4025C5.87237 26.9555 9.92356 26.9555 14.0863 25.4025L14.2163 25.347V25.4764C14.2163 25.7352 14.2163 25.9941 14.2163 26.2344C14.2163 26.9185 14.2349 27.621 14.1792 28.3236C14.1606 28.6009 13.8075 28.9522 13.5288 29.0631L13.3615 29.137C12.5624 29.4513 11.7262 29.8026 10.8713 29.969C9.86781 30.1724 8.86431 30.2648 7.8608 30.2648C6.46704 30.2648 5.07328 30.0799 3.69811 29.6917C3.53086 29.6362 3.38219 29.5807 3.23352 29.5253L3.15919 29.4883C1.70968 28.9522 1.59818 28.7858 1.59818 27.2513V25.347ZM1.59818 30.6346L1.72826 30.69C5.87237 32.243 9.92356 32.243 14.0863 30.69L14.2163 30.6346V30.764C14.2163 31.0228 14.2163 31.2631 14.2163 31.522C14.2163 32.1875 14.2349 32.8901 14.1792 33.5741C14.1606 33.8699 13.8261 34.2212 13.5659 34.3321L13.4172 34.3876C12.5996 34.7204 11.7633 35.0717 10.8899 35.2381C9.8864 35.4414 8.86431 35.5523 7.8608 35.5523C6.46704 35.5523 5.07328 35.3675 3.67952 34.9792C3.47511 34.9238 3.27069 34.8498 3.10344 34.7759C1.72826 34.2397 1.61676 34.0733 1.61676 32.6128V30.6346H1.59818ZM1.59818 35.9406L1.72826 35.9961C5.85379 37.549 9.90498 37.549 14.0863 35.9961L14.2163 35.9406V36.07C14.2163 36.3288 14.2163 36.5877 14.2163 36.8465C14.2163 37.4936 14.2349 38.1591 14.1792 38.8062C14.1606 39.1205 13.8447 39.5273 13.5288 39.6567C12.6367 40.0264 11.7447 40.3962 10.797 40.5811C9.79348 40.766 8.80855 40.8584 7.82363 40.8584C6.44846 40.8584 5.11045 40.6735 3.79102 40.3038C3.60519 40.2483 3.40077 40.1928 3.21494 40.1189C1.70968 39.5642 1.59818 39.3978 1.59818 37.8079V35.9406ZM1.59818 41.2281L1.72826 41.2836C5.85379 42.8366 9.8864 42.8366 14.0677 41.3021L14.1978 41.2466V41.3761C14.1978 41.6349 14.1978 41.8937 14.1978 42.1525C14.2163 42.8366 14.2163 43.5576 14.1606 44.2602C14.1234 44.593 13.6588 44.9442 13.3429 45.0552L13.0827 45.1476C12.0978 45.4804 11.0757 45.8316 10.0536 45.9796C9.29172 46.0905 8.54839 46.1459 7.80505 46.1459C6.42987 46.1459 5.0547 45.9611 3.69811 45.5728C3.53086 45.5174 3.34502 45.4619 3.21494 45.4064C1.70968 44.8518 1.57959 44.6854 1.57959 43.1139V41.2281H1.59818ZM1.59818 46.5157L1.72826 46.5712C5.85379 48.1242 9.88639 48.1242 14.0863 46.5897L14.2163 46.5342V46.6636C14.2163 46.9224 14.2163 47.1813 14.2163 47.4401C14.2349 48.1057 14.2349 48.8082 14.1792 49.4923C14.1606 49.7881 13.7518 50.1763 13.4544 50.2872L13.0456 50.4351C12.0607 50.7679 11.0386 51.1192 10.0165 51.2856C9.29172 51.3965 8.54839 51.452 7.82363 51.452C6.46704 51.452 5.12903 51.2671 3.79102 50.8789C3.62377 50.8419 3.43794 50.7679 3.2521 50.7125C1.74684 50.1578 1.63534 49.9914 1.63534 48.42V46.5157H1.59818Z" fill="#2A2A2A"/>
<path d="M35.4013 54.0773C36.0703 54.521 36.8508 55.0017 37.7057 55.279C39.8428 55.9815 42.2214 56.1664 44.9904 55.8152C46.1983 55.6673 47.7593 55.3714 49.1159 54.5025C50.0451 53.9109 50.4539 53.1714 50.4167 52.173C50.3796 51.0268 50.3796 49.862 50.3982 48.7343C50.3982 48.2351 50.3982 47.7544 50.3982 47.2552C50.3982 46.7561 50.3982 46.2569 50.3982 45.7392C50.3982 44.5375 50.3982 43.2988 50.3982 42.0601C50.3982 41.3391 50.1566 40.7844 49.6734 40.4517C49.0416 40.008 48.3726 39.5458 47.6478 39.3054C46.124 38.7693 44.47 38.4919 42.6674 38.4919C41.7754 38.4919 40.8463 38.5659 39.8799 38.6953C38.6906 38.8617 37.1667 39.1575 35.8101 40.0449C34.9553 40.5996 34.5651 41.3206 34.5836 42.3005C34.6208 45.6653 34.6022 49.0855 34.5836 52.3949C34.6208 53.1714 34.881 53.7445 35.4013 54.0773ZM36.6278 41.4685C37.4269 41.0618 38.3003 40.6735 39.1923 40.4702C39.9728 40.2853 40.7719 40.2113 41.4223 40.1559C41.6639 40.1374 41.8869 40.1189 42.0728 40.0819H42.0914C44.2842 40.1559 45.9753 40.2668 47.5735 41.0063C47.8894 41.1542 48.1496 41.3946 48.4097 41.6164C48.5212 41.7273 48.6513 41.8198 48.7628 41.9122L48.8557 41.9862L48.7628 42.0601C48.6327 42.1526 48.5212 42.245 48.4097 42.3559C48.1496 42.5778 47.8894 42.7996 47.5735 42.9291C46.1611 43.5207 44.5815 43.8165 42.8904 43.8165C42.4259 43.8165 41.9427 43.798 41.4595 43.7425C40.3817 43.6501 39.3038 43.3913 38.2632 43.1509L37.7242 43.0215C37.334 42.9291 36.9623 42.6887 36.6278 42.4484C36.3491 42.2635 36.2376 42.0786 36.2376 41.8937C36.2376 41.7273 36.3676 41.5979 36.6278 41.4685ZM36.219 44.2047L36.3491 44.2602C40.4932 45.8132 44.5258 45.8132 48.7071 44.2602L48.8371 44.2047V44.3341C48.8371 44.593 48.8371 44.8518 48.8371 45.0921C48.8371 45.7577 48.8557 46.3678 48.8 47.0149C48.7814 47.3477 48.4841 47.7544 48.1867 47.8838C47.3319 48.2351 46.3841 48.6418 45.4178 48.8267C44.4143 49.0116 43.4294 49.104 42.4444 49.104C41.0693 49.104 39.7313 48.9191 38.4118 48.5494L38.2817 48.5124C38.1702 48.4754 38.0402 48.4385 37.9287 48.4015C36.3677 47.8653 36.219 47.6435 36.219 45.9981V44.2047ZM36.219 49.5108L36.3491 49.5662C40.4932 51.1192 44.5444 51.1192 48.7071 49.5662L48.8371 49.5108V49.6402C48.8371 49.899 48.8371 50.1578 48.8371 50.3982C48.8371 51.0638 48.8557 51.6923 48.8 52.3209C48.7814 52.6352 48.4841 53.0605 48.1867 53.1899C47.3505 53.5411 46.3841 53.9479 45.4178 54.1328C44.4329 54.3176 43.4479 54.4101 42.4816 54.4101C41.0878 54.4101 39.6941 54.2252 38.3189 53.8369C38.1888 53.8 38.0773 53.763 37.9472 53.7075C36.3862 53.1529 36.2376 52.9495 36.2376 51.3041V49.5108H36.219Z" fill="#2A2A2A"/>
<path d="M12.0802 17.6745C13.7713 17.6745 15.2765 16.5097 15.611 14.9383C15.7597 14.2172 15.7783 13.4592 15.7969 12.6642C15.7969 12.3499 15.8155 12.0172 15.834 11.7029H13.7155C12.5819 11.7029 11.5599 12.1096 10.8537 12.8306C10.1475 13.5517 9.75726 14.55 9.79443 15.6408C9.81301 16.4543 9.53426 16.9719 8.82809 17.4156L8.698 17.5081V17.3417C8.698 16.8425 8.698 16.3433 8.698 15.8442C8.71659 14.6609 8.71659 13.5517 8.66084 12.4239C8.62367 11.481 8.90242 10.8339 9.59001 10.1499C11.0395 8.70782 11.597 6.91449 11.2625 4.76989C10.928 2.79168 9.59001 1.5345 8.30775 0.295807C8.19625 0.203367 8.08475 0.0924397 7.97325 0C7.75025 0.203367 7.52725 0.406735 7.30424 0.591614C6.78391 1.05381 6.28215 1.49752 5.85473 1.9967C4.66539 3.40178 4.23797 5.04721 4.53531 6.91449C4.75831 8.26411 5.40873 9.42885 6.52374 10.5012C6.56091 10.5381 6.59807 10.5751 6.63524 10.6121C6.83966 10.797 7.08124 11.0188 7.08124 11.2407C7.11841 12.2945 7.11841 13.3853 7.09983 14.4391C7.09983 14.8088 7.09983 15.1786 7.09983 15.5484V15.6963L6.96974 15.6223C6.15207 15.1971 6.0034 14.5685 6.02199 13.7365C6.05915 11.9247 4.81406 10.3902 3.0858 10.0759C2.39821 9.94652 1.69204 9.94652 0.948704 9.92803C0.651369 9.92803 0.33545 9.92803 0.0195312 9.90954V12.2205C0.0195312 12.9601 0.242533 13.6626 0.688536 14.2912C1.45046 15.382 2.45396 15.9181 3.6433 15.9181C3.73622 15.9181 3.84772 15.9181 3.94064 15.9181C4.72114 15.9181 5.26006 16.177 5.72465 16.7501C5.8919 16.9535 6.09632 17.1568 6.28215 17.3417C6.44941 17.5081 6.63524 17.6745 6.78391 17.8594C6.96974 18.0627 7.08124 18.34 7.08124 18.5804C7.09983 19.4863 7.09983 20.4107 7.09983 21.3166C7.09983 21.7233 7.09983 22.1486 7.09983 22.5553C7.09983 22.6847 7.09983 22.8141 7.11841 22.9435V22.999H8.67942C8.67942 22.9066 8.67942 22.8141 8.67942 22.7217C8.698 22.4629 8.698 22.2225 8.66084 22.0007C8.43783 20.5771 8.88384 19.4678 10.0918 18.4879C10.6864 18.0073 11.1696 17.7299 11.9129 17.7299C11.9873 17.6745 12.043 17.693 12.0802 17.6745ZM4.42381 14.2542L4.36806 14.2727C4.16364 14.3282 3.95922 14.3466 3.77339 14.3466C3.29022 14.3466 2.8628 14.1987 2.49113 13.8844C1.87788 13.4038 1.56196 12.5903 1.61771 11.6659V11.5919H1.69204C2.5283 11.4995 3.23447 11.6844 3.71764 12.1466C4.21939 12.6088 4.46098 13.3298 4.42381 14.2172V14.2542ZM7.95466 9.48432L7.89891 9.52129L7.84316 9.48432C6.69099 8.61539 6.04057 7.30274 6.04057 5.86068C6.04057 4.43711 6.69099 3.14295 7.84316 2.27402L7.89891 2.23704L7.95466 2.27402C9.10684 3.14295 9.75726 4.4556 9.75726 5.89766C9.75726 7.32123 9.08825 8.63387 7.95466 9.48432ZM11.4669 16.0845H11.3926V16.0106C11.3183 15.1231 11.5413 14.4206 12.0244 13.9399C12.4519 13.5147 13.0279 13.3113 13.7341 13.3113C13.8456 13.3113 13.9385 13.3113 14.05 13.3298H14.1244V13.4038C14.2916 14.1433 14.1244 14.8273 13.6598 15.345C13.2138 15.8442 12.5448 16.103 11.7829 16.103C11.6714 16.103 11.5784 16.103 11.4669 16.0845Z" fill="#2A2A2A"/>
<path d="M26.185 36.1995C26.2594 36.1995 26.3337 36.1995 26.408 36.1995V34.665C24.8656 34.4616 23.9736 33.5927 23.7506 32.0397H22.2268C22.1524 33.0195 22.5984 34.0918 23.4533 34.9423C24.2524 35.7373 25.2559 36.1995 26.185 36.1995Z" fill="#2A2A2A"/>
</g>
<defs>
<clipPath id="clip0_635_5563">
<rect width="53" height="56" fill="white"/>
</clipPath>
</defs>
</svg>
