<svg width="64" height="64" viewBox="0 0 64 64" fill="none" xmlns="http://www.w3.org/2000/svg">
<g clip-path="url(#clip0_1596_13317)">
<path d="M34.0028 63.9999C32.6687 63.9999 31.3363 63.9999 30.0022 63.9999C29.842 63.9648 29.6833 63.9097 29.5214 63.8963C26.1119 63.6425 22.806 62.9126 19.682 61.523C9.14643 56.8383 2.71488 48.8433 0.489212 37.508C0.262138 36.3489 0.160288 35.1648 0 33.9924C0 32.6579 0 31.3251 0 29.9907C0.0367327 29.7886 0.080144 29.5882 0.111868 29.3844C0.34896 27.8445 0.479194 26.278 0.836503 24.7648C4.88711 7.60572 21.5637 -2.9329 38.8314 0.723047C52.9802 3.71929 63.5559 16.3389 63.9833 30.789C64.2321 39.2283 61.6307 46.7005 56.0724 53.0654C51.1335 58.7189 44.919 62.1995 37.5157 63.5139C36.3537 63.721 35.1749 63.8395 34.0028 63.9999ZM32.0309 4.9886C17.1375 4.96522 5.05241 17.0103 5.00065 31.9331C4.94889 46.8391 17.0423 58.9727 31.9724 58.9995C46.8659 59.0245 58.9493 46.9794 59.0044 32.0533C59.0595 17.1439 46.9677 5.01198 32.0309 4.9886Z" fill="#ED1C24"/>
<path d="M31.9328 28.5344C33.1567 27.3085 34.2436 26.2179 35.3306 25.129C36.6262 23.833 37.9202 22.5353 39.2192 21.2426C40.3696 20.0969 41.9107 20.01 42.9392 21.0288C43.9911 22.0693 43.916 23.6192 42.7439 24.7966C40.5232 27.0246 38.2976 29.2442 36.0752 31.4689C35.9166 31.6292 35.763 31.7946 35.5794 31.9883C35.753 32.1754 35.9016 32.3424 36.0586 32.501C38.3243 34.7708 40.6034 37.0271 42.8574 39.3085C44.27 40.7382 43.7891 42.9728 41.9525 43.544C40.924 43.863 40.0374 43.5708 39.2777 42.8075C37.047 40.5628 34.803 38.3282 32.5673 36.0885C32.4053 35.9265 32.2617 35.7478 32.0597 35.5207C31.8527 35.7127 31.689 35.8564 31.5354 36.01C29.2513 38.2914 26.9772 40.5812 24.6814 42.8509C23.3708 44.147 21.3588 43.8463 20.5858 42.2697C20.0949 41.2693 20.2986 40.1703 21.1668 39.2985C23.4142 37.0405 25.6699 34.7891 27.9256 32.5394C28.0876 32.3791 28.2712 32.2405 28.495 32.0484C28.2863 31.8263 28.1393 31.6626 27.984 31.5056C25.7033 29.2225 23.4142 26.9461 21.1401 24.653C20.0448 23.549 20.0732 21.904 21.1718 20.9386C22.1853 20.0484 23.6479 20.1052 24.6647 21.114C26.9422 23.372 29.2062 25.6434 31.4686 27.9165C31.6273 28.0785 31.7441 28.2822 31.9328 28.5344Z" fill="#ED1C24"/>
</g>
<defs>
<clipPath id="clip0_1596_13317">
<rect width="64" height="64" fill="white"/>
</clipPath>
</defs>
</svg>
