<svg width="29" height="34" viewBox="0 0 29 34" fill="none" xmlns="http://www.w3.org/2000/svg">
<path d="M28.771 7.59536L28.549 5.8979C28.51 5.59761 28.2539 5.37274 27.9509 5.37274C23.3478 5.37032 18.8786 3.82393 15.2584 0.980559L14.8733 0.676505H14.8736C14.6543 0.50334 14.3452 0.50334 14.1259 0.676505L13.7408 0.980283H13.7411C10.121 3.82365 5.65196 5.37033 1.0486 5.37274C0.745628 5.37274 0.48951 5.59761 0.45046 5.8979L0.228544 7.59508C-0.421841 12.7079 0.544981 17.8959 2.99276 22.4317C5.44053 26.9674 9.24697 30.6229 13.8776 32.8856L14.2325 33.0607V33.0604C14.4008 33.1433 14.598 33.1433 14.7663 33.0604L15.1212 32.8853V32.8856C19.752 30.6229 23.5585 26.9675 26.006 22.4324C28.4538 17.8967 29.4203 12.7086 28.7703 7.59577L28.771 7.59536ZM21.7387 18.041C21.7387 18.2009 21.6752 18.3545 21.562 18.4676C21.4489 18.5807 21.2954 18.6442 21.1355 18.6442H16.9127V22.867C16.9127 23.027 16.8491 23.1805 16.736 23.2936C16.6229 23.4067 16.4694 23.4703 16.3094 23.4703H12.6899C12.3568 23.4703 12.0866 23.2002 12.0866 22.867V18.6442H7.86384C7.53071 18.6442 7.26059 18.3741 7.26059 18.041V14.4214C7.26059 14.0883 7.53071 13.8182 7.86384 13.8182H12.0866V9.5954C12.0866 9.26227 12.3568 8.99215 12.6899 8.99215H16.3094C16.4694 8.99215 16.6229 9.05571 16.736 9.16882C16.8491 9.28193 16.9127 9.43544 16.9127 9.5954V13.8182H21.1355C21.2954 13.8182 21.4489 13.8818 21.562 13.9949C21.6752 14.108 21.7387 14.2615 21.7387 14.4214V18.041Z" fill="url(#paint0_linear_635_5663)"/>
<defs>
<linearGradient id="paint0_linear_635_5663" x1="14.4993" y1="0.546631" x2="14.4355" y2="46.1277" gradientUnits="userSpaceOnUse">
<stop stop-color="white"/>
<stop offset="1" stop-color="white" stop-opacity="0.24"/>
</linearGradient>
</defs>
</svg>
