<svg width="53" height="55" viewBox="0 0 53 55" fill="none" xmlns="http://www.w3.org/2000/svg">
<g filter="url(#filter0_b_1343_10525)">
<ellipse rx="26.5" ry="27" transform="matrix(1 0 0 -1 26.5 27.9375)" fill="url(#paint0_linear_1343_10525)"/>
</g>
<g filter="url(#filter1_b_1343_10525)">
<g filter="url(#filter2_b_1343_10525)">
<path d="M46 27.4375C46 38.2073 37.2698 46.9375 26.5 46.9375C15.7301 46.9375 7 38.2073 7 27.4375C7 16.6696 15.7301 7.9375 26.5 7.9375C37.2698 7.9375 46 16.6696 46 27.4375Z" fill="#154D83"/>
<path d="M45 27.4375C45 37.6551 36.7176 45.9375 26.5 45.9375C16.2824 45.9375 8 37.6551 8 27.4375C8 17.2218 16.2825 8.9375 26.5 8.9375C36.7175 8.9375 45 17.2218 45 27.4375Z" stroke="url(#paint1_linear_1343_10525)" stroke-width="2"/>
</g>
</g>
<g clip-path="url(#clip0_1343_10525)">
<g filter="url(#filter3_d_1343_10525)">
<path fill-rule="evenodd" clip-rule="evenodd" d="M30.4608 19.0152C32.3778 19.1083 33.8887 19.9901 34.8982 21.6834C35.7632 23.1338 35.8802 24.6878 35.3863 26.2851C35.1701 26.9848 34.8082 27.6265 34.2954 28.1582C34.2202 28.2355 34.0906 28.2981 33.985 28.2993C33.4131 28.3058 32.8409 28.3059 32.2688 28.3059C31.9137 28.3059 31.5586 28.3059 31.2036 28.3075C31.0574 28.3081 30.9805 28.2765 30.9077 28.1184C30.5003 27.2353 30.0757 26.3601 29.6513 25.4851C29.6167 25.4139 29.5822 25.3428 29.5477 25.2716C29.449 25.0684 29.2895 24.8851 29.0567 24.9811C28.9098 25.042 28.7607 25.2095 28.7027 25.3646C28.4337 26.0857 28.1822 26.8132 27.9306 27.5408C27.8796 27.6883 27.8287 27.8357 27.7775 27.9831C27.6446 28.3664 27.5146 28.7506 27.3796 29.1498C27.3189 29.3293 27.2571 29.5118 27.1936 29.6987C27.0367 29.2689 26.9022 28.8261 26.8006 28.4917C26.741 28.2954 26.6927 28.1364 26.6579 28.0393C26.5707 27.7373 26.4831 27.4346 26.3952 27.1314C26.2015 26.4626 26.007 25.7914 25.8164 25.1193C25.6755 24.6228 25.5377 24.1255 25.3999 23.6282C25.2926 23.2407 25.1852 22.8533 25.0764 22.4663C25.0151 22.2491 24.9055 22.0594 24.6571 22.0471C24.4202 22.0359 24.2923 22.1677 24.2074 22.4031C23.8549 23.3814 23.4956 24.3573 23.1362 25.3333C22.9359 25.8772 22.7356 26.4211 22.5365 26.9655C22.4381 27.2351 22.3475 27.5077 22.2569 27.7806C22.2229 27.8829 22.1889 27.9852 22.1545 28.0874C22.104 28.2372 22.0318 28.3233 21.8488 28.3216C21.3638 28.3162 20.8788 28.316 20.3937 28.3158C19.9228 28.3156 19.452 28.3153 18.9814 28.3104C18.8867 28.3093 18.768 28.2454 18.702 28.1717C17.7458 27.1072 17.2875 25.8495 17.3265 24.4061C17.3862 22.1882 18.4255 20.5774 20.327 19.5755C21.4083 19.0064 22.5796 18.8524 23.8002 19.1382C24.7701 19.3653 25.6168 19.7934 26.3389 20.4843C26.4582 20.5985 26.5219 20.5791 26.6418 20.4691C27.7259 19.4737 29.0068 18.9443 30.4608 19.0152ZM30.3102 28.833C30.4255 29.076 30.6016 29.1885 30.8781 29.1838C31.4501 29.1744 32.0222 29.1762 32.6137 29.1781C32.8318 29.1788 33.0525 29.1795 33.2769 29.1797C33.2519 29.2118 33.231 29.2402 33.2123 29.2656C33.1781 29.3118 33.1512 29.3484 33.1197 29.3805C31.1178 31.4258 29.116 33.471 27.1118 35.5139C26.6518 35.9835 26.3403 35.9905 25.8757 35.5192C24.0961 33.7144 22.3213 31.9051 20.5464 30.0956C20.2927 29.8369 20.039 29.5783 19.7852 29.3196C19.7743 29.3084 19.7698 29.2908 19.7623 29.2607C19.7576 29.2419 19.7517 29.2183 19.7422 29.1885C19.987 29.1885 20.2292 29.1872 20.4695 29.1859C21.0549 29.1828 21.6292 29.1797 22.2029 29.1955C22.5282 29.2043 22.6939 29.0719 22.7983 28.7774C23.2744 27.4331 23.7568 26.091 24.2404 24.749C24.3058 24.5676 24.3774 24.3887 24.4593 24.1837C24.498 24.0869 24.539 23.9844 24.5828 23.873C24.6442 24.0815 24.7029 24.2798 24.7596 24.4713C24.873 24.8543 24.9784 25.2102 25.0813 25.567C25.2769 26.2444 25.4702 26.9225 25.6612 27.6011C25.789 28.0548 25.9159 28.5088 26.0427 28.9629C26.1839 29.4682 26.3251 29.9735 26.4677 30.4784C26.486 30.5434 26.5032 30.6092 26.5204 30.6751C26.5772 30.8918 26.6342 31.1095 26.7309 31.3057C26.7998 31.4463 26.9908 31.6073 27.1267 31.6073C27.2552 31.6079 27.4514 31.4351 27.5024 31.2952C27.8014 30.4767 28.0856 29.6531 28.3698 28.8294C28.4821 28.504 28.5944 28.1786 28.7076 27.8535C28.8091 27.5625 28.9138 27.2728 29.0255 26.9638C29.0779 26.819 29.1318 26.6699 29.1877 26.5144C29.2473 26.635 29.3051 26.7514 29.3615 26.8649C29.4889 27.1215 29.609 27.3632 29.7263 27.6064C29.8678 27.8996 30.0073 28.194 30.1469 28.4886C30.2013 28.6034 30.2557 28.7182 30.3102 28.833Z" fill="url(#paint2_linear_1343_10525)" shape-rendering="crispEdges"/>
</g>
</g>
<defs>
<filter id="filter0_b_1343_10525" x="-8" y="-7.0625" width="69" height="70" filterUnits="userSpaceOnUse" color-interpolation-filters="sRGB">
<feFlood flood-opacity="0" result="BackgroundImageFix"/>
<feGaussianBlur in="BackgroundImage" stdDeviation="4"/>
<feComposite in2="SourceAlpha" operator="in" result="effect1_backgroundBlur_1343_10525"/>
<feBlend mode="normal" in="SourceGraphic" in2="effect1_backgroundBlur_1343_10525" result="shape"/>
</filter>
<filter id="filter1_b_1343_10525" x="-1" y="-0.0625" width="55" height="55" filterUnits="userSpaceOnUse" color-interpolation-filters="sRGB">
<feFlood flood-opacity="0" result="BackgroundImageFix"/>
<feGaussianBlur in="BackgroundImage" stdDeviation="4"/>
<feComposite in2="SourceAlpha" operator="in" result="effect1_backgroundBlur_1343_10525"/>
<feBlend mode="normal" in="SourceGraphic" in2="effect1_backgroundBlur_1343_10525" result="shape"/>
</filter>
<filter id="filter2_b_1343_10525" x="-8" y="-7.0625" width="69" height="69" filterUnits="userSpaceOnUse" color-interpolation-filters="sRGB">
<feFlood flood-opacity="0" result="BackgroundImageFix"/>
<feGaussianBlur in="BackgroundImage" stdDeviation="7.5"/>
<feComposite in2="SourceAlpha" operator="in" result="effect1_backgroundBlur_1343_10525"/>
<feBlend mode="normal" in="SourceGraphic" in2="effect1_backgroundBlur_1343_10525" result="shape"/>
</filter>
<filter id="filter3_d_1343_10525" x="13.3242" y="15.998" width="26.353" height="24.8713" filterUnits="userSpaceOnUse" color-interpolation-filters="sRGB">
<feFlood flood-opacity="0" result="BackgroundImageFix"/>
<feColorMatrix in="SourceAlpha" type="matrix" values="0 0 0 0 0 0 0 0 0 0 0 0 0 0 0 0 0 0 127 0" result="hardAlpha"/>
<feOffset dy="1"/>
<feGaussianBlur stdDeviation="2"/>
<feComposite in2="hardAlpha" operator="out"/>
<feColorMatrix type="matrix" values="0 0 0 0 0.592157 0 0 0 0 0.0784314 0 0 0 0 0.301961 0 0 0 0.1 0"/>
<feBlend mode="normal" in2="BackgroundImageFix" result="effect1_dropShadow_1343_10525"/>
<feBlend mode="normal" in="SourceGraphic" in2="effect1_dropShadow_1343_10525" result="shape"/>
</filter>
<linearGradient id="paint0_linear_1343_10525" x1="37.1777" y1="-2.94322e-07" x2="13.4888" y2="53.677" gradientUnits="userSpaceOnUse">
<stop offset="0.508047" stop-color="white" stop-opacity="0.97"/>
<stop offset="1" stop-color="#FFFDFD" stop-opacity="0"/>
</linearGradient>
<linearGradient id="paint1_linear_1343_10525" x1="28.9643" y1="7.9375" x2="26.5" y2="46.9375" gradientUnits="userSpaceOnUse">
<stop offset="0.390595" stop-color="white"/>
<stop offset="1" stop-color="white" stop-opacity="0"/>
</linearGradient>
<linearGradient id="paint2_linear_1343_10525" x1="26.5008" y1="18.998" x2="26.4738" y2="42.6049" gradientUnits="userSpaceOnUse">
<stop stop-color="white"/>
<stop offset="1" stop-color="white" stop-opacity="0.24"/>
</linearGradient>
<clipPath id="clip0_1343_10525">
<rect width="18.3529" height="16.8696" fill="white" transform="translate(17.3242 18.998)"/>
</clipPath>
</defs>
</svg>
