<svg width="62" height="62" viewBox="0 0 62 62" fill="none" xmlns="http://www.w3.org/2000/svg">
<path d="M54.3657 45.8609C55.012 45.6087 55.7055 45.6875 56.2573 46.0658C56.8563 46.4756 57.1873 47.1376 57.1873 47.91C57.2031 50.5424 57.1873 53.159 57.1873 55.7914V59.338H58.7951C58.8109 58.1873 58.8109 57.0682 58.8109 55.949C58.8109 53.2221 58.8267 50.4163 58.7951 47.642C58.7794 46.5702 58.275 45.5614 57.408 44.8836C56.5252 44.19 55.3903 43.9378 54.3184 44.19C53.9243 44.2846 53.546 44.458 53.1519 44.6314C52.9785 44.7102 52.7893 44.789 52.6159 44.8678L52.5056 44.9151L52.4425 44.8048C51.0396 42.9132 48.8012 42.5191 47.0042 43.8432L46.9096 43.9063L46.8151 43.8432C46.6101 43.6856 46.4052 43.528 46.2003 43.3861C45.7589 43.0393 45.3333 42.7083 44.8604 42.4719C44.3875 42.2197 44.2299 41.9675 44.2299 41.4315C44.2456 29.6567 44.2456 18.7332 44.2299 8.03024C44.2299 4.07379 41.3452 1.18921 37.4044 1.17344C29.7592 1.15768 23.848 1.15768 18.252 1.17344C14.4215 1.17344 11.5053 4.10532 11.4738 7.96719C11.4738 8.99177 11.4738 10.0006 11.4738 11.0252V14.2408C11.4738 17.882 11.4738 21.5232 11.458 25.1644C11.458 25.4481 11.3162 25.7476 11.1743 25.921C11.0167 26.1259 10.8433 26.315 10.6699 26.5042C10.3704 26.8194 10.1024 27.1189 9.929 27.4815C8.9832 29.4518 8.06893 31.4852 7.17042 33.4398C6.69752 34.4801 6.22463 35.5047 5.75173 36.5451C5.02662 38.1213 4.66406 39.7449 4.66406 41.4946C4.67983 45.7663 4.67983 50.0222 4.66406 54.2939V59.3538H6.28768V53.6477C6.28768 49.5809 6.28768 45.4983 6.28768 41.4315C6.28768 39.9971 6.58718 38.6257 7.17042 37.349L10.859 29.3415C10.9063 29.2469 10.9536 29.1366 11.0324 29.0105C11.0797 28.9474 11.127 28.8686 11.1743 28.774L11.4738 28.2539V29.6883C11.4738 34.023 11.4738 38.342 11.4738 42.6768C11.4738 42.7714 11.4738 42.8502 11.4738 42.9447C11.4738 43.2285 11.458 43.528 11.5368 43.7802C11.9467 44.9466 11.7733 45.987 11.0009 46.9327V46.9485L12.3881 47.7524L16.2658 41.0059C16.8964 39.9183 17.5111 38.8307 18.1574 37.743C18.6303 36.9391 19.387 36.5766 20.3328 36.7342C21.1682 36.8603 21.7357 37.3805 21.9879 38.2317C22.1613 38.8149 22.051 39.3981 21.6884 40.0444C21.1052 41.0532 20.5062 42.0778 19.9229 43.0866C19.1347 44.4422 18.3623 45.7978 17.5742 47.1534C17.2747 47.6736 17.2747 48.0834 17.5899 48.572C18.0313 49.2656 18.4569 49.9907 18.8668 50.6843C19.0559 51.0153 19.2451 51.3305 19.45 51.6615C19.9702 52.5443 20.2382 53.5058 20.2382 54.5304C20.2382 55.5707 20.2382 56.6111 20.2382 57.6514V59.3853H21.8776C21.8776 58.9439 21.8776 58.5026 21.8776 58.0612C21.8776 56.9894 21.8618 55.886 21.8933 54.8141C21.9248 53.2221 21.5465 51.8349 20.7111 50.5739C20.6165 50.4321 20.5534 50.2902 20.4746 50.1483C20.4431 50.0853 20.4116 50.0065 20.3643 49.9434L20.2382 49.707H26.6223L26.6065 49.8646C26.2597 51.2044 26.7642 52.3078 27.3474 53.3009C28.1356 54.6249 28.9237 55.9963 29.6804 57.3204C30.0745 57.9982 30.4685 58.676 30.8469 59.3695C30.9257 59.4956 31.0045 59.6217 31.0991 59.7636L31.1306 59.7951C31.572 59.5429 31.9818 59.2907 32.3917 59.0543L32.5178 58.9755L31.2725 56.816C30.3267 55.1609 29.3809 53.5373 28.4508 51.9138C27.8203 50.8104 28.1356 49.5493 29.176 48.9504C30.2163 48.3514 31.4459 48.7297 32.0922 49.8331C32.6123 50.7158 33.2271 51.7719 33.8261 52.8438C34.1571 53.427 34.4566 53.6161 34.898 53.49C35.3394 53.3797 35.5128 53.0644 35.5128 52.4024C35.497 50.4321 35.5128 48.4617 35.5128 46.5071V44.3634V41.4946C35.5128 39.0986 35.5128 36.7027 35.5128 34.3068C35.5128 33.3295 35.9857 32.5571 36.8211 32.2261C37.4832 31.9581 38.1768 32.0212 38.7443 32.4152C39.3433 32.8251 39.7058 33.5501 39.7058 34.3383C39.7058 37.3805 39.7058 40.4385 39.7058 43.4807C39.7058 45.5141 39.7058 47.5475 39.7058 49.5809C39.7058 50.2114 40.0053 50.5897 40.494 50.6054C40.7147 50.6054 40.9038 50.5424 41.0457 50.4005C41.2349 50.2271 41.3294 49.9276 41.3294 49.5651C41.3294 48.9819 41.3294 48.3829 41.3294 47.7997C41.3294 47.2165 41.3294 46.6175 41.3294 46.0342C41.3294 45.3722 41.5659 44.7732 41.9915 44.3634C42.3698 43.9851 42.9058 43.7802 43.4575 43.7959C44.6555 43.8117 45.5225 44.7417 45.5382 46.0342C45.5382 46.6332 45.5382 47.2322 45.5382 47.8312C45.5382 48.4302 45.5382 49.0292 45.5382 49.6282C45.5382 49.9592 45.6328 50.2429 45.8062 50.4163C45.9481 50.5582 46.1215 50.6212 46.3422 50.6212C46.3422 50.6212 46.3422 50.6212 46.3579 50.6212C46.8623 50.6212 47.1618 50.2429 47.1618 49.6124C47.1618 49.1868 47.1618 48.777 47.1618 48.3514C47.1618 47.8943 47.1618 47.4371 47.1618 46.9958C47.1776 45.719 48.0604 44.789 49.2584 44.7732C50.4406 44.7732 51.3391 45.719 51.3549 46.98C51.3549 47.4844 51.3549 48.0046 51.3549 48.509V49.4232C51.3549 50.6054 51.9539 50.6054 52.1588 50.6212C52.3795 50.637 52.5686 50.5582 52.6948 50.4321C52.8839 50.2429 52.9943 49.9119 52.9943 49.4548C52.9943 49.2814 52.9943 49.0922 52.9943 48.9188C52.9943 48.5563 52.9943 48.178 53.01 47.7997C53.0573 46.8539 53.5144 46.1919 54.3657 45.8609ZM41.5028 42.5507L41.3294 42.5664V41.7625C41.3294 40.9744 41.3294 40.1705 41.3294 39.3666C41.3294 37.6327 41.3294 35.8357 41.3137 34.0861C41.2979 32.2418 39.9265 30.7128 38.0664 30.4449C36.3325 30.1927 34.567 31.3276 34.0468 33.03C33.9207 33.424 33.8734 33.8969 33.8576 34.4171C33.8419 37.6485 33.8419 40.8798 33.8576 44.1112V47.8942L33.7315 47.91C33.1325 48.0204 32.6596 47.9258 32.1552 47.6105C30.8784 46.8066 29.5227 46.8066 28.1356 47.642C27.8203 47.8312 27.442 47.9415 27.111 47.9573C25.7238 47.9731 24.3682 47.9731 22.9652 47.9731C22.3662 47.9731 21.7672 47.9731 21.1524 47.9731H19.0559L19.1663 47.7524C19.2136 47.6578 19.2451 47.579 19.2924 47.5002C19.3554 47.3583 19.4185 47.2322 19.4973 47.1061C19.9071 46.4126 20.3012 45.7032 20.7111 45.0097C21.5308 43.591 22.3977 42.1251 23.2017 40.6749C23.8164 39.5873 23.8953 38.342 23.4224 37.2544C22.9652 36.1825 22.0352 35.4101 20.8687 35.1264C19.2609 34.7323 17.6372 35.4417 16.7387 36.9549C16.1082 38.0268 15.4934 39.0986 14.8787 40.1863C14.5476 40.7695 14.2166 41.3369 13.8856 41.9202C13.8068 42.0463 13.7437 42.1724 13.6649 42.2985L13.4915 42.598L13.1447 42.5034V42.3773C13.1447 42.2354 13.1447 42.1093 13.1447 41.9675V32.2576C13.1447 24.1713 13.1447 16.085 13.1447 7.99872C13.1447 5.35057 14.8787 3.28565 17.4638 2.87582C17.7791 2.82853 18.0944 2.82853 18.4096 2.82853C18.4254 2.82853 18.4254 2.82853 18.4412 2.82853C24.7465 2.82853 31.036 2.82853 37.3098 2.82853C40.494 2.82853 42.6378 4.97227 42.6378 8.17211V15.6279C42.6378 24.0137 42.6378 32.6832 42.6536 41.2108C42.6378 41.9517 42.4486 42.4719 41.5028 42.5507Z" fill="#2A2A2A"/>
<path d="M51.0864 24.991V36.0249C50.5032 36.0249 49.9673 36.0249 49.4155 36.0249V24.6127L49.1476 24.8649C48.7377 25.259 48.3752 25.59 48.0284 25.9368L46.9092 24.8018C47.1614 24.5496 47.4136 24.2974 47.6658 24.0295C48.3279 23.3517 49.0215 22.6423 49.715 21.9646C50.0461 21.6335 50.4559 21.6493 50.8027 21.9961C51.4805 22.6423 52.1583 23.3359 52.8046 23.9979C53.0569 24.2502 53.3248 24.5181 53.577 24.7861L52.3475 25.9052L51.0864 24.329V24.991Z" fill="#2A2A2A"/>
<path d="M7.65871 8.39261V19.4265C7.07547 19.4265 6.53952 19.4265 5.98781 19.4265V8.0143L5.71983 8.26651C5.30999 8.66058 4.96319 8.9916 4.60064 9.33838L3.48145 8.20346C3.73366 7.95125 3.98587 7.69905 4.22232 7.43108C4.88438 6.75328 5.57796 6.04396 6.27155 5.36616C6.60257 5.03514 7.01242 5.05091 7.35921 5.39769C8.03703 6.04396 8.71485 6.73752 9.36115 7.39956C9.62912 7.66752 9.88134 7.91973 10.1493 8.1877L8.91978 9.29109L7.65871 7.71481V8.39261Z" fill="#2A2A2A"/>
<path d="M20.8215 29.3571C22.6343 31.1698 25.0303 32.1629 27.5997 32.1629C32.8331 32.1629 37.1207 27.8596 37.1365 22.5791C37.1365 20.0256 36.1434 17.6139 34.3306 15.8011C32.5178 13.9884 30.1376 12.9954 27.6155 12.9954C22.3348 12.9954 18.0314 17.2828 18.0156 22.5318C18.0156 25.1012 19.0087 27.5286 20.8215 29.3571ZM27.5839 14.6032H27.5997C31.9504 14.6032 35.4971 18.1655 35.5129 22.5476C35.5129 24.6598 34.6932 26.6617 33.1799 28.1749C31.6824 29.6881 29.6962 30.5078 27.5997 30.5078C23.2175 30.5078 19.655 26.9612 19.6392 22.5791C19.6392 18.1971 23.2017 14.6189 27.5839 14.6032Z" fill="#2A2A2A"/>
<path d="M28.0091 26.6618C27.9618 26.6303 27.9145 26.5988 27.883 26.5515C26.953 25.4481 26.0229 24.3447 25.0456 23.3044C24.9826 23.2413 24.9668 23.1783 24.9668 23.0837C24.9668 22.863 24.9668 22.6581 24.9668 22.4374C24.9668 22.264 25.0299 22.201 25.2032 22.201C25.5343 22.201 25.8495 22.201 26.1806 22.1852C26.5589 22.1537 26.9057 22.0749 27.2209 21.8384C27.4101 21.6966 27.552 21.5074 27.615 21.2867C27.615 21.271 27.615 21.2552 27.6308 21.2394C27.5993 21.2394 27.5677 21.2394 27.5362 21.2394C26.7638 21.2394 25.9914 21.2394 25.219 21.2394C25.0298 21.2394 24.9668 21.1764 24.9668 20.9872C24.9668 20.8296 24.9668 20.672 24.9668 20.5144C24.9668 20.341 25.0299 20.2779 25.2032 20.2779C25.9441 20.2779 26.7008 20.2779 27.4416 20.2779C27.4732 20.2779 27.5047 20.2779 27.552 20.2779C27.4574 20.0888 27.3155 19.9627 27.1579 19.8681C26.8742 19.7105 26.5589 19.6474 26.2279 19.6316C25.8968 19.6159 25.5658 19.6316 25.2348 19.6159C25.0456 19.6159 24.9826 19.5528 24.9826 19.3637C24.9826 19.143 24.9826 18.9223 24.9826 18.7016C24.9826 18.544 25.0456 18.481 25.2032 18.481C26.7953 18.481 28.3874 18.481 29.9638 18.481C30.1214 18.481 30.1844 18.544 30.1844 18.7016C30.1844 18.875 30.1844 19.0484 30.1844 19.2376C30.1844 19.3952 30.1214 19.4582 29.9638 19.4582C29.5539 19.4582 29.1598 19.4582 28.75 19.4582C28.7185 19.4582 28.6869 19.4582 28.6554 19.4582C28.7185 19.5686 28.7815 19.6632 28.8288 19.7577C28.8919 19.8996 28.9391 20.0572 29.0022 20.2149C29.018 20.2779 29.0337 20.2937 29.0968 20.2937C29.3805 20.2937 29.68 20.2937 29.9638 20.2937C30.1372 20.2937 30.1844 20.3567 30.1844 20.5144C30.1844 20.6877 30.1844 20.8611 30.1844 21.0503C30.1844 21.1922 30.1214 21.2552 29.9795 21.2552C29.6958 21.2552 29.3963 21.2552 29.1125 21.2552C29.0495 21.2552 29.0337 21.271 29.018 21.334C28.9234 21.8384 28.6869 22.2798 28.2929 22.6108C27.9461 22.9103 27.5204 23.0994 27.0791 23.194C26.953 23.2255 26.8269 23.2413 26.685 23.2728C26.7165 23.3044 26.7323 23.3201 26.748 23.3517C27.6466 24.3289 28.482 25.3535 29.3332 26.3781C29.4278 26.5042 29.412 26.5988 29.2702 26.6934C28.8446 26.6618 28.419 26.6618 28.0091 26.6618Z" fill="#2A2A2A"/>
<path d="M30.0905 7.21057H25.3773C24.8098 7.21057 24.3369 6.75345 24.3369 6.17022C24.3369 5.60277 24.794 5.12988 25.3773 5.12988H30.0905C30.658 5.12988 31.1309 5.587 31.1309 6.17022C31.1309 6.75345 30.658 7.21057 30.0905 7.21057Z" fill="#2A2A2A"/>
</svg>
