<svg width="33" height="38" viewBox="0 0 33 38" fill="none" xmlns="http://www.w3.org/2000/svg">
<g filter="url(#filter0_d_635_5680)">
<path fill-rule="evenodd" clip-rule="evenodd" d="M24.2633 0.450401L24.2633 0.450386L24.2633 0.450384L24.2633 0.450383C24.2958 0.438481 24.3283 0.426596 24.3608 0.415039C24.6534 0.415039 24.947 0.415039 25.2386 0.416008C25.2747 0.429295 25.3107 0.443202 25.3468 0.457121L25.3468 0.457122L25.3468 0.457132L25.3468 0.457133C25.4211 0.485829 25.4955 0.514578 25.5713 0.538057C26.8279 0.92842 27.6235 2.17313 27.418 3.42752C27.2037 4.741 26.1008 5.66993 24.7688 5.66024C23.4702 5.65055 22.3555 4.70419 22.1706 3.4527C21.9768 2.14116 22.7499 0.924545 24.0241 0.533213C24.1046 0.508497 24.1841 0.4794 24.2633 0.450407L24.2633 0.450401ZM7.83935 0.453577C7.87694 0.44056 7.91456 0.427536 7.95243 0.415039H8.83124C8.85707 0.423833 8.88272 0.432861 8.90835 0.441879L8.90841 0.441899L8.90897 0.442098L8.90949 0.442282L8.90952 0.442293L8.91005 0.442478L8.91017 0.442521L8.91019 0.442526L8.91019 0.442527C8.97425 0.465079 9.03804 0.487536 9.1033 0.506091C10.399 0.877082 11.2123 2.11694 11.0185 3.42946C10.8316 4.6916 9.73158 5.63893 8.42903 5.65733C7.09907 5.67671 5.9619 4.7255 5.76617 3.43042C5.57045 2.13535 6.3651 0.903235 7.64514 0.517715C7.71064 0.498145 7.77497 0.475871 7.83935 0.453577ZM7.2883 37.5257H15.4765C15.4788 37.4926 15.4813 37.4604 15.4839 37.4288L15.4839 37.4287L15.4839 37.4285L15.4839 37.4283L15.4839 37.4283L15.4839 37.428L15.4839 37.4278C15.4902 37.3498 15.4961 37.2755 15.4961 37.2012L15.4965 36.0075C15.4975 33.0229 15.4986 30.0383 15.4882 27.0537C15.4873 26.8861 15.3992 26.6769 15.2798 26.5587C13.4853 24.7709 11.6855 22.9884 9.8854 21.2058C9.14879 20.4763 8.41215 19.7468 7.67584 19.0169C7.24916 18.5936 6.75397 18.4289 6.17657 18.6314C5.64713 18.8174 5.34278 19.2106 5.27232 19.7598C5.21165 20.2384 5.40933 20.6258 5.74793 20.96C6.58978 21.7901 7.42986 22.6216 8.26995 23.4531L8.27229 23.4554L8.27462 23.4577L8.27476 23.4579C8.96044 24.1366 9.64614 24.8153 10.3328 25.4932C10.4001 25.5598 10.4764 25.6175 10.5395 25.6651L10.5396 25.6652L10.5399 25.6654C10.5647 25.6842 10.5875 25.7014 10.6068 25.717L9.03515 27.2697L9.01537 27.2519L9.01525 27.2518C8.97312 27.214 8.89866 27.1472 8.82768 27.077C8.36326 26.6176 7.89993 26.1573 7.43664 25.697L7.43654 25.6969C6.38376 24.651 5.33116 23.6053 4.26629 22.5708C3.43151 21.7601 3.04691 20.7982 3.05181 19.6494C3.06257 17.0399 3.05963 14.4304 3.05278 11.8218C3.04985 10.8086 2.11623 10.1528 1.19925 10.4996C0.66003 10.703 0.326317 11.1825 0.322403 11.7966C0.317379 12.6206 0.318146 13.4445 0.318913 14.2681V14.2682C0.319191 14.5677 0.319469 14.8672 0.319469 15.1665C0.319469 15.7491 0.319199 16.3317 0.318928 16.9142C0.31794 19.0497 0.316952 21.1851 0.329254 23.3206C0.330235 23.553 0.420265 23.8194 0.554337 24.0102C1.61743 25.5219 2.68452 27.0305 3.75157 28.539L3.75165 28.5391L3.75172 28.5392L3.75249 28.5403L3.75308 28.5411L3.75366 28.5419L3.75425 28.5428L3.75548 28.5445C4.86287 30.1101 5.97022 31.6756 7.073 33.2443C7.20022 33.4255 7.27362 33.6812 7.27753 33.904C7.29305 34.806 7.29128 35.7076 7.28947 36.6252V36.6259V36.6267V36.6274C7.28889 36.925 7.2883 37.2242 7.2883 37.5257ZM22.5203 25.7016C23.1089 26.2843 23.6058 26.776 24.1554 27.321C24.1753 27.2977 24.196 27.2722 24.2176 27.2457L24.2177 27.2456C24.266 27.1862 24.3187 27.1213 24.3775 27.0624C24.7871 26.6565 25.1961 26.25 25.605 25.8435L25.6052 25.8433L25.6053 25.8432L25.6054 25.8432L25.6054 25.8431C26.7121 24.7431 27.8188 23.643 28.937 22.5553C29.7512 21.7639 30.1417 20.8234 30.1358 19.7017C30.1303 18.6785 30.1316 17.6553 30.1328 16.6322C30.1333 16.1937 30.1339 15.7552 30.1339 15.3166C30.1339 14.9834 30.1332 14.6502 30.1325 14.3171C30.1307 13.4661 30.1289 12.6153 30.1388 11.7646C30.1485 10.9142 30.8541 10.3204 31.6948 10.424C32.4023 10.5112 32.8691 11.0866 32.8691 11.8915C32.8721 15.7332 32.873 19.5748 32.8623 23.4164C32.8623 23.6034 32.7781 23.8175 32.6675 23.9734C32.2173 24.6126 31.7688 25.2532 31.3204 25.8938L31.3203 25.8938L31.3203 25.8939C29.8788 27.9529 28.4372 30.012 26.9347 32.0267C26.1704 33.0525 25.7418 34.0657 25.8876 35.3433C25.9435 35.8334 25.9294 36.3312 25.9152 36.8333C25.9087 37.0608 25.9023 37.2891 25.9023 37.5179H17.6935V37.1421L17.6937 35.134V35.1339V35.1339V35.1338V35.1337C17.6942 32.4568 17.6947 29.7803 17.6876 27.1031C17.6876 26.8522 17.764 26.6808 17.9411 26.5054C19.8918 24.5829 21.8384 22.6563 23.785 20.7297L23.7856 20.729L25.454 19.0779L25.4739 19.0582C25.5535 18.9793 25.6337 18.8998 25.7222 18.8318C26.3466 18.3553 27.243 18.4977 27.6892 19.1418C28.0846 19.7133 27.9985 20.402 27.4485 20.9474C25.915 22.4701 24.3785 23.9908 22.8382 25.5068C22.7736 25.5707 22.6877 25.6136 22.6114 25.6517C22.5779 25.6684 22.5463 25.6842 22.5191 25.7005L22.5203 25.7016ZM5.2539 16.6282C7.14266 15.9753 8.59789 16.6301 9.78888 18.0511C11.1355 16.2175 11.525 15.8552 13.1368 14.9398C11.4555 12.987 11.2881 10.9103 12.6494 8.69208C12.165 8.10605 11.5582 7.65176 10.8566 7.32339C10.7685 7.2827 10.6188 7.31661 10.5189 7.36213C9.10188 8.00628 7.68971 7.99466 6.2707 7.3631C6.15718 7.31273 5.98005 7.30305 5.8724 7.35535C5.0934 7.73215 4.44164 8.26685 3.86327 9.0466C3.88908 9.06107 3.91647 9.07427 3.94406 9.08756C4.0033 9.11609 4.06346 9.14507 4.11086 9.18802C4.86245 9.88351 5.25195 10.7408 5.25292 11.7627C5.25439 12.8684 5.25421 13.9741 5.25402 15.0798L5.2539 16.1855V16.6282ZM27.2898 7.34358C28.0854 7.71748 28.7411 8.26282 29.292 8.99706C28.2449 9.85527 27.8887 10.9498 27.9288 12.2372C27.9567 13.1591 27.9501 14.0824 27.9434 15.0058V15.0058V15.0058C27.9405 15.4106 27.9376 15.8155 27.9376 16.2202V16.6358C26.0283 15.9771 24.5927 16.6445 23.386 18.0674C22.563 16.6765 21.4473 15.6526 20.0391 14.9397C21.7537 12.8154 21.8701 11.3218 20.5529 8.7084C20.9081 8.21827 21.783 7.51794 22.3105 7.33293C22.4172 7.29515 22.5718 7.3213 22.6814 7.36974C24.0994 8.00226 25.5096 8.00032 26.9247 7.35714C27.0285 7.30968 27.1909 7.29709 27.2898 7.34358ZM16.593 24.7502C16.6339 24.7118 16.672 24.6768 16.7079 24.6437L16.7079 24.6437C16.7699 24.5867 16.8255 24.5356 16.8788 24.4828C17.2855 24.0805 17.6919 23.6779 18.0983 23.2752C19.227 22.1571 20.3556 21.0391 21.491 19.9273C21.6858 19.7365 21.7357 19.5989 21.5928 19.3481C20.4968 17.4176 18.8458 16.355 16.6038 16.3501C14.3598 16.3453 12.7068 17.4059 11.6069 19.3335C11.4738 19.567 11.4777 19.7132 11.6852 19.9167C12.8423 21.0462 13.9909 22.1843 15.1396 23.3226L15.1396 23.3226L15.14 23.323C15.5348 23.7142 15.9296 24.1055 16.3248 24.4964C16.3759 24.5469 16.4277 24.5953 16.488 24.6516C16.5202 24.6817 16.5548 24.7141 16.593 24.7502ZM16.5999 14.1534C15.134 14.1573 13.9518 12.9891 13.9498 11.5351C13.9488 10.0822 15.1281 8.90623 16.5902 8.90333C18.0503 8.90042 19.2393 10.0764 19.2403 11.5254C19.2422 12.9813 18.0679 14.1495 16.5999 14.1534Z" fill="url(#paint0_linear_635_5680)" shape-rendering="crispEdges"/>
</g>
<defs>
<filter id="filter0_d_635_5680" x="-3.68164" y="-2.58496" width="40.5527" height="45.1106" filterUnits="userSpaceOnUse" color-interpolation-filters="sRGB">
<feFlood flood-opacity="0" result="BackgroundImageFix"/>
<feColorMatrix in="SourceAlpha" type="matrix" values="0 0 0 0 0 0 0 0 0 0 0 0 0 0 0 0 0 0 127 0" result="hardAlpha"/>
<feOffset dy="1"/>
<feGaussianBlur stdDeviation="2"/>
<feComposite in2="hardAlpha" operator="out"/>
<feColorMatrix type="matrix" values="0 0 0 0 0.592157 0 0 0 0 0.0784314 0 0 0 0 0.301961 0 0 0 0.1 0"/>
<feBlend mode="normal" in2="BackgroundImageFix" result="effect1_dropShadow_635_5680"/>
<feBlend mode="normal" in="SourceGraphic" in2="effect1_dropShadow_635_5680" result="shape"/>
</filter>
<linearGradient id="paint0_linear_635_5680" x1="16.5947" y1="0.415039" x2="16.6683" y2="52.3412" gradientUnits="userSpaceOnUse">
<stop stop-color="white"/>
<stop offset="1" stop-color="white" stop-opacity="0.24"/>
</linearGradient>
</defs>
</svg>
