<svg width="132" height="156" viewBox="0 0 132 156" fill="none" xmlns="http://www.w3.org/2000/svg">
<path d="M61.4377 155.789C95.3688 155.789 122.875 128.973 122.875 95.8941C122.875 62.8152 95.3688 35.9995 61.4377 35.9995C27.5066 35.9995 0 62.8152 0 95.8941C0 128.973 27.5066 155.789 61.4377 155.789Z" fill="#F0F0F0"/>
<path d="M58.582 34.3122C62.5351 39.5121 71.7772 39.4971 79.2248 34.2788C86.6723 29.0605 89.5051 20.615 85.5519 15.4151C81.5987 10.2153 72.3566 10.2303 64.9091 15.4485C57.4615 20.6668 54.6288 29.1124 58.582 34.3122Z" fill="#D6D4D4"/>
<path d="M37.0236 65.5901C40.794 66.5899 45.0567 63.2087 46.5446 58.0378C48.0325 52.8669 46.1822 47.8645 42.4118 46.8646C38.6415 45.8647 34.3788 49.2459 32.8909 54.4168C31.4029 59.5877 33.2532 64.5902 37.0236 65.5901Z" fill="#D6D4D4"/>
<path d="M40.7962 107.256C46.2159 106.86 50.1327 100.515 49.5446 93.0818C48.9565 85.649 44.0863 79.9438 38.6667 80.339C33.247 80.7342 29.3302 87.0801 29.9183 94.5129C30.5064 101.946 35.3766 107.651 40.7962 107.256Z" fill="#D6D4D4"/>
<path d="M56.3206 69.8788C58.4527 71.3045 61.901 70.0898 64.0226 67.1658C66.1442 64.2417 66.1357 60.7155 64.0036 59.2898C61.8715 57.864 58.4232 59.0787 56.3016 62.0027C54.18 64.9268 54.1885 68.453 56.3206 69.8788Z" fill="#D6D4D4"/>
<path d="M110.957 89.0357C110.923 91.6261 110.799 94.5283 110.522 97.586L118.294 88.2821L118.349 88.4276C117.713 86.3279 116.771 84.3246 115.553 82.4771L115.614 82.614L110.957 89.0357Z" fill="#57B894"/>
<path d="M110.962 88.5793L115.473 82.3589C114.176 80.483 112.623 79.0305 110.849 78.1445C110.757 78.0984 110.664 78.0554 110.571 78.0128C110.64 78.714 111.016 82.8323 110.962 88.5793Z" fill="#57B894"/>
<path d="M119.268 106.637C119.459 105.552 119.608 104.47 119.713 103.39L107.992 112.228L107.977 112.15C107.8 112.787 107.616 113.414 107.425 114.029L119.241 106.465L119.268 106.637Z" fill="#57B894"/>
<path d="M109.328 106.277L119.818 96.9434L119.859 97.1049C119.724 94.2189 119.233 91.3584 118.398 88.5833L110.477 98.0643C110.204 100.929 109.821 103.667 109.328 106.277Z" fill="#57B894"/>
<path d="M110.28 97.9028L96.2479 84.5161L96.3088 84.3525C95.1707 86.0961 94.219 87.9457 93.4683 89.873L109.436 104.412C109.817 102.139 110.088 99.9443 110.28 97.9028Z" fill="#57B894"/>
<path d="M109.067 106.447C109.174 105.892 109.275 105.34 109.369 104.792L93.3419 90.1999L93.4011 90.0352C93.136 90.7142 92.8872 91.415 92.6548 92.1377L92.7129 91.9725L109.067 106.447Z" fill="#57B894"/>
<path d="M108.073 111.779L119.696 103.015L119.73 103.182C119.913 101.225 119.959 99.2577 119.867 97.2943L109.235 106.754C108.896 108.493 108.509 110.168 108.073 111.779Z" fill="#57B894"/>
<path d="M91.5436 105.852L104.686 120.479C105.578 118.56 106.349 116.592 106.995 114.585L91.1782 100.378C91.1437 102.266 91.241 104.154 91.4695 106.029L91.5436 105.852Z" fill="#57B894"/>
<path d="M110.348 78.0132L110.455 77.9602C107.696 76.7361 104.808 77.0445 102.115 78.5904L110.747 88.5818C110.805 82.3639 110.355 78.0748 110.348 78.0132Z" fill="#57B894"/>
<path d="M107.092 115.076C106.497 116.883 105.8 118.657 105.004 120.392L116.928 113.603L116.951 113.772C117.786 112.219 118.413 110.57 118.817 108.866C118.973 108.195 119.111 107.524 119.232 106.851L107.275 114.506C107.214 114.696 107.154 114.888 107.092 115.076Z" fill="#57B894"/>
<path d="M110.741 89.0465L101.911 78.8257L101.978 78.6694C99.9578 79.8634 98.0515 81.7557 96.397 84.2202L110.315 97.4979C110.586 94.4747 110.707 91.6067 110.741 89.0465Z" fill="#57B894"/>
<path d="M107.106 114.233C107.874 111.795 108.504 109.32 108.994 106.817L92.6004 92.3076C92.29 93.288 92.0119 94.3054 91.7663 95.3595C91.4283 96.8703 91.2346 98.4075 91.1875 99.952L107.095 114.24L107.106 114.233Z" fill="#57B894"/>
<path d="M123.997 129.929C122.249 131.903 120.226 134.063 117.981 136.248L130.148 133.841L130.094 133.987C130.999 131.98 131.605 129.861 131.894 127.692L131.85 127.835L123.997 129.929Z" fill="#57B894"/>
<path d="M131.143 121.477C131.103 121.385 131.06 121.295 131.017 121.206C130.604 121.788 128.158 125.19 124.298 129.583L131.905 127.555C132.153 125.316 131.921 123.246 131.143 121.477Z" fill="#57B894"/>
<path d="M106.339 145.908C105.78 146.291 105.222 146.661 104.665 147.017L118.791 148.427L118.698 148.576C119.566 147.857 120.399 147.115 121.198 146.348L106.299 145.977L106.339 145.908Z" fill="#57B894"/>
<path d="M111.285 142.213L125.565 141.448L125.49 141.597C127.303 139.292 128.826 136.788 130.026 134.139L117.627 136.591C115.513 138.631 113.399 140.504 111.285 142.213Z" fill="#57B894"/>
<path d="M106.661 145.684L121.435 146.051L121.35 146.201C122.792 144.805 124.134 143.318 125.368 141.75L110.894 142.525C109.478 143.657 108.067 144.71 106.661 145.684Z" fill="#57B894"/>
<path d="M89.0747 153.668C89.1729 153.561 89.2723 153.452 89.3748 153.338C92.3464 152.711 95.2285 151.742 97.9587 150.453L97.7456 140.28C97.8489 140.014 97.9484 139.746 98.0441 139.477L98.2709 150.307C100.233 149.375 102.134 148.331 103.966 147.181L101.46 128.346C101.562 128.288 101.666 128.228 101.771 128.166L104.273 146.977L104.287 146.979C106.497 145.572 108.627 144.051 110.667 142.424L108.059 123.898C108.16 123.818 108.261 123.738 108.361 123.657L110.97 142.183C111.421 141.821 111.865 141.458 112.302 141.094L109.94 122.325C110.04 122.236 110.14 122.147 110.24 122.057L112.603 140.841C114.406 139.324 116.073 137.799 117.577 136.344L115.664 117.442L115.819 117.353C115.28 117.521 114.735 117.711 114.185 117.919C115.17 116.704 116.044 115.409 116.797 114.049L104.759 120.902C103.997 122.511 103.126 124.07 102.15 125.569C101.936 125.786 101.724 126.006 101.514 126.233L101.545 126.463C101.451 126.596 101.357 126.728 101.263 126.86L101.222 126.554C101.102 126.686 100.984 126.822 100.865 126.957C102.29 125.014 103.52 122.946 104.541 120.782L91.4945 106.262C91.6584 107.611 91.8775 108.966 92.136 110.307C90.9042 108.617 89.4409 107.093 87.7854 105.777L87.888 105.889L85.5263 113.379C86.3276 115.852 87.1444 118.649 87.8654 121.639L92.2008 110.639C92.2336 110.805 92.2671 110.971 92.3012 111.137L87.9769 122.109C88.6393 124.915 89.1563 127.632 89.5279 130.261L94.9506 120.935C94.9925 121.062 95.0344 121.189 95.0763 121.315L89.5949 130.741C89.8323 132.496 90.0032 134.204 90.1075 135.865L96.8425 126.225C96.8886 126.344 96.9339 126.46 96.9786 126.574L90.1724 136.317L90.1323 136.247C90.1699 136.906 90.1966 137.556 90.2126 138.199L97.9019 128.852C97.953 128.973 98.0005 129.085 98.0443 129.187L90.2219 138.696C90.2253 138.895 90.2297 139.095 90.231 139.293C90.247 141.188 90.1555 143.082 89.957 144.968L90.7039 144.152C90.5717 144.46 90.443 144.763 90.3178 145.062L89.893 145.526C89.8593 145.807 89.8222 146.085 89.7834 146.362C89.6386 146.721 89.4993 147.071 89.3657 147.412C89.4743 146.77 89.5681 146.125 89.6468 145.476L72.5645 135.539C77.485 145.828 86.1596 155.393 86.7146 156C87.0877 155.227 87.4243 154.436 87.7243 153.627C87.8263 153.612 87.9281 153.596 88.0299 153.58C87.9947 153.677 87.9603 153.775 87.9242 153.871C87.871 153.879 87.8176 153.889 87.7645 153.897C87.8085 153.906 87.8548 153.916 87.9031 153.926C87.6896 154.492 87.4615 155.045 87.219 155.586C87.5608 155.255 88.0729 154.743 88.693 154.08C92.6169 154.813 103.144 156.257 111.871 152.773L98.0465 150.68C95.1968 152.03 92.183 153.034 89.0747 153.668ZM97.6675 136.55L97.9757 136.213L97.9857 136.691L97.6775 137.028L97.6675 136.55Z" fill="#57B894"/>
<path d="M130.847 121.069L130.965 121.094C129.653 118.462 127.224 116.93 124.123 116.472L124.133 129.453C128.308 124.699 130.812 121.121 130.847 121.069Z" fill="#57B894"/>
<path d="M103.713 147.617C102.054 148.644 100.338 149.584 98.5732 150.432L112.267 152.505L112.172 152.649C113.848 151.965 115.426 151.079 116.87 150.013C117.435 149.592 117.988 149.16 118.527 148.716L104.233 147.29C104.06 147.399 103.886 147.51 103.713 147.617Z" fill="#57B894"/>
<path d="M117.879 136.054C120.097 133.892 122.095 131.758 123.822 129.806L123.812 116.528L123.967 116.449C121.618 116.131 118.893 116.421 115.981 117.306L117.879 136.054Z" fill="#57B894"/>
<path d="M87.6731 105.691C85.8356 104.292 83.8907 103.371 81.9181 103.055C81.8155 103.039 81.7136 103.025 81.6118 103.012C81.9032 103.659 83.5869 107.464 85.3854 112.946L87.6731 105.691Z" fill="#57B894"/>
<path d="M87.7343 122.017L70.0794 113.45L70.0847 113.276C69.5637 115.272 69.2541 117.314 69.1606 119.369L89.0278 128.458C88.6577 126.184 88.2091 124.016 87.7343 122.017Z" fill="#57B894"/>
<path d="M89.0917 128.836L69.1512 119.715L69.1545 119.54C69.121 120.265 69.1101 121.005 69.1217 121.761L69.1237 121.587L89.337 130.5C89.2604 129.94 89.1787 129.386 89.0917 128.836Z" fill="#57B894"/>
<path d="M89.9848 138.854L70.3682 130.036C70.9432 131.842 71.6436 133.609 72.4647 135.324L72.4783 135.135L89.6866 145.145C89.9169 143.056 90.0165 140.955 89.9848 138.854Z" fill="#57B894"/>
<path d="M85.324 113.452L73.6353 106.352L73.6493 106.183C72.1121 107.918 70.9084 110.284 70.1284 113.118L87.6396 121.616C86.9246 118.66 86.1163 115.897 85.324 113.452Z" fill="#57B894"/>
<path d="M89.9788 138.487C89.924 135.941 89.7265 133.4 89.3871 130.874L69.124 121.94C69.1445 122.964 69.2076 124.014 69.3134 125.09C69.4784 126.627 69.7891 128.146 70.2416 129.629L89.9704 138.497L89.9788 138.487Z" fill="#57B894"/>
<path d="M18.2124 152.953V68.8314" stroke="#3F3D56" stroke-width="3.94161" stroke-miterlimit="10"/>
<path d="M18.2131 72.4077C20.2929 72.4077 21.979 70.7891 21.979 68.7924C21.979 66.7957 20.2929 65.1771 18.2131 65.1771C16.1333 65.1771 14.4473 66.7957 14.4473 68.7924C14.4473 70.7891 16.1333 72.4077 18.2131 72.4077Z" fill="#3F3D56"/>
<path d="M6.64574 134.103C8.72556 134.103 10.4116 132.484 10.4116 130.487C10.4116 128.491 8.72556 126.872 6.64574 126.872C4.56591 126.872 2.87988 128.491 2.87988 130.487C2.87988 132.484 4.56591 134.103 6.64574 134.103Z" fill="#3F3D56"/>
<path d="M18.215 87.258C18.215 87.258 17.677 76.1498 6.64844 77.441L18.215 87.258Z" fill="#3F3D56"/>
<path d="M18.215 118.75C18.215 118.75 17.677 107.642 6.64844 108.933L18.215 118.75Z" fill="#3F3D56"/>
<path d="M18.215 151.96C18.215 151.96 20.6359 131.52 6.64844 130.487" stroke="#3F3D56" stroke-width="3.94161" stroke-miterlimit="10"/>
<path d="M29.782 134.103C31.8618 134.103 33.5478 132.484 33.5478 130.487C33.5478 128.491 31.8618 126.872 29.782 126.872C27.7021 126.872 26.0161 128.491 26.0161 130.487C26.0161 132.484 27.7021 134.103 29.782 134.103Z" fill="#3F3D56"/>
<path d="M18.2118 151.96C18.2118 151.96 15.7909 131.52 29.7784 130.487" stroke="#3F3D56" stroke-width="3.94161" stroke-miterlimit="10"/>
<path d="M30.008 100.188C32.0879 100.188 33.7739 98.5689 33.7739 96.5722C33.7739 94.5755 32.0879 92.9569 30.008 92.9569C27.9282 92.9569 26.2422 94.5755 26.2422 96.5722C26.2422 98.5689 27.9282 100.188 30.008 100.188Z" fill="#3F3D56"/>
<path d="M18.4438 118.045C18.4438 118.045 16.0228 97.6055 30.0103 96.5725" stroke="#3F3D56" stroke-width="3.94161" stroke-miterlimit="10"/>
<path d="M73.6969 103.308L69.6825 124.068L68.3897 131.207L65.0866 149.461H60.6089V103.308H73.6969Z" fill="#C68642"/>
<path d="M69.5659 152.449H60.6089V149.46H64.5803C69.5659 149.46 69.5659 152.449 69.5659 152.449Z" fill="#141B24"/>
<path d="M61.7677 103.308L60.6094 106.551L53.8309 124.094L51.3578 131.025L44.7624 149.471L40.2847 149.461L48.7231 103.308H61.7677Z" fill="#C68642"/>
<path d="M48.7128 152.449H39.7563L40.2831 149.46H44.2545C49.2401 149.46 48.7128 152.449 48.7128 152.449Z" fill="#141B24"/>
<path d="M68.564 71.9345L73.6978 76.4237L75.9331 78.3777L81.8351 75.759L73.5746 65.1143L71.6502 62.636L70.2833 66.7472L68.564 71.9345Z" fill="#FFCB05"/>
<path d="M73.6955 68.8693V103.304H48.7319V68.8693C48.7319 65.8078 50.0534 63.0472 52.1537 61.109C52.2503 61.0196 52.3475 60.9342 52.4441 60.8483C53.6454 59.8217 55.087 59.0554 56.6718 58.6312C57.4082 58.4265 58.1835 58.3111 58.9776 58.2703C59.1367 58.2664 59.2993 58.2664 59.4584 58.2664H62.9731C63.5894 58.2664 64.1862 58.315 64.7671 58.4117C64.8254 58.423 64.8837 58.4338 64.9415 58.4451C65.031 58.4564 65.1123 58.4751 65.2013 58.4898C66.1468 58.6871 67.0305 59.0067 67.8595 59.4309C68.3826 59.6951 68.8787 60.0004 69.3476 60.3426C69.9096 60.7555 70.4364 61.2204 70.9053 61.734C71.1728 62.0202 71.4208 62.3216 71.6494 62.6343C72.3004 63.5161 72.8123 64.5019 73.1611 65.5545C73.5098 66.5963 73.6955 67.7161 73.6955 68.8693Z" fill="#FFCB05"/>
<path d="M73.6958 82.0877H62.3286V99.4249H73.6958V82.0877Z" fill="#C68642"/>
<path d="M63.6064 85.0813H73.6941V82.088H63.6064V85.0813Z" fill="#F7941E"/>
<path d="M63.6064 99.4249H73.6946V96.4316H63.6064V99.4249Z" fill="#F7941E"/>
<path d="M70.906 61.7341C69.4726 65.1938 65.9496 67.6416 61.8345 67.6416C57.3741 67.6416 53.6149 64.7696 52.4448 60.8484C53.6461 59.8218 55.0877 59.0555 56.6725 58.6313C57.4089 58.4266 58.1842 58.3112 58.9784 58.2705C59.1374 58.2665 59.3 58.2665 59.4591 58.2665H62.9738C63.5901 58.2665 64.1869 58.3151 64.7678 58.4118C64.8261 58.4231 64.8844 58.4339 64.9422 58.4452C65.0317 58.4565 65.113 58.4752 65.202 58.4899C66.1475 58.6873 67.0312 59.0069 67.8602 59.431C68.3833 59.6952 68.8794 60.0005 69.3483 60.3427C69.9104 60.7556 70.4371 61.2205 70.906 61.7341Z" fill="#C68642"/>
<path d="M63.652 61.0953L58.1929 58.3544V52.6074H63.652V61.0953Z" fill="#C68642"/>
<path d="M48.7342 102.561L40.5703 147.899H73.6977V102.561H48.7342Z" fill="#FFCB05"/>
<path d="M73.6977 144.116H41.2617L40.5703 147.899H73.6977V144.116Z" fill="#F9D192"/>
<path d="M65.4742 58.5291C65.4742 58.5291 66.1227 61.8012 61.4481 68.1217C56.7729 74.4426 48.7323 76.9881 48.7323 76.9881L48.7329 98.815C48.7329 101.804 48.4598 104.128 47.9213 107.072L41.9053 140.604C41.9053 140.604 54.8087 121.808 64.1947 98.2441C73.5813 74.6807 70.9057 61.733 70.9057 61.733C70.9057 61.733 69.7444 59.0957 65.4742 58.5291Z" fill="#FFF2C1"/>
<path d="M64.1923 98.245C54.8063 121.809 41.9023 140.604 41.9023 140.604L43.3629 132.464C47.901 125.102 55.6322 111.623 61.8282 96.0687C71.2142 72.5048 68.5361 59.5581 68.5361 59.5581C68.5361 59.5581 68.5172 59.5174 68.4819 59.4467C70.3265 60.4212 70.9038 61.7345 70.9038 61.7345C70.9038 61.7345 73.5779 74.6807 64.1923 98.245Z" fill="#F7941E"/>
<path d="M49.5748 64.7565L41.0698 83.4119H48.8609L49.5748 64.7565Z" fill="#FFCB05"/>
<path d="M59.8496 87.1229L60.5129 83.3235L41.0698 83.4119L41.1741 85.3605C41.3209 88.1024 43.907 90.1202 46.733 89.6979L59.8496 87.1229Z" fill="#C68642"/>
<path d="M56.3333 83.3232H52.1562V88.6333L57.6225 87.5606L56.3333 83.3232Z" fill="#F7941E"/>
<path d="M40.8584 119.804H42.9761C48.6786 119.804 53.3016 115.366 53.3016 109.891V83.324H46.9209C43.5729 83.324 40.8584 85.9294 40.8584 89.1441V119.804Z" fill="#FFCB05"/>
<path d="M61.8308 87.725L58.4131 87.7677C56.7951 87.7874 55.4665 86.5443 55.4455 84.9909L55.444 84.903C55.4302 83.8809 56.2827 83.0414 57.3474 83.0281L59.8384 82.9972C60.9036 82.9839 61.7776 83.8023 61.7914 84.8245L61.8308 87.725Z" fill="#C68642"/>
<path d="M65.4556 55.4646C64.4344 55.4646 63.6069 56.2595 63.6069 57.2399V55.4646H65.9496H65.4556Z" fill="#C68642"/>
<path d="M55.7524 47.1131V47.499C55.7524 48.4637 55.9324 49.3881 56.2551 50.2463C57.4242 53.3279 60.5022 55.522 64.1096 55.522H66.0084C67.3677 55.522 68.4728 54.4655 68.4728 53.1556V47.1131C68.4728 46.3516 68.3142 45.6304 68.034 44.9706C67.1559 42.9342 65.0669 41.4972 62.6235 41.4972H61.6022C58.3708 41.4972 55.7524 44.0108 55.7524 47.1131Z" fill="#C68642"/>
<path d="M53.4663 50.2467C53.4663 52.5968 55.451 54.5022 57.8996 54.5022C60.3476 54.5022 62.3323 52.5968 62.3323 50.2467C62.3323 47.896 60.3476 45.9907 57.8996 45.9907C55.451 45.9907 53.4663 47.896 53.4663 50.2467Z" fill="#141B24"/>
<path d="M69.007 52.0865H68.4731V50.3948L69.2643 51.6486C69.3855 51.8406 69.2413 52.0865 69.007 52.0865Z" fill="#C68642"/>
<path d="M55.7524 47.1147V47.5006C55.7524 48.4653 55.9324 49.3898 56.2551 50.2479H60.83C64.2681 50.2479 67.1667 48.0136 68.034 44.9722C67.1559 42.9358 65.0669 41.4988 62.6235 41.4988H61.6022C58.3708 41.4988 55.7524 44.0124 55.7524 47.1147Z" fill="#141B24"/>
<path d="M63.4492 51.4408C63.4492 52.3805 62.656 53.142 61.6772 53.142C60.6984 53.142 59.9053 52.3805 59.9053 51.4408C59.9053 50.5012 60.6984 49.7397 61.6772 49.7397C62.656 49.7397 63.4492 50.5012 63.4492 51.4408Z" fill="#F7941E"/>
<path d="M92.586 69.2552L90.4694 65.9825L75.9336 78.3794L77.3527 79.7756C79.3497 81.7414 82.6793 81.6162 84.5106 79.5071L92.586 69.2552Z" fill="#C68642"/>
<path d="M90.2931 66.1706L86.7573 69.1497L89.8047 72.7886L92.5877 69.2552L90.2931 66.1706Z" fill="#F7941E"/>
<path d="M95.6293 67.0564L93.0928 69.2558C91.8915 70.2971 90.0388 70.2062 88.9541 69.0535L88.8927 68.9882C88.1788 68.2297 88.2412 67.0588 89.0313 66.3739L89.8107 65.6979C91.1919 64.5005 93.3224 64.6046 94.5697 65.9301L95.6293 67.0564Z" fill="#C68642"/>
<path d="M49.1114 76.8587L44.9012 75.0079L41.0698 83.4119H48.8609L49.1114 76.8587Z" fill="#C68642"/>
<path d="M73.6968 76.4237L77.3507 69.9815L80.7074 74.3072L75.9326 78.3792L73.6968 76.4237Z" fill="#C68642"/>
<path d="M107.609 25.9822C115.082 25.9822 121.141 20.1658 121.141 12.9911C121.141 5.8163 115.082 0 107.609 0C100.135 0 94.0767 5.8163 94.0767 12.9911C94.0767 20.1658 100.135 25.9822 107.609 25.9822Z" fill="#FF6584"/>
</svg>
