<svg width="154" height="175" viewBox="0 0 154 175" fill="none" xmlns="http://www.w3.org/2000/svg">
<g clip-path="url(#clip0_1_9506)">
<path d="M44.0733 171.259C47.6768 167.919 47.864 162.646 47.059 158.043C46.9254 157.276 46.8959 156.45 46.4322 155.825C45.9685 155.2 45.0418 154.86 44.3922 155.285C43.8546 155.641 43.695 156.34 43.4493 156.936C43.1212 157.733 42.5737 158.422 41.87 158.924C41.4128 159.258 40.8182 159.494 40.2948 159.295C39.5744 159.024 39.3675 158.115 39.2635 157.346C39.0721 155.908 38.8818 154.478 38.6925 153.056C38.5888 152.281 38.485 151.506 38.1408 150.81C37.7965 150.115 37.1736 149.514 36.4113 149.414C35.649 149.314 34.7982 149.864 34.748 150.639C34.7272 150.961 34.8361 151.276 34.8598 151.597C34.8834 151.919 34.7828 152.294 34.4902 152.425C34.1976 152.556 33.8546 152.385 33.5931 152.195C32.6871 151.533 32.006 150.61 31.3618 149.689C30.7176 148.768 30.0843 147.822 29.2445 147.08C28.4047 146.338 27.306 145.802 26.1867 145.898C25.0674 145.994 23.9877 146.84 23.8603 147.959C23.733 149.079 24.5187 150.09 25.3323 150.868C26.5422 152.021 27.9143 152.994 29.4061 153.755C29.6724 153.891 29.9627 154.041 30.0951 154.311C30.335 154.799 29.9156 155.369 29.4319 155.617C28.8844 155.89 28.2507 155.92 27.659 156.075C27.0673 156.23 26.4514 156.589 26.3017 157.188C26.0946 158.017 26.8703 158.747 27.5942 159.192C29.0456 160.085 30.6415 160.724 32.3123 161.08C32.9097 161.205 33.533 161.301 34.0458 161.632C34.5586 161.963 34.9367 162.614 34.733 163.194C34.5293 163.775 33.846 164.055 33.235 164.03C32.624 164.005 32.0493 163.769 31.4513 163.627C30.3327 163.381 28.9732 163.649 28.4209 164.658C28.0566 165.321 28.1347 166.162 28.4605 166.843C28.7863 167.523 29.3306 168.077 29.8972 168.573C31.8746 170.317 34.2752 171.602 36.8565 172.1C39.4377 172.599 41.7493 172.498 44.0749 171.265" fill="#57B993"/>
<path d="M44.2466 173.668C43.822 171.861 43.3513 170.781 42.3419 168.546C41.223 166.136 39.9683 163.792 38.5842 161.525C38.2189 160.922 37.8594 160.326 37.5057 159.736C37.1494 159.15 36.7979 158.568 36.4133 158.023C35.6815 156.973 34.8936 155.964 34.053 155C33.2555 154.076 32.4665 153.229 31.7184 152.441C30.9702 151.654 30.2624 150.936 29.5901 150.308C28.5313 149.311 27.3961 148.399 26.195 147.582C25.7719 147.292 25.4351 147.079 25.2104 146.937L24.9487 146.777C24.9196 146.758 24.8887 146.741 24.8564 146.728C24.8824 146.751 24.9104 146.772 24.9403 146.79L25.1899 146.963C25.4144 147.112 25.746 147.334 26.1646 147.629C27.35 148.461 28.4721 149.382 29.5216 150.382C30.1889 151.014 30.8922 151.736 31.6325 152.525C32.3727 153.313 33.1573 154.165 33.9492 155.091C34.789 156.05 35.5753 157.056 36.3045 158.103C36.6812 158.648 37.0274 159.226 37.3926 159.8C37.7578 160.375 38.1058 160.987 38.4692 161.59C39.8523 163.851 41.1081 166.188 42.2308 168.59C43.2431 170.815 43.7203 171.882 44.1562 173.68" fill="#254D3D"/>
<path d="M36.5385 158.009C36.5564 157.898 36.5629 157.784 36.558 157.67C36.562 157.452 36.5601 157.136 36.5514 156.745C36.5346 155.964 36.4763 154.885 36.4158 153.695C36.3553 152.505 36.305 151.427 36.3001 150.65C36.2954 150.259 36.2957 149.945 36.298 149.727C36.3066 149.614 36.303 149.5 36.2874 149.387C36.2619 149.496 36.2481 149.608 36.2463 149.721C36.2266 149.93 36.2141 150.254 36.2075 150.644C36.1885 151.423 36.216 152.504 36.2839 153.694L36.457 156.746C36.4769 157.111 36.4936 157.421 36.5057 157.669C36.5051 157.783 36.5161 157.897 36.5385 158.009Z" fill="#254D3D"/>
<path d="M26.2256 157.51C26.3614 157.519 26.4976 157.517 26.6329 157.503C26.8951 157.489 27.2723 157.47 27.7401 157.459C28.6736 157.43 29.9659 157.438 31.3911 157.51C32.8162 157.582 34.1086 157.704 35.0329 157.821C35.499 157.875 35.8822 157.926 36.1332 157.966C36.2668 157.992 36.4025 158.007 36.5385 158.009C36.4097 157.966 36.2774 157.934 36.1431 157.915C35.8865 157.863 35.512 157.793 35.0478 157.724C34.1171 157.577 32.8276 157.444 31.3976 157.369C30.177 157.298 28.954 157.292 27.7336 157.351C27.2653 157.374 26.8868 157.411 26.6271 157.44C26.4913 157.451 26.357 157.475 26.2256 157.51Z" fill="#254D3D"/>
<path d="M42.2295 168.289C42.2295 168.289 42.2506 168.245 42.2793 168.157L42.3964 167.776C42.4996 167.444 42.6254 166.961 42.7852 166.362C43.0945 165.162 43.4715 163.492 43.8606 161.644C44.2497 159.795 44.6117 158.122 44.8884 156.919L45.2285 155.494L45.3161 155.108C45.3289 155.063 45.3363 155.017 45.3382 154.97C45.3382 154.97 45.3166 155.013 45.2879 155.1L45.1723 155.472C45.0691 155.805 44.9415 156.288 44.7841 156.889C44.4743 158.087 44.0978 159.758 43.7087 161.607C43.3195 163.456 42.9588 165.126 42.6803 166.33C42.5386 166.916 42.4244 167.397 42.3384 167.755C42.3036 167.91 42.2728 168.038 42.2508 168.141C42.2369 168.189 42.2297 168.239 42.2295 168.289Z" fill="#254D3D"/>
<path d="M28.6709 165.996C28.7146 166.015 28.7611 166.027 28.8087 166.031L29.2022 166.103L30.6554 166.351C31.8819 166.56 33.5722 166.87 35.4397 167.214C37.3072 167.557 39.0127 167.851 40.2347 168.037C40.8589 168.128 41.3482 168.2 41.6897 168.243L42.0896 168.282C42.1356 168.29 42.1826 168.293 42.2293 168.289C42.1858 168.271 42.1401 168.259 42.0933 168.253L41.6984 168.183L40.2466 167.933C39.0201 167.724 37.3298 167.414 35.4623 167.071C33.5948 166.727 31.8969 166.439 30.6636 166.248C30.0394 166.158 29.5501 166.086 29.2086 166.042L28.8108 165.997C28.7644 165.991 28.7174 165.99 28.6709 165.996Z" fill="#254D3D"/>
<path d="M53.5121 78.1348L22.4181 89.052C21.3481 89.4419 20.1809 88.857 19.7918 87.7848L4.19614 43.1413C3.80705 42.0691 4.39068 40.8994 5.46065 40.5095L36.5546 29.5923C37.6246 29.2024 38.7919 29.7872 39.1809 30.8594L54.7766 75.503C55.1332 76.5752 54.582 77.7449 53.5121 78.1348Z" fill="#EBEBEB"/>
<path d="M36.9364 32.3601L6.85547 42.916L22.3185 87.1665L52.3995 76.6106L36.9364 32.3601Z" fill="#E0E0E0"/>
<path d="M36.41 32.1696L6.3291 42.7256L21.4921 86.1174L51.5731 75.5615L36.41 32.1696Z" fill="#FAFAFA"/>
<path d="M51.5657 75.5679C51.4361 75.2105 45.3405 57.795 36.3592 32.1916L36.424 32.2241C27.3131 35.4407 17.0997 39.0148 6.36758 42.7838L6.4 42.7189C12.0741 59.0297 17.3591 74.0733 21.5417 86.1277L21.5093 86.0952C39.7636 79.6944 51.2739 75.6654 51.5657 75.5679C51.2739 75.6654 39.7961 79.7269 21.5093 86.1602H21.4769V86.1277C17.2618 74.0733 11.9768 59.0297 6.30273 42.7189V42.6864H6.33516C17.0673 38.9173 27.2806 35.3433 36.3916 32.1266H36.424V32.1591C45.3729 57.7625 51.4361 75.2105 51.5657 75.5679Z" fill="#E0E0E0"/>
<path d="M40.8984 79.3045C40.8984 79.3045 47.6101 73.6509 48.7449 67.7374C48.7449 67.7374 46.8968 70.6617 43.006 71.1815C43.0384 71.214 42.9087 77.3874 40.8984 79.3045Z" fill="#E0E0E0"/>
<path d="M17.9098 56.0729L16.321 56.6253C15.7374 56.8202 15.1214 56.5278 14.8944 55.9429L14.3432 54.3509C14.1487 53.766 14.4405 53.1487 15.0241 52.9212L16.6129 52.3689C17.1965 52.1739 17.8125 52.4663 18.0395 53.0512L18.5907 54.6433C18.7852 55.2281 18.4934 55.878 17.9098 56.0729Z" fill="#EBEBEB"/>
<path d="M16.4187 55.1305C16.3863 55.1305 16.3539 55.1305 16.3539 55.1305L15.6406 54.7081C15.6082 54.6757 15.5757 54.6432 15.6082 54.5782C15.6406 54.5457 15.673 54.5132 15.7378 54.5457L16.3863 54.9031L17.1645 53.246C17.1969 53.2135 17.2293 53.181 17.2942 53.2135C17.3266 53.246 17.359 53.2785 17.3266 53.3435L16.516 55.0656C16.4512 55.098 16.4512 55.098 16.4187 55.1305Z" fill="white"/>
<path d="M37.2028 45.6755C37.2028 45.708 33.3119 47.1051 28.4809 48.7947C23.6498 50.4843 19.7266 51.8489 19.7266 51.8164C19.7266 51.7839 23.6174 50.3868 28.4484 48.6972C33.2471 47.0077 37.1703 45.643 37.2028 45.6755Z" fill="#E0E0E0"/>
<path d="M28.0259 51.9139C28.0259 51.9139 27.9287 51.9464 27.7341 52.0439C27.5396 52.1089 27.2802 52.2064 26.9559 52.3363C26.3075 52.5638 25.3672 52.9212 24.3621 53.2786C23.357 53.636 22.4167 53.9609 21.7682 54.1884C21.444 54.2858 21.1846 54.3833 20.9901 54.4483C20.7955 54.5133 20.6982 54.5458 20.6982 54.5458C20.6982 54.5458 20.7955 54.5133 20.9901 54.4158C21.1846 54.3508 21.444 54.2533 21.7682 54.1234C22.4167 53.8959 23.357 53.5385 24.3621 53.1811C25.3672 52.8237 26.3075 52.4988 26.9559 52.2713C27.2802 52.1739 27.5396 52.0764 27.7341 52.0114C27.8962 51.9464 28.0259 51.9139 28.0259 51.9139Z" fill="#E0E0E0"/>
<path d="M37.5924 46.8778C37.5924 46.9103 33.7016 48.3074 28.8705 49.997C24.0394 51.6865 20.1162 53.0512 20.1162 53.0187C20.1162 52.9862 24.007 51.5891 28.8381 49.8995C33.6692 48.1774 37.5924 46.8453 37.5924 46.8778Z" fill="#E0E0E0"/>
<path d="M20.1471 62.5387L18.5584 63.0911C17.9747 63.286 17.3587 62.9936 17.1317 62.4088L16.5805 60.8167C16.386 60.2318 16.6778 59.6145 17.2614 59.387L18.8502 58.8347C19.4338 58.6397 20.0498 58.9322 20.2768 59.517L20.828 61.1091C21.055 61.6939 20.7307 62.3438 20.1471 62.5387Z" fill="#EBEBEB"/>
<path d="M18.6883 61.5966C18.6558 61.5966 18.6234 61.5966 18.6234 61.5966L17.9101 61.1742C17.8777 61.1417 17.8453 61.1092 17.8777 61.0442C17.9101 61.0118 17.9425 60.9793 18.0074 61.0118L18.6558 61.3692L19.434 59.7121C19.4664 59.6796 19.4989 59.6471 19.5637 59.6796C19.5961 59.7121 19.6285 59.7446 19.5961 59.8096L18.7855 61.5316C18.7207 61.5641 18.6883 61.5641 18.6883 61.5966Z" fill="white"/>
<path d="M39.4401 52.1414C39.4401 52.1739 35.5493 53.5711 30.7182 55.2606C25.8871 56.9502 21.9639 58.3148 21.9639 58.2824C21.9639 58.2499 25.8547 56.8527 30.6858 55.1632C35.5168 53.4736 39.4401 52.1089 39.4401 52.1414Z" fill="#E0E0E0"/>
<path d="M30.2632 58.3798C30.2632 58.3798 30.166 58.4123 29.9714 58.5097C29.7769 58.5747 29.5175 58.6722 29.1933 58.8022C28.5448 59.0296 27.6045 59.387 26.5994 59.7444C25.5943 60.1018 24.654 60.4267 24.0055 60.6542C23.6813 60.7517 23.4219 60.8491 23.2274 60.9141C23.0328 60.9791 22.9355 61.0116 22.9355 61.0116C22.9355 61.0116 23.0328 60.9791 23.2274 60.8816C23.4219 60.8166 23.6813 60.7192 24.0055 60.5892C24.654 60.3618 25.5943 60.0043 26.5994 59.6469C27.6045 59.2895 28.5448 58.9646 29.1933 58.7372C29.5175 58.6397 29.7769 58.5422 29.9714 58.4772C30.166 58.4123 30.2632 58.3798 30.2632 58.3798Z" fill="#E0E0E0"/>
<path d="M39.8619 53.3436C39.8619 53.3761 35.9711 54.7732 31.14 56.4628C26.309 58.1524 22.3857 59.517 22.3857 59.4845C22.3857 59.452 26.2765 58.0549 31.1076 56.3653C35.9387 54.6433 39.8619 53.3111 39.8619 53.3436Z" fill="#E0E0E0"/>
<path d="M22.4157 69.0046L20.8269 69.5569C20.2433 69.7519 19.6272 69.4594 19.4003 68.8746L18.8491 67.2825C18.6545 66.6976 18.9464 66.0803 19.53 65.8529L21.1187 65.3005C21.7023 65.1056 22.3184 65.398 22.5453 65.9828L23.0965 67.5749C23.2911 68.1598 22.9993 68.8096 22.4157 69.0046Z" fill="#EBEBEB"/>
<path d="M20.9246 68.0623C20.8922 68.0623 20.8598 68.0623 20.8598 68.0623L20.1464 67.6399C20.114 67.6074 20.0816 67.5749 20.114 67.5099C20.1464 67.4775 20.1789 67.445 20.2437 67.4775L20.8922 67.8349L21.6703 66.1778C21.7028 66.1453 21.7352 66.1128 21.8 66.1453C21.8325 66.1778 21.8649 66.2103 21.8325 66.2753L21.0219 67.9973C20.9894 68.0298 20.957 68.0298 20.9246 68.0623Z" fill="white"/>
<path d="M41.7086 58.6073C41.7086 58.6397 37.8178 60.0369 32.9867 61.7265C28.1556 63.416 24.2324 64.7807 24.2324 64.7482C24.2324 64.7157 28.1232 63.3185 32.9543 61.629C37.7854 59.9394 41.7086 58.5748 41.7086 58.6073Z" fill="#E0E0E0"/>
<path d="M32.5318 64.8456C32.5318 64.8456 32.4345 64.8781 32.24 64.9756C32.0454 65.0405 31.786 65.138 31.4618 65.268C30.8133 65.4954 29.8731 65.8528 28.8679 66.2102C27.8628 66.5676 26.9225 66.8926 26.2741 67.12C25.9498 67.2175 25.6904 67.3149 25.4959 67.3799C25.3014 67.4449 25.2041 67.4774 25.2041 67.4774C25.2041 67.4774 25.3014 67.4449 25.4959 67.3474C25.6904 67.2825 25.9498 67.185 26.2741 67.055C26.9225 66.8276 27.8628 66.4702 28.8679 66.1128C29.8731 65.7554 30.8133 65.4304 31.4618 65.203C31.786 65.1055 32.0454 65.008 32.24 64.9431C32.4345 64.8781 32.5318 64.8456 32.5318 64.8456Z" fill="#E0E0E0"/>
<path d="M42.1305 59.8094C42.1305 59.8419 38.2397 61.2391 33.4086 62.9286C28.5775 64.6182 24.6543 65.9828 24.6543 65.9503C24.6543 65.9179 28.5451 64.5207 33.3762 62.8311C38.2073 61.1091 42.1305 59.7769 42.1305 59.8094Z" fill="#E0E0E0"/>
<path d="M24.6862 75.4704L23.0974 76.0227C22.5138 76.2177 21.8978 75.9253 21.6708 75.3404L21.1196 73.7483C20.9251 73.1635 21.2169 72.5461 21.8005 72.3187L23.3892 71.7663C23.9728 71.5714 24.5889 71.8638 24.8159 72.4486L25.3671 74.0407C25.5616 74.6256 25.2698 75.2754 24.6862 75.4704Z" fill="#EBEBEB"/>
<path d="M23.1961 74.5283C23.1637 74.5283 23.1312 74.5283 23.1312 74.5283L22.4179 74.1059C22.3855 74.0734 22.3531 74.0409 22.3855 73.9759C22.4179 73.9434 22.4503 73.9109 22.5152 73.9434L23.1637 74.3008L23.9418 72.6437C23.9742 72.6112 24.0067 72.5787 24.0715 72.6112C24.1039 72.6437 24.1364 72.6762 24.1039 72.7412L23.2934 74.4633C23.2285 74.4958 23.2285 74.4958 23.1961 74.5283Z" fill="white"/>
<path d="M43.9791 65.0731C43.9791 65.1056 40.0883 66.5027 35.2572 68.1923C30.4262 69.8818 26.5029 71.2465 26.5029 71.214C26.5029 71.1815 30.3937 69.7844 35.2248 68.0948C40.0235 66.4052 43.9467 65.0406 43.9791 65.0731Z" fill="#E0E0E0"/>
<path d="M34.8023 71.3114C34.8023 71.3114 34.705 71.3439 34.5105 71.4414C34.3159 71.5064 34.0566 71.6038 33.7323 71.7338C33.0838 71.9612 32.1436 72.3186 31.1384 72.6761C30.1333 73.0335 29.193 73.3584 28.5446 73.5858C28.2203 73.6833 27.961 73.7808 27.7664 73.8458C27.5719 73.9107 27.4746 73.9432 27.4746 73.9432C27.4746 73.9432 27.5719 73.9107 27.7664 73.8133C27.961 73.7483 28.2203 73.6508 28.5446 73.5208C29.193 73.2934 30.1333 72.936 31.1384 72.5786C32.1436 72.2212 33.0838 71.8963 33.7323 71.6688C34.0566 71.5713 34.3159 71.4739 34.5105 71.4089C34.6726 71.3439 34.8023 71.3114 34.8023 71.3114Z" fill="#E0E0E0"/>
<path d="M44.3688 66.2752C44.3688 66.3077 40.478 67.7049 35.6469 69.3944C30.8158 71.084 26.8926 72.4487 26.8926 72.4162C26.8926 72.3837 30.7834 70.9865 35.6145 69.297C40.4455 67.5749 44.3688 66.2427 44.3688 66.2752Z" fill="#E0E0E0"/>
<path d="M9.74023 38.495L10.5184 40.7694C10.9723 42.1015 12.4314 42.7839 13.7283 42.329L30.3615 36.4805C31.6908 36.0256 32.3717 34.5635 31.9178 33.2638L31.1397 30.9894L9.74023 38.495Z" fill="#E0E0E0"/>
<path d="M20.6664 35.4083C19.4343 35.8307 18.0725 35.1809 17.651 33.9462C17.2295 32.7115 17.878 31.3468 19.11 30.9245C20.3421 30.5021 21.7039 31.1519 22.1254 32.3866C22.5469 33.6213 21.8984 34.9859 20.6664 35.4083ZM19.4018 31.8017C18.6561 32.0617 18.2346 32.9064 18.494 33.6537C18.7534 34.4011 19.5964 34.8234 20.3421 34.5635C21.0879 34.3036 21.5094 33.4588 21.25 32.7115C20.9906 31.9317 20.1476 31.5418 19.4018 31.8017Z" fill="#E0E0E0"/>
<path d="M33.9611 41.2892C33.9611 41.3217 29.5839 42.9138 24.1692 44.7983C18.7545 46.7153 14.3449 48.2099 14.3125 48.1774C14.3125 48.1449 18.6897 46.5529 24.1044 44.6683C29.5191 42.7838 33.9286 41.2567 33.9611 41.2892Z" fill="#E0E0E0"/>
<path d="M28.3496 42.1015C28.3496 42.134 26.4366 42.8488 24.0373 43.6936C21.638 44.5384 19.6926 45.1882 19.6602 45.1232C19.6602 45.0907 21.5731 44.3759 23.9725 43.5311C26.3718 42.7189 28.3172 42.069 28.3496 42.1015Z" fill="#E0E0E0"/>
<path d="M113.869 117.774H43.6045V173.923H113.869V117.774Z" fill="#CCEFFC"/>
<g opacity="0.3">
<path d="M48.7461 117.917C57.0293 120.875 66.1694 121.495 75.0238 121.686C76.8804 121.734 78.737 121.734 80.4983 122.163C82.2597 122.64 84.0211 123.642 84.9256 125.216C85.9253 126.933 85.8301 129.128 85.2588 131.084C84.6875 132.992 83.7354 134.805 83.0214 136.665C81.7837 139.957 81.4028 143.582 81.9265 147.065C82.1645 148.544 82.5453 150.023 83.4022 151.263C84.2591 152.503 85.6396 153.41 87.1154 153.457C89.7812 153.505 91.6378 150.881 92.9231 148.544C98.35 139.003 104.253 128.174 107.728 117.774L48.7461 117.917Z" fill="#073E50"/>
</g>
<path d="M67.55 173.637C67.5024 173.637 67.4072 161.186 67.4072 145.825C67.4072 130.464 67.4548 118.013 67.55 118.013C67.5976 118.013 67.6928 130.464 67.6928 145.825C67.6928 161.186 67.6452 173.637 67.55 173.637Z" fill="#346A9C"/>
<path d="M96.3498 76.2709C96.1594 74.8875 91.9702 70.2601 91.9702 70.2601C91.9702 70.2601 89.8756 61.8641 89.2567 59.3834C89.1139 58.7633 88.7807 58.0477 88.3523 57.3321C86.8765 54.8515 84.7343 52.8479 82.2589 51.4167L76.4987 48.1728L75.1182 45.072L61.2177 37.9163L57.4569 44.5949C57.4569 44.5949 48.3168 47.5049 47.0791 49.6039C45.889 51.703 47.698 79.5626 47.698 79.5626C47.698 79.5626 43.8896 95.6391 43.0803 98.9784C42.271 102.318 43.3183 106.277 43.3183 106.277L50.1258 97.6904C52.2204 95.0189 56.8856 93.8263 60.218 93.874L88.7331 94.0171L87.5906 86.0027L110.631 90.487C110.631 90.487 114.582 82.7111 114.916 82.568C115.249 82.4249 96.3498 76.2709 96.3498 76.2709Z" fill="#278FB7"/>
<path d="M60.5987 47.2187C60.4083 47.0279 62.2173 53.1341 64.5023 59.3834C65.74 62.7705 66.3589 66.3006 66.3589 69.9262V83.6652V92.5383L80.0214 91.5842L77.9744 76.7003C77.9744 76.7003 76.3082 67.1116 75.8322 63.4384C75.4038 60.099 73.928 51.0351 73.928 51.0351C73.928 51.0351 66.3589 53.0864 60.5987 47.2187Z" fill="white"/>
<path d="M90.9707 81.9001C90.9707 81.9001 90.9707 81.757 90.9707 81.5662C90.9707 81.3277 91.0659 81.0414 91.1611 80.6598C91.3515 79.8965 91.8752 78.847 92.7321 77.9883C93.589 77.1297 94.6362 76.6526 95.3979 76.4141C95.7788 76.3187 96.112 76.271 96.3024 76.2233C96.5404 76.2233 96.6356 76.2233 96.6356 76.2233C96.6356 76.271 96.1596 76.3187 95.4455 76.5572C94.7315 76.7957 93.7318 77.3205 92.9225 78.1315C92.1132 78.9424 91.5896 79.9442 91.3515 80.6598C91.0659 81.4231 91.0183 81.9001 90.9707 81.9001Z" fill="#263238"/>
<path d="M91.6844 76.4618C91.6368 76.4141 92.5413 75.937 93.779 75.8416C95.0167 75.7462 95.9688 76.0324 95.9212 76.0801C95.9212 76.1755 94.9691 75.9847 93.779 76.0801C92.5889 76.2232 91.6844 76.5572 91.6844 76.4618Z" fill="#263238"/>
<g opacity="0.3">
<path d="M46.318 88.8173L45.1279 90.153C46.4133 91.6318 48.0318 92.8722 49.936 93.3492C51.8402 93.8263 53.792 93.874 55.7437 93.874C56.553 93.874 57.3147 93.874 58.0764 93.6355C58.838 93.3969 59.5521 92.9676 60.3614 92.9199C60.885 92.8722 61.4087 93.0153 61.9799 93.1584C62.5036 93.2538 63.0749 93.3492 63.5985 93.2061C64.1222 93.063 64.5506 92.5859 64.5506 92.0135C58.6 90.2961 52.459 89.1989 46.318 88.8173Z" fill="black"/>
</g>
<path d="M85.3535 90.5346L82.0212 86.9567L75.1186 85.1917C75.1186 85.1917 68.7871 87.0998 68.6443 87.0998C68.5015 87.0998 63.1222 85.621 63.1222 85.621L61.2656 92.4905L70.9294 93.1584L81.926 92.729C81.926 92.729 82.4973 92.2043 82.164 91.8226C81.8308 91.441 84.0206 92.4428 84.2586 92.4428C84.4967 92.4428 85.0203 92.6336 85.3535 92.252C85.544 92.0134 85.8772 91.1071 85.3535 90.5346Z" fill="#E99460"/>
<path d="M82.1165 91.8226C82.1165 91.8703 81.688 91.7272 81.0216 91.4887C80.3551 91.2979 79.4506 91.0116 78.4033 90.7254C77.356 90.4392 76.4039 90.2484 75.7375 90.1053C75.071 89.9621 74.6426 89.8667 74.6426 89.8667C74.6426 89.819 75.071 89.8667 75.7851 89.9621C76.4992 90.0575 77.4512 90.2484 78.4985 90.4869C79.5458 90.7731 80.4503 91.0593 81.1168 91.3456C81.7357 91.6318 82.1165 91.8226 82.1165 91.8226Z" fill="#E99460"/>
<path d="M85.3524 90.5346C85.3524 90.5823 84.7811 90.3438 83.829 90.0576C82.877 89.7237 81.5916 89.342 80.1159 88.9604C78.6401 88.531 77.3548 88.1017 76.3551 88.054C75.3554 87.9586 74.7842 88.1494 74.7842 88.1017C74.7842 88.1017 74.927 88.0063 75.2126 87.9586C75.4982 87.9109 75.8791 87.8632 76.4027 87.8632C77.4024 87.8632 78.7354 88.2925 80.2111 88.7218C81.6868 89.1512 82.9722 89.5328 83.9243 89.9145C84.4003 90.1053 84.7811 90.2484 85.0192 90.3915C85.2096 90.4392 85.3524 90.5346 85.3524 90.5346Z" fill="#E99460"/>
<path d="M47.0796 49.6039C47.0796 49.6039 42.0811 53.0863 40.891 58.0476C39.7009 63.0566 34.4168 83.4266 35.5117 86.4797C36.6066 89.5328 57.505 92.5382 57.505 92.5382L59.9804 82.0432L49.3646 79.1332C49.3646 79.1332 49.5074 69.4014 49.6502 65.3942C49.793 61.387 47.0796 49.6039 47.0796 49.6039Z" fill="#278FB7"/>
<path d="M59.8849 83.6174L63.2648 84.4761L61.2178 92.3951L57.8379 91.8227L59.8849 83.6174Z" fill="white"/>
<path d="M35.4645 85.4303C35.4645 85.4303 35.4645 85.6211 35.5121 85.9073C35.5597 86.2413 35.7977 86.6706 36.2262 87.0999C37.1307 87.9586 38.892 88.6742 41.0819 89.0558C42.0816 89.3898 43.2241 89.6283 44.4618 89.9145C45.6995 90.2007 46.9848 90.487 48.413 90.7732C51.174 91.3457 54.2683 91.9658 57.553 92.5383L57.4102 92.6337C57.6482 91.6796 57.8863 90.6301 58.1719 89.5806C58.7431 87.1954 59.3144 84.8578 59.8857 82.6157L59.9809 82.7588C56.4581 81.757 53.2686 80.8506 50.5552 80.0396C49.127 79.4672 47.6989 79.2286 46.4136 79.3241C45.1758 79.3718 44.1285 79.7057 43.3193 80.0396C42.51 80.3736 41.9387 80.7552 41.5103 81.0414C41.3199 81.1845 41.1771 81.28 41.0819 81.3754C40.9866 81.4231 40.939 81.4708 40.939 81.4708C40.939 81.4708 40.9866 81.4231 41.0819 81.3277C41.1771 81.2323 41.3199 81.1368 41.5103 80.9937C41.8911 80.7075 42.4624 80.3259 43.2717 79.9442C44.0809 79.5626 45.1282 79.2286 46.4136 79.1809C47.6989 79.0855 49.127 79.2764 50.6028 79.8965C53.3162 80.6598 56.5533 81.5662 60.0761 82.568L60.1713 82.6157L60.1237 82.7111C59.6 84.9055 59.0288 87.2431 58.4575 89.676C58.2195 90.7255 57.9339 91.7273 57.6958 92.7291L57.6482 92.8245H57.553C54.2683 92.2044 51.2216 91.5842 48.413 91.0117C47.0324 90.7255 45.6995 90.4393 44.4618 90.153C43.2241 89.8668 42.0816 89.5806 41.0819 89.2467C38.8444 88.8173 37.1307 88.1017 36.1786 87.1954C35.7025 86.766 35.5121 86.289 35.4645 85.955C35.4169 85.5734 35.4645 85.4303 35.4645 85.4303Z" fill="#263238"/>
<path d="M49.9365 79.8487C49.8889 79.8964 49.5557 79.5625 48.9368 79.1331C48.318 78.7038 47.3659 78.179 46.2234 77.8928C45.0809 77.5589 44.0336 77.4635 43.2719 77.5112C42.5102 77.5112 42.0342 77.6066 42.0342 77.5589C42.0342 77.5112 42.5102 77.3681 43.2719 77.3204C44.0336 77.2726 45.1285 77.3204 46.3186 77.6543C47.4611 77.9882 48.4132 78.5607 49.032 78.99C49.6509 79.4671 49.9841 79.8487 49.9365 79.8487Z" fill="#263238"/>
<path d="M51.3648 62.7705C51.3648 62.7705 51.3648 63.009 51.3648 63.3907C51.3648 63.82 51.3172 64.3925 51.2696 65.108C51.1744 66.5869 50.9364 68.5905 50.5555 70.7849C50.1747 72.9793 49.6986 74.9829 49.2226 76.3664C49.1274 76.7003 48.9846 77.0342 48.8894 77.3205C48.7942 77.559 48.6514 77.7975 48.6037 77.9883C48.4133 78.37 48.2705 78.5608 48.2705 78.5608C48.2705 78.5608 48.3181 78.3223 48.5085 77.9883C48.6037 77.7975 48.6513 77.559 48.7942 77.2728C48.8894 76.9865 48.9846 76.7003 49.0798 76.3187C49.5082 74.9352 49.9367 72.9316 50.3175 70.7372C50.6983 68.5428 50.9364 66.5392 51.1268 65.0603C51.222 64.3925 51.2696 63.7723 51.3172 63.343C51.3172 63.009 51.3172 62.7705 51.3648 62.7705Z" fill="#263238"/>
<path d="M63.4552 57.3798C63.4552 57.3798 63.4076 57.2367 63.3124 57.0458C63.2172 56.8073 62.9792 56.5211 62.5983 56.2826C62.2175 56.044 61.6462 55.8532 61.0274 56.044C60.4561 56.2349 59.8849 56.8073 59.7421 57.5229L59.6945 57.8568L59.5517 57.5229C59.028 56.4257 58.552 55.1853 58.0759 53.8496C57.2666 51.4167 56.9334 49.0314 56.981 47.3618C56.981 46.9324 57.0286 46.5508 57.0762 46.2168C57.1238 45.8829 57.1714 45.5967 57.219 45.3582C57.3618 44.8811 57.4094 44.6426 57.4094 44.6426C57.4571 44.6426 57.1238 45.6444 57.1238 47.3618C57.0762 49.0314 57.457 51.369 58.2663 53.8019C58.6948 55.1376 59.2184 56.378 59.6945 57.4752L59.504 57.5229C59.6945 56.6642 60.3133 56.0917 60.9798 55.9009C61.6463 55.7101 62.2651 55.9009 62.6459 56.1872C63.0268 56.4734 63.2648 56.8073 63.36 57.0458C63.4076 57.1889 63.4552 57.2844 63.4552 57.3321C63.4552 57.3321 63.5028 57.3798 63.4552 57.3798Z" fill="#263238"/>
<path d="M75.0711 58.4293C75.0711 58.4293 75.0235 58.2385 74.9759 57.8568C74.9283 57.4752 74.7855 56.9504 74.8807 56.2349C74.9759 55.567 75.3091 54.756 76.0232 54.1358C76.404 53.8496 76.8801 53.6588 77.4037 53.6588C77.9274 53.6588 78.4986 53.8496 78.8794 54.3267L78.689 54.4698C78.5462 54.0881 78.4034 53.7065 78.2606 53.3249C77.3561 51.0827 76.5944 49.0314 76.0232 47.5526C75.7375 46.837 75.5471 46.2645 75.3567 45.7875C75.2139 45.3582 75.1187 45.1196 75.1663 45.1196C75.1663 45.1196 75.3091 45.3582 75.4519 45.7398C75.6423 46.1691 75.8804 46.7893 76.166 47.4572C76.7848 48.936 77.5941 50.9396 78.451 53.1817C78.5938 53.5634 78.7366 53.945 78.8794 54.3267L79.1651 55.0422L78.6414 54.4221C78.3082 54.0404 77.8321 53.8496 77.3561 53.8496C76.88 53.8496 76.4516 53.9927 76.1184 54.279C75.4519 54.8037 75.1187 55.6147 74.9759 56.2349C74.8807 56.9027 74.9759 57.4275 75.0235 57.8091C75.1187 58.2385 75.1187 58.4293 75.0711 58.4293Z" fill="#263238"/>
<path d="M83.9252 59.6219C83.9728 59.6219 85.0677 66.8731 86.3055 75.8416C87.5432 84.8101 88.5429 92.0612 88.4477 92.0612C88.4001 92.0612 87.3052 84.8101 86.0674 75.8416C84.8297 66.8731 83.83 59.6219 83.9252 59.6219Z" fill="#263238"/>
<g opacity="0.3">
<path d="M58.2178 53.8973C58.2654 55.7578 58.6938 57.5706 59.4079 59.288C59.9315 58.6678 60.5028 57.9522 61.3121 57.7614C62.3118 57.5229 63.3115 58.1431 63.9779 58.8586C63.8351 58.1431 63.5971 57.3798 63.121 56.8073C62.645 56.2349 61.9785 55.8055 61.2169 55.8055C60.5028 55.8055 59.7411 56.378 59.6459 57.0936L58.2654 53.8973" fill="black"/>
</g>
<path d="M50.1731 59.1449C50.1254 59.1449 50.1255 58.6678 49.9826 57.8569C49.8398 57.0936 49.5066 56.0441 48.8401 55.0423C48.5069 54.5652 48.1261 54.0882 47.7452 53.7542C47.3644 53.4203 46.9836 53.0864 46.6503 52.8956C45.9839 52.4662 45.5078 52.3231 45.5078 52.2754C45.5078 52.2754 45.6506 52.2754 45.841 52.3708C45.9363 52.4185 46.0791 52.4662 46.2219 52.5139C46.3647 52.5616 46.5551 52.657 46.6979 52.7524C47.0788 52.9433 47.4596 53.2295 47.8404 53.5634C48.2213 53.9451 48.6497 54.3744 48.9829 54.8992C49.697 55.9487 50.0302 57.0459 50.1255 57.8569C50.1731 58.2385 50.1731 58.5724 50.1731 58.811C50.2207 59.0018 50.2207 59.1449 50.1731 59.1449Z" fill="#263238"/>
<path d="M77.8331 25.0836C77.2618 19.7884 72.7394 15.8289 67.4077 15.972H66.884C61.2191 16.4491 58.4104 21.5535 59.0769 27.2304L60.6478 47.2187L61.3143 48.0297C64.361 51.7983 69.5499 53.0387 73.9771 51.0351L73.5487 44.5949C73.5487 44.5949 79.0232 43.5931 78.928 38.1071C78.8328 35.4833 78.3567 30.0449 77.8331 25.0836Z" fill="#E99460"/>
<path d="M73.5484 44.595C73.5484 44.595 70.0733 44.8812 66.3125 42.6868C66.3125 42.6868 68.1215 46.5986 73.5484 45.9784V44.595Z" fill="#E99460"/>
<path d="M76.0708 29.6157C76.1185 30.045 75.7852 30.3789 75.3568 30.4266C74.9283 30.4744 74.5475 30.1404 74.5475 29.7588C74.4999 29.3294 74.8331 28.9955 75.2616 28.9478C75.69 28.9001 76.0708 29.234 76.0708 29.6157Z" fill="#263238"/>
<path d="M76.4523 26.6579C76.4047 26.7533 75.7859 26.801 75.0242 27.2304C74.2625 27.612 73.8341 28.1368 73.7388 28.1368C73.6912 28.1368 73.7389 27.9937 73.9293 27.7551C74.1197 27.5166 74.4529 27.2304 74.929 26.9918C75.405 26.7533 75.8335 26.6102 76.0715 26.6102C76.3571 26.5625 76.4523 26.6102 76.4523 26.6579Z" fill="#263238"/>
<path d="M68.1685 30.0449C68.2161 30.4742 67.8829 30.8082 67.4544 30.8559C67.026 30.9036 66.6452 30.5696 66.6452 30.188C66.5976 29.7587 66.9308 29.4247 67.3592 29.377C67.7877 29.3293 68.1685 29.6155 68.1685 30.0449Z" fill="#263238"/>
<path d="M68.0735 27.8028C67.9783 27.8506 67.4547 27.4689 66.6454 27.2781C65.8361 27.0873 65.1697 27.135 65.0745 27.0396C65.0268 26.9919 65.1697 26.9442 65.4553 26.9442C65.7409 26.8965 66.217 26.9442 66.693 27.0873C67.2167 27.2304 67.5975 27.4212 67.8355 27.5643C68.0735 27.7074 68.1211 27.8028 68.0735 27.8028Z" fill="#263238"/>
<path d="M71.3589 34.3383C71.3589 34.2906 71.8825 34.1952 72.7394 34.0521C72.9298 34.0044 73.1678 33.9567 73.1678 33.8136C73.2154 33.6705 73.1202 33.4319 73.025 33.1934C72.787 32.6687 72.5966 32.1439 72.3586 31.5715C71.4065 29.2816 70.74 27.3734 70.8352 27.3257C70.9304 27.278 71.7873 29.1385 72.6918 31.4283C72.9298 32.0008 73.1202 32.5256 73.3583 33.0503C73.4535 33.2888 73.5963 33.5751 73.5011 33.909C73.4535 34.0521 73.3107 34.1952 73.1678 34.2429C73.025 34.2906 72.9298 34.2906 72.787 34.2906C71.8825 34.386 71.3589 34.386 71.3589 34.3383Z" fill="#263238"/>
<path d="M68.0741 24.5589C67.9789 24.7974 67.1696 24.6543 66.1699 24.702C65.1702 24.7497 64.361 24.9883 64.2658 24.7974C64.2182 24.702 64.361 24.5112 64.6942 24.2727C65.0274 24.0819 65.5511 23.891 66.1223 23.8433C66.7412 23.7956 67.2648 23.9388 67.5981 24.0819C67.9313 24.2727 68.1217 24.4635 68.0741 24.5589Z" fill="#263238"/>
<path d="M76.4042 24.7497C76.2138 24.9405 75.4997 24.7497 74.6429 24.7497C73.786 24.702 73.0243 24.8928 72.8815 24.702C72.7863 24.6066 72.9291 24.4158 73.2623 24.2249C73.5956 24.0341 74.1192 23.891 74.6905 23.891C75.3093 23.891 75.7854 24.0818 76.1186 24.2726C76.4042 24.4635 76.4994 24.6543 76.4042 24.7497Z" fill="#263238"/>
<path d="M79.4032 20.2655C79.308 19.7884 78.832 19.3591 78.3083 19.4068C78.5939 19.3114 78.832 19.216 79.07 19.0251C79.2604 18.8343 79.4032 18.5481 79.308 18.2619C79.1652 17.8325 78.6415 17.7371 78.2131 17.6417C77.6418 17.4986 77.1658 17.1647 76.785 16.6876C76.2613 16.0197 76.0709 15.1611 75.5949 14.4455C75.0236 13.5391 74.0239 12.9189 72.929 12.7758C71.8341 12.6804 70.7392 13.062 69.9775 13.8253C69.1206 12.9666 67.8829 12.5373 66.6928 12.7281C65.5027 12.9189 64.4078 13.6822 63.8841 14.7794C62.4084 14.1593 60.647 14.4455 59.4093 15.3996C58.1716 16.4014 57.5527 18.071 57.8383 19.5976L61.2659 21.6966C61.3135 20.6471 62.5036 19.7884 63.5033 20.0746C64.5506 20.3609 65.1694 21.5535 66.2644 21.6489C67.0736 21.6966 67.7877 21.0765 68.597 20.8379C69.5967 20.5517 70.5964 20.981 71.5009 21.4581C72.4053 21.9351 73.2146 22.5553 74.2143 22.8415C75.3568 23.1278 76.5945 22.8892 77.6894 22.4122C78.1655 22.2214 78.6415 21.9828 78.9748 21.6012C79.308 21.2673 79.4984 20.7425 79.4032 20.2655Z" fill="#263238"/>
<path d="M61.8368 20.0746L77.4511 19.9792C76.9274 18.9297 76.023 18.071 75.0709 17.4032C73.0239 15.9243 70.5008 15.0179 67.9302 15.0656C65.4071 15.1133 60.3134 18.3573 58.5045 20.1701C57.0763 21.6012 57.1239 22.8415 57.1239 22.8415C56.9335 24.8928 58.1236 27.135 58.6473 29.1386C58.8853 30.1404 59.4566 33.2412 59.4566 33.2412C60.3134 33.1935 60.5991 32.5256 60.4563 31.6669L60.2182 28.3276C60.2182 28.3276 63.0745 26.1809 61.5988 22.4122C61.3607 22.0305 60.8371 20.6471 61.8368 20.0746Z" fill="#263238"/>
<path d="M59.9336 28.0414C59.1243 25.2745 58.4103 22.3168 59.2671 19.5499C59.1243 19.5499 58.9815 19.5499 58.7911 19.5499L58.6007 19.693C57.7438 19.4068 56.6965 19.7407 56.1252 20.4563C55.6016 21.2196 55.6016 22.3168 56.1252 23.0324C55.2207 22.9847 54.3163 23.748 54.221 24.702C54.1734 25.3222 54.4591 25.9424 54.7447 26.5148C55.0303 27.0873 55.316 27.6597 55.316 28.3276C55.316 28.9478 54.8875 29.6633 54.2687 29.7588C54.5543 30.4266 55.3636 30.8083 56.03 30.6174C55.792 31.1422 55.4112 31.6192 54.9351 31.9532C55.9348 32.6688 57.363 32.4302 58.4579 31.8578C59.1243 31.5238 59.7432 31.0945 60.0288 30.3789C60.4096 29.6633 60.1716 28.8524 59.9336 28.0414Z" fill="#263238"/>
<path d="M59.6965 31.2852C59.6013 31.2375 55.8882 30.2834 56.1262 34.0044C56.3642 37.7731 60.0298 36.7713 60.0298 36.6759C60.0298 36.5805 59.6965 31.2852 59.6965 31.2852Z" fill="#E99460"/>
<path d="M59.172 35.2924C59.172 35.2924 59.1244 35.3401 58.9816 35.3878C58.8864 35.4355 58.696 35.4832 58.5056 35.4355C58.1247 35.2924 57.7439 34.72 57.6963 34.0521C57.6487 33.7182 57.6963 33.3842 57.8391 33.098C57.9343 32.8118 58.1247 32.6209 58.3152 32.5732C58.5056 32.5255 58.6484 32.6209 58.696 32.7163C58.7436 32.8118 58.7436 32.9072 58.7436 32.9072C58.7436 32.9072 58.8388 32.8595 58.7912 32.6686C58.7912 32.5732 58.7436 32.5255 58.6484 32.4301C58.5532 32.3824 58.4104 32.3347 58.2676 32.3347C57.9819 32.3824 57.7439 32.6686 57.6011 32.9549C57.4583 33.2411 57.4107 33.6227 57.4583 34.0044C57.5059 34.7677 57.9343 35.4355 58.5056 35.5786C58.7912 35.6263 58.9816 35.5309 59.0768 35.4355C59.172 35.3878 59.172 35.2924 59.172 35.2924Z" fill="#E99460"/>
<path d="M55.7924 28.1845C55.7924 28.1845 55.6972 28.0414 55.7448 27.7552C55.7924 27.4689 55.9828 27.0396 56.4588 26.8011C56.9349 26.5148 57.5537 26.4671 58.1726 26.3717C58.7915 26.324 59.5055 26.1332 59.8864 25.513C60.2672 24.8929 60.2672 24.1773 60.172 23.5571C60.0768 22.937 59.934 22.3645 59.8388 21.8875C59.6483 20.8857 59.8388 20.2655 59.8864 20.2655C59.934 20.2655 59.8388 20.8857 60.0768 21.8398C60.172 22.3168 60.3624 22.8893 60.4576 23.5571C60.5528 24.225 60.5528 24.9883 60.1244 25.7039C59.934 26.0378 59.6007 26.324 59.2199 26.4671C58.8867 26.6102 58.5058 26.6579 58.1726 26.7057C57.5061 26.7534 56.9349 26.8011 56.5064 27.0396C56.078 27.2781 55.8876 27.612 55.84 27.8506C55.7924 28.0414 55.84 28.1845 55.7924 28.1845Z" fill="#455A64"/>
<path d="M54.9346 26.5626C54.9346 26.5626 54.8394 26.4672 54.8394 26.2286C54.7918 25.9901 54.8394 25.6562 55.0299 25.2745C55.1251 25.0837 55.2679 24.8929 55.4583 24.7498C55.6487 24.6067 55.9343 24.4635 56.1724 24.4158C56.4104 24.3204 56.696 24.2727 56.8864 24.1296C57.0769 23.9865 57.1721 23.748 57.1721 23.4617C57.1721 23.1755 57.1245 22.8893 57.1245 22.5554C57.1245 22.2691 57.1721 21.9829 57.2197 21.6967C57.3149 21.1719 57.5529 20.6949 57.7433 20.3609C57.9813 19.9793 58.3146 19.8362 58.5526 19.8362C58.7906 19.8362 58.8858 19.9316 58.8858 19.9793C58.8858 19.9793 58.743 19.9316 58.5526 19.9793C58.3622 20.027 58.0765 20.1701 57.8861 20.504C57.6957 20.838 57.5529 21.2673 57.4577 21.7921C57.4101 22.0306 57.3625 22.3168 57.3625 22.6031C57.3625 22.8893 57.4101 23.1755 57.4101 23.5095C57.4101 23.8434 57.3149 24.1773 57.0292 24.4158C56.7436 24.6067 56.458 24.6544 56.22 24.7498C55.6963 24.8452 55.3631 25.1314 55.1727 25.4653C54.7442 26.0378 54.9822 26.5626 54.9346 26.5626Z" fill="#455A64"/>
<path d="M76.7859 16.6877C76.7859 16.6877 76.5002 16.8785 76.0242 16.64C75.7862 16.5446 75.5481 16.306 75.3101 16.0198C75.0721 15.7336 74.8341 15.4474 74.4532 15.2565C73.7392 14.8272 72.5491 14.7318 71.6446 15.4474C71.1685 15.7813 70.7877 16.2583 70.2164 16.64C69.9308 16.8308 69.6452 17.0216 69.2643 17.0693C68.9311 17.117 68.5503 17.0693 68.217 16.9739C67.5506 16.7354 67.0269 16.306 66.4081 16.1152C65.8368 15.8767 65.218 15.7813 64.6467 15.7813C63.5042 15.7813 62.5045 16.2106 61.838 16.7354C61.124 17.2601 60.7431 17.8803 60.5051 18.3096C60.2671 18.739 60.1719 19.0252 60.1719 18.9775C60.1719 18.9775 60.1719 18.9298 60.2195 18.7867C60.2671 18.6436 60.3147 18.4528 60.4099 18.2619C60.6003 17.7849 61.0288 17.1647 61.7428 16.5923C62.4569 16.0198 63.5042 15.5428 64.6943 15.4951C65.3132 15.4951 65.932 15.5905 66.5509 15.829C67.1697 16.0675 67.741 16.4492 68.3123 16.6877C68.5979 16.7831 68.9311 16.8308 69.2167 16.7831C69.5024 16.7354 69.788 16.5923 70.026 16.4015C70.5497 16.0198 70.9305 15.5905 71.4542 15.2088C71.9302 14.8272 72.5491 14.6841 73.0727 14.6841C73.5964 14.6841 74.12 14.8272 74.5008 15.0657C74.8817 15.3042 75.1673 15.6382 75.4053 15.9244C75.6434 16.2106 75.8338 16.4015 76.0242 16.5446C76.5002 16.7831 76.7859 16.64 76.7859 16.6877Z" fill="#455A64"/>
<path d="M69.2636 35.3403C69.3588 35.2926 69.5016 36.1036 70.3109 36.5806C71.0726 37.0576 71.9295 36.8191 71.9295 36.9145C71.9295 36.9622 71.7867 37.1054 71.4058 37.1531C71.0726 37.2485 70.5013 37.2008 70.0253 36.9145C69.5492 36.6283 69.3112 36.199 69.216 35.865C69.1684 35.5788 69.216 35.3403 69.2636 35.3403Z" fill="#263238"/>
<path d="M118.534 109.855C117.106 108.615 115.154 107.995 113.298 108.138L110.061 118.394C112.441 118.49 114.773 119.73 117.058 119.11C118.867 118.585 120.296 116.868 120.534 115.007C120.772 113.099 119.962 111.143 118.534 109.855Z" fill="#278FB7"/>
<path d="M113.346 107.899C113.346 107.804 113.679 107.756 114.298 107.756C114.917 107.756 115.821 107.851 116.916 108.233C118.011 108.615 119.201 109.473 120.106 110.714C120.582 111.334 120.963 112.097 121.153 112.956C121.391 113.814 121.439 114.721 121.248 115.627C121.058 116.534 120.677 117.392 120.058 118.06C119.487 118.728 118.725 119.205 117.963 119.491C116.44 120.064 115.012 119.968 113.917 119.73C112.822 119.491 111.965 119.205 111.394 118.967C110.823 118.728 110.537 118.537 110.537 118.442C110.585 118.346 110.918 118.394 111.489 118.49C112.108 118.585 112.965 118.776 114.012 118.871C115.06 118.967 116.297 118.919 117.487 118.442C118.059 118.203 118.63 117.822 119.058 117.297C119.487 116.772 119.82 116.104 119.963 115.389C120.248 113.91 119.82 112.479 119.106 111.382C118.344 110.284 117.392 109.473 116.488 109.044C115.583 108.567 114.726 108.376 114.155 108.233C113.679 108.09 113.346 107.994 113.346 107.899Z" fill="#F5F5F5"/>
<path d="M83.5447 146.302L76.5469 165.956L100.873 174.829C101.587 172.444 90.6854 163.189 90.6854 163.189L95.6839 150.786L83.5447 146.302Z" fill="#278FB7"/>
<g opacity="0.6">
<path d="M83.5442 159.373C83.0206 159.325 82.4969 159.754 82.4493 160.279C82.4017 160.804 82.7826 161.329 83.3062 161.376C83.8299 161.424 84.4487 160.947 84.4487 160.422C84.4487 159.897 83.9251 159.325 83.4014 159.373" fill="white"/>
</g>
<path d="M76.5469 165.956L77.2609 163.952L100.397 173.207C100.397 173.207 101.301 174.066 100.92 174.781L76.5469 165.956Z" fill="white"/>
<path d="M91.1135 163.189C91.0659 163.284 90.447 163.141 89.7329 163.332C89.0189 163.475 88.4952 163.905 88.4476 163.809C88.3524 163.761 88.7809 163.094 89.6377 162.903C90.5422 162.712 91.2087 163.094 91.1135 163.189Z" fill="#263238"/>
<path d="M93.3038 165.193C93.3038 165.336 92.6849 165.336 92.1137 165.67C91.4948 166.004 91.2092 166.528 91.114 166.481C91.0188 166.481 91.1616 165.717 91.9232 165.288C92.6373 164.859 93.3514 165.097 93.3038 165.193Z" fill="#263238"/>
<path d="M93.6361 168.77C93.5409 168.77 93.5885 168.103 94.1122 167.578C94.6358 167.053 95.3023 166.958 95.3023 167.101C95.3499 167.244 94.8262 167.435 94.3978 167.912C93.9694 168.341 93.7789 168.818 93.6361 168.77Z" fill="#263238"/>
<path d="M91.9712 160.231C91.876 160.327 91.4 159.945 90.6859 159.754C90.0195 159.563 89.4006 159.563 89.353 159.468C89.3054 159.373 89.9718 159.086 90.7811 159.325C91.638 159.611 92.0188 160.184 91.9712 160.231Z" fill="#263238"/>
<path d="M92.3993 157.13C92.3993 157.178 91.8756 157.083 91.1616 156.701C90.8283 156.51 90.3999 156.224 90.0191 155.842C89.8287 155.652 89.6382 155.461 89.4478 155.222C89.3526 155.127 89.2574 154.984 89.1622 154.793C89.067 154.602 89.1146 154.268 89.3526 154.125C89.543 153.982 89.781 153.982 89.9715 154.03C90.1619 154.077 90.3047 154.173 90.3999 154.268C90.6379 154.411 90.8759 154.602 91.0664 154.793C91.4472 155.175 91.7328 155.556 91.9233 155.938C92.3041 156.653 92.3517 157.178 92.3041 157.178C92.2565 157.178 92.1137 156.749 91.6852 156.081C91.4948 155.747 91.2092 155.413 90.8283 155.079C90.6379 154.936 90.4475 154.745 90.2095 154.602C89.9715 154.459 89.781 154.364 89.6382 154.459C89.5906 154.507 89.5906 154.507 89.6382 154.602C89.6858 154.697 89.7334 154.793 89.8286 154.888C89.9715 155.127 90.1619 155.318 90.3523 155.508C90.6855 155.89 91.0664 156.176 91.352 156.367C91.9709 156.892 92.4469 157.083 92.3993 157.13Z" fill="#263238"/>
<path d="M92.2099 157.274C92.1623 157.274 92.0671 156.749 92.3051 155.986C92.4003 155.604 92.6383 155.127 92.9716 154.698C93.1144 154.459 93.3048 154.268 93.5428 154.077C93.7808 153.887 94.0665 153.648 94.5425 153.744C94.7805 153.839 94.9234 154.077 94.9234 154.268C94.9234 154.459 94.9234 154.602 94.8758 154.745C94.8282 155.032 94.7329 155.318 94.5901 155.556C94.3045 156.033 93.9713 156.415 93.5904 156.606C92.8764 157.083 92.3527 157.035 92.3527 156.987C92.3527 156.892 92.8288 156.844 93.4 156.367C93.6856 156.129 93.9713 155.795 94.2093 155.365C94.3045 155.127 94.3997 154.888 94.4473 154.65C94.4949 154.364 94.4949 154.125 94.3521 154.125C94.2093 154.077 93.9713 154.221 93.7808 154.364C93.5904 154.554 93.4 154.745 93.2572 154.936C92.924 155.318 92.7335 155.699 92.5907 156.081C92.3051 156.749 92.2575 157.274 92.2099 157.274Z" fill="#263238"/>
<path d="M59.9333 93.8262C56.2202 93.9216 52.745 94.4463 50.1744 97.1178C46.7945 100.696 42.6053 105.752 42.3672 109.283C42.034 114.53 45.1759 116.104 47.5085 117.392C48.5082 117.965 49.6983 118.203 50.8408 118.156L93.5421 117.822L94.8751 110.571L67.2644 103.749L68.4069 93.3491L59.9333 93.8262Z" fill="#263238"/>
<path d="M68.4548 93.3492L81.8792 92.729C81.8792 92.729 105.063 94.017 110.014 98.549C114.964 103.081 114.346 108.281 112.679 113.242C111.013 118.203 96.4938 149.927 96.4938 149.927C96.4938 149.927 97.684 151.931 97.0175 153.934C95.9702 157.035 93.2091 157.56 93.2091 157.56L80.3083 152.789C80.3083 152.789 78.5469 152.169 79.7846 150.5C81.0224 148.83 81.8316 148.544 81.8316 148.544V145.252C81.8316 145.252 86.3541 136.999 86.7825 135.854C87.211 134.709 91.543 117.917 91.543 117.917L94.4468 112.956C94.4468 112.956 87.449 109.664 81.4032 107.279L67.2646 103.797L68.4548 93.3492Z" fill="#263238"/>
<path d="M90.2575 152.217C90.2099 152.265 89.8291 151.931 89.115 151.454C88.401 150.977 87.4013 150.452 86.2112 149.975C85.021 149.545 83.8785 149.259 83.0693 149.164C82.26 149.021 81.7363 149.021 81.7363 148.973C81.7363 148.925 82.26 148.925 83.1169 148.973C83.9737 149.068 85.1163 149.259 86.3064 149.736C87.4965 150.213 88.5438 150.786 89.2102 151.311C89.8767 151.835 90.2575 152.217 90.2575 152.217Z" fill="#455A64"/>
<path d="M96.6837 149.975C96.6361 149.975 96.3505 149.689 95.922 149.164C95.4936 148.639 94.9223 147.924 94.3035 147.113C93.6846 146.302 93.1609 145.491 92.8277 144.966C92.4469 144.393 92.2565 144.012 92.3041 144.012C92.3517 144.012 92.5897 144.346 92.9705 144.87C93.399 145.491 93.9226 146.206 94.4939 146.969C95.0651 147.733 95.5888 148.448 96.0648 149.068C96.4933 149.593 96.7313 149.927 96.6837 149.975Z" fill="#455A64"/>
<path d="M101.445 108.424C101.445 108.472 100.969 108.567 100.207 108.805C99.4452 109.044 98.4455 109.473 97.4458 110.093C96.4461 110.714 95.5893 111.477 95.0656 112.002C94.4944 112.574 94.2087 112.956 94.1611 112.908C94.1611 112.908 94.3992 112.479 94.9228 111.859C95.4465 111.238 96.2557 110.475 97.303 109.855C98.3503 109.187 99.3976 108.805 100.159 108.615C100.921 108.424 101.445 108.376 101.445 108.424Z" fill="#455A64"/>
<path d="M88.21 130.845C88.21 130.845 88.21 130.75 88.2576 130.559C88.3052 130.368 88.3528 130.082 88.448 129.748C88.6384 129.032 88.924 128.078 89.2097 126.838C89.8761 124.357 90.8282 121.018 91.8755 117.345C92.3992 115.484 92.8752 113.719 93.3989 112.145C94.0177 110.571 94.9698 109.33 95.8267 108.424C96.7312 107.518 97.5405 106.897 98.1117 106.516C98.3973 106.325 98.6354 106.182 98.8258 106.086C98.9686 105.991 99.0638 105.943 99.0638 105.943C99.0638 105.943 98.7306 106.182 98.1593 106.563C97.5881 106.993 96.7788 107.613 95.9219 108.519C95.065 109.426 94.1605 110.666 93.5893 112.193C93.1132 113.767 92.6372 115.58 92.1135 117.392C91.0662 121.066 90.1141 124.405 89.4001 126.886C89.0668 128.078 88.7812 129.032 88.5432 129.748C88.448 130.082 88.3528 130.32 88.3052 130.511C88.2576 130.797 88.21 130.845 88.21 130.845Z" fill="#455A64"/>
<path d="M76.3564 106.659C76.3088 106.659 76.0231 104.131 75.7375 101.03C75.4519 97.9289 75.3091 95.4005 75.3567 95.4005C75.4043 95.4005 75.6899 97.9289 75.9755 101.03C76.2612 104.083 76.404 106.611 76.3564 106.659Z" fill="#455A64"/>
<path d="M53.9829 113.337C53.9353 113.337 53.7449 112.956 53.3164 112.336C52.888 111.715 52.2215 110.952 51.3646 110.284C50.5078 109.616 49.6033 109.139 48.8892 108.901C48.2227 108.615 47.7467 108.519 47.7943 108.472C47.7943 108.424 48.2703 108.472 48.9844 108.71C49.6985 108.949 50.6506 109.378 51.5551 110.094C52.4595 110.809 53.126 111.62 53.5068 112.24C53.8401 112.908 54.0305 113.337 53.9829 113.337Z" fill="#455A64"/>
<path d="M62.2176 104.226C62.17 104.274 61.6463 103.892 60.6466 103.463C59.6469 103.033 58.2188 102.508 56.6002 102.27C54.9817 102.031 53.4583 102.127 52.411 102.27C51.3161 102.413 50.6973 102.604 50.6973 102.556C50.6973 102.556 50.8401 102.461 51.1257 102.365C51.4113 102.27 51.8398 102.174 52.3634 102.079C53.4583 101.888 54.9817 101.793 56.6478 102.031C58.314 102.27 59.7421 102.795 60.7418 103.319C61.2179 103.558 61.5987 103.796 61.8843 103.987C62.0748 104.083 62.2176 104.226 62.2176 104.226Z" fill="#455A64"/>
<path d="M94.3511 110.571C94.3511 110.571 94.2559 110.571 94.0178 110.523C93.7798 110.475 93.4466 110.38 93.0657 110.332C92.2089 110.141 91.0187 109.855 89.5906 109.569C86.6391 108.901 82.5927 108.042 78.0703 107.136C73.5479 106.229 69.4539 105.514 66.5024 104.989C65.0267 104.751 63.8365 104.512 62.9797 104.369C62.5988 104.321 62.2656 104.226 62.0276 104.178C61.7895 104.13 61.6943 104.13 61.6943 104.083C61.6943 104.035 61.7895 104.083 62.0276 104.13C62.2656 104.178 62.5988 104.226 62.9797 104.274C63.8365 104.369 65.0267 104.56 66.5024 104.798C69.5015 105.275 73.5955 105.991 78.0703 106.85C82.5927 107.756 86.6391 108.662 89.5906 109.378C91.0663 109.712 92.2565 110.046 93.0657 110.237C93.4466 110.332 93.7798 110.427 94.0178 110.475C94.2559 110.571 94.3987 110.571 94.3511 110.571Z" fill="#455A64"/>
<path d="M67.3124 104.989C67.2648 104.989 67.1696 104.417 66.7411 103.606C66.5031 103.224 66.1699 102.747 65.7414 102.318C65.313 101.888 64.7893 101.459 64.2657 101.03C63.1708 100.171 62.0283 99.5508 61.219 99.1215C60.4097 98.6922 59.8861 98.4059 59.9337 98.3582C59.9337 98.3105 60.4573 98.549 61.3142 98.9307C62.1711 99.3123 63.3136 99.9325 64.4561 100.791C65.0273 101.221 65.551 101.65 65.9794 102.127C66.4079 102.556 66.7411 103.033 66.9315 103.463C67.122 103.892 67.2648 104.274 67.3124 104.512C67.3124 104.846 67.3124 104.989 67.3124 104.989Z" fill="#455A64"/>
<path d="M114.87 111.477C114.917 111.525 114.203 112.24 113.632 113.337C113.061 114.435 112.918 115.436 112.823 115.436C112.775 115.436 112.823 114.387 113.394 113.242C114.013 112.097 114.822 111.429 114.87 111.477Z" fill="#263238"/>
<g opacity="0.3">
<path d="M84.3057 62.5796L87.3524 84.1422L87.4952 84.4761C88.2568 77.0819 87.1143 69.4968 84.3057 62.5796Z" fill="black"/>
</g>
<path d="M100.777 74.9828L90.8279 92.3951L66.3591 92.9199L66.3115 94.0171L90.0186 93.8262L90.7803 93.7785L115.82 93.8262L120.866 85.0963L127.341 75.7938C127.769 75.1737 127.341 74.3627 126.579 74.3627L101.586 74.4581C101.206 74.5058 100.92 74.6966 100.777 74.9828Z" fill="#E0E0E0"/>
<path d="M120.819 85.1439C120.819 85.1439 122.104 86.3365 121.914 87.3383C121.724 88.3401 121.771 89.1034 120.819 89.1511C120.819 89.1511 120.867 90.4392 119.534 90.63C119.534 90.63 119.819 92.2042 118.01 92.4905C118.01 92.4905 117.439 94.1601 116.297 93.7785C115.154 93.3492 114.392 92.9198 114.392 92.9198L114.059 92.2996C114.059 92.2996 112.345 91.6795 112.774 90.6777C113.012 90.1052 113.916 89.9621 113.916 89.9621C113.916 89.9621 113.536 89.1034 114.012 88.4833C114.44 87.9585 115.725 88.3879 115.725 88.3879C115.725 88.3879 115.63 87.6723 116.154 87.0998C116.582 86.5751 118.724 88.0062 118.724 88.0062L119.867 86.6228L120.819 85.1439Z" fill="#E99460"/>
<path d="M118.01 92.4905C117.962 92.5382 117.01 92.0134 115.915 91.2978C114.773 90.5823 113.916 89.9621 113.916 89.9144C113.964 89.8667 114.916 90.3914 116.011 91.107C117.153 91.8226 118.058 92.4428 118.01 92.4905Z" fill="#E99460"/>
<path d="M119.534 90.63C119.487 90.6777 118.63 90.2007 117.582 89.5805C116.535 88.9604 115.726 88.3879 115.773 88.3402C115.821 88.2925 116.678 88.7696 117.725 89.3897C118.773 90.0099 119.582 90.5823 119.534 90.63Z" fill="#E99460"/>
<path d="M117.438 87.1952C117.486 87.1475 118.248 87.5291 119.2 88.1016C120.104 88.674 120.866 89.1511 120.818 89.1988C120.771 89.2942 119.962 88.9126 119.057 88.3401C118.153 87.7676 117.438 87.2429 117.438 87.1952Z" fill="#E99460"/>
<path d="M127.293 75.0783C127.293 75.0783 127.245 75.0783 127.15 75.0783C127.055 75.0783 126.96 75.0783 126.817 75.0783C126.484 75.0783 126.055 75.0783 125.484 75.0783C124.294 75.0783 122.58 75.0783 120.533 75.126C116.296 75.126 110.536 75.126 104.11 75.1737C103.729 75.1737 103.3 75.1737 102.92 75.1737C102.539 75.126 102.205 75.3168 102.015 75.603C101.634 76.2709 101.253 76.9388 100.92 77.6066C100.206 78.9424 99.492 80.2304 98.8255 81.423C97.4926 83.856 96.2549 86.0504 95.2552 87.8632C94.2555 89.6759 93.3986 91.1548 92.8273 92.2043C92.5417 92.6814 92.3037 93.1107 92.1609 93.3969C92.0657 93.54 92.0181 93.6355 91.9705 93.6832C91.9228 93.7309 91.9229 93.7786 91.9229 93.7786C91.9229 93.7786 91.9228 93.7309 91.9705 93.6832C92.0181 93.5877 92.0657 93.4923 92.1133 93.3492C92.2561 93.063 92.4941 92.6814 92.7321 92.1566C93.3034 91.1071 94.1127 89.6282 95.1124 87.7677C96.1121 85.9073 97.3022 83.7128 98.6351 81.2799C99.3016 80.0396 100.016 78.7992 100.73 77.4635C101.111 76.7956 101.491 76.1278 101.872 75.4122C102.11 75.0306 102.586 74.8397 102.967 74.8875C103.348 74.8875 103.776 74.8875 104.157 74.8875C110.536 74.8875 116.344 74.9352 120.581 74.9352C122.675 74.9352 124.342 74.9829 125.532 74.9829C126.103 74.9829 126.531 74.9829 126.865 74.9829C127.007 74.9829 127.103 74.9829 127.198 74.9829C127.245 75.0783 127.293 75.0783 127.293 75.0783Z" fill="#263238"/>
<path d="M109.679 83.8559C109.251 84.3329 109.203 85.0485 109.679 85.4301C110.108 85.8118 110.822 85.7164 111.25 85.2393C111.679 84.7623 111.726 84.0467 111.25 83.6651C110.822 83.2834 110.108 83.3311 109.679 83.8559Z" fill="white"/>
<g opacity="0.3">
<path d="M40.1782 77.1297C39.9878 77.2251 39.7021 77.3682 39.7021 77.6067C39.7021 77.7976 39.8926 77.9407 40.0354 77.9884C40.2258 78.0361 40.8923 77.7499 41.0351 77.7021C43.6057 77.1297 45.7479 77.7021 48.1758 78.6562L48.271 78.5608C47.3665 76.4618 42.9393 75.9848 40.1782 77.1297Z" fill="black"/>
</g>
<path d="M84.9258 30.6651L91.638 31.4284C93.2566 29.1385 95.494 27.2304 98.3027 26.0377C106.3 22.603 115.536 26.2763 118.963 34.2907C122.391 42.3051 118.725 51.5598 110.727 54.9946C102.73 58.4293 93.4946 54.756 90.0671 46.7416C88.6389 43.4023 88.4485 39.8244 89.3054 36.5805L84.9258 30.6651Z" fill="#FFEB9E"/>
<path d="M84.9258 30.6651C85.2114 30.9991 86.5443 32.8118 89.353 36.5328H89.2578C89.2578 36.4851 89.3054 36.4851 89.353 36.4851C89.4006 36.4851 89.4006 36.5328 89.4006 36.5328C88.8294 38.7272 88.6389 41.5895 89.4958 44.6904C89.7338 45.4536 89.9719 46.2646 90.3527 47.0279C90.5431 47.4095 90.7335 47.7912 90.924 48.1728C91.162 48.5544 91.4 48.9361 91.638 49.3177C92.6377 50.7966 93.9706 52.18 95.6368 53.3249C97.2554 54.4698 99.1595 55.3285 101.254 55.7579C103.349 56.2349 105.586 56.2826 107.824 55.8056C110.013 55.3285 112.203 54.3267 114.107 52.8956C115.964 51.4644 117.63 49.5562 118.677 47.3141C119.772 45.0243 120.344 42.5436 120.248 40.1107C120.201 37.6777 119.534 35.3402 118.487 33.2889C117.44 31.2376 115.964 29.4725 114.25 28.1368C112.536 26.801 110.632 25.8947 108.68 25.3699C106.729 24.8451 104.824 24.7497 103.016 24.8929C101.207 25.0837 99.5404 25.6084 98.0646 26.2763C95.1132 27.612 93.1138 29.6633 91.8284 31.4761L91.7808 31.5238C87.4012 30.9514 85.3542 30.7128 84.9258 30.6651C85.3542 30.7128 87.4012 30.9037 91.638 31.333L91.5904 31.3807C92.8757 29.5679 94.8751 27.4689 97.8266 26.1332C99.3024 25.4653 100.969 24.9406 102.825 24.7497C104.634 24.5589 106.633 24.6543 108.585 25.1791C110.537 25.7038 112.489 26.6102 114.25 27.946C116.012 29.2817 117.487 31.0945 118.582 33.1458C119.677 35.2448 120.296 37.63 120.391 40.063C120.486 42.5436 119.915 45.072 118.82 47.3618C117.773 49.6517 116.107 51.5598 114.203 53.0387C112.298 54.5175 110.061 55.5193 107.824 55.9964C105.586 56.4734 103.301 56.4257 101.159 55.9487C99.0643 55.4716 97.1126 54.613 95.494 53.468C93.8278 52.3231 92.4949 50.892 91.4952 49.4131C91.2572 49.0315 91.0192 48.6499 90.7811 48.2682C90.5907 47.8866 90.4003 47.4572 90.2099 47.0756C89.8291 46.3123 89.5434 45.5013 89.353 44.7381C88.4961 41.5895 88.7342 38.7272 89.3054 36.5328L89.4006 36.5805C89.4006 36.6282 89.353 36.6282 89.3054 36.6282C86.5443 32.8596 85.2114 31.0468 84.9258 30.6651Z" fill="#383838"/>
<path d="M98.7307 34.8631C98.7307 34.8631 98.7307 34.9585 98.7307 35.1016C98.7307 35.2447 98.7307 35.4833 98.7307 35.7218C98.7307 36.2943 98.7307 37.0575 98.7783 38.0116C98.7783 39.9675 98.8259 42.7821 98.8259 46.1215L98.7307 46.026C102.015 46.026 105.824 46.026 109.918 46.026C109.965 45.9783 109.68 46.2646 109.775 46.1692V46.1215V46.0737V45.9783V45.7875V45.4059C109.775 45.1674 109.775 44.8811 109.775 44.6426C109.775 44.1178 109.775 43.6408 109.775 43.1638C109.775 42.162 109.775 41.2079 109.775 40.2538C109.775 38.3933 109.775 36.5805 109.775 34.9585L109.87 35.0539C106.538 35.0539 103.777 35.0062 101.777 35.0062C100.825 35.0062 100.016 35.0062 99.4924 34.9585C99.2544 34.9585 99.0163 34.9585 98.8735 34.9585C98.8259 34.8631 98.7307 34.8631 98.7307 34.8631C98.7307 34.8631 98.7783 34.8631 98.9211 34.8631C99.0639 34.8631 99.2544 34.8631 99.4924 34.8631C100.016 34.8631 100.778 34.8631 101.777 34.8154C103.777 34.8154 106.585 34.7677 109.918 34.7677H110.013V34.8631C110.013 36.4851 110.013 38.2979 110.013 40.1583C110.013 41.1124 110.013 42.0665 110.013 43.0683C110.013 43.5454 110.013 44.0701 110.013 44.5472C110.013 44.7857 110.013 45.0719 110.013 45.3105V45.6921V45.8829V45.9783V46.026V46.0737C110.108 45.9783 109.87 46.2169 109.87 46.2169C105.776 46.2169 101.92 46.2169 98.6831 46.2169H98.5879V46.1215C98.5879 42.7344 98.6355 39.9198 98.6355 37.9639C98.6355 37.0098 98.6355 36.2466 98.6831 35.6741C98.6831 35.4356 98.6831 35.2447 98.6831 35.1016C98.7307 34.9585 98.7307 34.8631 98.7307 34.8631Z" fill="#383838"/>
<path d="M108.728 36.7236C108.87 36.8667 107.395 39.0134 105.348 41.5895C104.967 42.1142 104.538 42.5913 104.205 43.0206L103.967 43.3068L103.682 43.0683C101.92 41.494 100.73 40.2537 100.873 40.1583C100.968 40.0152 102.349 41.017 104.158 42.5435L103.634 42.5913C103.967 42.1142 104.348 41.6372 104.777 41.1124C106.824 38.584 108.585 36.6282 108.728 36.7236Z" fill="#FF725E"/>
<path d="M109.44 164.417C108.269 164.615 107.546 163.437 107.524 162.578C107.502 161.72 107.922 160.929 108.329 160.181C109.261 158.474 110.253 156.698 111.884 155.642C112.361 155.304 112.925 155.107 113.513 155.07C113.806 155.056 114.099 155.119 114.363 155.253C114.627 155.388 114.852 155.589 115.015 155.836C115.371 156.438 115.208 157.195 114.985 157.849C114.327 159.776 113.245 161.524 111.819 162.965C111.154 163.631 110.376 164.255 109.444 164.421" fill="#A9A9B5"/>
<path d="M111.919 162.565C111.62 160.754 112.464 158.903 113.806 157.689C115.149 156.476 116.923 155.827 118.712 155.507C120.817 155.134 122.981 155.177 125.085 155.632C125.921 155.771 126.72 156.093 127.424 156.574C127.775 156.816 128.063 157.139 128.263 157.516C128.463 157.892 128.568 158.31 128.57 158.733C128.508 159.977 127.346 160.827 126.277 161.437C124.389 162.519 122.416 163.447 120.375 164.214C118.733 164.834 116.967 165.355 115.229 165.026C113.49 164.698 112.051 163.731 111.882 162.296" fill="#57B993"/>
<path d="M99.7489 174.071C99.7873 174.014 99.8326 173.963 99.8838 173.918C99.993 173.808 100.13 173.671 100.298 173.503C100.655 173.146 101.173 172.627 101.793 171.967C103.039 170.655 104.693 168.772 106.425 166.62C108.157 164.468 109.598 162.413 110.591 160.899C110.843 160.52 111.064 160.175 111.26 159.876C111.457 159.576 111.617 159.31 111.744 159.09C111.872 158.871 111.968 158.721 112.048 158.589C112.08 158.529 112.119 158.472 112.163 158.42C112.143 158.486 112.115 158.548 112.079 158.607C112.009 158.744 111.916 158.915 111.808 159.126C111.7 159.337 111.533 159.621 111.352 159.936C111.171 160.251 110.959 160.601 110.715 160.984C109.442 162.98 108.062 164.904 106.581 166.748C104.852 168.914 103.18 170.786 101.907 172.079C101.266 172.721 100.747 173.241 100.367 173.576C100.183 173.738 100.042 173.861 99.928 173.962C99.8734 174.006 99.8132 174.042 99.7489 174.071Z" fill="#263238"/>
<path d="M103.221 171.114C103.364 170.825 103.53 170.548 103.716 170.285C104.066 169.769 104.601 169.043 105.318 168.19C106.162 167.197 107.063 166.254 108.016 165.365C109.175 164.266 110.413 163.251 111.718 162.329C114.065 160.601 116.713 159.319 119.534 158.546C120.02 158.416 120.514 158.317 121.014 158.251C121.236 158.219 121.438 158.173 121.621 158.167L122.144 158.14C122.468 158.111 122.794 158.106 123.12 158.125C123.127 158.207 121.709 158.175 119.582 158.758C116.809 159.58 114.205 160.872 111.882 162.58C110.587 163.493 109.356 164.492 108.196 165.571C107.24 166.446 106.329 167.368 105.466 168.336C104.735 169.166 104.177 169.869 103.797 170.358C103.626 170.625 103.434 170.878 103.221 171.114Z" fill="#263238"/>
</g>
<defs>
<clipPath id="clip0_1_9506">
<rect width="153" height="174" fill="white" transform="translate(0.5 0.829102)"/>
</clipPath>
</defs>
</svg>
