<svg width="134" height="163" viewBox="0 0 134 163" fill="none" xmlns="http://www.w3.org/2000/svg">
<g clip-path="url(#clip0_1_8982)">
<path d="M97.0939 51.6281L87.3956 57.8212C70.5628 48.9257 49.7168 48.9257 32.4381 59.848C6.57581 76.1753 -1.22747 110.519 14.9365 136.642C31.1004 162.766 65.1005 170.648 90.9628 154.321C116.825 137.994 124.628 103.65 108.464 77.5265C105.009 72.009 100.773 67.2797 95.8677 63.3387L97.0939 51.6281Z" fill="#CCEFFC"/>
<path d="M97.095 51.628C96.9835 52.3037 96.6491 55.6817 95.9802 63.3386V63.226C98.4327 65.1403 101.22 67.7301 104.006 70.9955C105.456 72.6846 106.793 74.4862 108.131 76.6256C108.8 77.6391 109.357 78.7651 110.026 79.8911C110.695 81.0171 111.364 82.1431 111.81 83.4943C112.367 84.733 112.925 86.0842 113.482 87.3228C113.928 88.674 114.374 90.1379 114.82 91.4891L115.154 92.6151C115.266 92.9529 115.266 93.4033 115.377 93.7411C115.488 94.5293 115.711 95.2049 115.823 95.9931C115.934 96.7814 116.157 97.5696 116.269 98.3578C116.38 99.146 116.492 99.9342 116.492 100.722C117.161 107.141 116.826 114.347 114.931 121.441C113.036 128.648 109.58 135.742 104.452 142.16L103.561 143.398L102.557 144.524C101.888 145.313 101.108 145.988 100.439 146.777L99.8819 147.34L99.3245 147.903L98.0983 148.916C97.3179 149.592 96.5376 150.267 95.7573 150.943C94.8655 151.506 93.9737 152.181 93.1934 152.744C92.3015 153.307 91.5212 153.983 90.5179 154.546C89.6261 155.109 88.6228 155.559 87.731 156.122L86.2819 156.911C85.836 157.136 85.2786 157.361 84.8327 157.586C83.8294 158.037 82.8261 158.487 81.8228 158.938C81.3769 159.163 80.8196 159.388 80.2622 159.501L78.7015 160.064C77.5868 160.401 76.5835 160.739 75.4687 161.077C74.354 161.302 73.2392 161.527 72.1245 161.753C71.5671 161.865 71.0097 161.978 70.4523 162.09L68.7802 162.316C67.6655 162.428 66.5507 162.541 65.3245 162.653C64.2097 162.653 62.9835 162.653 61.8687 162.766H60.0851C59.5277 162.766 58.9704 162.653 58.3015 162.653C57.1868 162.541 55.9605 162.428 54.8458 162.316C53.731 162.203 52.5048 161.865 51.39 161.753C49.049 161.415 46.8195 160.627 44.4785 160.064C43.3638 159.726 42.249 159.163 41.1343 158.825L39.4622 158.149C38.9048 157.924 38.3474 157.586 37.79 157.361C36.6753 156.798 35.672 156.235 34.5572 155.672C33.5539 155.109 32.5507 154.433 31.4359 153.758L29.8753 152.744C29.3179 152.407 28.872 151.956 28.4261 151.618C27.4228 150.83 26.531 150.155 25.5277 149.366C24.6359 148.578 23.7441 147.677 22.8523 146.889L21.5146 145.651C21.0687 145.2 20.7343 144.75 20.2884 144.299C19.508 143.398 18.7277 142.498 17.9474 141.597C17.167 140.696 16.6097 139.683 15.8293 138.669C14.3802 136.755 13.3769 134.616 12.1506 132.589C11.4818 131.575 11.1474 130.449 10.7015 129.436C10.2556 128.31 9.80966 127.296 9.36376 126.17C9.02933 125.044 8.69491 123.918 8.36048 122.905L7.8031 121.216C7.69163 120.653 7.58015 120.09 7.46868 119.527C7.24573 118.401 7.02277 117.275 6.79982 116.149C6.57687 115.023 6.57687 113.897 6.35392 112.771L6.13097 111.082L6.01949 110.294V109.505C6.01949 108.379 6.01949 107.253 6.01949 106.127C5.90802 105.001 6.13097 103.875 6.13097 102.862C6.24245 101.736 6.35392 100.722 6.35392 99.5964C6.57687 98.4704 6.68835 97.457 6.9113 96.4435C7.13425 95.4301 7.24573 94.3041 7.58015 93.2907C8.13753 91.2639 8.69491 89.1244 9.47524 87.2102C9.80966 86.1968 10.2556 85.296 10.59 84.2826C11.0359 83.3817 11.4818 82.4809 11.9277 81.4675C15.6064 74.1484 20.7343 67.9553 26.4195 63.3386C29.3179 61.0866 32.3277 59.0598 35.3376 57.3707C36.8982 56.5825 38.3474 55.7943 40.0195 55.2313C40.7999 54.8935 41.5802 54.5557 42.3605 54.3305C43.1408 54.1053 43.9212 53.7675 44.7015 53.5423C50.8327 51.5154 56.8523 50.9524 62.3146 51.065C67.7769 51.1776 72.6819 52.0785 76.8064 53.3171C80.931 54.5557 84.3868 56.1321 87.0622 57.5959H86.9507C93.6393 53.7675 96.5376 51.9659 97.095 51.628C96.5376 51.9659 93.7507 53.7675 87.3966 57.8211C84.6097 56.4699 81.2655 54.8935 77.1409 53.6549C73.0163 52.4163 68.1114 51.5154 62.7605 51.5154C57.4097 51.4028 51.39 52.0785 45.2589 54.1053C44.4785 54.3305 43.6982 54.6683 42.9179 54.8935C42.1376 55.1187 41.3572 55.4565 40.5769 55.7943C39.0163 56.3573 37.5671 57.2581 36.0064 57.9337C32.9966 59.6228 29.9867 61.537 27.1998 63.9016C21.5146 68.5183 16.4982 74.5988 12.8195 81.9179C12.3736 82.8187 11.9277 83.7196 11.4818 84.6204C11.1474 85.6338 10.7015 86.5346 10.367 87.548C9.47524 89.4622 9.02933 91.4891 8.47196 93.5159C8.13753 94.5293 8.02605 95.5427 7.8031 96.6688C7.58015 97.6822 7.46868 98.8082 7.24573 99.8216C7.13425 100.948 7.02277 101.961 7.02277 103.087C6.9113 104.213 6.79982 105.226 6.9113 106.352C6.9113 107.479 6.9113 108.605 6.9113 109.618V110.406L7.02277 111.194L7.24573 112.883C7.3572 114.009 7.46868 115.135 7.69163 116.261C7.91458 117.387 8.13753 118.513 8.36048 119.527C8.47196 120.09 8.58343 120.653 8.69491 121.216L9.25228 122.792C9.58671 123.918 9.92114 124.932 10.2556 126.058C10.7015 127.071 11.1474 128.197 11.5933 129.211C12.0392 130.224 12.4851 131.35 13.0425 132.364C14.1572 134.39 15.272 136.53 16.6097 138.331C17.2785 139.232 17.9474 140.246 18.6162 141.259C19.3966 142.16 20.1769 143.061 20.9572 143.961C21.4031 144.412 21.7375 144.862 22.1834 145.313L23.5212 146.551C24.413 147.34 25.1933 148.24 26.0851 149.029C26.9769 149.817 27.9802 150.492 28.872 151.281C29.3179 151.618 29.7638 152.069 30.3212 152.407L31.8818 153.42C32.8851 154.096 33.8884 154.771 34.8917 155.334C36.0064 155.897 37.0097 156.46 38.1244 156.911C38.6818 157.136 39.1277 157.474 39.6851 157.699L41.3572 158.375C42.472 158.825 43.5867 159.275 44.7015 159.613C46.931 160.176 49.1605 160.964 51.5015 161.302C52.6163 161.527 53.731 161.753 54.9573 161.865C56.072 161.978 57.2982 162.09 58.413 162.203C58.9704 162.203 59.5277 162.316 60.0851 162.316H61.7573C62.872 162.316 63.9868 162.316 65.213 162.203C66.3278 162.09 67.4425 161.978 68.5573 161.865L70.2294 161.64C70.7868 161.527 71.3442 161.415 71.9015 161.302C73.0163 161.077 74.131 160.852 75.1343 160.627C76.2491 160.401 77.2523 159.951 78.2556 159.613L79.8163 159.163C80.3737 159.05 80.8196 158.825 81.3769 158.6C82.3802 158.149 83.3835 157.699 84.3868 157.248C84.8327 157.023 85.3901 156.798 85.836 156.573L87.2851 155.785C88.1769 155.222 89.1802 154.771 90.072 154.208C90.9638 153.758 91.8556 152.97 92.7474 152.407C93.6393 151.844 94.4196 151.168 95.3114 150.605C96.0917 149.929 96.872 149.254 97.6524 148.578L98.8786 147.565L99.436 147.002L99.9934 146.439C100.662 145.651 101.443 144.975 102.111 144.187L103.115 143.061L104.006 141.822C109.134 135.516 112.479 128.422 114.374 121.329C116.269 114.235 116.715 107.141 115.934 100.722C115.823 99.9342 115.711 99.146 115.711 98.3578C115.6 97.5696 115.377 96.7814 115.266 95.9931C115.154 95.2049 114.931 94.5293 114.82 93.7411C114.708 93.4033 114.708 92.9529 114.597 92.6151L114.262 91.4891C113.816 90.0252 113.37 88.674 112.925 87.3228C112.367 85.9716 111.81 84.733 111.252 83.4943C110.806 82.2557 110.026 81.1297 109.469 79.8911C108.8 78.7651 108.243 77.6391 107.574 76.6256C106.236 74.5988 104.898 72.6846 103.449 70.9955C100.662 67.6175 97.8753 65.1403 95.5343 63.1134C96.6491 55.7943 96.9835 52.3037 97.095 51.628Z" fill="#31241C"/>
<path d="M92.6347 118.626L93.9724 129.323L110.136 115.361L118.943 117.5C118.943 117.5 109.802 136.868 102.556 144.524C95.3101 152.181 91.4085 153.307 88.7331 153.42C84.9429 153.533 83.2708 149.029 83.2708 149.029L81.5986 122.342L92.6347 118.626Z" fill="#E99460"/>
<path d="M93.9779 129.098C93.8664 129.098 93.3091 130.224 92.8632 131.8C92.4172 133.377 92.4173 134.728 92.5287 134.728C92.6402 134.728 92.8632 133.489 93.3091 131.913C93.532 130.337 94.0894 129.098 93.9779 129.098Z" fill="#AB5D2D"/>
<path d="M111.701 88.2238H123.852C125.747 88.2238 127.307 90.3632 126.638 92.1648L114.376 116.262C113.93 117.162 112.927 117.838 111.924 117.838H97.0974C95.4253 117.613 94.7564 115.699 95.4253 114.685L107.242 91.0388C108.245 89.3498 109.917 88.2238 111.701 88.2238Z" fill="#455A64"/>
<path d="M112.589 89.6875H124.74C126.301 89.6875 127.304 91.2639 126.524 92.7278L114.596 116.262C114.15 117.162 113.147 117.838 112.143 117.838H97.4287C96.5369 117.838 95.9795 116.937 96.3139 116.036L108.13 92.3899C109.022 90.8135 110.694 89.6875 112.589 89.6875Z" fill="#31241C"/>
<path d="M113.592 99.5966L121.061 102.637L122.622 108.717L119.055 117.725L105.901 119.64L109.691 115.699L109.245 112.208C109.245 112.208 105.566 111.082 105.455 110.519C105.343 109.956 105.901 108.042 106.458 107.929C107.015 107.816 110.806 109.28 110.806 109.28C110.806 109.28 106.235 105.677 106.347 105.114C106.458 104.551 107.015 103.087 107.907 102.862C108.799 102.749 116.156 106.127 116.156 106.127L117.383 108.83L118.386 104.438C118.497 104.438 112.032 102.524 113.592 99.5966Z" fill="#E99460"/>
<path d="M112.703 113.672C112.703 113.672 112.926 113.446 112.926 112.883C113.038 112.433 112.926 111.757 112.703 110.969C112.48 110.294 112.034 109.731 111.7 109.393C111.365 109.055 111.031 108.942 111.031 108.942C110.92 109.055 111.923 109.731 112.369 111.082C112.815 112.546 112.592 113.672 112.703 113.672Z" fill="#AB5D2D"/>
<path d="M116.155 112.433C116.155 112.433 115.933 111.757 115.821 110.519C115.71 109.956 115.71 109.167 115.487 108.379C115.375 107.929 115.152 107.591 114.818 107.253C114.483 106.915 114.037 106.69 113.592 106.465C111.808 105.789 110.247 105.339 109.021 104.889C107.906 104.551 107.126 104.326 107.126 104.326C107.126 104.326 107.795 104.663 108.91 105.114C110.024 105.564 111.696 106.127 113.369 106.803C113.815 107.028 114.149 107.141 114.483 107.478C114.818 107.816 114.929 108.154 115.152 108.492C115.375 109.28 115.487 109.956 115.598 110.519C115.821 111.757 116.155 112.433 116.155 112.433Z" fill="#AB5D2D"/>
<path d="M117.942 111.082C118.053 111.082 118.053 110.406 117.942 109.618C117.83 108.83 117.607 108.154 117.496 108.154C117.384 108.154 117.384 108.83 117.496 109.618C117.607 110.406 117.83 111.082 117.942 111.082Z" fill="#AB5D2D"/>
<path d="M116.604 95.768C117.466 95.768 118.164 95.0622 118.164 94.1915C118.164 93.3209 117.466 92.6151 116.604 92.6151C115.742 92.6151 115.043 93.3209 115.043 94.1915C115.043 95.0622 115.742 95.768 116.604 95.768Z" fill="#FAFAFA"/>
<path d="M72.5717 30.797C76.6963 42.0572 81.2668 53.9929 90.7422 61.1995C89.516 61.5373 88.1783 61.3121 87.0635 60.6365C89.1816 64.0145 91.2996 67.5052 92.3029 71.3336C93.4176 75.1621 93.3061 79.5535 91.1881 82.9316C90.9652 82.4812 90.6307 82.0308 90.4078 81.693C92.7488 89.9129 89.0701 99.484 81.8242 103.876C78.7029 105.79 74.4668 106.691 71.457 104.664C69.116 103.087 68.0012 100.272 66.9979 97.6824C60.7553 80.567 54.5127 63.5641 48.27 46.4486C46.4864 41.7194 44.7028 36.6523 45.5946 31.5852C46.5979 25.9551 51.1684 21.1132 56.7422 19.8746C62.316 18.636 68.5586 21.1132 71.7914 25.7299" fill="#31241C"/>
<path d="M83.4956 93.8539C83.4956 93.8539 83.6071 93.7412 83.83 93.516C84.053 93.2908 84.2759 92.953 84.6104 92.5026C85.2792 91.6018 86.0596 90.138 86.5055 88.2238C86.9514 86.3095 87.1743 83.9449 86.8399 81.2425C86.5055 78.6526 85.6136 75.8376 84.4989 73.0225C83.2727 70.2075 81.935 67.7302 80.8202 65.3656C79.7054 63.001 78.7022 60.8615 78.0333 59.0599C77.3645 57.2583 77.03 55.6819 76.8071 54.5558C76.5841 53.4298 76.5841 52.8668 76.4727 52.8668C76.4727 52.8668 76.4727 52.9794 76.4727 53.3172C76.4727 53.655 76.5841 53.9928 76.5841 54.5558C76.6956 55.6819 77.1415 57.2583 77.6989 59.0599C78.3677 60.9741 79.2595 63.1136 80.3743 65.4782C81.4891 67.8429 82.8268 70.3201 84.053 73.1351C85.2792 75.8376 86.0596 78.6526 86.394 81.2425C86.7284 83.8323 86.5055 86.1969 86.0595 88.1112C85.6136 90.0254 84.8333 91.4892 84.2759 92.39C83.9415 93.4034 83.4956 93.8539 83.4956 93.8539Z" fill="#455A64"/>
<path d="M60.0785 24.4908C68.5506 24.9412 75.2392 31.9225 75.2392 40.4803C75.2392 47.1238 75.1277 54.3303 74.6818 58.6091C73.6785 68.5181 66.3211 70.2071 66.3211 70.2071C66.3211 70.2071 66.5441 76.4002 66.8785 82.2555C67.2129 87.8856 62.6424 92.7275 56.7342 93.1779C50.9375 93.6283 45.9211 89.5746 45.4752 84.0571L43.4687 41.1559C43.0228 31.8099 50.7146 24.0404 60.0785 24.4908Z" fill="#E99460"/>
<path d="M71.6757 44.3089C71.7872 44.9845 71.2298 45.5475 70.561 45.6601C69.8921 45.7727 69.2233 45.2097 69.2233 44.6467C69.1118 43.9711 69.6692 43.408 70.338 43.2954C71.0069 43.1828 71.6757 43.6332 71.6757 44.3089Z" fill="#31241C"/>
<path d="M72.9027 42.8453C72.7912 43.0705 71.7879 42.3948 70.4502 42.5074C69.1125 42.6201 68.1092 43.2957 67.9977 43.1831C67.8863 43.0705 68.1092 42.8453 68.4436 42.5074C68.8895 42.1696 69.5584 41.8318 70.3387 41.7192C71.2305 41.7192 71.8994 41.9444 72.3453 42.2822C72.7912 42.3948 73.0141 42.7327 72.9027 42.8453Z" fill="#31241C"/>
<path d="M57.7363 45.5475C57.8477 46.2231 57.2904 46.7861 56.6215 46.8987C55.9527 47.0113 55.2838 46.4483 55.2838 45.8853C55.1723 45.2097 55.7297 44.6467 56.3986 44.5341C56.9559 44.4215 57.6248 44.8719 57.7363 45.5475Z" fill="#31241C"/>
<path d="M58.8558 44.1961C58.7443 44.4213 57.741 43.7457 56.4033 43.8583C55.0656 43.9709 54.0623 44.6465 53.9509 44.5339C53.8394 44.4213 54.0624 44.1961 54.3968 43.8583C54.8427 43.5205 55.5115 43.1827 56.2919 43.0701C57.1837 43.0701 57.8525 43.2953 58.2984 43.6331C58.8558 43.7457 58.9673 44.0835 58.8558 44.1961Z" fill="#31241C"/>
<path d="M64.4305 53.88C64.4305 53.7674 65.2108 53.6548 66.5485 53.317C66.8829 53.2044 67.2174 53.2044 67.2174 52.9792C67.3288 52.754 67.1059 52.3036 66.8829 51.9658C66.5485 51.1776 66.1026 50.2768 65.6567 49.3759C63.9846 45.6601 62.8698 42.6198 62.9813 42.6198C63.0928 42.5072 64.542 45.4349 66.2141 49.1507C66.66 50.0516 66.9944 50.9524 67.3288 51.7406C67.4403 52.0784 67.7747 52.5288 67.5518 53.0918C67.4403 53.317 67.2174 53.5422 66.9944 53.6548C66.7715 53.7674 66.5485 53.7674 66.437 53.7674C65.2108 53.9926 64.4305 53.9926 64.4305 53.88Z" fill="#31241C"/>
<path d="M66.3233 70.2072C66.3233 70.2072 59.7463 70.7702 52.9463 67.2795C52.9463 67.2795 56.625 74.3735 66.4348 73.0222L66.3233 70.2072Z" fill="#AB5D2D"/>
<path d="M54.5116 40.3678C54.623 40.593 55.6263 40.1426 56.8525 39.9174C58.0788 39.5795 59.0821 39.5795 59.1935 39.2417C59.305 39.0165 58.0788 38.5661 56.6296 38.9039C55.1804 39.2417 54.2886 40.1426 54.5116 40.3678Z" fill="#31241C"/>
<path d="M67.7754 37.8906C67.8869 38.1158 69.0016 38.1158 70.2279 38.1158C71.5656 38.1158 72.6803 38.2284 72.6803 37.8906C72.7918 37.6654 71.677 37.1024 70.2279 37.1024C68.8901 37.1024 67.7754 37.6654 67.7754 37.8906Z" fill="#31241C"/>
<path d="M29.6523 84.8457C29.6523 84.8457 33.1081 77.8644 30.9901 71.6713C28.872 65.4782 29.6523 60.7489 32.7737 58.2716C35.0032 56.5826 35.2261 53.655 35.0032 51.4029C34.6687 47.5745 34.6687 43.8586 35.2261 40.1428C36.1179 34.7379 37.6786 28.9952 40.9114 24.8289C45.036 19.3114 52.6163 14.2444 58.8589 17.0594C61.7573 18.4106 63.2065 18.298 66.3278 21.0005C66.3278 21.0005 69.1147 21.2257 70.5639 21.4509C75.6917 22.2391 78.9245 27.7566 79.5934 31.8102C80.9311 41.0436 75.8032 43.746 75.2458 50.0517C75.2458 50.0517 74.354 36.8773 73.1278 33.4993C71.7901 29.5582 68.1114 27.644 68.1114 27.644C64.3212 27.9818 62.872 30.2338 61.7573 33.8371C60.5311 37.4403 59.8622 40.368 56.8524 42.62C54.0655 44.872 52.0589 48.4753 46.8196 46.6737C46.8196 46.6737 45.2589 49.7139 45.8163 52.9794C46.3737 56.2448 49.9409 57.033 49.0491 62.5505C48.1573 67.9554 44.9245 72.4595 44.9245 74.4863" fill="#31241C"/>
<path d="M62.764 57.1458C62.3181 56.6954 61.6493 56.3576 60.8689 56.5828C60.423 56.6954 59.8657 56.9206 59.6427 57.371C59.4198 57.8214 59.3083 58.3844 59.6427 58.7222C59.9771 59.1726 60.646 59.1726 61.0919 58.9474C61.6493 58.7222 62.0952 58.3844 62.4296 57.934C62.5411 57.8214 62.6525 57.7088 62.764 57.5962C62.8755 57.4836 62.8755 57.371 62.764 57.1458Z" fill="#AB5D2D"/>
<path d="M59.8598 55.4568C60.0827 55.4568 60.0827 56.6954 61.1975 57.4836C62.3123 58.2718 63.5385 58.0466 63.65 58.1592C63.65 58.2718 63.427 58.3844 62.8696 58.497C62.3123 58.6096 61.5319 58.497 60.8631 57.934C60.1942 57.4836 59.8598 56.808 59.7483 56.245C59.6368 55.7946 59.7483 55.4568 59.8598 55.4568Z" fill="#31241C"/>
<path d="M40.1315 25.8424C38.0135 29.1079 36.3413 31.6977 33.8889 34.5127C31.4364 37.3278 28.984 40.368 28.761 44.0839C28.6495 46.7863 29.7643 49.6014 28.6495 52.0786C27.7577 54.218 25.5282 55.3441 23.8561 56.9205C20.9577 59.7355 19.7315 64.2396 20.8462 68.0681C21.5151 70.5453 23.1872 73.0225 22.6299 75.4998C22.184 77.7518 20.0659 79.3282 19.5085 81.4677C18.9512 83.4945 19.7315 85.7465 20.6233 87.6608C22.0725 90.5884 24.079 93.7413 27.3118 94.4169C29.4299 94.8673 31.7708 94.1917 33.5545 92.8404C35.3381 91.4892 36.6758 89.6876 37.6791 87.6608C39.7971 83.9449 41.0233 79.666 41.4692 75.3872C41.9151 70.2075 41.1348 65.1404 40.6889 59.9607C39.7971 50.5022 39.7971 41.0436 40.6889 31.6977C40.9118 29.5583 41.8036 27.3062 40.1315 25.8424Z" fill="#31241C"/>
<path d="M49.0483 48.2501C49.0483 47.5745 47.3762 46.4485 46.7073 46.4485C45.2581 46.4485 42.8057 47.2367 42.8057 51.403C42.8057 57.3709 48.3794 55.5692 48.3794 55.4566C48.3794 55.2314 49.1598 50.6148 49.0483 48.2501Z" fill="#E99460"/>
<path d="M46.931 53.0919C46.931 53.0919 46.8195 53.2045 46.708 53.2045C46.4851 53.3171 46.2621 53.3171 45.9277 53.2045C45.2588 52.9793 44.8129 51.9659 44.8129 50.8399C44.8129 50.2769 44.9244 49.8264 45.1474 49.376C45.3703 48.9256 45.5933 48.5878 45.9277 48.5878C46.2621 48.4752 46.4851 48.7004 46.4851 48.9256C46.5965 49.0382 46.4851 49.2634 46.5966 49.2634C46.5966 49.2634 46.708 49.1508 46.708 48.9256C46.708 48.813 46.5965 48.7004 46.4851 48.5878C46.3736 48.4752 46.1506 48.3626 45.9277 48.4752C45.4818 48.4752 45.0359 48.9256 44.8129 49.376C44.59 49.8264 44.4785 50.3895 44.4785 51.0651C44.4785 52.3037 45.1474 53.4297 45.9277 53.6549C46.3736 53.7675 46.708 53.6549 46.8195 53.5423C46.931 53.2045 46.931 53.0919 46.931 53.0919Z" fill="#AB5D2D"/>
<path d="M77.1396 45.9982C77.1396 45.9982 77.0281 45.6604 76.8051 44.9848C76.6937 44.3092 76.4707 43.2958 76.4707 42.1698C76.4707 40.9312 76.5822 39.5799 76.8051 38.0035C77.0281 36.4271 77.251 34.6255 77.251 32.8238C77.251 31.923 77.0281 31.0222 76.8051 30.1214C76.4707 29.3332 76.0248 28.545 75.5789 27.8693C74.5756 26.6307 73.2379 25.8425 72.1232 25.3921C71.0084 24.9417 70.0051 24.8291 69.3363 24.8291C69.0019 24.8291 68.7789 24.8291 68.556 24.9417C68.333 24.9417 68.333 24.9417 68.333 24.9417C68.333 24.9417 68.6674 24.9417 69.3363 24.9417C70.0051 24.9417 71.0084 25.1669 72.0117 25.6173C73.1265 26.0677 74.3527 26.8559 75.2445 28.0946C75.6904 28.6576 76.1363 29.4458 76.3592 30.234C76.5822 31.0222 76.8051 31.923 76.8051 32.8238C76.9166 34.6255 76.5822 36.4271 76.4707 38.0035C76.2478 39.5799 76.1363 41.0438 76.1363 42.2824C76.1363 43.521 76.3592 44.4218 76.5822 45.0974C76.6937 45.4352 76.8051 45.6604 76.9166 45.773C77.1396 45.8856 77.1396 45.9982 77.1396 45.9982Z" fill="#455A64"/>
<path d="M43.4766 55.0062C43.4766 55.0062 43.2537 55.1188 43.1422 55.5693C42.9192 55.9071 42.6963 56.4701 42.6963 57.2583C42.6963 58.0465 43.1422 58.9473 44.034 59.5103C44.8143 60.0733 46.0406 60.2985 47.1553 59.8481C48.2701 59.3977 48.8274 58.2717 48.9389 57.2583C48.9389 56.8079 48.9389 56.2449 48.716 55.9071C48.493 55.4567 48.2701 55.2314 47.9356 55.0062C47.3783 54.5558 46.7094 54.4432 46.375 54.4432C45.9291 54.4432 45.7061 54.5558 45.7061 54.5558C45.7061 54.5558 45.9291 54.5558 46.375 54.5558C46.7094 54.5558 47.2668 54.781 47.8242 55.2314C48.3815 55.6819 48.8274 56.4701 48.716 57.3709C48.6045 58.2717 48.0471 59.1725 47.0438 59.6229C46.0406 60.0733 45.0373 59.8481 44.2569 59.2851C43.4766 58.8347 43.0307 58.0465 43.0307 57.2583C43.0307 56.5827 43.1422 56.0197 43.3651 55.6819C43.3651 55.1188 43.4766 55.0062 43.4766 55.0062Z" fill="#FFCB05"/>
<path d="M28.8721 51.6281C28.8721 51.6281 28.8721 51.4029 28.9835 51.0651C29.095 50.7273 29.2065 50.2768 29.5409 49.7138C30.2098 48.5878 31.3245 47.0114 33.2196 45.7728C34.2229 45.0972 35.3376 44.5342 36.7868 44.309C38.1245 44.0837 39.5737 44.0837 41.1344 44.0837C42.695 44.0837 44.2557 44.1964 45.8163 43.9711C47.377 43.7459 48.9377 43.1829 50.3868 42.2821C51.836 41.3813 52.9508 40.1427 54.2885 39.0167C55.5147 38.0033 56.7409 36.8772 57.6327 35.6386C59.5278 33.274 61.3114 31.1345 62.6491 29.3329C63.9869 27.5313 64.9901 25.9549 65.659 24.8288C66.1049 23.7028 66.4393 23.0272 66.4393 23.0272C66.4393 23.0272 66.4393 23.2524 66.3278 23.4776C66.2164 23.8154 65.9934 24.2658 65.7705 24.8288C65.2131 25.9549 64.3213 27.6439 62.9836 29.4455C61.6459 31.3598 59.8623 33.3866 58.0787 35.8638C57.1868 37.1024 55.9606 38.2285 54.7344 39.3545C53.5082 40.3679 52.2819 41.7191 50.8327 42.6199C49.3836 43.6333 47.7114 44.1964 46.0393 44.4216C44.3672 44.6468 42.8065 44.5342 41.2459 44.4216C39.7967 44.309 38.3475 44.309 37.0098 44.5342C35.6721 44.7594 34.5573 45.2098 33.6655 45.8854C31.7704 47.124 30.5442 48.5878 29.8754 49.6012C29.095 50.8399 28.9835 51.6281 28.8721 51.6281Z" fill="#455A64"/>
<path d="M60.6412 92.7277C62.7592 86.1968 67.9986 79.4407 73.6838 81.8054C80.0379 84.5078 81.8215 87.8859 85.2773 93.1782C88.733 98.4704 90.8511 104.551 92.9691 110.519C93.7494 112.883 98.097 123.581 96.8707 125.72C95.756 127.522 84.9429 141.259 82.9363 141.822C77.5855 143.286 77.3625 123.468 72.0117 124.481C69.8937 124.932 67.4412 125.27 65.5461 124.144C63.0937 122.792 62.4248 119.64 61.8674 116.825C60.0838 107.141 58.3002 97.3444 56.5166 87.6607" fill="#005886"/>
<path d="M66.4316 79.5739L74.7923 83.1771C79.0283 86.5552 80.2546 92.2979 80.0316 97.7028L83.2644 142.743L83.4874 158.283C83.4874 158.283 58.8513 171.795 31.3168 154.341L35.8873 142.068L27.5266 112.791C26.9693 108.513 26.5234 99.617 27.6381 95.4507C30.425 84.641 38.0053 81.4881 45.8086 79.2361C45.8086 79.2361 53.6119 85.8796 61.1922 84.4158C61.4152 84.5284 65.9857 84.078 66.4316 79.5739Z" fill="#005886"/>
<g opacity="0.2">
<path d="M78.028 128.197C73.2346 135.291 68.3296 142.385 63.5362 149.366C61.6411 152.181 59.6346 154.996 56.8477 156.798C52.7231 159.388 47.1493 159.388 43.1362 156.685C39.1231 153.983 35.5558 146.664 36.4477 141.935C36.5591 141.372 38.4542 142.385 38.4542 142.385C39.0116 141.709 40.1263 141.709 40.9067 141.935C41.7985 142.16 42.4673 142.723 43.2477 143.173C47.8182 145.65 53.6149 144.299 57.8509 141.372C62.087 138.444 65.2083 134.165 68.5526 130.224C69.7788 128.76 71.1165 127.184 72.9001 126.508C74.6837 125.833 77.0247 126.396 77.8051 128.197" fill="black"/>
</g>
<path d="M53.0589 123.693L54.2852 128.647L79.7016 109.956L87.5049 98.808C88.5082 97.3442 90.0688 96.3307 91.8524 95.8803C93.7475 95.5425 95.6426 95.8803 97.3147 97.0064L104.561 102.186C104.561 102.186 104.338 106.127 102.554 105.339C100.77 104.551 97.3147 102.636 97.3147 102.636L96.3114 112.095L92.0754 115.248L87.7278 118.626L59.0786 147.339C52.9475 153.532 42.4688 151.843 38.5671 143.961L34.3311 131.8L53.0589 123.693Z" fill="#E99460"/>
<path d="M54.9571 127.972C54.9571 127.972 54.5112 128.084 53.8423 128.647C53.2849 129.21 52.6161 130.111 52.3931 131.35C52.0587 132.476 52.0587 133.602 52.1702 134.39C52.1702 135.178 52.2817 135.629 52.2817 135.629C52.2817 135.629 52.3931 135.178 52.3931 134.39C52.3931 133.602 52.5046 132.588 52.7276 131.462C53.062 130.336 53.5079 129.436 54.0653 128.873C54.6226 128.31 54.9571 128.084 54.9571 127.972Z" fill="#AB5D2D"/>
<path d="M97.3166 103.2C97.3166 103.2 97.2051 102.862 96.9821 102.411C96.6477 101.961 96.2018 101.398 95.4215 101.06C94.6411 100.722 93.7493 101.06 93.4149 101.511C92.969 101.961 92.969 102.299 93.0805 102.299C93.192 102.299 93.192 101.961 93.6379 101.736C93.9723 101.511 94.7526 101.285 95.4215 101.511C96.0903 101.736 96.6477 102.299 96.9821 102.637C97.0936 102.974 97.3166 103.2 97.3166 103.2Z" fill="#AB5D2D"/>
<path d="M92.7451 105.677C92.7451 105.677 92.9681 105.564 93.3025 105.339C93.6369 105.114 94.1943 104.889 94.7517 104.889C95.3091 104.889 95.8664 105.114 96.2009 105.339C96.5353 105.564 96.7582 105.677 96.7582 105.677C96.7582 105.677 96.6468 105.452 96.3123 105.114C95.9779 104.889 95.4205 104.551 94.7517 104.551C94.0828 104.551 93.5254 104.776 93.191 105.114C92.8566 105.452 92.7451 105.677 92.7451 105.677Z" fill="#AB5D2D"/>
<path d="M43.1373 79.5532C37.452 81.9179 31.4324 84.5077 27.5307 89.3496C23.5176 94.1915 22.0684 100.948 22.4029 107.253C22.7373 113.559 22.6258 119.527 24.5209 125.607C25.1897 127.972 26.7504 133.827 27.9766 136.417C29.4258 139.345 36.3373 142.61 39.6816 142.498C45.1439 142.385 47.8193 131.913 52.7242 129.548C54.7307 128.535 57.7406 124.369 58.6324 122.342C59.7471 119.752 56.4029 114.91 55.1767 112.32C50.9406 103.425 46.593 94.5293 42.357 85.6337" fill="#005886"/>
<path d="M53.7286 128.76C53.7286 128.76 53.7286 128.535 53.84 128.31C53.9515 127.972 54.1745 127.522 54.1745 126.959C54.1745 126.396 53.9515 125.607 53.3941 125.044C52.8368 124.369 51.8335 124.144 50.8302 124.369H50.6073V124.144C50.3843 122.342 49.7154 120.315 48.6007 118.288C47.4859 116.261 45.8138 114.347 43.5843 112.883C41.2433 111.307 38.5679 110.406 36.1154 109.843C33.663 109.28 31.4335 108.942 29.5384 108.83C27.6433 108.717 26.0826 108.717 25.0794 108.717C23.9646 108.717 23.4072 108.717 23.4072 108.717C23.4072 108.717 23.9646 108.604 25.0794 108.492C26.1941 108.379 27.6433 108.379 29.6499 108.379C31.5449 108.492 33.8859 108.717 36.3384 109.28C38.7908 109.843 41.5777 110.744 44.0302 112.433C46.2597 114.009 48.0433 116.036 49.1581 118.063C50.3843 120.202 50.9417 122.342 51.1646 124.144L50.9417 123.918C52.0564 123.806 53.2827 124.031 53.9515 124.707C54.6204 125.382 54.8433 126.283 54.7318 126.959C54.6204 127.634 54.3974 128.085 54.2859 128.31C53.84 128.648 53.7286 128.76 53.7286 128.76Z" fill="#31241C"/>
<path d="M41.4662 133.264C41.3547 133.152 43.0268 130.787 45.7023 128.197C48.3777 125.72 50.9416 124.144 50.9416 124.256C51.0531 124.369 48.7121 126.17 46.0367 128.648C43.5842 131.125 41.6891 133.377 41.4662 133.264Z" fill="#31241C"/>
<g opacity="0.3">
<path d="M50.7198 123.918C48.4903 124.819 46.1493 125.833 44.2542 127.409C42.3591 128.985 40.7984 131.012 40.3525 133.489C41.0214 132.814 41.8017 132.138 42.4706 131.575C45.2575 128.985 48.0444 126.396 51.2771 124.256" fill="black"/>
</g>
<path d="M80.2586 109.055C80.1471 109.055 80.2586 108.154 80.593 106.916C80.9274 105.564 81.7078 103.875 82.5996 101.961C84.4947 98.2452 86.6127 95.6553 86.8357 95.7679C86.9471 95.7679 86.3898 96.4436 85.7209 97.6822C85.0521 98.8082 84.0488 100.497 83.157 102.299C82.2652 104.1 81.4848 105.789 81.0389 107.028C80.593 108.267 80.3701 109.055 80.2586 109.055Z" fill="#31241C"/>
<path d="M83.6064 154.433C83.6064 154.433 83.4949 153.983 83.3834 153.195C83.2719 152.407 83.2719 151.281 83.1604 149.929C83.049 147.114 82.9375 143.286 82.9375 139.007C82.9375 134.728 82.9375 130.9 83.049 128.085C83.1604 126.621 83.1604 125.495 83.1604 124.707C83.1604 123.918 83.2719 123.468 83.2719 123.468C83.2719 123.468 83.3834 123.918 83.3834 124.707C83.3834 125.607 83.3834 126.733 83.3834 127.972C83.3834 130.9 83.3834 134.728 83.3834 138.894C83.3834 143.061 83.4949 146.889 83.4949 149.817C83.4949 151.168 83.4949 152.181 83.4949 153.082C83.7178 153.983 83.6064 154.433 83.6064 154.433Z" fill="#31241C"/>
<path d="M73.4621 106.015C73.4621 106.015 73.1277 104.663 72.7933 103.087C72.4588 101.398 72.2359 100.159 72.3474 100.159C72.4588 100.159 72.6818 101.511 73.0162 103.087C73.2392 104.663 73.4621 106.015 73.4621 106.015Z" fill="#16265B"/>
<path d="M75.2443 101.961C75.2443 101.961 74.241 102.411 73.0148 102.862C71.7886 103.312 70.6738 103.537 70.6738 103.537C70.6738 103.537 71.6771 103.2 72.9033 102.749C74.1296 102.299 75.1329 101.961 75.2443 101.961Z" fill="#16265B"/>
<path d="M71.9004 105.227C71.9004 105.227 72.2348 104.213 72.7922 102.862C73.3496 101.623 73.7955 100.61 73.7955 100.61C73.7955 100.61 73.461 101.623 72.9037 102.974C72.3463 104.326 71.9004 105.339 71.9004 105.227Z" fill="#16265B"/>
<path d="M75.1327 104.663C75.1327 104.663 74.1294 103.988 72.9032 103.2C71.677 102.299 70.7852 101.623 70.7852 101.511C70.7852 101.511 71.7884 102.186 73.0147 102.974C74.3524 103.875 75.2442 104.663 75.1327 104.663Z" fill="#16265B"/>
<path d="M80.0373 140.583C80.0373 140.583 79.7029 139.232 79.3685 137.656C79.034 135.967 78.8111 134.728 78.9226 134.728C79.034 134.728 79.257 136.079 79.5914 137.656C79.9258 139.345 80.0373 140.583 80.0373 140.583Z" fill="#16265B"/>
<path d="M81.8205 136.642C81.8205 136.642 80.8172 137.093 79.591 137.543C78.3648 137.994 77.25 138.219 77.25 138.219C77.25 138.219 78.2533 137.881 79.4795 137.431C80.8172 136.98 81.8205 136.642 81.8205 136.642Z" fill="#16265B"/>
<path d="M78.4766 139.908C78.4766 139.908 78.811 138.894 79.3684 137.543C79.9257 136.305 80.3716 135.291 80.3716 135.291C80.3716 135.291 80.0372 136.305 79.4798 137.656C79.0339 138.894 78.588 139.908 78.4766 139.908Z" fill="#16265B"/>
<path d="M81.8202 139.345C81.8202 139.345 80.8169 138.669 79.5907 137.881C78.3645 136.98 77.4727 136.305 77.4727 136.192C77.4727 136.192 78.4759 136.868 79.7022 137.656C80.9284 138.557 81.8202 139.345 81.8202 139.345Z" fill="#16265B"/>
<path d="M89.5129 126.958C89.5129 126.958 89.1785 125.607 88.844 124.031C88.5096 122.342 88.2867 121.103 88.3981 121.103C88.3981 121.103 88.7326 122.454 89.067 124.031C89.4014 125.607 89.6244 126.958 89.5129 126.958Z" fill="#16265B"/>
<path d="M91.2951 122.905C91.2951 122.905 90.2918 123.355 89.0656 123.806C87.8394 124.256 86.7246 124.481 86.7246 124.481C86.7246 124.481 87.7279 124.144 88.9541 123.693C90.2918 123.243 91.2951 122.905 91.2951 122.905Z" fill="#16265B"/>
<path d="M87.9512 126.283C87.9512 126.283 88.2856 125.269 88.843 123.918C89.4003 122.68 89.8463 121.666 89.8463 121.666C89.8463 121.666 89.5118 122.68 88.9544 124.031C88.5085 125.269 88.0626 126.283 87.9512 126.283Z" fill="#16265B"/>
<path d="M91.2948 125.72C91.2948 125.72 90.2915 125.044 89.0653 124.256C87.8391 123.355 86.9473 122.68 86.9473 122.567C86.9473 122.567 87.9505 123.243 89.1768 124.031C90.403 124.932 91.2948 125.607 91.2948 125.72Z" fill="#16265B"/>
<path d="M76.4689 92.9528C76.4689 92.9528 76.1345 91.6016 75.8001 90.0252C75.4657 88.3362 75.2427 87.0975 75.3542 87.0975C75.3542 87.0975 75.6886 88.4488 76.023 90.0252C76.246 91.6016 76.4689 92.9528 76.4689 92.9528Z" fill="#16265B"/>
<path d="M78.2512 89.0118C78.2512 89.0118 77.2479 89.4622 76.0216 89.9126C74.7954 90.363 73.6807 90.5882 73.6807 90.5882C73.6807 90.5882 74.6839 90.2504 75.9102 89.8C77.1364 89.3496 78.1397 88.8992 78.2512 89.0118Z" fill="#16265B"/>
<path d="M74.9072 92.2773C74.9072 92.2773 75.2417 91.2639 75.799 89.9127C76.3564 88.6741 76.8023 87.6606 76.8023 87.6606C76.8023 87.6606 76.4679 88.6741 75.9105 90.0253C75.3531 91.2639 74.9072 92.2773 74.9072 92.2773Z" fill="#16265B"/>
<path d="M78.1425 91.7143C78.1425 91.7143 77.1392 91.0386 75.913 90.2504C74.6867 89.3496 73.7949 88.674 73.7949 88.5614C73.7949 88.5614 74.7982 89.237 76.0244 90.0252C77.3621 90.926 78.2539 91.7143 78.1425 91.7143Z" fill="#16265B"/>
<path d="M63.7639 117.275C63.7639 117.275 63.4294 115.924 63.095 114.347C62.7606 112.658 62.5376 111.42 62.6491 111.42C62.7606 111.42 62.9835 112.771 63.318 114.347C63.5409 115.924 63.7639 117.275 63.7639 117.275Z" fill="#16265B"/>
<path d="M65.5461 113.334C65.5461 113.334 64.5428 113.784 63.3166 114.235C62.0903 114.685 60.9756 114.91 60.9756 114.91C60.9756 114.91 61.9789 114.572 63.2051 114.122C64.5428 113.559 65.5461 113.221 65.5461 113.334Z" fill="#16265B"/>
<path d="M62.2021 116.599C62.2021 116.599 62.5366 115.586 63.094 114.235C63.6513 112.996 64.0972 111.983 64.0972 111.983C64.0972 111.983 63.7628 112.996 63.2054 114.347C62.648 115.586 62.2021 116.599 62.2021 116.599Z" fill="#16265B"/>
<path d="M65.5458 116.036C65.5458 116.036 64.5425 115.361 63.3163 114.572C62.09 113.672 61.1982 112.996 61.1982 112.883C61.1982 112.883 62.2015 113.559 63.4278 114.347C64.654 115.248 65.5458 115.924 65.5458 116.036Z" fill="#16265B"/>
<path d="M65.7678 149.366C65.7678 149.366 65.4333 148.015 65.0989 146.439C64.7645 144.75 64.5415 143.511 64.653 143.511C64.653 143.511 64.9874 144.862 65.3219 146.439C65.6563 148.015 65.8793 149.366 65.7678 149.366Z" fill="#16265B"/>
<path d="M67.55 145.425C67.55 145.425 66.5467 145.876 65.3205 146.326C64.0942 146.777 62.9795 147.002 62.9795 147.002C62.9795 147.002 63.9828 146.664 65.209 146.214C66.5467 145.763 67.55 145.313 67.55 145.425Z" fill="#16265B"/>
<path d="M64.2061 148.691C64.2061 148.691 64.5405 147.677 65.0979 146.326C65.6552 145.088 66.1011 144.074 66.1011 144.074C66.1011 144.074 65.7667 145.088 65.2093 146.439C64.7634 147.677 64.3175 148.691 64.2061 148.691Z" fill="#16265B"/>
<path d="M67.5497 148.128C67.5497 148.128 66.5464 147.452 65.3202 146.664C64.094 145.763 63.2021 145.088 63.2021 144.975C63.2021 144.975 64.2054 145.651 65.4317 146.439C66.6579 147.34 67.5497 148.128 67.5497 148.128Z" fill="#16265B"/>
<path d="M76.6936 157.361C76.6936 157.361 76.3591 156.01 76.0247 154.433C75.6903 152.744 75.4673 151.506 75.5788 151.506C75.5788 151.506 75.9132 152.857 76.2477 154.433C76.5821 156.01 76.805 157.361 76.6936 157.361Z" fill="#16265B"/>
<path d="M78.4758 153.307C78.4758 153.307 77.4725 153.758 76.2463 154.208C75.02 154.658 73.9053 154.884 73.9053 154.884C73.9053 154.884 74.9086 154.546 76.1348 154.095C77.4725 153.645 78.4758 153.307 78.4758 153.307Z" fill="#16265B"/>
<path d="M75.1318 156.573C75.1318 156.573 75.4663 155.559 76.0236 154.208C76.581 152.97 77.0269 151.956 77.0269 151.956C77.0269 151.956 76.6925 152.97 76.1351 154.321C75.6892 155.672 75.2433 156.573 75.1318 156.573Z" fill="#16265B"/>
<path d="M78.4755 156.01C78.4755 156.01 77.4722 155.334 76.246 154.546C75.0197 153.645 74.1279 152.97 74.1279 152.857C74.1279 152.857 75.1312 153.533 76.3574 154.321C77.5837 155.222 78.4755 156.01 78.4755 156.01Z" fill="#16265B"/>
<path d="M55.7385 161.528C55.7385 161.528 55.4041 160.176 55.0696 158.6C54.7352 156.911 54.5122 155.672 54.6237 155.672C54.6237 155.672 54.9581 157.023 55.2926 158.6C55.627 160.176 55.85 161.415 55.7385 161.528Z" fill="#16265B"/>
<path d="M57.5207 157.474C57.5207 157.474 56.5174 157.924 55.2912 158.375C54.0649 158.825 52.9502 159.05 52.9502 159.05C52.9502 159.05 53.9535 158.712 55.1797 158.262C56.5174 157.812 57.5207 157.474 57.5207 157.474Z" fill="#16265B"/>
<path d="M54.2861 160.739C54.2861 160.739 54.6206 159.726 55.1779 158.374C55.7353 157.136 56.1812 156.122 56.1812 156.122C56.1812 156.122 55.8468 157.136 55.2894 158.487C54.732 159.838 54.2861 160.739 54.2861 160.739Z" fill="#16265B"/>
<path d="M57.5214 160.176C57.5214 160.176 56.5181 159.501 55.2919 158.712C54.0656 157.812 53.1738 157.136 53.1738 157.023C53.1738 157.023 54.1771 157.699 55.4033 158.487C56.6296 159.388 57.6329 160.176 57.5214 160.176Z" fill="#16265B"/>
<path d="M37.8986 154.996C37.8986 154.996 37.5642 153.645 37.2298 152.069C36.8954 150.38 36.6724 149.141 36.7839 149.141C36.7839 149.141 37.1183 150.492 37.4527 152.069C37.6757 153.645 37.8986 154.996 37.8986 154.996Z" fill="#16265B"/>
<path d="M39.6808 150.943C39.6808 150.943 38.6776 151.393 37.4513 151.844C36.2251 152.294 35.1104 152.519 35.1104 152.519C35.1104 152.519 36.1136 152.181 37.3399 151.731C38.6776 151.281 39.6808 150.943 39.6808 150.943Z" fill="#16265B"/>
<path d="M36.3369 154.208C36.3369 154.208 36.6713 153.195 37.2287 151.844C37.7861 150.605 38.232 149.592 38.232 149.592C38.232 149.592 37.8976 150.605 37.3402 151.956C36.8943 153.307 36.3369 154.321 36.3369 154.208Z" fill="#16265B"/>
<path d="M39.6806 153.645C39.6806 153.645 38.6773 152.97 37.451 152.181C36.2248 151.281 35.333 150.605 35.333 150.492C35.333 150.492 36.3363 151.168 37.5625 151.956C38.7887 152.857 39.6806 153.645 39.6806 153.645Z" fill="#16265B"/>
<path d="M62.425 95.3177C62.425 95.3177 62.0906 93.9665 61.7561 92.39C61.4217 90.701 61.1988 89.4624 61.3102 89.4624C61.3102 89.4624 61.6447 90.8136 61.9791 92.39C62.3135 93.9665 62.5365 95.3177 62.425 95.3177Z" fill="#16265B"/>
<path d="M64.3205 91.3765C64.3205 91.3765 63.3172 91.8269 62.091 92.2773C60.8648 92.7277 59.75 92.9529 59.75 92.9529C59.75 92.9529 60.7533 92.6151 61.9795 92.1647C63.2057 91.7143 64.209 91.2639 64.3205 91.3765Z" fill="#16265B"/>
<path d="M60.9766 94.6419C60.9766 94.6419 61.311 93.6285 61.8684 92.2773C62.4257 91.0387 62.8716 90.0253 62.8716 90.0253C62.8716 90.0253 62.5372 91.0387 61.9798 92.3899C61.4225 93.6285 60.9766 94.6419 60.9766 94.6419Z" fill="#16265B"/>
<path d="M64.2089 94.079C64.2089 94.079 63.2056 93.4034 61.9794 92.6152C60.7531 91.7144 59.8613 91.0387 59.8613 90.9261C59.8613 90.9261 60.8646 91.6018 62.0908 92.39C63.3171 93.2908 64.3204 94.079 64.2089 94.079Z" fill="#16265B"/>
<path d="M30.8762 104.438C30.8762 104.438 30.5417 103.087 30.2073 101.511C29.8729 99.8216 29.6499 98.583 29.7614 98.583C29.7614 98.583 30.0958 99.9342 30.4303 101.511C30.7647 103.087 30.9877 104.438 30.8762 104.438Z" fill="#16265B"/>
<path d="M32.6584 100.497C32.6584 100.497 31.6551 100.948 30.4289 101.398C29.2026 101.848 28.0879 102.074 28.0879 102.074C28.0879 102.074 29.0912 101.736 30.3174 101.285C31.6551 100.722 32.6584 100.385 32.6584 100.497Z" fill="#16265B"/>
<path d="M29.3145 103.763C29.3145 103.763 29.6489 102.749 30.2063 101.398C30.7636 100.159 31.2095 99.146 31.2095 99.146C31.2095 99.146 30.8751 100.159 30.3177 101.511C29.8718 102.749 29.4259 103.763 29.3145 103.763Z" fill="#16265B"/>
<path d="M32.6581 103.2C32.6581 103.2 31.6548 102.524 30.4286 101.736C29.2024 100.835 28.3105 100.159 28.3105 100.047C28.3105 100.047 29.3138 100.722 30.5401 101.511C31.7663 102.411 32.6581 103.2 32.6581 103.2Z" fill="#16265B"/>
<path d="M50.2727 112.32C50.2727 112.32 49.9382 110.969 49.6038 109.393C49.2694 107.704 49.0464 106.465 49.1579 106.465C49.1579 106.465 49.4923 107.816 49.8268 109.393C50.1612 110.969 50.3841 112.208 50.2727 112.32Z" fill="#16265B"/>
<path d="M52.0549 108.267C52.0549 108.267 51.0516 108.717 49.8254 109.167C48.5991 109.618 47.4844 109.843 47.4844 109.843C47.4844 109.843 48.4877 109.505 49.7139 109.055C51.0516 108.604 52.0549 108.267 52.0549 108.267Z" fill="#16265B"/>
<path d="M48.8232 111.532C48.8232 111.532 49.1577 110.519 49.715 109.168C50.2724 107.929 50.7183 106.916 50.7183 106.916C50.7183 106.916 50.3839 107.929 49.8265 109.28C49.2691 110.519 48.8232 111.532 48.8232 111.532Z" fill="#16265B"/>
<path d="M52.0546 110.969C52.0546 110.969 51.0513 110.294 49.8251 109.505C48.5988 108.605 47.707 107.929 47.707 107.816C47.707 107.816 48.7103 108.492 49.9365 109.28C51.1628 110.181 52.166 110.969 52.0546 110.969Z" fill="#16265B"/>
<path d="M31.5461 121.441C31.5461 121.441 31.2117 120.09 30.8772 118.513C30.5428 116.824 30.3199 115.586 30.4313 115.586C30.4313 115.586 30.7658 116.937 31.1002 118.513C31.4346 120.09 31.6576 121.441 31.5461 121.441Z" fill="#16265B"/>
<path d="M33.3283 117.387C33.3283 117.387 32.325 117.838 31.0988 118.288C29.8726 118.739 28.7578 118.964 28.7578 118.964C28.7578 118.964 29.7611 118.626 30.9873 118.176C32.325 117.725 33.3283 117.387 33.3283 117.387Z" fill="#16265B"/>
<path d="M29.9844 120.653C29.9844 120.653 30.3188 119.639 30.8762 118.288C31.4336 117.05 31.8795 116.036 31.8795 116.036C31.8795 116.036 31.545 117.05 30.9877 118.401C30.5418 119.752 30.0959 120.765 29.9844 120.653Z" fill="#16265B"/>
<path d="M33.328 120.09C33.328 120.09 32.3247 119.414 31.0985 118.626C29.8723 117.725 28.9805 117.05 28.9805 116.937C28.9805 116.937 29.9837 117.613 31.21 118.401C32.4362 119.302 33.328 120.09 33.328 120.09Z" fill="#16265B"/>
<path d="M43.2502 125.27C43.2502 125.27 42.9158 123.918 42.5813 122.342C42.2469 120.653 42.024 119.414 42.1354 119.414C42.1354 119.414 42.4699 120.766 42.8043 122.342C43.1387 123.918 43.3617 125.27 43.2502 125.27Z" fill="#16265B"/>
<path d="M45.0324 121.329C45.0324 121.329 44.0291 121.779 42.8029 122.229C41.5767 122.68 40.4619 122.905 40.4619 122.905C40.4619 122.905 41.4652 122.567 42.6914 122.117C44.0291 121.554 45.0324 121.216 45.0324 121.329Z" fill="#16265B"/>
<path d="M41.6885 124.594C41.6885 124.594 42.0229 123.581 42.5803 122.229C43.1377 120.991 43.5836 119.977 43.5836 119.977C43.5836 119.977 43.2491 120.991 42.6918 122.342C42.2459 123.581 41.8 124.594 41.6885 124.594Z" fill="#16265B"/>
<path d="M45.0321 124.031C45.0321 124.031 44.0288 123.355 42.8026 122.567C41.5764 121.666 40.6846 120.991 40.6846 120.878C40.6846 120.878 41.6879 121.554 42.9141 122.342C44.1403 123.243 45.0321 123.918 45.0321 124.031Z" fill="#16265B"/>
<path d="M35.7814 136.417C35.7814 136.417 35.447 135.066 35.1126 133.49C34.7782 131.801 34.5552 130.562 34.6667 130.562C34.6667 130.562 35.0011 131.913 35.3355 133.49C35.67 135.066 35.7814 136.417 35.7814 136.417Z" fill="#16265B"/>
<path d="M37.5666 132.476C37.5666 132.476 36.5633 132.927 35.3371 133.377C34.1108 133.827 32.9961 134.053 32.9961 134.053C32.9961 134.053 33.9994 133.715 35.2256 133.264C36.5633 132.701 37.5666 132.364 37.5666 132.476Z" fill="#16265B"/>
<path d="M34.2227 135.742C34.2227 135.742 34.5571 134.728 35.1145 133.377C35.6718 132.138 36.1177 131.125 36.1177 131.125C36.1177 131.125 35.7833 132.138 35.2259 133.49C34.78 134.728 34.3341 135.742 34.2227 135.742Z" fill="#16265B"/>
<path d="M37.5634 135.179C37.5634 135.179 36.5601 134.503 35.3339 133.715C34.1076 132.814 33.2158 132.138 33.2158 132.026C33.2158 132.026 34.2191 132.701 35.4453 133.49C36.6716 134.39 37.5634 135.066 37.5634 135.179Z" fill="#16265B"/>
<path d="M47.5557 51.1642C45.5742 54.6669 45.6981 59.1703 47.8034 62.673C49.1657 64.9247 51.2711 66.6761 52.3857 69.0529C53.6241 72.0552 53.1287 75.4328 52.7572 78.5602C52.3857 81.8127 52.2618 85.3154 54.3672 87.8173C55.2341 88.8181 56.3487 89.5686 57.2156 90.6945C58.0825 91.6953 58.5779 93.1964 57.9587 94.4474C57.4633 95.323 56.5964 95.6983 55.7295 96.0736C49.2896 98.5755 41.3635 96.4489 36.9051 91.1949C36.7812 92.3207 36.5335 93.4466 36.4097 94.5725C32.199 90.8196 29.2267 85.6907 28.236 80.0613C27.2452 74.432 28.236 68.5525 30.8367 63.6738" fill="#31241C"/>
<path d="M114.173 44.3752L93.1579 36.3573C91.7125 35.8033 90.961 34.1706 91.5102 32.7128L102.524 3.35282C103.073 1.89502 104.692 1.13697 106.137 1.69093L119.463 6.76406L125.764 21.4295L117.786 42.7133C117.237 44.2002 115.618 44.9291 114.173 44.3752Z" fill="#F1F1F1"/>
<path d="M119.465 6.79321L116.372 15.0443C115.852 16.4147 116.546 17.9308 117.904 18.4556L125.767 21.4586L119.465 6.79321Z" fill="#DBD3D3"/>
<path d="M116.195 15.8317C116.195 15.8317 115.328 17.7851 117.352 19.3304C117.438 19.3887 117.496 19.447 117.583 19.4762C118.537 20.0593 124.867 23.8495 124.925 23.7038C124.983 23.5288 125.764 21.4879 125.764 21.4879L117.901 18.4557C117.901 18.4557 115.935 17.6393 116.195 15.8317Z" fill="#BEBDBD"/>
<path d="M114.719 14.0529C114.69 14.1695 112.465 13.4115 109.776 12.391C107.088 11.3706 104.949 10.4376 104.978 10.3501C105.007 10.2335 107.233 10.9915 109.921 12.012C112.638 13.0324 114.777 13.9363 114.719 14.0529Z" fill="#BEBDBD"/>
<path d="M119.26 21.1089C119.232 21.2255 115.618 19.9426 111.195 18.2516C106.773 16.5606 103.217 15.1028 103.275 15.0153C103.304 14.8987 106.917 16.1815 111.34 17.8726C115.763 19.5636 119.318 20.9923 119.26 21.1089Z" fill="#BEBDBD"/>
<path d="M119.232 25.5697C119.203 25.6863 115.243 24.2577 110.444 22.4209C105.617 20.5841 101.744 19.0096 101.801 18.893C101.83 18.7764 105.791 20.205 110.589 22.0419C115.416 23.8787 119.29 25.4531 119.232 25.5697Z" fill="#BEBDBD"/>
<path d="M117.872 29.2432C117.843 29.3598 113.883 27.9312 109.084 26.0943C104.257 24.2575 100.383 22.6831 100.441 22.5665C100.47 22.4499 104.43 23.8785 109.229 25.7153C114.027 27.5521 117.901 29.1266 117.872 29.2432Z" fill="#BEBDBD"/>
<path d="M116.487 32.9169C116.458 33.0335 112.498 31.6049 107.699 29.7681C102.872 27.9312 98.9985 26.3568 99.0563 26.2402C99.0852 26.1236 103.045 27.5522 107.844 29.389C112.642 31.2258 116.516 32.8003 116.487 32.9169Z" fill="#BEBDBD"/>
<path d="M115.096 36.5906C115.067 36.7072 111.107 35.2786 106.309 33.4418C101.481 31.6049 97.6079 30.0305 97.6657 29.9139C97.6946 29.7973 101.655 31.2259 106.453 33.0627C111.281 34.9287 115.154 36.5031 115.096 36.5906Z" fill="#BEBDBD"/>
<path d="M39.5562 158.616C43.8388 153.114 42.9275 145.679 40.7819 139.41C40.425 138.366 40.2002 137.213 39.4146 136.443C38.6291 135.672 37.261 135.406 36.4497 136.15C35.7793 136.772 35.712 137.788 35.502 138.679C35.2215 139.871 34.6112 140.962 33.7415 141.826C33.178 142.397 32.4014 142.864 31.6272 142.704C30.5624 142.488 30.0718 141.262 29.7558 140.207C29.1692 138.234 28.5859 136.273 28.006 134.324C27.689 133.261 27.372 132.197 26.7373 131.301C26.1026 130.404 25.1002 129.703 24.015 129.737C22.9298 129.77 21.8655 130.734 21.9679 131.833C22.0105 132.289 22.2324 132.705 22.3368 133.15C22.4412 133.595 22.3843 134.144 22.0053 134.394C21.6263 134.644 21.1101 134.483 20.7032 134.276C19.2925 133.554 18.1376 132.416 17.0345 131.272C15.9314 130.127 14.8379 128.945 13.5019 128.096C12.1659 127.247 10.5146 126.746 8.97501 127.135C7.43543 127.524 6.11765 128.955 6.18902 130.554C6.26038 132.153 7.58072 133.391 8.88816 134.296C10.8318 135.637 12.9615 136.688 15.211 137.416C15.6127 137.547 16.0508 137.69 16.2954 138.038C16.7385 138.668 16.2804 139.563 15.6611 140.021C14.9582 140.528 14.0812 140.715 13.2905 141.066C12.4998 141.418 11.7207 142.062 11.6451 142.935C11.5405 144.144 12.7845 144.991 13.893 145.45C16.1156 146.372 18.483 146.904 20.8922 147.023C21.7531 147.062 22.6436 147.055 23.4323 147.402C24.2209 147.749 24.8931 148.577 24.738 149.436C24.5829 150.296 23.6923 150.844 22.8347 150.948C21.9772 151.053 21.1231 150.852 20.2578 150.79C18.6431 150.699 16.8068 151.384 16.2608 152.924C15.9002 153.936 16.196 155.098 16.8017 155.978C17.4074 156.858 18.2896 157.51 19.19 158.077C22.3352 160.071 25.9686 161.326 29.679 161.437C33.3894 161.548 36.5907 160.882 39.5596 158.623" fill="#57B993"/>
<path d="M40.3483 161.956C39.354 159.519 38.4573 158.112 36.5517 155.207C34.4545 152.082 32.1826 149.081 29.7472 146.217C29.1034 145.455 28.4692 144.701 27.8445 143.954C27.2173 143.214 26.5973 142.477 25.9395 141.801C24.685 140.496 23.3612 139.26 21.9741 138.1C20.6558 136.985 19.3666 135.978 18.1475 135.043C16.9285 134.109 15.7814 133.264 14.7035 132.536C13.0046 131.379 11.218 130.359 9.36043 129.487C8.70557 129.176 8.18836 128.955 7.84318 128.806L7.4425 128.642C7.39753 128.621 7.35073 128.605 7.30273 128.593C7.3441 128.62 7.38791 128.643 7.43357 128.661L7.82042 128.847C8.16663 129.004 8.67866 129.24 9.32848 129.56C11.1675 130.457 12.9377 131.491 14.6244 132.655C15.6961 133.39 16.8381 134.243 18.0462 135.179C19.2543 136.116 20.5384 137.132 21.8494 138.25C23.2344 139.405 24.5551 140.635 25.8054 141.937C26.4522 142.616 27.0638 143.348 27.7011 144.07C28.3385 144.793 28.96 145.572 29.6013 146.335C32.0338 149.19 34.3058 152.182 36.4065 155.294C38.3136 158.184 39.2168 159.572 40.2249 161.993" fill="#254D3D"/>
<path d="M26.099 141.756C26.0992 141.596 26.0831 141.435 26.051 141.276C26.008 140.969 25.935 140.526 25.8358 139.98C25.6387 138.889 25.3173 137.389 24.9682 135.734C24.619 134.078 24.3091 132.579 24.1292 131.489C24.0357 130.943 23.9662 130.501 23.9209 130.195C23.9078 130.035 23.8775 129.876 23.8305 129.721C23.8191 129.88 23.8248 130.04 23.8476 130.2C23.8665 130.497 23.9212 130.954 23.9986 131.502C24.1453 132.599 24.4244 134.11 24.7839 135.763L25.7042 140.003C25.8133 140.511 25.9057 140.941 25.9777 141.287C26.0021 141.446 26.0428 141.603 26.099 141.756Z" fill="#254D3D"/>
<path d="M11.624 143.395C11.8152 143.376 12.0045 143.342 12.1898 143.291C12.5522 143.213 13.0734 143.099 13.7229 142.978C15.0171 142.725 16.8197 142.443 18.8214 142.22C20.8232 141.996 22.6512 141.874 23.965 141.828C24.6264 141.797 25.1718 141.782 25.5303 141.78C25.7224 141.787 25.9146 141.776 26.1046 141.748C25.9155 141.717 25.7242 141.703 25.5329 141.707C25.1636 141.692 24.6263 141.679 23.964 141.687C22.6348 141.694 20.8084 141.8 18.7992 142.021C17.0827 142.199 15.3772 142.469 13.6897 142.828C13.0424 142.967 12.5232 143.105 12.1678 143.205C11.9812 143.251 11.7991 143.315 11.624 143.395Z" fill="#254D3D"/>
<path d="M36.321 154.887C36.321 154.887 36.3405 154.819 36.3611 154.691L36.4398 154.13C36.5098 153.64 36.5779 152.935 36.6675 152.058C36.8322 150.306 36.9868 147.879 37.1185 145.199C37.2502 142.518 37.383 140.09 37.5016 138.341L37.6591 136.266L37.6954 135.704C37.7033 135.638 37.7034 135.572 37.6956 135.506C37.6956 135.506 37.675 135.571 37.6543 135.699L37.5759 136.248C37.5059 136.738 37.4353 137.444 37.3493 138.322C37.1835 140.072 37.03 142.501 36.8984 145.182C36.7667 147.862 36.6351 150.287 36.5141 152.037C36.4467 152.891 36.3945 153.591 36.3541 154.113C36.3401 154.339 36.3256 154.525 36.3178 154.675C36.3091 154.745 36.3102 154.816 36.321 154.887Z" fill="#254D3D"/>
<path d="M16.9287 154.746C16.9938 154.763 17.0613 154.769 17.1285 154.764L17.693 154.776L19.7732 154.793C21.5288 154.806 23.9532 154.856 26.6321 154.913C29.3109 154.969 31.753 154.993 33.4974 154.976C34.3873 154.961 35.0852 154.95 35.5708 154.934L36.1367 154.897C36.2026 154.898 36.2685 154.89 36.3328 154.875C36.2683 154.86 36.2019 154.853 36.1354 154.856L35.5696 154.848L33.4908 154.827C31.7351 154.814 29.3107 154.764 26.6319 154.707C23.953 154.651 21.5229 154.633 19.7617 154.646C18.8718 154.662 18.1739 154.672 17.6883 154.689L17.1239 154.716C17.0579 154.717 16.9923 154.728 16.9287 154.746Z" fill="#254D3D"/>
<g clip-path="url(#clip1_1_8982)">
<path d="M-0.000331879 18.5005C-0.000331879 22.5548 3.24682 25.8351 7.26016 25.8351H33.9124C37.9257 25.8351 41.1729 22.5548 41.1729 18.5005V8.84388C41.1729 4.78958 37.9257 1.50928 33.9124 1.50928H7.26016C3.24682 1.50928 -0.000331879 4.78958 -0.000331879 8.84388V18.5005Z" fill="#FFEB9E"/>
<path d="M32.9625 30.0552C34.203 31.2531 35.2246 31.2531 35.2246 30.0552C35.2246 28.8574 35.2246 26.9039 35.2246 25.7245C35.2246 24.5266 34.203 23.5499 32.9625 23.5499C31.7221 23.5499 29.6789 23.5499 28.4384 23.5499C27.1979 23.5499 27.1979 24.5266 28.4384 25.7245C29.6607 26.9039 31.7038 28.8574 32.9625 30.0552Z" fill="#FFEB9E"/>
<path d="M17.7498 8.55273H36.3389V9.76903H17.7498V8.55273Z" fill="#BC8B35"/>
<path d="M20.2855 12.0741H36.3389V13.2904H20.2855V12.0741Z" fill="#BC8B35"/>
<path d="M25.6853 15.8473H36.3389V17.0636H25.6853V15.8473Z" fill="#BC8B35"/>
<path d="M13.4805 21.1727C12.9332 19.7906 11.0177 18.7954 10.0326 18.7954H6.73077C5.63622 18.906 3.83022 19.7721 3.28295 21.1727C4.57816 22.4627 6.38416 23.2736 8.39083 23.2736C10.3793 23.2736 12.2035 22.4811 13.4805 21.1727Z" fill="#00ADEF"/>
<path d="M7.04042 15.9574C7.04042 15.9574 6.7303 18.5927 6.51139 20.067C6.34721 21.1543 10.2146 21.4491 10.3241 20.2881C10.4335 18.906 10.543 16.5471 10.543 16.5471" fill="#C97440"/>
<path d="M6.87624 17.1737L7.04042 15.9574L10.543 16.5471C10.543 16.5471 10.5065 17.2658 10.4518 18.1688C10.2146 18.2426 9.94097 18.2978 9.68557 18.3163C8.57278 18.4084 7.55121 17.9477 6.87624 17.1737Z" fill="#AB5D2D"/>
<path d="M12.7874 13.8749C12.9334 15.7546 11.5287 17.3948 9.66798 17.5238C7.80725 17.6712 6.18367 16.2522 6.05597 14.3725L5.78234 10.7789C5.6364 8.89918 7.04107 7.25903 8.9018 7.13003C10.7625 6.9826 12.3861 8.40161 12.5138 10.2813L12.7874 13.8749Z" fill="#C97440"/>
<path d="M8.15345 10.8341C8.33588 10.484 8.73721 10.226 9.13854 10.2813C9.37569 10.2997 9.37569 10.6683 9.13854 10.6499C8.84666 10.613 8.59127 10.7789 8.46357 11.0184C8.37236 11.2211 8.044 11.0369 8.15345 10.8341Z" fill="#31241C"/>
<path d="M11.8196 10.7421C11.6554 10.5762 11.3636 10.4656 11.1446 10.5209C10.9257 10.5762 10.8163 10.2261 11.0534 10.1708C11.4 10.0786 11.8379 10.2261 12.075 10.4841C12.2392 10.6499 11.9838 10.9079 11.8196 10.7421Z" fill="#31241C"/>
<path d="M10.324 13.5801C10.3605 13.5801 10.397 13.5617 10.4335 13.5248L11.0172 12.8614C11.0537 12.8245 11.0537 12.7877 11.0537 12.7324C11.0355 12.6955 11.0172 12.6587 10.9807 12.6403L10.2875 12.3454C10.2146 12.3085 10.1416 12.3454 10.1051 12.4191C10.0686 12.4928 10.1051 12.5665 10.1781 12.6034L10.7071 12.8245L10.251 13.3405C10.1963 13.3958 10.2146 13.488 10.2693 13.5433C10.251 13.5617 10.2875 13.5801 10.324 13.5801Z" fill="#31241C"/>
<path d="M10.3611 15.4597C10.7442 15.4597 10.9813 15.0543 11.1455 14.225C11.1455 14.1881 11.1455 14.1328 11.109 14.096C11.0725 14.0591 11.0361 14.0407 10.9996 14.0591C10.7624 14.096 10.4705 14.1328 10.051 14.1328C9.83205 14.1328 9.5949 14.1328 9.32126 14.1144C9.26654 14.1144 9.23005 14.1328 9.19357 14.1881C9.17533 14.225 9.17533 14.2803 9.19357 14.3355C9.63139 15.0911 10.0327 15.4597 10.3611 15.4597ZM10.8354 14.3724C10.7259 14.8884 10.5618 15.1833 10.3611 15.1833C10.2334 15.1833 9.97799 15.0727 9.55842 14.4093C10.051 14.4277 10.4341 14.4277 10.8354 14.3724Z" fill="#31241C"/>
<path d="M9.4483 12.419C9.39357 12.6402 9.17466 12.7692 8.95575 12.7139C8.73684 12.6586 8.60914 12.4375 8.66387 12.2163C8.7186 11.9952 8.93751 11.8662 9.15642 11.9215C9.37533 11.9583 9.50302 12.1979 9.4483 12.419Z" fill="#1A191F"/>
<path d="M11.9122 12.2717C11.8575 12.4928 11.6386 12.6218 11.4197 12.5666C11.2008 12.5113 11.0731 12.2901 11.1278 12.069C11.1825 11.8478 11.4014 11.7188 11.6204 11.7741C11.821 11.811 11.967 12.0506 11.9122 12.2717Z" fill="#1A191F"/>
<path d="M6.69469 13.4879C6.85887 14.1513 6.45754 14.8148 5.80081 14.9806C5.14408 15.1465 4.48735 14.7411 4.32317 14.0776L4.23196 13.6906C4.06777 13.0272 4.46911 12.3638 5.12583 12.1979C5.78256 12.032 6.43929 12.4375 6.60347 13.1009L6.69469 13.4879Z" fill="#C97440"/>
<path d="M4.85143 12.3085C4.55955 11.4792 3.15488 8.10676 5.25276 7.99619C5.38046 6.66933 7.2047 5.96904 9.48501 5.52675C11.7653 5.08446 13.1882 6.15333 13.0058 7.22219C12.8416 8.29105 11.4369 8.69648 10.3242 8.36476C10.014 9.52577 8.48167 9.13877 8.15331 8.89919C7.89791 10.0233 6.63918 10.2998 6.76688 11.0922C6.91282 11.8846 6.96755 12.6771 7.00403 12.8429C7.04052 13.0088 6.36555 13.3221 6.21961 12.9904C6.07367 12.6955 5.50815 12.1242 4.85143 12.3085Z" fill="#31241C"/>
<path d="M7.35053 25.3007C4.66889 25.1901 1.80482 23.4763 1.22107 20.6751C1.20282 20.5646 1.367 20.5093 1.40349 20.6198C1.95076 23.3289 4.74186 25.0059 7.35053 25.1164C7.45998 25.1164 7.45998 25.3007 7.35053 25.3007Z" fill="#1F0E03"/>
<path d="M9.55852 25.3007C9.06598 25.3192 8.57343 25.3192 8.09913 25.3376C7.98967 25.3376 7.98967 25.1533 8.09913 25.1533C8.59168 25.1349 9.08422 25.1349 9.55852 25.1165C9.68622 25.1165 9.68622 25.3007 9.55852 25.3007Z" fill="#1F0E03"/>
<path d="M33.0004 29.3734C32.0883 28.5442 31.1579 27.7149 30.3005 26.8119C29.8992 26.4064 29.5526 25.8536 29.06 25.5403C28.7682 25.3376 28.4216 25.3191 28.0932 25.3007C27.4365 25.2639 26.7797 25.2823 26.123 25.2639C24.9372 25.2454 23.7332 25.1901 22.5475 25.1901C21.2705 25.1901 19.9935 25.2454 18.7166 25.3007C16.2356 25.4113 13.7364 25.5403 11.2554 25.2823C11.146 25.2639 11.146 25.0796 11.2554 25.098C13.7911 25.356 16.3451 25.227 18.899 25.1164C20.2307 25.0611 21.5806 25.0059 22.9123 25.0059C24.1163 25.0059 25.3021 25.0796 26.4879 25.098C27.3088 25.098 28.4398 24.9321 29.1695 25.3929C29.6256 25.6877 29.9722 26.1853 30.3188 26.5723C31.2126 27.5122 32.1795 28.3783 33.1463 29.2629C33.2193 29.3366 33.0916 29.4656 33.0004 29.3734Z" fill="#1F0E03"/>
</g>
</g>
<defs>
<clipPath id="clip0_1_8982">
<rect width="134" height="163" fill="white"/>
</clipPath>
<clipPath id="clip1_1_8982">
<rect width="41.1732" height="29.4306" fill="white" transform="matrix(-1 0 0 1 41.1729 1.50928)"/>
</clipPath>
</defs>
</svg>
