<svg width="40" height="40" viewBox="0 0 40 40" fill="none" xmlns="http://www.w3.org/2000/svg">
<path d="M20.981 0C18.4188 0 16.2578 2.18038 16.2578 4.76561C16.2578 7.35083 18.4188 9.53122 20.981 9.53122C23.5432 9.53122 25.6267 7.35083 25.6267 4.76561C25.6267 2.18038 23.5432 0 20.981 0Z" fill="#2F3245"/>
<path d="M26.1377 9.53101C24.8613 10.959 23.0331 11.8747 20.9816 11.8747C18.93 11.8747 17.0244 10.959 15.748 9.53101C14.6336 10.7778 13.9355 12.4112 13.9355 14.2185V15.3904C13.9355 16.0381 14.455 16.5622 15.097 16.5622H26.7887C27.4307 16.5622 27.9502 16.0381 27.9502 15.3904V14.2185C27.9502 12.4112 27.2521 10.7778 26.1377 9.53101Z" fill="#2F3245"/>
<path d="M11.2211 35.969L5.30238 23.996C4.73087 22.8398 3.33994 22.3683 2.19268 22.9419L0.645725 23.7151C0.0697314 24.0033 -0.164646 24.7096 0.122848 25.2897L7.09145 39.3522C7.37801 39.9321 8.07511 40.1629 8.64645 39.8786L10.1735 39.1152C11.3253 38.5396 11.7947 37.1295 11.2211 35.969Z" fill="#FFCB05"/>
<path d="M38.6918 19.3515C37.7393 18.6484 36.4153 18.789 35.6256 19.6562L29.2764 27.5312C28.8351 27.9999 27.9988 28.2812 27.5575 28.2812H22.1451C21.4946 28.2812 20.9837 27.7656 20.9837 27.1093C20.9837 26.453 21.4946 25.9374 22.1451 25.9374C23.7007 25.9374 25.4228 25.9374 26.7909 25.9374C28.0684 25.9374 29.1137 24.8828 29.1137 23.5937C29.1137 22.3046 28.0684 21.25 26.7909 21.25C21.3363 21.25 26.5392 21.25 20.7049 21.25C20.1261 21.25 19.8374 20.8796 19.3809 20.4764C17.5839 18.8448 14.894 18.0587 12.1708 18.6956C10.6588 19.0492 9.63912 19.6655 8.60498 20.4919L8.57052 20.4637L6.89062 21.9554L13.4925 35.3124H15.4474H26.7909C28.9744 35.3124 31.065 34.2577 32.3658 32.4999L39.1795 22.6562C39.946 21.6249 39.737 20.125 38.6918 19.3515Z" fill="#FFCB05"/>
</svg>
