<svg width="96" height="55" viewBox="0 0 96 55" fill="none" xmlns="http://www.w3.org/2000/svg">
<path d="M23.645 4.32148C20.5021 1.17857 7.14502 0.392979 2.82354 0C2.43074 0 2.03776 6.14672e-07 1.64497 0.392796C1.25217 0.785775 0.859375 1.57155 0.859375 1.96434V37.3214C0.859375 38.5 1.64515 39.2858 2.82372 39.2858H14.6094C15.3952 39.2858 16.1808 38.893 16.5738 38.1072C16.5738 36.9286 23.6452 16.1072 24.431 5.89303C24.4308 5.50006 24.4308 4.71446 23.645 4.32148Z" fill="#00ADEF"/>
<path d="M65.6818 13.7502C61.7533 12.5716 58.2175 11.0003 55.0746 9.82168C48.0032 6.67877 44.8603 8.25032 38.5747 14.536C35.8247 17.2859 33.8604 21.2146 34.2532 22.786C34.2532 23.1787 34.2532 23.1788 35.0389 23.5717C37.0033 24.3575 39.7532 24.7503 42.5032 20.4288C42.896 20.036 43.2889 19.643 44.0745 19.643C45.2531 19.643 45.6459 19.2502 46.8245 18.8573C47.6102 18.4645 48.3958 18.0715 49.5744 17.6787C49.9672 17.6787 49.9672 17.6787 50.3602 17.6787C50.753 17.6787 51.5387 18.0715 51.9315 18.0715C53.8961 20.036 57.4318 22.786 60.9675 25.9289C66.4675 30.2504 71.9674 34.9646 74.7175 38.5003H75.1103C72.3604 30.6431 67.6461 17.2859 65.6818 13.7502Z" fill="#00ADEF"/>
<path d="M93.1783 3.92896C77.8569 3.92896 69.2141 7.85746 68.8212 7.85746C68.4284 8.25025 68.0354 8.64323 67.6426 9.03603C67.6426 9.42882 67.6426 10.2146 68.0354 10.6074C70.3925 14.5359 78.2497 36.1431 79.4283 41.643C79.8211 42.4288 80.6069 43.2144 81.3926 43.2144H93.1783C94.3569 43.2144 95.1427 42.4286 95.1427 41.25V5.89293C95.1427 4.71473 94.3569 3.92896 93.1783 3.92896Z" fill="#00ADEF"/>
<path d="M71.9635 42.4287C70.3921 38.893 63.7135 33.7859 57.8206 29.0716C54.6779 26.3215 51.535 23.9644 49.1779 22C48.7851 22.3928 47.9993 22.3928 47.9993 22.7858C46.8207 23.1786 46.4279 23.5716 44.8564 23.5716C41.7136 27.5001 37.785 29.0715 33.4637 27.5001C31.4993 27.1073 30.3207 25.5357 29.9279 23.9644C29.1422 20.0359 32.6779 14.5358 35.428 11.7859H27.5708C25.9994 19.6431 23.2493 29.8572 21.2852 35.3573C22.8565 36.9286 24.4281 38.893 25.6066 39.6788C33.0709 45.9644 41.7138 52.2502 43.2852 53.4288C44.4638 54.2146 46.8209 55.0002 47.9995 55.0002C48.3923 55.0002 48.7852 55.0002 49.178 55.0002L42.8922 48.7144C42.1064 47.9286 42.1064 46.75 42.8922 45.9644C43.678 45.1788 44.8566 45.1786 45.6421 45.9644L53.4993 53.8216C54.2851 54.6074 55.0707 54.2144 55.8565 54.2144C57.035 53.8216 57.4278 53.0358 57.8208 51.8573L48.7851 42.8215C47.9993 42.0357 47.9993 40.8572 48.7851 40.0716C49.5708 39.286 50.7494 39.2858 51.535 40.0716L61.3563 49.8929C61.7491 50.2857 63.3207 50.2857 64.4993 49.8929C64.8921 49.5001 65.6778 49.1071 66.0706 48.3216L55.0707 37.3214C54.2849 36.5357 54.2849 35.3571 55.0707 34.5715C55.8565 33.7859 57.0351 33.7857 57.8206 34.5715L69.2135 45.9644C69.9993 46.3572 70.7849 45.9644 71.5707 45.5716C71.9635 45.1786 72.7493 44.0001 71.9635 42.4287Z" fill="#00ADEF"/>
</svg>
