<svg width="213" height="226" viewBox="0 0 213 226" fill="none" xmlns="http://www.w3.org/2000/svg">
<path d="M0.957031 225.986C0.957039 142.083 32.8155 61.3113 90.091 6.10352e-05L212.331 114.194C183.997 144.523 168.237 184.48 168.237 225.986H0.957031Z" fill="#45485C"/>
<path d="M107.989 124.682L101.957 110.136C101.629 109.346 101.001 108.719 100.211 108.392L81.1755 100.517C80.6382 100.294 80.0226 100.55 79.8003 101.087L79.2472 102.424C78.6209 103.938 79.2294 105.681 80.6618 106.476L89.5099 111.699C90.0212 111.245 90.6143 110.865 91.2808 110.589C92.8213 109.95 94.5163 109.942 96.0607 110.564C97.6634 111.21 98.9168 112.507 99.5777 114.103C101.509 118.769 102.767 121.802 102.767 121.802C103.101 122.608 102.719 123.532 101.913 123.866C101.108 124.2 100.184 123.817 99.85 123.012C99.85 123.012 98.5856 119.963 96.6454 115.277C96.3349 114.527 95.7684 113.899 95.0319 113.559C94.2359 113.19 93.3472 113.167 92.5392 113.487L92.5401 113.488C91.1611 114.06 90.3901 115.478 90.5785 116.891C90.6159 117.14 90.6834 117.388 90.7841 117.631L96.18 130.643C97.519 133.468 99.863 135.704 102.766 136.905L112.109 140.77L116.669 129.746C116.891 129.209 116.636 128.593 116.099 128.371L108.559 125.251C108.301 125.145 108.096 124.94 107.989 124.682Z" fill="white"/>
<path d="M97.8304 149.245L83.2846 155.277C82.4946 155.605 81.6068 155.605 80.8165 155.278L61.7813 147.403C61.2441 147.181 60.9888 146.565 61.211 146.028L61.7641 144.691C62.3905 143.177 64.0525 142.373 65.6281 142.822L75.5803 145.377C75.621 146.06 75.7727 146.748 76.0491 147.414C76.6879 148.955 77.8816 150.158 79.4143 150.809C81.0048 151.484 82.8081 151.452 84.4038 150.789C89.0672 148.852 92.1003 147.594 92.1003 147.594C92.9058 147.26 93.2881 146.336 92.954 145.53C92.6199 144.725 91.696 144.342 90.8905 144.676C90.8905 144.676 87.8417 145.941 83.1576 147.887C82.408 148.198 81.564 148.242 80.8019 147.963C79.9784 147.661 79.3332 147.049 78.9875 146.252L78.9885 146.252C78.4167 144.873 78.8731 143.325 80.0047 142.458C80.207 142.308 80.4302 142.18 80.673 142.079L93.6844 136.683C96.628 135.63 99.8665 135.704 102.769 136.905L112.112 140.77L107.551 151.794C107.329 152.331 106.713 152.586 106.176 152.364L98.6361 149.244C98.3781 149.138 98.0882 149.138 97.8304 149.245Z" fill="white"/>
<path d="M86.8829 124.048C86.7784 124.301 86.6042 124.525 86.3716 124.69L81.5432 128.122L82.5358 133.962C82.6372 134.559 82.3654 135.158 81.8492 135.475C81.3327 135.791 80.6757 135.762 80.1894 135.401L75.4335 131.87L70.1861 134.618C69.6495 134.899 68.9959 134.826 68.5351 134.432C68.0744 134.039 67.8991 133.405 68.0922 132.831L69.9813 127.217L65.7456 123.076C65.3125 122.652 65.1805 122.008 65.412 121.448C65.6436 120.888 66.1924 120.526 66.798 120.532L72.7214 120.594L75.3511 115.286C75.62 114.743 76.1919 114.418 76.7958 114.465C77.3998 114.513 77.9143 114.922 78.0954 115.5L79.8671 121.153L85.7279 122.014C86.3272 122.102 86.8127 122.545 86.9545 123.134C87.0294 123.446 87.0001 123.765 86.8829 124.048Z" fill="white"/>
<path d="M88.605 131.044C88.4556 131.404 88.1635 131.697 87.8028 131.847C87.4414 131.996 87.0283 131.996 86.6674 131.847C86.3065 131.698 86.0134 131.405 85.8639 131.045C85.7149 130.684 85.7146 130.27 85.8639 129.91C86.0132 129.549 86.3053 129.256 86.666 129.106C87.0274 128.957 87.4405 128.957 87.8014 129.106C88.1623 129.255 88.4545 129.548 88.6049 129.908C88.754 130.27 88.7542 130.683 88.605 131.044Z" fill="white"/>
<path d="M85.2417 117.057C85.0924 117.418 84.7998 117.711 84.4395 117.86C84.0791 118.01 83.665 118.01 83.3041 117.86C82.9432 117.711 82.6501 117.419 82.5007 117.058C82.3512 116.698 82.3513 116.284 82.5006 115.923C82.6495 115.563 82.9421 115.27 83.3024 115.12C83.6637 114.971 84.0773 114.97 84.4382 115.119C84.7991 115.269 85.0909 115.562 85.2412 115.922C85.3908 116.283 85.3907 116.697 85.2417 117.057Z" fill="white"/>
<path d="M85.2417 117.057C85.0924 117.418 84.7998 117.711 84.4395 117.86C84.0791 118.01 83.665 118.01 83.3041 117.86C82.9432 117.711 82.6501 117.419 82.5007 117.058C82.3512 116.698 82.3513 116.284 82.5006 115.923C82.6495 115.563 82.9421 115.27 83.3024 115.12C83.6637 114.971 84.0773 114.97 84.4382 115.119C84.7991 115.269 85.0909 115.562 85.2412 115.922C85.3908 116.283 85.3907 116.697 85.2417 117.057Z" fill="white"/>
<path d="M70.9018 115.935C70.7526 116.295 70.4604 116.588 70.0997 116.738C69.7384 116.887 69.3252 116.887 68.9643 116.738C68.6034 116.589 68.3113 116.297 68.1608 115.936C68.0114 115.575 68.0115 115.161 68.1608 114.801C68.3101 114.44 68.6026 114.147 68.9629 113.997C69.3233 113.848 69.7374 113.848 70.0983 113.997C70.4592 114.146 70.7523 114.439 70.9018 114.799C71.0513 115.159 71.0512 115.574 70.9018 115.935Z" fill="white"/>
<path d="M65.4018 129.227C65.2529 129.587 64.9604 129.88 64.5997 130.03C64.2384 130.179 63.8252 130.18 63.4643 130.03C63.1034 129.881 62.8113 129.589 62.6608 129.228C62.5117 128.867 62.5118 128.453 62.6608 128.093C62.8101 127.732 63.1025 127.439 63.4629 127.289C63.8243 127.14 64.2374 127.14 64.5983 127.289C64.9592 127.438 65.2515 127.731 65.4018 128.091C65.5508 128.453 65.5512 128.866 65.4018 129.227Z" fill="white"/>
<path d="M76.3432 138.564C76.1939 138.925 75.9014 139.218 75.541 139.367C75.1797 139.516 74.7666 139.517 74.4057 139.367C74.0448 139.218 73.7517 138.926 73.6022 138.565C73.4528 138.205 73.4529 137.791 73.6022 137.43C73.7515 137.069 74.0436 136.777 74.404 136.627C74.7644 136.478 75.1788 136.477 75.5397 136.626C75.9006 136.776 76.1925 137.069 76.3427 137.429C76.4922 137.79 76.4922 138.204 76.3432 138.564Z" fill="white"/>
</svg>
