<svg width="96" height="68" viewBox="0 0 96 68" fill="none" xmlns="http://www.w3.org/2000/svg">
<g clip-path="url(#clip0_3955_188551)">
<path d="M81.8306 39.3089C79.5434 39.3089 77.4148 39.9145 75.5079 40.8938L71.7347 36.4097C73.4076 35.4209 75.2171 34.6605 77.1298 34.2323C78.6892 33.8812 80.2348 33.7525 81.8458 33.7285C83.9265 33.7445 85.9737 32.9237 87.5055 31.4057C89.1034 29.8245 90.0194 27.6246 90.0194 25.0234C90.0194 10.7256 77.9746 0.225586 65.2572 0.225586H62.1028C60.5601 0.225586 59.3111 1.47457 59.3111 3.01725C59.3111 4.55994 60.5601 5.80892 62.1028 5.80892H65.2572C66.0889 5.80892 66.882 5.95214 67.6861 6.05537V11.4497C66.0649 11.5965 64.5382 12.0982 63.0937 12.7706C63.0755 12.7496 63.0522 12.7357 63.0348 12.7147C60.7433 13.7863 58.768 15.462 57.3373 17.6081L50.9826 27.139C50.5464 27.7904 49.8594 28.2295 49.0823 28.3494C43.4306 29.2182 38.5314 32.8212 35.9585 38.0825C38.3431 41.6462 39.7694 45.8919 39.7694 50.4756H34C34 41.2391 26.4865 33.7256 17.25 33.7256C8.01351 33.7256 0.5 41.2391 0.5 50.4756C0.5 59.7121 8.01351 67.2256 17.25 67.2256C24.5192 67.2256 30.6587 62.5437 32.9713 56.0589H59.3111C60.8538 56.0589 62.1028 54.8099 62.1028 53.2673C62.1028 51.7158 62.2882 50.1317 62.6509 48.5621C63.4114 45.3023 65.1067 42.3354 67.3822 39.9116L71.1502 44.3892C69.1343 46.8093 67.8722 49.8787 67.8722 53.2673C67.8722 60.9632 74.1346 67.2256 81.8306 67.2256C89.5265 67.2256 95.7889 60.9632 95.7889 53.2673C95.7889 45.5713 89.5265 39.3089 81.8306 39.3089ZM17.25 61.6423C11.0916 61.6423 6.08333 56.634 6.08333 50.4756C6.08333 44.3172 11.0916 39.3089 17.25 39.3089C23.4084 39.3089 28.4167 44.3172 28.4167 50.4756H20.0417C18.5012 50.4756 17.25 49.2244 17.25 47.6839C17.25 46.1412 16.001 44.8923 14.4583 44.8923C12.9156 44.8923 11.6667 46.1412 11.6667 47.6839C11.6667 52.3018 15.4238 56.0589 20.0417 56.0589H26.8638C24.9271 59.3806 21.3655 61.6423 17.25 61.6423ZM81.8306 61.6423C77.2127 61.6423 73.4556 57.8851 73.4556 53.2673C73.4556 51.6497 73.9375 50.1513 74.7351 48.8689L79.6496 55.012C80.6201 56.2225 82.378 56.405 83.5753 55.4482C84.7778 54.4828 84.9741 52.7278 84.0115 51.5225L79.1029 45.3866C79.9622 45.0878 80.8702 44.8923 81.8306 44.8923C86.4484 44.8923 90.2055 48.6494 90.2055 53.2673C90.2055 57.8851 86.4484 61.6423 81.8306 61.6423Z" fill="#00ADEF"/>
<path d="M47.9011 21.6869L52.684 14.5122C54.2128 12.2178 56.2179 10.3538 58.4956 8.90634C55.432 6.9718 51.9003 5.81006 48.1366 5.81006C41.5406 5.81006 35.4476 9.17242 31.8613 14.5645L36.3265 17.2443C39.9135 19.3962 43.8415 20.8371 47.9011 21.6869Z" fill="#00ADEF"/>
<path d="M33.4613 22.0285L15.5467 11.3911H3.29167C1.74898 11.3911 0.5 12.6401 0.5 14.1828C0.5 21.8788 6.76235 28.1411 14.4583 28.1411C20.0424 28.1411 25.8351 28.2625 32.0415 33.6576C32.0655 33.6132 32.0655 33.5631 32.0924 33.5202C34.2581 30.0379 37.3158 27.3378 40.8214 25.4403C38.2835 24.512 35.7986 23.4302 33.4613 22.0285Z" fill="#00ADEF"/>
</g>
<defs>
<clipPath id="clip0_3955_188551">
<rect width="95" height="67" fill="white" transform="translate(0.5 0.225586)"/>
</clipPath>
</defs>
</svg>
