<svg width="56" height="56" viewBox="0 0 56 56" fill="none" xmlns="http://www.w3.org/2000/svg">
<path d="M10.3828 35.5674H13.6739V38.79H10.3828V35.5674Z" fill="#00ADEF"/>
<path d="M10.3827 22.6768V25.8994H13.6737V22.6768H10.3827ZM31.8552 7.26387C32.5989 7.1833 34.8127 6.83633 36.1864 6.18643C38.0294 5.31631 39.4283 3.83066 39.4994 3.75332C40.4109 2.74334 41.7463 2.12717 43.252 2.1624V1.83691C43.252 0.947461 42.5181 0.225586 41.6114 0.225586H2.17187C1.26625 0.225586 0.53125 0.947461 0.53125 1.83691V53.6143C0.53125 54.5037 1.26625 55.2256 2.17187 55.2256H27.8411V41.7022C27.8411 40.8128 28.5761 40.0909 29.4817 40.0909H43.252V38.2325C43.2028 38.2336 43.1525 38.2347 43.1033 38.2347C42.2753 38.2347 41.4561 38.022 40.732 37.6213L40.7266 37.6181L40.7222 37.6159C37.5875 35.8628 34.9352 33.5607 32.8363 30.7721C30.7516 28.0017 29.2444 24.7908 28.3595 21.2309C27.0678 16.0381 27.5206 11.8604 27.5764 11.4018C27.8442 9.19703 29.6375 7.48892 31.8552 7.26387ZM16.955 40.4014C16.955 41.2908 16.22 42.0127 15.3133 42.0127H8.74312C7.83641 42.0127 7.10141 41.2908 7.10141 40.4014V33.9561C7.10141 33.0666 7.83641 32.3447 8.74312 32.3447H15.3133C16.22 32.3447 16.955 33.0666 16.955 33.9561V40.4014ZM16.955 27.5107C16.955 28.4002 16.22 29.1221 15.3133 29.1221H8.74312C7.83641 29.1221 7.10141 28.4002 7.10141 27.5107V21.0654C7.10141 20.176 7.83641 19.4541 8.74312 19.4541H15.3133C16.22 19.4541 16.955 20.176 16.955 21.0654V27.5107ZM16.955 14.6201C16.955 15.5096 16.22 16.2314 15.3133 16.2314H8.74312C7.83641 16.2314 7.10141 15.5096 7.10141 14.6201V8.1748C7.10141 7.28535 7.83641 6.56348 8.74312 6.56348H15.3133C16.22 6.56348 16.955 7.28535 16.955 8.1748V14.6201ZM10.3827 13.0088H13.6737V9.78613H10.3827V13.0088Z" fill="#00ADEF"/>
<path d="M31.123 55.2255C31.5693 55.2255 31.986 55.0461 32.2835 54.7539L42.743 44.4801C43.0941 44.1353 43.2527 43.7228 43.2527 43.3135H31.123V55.2255Z" fill="#00ADEF"/>
<path d="M55.3711 11.7831C55.2868 11.087 54.7214 10.5413 54.0104 10.4683C53.9787 10.4661 50.7959 10.1299 48.5975 9.09113C46.0643 7.89445 44.2717 5.91359 44.2542 5.89641C43.6557 5.21954 42.5694 5.20547 41.9529 5.89318C41.9354 5.91359 40.1406 7.89445 37.6075 9.09113C35.409 10.1299 32.2273 10.4661 32.1956 10.4683C31.4846 10.5403 30.9192 11.086 30.8339 11.7831C30.8153 11.9421 30.3712 15.7448 31.5459 20.466C33.1165 26.7814 36.8517 31.7432 42.3445 34.8155C42.8219 35.0802 43.3971 35.0749 43.8604 34.8155C49.3554 31.7432 53.0895 26.7814 54.6601 20.466C55.8337 15.7448 55.3907 11.9421 55.3711 11.7831ZM50.2107 17.744L44.0486 24.7554C43.4175 25.4726 42.3078 25.4951 41.6434 24.8424L37.6075 20.8828C36.9665 20.2533 36.9665 19.2339 37.6075 18.6044C38.2495 17.9749 39.2886 17.9749 39.9306 18.6044L42.7153 21.3362L47.7236 15.6396C48.3153 14.966 49.3532 14.8908 50.0401 15.472C50.727 16.0531 50.8035 17.0704 50.2107 17.744Z" fill="#00ADEF"/>
</svg>
