<svg width="56" height="56" viewBox="0 0 56 56" fill="none" xmlns="http://www.w3.org/2000/svg">
<path d="M24.2481 48.2819H8.96875C8.48805 48.2819 8.02703 48.0909 7.68712 47.751C7.34721 47.4111 7.15625 46.9501 7.15625 46.4694C7.15625 45.9887 7.34721 45.5277 7.68712 45.1877C8.02703 44.8478 8.48805 44.6569 8.96875 44.6569H22.9975C22.7048 43.3541 22.5589 42.0227 22.5625 40.6875C22.5597 39.1703 22.7546 37.6593 23.1425 36.1925H8.96875C8.48805 36.1925 8.02703 36.0015 7.68712 35.6616C7.34721 35.3217 7.15625 34.8607 7.15625 34.38C7.15625 33.8993 7.34721 33.4383 7.68712 33.0984C8.02703 32.7585 8.48805 32.5675 8.96875 32.5675H24.5019C26.4019 28.7901 29.5628 25.7959 33.4375 24.1031H8.96875C8.48805 24.1031 8.02703 23.9122 7.68712 23.5723C7.34721 23.2323 7.15625 22.7713 7.15625 22.2906C7.15625 21.8099 7.34721 21.3489 7.68712 21.009C8.02703 20.6691 8.48805 20.4781 8.96875 20.4781H34.3438C34.8245 20.4781 35.2855 20.6691 35.6254 21.009C35.9653 21.3489 36.1562 21.8099 36.1562 22.2906C36.1562 22.6159 36.0685 22.9352 35.9025 23.215C37.4595 22.7766 39.07 22.557 40.6875 22.5625C41.3037 22.5625 41.9019 22.5625 42.5 22.6531V6.25C42.5 4.80789 41.9271 3.42484 40.9074 2.40511C39.8877 1.38538 38.5046 0.8125 37.0625 0.8125H6.25C4.80789 0.8125 3.42484 1.38538 2.40511 2.40511C1.38538 3.42484 0.8125 4.80789 0.8125 6.25V49.75C0.8125 51.1921 1.38538 52.5752 2.40511 53.5949C3.42484 54.6146 4.80789 55.1875 6.25 55.1875H29.8125C27.4145 53.3819 25.5025 51.009 24.2481 48.2819ZM8.96875 8.40688H34.3438C34.8245 8.40688 35.2855 8.59783 35.6254 8.93774C35.9653 9.27765 36.1562 9.73867 36.1562 10.2194C36.1562 10.7001 35.9653 11.1611 35.6254 11.501C35.2855 11.8409 34.8245 12.0319 34.3438 12.0319H8.96875C8.48805 12.0319 8.02703 11.8409 7.68712 11.501C7.34721 11.1611 7.15625 10.7001 7.15625 10.2194C7.15625 9.73867 7.34721 9.27765 7.68712 8.93774C8.02703 8.59783 8.48805 8.40688 8.96875 8.40688Z" fill="#00ADEF"/>
<path d="M40.6875 26.1875C37.8197 26.1875 35.0163 27.0379 32.6317 28.6312C30.2472 30.2245 28.3887 32.4891 27.2913 35.1386C26.1938 37.7881 25.9066 40.7036 26.4661 43.5163C27.0256 46.329 28.4066 48.9127 30.4345 50.9405C32.4623 52.9684 35.046 54.3494 37.8587 54.9089C40.6714 55.4684 43.5869 55.1812 46.2364 54.0838C48.8859 52.9863 51.1505 51.1278 52.7438 48.7433C54.3371 46.3588 55.1875 43.5553 55.1875 40.6875C55.1875 36.8419 53.6598 33.1537 50.9406 30.4345C48.2213 27.7152 44.5331 26.1875 40.6875 26.1875ZM46.415 39.3281L40.1438 44.7656C39.818 45.0529 39.3999 45.2137 38.9656 45.2188C38.5251 45.2181 38.0998 45.057 37.7694 44.7656L34.96 42.3369C34.7803 42.1798 34.6333 41.9888 34.5274 41.7749C34.4215 41.561 34.3587 41.3283 34.3427 41.0902C34.3268 40.852 34.3578 40.6131 34.4342 40.3869C34.5106 40.1608 34.6307 39.9519 34.7878 39.7722C34.9449 39.5925 35.1359 39.4455 35.3498 39.3396C35.5637 39.2337 35.7963 39.1709 36.0345 39.1549C36.2727 39.1389 36.5116 39.17 36.7378 39.2464C36.9639 39.3227 37.1728 39.4429 37.3525 39.6L38.9656 40.9956L44.0225 36.6094C44.199 36.4399 44.4079 36.3079 44.6368 36.2213C44.8656 36.1347 45.1096 36.0954 45.3541 36.1057C45.5985 36.1159 45.8384 36.1756 46.0592 36.281C46.2799 36.3864 46.4771 36.5355 46.6387 36.7192C46.8004 36.9028 46.9231 37.1174 46.9997 37.3498C47.0762 37.5822 47.1048 37.8276 47.0839 38.0714C47.063 38.3152 46.993 38.5522 46.878 38.7682C46.7631 38.9842 46.6056 39.1746 46.415 39.3281Z" fill="#00ADEF"/>
</svg>
