<svg width="68" height="67" viewBox="0 0 68 67" fill="none" xmlns="http://www.w3.org/2000/svg">
<path d="M32.0636 52.8009C26.9804 52.5606 22.1852 50.3713 18.6739 46.6879C15.1627 43.0045 13.2053 38.11 13.2085 33.0212C13.2085 22.0912 22.0912 13.2085 33.0212 13.2085C43.654 13.2085 52.3056 21.5628 52.8009 32.0636L45.8664 29.9832C45.3267 27.6942 44.1854 25.5907 42.5606 23.8904C40.9357 22.1901 38.8862 20.9546 36.6239 20.3116C34.3617 19.6686 31.9688 19.6415 29.6925 20.233C27.4162 20.8245 25.3392 22.0132 23.6762 23.6762C22.0132 25.3392 20.8245 27.4162 20.233 29.6925C19.6415 31.9688 19.6686 34.3617 20.3116 36.6239C20.9546 38.8862 22.1901 40.9357 23.8904 42.5606C25.5907 44.1854 27.6941 45.3267 29.9832 45.8664L32.0636 52.8009ZM66.0424 33.0212C66.0424 34.0118 66.0094 35.0025 65.9103 35.9931L59.4051 34.0449C59.4381 33.7146 59.4381 33.3514 59.4381 33.0212C59.4381 18.4258 47.6166 6.60424 33.0212 6.60424C18.4258 6.60424 6.60424 18.4258 6.60424 33.0212C6.60424 47.6166 18.4258 59.4382 33.0212 59.4382C33.3514 59.4382 33.7146 59.4381 34.0448 59.4051L35.9931 65.9103C35.0025 66.0094 34.0118 66.0424 33.0212 66.0424C14.7935 66.0424 0 51.2489 0 33.0212C0 14.7935 14.7935 0 33.0212 0C51.2489 0 66.0424 14.7935 66.0424 33.0212ZM53.5934 47.0882L61.0892 44.5786C62.6082 44.0833 62.5752 41.9039 61.0562 41.4416L35.9601 33.9128C34.7053 33.5495 33.5165 34.7053 33.9128 35.9601L41.4416 61.0562C41.9039 62.6082 44.0833 62.6412 44.5786 61.0892L47.0882 53.5934L59.9995 66.5047C60.6599 67.1651 61.6836 67.1651 62.344 66.5047L66.5377 62.311C67.1981 61.6506 67.1981 60.6269 66.5377 59.9665L53.5934 47.0882Z" fill="#00ADEF"/>
</svg>
