<svg width="58" height="58" viewBox="0 0 58 58" fill="none" xmlns="http://www.w3.org/2000/svg">
<g clip-path="url(#clip0_2972_69834)">
<path d="M44.1248 9.90327C44.1248 8.54254 43.5937 7.26155 42.6313 6.29912L37.8256 1.4935C36.8766 0.544316 35.5293 0 34.1885 0H33.8965V10.1953H44.1249L44.1248 9.90327Z" fill="#00ADEF"/>
<path d="M31.0319 35.0647C31.3572 34.0774 31.9247 33.1581 32.6648 32.4131L44.1698 20.9543V13.5938H32.23C31.2908 13.5938 30.5859 12.8337 30.5859 11.8945V0H5.09766C2.2867 0 0 2.2867 0 5.09766V52.9023C0 55.7133 2.2867 58 5.09766 58H39.0269C41.8378 58 44.1698 55.7133 44.1698 52.9023V40.2204L42.3025 42.0424C41.5459 42.7924 40.6598 43.3383 39.6608 43.672L34.2578 45.4757L33.4347 45.5206C32.074 45.5206 30.7863 44.8585 29.9866 43.75C29.1934 42.6465 28.9777 41.2161 29.4091 39.9235L31.0319 35.0647ZM8.49609 30.5859H25.4331C26.3723 30.5859 27.1323 31.3459 27.1323 32.2852C27.1323 33.2244 26.3723 33.9844 25.4331 33.9844H8.49609C7.55688 33.9844 6.79688 33.2244 6.79688 32.2852C6.79688 31.3459 7.55688 30.5859 8.49609 30.5859ZM6.79688 25.4883C6.79688 24.5491 7.55688 23.7891 8.49609 23.7891H25.4331C26.3723 23.7891 27.1323 24.5491 27.1323 25.4883C27.1323 26.4275 26.3723 27.1875 25.4331 27.1875H8.49609C7.55688 27.1875 6.79688 26.4275 6.79688 25.4883ZM6.79688 39.082C6.79688 38.1428 7.55688 37.3828 8.49609 37.3828H25.4331C26.3723 37.3828 27.1323 38.1428 27.1323 39.082C27.1323 40.0212 26.3723 40.7812 25.4331 40.7812H8.49609C7.55688 40.7812 6.79688 40.0212 6.79688 39.082ZM32.23 47.5781C33.1692 47.5781 33.9292 48.3381 33.9292 49.2773C33.9292 50.2166 33.1693 50.9766 32.23 50.9766H22.0347C21.0955 50.9766 20.3355 50.2166 20.3355 49.2773C20.3355 48.3381 21.0955 47.5781 22.0347 47.5781H32.23ZM8.49609 20.3906C7.55688 20.3906 6.79688 19.6306 6.79688 18.6914C6.79688 17.7522 7.55688 16.9922 8.49609 16.9922H32.23C33.1692 16.9922 33.9292 17.7522 33.9292 18.6914C33.9292 19.6306 33.1692 20.3906 32.23 20.3906H8.49609Z" fill="#00ADEF"/>
<path d="M34.1094 36.5684L32.6311 41.0034C32.4095 41.6678 33.0417 42.2998 33.7061 42.0779L38.1386 40.5975L34.1094 36.5684Z" fill="#00ADEF"/>
<path d="M47.3081 22.5781L36.1172 33.7691L40.9435 38.5954C43.4729 36.0656 48.3944 31.1434 52.1339 27.4039L47.3081 22.5781Z" fill="#00ADEF"/>
<path d="M57.0024 17.704C56.4051 17.1032 55.5256 16.7598 54.5929 16.7598C53.6603 16.7598 52.7809 17.1032 52.1801 17.7057L49.7109 20.1749L54.5365 25.0004C55.8883 23.6485 56.8226 22.7142 57.0059 22.531C58.3332 21.2016 58.3331 19.0364 57.0024 17.704Z" fill="#00ADEF"/>
<path d="M57.0039 22.5315C57.004 22.5315 57.004 22.5313 57.0041 22.5312C57.0084 22.5269 57.0104 22.525 57.0139 22.5215C57.0104 22.5251 57.0084 22.527 57.0039 22.5315Z" fill="#00ADEF"/>
<path d="M57.0137 22.5209C57.0191 22.5155 57.0255 22.5091 57.0287 22.5059C57.0253 22.5093 57.0191 22.5155 57.0137 22.5209Z" fill="#00ADEF"/>
<path d="M57.0293 22.5064C57.0403 22.4954 57.0405 22.4952 57.0293 22.5064V22.5064Z" fill="#00ADEF"/>
</g>
<defs>
<clipPath id="clip0_2972_69834">
<rect width="58" height="58" fill="white"/>
</clipPath>
</defs>
</svg>
