<svg width="58" height="58" viewBox="0 0 58 58" fill="none" xmlns="http://www.w3.org/2000/svg">
<g clip-path="url(#clip0_2972_69822)">
<path d="M7.2503 24.1665V19.3331H12.0837V24.1665H41.083V19.3331H45.9157V24.1665H53.1655V14.5003C53.1655 11.8426 50.9899 9.6669 48.3328 9.6669H38.6659V4.83345C38.6659 2.17639 36.4902 0 33.8332 0H19.3336C16.6751 0.000724981 14.5001 2.17639 14.5001 4.83417V9.66762H4.83394C2.17543 9.6669 0.000488281 11.8426 0.000488281 14.5003V24.1665H7.2503ZM19.3336 4.83417H33.8332V9.66762H19.3336V4.83417Z" fill="#00ADEF"/>
<path d="M28.9997 29H12.0837V33.8334H7.2503V29H0.000488281V43.4996C0.000488281 46.1567 2.17543 48.3331 4.83394 48.3331H28.9997V29Z" fill="#00ADEF"/>
<path d="M33.8325 29V57.9992H57.9983V29H33.8325ZM50.7485 50.7494H41.0823V45.916H50.7485V50.7494ZM50.7485 41.0833H41.0823V36.2498H50.7485V41.0833Z" fill="#00ADEF"/>
</g>
<defs>
<clipPath id="clip0_2972_69822">
<rect width="58" height="58" fill="white" transform="translate(-0.000976562)"/>
</clipPath>
</defs>
</svg>
