<svg width="40" height="40" viewBox="0 0 40 40" fill="none" xmlns="http://www.w3.org/2000/svg">
<path d="M38.3213 11.7843L34.2376 9.34103L33.3175 5.53243C32.909 3.84329 31.3446 2.7172 29.6291 2.8522L24.9564 3.21384L22.2797 0.843838C20.9613 -0.281084 19.0433 -0.281084 17.7204 0.842666L15.0436 3.21376L10.371 2.85212C8.67494 2.73313 7.08994 3.84431 6.72486 5.39384C6.64932 5.62868 5.28471 9.87048 5.3733 9.59493L1.6794 11.7831C0.199708 12.6917 -0.393104 14.5159 0.269474 16.1204L1.86361 19.9839L0.270646 23.8463C-0.393104 25.452 0.200802 27.275 1.6794 28.1825L5.75893 30.6087L6.68244 34.4345C7.08869 36.1224 8.64627 37.2428 10.3709 37.1147L14.9931 36.7577L17.7203 39.1555C18.3806 39.7184 19.1898 40 20 40C20.8091 40 21.6194 39.7184 22.2797 39.1554L25.0068 36.7576L29.6291 37.1146C31.3755 37.2531 32.9113 36.1235 33.3175 34.4344L34.2376 30.6258L38.3213 28.1825C39.7987 27.275 40.3915 25.452 39.73 23.8463L38.1359 19.984L39.7312 16.1193C40.3927 14.516 39.7999 12.6918 38.3213 11.7843ZM20 32.8906C12.8921 32.8906 7.1094 27.1079 7.1094 20C7.1094 12.8921 12.8921 7.10938 20 7.10938C27.1079 7.10938 32.8906 12.8921 32.8906 20C32.8906 27.1079 27.1079 32.8906 20 32.8906Z" fill="#FFCB05"/>
<path d="M20 9.45312C14.1841 9.45312 9.45312 14.1841 9.45312 20C9.45312 25.8159 14.1841 30.5469 20 30.5469C25.8159 30.5469 30.5469 25.8159 30.5469 20C30.5469 14.1841 25.8159 9.45312 20 9.45312ZM26.6879 17.3129L19.6566 24.3441C19.4277 24.573 19.1279 24.6875 18.8281 24.6875C18.5284 24.6875 18.2284 24.573 17.9996 24.3441L13.3121 19.6566C12.8544 19.1989 12.8544 18.4573 13.3121 17.9995C13.7698 17.5418 14.5115 17.5418 14.9692 17.9995L18.8281 21.8585C18.8281 21.8585 24.5731 16.1135 25.0309 15.6558C25.4886 15.198 26.2302 15.198 26.688 15.6558C27.1457 16.1135 27.1457 16.8552 26.6879 17.3129Z" fill="#2F3245"/>
</svg>
