<svg width="28" height="19" viewBox="0 0 28 19" fill="none" xmlns="http://www.w3.org/2000/svg">
<path d="M12.4288 6.43774C11.3592 6.64781 10.3674 7.06502 9.49219 7.65273L5.85996 4.02051C7.71558 2.55931 9.96754 1.5889 12.4288 1.29572V6.43774Z" stroke="#2F3245" stroke-width="1.5"/>
<path d="M0.75 14.381C0.75 11.3159 1.85535 8.49218 3.63932 6.24092L7.27125 9.87285C6.39967 11.1575 5.86719 12.699 5.86719 14.381C5.86719 14.4202 5.83607 14.4513 5.79687 14.4513H0.820312C0.781112 14.4513 0.75 14.4202 0.75 14.381Z" stroke="#2F3245" stroke-width="1.5"/>
<path d="M19.7584 8.52378L19.7584 8.5238L19.763 8.5208C19.7816 8.50875 19.8146 8.50589 19.8434 8.53044C19.8662 8.55106 19.8729 8.58442 19.8601 8.61199L19.86 8.61217L16.2944 16.2673L16.294 16.2682C15.8819 17.1558 14.9796 17.7318 13.999 17.7318C12.6036 17.7318 11.4678 16.596 11.4678 15.2005C11.4678 14.3308 11.9038 13.5348 12.6392 13.0651C12.6393 13.065 12.6394 13.065 12.6395 13.0649L19.7584 8.52378Z" stroke="#FFCB05" stroke-width="1.5"/>
<path d="M22.7084 9.93917C23.0433 9.22047 23.0698 8.44035 22.8681 7.73426L24.3615 6.24092C26.1454 8.49218 27.2508 11.3159 27.2508 14.381C27.2508 14.4202 27.2197 14.4513 27.1805 14.4513H22.2039C22.1647 14.4513 22.1336 14.4202 22.1336 14.381C22.1336 13.5412 21.999 12.7367 21.7571 11.9814L22.7083 9.93938C22.7083 9.93935 22.7083 9.93932 22.7083 9.9393C22.7083 9.93925 22.7083 9.93921 22.7084 9.93917Z" stroke="#2F3245" stroke-width="1.5"/>
<path d="M16.7015 6.74948C16.3364 6.62014 15.9591 6.51551 15.5708 6.43848V1.29571C18.0321 1.5889 20.284 2.55931 22.1397 4.02051L20.6506 5.5096C19.7266 5.23245 18.8231 5.38932 18.0691 5.87705L16.7015 6.74948Z" stroke="#2F3245" stroke-width="1.5"/>
</svg>
