<svg width="32" height="21" viewBox="0 0 32 21" fill="none" xmlns="http://www.w3.org/2000/svg">
<path d="M14.3121 7.16112C13.0408 7.39821 11.8652 7.89356 10.8356 8.59949L6.53693 4.30079C8.72041 2.55331 11.3903 1.40032 14.3121 1.07576V7.16112Z" stroke="#FFCB05" stroke-width="1.5"/>
<path d="M0.75 16.15C0.75 12.5779 2.05385 9.29182 4.15026 6.68656L8.44867 10.985C7.43397 12.4513 6.8125 14.219 6.8125 16.15C6.8125 16.2539 6.72897 16.3375 6.625 16.3375H0.9375C0.833526 16.3375 0.75 16.2539 0.75 16.15Z" stroke="#FFCB05" stroke-width="1.5"/>
<path d="M22.5245 9.36654L22.5245 9.36656L22.5292 9.36356C22.5913 9.32328 22.6815 9.32477 22.7498 9.38388C22.8118 9.43883 22.8303 9.52825 22.7955 9.60294L22.7954 9.60312L18.7204 18.3519L18.72 18.3528C18.2315 19.4051 17.1623 20.0874 16 20.0874C14.346 20.0874 13 18.7414 13 17.0874C13 16.0568 13.5171 15.113 14.3883 14.5566C14.3884 14.5565 14.3885 14.5565 14.3886 14.5564L22.5245 9.36654Z" stroke="#00ADEF" stroke-width="1.5"/>
<path d="M25.854 11.0284C26.2344 10.2123 26.2561 9.32318 26.013 8.52294L27.8494 6.68656C29.9458 9.29182 31.2497 12.5779 31.2497 16.15C31.2497 16.2539 31.1661 16.3375 31.0622 16.3375H25.3747C25.2707 16.3375 25.1872 16.2539 25.1872 16.15C25.1872 15.1871 25.0305 14.2651 24.7491 13.4005L25.8539 11.0286C25.8539 11.0286 25.854 11.0285 25.854 11.0285C25.854 11.0285 25.854 11.0284 25.854 11.0284Z" stroke="#FFCB05" stroke-width="1.5"/>
<path d="M17.6875 7.16179V1.07576C20.6092 1.40032 23.2791 2.55331 25.4626 4.30079L23.6302 6.13324C22.5829 5.79992 21.5597 5.97071 20.7077 6.52191L19.1003 7.54737C18.6456 7.38343 18.174 7.25343 17.6875 7.16179Z" stroke="#FFCB05" stroke-width="1.5"/>
</svg>
