<svg width="40" height="40" viewBox="0 0 40 40" fill="none" xmlns="http://www.w3.org/2000/svg">
<g clip-path="url(#clip0_3526_170393)">
<path d="M12.1094 24.7461V27.0303C12.1094 27.6775 12.6341 28.2022 13.2812 28.2022H18.75C19.3972 28.2022 19.9219 27.6775 19.9219 27.0303V24.7461C17.4154 25.7078 14.6211 25.7098 12.1094 24.7461Z" fill="white"/>
<path d="M16.0157 23.1236C20.7543 23.1236 24.6095 19.2684 24.6095 14.5298V11.7539C23.6101 12.5168 22.3633 12.9713 21.0118 12.9713H14.8138C14.0348 12.9713 13.3142 12.7166 12.7309 12.2862C10.5973 13.0976 8.81039 12.9541 8.59375 12.9713C8.18297 12.9713 7.78867 12.8998 7.42188 12.7697V14.5298C7.42195 19.2684 11.2771 23.1236 16.0157 23.1236ZM12.6146 16.7823C13.0964 16.3504 13.8373 16.3905 14.2695 16.8724C15.2058 17.9166 16.8288 17.9131 17.762 16.8724C18.1941 16.3906 18.935 16.3502 19.4169 16.7823C19.8988 17.2145 19.9391 17.9554 19.507 18.4373C17.6384 20.5211 14.3869 20.5141 12.5245 18.4373C12.0924 17.9554 12.1327 17.2145 12.6146 16.7823Z" fill="white"/>
<path d="M8.59375 10.6289C8.79422 10.6009 11.1946 10.8677 13.6418 9.17937V9.45703C13.6418 10.1042 14.1665 10.6289 14.8137 10.6289H21.0117C22.9955 10.6289 24.6094 9.015 24.6094 7.03125C24.6094 3.15422 21.4552 0 17.5781 0H14.4501C10.5747 0 7.42188 3.15281 7.42188 7.02828V9.45703C7.42188 10.1042 7.94656 10.6289 8.59375 10.6289Z" fill="white"/>
<path d="M18.6487 30.547H13.2812C11.3427 30.547 9.76562 28.9698 9.76562 27.0313V23.7461L6.16711 24.6169C2.53602 25.4955 0 28.7184 0 32.4544V38.8282C0 39.4754 0.524687 40.0001 1.17188 40.0001H21.7623C18.7278 37.6884 17.8435 33.669 18.6487 30.547Z" fill="white"/>
<path fill-rule="evenodd" clip-rule="evenodd" d="M35.0323 21.1666C35.0323 21.7924 34.5411 22.3023 33.9234 22.3352C34.2879 22.8102 34.738 23.3451 35.227 23.9263C37.2678 26.3516 39.9864 29.5823 39.9864 32.6263C39.9864 36.8727 37.3822 39.9986 30.3448 39.9986C23.3095 39.9986 20.7031 36.8745 20.7031 32.6263C20.7031 29.5631 23.44 26.3181 25.4817 23.8973C25.9633 23.3264 26.4061 22.8013 26.7653 22.3352C26.148 22.3019 25.6573 21.7922 25.6573 21.1666C25.6573 20.5194 26.182 19.9947 26.8291 19.9947H27.5041C27.2461 19.2463 26.7029 18.9445 26.588 18.8879C25.9062 18.6213 25.4187 17.3661 26.0404 16.2892C26.4217 15.6287 27.1047 15.2344 27.8673 15.2344H32.8222C33.5848 15.2344 34.2679 15.6287 34.6492 16.2892C35.2709 17.3663 34.783 18.6215 34.1015 18.8879C33.9864 18.9445 33.4435 19.2463 33.1855 19.9947H33.8604C34.5076 19.9947 35.0323 20.5194 35.0323 21.1666ZM33.3594 27.5V28.584H31.4561C31.7016 28.9029 31.8721 29.2735 31.9549 29.668H33.3594V30.752H31.9549C31.8298 31.3636 31.4986 31.9131 31.017 32.3081C30.5354 32.703 29.9329 32.9191 29.3111 32.9199H28.7249L31.9635 36.1719H30.437L27.4219 33.1443V31.8359H29.3111C29.6448 31.8349 29.9701 31.7302 30.2421 31.5361C30.5142 31.342 30.7197 31.0681 30.8305 30.752H27.4219V29.668H30.8305C30.6071 29.0382 30.0139 28.584 29.3111 28.584H27.4219V27.5H33.3594Z" fill="#00ADEF"/>
</g>
<defs>
<clipPath id="clip0_3526_170393">
<rect width="40" height="40" fill="white"/>
</clipPath>
</defs>
</svg>
