<svg width="330" height="661" viewBox="0 0 330 661" fill="none" xmlns="http://www.w3.org/2000/svg">
<path d="M33.4141 210.668L34.8872 208.212C47.1633 187.895 69.5058 175.644 93.0023 177.129C96.0285 177.31 99.0366 177.72 102.001 178.357C112.745 180.8 122.719 185.859 131.037 193.085C139.355 200.311 145.76 209.48 149.681 219.776C154.211 231.954 155.475 245.961 164.081 255.623C175.277 268.206 194.28 268.598 210.988 268.071C227.696 267.543 246.711 267.997 257.858 280.617C264.831 288.523 267.053 299.767 266.451 310.362C264.954 338.388 245.422 363.456 220.588 375.904C195.753 388.352 166.499 389.481 139.32 384.006C101.264 376.321 65.0128 355.243 43.2472 322.626C21.4817 290.008 16.0066 245.814 33.4141 210.668Z" fill="#DEDEDE"/>
<path d="M273.756 212.86C276.918 193.301 263.624 174.883 244.065 171.722C224.506 168.561 206.088 181.854 202.927 201.413C199.766 220.972 213.059 239.391 232.618 242.552C252.177 245.713 270.595 232.42 273.756 212.86Z" fill="#DEDEDE"/>
<path d="M231.205 546.91C231.066 539.455 228.19 532.312 223.125 526.84C220.685 536.91 231.205 546.91 231.205 546.91Z" fill="#57B894"/>
<path d="M219.526 541.232C212.638 538.385 204.942 538.171 197.906 540.632C206.116 546.892 219.526 541.232 219.526 541.232Z" fill="#57B894"/>
<path d="M218.146 534.698C219.256 528.927 218.21 522.95 215.206 517.898C211.666 525.268 218.146 534.698 218.146 534.698Z" fill="#57B894"/>
<path d="M263.526 511.172C246.346 515.732 237.156 530.632 237.156 530.632C251.806 530.632 263.526 511.172 263.526 511.172Z" fill="#57B894"/>
<path d="M236.115 518.191C237.005 499.711 218.945 478.801 218.945 478.801C221.665 501.741 236.115 518.191 236.115 518.191Z" fill="#57B894"/>
<path d="M236.196 465.57C235.845 474.825 238.097 483.992 242.696 492.03C245.246 480.15 236.196 465.57 236.196 465.57Z" fill="#57B894"/>
<path d="M243.164 503.109C256.674 501.659 264.024 488.219 264.024 488.219C247.684 492.799 243.164 503.109 243.164 503.109Z" fill="#57B894"/>
<path d="M272.306 559.631C265.969 555.705 258.408 554.25 251.066 555.541C258.196 563.021 272.306 559.631 272.306 559.631Z" fill="#57B894"/>
<path d="M237.297 565.629C239.02 570.005 242.237 573.629 246.377 575.859C245.797 569.629 237.297 565.629 237.297 565.629Z" fill="#57B894"/>
<path d="M239.035 563.63C243.912 566.461 249.629 567.484 255.185 566.52C249.985 561.14 239.035 563.63 239.035 563.63Z" fill="#57B894"/>
<path d="M232.128 588.55C232.14 588.457 232.14 588.362 232.128 588.27C232.128 588.05 232.128 587.79 232.128 587.47C232.128 586.71 232.128 585.67 232.128 584.37C232.128 583.07 232.128 581.37 232.128 579.47C232.128 577.57 232.128 575.39 232.258 572.99C232.378 568.18 232.718 562.47 233.208 556.14C233.698 549.81 234.528 542.87 235.588 535.62C237.718 521.1 240.638 508.13 242.978 498.82C244.168 494.16 245.158 490.4 245.888 487.82L246.698 484.82L246.888 484.04C246.915 483.952 246.932 483.861 246.938 483.77C246.938 483.77 246.888 483.85 246.828 484.02L246.578 484.79C246.348 485.51 246.048 486.5 245.658 487.74C244.858 490.31 243.798 494.06 242.568 498.74C239.37 510.865 236.84 523.157 234.988 535.56C233.928 542.82 233.178 549.78 232.648 556.12C232.118 562.46 231.898 568.2 231.828 573.01C231.758 575.41 231.828 577.59 231.828 579.5C231.828 581.41 231.828 583.06 231.898 584.4C231.968 585.74 231.978 586.74 232.008 587.5V588.3C232.039 588.387 232.079 588.471 232.128 588.55Z" fill="#263238"/>
<path d="M256.916 549.441C256.826 549.301 251.366 552.881 244.726 557.441C238.086 562.001 232.776 565.791 232.876 565.931C232.976 566.071 238.426 562.491 245.066 557.931C251.706 553.371 257.016 549.571 256.916 549.441Z" fill="#263238"/>
<path d="M232.876 551.398C232.628 551.067 232.347 550.762 232.036 550.488L229.606 548.138L221.526 540.528L213.406 532.918L210.906 530.628C210.608 530.32 210.272 530.052 209.906 529.828C210.123 530.196 210.389 530.532 210.696 530.828C211.226 531.428 212.026 532.258 213.026 533.278C215.026 535.278 217.846 538.058 221.026 541.028C224.206 543.998 227.126 546.638 229.276 548.518C230.346 549.458 231.216 550.208 231.836 550.718C232.15 550.992 232.5 551.221 232.876 551.398Z" fill="#263238"/>
<path d="M274.265 540.68C274.265 540.68 260.265 540.41 254.395 551.4C258.313 551.285 262.15 550.255 265.599 548.394C269.049 546.533 272.017 543.891 274.265 540.68Z" fill="#57B894"/>
<path d="M255.197 535.07C255.197 535.07 243.827 543.18 245.637 555.53C248.715 553.101 251.182 549.986 252.842 546.434C254.502 542.881 255.308 538.99 255.197 535.07Z" fill="#57B894"/>
<path d="M195.316 515.102C195.316 515.102 199.806 530.722 214.056 533.532C212.587 529.211 210.127 525.293 206.873 522.093C203.619 518.893 199.661 516.499 195.316 515.102Z" fill="#57B894"/>
<path d="M261.397 457C261.397 457 243.587 468.63 245.527 487.51C250.369 484.015 254.326 479.436 257.082 474.138C259.837 468.84 261.315 462.971 261.397 457Z" fill="#57B894"/>
<path d="M202.117 560.34C202.467 560.693 202.856 561.005 203.277 561.27C204.047 561.83 205.137 562.66 206.467 563.71C209.923 566.465 213.15 569.495 216.117 572.77C219.071 576.067 221.746 579.602 224.117 583.34C225.027 584.77 225.737 585.95 226.207 586.78C226.426 587.222 226.695 587.638 227.007 588.02C226.856 587.548 226.658 587.093 226.417 586.66C226.007 585.8 225.357 584.58 224.487 583.11C219.931 575.429 213.906 568.722 206.757 563.37C205.387 562.37 204.247 561.57 203.437 561.08C203.023 560.79 202.581 560.542 202.117 560.34Z" fill="#263238"/>
<path d="M217.617 571.951C218.906 564.609 217.45 557.049 213.527 550.711C211.607 563.951 217.617 571.951 217.617 571.951Z" fill="#57B894"/>
<path d="M205.626 565.41C200.916 562.73 195.386 561.872 190.086 563C198.686 567.56 205.626 565.41 205.626 565.41Z" fill="#57B894"/>
<path d="M258.094 590L251.414 633.92H212.584L203.574 590.63L258.094 590Z" fill="#9295A9"/>
<path d="M262.525 581.301V589.521C262.525 589.946 262.442 590.368 262.279 590.761C262.116 591.154 261.877 591.511 261.577 591.812C261.276 592.113 260.918 592.351 260.525 592.514C260.132 592.677 259.711 592.761 259.285 592.761H203.095C202.67 592.761 202.249 592.677 201.856 592.514C201.462 592.351 201.105 592.113 200.804 591.812C200.504 591.511 200.265 591.154 200.102 590.761C199.939 590.368 199.855 589.946 199.855 589.521V581.301H262.525Z" fill="#9295A9"/>
<path d="M204.715 592.911C204.715 593.061 217.005 593.181 232.175 593.181C247.345 593.181 259.635 593.061 259.635 592.911C259.635 592.761 247.345 592.641 232.175 592.641C217.005 592.641 204.715 592.761 204.715 592.911Z" fill="#263238"/>
<path d="M144.029 582.576L142.667 616.244C142.667 616.244 176.418 628.934 176.767 635.179L111.324 634.947V582.41L144.029 582.576Z" fill="#263238"/>
<path d="M122.436 613.356C121.809 613.549 121.273 613.964 120.931 614.524C120.588 615.084 120.462 615.749 120.576 616.396C120.745 617.032 121.15 617.58 121.708 617.929C122.267 618.277 122.937 618.4 123.582 618.273C124.249 618.068 124.817 617.624 125.175 617.026C125.534 616.428 125.659 615.718 125.526 615.034C125.299 614.378 124.824 613.837 124.203 613.527C123.582 613.216 122.865 613.161 122.204 613.373" fill="#E0E0E0"/>
<path d="M111.324 634.946L111.524 629.664L174.126 631.94C174.126 631.94 177.032 633.219 176.684 635.262L111.324 634.946Z" fill="#3F3D56"/>
<path d="M143.633 615.914C143.633 616.229 141.972 616.362 140.461 617.392C138.949 618.422 138.036 619.751 137.737 619.618C137.438 619.485 137.936 617.641 139.863 616.445C141.789 615.249 143.716 615.615 143.633 615.914Z" fill="white"/>
<path d="M150.476 618.786C150.559 619.085 149.164 619.617 148.084 620.962C147.005 622.307 146.672 623.736 146.423 623.719C146.174 623.703 145.908 621.909 147.287 620.264C148.666 618.62 150.476 618.471 150.476 618.786Z" fill="white"/>
<path d="M154.343 627.008C154.044 627.008 153.612 625.48 154.443 623.686C155.273 621.892 156.768 621.245 156.901 621.51C157.034 621.776 156.104 622.706 155.44 624.151C154.775 625.596 154.659 626.975 154.343 627.008Z" fill="white"/>
<path d="M143.1 608.208C142.967 608.491 141.439 608.042 139.778 608.208C138.117 608.374 136.573 608.889 136.456 608.607C136.34 608.325 137.652 607.212 139.778 607.095C141.904 606.979 143.266 607.959 143.1 608.208Z" fill="white"/>
<path d="M63.7726 581.793L61.2479 622.487L68.5396 655.241C68.6568 655.797 68.6594 656.37 68.5471 656.927C68.4348 657.483 68.21 658.011 67.8865 658.478C67.563 658.944 67.1477 659.34 66.6659 659.64C66.1841 659.94 65.6461 660.139 65.0848 660.224C64.4283 660.322 63.758 660.264 63.1286 660.053C62.4993 659.842 61.9288 659.485 61.4638 659.012C55.4843 652.8 33.5927 629.878 33.9415 626.905C34.3401 623.467 33.7422 583.803 33.7422 583.803L63.7726 581.793Z" fill="#263238"/>
<path d="M65.0828 660.194L34.0392 624.117V625.778C33.986 627.27 34.4561 628.733 35.368 629.914C37.8429 633.053 44.8522 641.541 61.4121 658.915C61.8882 659.407 62.478 659.775 63.1296 659.987C63.7811 660.198 64.4747 660.246 65.1493 660.127L65.0828 660.194Z" fill="#3F3D56"/>
<g opacity="0.6">
<path d="M42.9109 611.312C43.3975 611.699 43.7243 612.252 43.8285 612.865C43.9327 613.478 43.807 614.108 43.4756 614.634C43.1082 615.147 42.5545 615.495 41.9333 615.603C41.3122 615.712 40.6732 615.573 40.1536 615.216C39.637 614.805 39.2914 614.218 39.1839 613.567C39.0765 612.916 39.2149 612.249 39.5723 611.694C40.0114 611.213 40.6195 610.92 41.2696 610.877C41.9196 610.833 42.5613 611.043 43.0603 611.462" fill="white"/>
</g>
<path d="M56.4821 642.04C57.5067 640.802 58.7582 639.77 60.1694 639.001C61.6901 638.474 63.2948 638.232 64.9032 638.286C64.9032 638.187 64.4381 637.855 63.4914 637.688C62.24 637.491 60.9582 637.665 59.804 638.187C58.6553 638.701 57.6761 639.53 56.9804 640.579C56.4655 641.392 56.3824 642.007 56.4821 642.04Z" fill="white"/>
<path d="M59.1727 647.609C60.3603 646.979 61.5863 646.424 62.8435 645.948C64.9695 645.383 66.7634 645.848 66.8464 645.582C66.2317 645.174 65.5294 644.916 64.7965 644.829C64.0635 644.743 63.3205 644.83 62.6275 645.084C60.1859 645.732 58.9568 647.492 59.1727 647.609Z" fill="white"/>
<path d="M51.3486 634.837C53.1091 633.747 54.9465 632.787 56.8465 631.964C58.8514 631.421 60.8948 631.033 62.9588 630.801C60.8376 630.298 58.6171 630.411 56.5577 631.126C54.4983 631.841 52.6855 633.128 51.332 634.837H51.3486Z" fill="white"/>
<path d="M51.0156 622.404C51.1153 622.653 53.3908 621.789 56.3307 621.806C59.2707 621.822 61.5628 622.603 61.6625 622.354C60.1117 621.257 58.2229 620.745 56.3307 620.909C54.4378 620.761 52.554 621.291 51.0156 622.404Z" fill="white"/>
<path d="M51.5151 610.428C53.3107 609.927 55.1655 609.67 57.0296 609.664C58.8813 609.964 60.6817 610.523 62.3779 611.325C62.3779 611.241 62.0291 610.71 61.1155 610.129C59.8956 609.391 58.5181 608.952 57.096 608.85C55.6773 608.742 54.2536 608.976 52.9436 609.531C51.9636 609.879 51.4653 610.345 51.5151 610.428Z" fill="white"/>
<path d="M57.0457 607.392C57.2056 606.893 57.2455 606.364 57.1619 605.847C57.0795 604.434 56.7183 603.051 56.0989 601.778C55.7265 600.8 55.0438 599.972 54.1556 599.419C53.8458 599.263 53.4951 599.209 53.1525 599.262C52.81 599.316 52.4928 599.475 52.2455 599.718C51.7915 600.219 51.5373 600.869 51.5312 601.545C51.5729 602.92 52.0937 604.237 53.0036 605.268C53.9136 606.299 55.1554 606.98 56.5142 607.193C57.8581 607.382 59.2279 607.167 60.4494 606.575C61.6709 605.984 62.6889 605.042 63.374 603.871C63.5402 603.572 63.6423 603.242 63.6737 602.902C63.7052 602.561 63.6653 602.218 63.5567 601.894C63.4086 601.587 63.1698 601.334 62.8727 601.167C62.5756 601.001 62.2345 600.93 61.8957 600.964C60.8919 601.146 59.953 601.587 59.1717 602.243C58.0246 603.076 57.0395 604.112 56.265 605.299C55.9415 605.704 55.7092 606.175 55.584 606.678C56.6969 605.18 58.0296 603.858 59.5371 602.758C60.2406 602.211 61.0677 601.846 61.9456 601.695C62.1329 601.671 62.3229 601.709 62.4874 601.801C62.6519 601.894 62.7822 602.037 62.8591 602.21C62.9204 602.425 62.9343 602.65 62.8999 602.871C62.8654 603.092 62.7835 603.303 62.6598 603.489C62.0397 604.483 61.1454 605.277 60.0845 605.775C59.0237 606.273 57.8415 606.454 56.6803 606.296C55.5368 606.109 54.491 605.538 53.7151 604.678C52.9392 603.818 52.4794 602.718 52.4116 601.562C52.4002 601.09 52.5595 600.63 52.86 600.266C52.9936 600.131 53.1663 600.04 53.354 600.007C53.5416 599.974 53.7347 600.001 53.9064 600.084C54.6504 600.548 55.231 601.233 55.5674 602.044C56.3797 603.722 56.8805 605.534 57.0457 607.392Z" fill="white"/>
<path d="M168.249 299.729C168.249 299.729 168.514 317.85 167.318 341.253C166.837 350.305 147.769 602.242 147.769 602.242L106.56 603.271L112.241 367.812L108.919 368.642C108.919 368.642 88.9039 469.513 87.5585 485.807C86.2795 500.441 69.9688 606.959 69.9688 606.959L32.2148 608.371L40.7356 467.803L51.3493 332.865L55.6346 293.566L168.249 299.729Z" fill="#3F3D56"/>
<path d="M105.129 344.016C105.645 344.388 106.202 344.7 106.79 344.946C108.425 345.726 110.156 346.284 111.939 346.607C113.196 346.838 114.485 346.838 115.743 346.607C117.214 346.333 118.575 345.641 119.662 344.614C120.787 343.413 121.582 341.943 121.971 340.345C122.403 338.684 122.652 337.023 122.935 335.362C124.081 328.535 124.828 322.307 125.227 317.805C125.426 315.546 125.559 313.719 125.625 312.457C125.69 311.8 125.69 311.138 125.625 310.48C125.43 311.111 125.313 311.764 125.277 312.424L124.612 317.739C124.047 322.224 123.217 328.402 122.087 335.212C121.506 338.534 121.141 341.989 119.098 344.032C118.142 344.873 117.012 345.492 115.788 345.846C114.565 346.199 113.279 346.277 112.022 346.075C110.276 345.814 108.566 345.357 106.923 344.713C106.353 344.415 105.751 344.181 105.129 344.016Z" fill="#263238"/>
<path d="M116.742 311.811C116.742 311.811 116.459 311.595 115.878 311.578C115.051 311.579 114.249 311.86 113.602 312.375C113.099 312.751 112.688 313.237 112.4 313.795C112.112 314.353 111.955 314.97 111.941 315.598C112.014 316.379 112.31 317.122 112.793 317.739C113.277 318.357 113.928 318.822 114.669 319.079C115.409 319.337 116.209 319.376 116.971 319.191C117.733 319.007 118.426 318.607 118.967 318.039C119.346 317.539 119.605 316.958 119.726 316.343C119.847 315.727 119.826 315.091 119.665 314.485C119.474 313.674 119.011 312.952 118.353 312.442C117.888 312.093 117.556 312.06 117.539 312.093C118.306 312.746 118.838 313.633 119.05 314.618C119.147 315.124 119.134 315.645 119.014 316.146C118.894 316.647 118.668 317.117 118.353 317.524C117.931 317.958 117.392 318.258 116.801 318.388C116.211 318.518 115.595 318.472 115.031 318.255C114.436 318.081 113.907 317.733 113.511 317.257C113.115 316.781 112.869 316.197 112.805 315.581C112.809 315.065 112.921 314.555 113.136 314.086C113.351 313.616 113.663 313.197 114.051 312.857C114.815 312.233 115.757 311.866 116.742 311.811Z" fill="#263238"/>
<path d="M51.8633 330.411C52.3212 330.547 52.7978 330.608 53.2751 330.594C54.5633 330.691 55.857 330.691 57.1452 330.594C65.7351 329.882 73.8178 326.234 80.0334 320.262C80.9472 319.354 81.7964 318.383 82.5747 317.356C83.1394 316.625 83.4218 316.21 83.372 316.176C83.3221 316.143 81.9601 317.621 79.5517 319.764C73.2496 325.359 65.3941 328.905 57.0289 329.929C53.8731 330.311 51.8633 330.261 51.8633 330.411Z" fill="#263238"/>
<path d="M151.621 311.684C152.035 313.114 152.591 314.5 153.282 315.819C154.739 318.891 156.521 321.798 158.597 324.49C160.523 326.975 162.756 329.207 165.241 331.134C166.153 331.939 167.191 332.59 168.314 333.06C167.408 332.189 166.454 331.368 165.457 330.602C163.1 328.557 160.947 326.287 159.029 323.825C157.014 321.21 155.219 318.433 153.664 315.52C153.05 314.207 152.368 312.926 151.621 311.684Z" fill="#263238"/>
<path d="M273.188 102.504C273.188 102.504 275.529 88.3022 275.147 86.6081C274.765 84.9139 280.911 69.8654 280.911 69.8654C280.911 69.8654 285.213 69.5665 284.449 76.0111C283.685 82.4556 283.22 85.08 283.22 85.08L283.834 86.9236L294.116 83.2363C294.116 83.2363 308.865 74.9314 311.639 73.7023C314.413 72.4732 320.243 69.5665 322.851 72.4732C322.851 72.4732 327.003 70.0149 328.382 71.8586C328.771 72.2589 329.057 72.7475 329.216 73.2827C329.376 73.8178 329.403 74.3835 329.295 74.9314L327.634 76.5924C327.634 76.5924 329.013 76.4429 329.411 78.7517C329.81 81.0604 312.901 93.036 312.901 93.036L312.436 94.2651C312.436 94.2651 325.026 88.1195 325.957 89.0331C326.887 89.9466 327.8 90.5778 326.256 92.2554C324.711 93.933 293.036 115.16 288.934 116.838C284.831 118.515 283.951 119.03 283.951 119.03L273.188 102.504Z" fill="#FFBE9D"/>
<path d="M326.539 76.4766C323.785 78.7463 320.852 80.7903 317.769 82.5889C314.846 84.6271 311.763 86.4268 308.551 87.9705C311.297 85.6983 314.225 83.6541 317.304 81.8581C320.232 79.8177 323.32 78.0179 326.539 76.4766Z" fill="#EB996E"/>
<path d="M323.101 72.8203C323.2 73.0362 319.081 75.2121 314.198 78.2185C309.314 81.2248 305.478 83.8824 305.328 83.6831C307.858 81.2682 310.682 79.1811 313.733 77.471C316.641 75.5214 319.79 73.958 323.101 72.8203Z" fill="#EB996E"/>
<path d="M285.527 107.52C286.089 106.717 286.48 105.806 286.673 104.845C286.888 102.445 286.788 100.027 286.374 97.6533C285.728 94.288 284.896 90.961 283.883 87.6875C285.712 90.6934 286.847 94.0698 287.205 97.5703C287.63 100.032 287.63 102.549 287.205 105.011C286.873 106.938 285.544 107.636 285.527 107.52Z" fill="#EB996E"/>
<path d="M65.3849 116.73C65.3849 116.73 37.3145 131.479 33.5773 133.556C29.8401 135.632 54.2066 237.25 54.2066 237.25L49.0908 294.454C48.8957 296.575 49.1225 298.713 49.7583 300.746C50.394 302.779 51.426 304.665 52.7948 306.297C52.7948 306.297 133.352 310.001 142.487 308.755C153.101 307.31 166.256 305.167 168.332 299.769C170.408 294.371 164.379 150.282 164.379 150.282L155.659 119.886C155.659 119.886 146.108 118.64 138.634 117.81C131.159 116.979 122.439 115.235 122.439 115.235L116.991 106.598L72.1451 103.957L65.3849 116.73Z" fill="#FFCB05"/>
<path d="M130.444 308.948C130.423 308.8 130.423 308.649 130.444 308.5C130.444 308.168 130.444 307.736 130.444 307.221C130.444 306.008 130.444 304.347 130.444 302.238C130.444 297.919 130.328 291.674 130.096 283.967C129.863 276.26 129.547 267.059 129.033 256.86C128.518 246.662 127.654 235.483 126.541 223.757C125.428 212.031 124 200.885 122.472 190.787C120.944 180.688 119.249 171.669 117.489 164.211L116.293 158.83C115.861 157.169 115.462 155.508 115.08 154.079C114.333 151.106 113.685 148.548 113.037 146.489L111.659 141.705C111.526 141.19 111.41 140.791 111.327 140.459C111.308 140.316 111.308 140.171 111.327 140.027C111.327 140.027 111.327 140.16 111.493 140.426L111.908 141.655C112.29 142.801 112.788 144.379 113.453 146.389C114.117 148.399 114.831 150.99 115.629 153.946L116.907 158.697C117.306 160.358 117.721 162.201 118.17 164.078C119.98 171.586 121.658 180.688 123.302 190.654C124.947 200.62 126.292 211.914 127.455 223.657C128.617 235.4 129.332 246.595 129.863 256.877C130.395 267.158 130.677 276.277 130.76 284.001C130.843 291.724 130.876 297.986 130.76 302.271C130.76 304.381 130.76 306.042 130.76 307.254C130.76 307.769 130.76 308.201 130.76 308.533C130.76 308.865 130.444 308.948 130.444 308.948Z" fill="#263238"/>
<path d="M152.901 170.423C152.901 170.423 199.292 172.881 211.035 170.423C222.778 167.965 256.263 147.934 262.724 141.256C269.185 134.579 285.978 119.132 285.978 119.132L274.75 98.4531L258.904 110.396C258.904 110.396 213.094 132.885 209.573 132.885C206.052 132.885 178.446 131.822 178.446 131.822C178.446 131.822 162.302 120.893 155.658 119.88C149.014 118.866 146.406 130.377 146.406 130.377L152.901 170.423Z" fill="#FFCB05"/>
<path d="M164.294 150.238C164.45 151.211 164.538 152.193 164.559 153.178C164.692 155.055 164.809 157.796 164.958 161.167C165.224 167.928 165.456 177.262 165.722 187.56C165.988 197.858 166.337 207.193 166.652 213.937C166.818 217.259 166.951 219.9 167.051 221.926C167.12 222.905 167.12 223.887 167.051 224.866C166.838 223.904 166.705 222.926 166.652 221.943C166.453 220.066 166.22 217.342 165.988 213.97C165.49 207.226 165.058 197.892 164.792 187.577C164.526 177.262 164.393 167.944 164.277 161.184C164.277 157.862 164.277 155.221 164.161 153.178C164.124 152.196 164.169 151.213 164.294 150.238Z" fill="#263238"/>
<g opacity="0.3">
<path d="M162.731 223.739C162.475 222.4 161.883 221.148 161.012 220.1C160.141 219.051 159.018 218.241 157.748 217.743C155.226 216.747 152.538 216.24 149.826 216.248C114.449 214.711 79.8187 226.735 53.0075 249.867L51.6289 259.45C60.1497 263.088 70.0491 260.596 78.5035 256.793C86.9578 252.989 94.9803 247.873 104.082 246.113C111.972 244.585 120.476 245.614 127.751 242.209C132.352 240.067 136.056 236.296 140.939 234.718C145.241 233.323 149.942 233.838 154.344 232.825C158.745 231.812 163.28 228.224 162.731 223.739Z" fill="black"/>
</g>
<path d="M33.5754 133.586C33.5754 133.586 17.8959 147.04 15.7698 157.67C13.6438 168.3 6.56802 197.334 6.56802 197.334C6.56802 197.334 -0.873146 232.032 0.189878 238.759C1.2529 245.486 3.51183 260.501 18.0121 262.278C32.5124 264.055 83.0558 245.486 83.0558 245.486L96.8751 239.822L91.56 214.326L67.8247 220.355L44.5711 222.199L47.6937 201.005L52.8427 187.385C52.8427 187.385 52.5604 172.536 46.8964 160.145C41.2325 147.754 33.5754 133.586 33.5754 133.586Z" fill="#FFCB05"/>
<path d="M120.179 202.18L138.45 164.808C139.064 163.569 140.01 162.526 141.184 161.796C142.357 161.065 143.711 160.676 145.094 160.672H191.152C191.542 160.672 191.926 160.773 192.265 160.965C192.605 161.157 192.889 161.434 193.089 161.769C193.29 162.103 193.401 162.484 193.411 162.874C193.42 163.264 193.329 163.65 193.145 163.994L161.969 222.128C161.544 222.934 160.905 223.608 160.123 224.077C159.341 224.545 158.446 224.79 157.534 224.785H109.848L120.179 202.18Z" fill="#00ADEF"/>
<path d="M192.928 164.274C192.625 164.313 192.318 164.313 192.014 164.274H189.373H179.657L147.683 164.008C146.202 163.99 144.74 164.344 143.431 165.038C142.22 165.799 141.243 166.88 140.607 168.161C139.262 170.719 138.132 173.376 136.97 175.801L130.857 188.823L126.672 197.577C126.19 198.54 125.808 199.321 125.492 199.935C125.369 200.223 125.213 200.497 125.027 200.749C125.092 200.443 125.198 200.146 125.343 199.869C125.609 199.221 125.957 198.424 126.373 197.444L130.309 188.574L136.256 175.469C137.402 173.011 138.481 170.486 139.86 167.745C140.577 166.333 141.661 165.139 142.999 164.291C144.433 163.536 146.029 163.143 147.65 163.145C160.19 163.145 171.468 163.493 179.673 163.659L189.373 163.942L192.014 164.058C192.328 164.086 192.635 164.159 192.928 164.274Z" fill="#263238"/>
<path d="M164.542 172.463C164.761 172.544 164.959 172.675 165.119 172.845C165.279 173.015 165.398 173.22 165.466 173.444C165.533 173.668 165.548 173.904 165.509 174.134C165.47 174.365 165.377 174.583 165.24 174.772C164.98 175.161 164.605 175.459 164.167 175.623C163.728 175.787 163.249 175.809 162.798 175.685C162.493 175.624 162.211 175.477 161.985 175.263C161.758 175.048 161.597 174.775 161.519 174.473C161.493 174.013 161.616 173.558 161.871 173.174C162.125 172.791 162.497 172.501 162.931 172.347C163.469 172.247 164.024 172.287 164.542 172.463Z" fill="white"/>
<path d="M92.0234 216.582L95.1959 213.26C95.1959 213.26 99.8632 206.483 101.84 204.357C103.816 202.231 115.128 194.806 115.128 194.806C115.128 194.806 120.659 187.332 121.506 187.332C122.353 187.332 125.027 187.814 124.313 191.285C123.628 194.697 122.615 198.034 121.29 201.251L145.739 201.799C146.502 201.802 147.255 201.973 147.944 202.3C148.633 202.628 149.242 203.103 149.726 203.693C150.357 204.523 150.623 205.354 149.477 205.985C145.246 207.506 140.932 208.781 136.554 209.805L141.188 208.609C141.188 208.609 142.185 213.044 139.245 215.153C138.102 215.847 137.052 216.684 136.122 217.645C136.122 217.645 135.973 221.847 134.71 223.541C133.448 225.235 119.662 232.328 119.662 232.328C119.662 232.328 110.859 234.919 106.374 234.72C101.89 234.52 97.3385 237.028 96.8403 237.161C96.342 237.294 92.0234 216.582 92.0234 216.582Z" fill="#FFBE9D"/>
<path d="M123.634 201.428C121.368 201.843 119.076 202.098 116.774 202.192C114.489 202.603 112.162 202.72 109.848 202.541C112.072 201.865 114.37 201.458 116.691 201.329C118.993 200.948 121.344 200.982 123.634 201.428Z" fill="#EB996E"/>
<path d="M120.376 212.331C120.293 212.065 124.761 210.853 130.342 210.205C133.132 209.856 135.674 209.607 137.501 209.408C138.486 209.22 139.488 209.142 140.491 209.175C139.578 209.621 138.594 209.902 137.584 210.006C135.773 210.371 133.249 210.72 130.458 211.069C124.877 211.717 120.426 212.53 120.376 212.331Z" fill="#EB996E"/>
<path d="M120.379 220.335C120.379 220.086 123.933 219.969 128.235 219.222C132.537 218.475 135.942 217.412 136.042 217.561C133.667 218.849 131.068 219.672 128.385 219.986C125.762 220.604 123.046 220.723 120.379 220.335Z" fill="#EB996E"/>
<path d="M121.855 229.303C121.606 229.303 121.257 228.373 121.057 227.16C120.858 225.948 120.875 224.901 121.057 224.868C121.24 224.835 121.639 225.782 121.838 227.011C122.037 228.24 122.087 229.253 121.855 229.303Z" fill="#EB996E"/>
<path d="M119.663 218.558C119.414 218.558 119.281 217.744 118.866 216.897C118.451 216.05 117.919 215.452 118.052 215.236C118.185 215.02 119.115 215.419 119.713 216.499C120.311 217.578 119.896 218.608 119.663 218.558Z" fill="#EB996E"/>
<path d="M116.873 207.811C116.624 207.811 116.375 207.33 116.076 206.748C115.777 206.167 115.528 205.652 115.694 205.486C115.86 205.32 116.491 205.619 116.857 206.366C117.222 207.114 117.106 207.795 116.873 207.811Z" fill="#EB996E"/>
<path d="M111.11 139.981C110.621 139.752 110.154 139.48 109.714 139.167L105.828 136.825C104.167 135.829 102.174 134.649 99.9147 133.254C97.3707 131.753 94.9492 130.054 92.6729 128.172L93.304 128.055C91.4438 131.706 90.5462 135.77 90.6963 139.865V140.845L89.9489 140.214C82.7735 134.085 76.3123 128.454 71.8276 124.169C69.5853 122.026 67.8081 120.265 66.6288 119.003C65.9757 118.383 65.3807 117.705 64.8516 116.977C65.5709 117.511 66.2433 118.105 66.8613 118.754L72.2429 123.737C76.8272 127.889 83.3216 133.437 90.5136 139.582L89.7994 139.931C89.6219 135.681 90.5671 131.459 92.54 127.69L92.7725 127.225L93.1712 127.574C95.3936 129.452 97.7532 131.162 100.23 132.689L106.044 136.393C107.705 137.44 108.934 138.287 109.781 138.918C110.269 139.212 110.716 139.569 111.11 139.981Z" fill="#263238"/>
<path d="M122.438 115.227C122.818 115.786 123.13 116.388 123.368 117.02C123.916 118.2 124.631 119.944 125.461 122.103C126.292 124.262 127.222 126.87 128.102 129.827C128.335 130.574 128.534 131.338 128.7 132.135C128.82 132.584 128.859 133.051 128.816 133.514C128.784 133.672 128.691 133.811 128.558 133.901C128.424 133.991 128.261 134.025 128.102 133.996C127.961 133.962 127.834 133.887 127.737 133.78L127.637 133.647L127.255 133.165L124.099 129.062L120.013 123.731H120.711C118.17 128.548 115.844 132.683 114.067 135.557C113.187 137.002 112.406 138.115 111.924 138.879C111.672 139.285 111.371 139.659 111.027 139.992C111.189 139.54 111.407 139.11 111.675 138.713C112.207 137.783 112.854 136.636 113.602 135.291C115.263 132.351 117.455 128.182 119.963 123.332L120.262 122.751L120.661 123.282C121.957 124.943 123.335 126.72 124.747 128.564L127.886 132.65L128.252 133.148L128.351 133.265L128.202 133.431H127.986C127.988 133.085 127.955 132.74 127.886 132.401C127.72 131.637 127.537 130.873 127.322 130.142C126.508 127.219 125.661 124.611 124.863 122.419L123.053 117.236C122.768 116.593 122.562 115.919 122.438 115.227Z" fill="#263238"/>
<path d="M274.117 130.178C273.193 129.351 272.373 128.414 271.675 127.388C270.247 125.611 268.353 123.103 266.393 120.213C264.693 117.752 263.214 115.145 261.975 112.423C261.397 111.313 261.047 110.099 260.945 108.852C261.078 108.852 261.493 110.147 262.606 112.174C263.989 114.784 265.519 117.312 267.191 119.748C270.994 125.445 274.349 130.012 274.117 130.178Z" fill="#263238"/>
<path d="M75.1176 248.187C74.5617 246.877 74.1226 245.521 73.8054 244.134C73.0912 241.626 72.1444 238.138 71.1146 234.268C70.0848 230.398 69.3374 226.843 68.8889 224.302C68.5698 222.912 68.4027 221.492 68.3906 220.066C68.8841 221.396 69.2512 222.77 69.4869 224.169C70.0848 226.727 70.9485 230.232 71.9451 234.135C72.9417 238.038 73.8386 241.51 74.4034 244.101C74.7871 245.433 75.0266 246.803 75.1176 248.187Z" fill="#263238"/>
<path d="M81.4766 223.457C81.4766 223.573 80.9949 223.922 80.8786 224.803C80.8205 225.287 80.9514 225.775 81.244 226.165C81.4383 226.364 81.6833 226.506 81.9526 226.577C82.2219 226.647 82.5053 226.642 82.7721 226.563C83.0457 226.512 83.2994 226.385 83.5049 226.197C83.7103 226.009 83.8592 225.768 83.9348 225.5C83.9844 225.264 83.9818 225.02 83.9273 224.784C83.8728 224.549 83.7677 224.329 83.6192 224.138C83.1209 223.391 82.4565 223.341 82.4732 223.208C82.4898 223.075 83.2704 222.892 84.1341 223.74C84.3727 223.992 84.5517 224.294 84.658 224.625C84.7644 224.955 84.7953 225.306 84.7487 225.65C84.6612 226.081 84.4495 226.478 84.1397 226.79C83.8298 227.103 83.4353 227.319 83.0047 227.41C82.5826 227.53 82.1344 227.521 81.7173 227.385C81.3002 227.249 80.9331 226.992 80.6627 226.646C80.462 226.366 80.3265 226.045 80.2662 225.706C80.2058 225.367 80.2221 225.018 80.3139 224.686C80.6295 223.54 81.4766 223.358 81.4766 223.457Z" fill="#263238"/>
<path d="M15.1406 219.821C16.5042 219.248 17.9409 218.868 19.4093 218.691C26.4522 217.466 33.6903 218.037 40.4539 220.352C41.87 220.762 43.2227 221.365 44.4734 222.146C43.0503 221.823 41.6472 221.419 40.2711 220.933C36.903 219.967 33.4483 219.333 29.9565 219.04C26.4696 218.778 22.9655 218.85 19.4924 219.256C18.053 219.522 16.6003 219.711 15.1406 219.821Z" fill="#263238"/>
<path d="M29.8056 213.492C32.749 213.737 35.5938 214.67 38.1104 216.216C40.7799 217.52 43.1022 219.439 44.8872 221.814C44.7045 221.996 41.8808 219.256 37.6952 216.98C33.5095 214.705 29.7391 213.741 29.8056 213.492Z" fill="#263238"/>
<path d="M49.6369 188.461C49.6559 188.665 49.6559 188.871 49.6369 189.075C49.6369 189.507 49.504 190.089 49.4209 190.736C49.205 192.397 48.8894 194.557 48.5074 197.38C47.6603 203.194 46.481 211.449 45.0194 221.514C45.0194 221.725 45.0194 221.957 45.0194 222.212L44.654 221.846L69.5686 219.505L91.6263 213.89L92.0581 213.774V214.223C92.49 216.232 92.9385 218.392 93.3869 220.568C94.7655 227.211 96.0943 233.606 97.3733 239.719V240.067L97.0411 240.2C81.89 246.513 66.3569 251.866 50.5338 256.229C44.6041 257.89 39.8371 258.969 36.5484 259.717L32.7614 260.547L31.7814 260.73C31.5655 260.73 31.4492 260.73 31.4492 260.73C31.4492 260.73 31.5489 260.73 31.7648 260.614L32.7282 260.348L36.482 259.384C39.8039 258.554 44.4879 257.325 50.3843 255.647C66.1367 251.133 81.6104 245.698 96.7255 239.37L96.4763 239.835L92.5398 220.767C92.0914 218.591 91.6429 216.432 91.211 214.405L91.7425 214.738L69.6848 220.318L44.7702 222.527H44.3716V222.129V221.431C46.0326 211.382 47.2451 203.161 48.142 197.347C48.6071 194.54 48.9725 192.364 49.2382 190.703C49.3711 189.989 49.4708 189.424 49.5372 189.042C49.5512 188.846 49.5846 188.651 49.6369 188.461Z" fill="#263238"/>
<path d="M51.2985 163.43C50.8588 162.034 50.4984 160.614 50.2188 159.178C48.4914 152.352 45.3133 145.979 40.9008 140.492C39.9234 139.404 39.0084 138.262 38.1602 137.07C39.3661 137.922 40.4454 138.939 41.3658 140.093C46.1152 145.478 49.3734 152.012 50.8168 159.045C51.189 160.476 51.3513 161.953 51.2985 163.43Z" fill="#263238"/>
<g opacity="0.3">
<path d="M52.1461 172.062C50.1363 182.958 48.7079 195.316 46.9805 206.212C47.3791 206.71 47.1632 208.355 47.5784 208.87C49.937 202.923 51.874 196.818 53.3752 190.599C54.3034 184.404 53.8842 178.081 52.1461 172.062Z" fill="black"/>
</g>
<g opacity="0.3">
<path d="M94.916 137.142L109.865 139.218C103.891 135.974 98.2352 132.176 92.9727 127.873C91.1124 132.258 90.066 133.87 90.3816 140.214C83.1397 134.135 76.2965 127.192 69.0547 121.113C76.4959 132.087 85.6216 141.818 96.0953 149.948C95.1304 145.751 94.7338 141.444 94.916 137.142Z" fill="black"/>
</g>
<path d="M275.926 115.89C275.926 116.006 275.528 116.255 275.445 116.969C275.411 117.154 275.419 117.343 275.468 117.524C275.517 117.705 275.605 117.873 275.727 118.016C275.88 118.166 276.075 118.265 276.285 118.301C276.496 118.336 276.713 118.306 276.906 118.215C277.107 118.154 277.285 118.034 277.419 117.872C277.552 117.709 277.633 117.511 277.654 117.302C277.649 117.115 277.604 116.931 277.524 116.763C277.444 116.594 277.33 116.444 277.189 116.322C276.657 115.84 276.126 115.94 276.092 115.823C276.059 115.707 276.657 115.308 277.538 115.823C277.797 115.974 278.016 116.186 278.176 116.441C278.335 116.696 278.429 116.985 278.451 117.285C278.439 117.656 278.313 118.015 278.09 118.312C277.867 118.609 277.558 118.83 277.205 118.946C276.849 119.095 276.454 119.127 276.078 119.038C275.702 118.948 275.364 118.741 275.113 118.448C274.941 118.211 274.827 117.938 274.781 117.649C274.735 117.36 274.757 117.065 274.847 116.787C275.245 115.857 275.943 115.774 275.926 115.89Z" fill="#263238"/>
<path d="M87.7062 6.78349C88.4507 5.30556 89.6341 4.09404 91.0941 3.31496C92.5541 2.53589 94.2193 2.22739 95.8616 2.43175C97.76 0.896147 100.118 0.0405407 102.56 0.00140477C105.001 -0.0377311 107.385 0.74185 109.332 2.21581C110.75 1.31455 112.376 0.794897 114.054 0.707248C115.732 0.619598 117.404 0.966926 118.907 1.71555C120.411 2.46418 121.696 3.5887 122.638 4.98008C123.579 6.37146 124.145 7.9825 124.281 9.65698C125.957 9.3338 127.693 9.54607 129.242 10.2638C130.792 10.9814 132.076 12.1682 132.913 13.656C133.751 15.1438 134.1 16.8574 133.91 18.5542C133.72 20.251 133.001 21.8451 131.855 23.1109C133.711 23.6507 135.302 24.8585 136.32 26.5016C137.338 28.1447 137.712 30.1066 137.37 32.0091C137.027 33.9115 135.992 35.6198 134.465 36.8045C132.937 37.9893 131.026 38.5665 129.098 38.425L89.4834 15.869C88.2806 14.7266 87.4632 13.238 87.1447 11.6099C86.8262 9.98183 87.0225 8.29498 87.7062 6.78349Z" fill="#263238"/>
<path d="M134.181 81.7275C133.981 73.1236 132.154 55.4509 130.294 39.4723C129.324 31.1977 125.28 23.5897 118.964 18.1566C112.648 12.7235 104.521 9.86208 96.1943 10.1395H94.5333C75.9304 11.9334 67.1439 28.5763 69.3862 46.9633L74.585 105.097L110.329 137.603L118.119 114.631L116.873 103.005C116.873 103.005 134.579 99.5165 134.181 81.7275Z" fill="#FFBE9D"/>
<path d="M117.021 102.872C108.75 103.144 100.575 101.034 93.4688 96.793C93.4687 96.793 99.3984 109.416 117.104 107.191L117.021 102.872Z" fill="#EB996E"/>
<path d="M125.76 54.9551C125.787 55.6156 125.556 56.2609 125.116 56.754C124.676 57.2471 124.06 57.5491 123.401 57.5961C123.079 57.6329 122.752 57.6051 122.441 57.5144C122.13 57.4236 121.84 57.2718 121.588 57.0677C121.335 56.8636 121.127 56.6113 120.973 56.3256C120.82 56.0399 120.725 55.7264 120.694 55.4036C120.666 54.7414 120.896 54.0942 121.336 53.5984C121.776 53.1027 122.391 52.7971 123.052 52.7461C123.376 52.7093 123.703 52.7377 124.016 52.8294C124.328 52.9212 124.619 53.0745 124.871 53.2803C125.124 53.4861 125.332 53.7404 125.485 54.028C125.637 54.3156 125.731 54.6308 125.76 54.9551Z" fill="#263238"/>
<path d="M126.771 48.3247C126.472 48.6569 124.495 47.2949 121.788 47.4111C119.08 47.5274 117.087 48.9392 116.805 48.6237C116.523 48.3081 116.954 47.8596 117.802 47.1952C118.954 46.3314 120.348 45.8494 121.788 45.8166C123.199 45.767 124.59 46.1684 125.758 46.9627C126.621 47.5772 126.92 48.1586 126.771 48.3247Z" fill="#263238"/>
<path d="M100.993 56.2843C101.025 56.9476 100.796 57.5971 100.355 58.0938C99.9145 58.5905 99.2968 58.8949 98.6344 58.9419C98.3118 58.9786 97.9851 58.9501 97.6737 58.8581C97.3623 58.7662 97.0725 58.6127 96.8216 58.4066C96.5706 58.2006 96.3636 57.9463 96.2128 57.6588C96.062 57.3712 95.9705 57.0563 95.9436 56.7327C95.916 56.0722 96.1469 55.427 96.5873 54.9339C97.0276 54.4408 97.6428 54.1388 98.3022 54.0918C98.6239 54.0527 98.9502 54.079 99.2615 54.1689C99.5729 54.2589 99.8628 54.4108 100.114 54.6155C100.365 54.8202 100.573 55.0736 100.724 55.3603C100.875 55.647 100.966 55.9613 100.993 56.2843Z" fill="#263238"/>
<path d="M99.9139 49.7673C99.6149 50.0995 97.6383 48.7541 94.9309 48.8537C92.2235 48.9534 90.247 50.3818 89.948 50.0662C89.649 49.7507 90.0975 49.3188 90.9612 48.6378C92.1138 47.774 93.5075 47.292 94.9475 47.2592C96.3702 47.2024 97.7734 47.6042 98.9505 48.4053C99.7644 49.0198 100.063 49.6012 99.9139 49.7673Z" fill="#263238"/>
<path d="M110.546 69.7013C111.97 69.1895 113.456 68.8656 114.964 68.738C115.662 68.6383 116.309 68.4888 116.409 68.0071C116.447 67.2823 116.262 66.5633 115.878 65.9475L113.619 60.6989C110.496 53.2411 108.204 47.0789 108.503 46.9626C108.802 46.8463 111.592 52.7926 114.715 60.2504C115.479 62.0775 116.193 63.8381 116.891 65.5157C117.349 66.3511 117.507 67.3184 117.339 68.2563C117.251 68.507 117.104 68.7329 116.91 68.915C116.717 69.0971 116.482 69.2301 116.226 69.3027C115.846 69.4316 115.449 69.5043 115.047 69.5186C113.56 69.7672 112.048 69.8286 110.546 69.7013Z" fill="#263238"/>
<path d="M102.505 71.875C102.937 71.875 103.053 74.8149 105.661 76.8579C108.268 78.9009 111.424 78.4358 111.457 78.8511C111.491 79.2663 110.776 79.449 109.448 79.5321C107.709 79.6296 105.994 79.0991 104.614 78.0372C103.283 77.0254 102.396 75.537 102.139 73.8848C102.056 72.6058 102.355 71.875 102.505 71.875Z" fill="#263238"/>
<path d="M100.247 39.0189C100.014 39.7664 97.2571 39.5172 94.068 40.0155C90.879 40.5138 88.3045 41.4772 87.856 40.8294C87.6567 40.5138 88.0885 39.7996 89.1017 39.0356C90.4627 38.091 92.0279 37.482 93.6694 37.2583C95.307 37.0057 96.9813 37.148 98.5527 37.6736C99.7486 38.1054 100.347 38.6535 100.247 39.0189Z" fill="#263238"/>
<path d="M125.495 40.4394C125.047 41.0872 123.137 40.4394 120.861 40.5557C118.585 40.672 116.692 41.1204 116.227 40.5557C116.028 40.2567 116.227 39.6255 117.124 39.011C118.221 38.2503 119.526 37.8445 120.861 37.8483C122.194 37.8293 123.499 38.2239 124.598 38.9778C125.412 39.5093 125.761 40.1404 125.495 40.4394Z" fill="#263238"/>
<path d="M128.301 31.3791C128.301 31.3791 123.218 20.4 117.753 17.975C111.109 15.0683 108.585 22.2935 102.339 20.782C96.0942 19.2706 89.7659 16.4635 83.5871 21.4797C76.8436 26.9609 80.2652 30.532 80.0658 38.4382C79.4347 70.5116 73.9036 79.7632 71.761 64.748C71.5118 63.0871 66.8943 61.941 65.9642 54.9815C64.7683 45.9624 64.0374 35.0498 65.8313 28.5056C67.3428 23.0244 70.2993 19.1875 75.6975 14.869C84.2017 8.05899 96.1939 7.49426 104.382 8.02577C112.571 8.55728 128.566 17.3937 128.301 31.3791Z" fill="#263238"/>
<path d="M72.8427 64.2193C72.7976 63.5669 72.6207 62.9305 72.3225 62.3485C72.0244 61.7665 71.6113 61.2511 71.1082 60.8334C70.6051 60.4157 70.0225 60.1044 69.3956 59.9184C68.7687 59.7324 68.1106 59.6755 67.4611 59.7513C64.1392 60.1831 60.5348 62.1929 60.9833 69.0361C61.7972 81.1944 73.8392 77.8725 73.8226 77.5237C73.806 77.1749 73.2247 69.3019 72.8427 64.2193Z" fill="#FFBE9D"/>
<path d="M70.9468 73.1224C70.9468 73.1224 70.7474 73.2885 70.3986 73.4712C69.9106 73.7192 69.3466 73.7726 68.8207 73.6206C67.9809 73.1871 67.2728 72.5361 66.7703 71.7356C66.2678 70.9351 65.9893 70.0144 65.9638 69.0696C65.8647 68.0351 65.9951 66.9916 66.3459 66.0134C66.4368 65.6241 66.6201 65.2624 66.8803 64.9588C67.1405 64.6553 67.4699 64.4188 67.8407 64.2694C68.0786 64.1912 68.3363 64.1982 68.5696 64.2891C68.8029 64.38 68.9974 64.5492 69.1197 64.7677C69.3024 65.0999 69.2526 65.349 69.319 65.3656C69.3854 65.3822 69.5681 65.1497 69.4353 64.6514C69.3441 64.3555 69.1571 64.0985 68.9037 63.9206C68.549 63.6944 68.1216 63.6113 67.7079 63.688C67.2182 63.8218 66.7707 64.078 66.4075 64.4325C66.0443 64.787 65.7773 65.2282 65.6316 65.7144C65.1774 66.8 65.0005 67.9816 65.1167 69.1526C65.3659 71.5943 66.7777 73.8034 68.5549 74.1355C68.8867 74.2057 69.2299 74.2018 69.56 74.1243C69.8902 74.0468 70.1992 73.8975 70.4651 73.6871C70.9468 73.4213 70.9468 73.139 70.9468 73.1224Z" fill="#EB996E"/>
<path d="M72.2608 40.6507C73.7971 41.8023 75.5946 42.5556 77.4929 42.8432C78.4439 42.9544 79.4031 42.7181 80.1937 42.1778C80.9842 41.6375 81.5529 40.8297 81.7948 39.9033C81.9111 39.0396 81.6785 38.0762 82.21 37.3952C82.7415 36.7142 84.0703 36.7972 85.1001 36.8637C86.8844 36.9419 88.6411 36.4033 90.0749 35.3385C91.5087 34.2737 92.5322 32.7477 92.9732 31.0171C93.5464 31.5876 94.3081 31.9293 95.1154 31.9782C95.9227 32.0272 96.7201 31.7799 97.3581 31.2828C98.5788 30.2119 99.6513 28.983 100.547 27.6287C100.995 26.9479 101.604 26.3874 102.319 25.9965C103.034 25.6055 103.835 25.396 104.65 25.3864C105.515 25.6483 106.406 25.8153 107.307 25.8846C108.968 25.6853 109.616 23.7752 109.799 22.1807C109.982 20.5861 110.114 18.7425 111.46 17.8289C112.805 16.9154 114.317 17.3971 115.795 17.5632C117.273 17.7293 119.117 17.314 119.482 15.9022C119.536 15.5167 119.51 15.1242 119.404 14.7496C119.298 14.3751 119.115 14.0266 118.868 13.7263C117.831 12.2871 116.337 11.2411 114.63 10.7586C112.924 10.2761 111.104 10.3854 109.467 11.0688C108.794 9.06667 107.544 7.30842 105.874 6.01561C104.204 4.7228 102.189 3.95329 100.082 3.80408C97.9755 3.65487 95.8718 4.13263 94.0362 5.17715C92.2006 6.22167 90.7153 7.78621 89.7675 9.67355C88.4383 8.552 86.859 7.7665 85.1626 7.3833C83.4663 7.0001 81.7027 7.03043 80.0205 7.47174C78.3383 7.91304 76.7869 8.75238 75.4971 9.91897C74.2073 11.0856 73.217 12.5452 72.6096 14.1748C71.1049 13.8366 69.534 13.9477 68.092 14.4945C66.6499 15.0412 65.4002 15.9994 64.4979 17.2502C63.5957 18.501 63.0806 19.9892 63.0168 21.5301C62.9529 23.071 63.343 24.5967 64.1386 25.9179C63.0189 26.5143 62.0706 27.3878 61.3844 28.455C60.6982 29.5221 60.2969 30.7473 60.2188 32.0136C60.2188 34.5383 62.7933 36.9966 65.2017 36.2159C64.6864 37.2308 64.5892 38.4072 64.9311 39.4928C65.2729 40.5785 66.0264 41.487 67.0302 42.0237C68.0339 42.5603 69.208 42.6824 70.3007 42.3636C71.3933 42.0448 72.3176 41.3107 72.8754 40.3185" fill="#263238"/>
<path d="M64.3052 36.1953C64.2735 36.6183 64.3327 37.0432 64.4788 37.4414C64.6249 37.8396 64.8546 38.2019 65.1523 38.5041C65.7795 39.2609 66.6693 39.7533 67.6437 39.8827C68.2619 39.9541 68.8881 39.8901 69.479 39.695C70.0699 39.5 70.6112 39.1786 71.0653 38.7532H70.5504C71.24 39.8639 72.0972 40.8612 73.0917 41.7097C73.7572 42.2789 74.5234 42.7184 75.3506 43.0053C76.1446 43.26 76.9899 43.3114 77.8089 43.1548C78.5032 43.0688 79.1704 42.8325 79.7642 42.4625C80.358 42.0925 80.864 41.5975 81.2471 41.0121C81.714 40.228 82.019 39.3583 82.144 38.4542C82.2024 38.1246 82.2024 37.7873 82.144 37.4577C81.9876 37.7494 81.8756 38.0629 81.8118 38.3878C81.5917 39.2198 81.2383 40.0107 80.7654 40.7298C80.3295 41.259 79.7891 41.6926 79.178 42.0034C78.5669 42.3142 77.8982 42.4955 77.2138 42.536C76.5294 42.5766 75.8439 42.4754 75.2004 42.2389C74.5569 42.0024 73.969 41.6357 73.4737 41.1616C72.5299 40.3712 71.7122 39.4414 71.0487 38.4044L70.9491 37.9892L70.6501 38.2715C70.2688 38.644 69.812 38.9302 69.3105 39.1107C68.809 39.2912 68.2746 39.3619 67.7434 39.318C66.8905 39.227 66.0967 38.839 65.5011 38.2217C64.9736 37.6311 64.5673 36.9426 64.3052 36.1953Z" fill="#3F3D56"/>
<path d="M98.4348 73.7888C98.6341 73.7888 98.6673 72.4932 99.6639 71.397C100.66 70.3008 101.89 70.0848 101.873 69.8855C101.856 69.6862 101.541 69.7028 100.976 69.8855C100.265 70.0656 99.6254 70.4574 99.1419 71.0091C98.6584 71.5608 98.3539 72.2463 98.2687 72.9749C98.2189 73.5397 98.3517 73.7888 98.4348 73.7888Z" fill="#EB996E"/>
<path d="M97.242 70.4629C97.4247 70.5625 97.8565 70.1141 98.4877 69.8151C99.1189 69.5161 99.7168 69.3999 99.75 69.2005C99.7832 69.0012 99.0026 68.7521 98.0891 69.2005C97.1755 69.649 97.0759 70.3798 97.242 70.4629Z" fill="#EB996E"/>
<path d="M119.516 2.01512C119.516 1.89885 120.828 2.6795 121.808 4.70589C122.409 5.87595 122.781 7.15004 122.904 8.45969C123.062 10.117 122.614 11.7753 121.642 13.127C120.643 14.4054 119.341 15.4156 117.855 16.0669C116.691 16.6018 115.493 17.0568 114.267 17.4289C113.193 17.8365 112.08 18.1315 110.945 18.3093C111.936 17.6781 113.009 17.1862 114.134 16.8476C115.148 16.449 116.327 15.9839 117.573 15.3527C118.922 14.7212 120.105 13.7827 121.027 12.6121C121.878 11.4203 122.289 9.97038 122.19 8.50952C122.111 7.28531 121.824 6.08343 121.343 4.95503C120.859 3.90286 120.245 2.91525 119.516 2.01512Z" fill="#E0E0E0"/>
<path d="M127.236 10.0081C127.335 10.0081 127.419 10.7887 127.086 11.968C126.623 13.511 125.75 14.8998 124.562 15.9876C123.382 17.084 121.931 17.8465 120.359 18.1967C119.147 18.4292 118.383 18.1967 118.383 18.1967C118.383 18.1967 119.114 17.9808 120.193 17.6154C121.596 17.1359 122.885 16.3726 123.98 15.373C125.062 14.3654 125.922 13.1435 126.505 11.7853C126.953 10.7223 127.103 9.99148 127.236 10.0081Z" fill="#E0E0E0"/>
</svg>
