<svg width="79" height="70" viewBox="0 0 79 70" fill="none" xmlns="http://www.w3.org/2000/svg">
<g clip-path="url(#clip0_252_350)">
<path d="M67.4429 60.4309V67.1545C67.4429 67.7831 66.9332 68.2927 66.3046 68.2927C65.6761 68.2927 65.1664 67.7831 65.1664 67.1545V60.4309C65.1664 55.196 60.9301 50.9593 55.6947 50.9594C53.2175 50.9594 50.97 49.6974 49.6823 47.5835C49.3553 47.0467 49.5254 46.3464 50.0622 46.0193C50.5989 45.6921 51.2993 45.8624 51.6264 46.3992C52.4976 47.8292 54.0184 48.6829 55.6947 48.6829C62.1877 48.6829 67.4429 53.9371 67.4429 60.4309ZM48.4532 51.6172L44.3941 54.7596L37.4925 49.4164C38.9823 48.2198 39.9457 46.4791 40.1017 44.5022C41.4637 44.9031 42.9041 45.1193 44.3942 45.1193C52.7885 45.1193 59.6178 38.29 59.6178 29.8957C59.6178 29.8072 59.6198 21.9265 59.6141 21.8383C59.5754 21.2225 59.0619 20.7722 58.4796 20.7722C58.2847 20.7722 56.8822 21.0497 55.5094 20.2237C53.3684 18.9357 53.3575 16.1124 53.3576 16.0841C53.3632 15.1593 52.3174 14.6135 51.5618 15.148C46.8735 18.4669 41.3839 20.7174 35.423 21.5519C34.8005 21.6391 34.3664 22.2143 34.4536 22.8369C34.5333 23.406 35.0208 23.8175 35.5795 23.8175C35.7587 23.8175 39.4494 23.3658 43.6447 21.842C46.3477 20.8603 48.9375 19.5792 51.3658 18.0243C52.2048 21.1723 54.5576 22.9236 57.3415 23.0816V29.8957C57.3415 37.0348 51.5335 42.8428 44.3944 42.8428C37.2552 42.8428 31.4472 37.0348 31.4472 29.8957V21.9106C31.4472 21.282 30.9376 20.7724 30.309 20.7724C29.6804 20.7724 29.1708 21.282 29.1708 21.9106V29.8958C29.1708 35.9486 32.7217 41.1872 37.8496 43.639V43.9392C37.8496 46.5629 35.7235 48.6829 33.0938 48.6829L23.3477 29.0144L25.2441 30.2763C26.9201 27.7604 27.8903 24.7513 27.8903 21.5317V15.3664C27.8903 8.1486 33.7622 2.27642 40.9797 2.27642H47.809C55.0265 2.27642 60.8984 8.14831 60.8984 15.3659V21.5311C60.8984 24.6628 61.8091 27.6805 63.5321 30.2578C66.6832 34.9715 66.677 41.1582 63.421 45.8829C63.0643 46.4005 63.1946 47.1093 63.7122 47.466C64.2298 47.8225 64.9385 47.6922 65.2952 47.1746C69.0856 41.6749 69.09 34.4759 65.4245 28.9927C63.9527 26.7909 63.1747 24.2109 63.1747 21.5311V15.3659C63.1747 6.89315 56.2816 0 47.8088 0H40.9796C32.5069 0 25.6137 6.89344 25.6137 15.3664V21.5311C25.6137 24.2031 23.3492 29.0144 23.3492 29.0144L33.0938 48.6829C33.0938 49.3114 32.465 50.9594 33.0936 50.9594C33.0936 51.0508 33.0938 48.6829 33.0936 50.9594C33.848 50.9594 34.5932 50.8398 35.3079 50.604L43.6973 57.0991C44.1077 57.4167 44.6808 57.4167 45.0909 57.0991L49.8468 53.4171C50.3439 53.0323 50.4348 52.3175 50.05 51.8203C49.6653 51.3235 48.9505 51.2323 48.4532 51.6172Z" fill="#45485C"/>
</g>
<g clip-path="url(#clip1_252_350)">
<path d="M9.96059 50.2845L8.64361 51.0994C6.61745 52.353 5.40774 54.524 5.40774 56.9068V69.4308C5.40774 69.745 5.15293 69.9999 4.83864 69.9999C4.52435 69.9999 4.26953 69.745 4.26953 69.4308V56.9068C4.26953 54.1452 5.70154 51.5813 8.04476 50.1314C10.4066 48.6701 10.309 48.694 10.5297 48.694C10.8373 48.694 11.091 48.9402 11.0982 49.2498C11.0992 49.2932 11.0988 57.0405 11.0988 57.0839C11.0988 57.5172 11.563 57.7912 11.9421 57.5826L13.4895 56.7316C14.7445 56.0415 16.2944 56.4165 17.0946 57.6042C17.2703 57.8648 17.2014 58.2185 16.9407 58.3942C16.6801 58.5697 16.3265 58.5009 16.1508 58.2402C15.6818 57.5443 14.7735 57.3242 14.0381 57.7289L12.4908 58.5799C11.3525 59.2058 9.96059 58.3829 9.96059 57.0839V50.2845ZM26.1801 35.8535C25.7044 35.8535 13.4519 35.8535 12.8061 35.8535C11.2371 35.8535 9.96059 37.13 9.96059 38.699V44.0344C9.96059 44.3487 10.2154 44.6035 10.5297 44.6035C10.844 44.6035 11.0988 44.3487 11.0988 44.0344V38.699C11.0988 37.7577 11.8647 36.9917 12.8061 36.9917H14.0666L14.9202 38.5282C15.2713 39.1601 15.9385 39.5527 16.6614 39.5527H22.467C22.7813 39.5527 23.0361 39.2979 23.0361 38.9836C23.0361 38.6693 22.7813 38.4145 22.467 38.4145H16.6614C16.3516 38.4145 16.0656 38.2462 15.9151 37.9754L15.3687 36.9917H26.1801C27.1215 36.9917 27.8874 37.7577 27.8874 38.699V67.1543C27.8874 68.0957 27.1215 68.8616 26.1801 68.8616H12.8061C11.8647 68.8616 11.0988 68.0957 11.0988 67.1543C11.0988 66.6686 11.02 65.9554 11.703 65.3773L16.5911 61.2394C16.831 61.0364 16.8609 60.6772 16.6578 60.4373C16.4547 60.1974 16.0956 60.1675 15.8557 60.3707L10.9676 64.5086C9.87551 65.4329 9.96059 66.6006 9.96059 67.1543C9.96059 68.7234 11.2371 69.9999 12.8061 69.9999H26.1801C27.7491 69.9999 29.0256 68.7234 29.0256 67.1543V38.699C29.0256 37.13 27.7491 35.8535 26.1801 35.8535Z" fill="#00ADEF" stroke="#00ADEF" stroke-width="0.853659"/>
</g>
<defs>
<clipPath id="clip0_252_350">
<rect width="68.2927" height="68.2927" fill="white" transform="translate(10.2461)"/>
</clipPath>
<clipPath id="clip1_252_350">
<rect width="34.1463" height="34.1463" fill="white" transform="translate(0 35.8535)"/>
</clipPath>
</defs>
</svg>
