<svg width="70" height="70" viewBox="0 0 70 70" fill="none" xmlns="http://www.w3.org/2000/svg">
<path d="M56.0798 9.57023C58.2892 10.0872 58.968 10.5531 59.1248 10.6931C59.2101 11.205 59.6549 11.5944 60.1901 11.5944C60.7865 11.5944 61.2773 11.1102 61.27 10.5145C61.2488 8.74992 56.0149 7.27992 55.7918 7.29596C51.354 6.38013 44.4189 5.83325 37.1448 5.83325C29.6446 5.83325 22.5483 6.40127 18.1617 7.35502C14.6048 8.13013 13.0196 9.10502 13.0196 10.5145C13.0196 11.111 13.503 11.5944 14.0995 11.5944C14.6347 11.5944 15.0795 11.205 15.1648 10.6939C15.3318 10.5451 16.0653 10.023 18.6218 9.4645C22.8648 8.54283 29.7897 7.99304 37.1455 7.99304C43.2734 7.99304 49.1228 8.38606 53.3804 9.05763C51.7967 10.5291 49.5559 12.9288 48.0896 15.8367C45.582 15.1629 42.4203 15.1848 39.1062 16.0671C38.5295 16.2202 38.186 16.8109 38.3392 17.3876C38.4923 17.9644 39.0851 18.3115 39.6604 18.154C42.4276 17.4212 45.1379 17.3621 47.2408 17.8477C46.3797 20.4071 46.263 23.2436 47.7017 26.1209C47.9233 26.5627 48.1501 26.9988 48.3754 27.4304C50.0102 30.5651 51.2855 33.0946 49.7893 36.591C49.5661 36.5698 49.359 36.5472 49.1082 36.5297C48.3098 36.4692 47.5215 36.7054 46.8806 37.1896C45.0504 38.5692 44.2666 39.9933 44.6144 41.3021C44.7507 41.8154 45.0956 42.366 47.4107 43.3518C45.7672 45.9622 43.7605 48.348 41.7896 50.65C40.8716 51.7234 39.9834 52.761 39.1828 53.7687C37.0697 56.4061 36.3937 59.7631 36.1786 61.6058C34.1676 60.6972 31.5696 58.4835 32.4497 53.1817C32.5729 52.4474 32.6991 51.7737 32.8157 51.151C32.9054 50.6734 32.9842 50.2264 33.0549 49.7933C34.3419 49.7801 35.6777 50.0754 36.4674 50.7135C36.6672 50.8739 36.9071 50.9526 37.1448 50.9526C37.4605 50.9526 37.7726 50.8148 37.9862 50.5501C38.361 50.0856 38.2881 49.4068 37.8236 49.0313C36.6978 48.1227 35.0535 47.6021 33.313 47.6021C33.3108 47.6021 33.3079 47.6021 33.305 47.6021C33.4632 44.3755 32.2703 42.0634 27.336 37.9552C28.9497 37.4091 30.6705 36.9694 32.4526 36.6719C34.8836 36.2658 37.3278 36.1272 39.7224 36.284C40.3203 36.3066 40.8307 35.8676 40.8672 35.2726C40.9044 34.6762 40.4515 34.1643 39.8558 34.1264C37.3001 33.9674 34.6897 34.1081 32.096 34.5413C29.6934 34.9438 27.4439 35.5767 25.3782 36.3773C24.7584 35.8939 24.1022 35.3908 23.3891 34.8563C18.6225 31.2819 15.9173 27.316 15.3485 23.0664C14.6106 17.5524 17.7985 13.3823 17.8306 13.34C18.1967 12.8704 18.1135 12.1923 17.6439 11.8248C17.1751 11.4588 16.4977 11.5404 16.1302 12.0064C15.9756 12.2033 12.3582 16.8911 13.2019 23.3179C13.8399 28.1764 16.8309 32.6396 22.0926 36.5837C22.4528 36.8535 22.7714 37.0985 23.1047 37.3522C22.28 37.7591 21.4925 38.1951 20.7604 38.6662C20.2587 38.9899 20.1144 39.6578 20.4367 40.1602C20.6437 40.4811 20.9908 40.6553 21.3459 40.6553C21.5457 40.6553 21.7492 40.6006 21.93 40.484C22.8611 39.8846 23.9082 39.3385 25.0304 38.8455C31.3618 43.8783 31.6228 45.5349 30.8885 49.6788C29.5709 48.3794 27.7852 47.6021 25.8522 47.6021C23.1842 47.6021 20.8034 49.0437 19.5558 51.3405C18.1471 50.1775 16.3227 49.6343 14.4677 49.8705C11.4475 50.2519 9.04051 52.7187 8.74666 55.7258C8.69853 56.1771 8.73645 56.8552 8.86478 57.8557C9.32561 61.4548 12.4195 64.1666 16.0624 64.1666H53.5503C55.8136 64.1666 57.8969 63.1341 59.2662 61.3352C60.6385 59.532 61.0687 57.2082 60.446 54.9579C59.606 51.9195 56.8702 49.8552 53.6385 49.8195C51.4773 49.7998 49.9912 50.5749 49.0368 51.3442C48.6248 50.354 47.8482 49.2267 46.4103 48.4691C47.5237 47.0669 48.5898 45.586 49.534 44.0306C49.6201 44.0372 49.7047 44.054 49.7914 44.054C49.9519 44.054 51.3635 43.86 51.3635 43.86C52.6673 43.6726 53.7319 42.7408 54.0775 41.4873C54.4319 40.2003 54.7731 38.3898 53.6436 37.5491C53.4839 37.4302 53.1186 37.159 52.0096 36.9111C53.562 32.73 51.9075 29.5319 50.2909 26.4329C50.0714 26.0108 49.8498 25.5864 49.6339 25.1554C48.5256 22.9388 48.6138 20.6908 49.3 18.6083C50.2559 19.1391 50.9151 19.8522 51.147 20.725C51.2753 21.2092 51.7121 21.5278 52.1904 21.5278C52.2823 21.5278 52.3756 21.5169 52.4682 21.4914C53.045 21.3383 53.3884 20.7476 53.2346 20.1709C52.8299 18.6491 51.723 17.4452 50.1466 16.622C51.9294 13.2051 54.9561 10.5014 56.0798 9.57023ZM11.0085 57.5822C10.8678 56.4834 10.8831 56.0787 10.897 55.9467C11.0917 53.9575 12.7432 52.2673 14.7397 52.015C16.3016 51.8167 17.835 52.4343 18.8288 53.6608C19.1409 54.053 19.6353 54.2273 20.1217 54.1267C20.6029 54.0224 20.9762 53.66 21.0783 53.2422C21.7353 51.1619 23.6545 49.7641 25.8529 49.7641C27.7903 49.7641 29.5221 50.8695 30.3592 52.5911C30.3453 52.672 30.3314 52.7449 30.3176 52.8273C30.1521 53.8248 30.1346 55.4472 30.1331 55.8133C30.1331 55.8643 30.136 55.9132 30.1426 55.9635L30.303 57.1783C30.7172 59.4139 31.789 60.9604 32.9389 62.0068H16.0624C13.5037 62.0061 11.3316 60.1044 11.0085 57.5822ZM47.3261 53.2109C47.4042 53.7169 47.7753 54.1296 48.2719 54.263C48.7706 54.3936 49.3022 54.2251 49.6485 53.7935C50.1619 53.1059 51.3869 51.9523 53.6137 51.9808C55.8734 52.0048 57.7824 53.434 58.3628 55.5354C58.8039 57.1294 58.5057 58.7664 57.5461 60.0278C56.5887 61.2856 55.1326 62.0068 53.5496 62.0068H38.3093C38.4748 60.4435 39.0238 57.4233 40.8716 55.1176C41.659 54.126 42.5304 53.1088 43.4309 52.0566C43.9421 51.4594 44.4714 50.8389 45.0023 50.2045C46.7246 50.9089 47.2029 52.3468 47.3261 53.2109ZM52.8685 40.0385C52.7511 40.4643 52.3829 42.5315 51.9279 42.5971L49.9584 42.7561C49.763 42.7845 49.5712 42.7663 49.3904 42.6955C47.8322 42.1035 46.5344 40.8267 46.2151 40.6116C46.2924 40.2922 46.2632 39.2459 47.2505 38.5C47.4758 38.3286 48.2815 38.0464 48.563 38.0625C50.5332 38.2032 52.7774 38.198 53.1186 38.349C53.1427 38.5291 53.1507 39.014 52.8685 40.0385Z" fill="#45485C"/>
<path d="M28.2266 25.7978L28.2288 25.7964C30.0583 24.4124 30.8421 22.9906 30.4951 21.6846C30.3376 21.0896 29.9132 20.4494 26.4868 19.1442C25.9655 18.9473 25.3953 18.8824 24.8375 18.9656L23.7437 19.1245C22.4414 19.3141 21.3768 20.2452 21.0312 21.4972C20.6768 22.7842 20.3363 24.5933 21.4651 25.4369C21.7203 25.6265 22.4968 26.2062 26.0034 26.4556C26.0814 26.4621 27.6499 26.2317 28.2266 25.7978ZM23.1152 22.0718C23.2326 21.6467 23.6015 21.3288 24.0558 21.2632L25.1503 21.1042C25.3464 21.0736 25.5375 21.094 25.7176 21.1647C27.2765 21.7583 28.0808 22.1819 28.4002 22.3985C28.3236 22.7164 27.9153 23.3252 26.928 24.0712C26.7019 24.2411 26.4343 24.3176 26.1565 24.3016C24.1849 24.1609 23.2049 23.9137 22.8643 23.7627C22.8417 23.5826 22.8322 23.0992 23.1152 22.0718Z" fill="#00ADEF"/>
<path d="M46.453 36.6399L46.4504 36.6416C44.345 38.2507 43.4429 39.904 43.8423 41.4224C44.0236 42.1142 44.512 42.8586 48.4552 44.3762C49.0552 44.6051 49.7115 44.6805 50.3534 44.5839L51.6122 44.399C53.111 44.1786 54.3362 43.096 54.7339 41.6403C55.1418 40.1439 55.5337 38.0405 54.2346 37.0596C53.9409 36.8391 53.0472 36.1651 49.0116 35.8752C48.9218 35.8675 47.1168 36.1354 46.453 36.6399ZM52.3356 40.9722C52.2005 41.4665 51.7758 41.8361 51.253 41.9124L49.9934 42.0972C49.7677 42.1328 49.5478 42.1091 49.3406 42.0269C47.5464 41.3368 46.6208 40.8442 46.2532 40.5924C46.3414 40.2227 46.8113 39.5148 47.9475 38.6475C48.2077 38.45 48.5157 38.3609 48.8354 38.3796C51.1045 38.5432 52.2324 38.8306 52.6243 39.0061C52.6503 39.2155 52.6612 39.7776 52.3356 40.9722Z" fill="#00ADEF"/>
<path d="M35.7109 19.5352C36.315 19.5352 36.8047 19.0455 36.8047 18.4414C36.8047 17.8373 36.315 17.3477 35.7109 17.3477C35.1069 17.3477 34.6172 17.8373 34.6172 18.4414C34.6172 19.0455 35.1069 19.5352 35.7109 19.5352Z" fill="#00ADEF"/>
</svg>
