<svg width="70" height="70" viewBox="0 0 70 70" fill="none" xmlns="http://www.w3.org/2000/svg">
<path d="M27.3106 60.2409C20.5589 58.1415 16.0225 51.9759 16.0225 44.8984C16.0225 41.439 17.1055 38.1431 19.1546 35.367C19.2013 35.3037 19.2436 35.2345 19.2788 35.164C19.6174 34.487 19.3424 33.6647 18.6653 33.3262C18.0524 33.0193 17.3194 33.2164 16.9347 33.7583C14.5446 37.0053 13.2812 40.857 13.2812 44.8984C13.2812 48.9911 14.5736 52.8824 17.0184 56.1512C19.3815 59.3109 22.7475 61.693 26.4967 62.8587C26.6322 62.9009 26.7693 62.9209 26.9041 62.9209C27.4884 62.9209 28.03 62.5441 28.2125 61.9567C28.4373 61.2338 28.0335 60.4657 27.3106 60.2409Z" fill="#00ADEF"/>
<path d="M62.4464 32.0306C62.4464 29.4215 61.6333 26.9357 60.0946 24.8393L51.4178 11.9586C51.163 11.5805 50.737 11.3537 50.281 11.3537C49.8249 11.3537 49.3989 11.5805 49.1441 11.9586L45.4879 17.3862L34.1831 0.604895C33.9284 0.226716 33.5022 0 33.0463 0C32.5904 0 32.1643 0.226716 31.9096 0.604895L12.5036 29.4122C9.26575 33.8123 7.55469 39.0314 7.55469 44.5083C7.55469 58.5644 18.9903 70 33.0463 70C47.1024 70 58.538 58.5644 58.538 44.5083C58.538 43.3863 58.463 42.2622 58.3173 41.1556C60.8474 38.9246 62.4464 35.6611 62.4464 32.0306ZM50.281 15.1779L57.8206 26.3703C57.8357 26.3936 57.8515 26.4165 57.8681 26.439C59.0698 28.0664 59.705 29.9999 59.705 32.0305C59.705 37.2269 55.4775 41.4544 50.281 41.4544C45.0846 41.4544 40.8571 37.2269 40.8571 32.0305C40.8571 29.9999 41.4923 28.0664 42.694 26.439C42.7099 26.4174 42.7251 26.3955 42.7397 26.3729L46.622 20.6097C46.6291 20.5992 46.6365 20.5888 46.6434 20.5779L50.281 15.1779ZM55.7964 44.5083C55.7964 57.053 45.5907 67.2586 33.0462 67.2586C20.5016 67.2586 10.296 57.053 10.296 44.5083C10.296 39.6089 11.8298 34.9409 14.7319 31.0095C14.7485 30.9871 14.7645 30.9637 14.78 30.9397L33.0463 3.82401L43.8353 19.8397L40.4674 24.8395C38.9288 26.9357 38.1156 29.4216 38.1156 32.0306C38.1156 38.7386 43.573 44.196 50.281 44.196C52.2425 44.196 54.0966 43.7287 55.739 42.9006C55.7764 43.4352 55.7964 43.972 55.7964 44.5083Z" fill="#45485C"/>
<path d="M45.4445 31.6965C45.4445 31.0324 45.5798 30.3915 45.8466 29.7915C46.1542 29.0997 45.8426 28.2896 45.1509 27.9822C44.4591 27.675 43.6492 27.986 43.3416 28.6778C42.9179 29.6307 42.7031 30.6463 42.7031 31.6965C42.7031 34.1842 43.939 36.4966 46.0089 37.8816C46.243 38.0383 46.5078 38.1131 46.7699 38.1131C47.2121 38.1131 47.646 37.8995 47.9103 37.5046C48.3313 36.8753 48.1625 36.024 47.5334 35.6031C46.2254 34.7279 45.4445 33.2675 45.4445 31.6965Z" fill="#00ADEF"/>
<path d="M32.3986 62.1398C32.063 61.2579 30.811 61.0063 30.163 61.6957C29.3914 62.4434 29.8067 63.8163 30.8648 64.0081C31.9138 64.2379 32.8282 63.1245 32.3986 62.1398Z" fill="#00ADEF"/>
<path d="M49.5586 39.1307C50.4424 39.7429 51.7081 39.066 51.69 37.9917C51.7099 36.9172 50.4417 36.2389 49.5586 36.8512C48.7581 37.3529 48.7549 38.6307 49.5586 39.1307Z" fill="#00ADEF"/>
</svg>
