<svg width="68" height="70" viewBox="0 0 68 70" fill="none" xmlns="http://www.w3.org/2000/svg">
<g clip-path="url(#clip0_252_415)">
<path d="M11.7632 57.1299L17.6341 60.1066V66.7632C17.6341 67.4461 18.1802 68 18.8537 68H31.7805C32.4539 68 33 67.4461 33 66.7632V50.6162C33 46.8267 30.1972 43.6843 26.4896 43.3073L26.3899 43.2964C24.2439 43.0783 20.4441 41.5896 18.9438 40.068L16.205 37.2914C15.2834 36.3569 14.0587 35.8421 12.7561 35.8421V25.9474C12.7561 23.2194 10.5678 21 7.87805 21C5.18829 21 3 23.2194 3 25.9474V42.7486C3 48.8356 6.39 54.4045 11.7632 57.1299ZM5.43902 25.9474C5.43902 24.5834 6.53317 23.4737 7.87805 23.4737C9.22293 23.4737 10.3171 24.5834 10.3171 25.9474V36.5052C8.82976 37.3774 7.87805 39.0036 7.87805 40.7895C7.87805 42.1105 8.38561 43.3527 9.3072 44.2873L15.5523 50.6224C16.0284 51.1055 16.8006 51.1055 17.277 50.6225C17.7532 50.1396 17.7533 49.3565 17.2771 48.8734L11.032 42.5381C10.5709 42.0707 10.3171 41.4497 10.3171 40.7895C10.3171 39.7426 10.9704 38.8051 11.9429 38.4567C11.943 38.4567 11.9433 38.4565 11.9434 38.4564C11.9437 38.4563 11.944 38.4563 11.9443 38.4562C12.7855 38.1534 13.7833 38.3337 14.4805 39.041L17.2193 41.8175C20.0468 44.6853 26.2245 45.7643 26.2368 45.7678C28.702 46.0183 30.5609 48.1028 30.5609 50.6162V65.5263H20.073V59.3421C20.073 58.8736 19.812 58.4453 19.3989 58.2359L12.8539 54.9174C8.28037 52.5975 5.43902 47.9347 5.43902 42.7486V25.9474Z" fill="#45485C"/>
<path d="M59 55C59.5523 55 60 54.5523 60 54C60 53.4477 59.5523 53 59 53C58.4477 53 58 53.4477 58 54C58 54.5523 58.4477 55 59 55Z" fill="#45485C"/>
<path d="M60.122 21C57.4322 21 55.2439 23.2194 55.2439 25.9474V35.8421C53.9413 35.8421 52.7166 36.3569 51.7952 37.2914L49.056 40.0683C47.5559 41.5897 43.7561 43.0784 41.6006 43.2974L41.5199 43.3063C37.8028 43.6843 35 46.8269 35 50.6162V66.7632C35 67.4461 35.5461 68 36.2195 68H49.1463C49.8198 68 50.3659 67.4461 50.3659 66.7632V60.1066L54.3573 58.0829C54.9596 57.7774 55.2039 57.0345 54.9028 56.4235C54.6016 55.8127 53.869 55.5647 53.2667 55.8703L48.601 58.2359C48.1879 58.4453 47.9268 58.8736 47.9268 59.3421V65.5263H37.439V50.6162C37.439 48.1028 39.2979 46.0183 41.7726 45.7668L41.8533 45.7579C44.4985 45.4889 48.8784 43.7466 50.7804 41.8177L53.5196 39.0408C54.2188 38.3315 55.2185 38.155 56.0556 38.4562C56.0559 38.4563 56.0562 38.4563 56.0565 38.4564C56.0566 38.4564 56.0568 38.4565 56.057 38.4567C57.0296 38.8051 57.6829 39.7426 57.6829 40.7895C57.6829 41.4497 57.4291 42.0707 56.9682 42.5384L50.723 48.8735C50.2468 49.3565 50.247 50.1396 50.7232 50.6226C51.1991 51.1056 51.9716 51.1056 52.4478 50.6225L58.6929 44.2875C59.6144 43.3527 60.122 42.1105 60.122 40.7895C60.122 39.0036 59.1702 37.3774 57.6829 36.5052V25.9474C57.6829 24.5834 58.7771 23.4737 60.122 23.4737C61.4668 23.4737 62.561 24.5834 62.561 25.9474V42.7486C62.561 45.0116 61.9979 47.2582 60.9326 49.2455C60.6107 49.8458 60.8296 50.5966 61.4215 50.9229C62.0131 51.2492 62.7538 51.0274 63.0754 50.4271C64.3345 48.0782 65 45.4231 65 42.7486V25.9474C65 23.2194 62.8117 21 60.122 21Z" fill="#45485C"/>
<path d="M44.6856 19.1781C44.5575 19.0465 44.4045 18.9419 44.2356 18.8702C44.0667 18.7986 43.8854 18.7615 43.7021 18.761C43.5188 18.7605 43.3372 18.7966 43.1679 18.8673C42.9987 18.938 42.8451 19.0418 42.7162 19.1727C42.5873 19.3036 42.4857 19.4589 42.4172 19.6297C42.3487 19.8004 42.3147 19.9832 42.3172 20.1673C42.3197 20.3513 42.3587 20.5331 42.4319 20.7019C42.505 20.8707 42.6109 21.0231 42.7433 21.1504C43.9152 22.3085 44.8449 23.69 45.478 25.2138C46.111 26.7377 46.4346 28.3732 46.4298 30.0243C46.4298 31.721 41.5872 34.1859 33.9985 34.1859C26.4098 34.1859 21.5673 31.7197 21.5673 30.0215C21.5626 28.3817 21.8819 26.7573 22.5066 25.2422C23.1312 23.7272 24.049 22.3517 25.2066 21.1952C25.3375 21.067 25.4418 20.914 25.5134 20.745C25.5849 20.576 25.6224 20.3944 25.6236 20.2108C25.6247 20.0271 25.5896 19.8451 25.5201 19.6752C25.4507 19.5053 25.3483 19.3509 25.219 19.2211C25.0897 19.0912 24.936 18.9884 24.7669 18.9187C24.5977 18.849 24.4164 18.8136 24.2336 18.8148C24.0507 18.816 23.8699 18.8536 23.7016 18.9255C23.5334 18.9974 23.381 19.1021 23.2533 19.2336C21.8381 20.6474 20.7163 22.3291 19.9527 24.1814C19.1891 26.0336 18.7989 28.0196 18.8048 30.0243C18.8048 34.5294 26.6323 36.9603 33.9985 36.9603C41.3647 36.9603 49.1923 34.5294 49.1923 30.0243C49.1984 28.0061 48.8029 26.007 48.029 24.1444C47.2551 22.2818 46.1184 20.5933 44.6856 19.1781Z" fill="#00ADEF"/>
<path d="M33.9969 20.314C35.9092 20.314 37.7785 19.7445 39.3685 18.6776C40.9586 17.6106 42.1978 16.094 42.9296 14.3197C43.6614 12.5453 43.8529 10.5929 43.4798 8.70928C43.1068 6.82566 42.1859 5.09543 40.8337 3.73742C39.4815 2.3794 37.7587 1.45457 35.8832 1.0799C34.0076 0.70522 32.0635 0.897518 30.2968 1.63247C28.5301 2.36743 27.02 3.61203 25.9576 5.20889C24.8952 6.80575 24.3281 8.68315 24.3281 10.6037C24.3311 13.1781 25.3507 15.6463 27.1633 17.4667C28.9759 19.2871 31.4335 20.3111 33.9969 20.314ZM33.9969 3.66771C35.3628 3.66771 36.6981 4.07449 37.8338 4.83663C38.9695 5.59876 39.8547 6.68201 40.3774 7.9494C40.9001 9.21678 41.0369 10.6114 40.7704 11.9568C40.5039 13.3023 39.8462 14.5381 38.8803 15.5082C37.9145 16.4782 36.6839 17.1388 35.3442 17.4064C34.0045 17.674 32.6159 17.5367 31.354 17.0117C30.092 16.4867 29.0134 15.5977 28.2545 14.4571C27.4957 13.3165 27.0906 11.9755 27.0906 10.6037C27.0928 8.76481 27.8211 7.00188 29.1158 5.7016C30.4105 4.40132 32.1659 3.66987 33.9969 3.66771Z" fill="#00ADEF"/>
</g>
<defs>
<clipPath id="clip0_252_415">
<rect width="68" height="70" fill="white"/>
</clipPath>
</defs>
</svg>
