<svg width="70" height="70" viewBox="0 0 70 70" fill="none" xmlns="http://www.w3.org/2000/svg">
<path d="M51.3359 15.1666C51.3359 15.811 51.8582 16.3332 52.5026 16.3332C53.1469 16.3332 53.6692 15.8108 53.6692 15.1666V12.8334C53.6692 12.189 53.1468 11.6667 52.5026 11.6667C51.8583 11.6667 51.3359 12.1892 51.3359 12.8334V15.1666Z" fill="#45485C"/>
<path d="M51.3359 29.1665C51.3359 29.8109 51.8582 30.3331 52.5026 30.3331C53.1469 30.3331 53.6692 29.8107 53.6692 29.1665V26.8331C53.6692 26.1888 53.1468 25.6665 52.5026 25.6665C51.8583 25.6665 51.3359 26.1889 51.3359 26.8331V29.1665Z" fill="#45485C"/>
<path d="M51.3359 43.1665C51.3359 43.8109 51.8582 44.3331 52.5026 44.3331C53.1469 44.3331 53.6692 43.8107 53.6692 43.1665V40.8331C53.6692 40.1888 53.1468 39.6665 52.5026 39.6665C51.8583 39.6665 51.3359 40.1888 51.3359 40.8331V43.1665Z" fill="#45485C"/>
<path d="M50.9277 68.8334C50.9277 69.4777 51.45 70 52.0943 70H65.3359C66.6246 70 67.6693 68.9553 67.6693 67.6666V2.33338C67.6693 1.04467 66.6246 0 65.3361 0H39.6693C38.3806 0 37.3359 1.04467 37.3359 2.33338V33.8334C37.3359 34.4777 37.8582 35 38.5026 35C39.1469 35 39.6692 34.4777 39.6692 33.8334V2.33338H42.0027V49C42.0027 49.6444 42.525 50.1666 43.1693 50.1666C43.8137 50.1666 44.3359 49.6444 44.3359 49V2.33338H60.6693V67.6668H52.0943C51.4501 67.6666 50.9277 68.189 50.9277 68.8334ZM63.0027 2.33338H65.3361V67.6668H63.0027V2.33338Z" fill="#45485C"/>
<path d="M51.3359 57.1665C51.3359 57.8109 51.8582 58.3331 52.5026 58.3331C53.1469 58.3331 53.6692 57.8109 53.6692 57.1665V54.8331C53.6692 54.1888 53.1468 53.6665 52.5026 53.6665C51.8583 53.6665 51.3359 54.1888 51.3359 54.8331V57.1665Z" fill="#45485C"/>
<path d="M4.66933 70.0001H46.6693C47.958 70.0001 49.0027 68.9554 49.0027 67.6667V64.1667C49.0127 63.2361 48.4597 62.3914 47.6027 62.0282L42.9629 59.8301L32.6752 27.0562C32.2901 25.8399 31.299 24.9122 30.0599 24.6081C28.8208 24.304 27.5128 24.6676 26.6085 25.5676C26.0907 26.0776 25.2594 26.0776 24.7418 25.5676C23.8376 24.6648 22.5278 24.2993 21.2868 24.6036C20.0458 24.9078 19.0535 25.8376 18.6693 27.0563L8.37578 59.8315L3.8024 62.0003C2.91455 62.3521 2.33253 63.2117 2.33595 64.1667V67.6667C2.33609 68.9554 3.38076 70.0001 4.66933 70.0001ZM37.1179 49.0001H14.2209L17.5168 38.5001H33.8221L37.1179 49.0001ZM20.8861 27.7551C21.0269 27.3153 21.3865 26.9806 21.8352 26.8715C22.2839 26.7624 22.7571 26.8947 23.0841 27.2208C24.5135 28.6382 26.8183 28.6382 28.2478 27.2208C28.5749 26.8947 29.0481 26.7624 29.4968 26.8715C29.9455 26.9806 30.3051 27.3154 30.4459 27.7551L33.0896 36.1667H18.2493L20.8861 27.7551ZM13.4882 51.3335H37.8506L40.4172 59.5001H10.925L13.4882 51.3335ZM4.73824 64.1376L9.59859 61.8335H41.7402L46.6693 64.1669V67.6669H4.66933L4.73824 64.1376Z" fill="#00ADEF"/>
</svg>
