<svg width="40" height="50" viewBox="0 0 40 50" fill="none" xmlns="http://www.w3.org/2000/svg">
<path d="M23.0682 21.2854C23.0682 20.3155 22.5507 19.4189 21.7111 18.934C20.871 18.4491 19.8361 18.4491 18.996 18.934C18.156 19.4189 17.6385 20.3156 17.6385 21.2854V36.2822L12.7644 32.1311C12.2864 31.6295 11.5907 31.398 10.9077 31.514C10.2248 31.6299 9.64416 32.0782 9.35859 32.7092C9.07301 33.3406 9.11979 34.0725 9.48389 34.662L18.2214 47.8154V47.815C18.5884 48.4777 19.1258 49.0298 19.7783 49.4139C20.4304 49.7983 21.174 50.0009 21.9312 50.0001H33.0892C34.2271 49.9993 35.3177 49.5469 36.1229 48.7422C36.9275 47.9379 37.3803 46.8473 37.382 45.7094V35.9072L23.0704 29.4315L23.0682 21.2854Z" fill="#00ADEF"/>
<path d="M12.3872 19.8336C12.3872 20.5239 12.947 21.0833 13.6369 21.0833C14.3273 21.0833 14.8867 20.5239 14.8867 19.8336C14.8867 18.0672 15.8293 16.4346 17.3593 15.5514C18.889 14.6682 20.7741 14.6682 22.3038 15.5514C23.8338 16.4346 24.7764 18.0672 24.7764 19.8336C24.7764 20.5239 25.3357 21.0833 26.0261 21.0833C26.7161 21.0833 27.2758 20.5239 27.2758 19.8336C27.2758 17.1746 25.8573 14.7174 23.5543 13.3875C21.2514 12.058 18.4139 12.058 16.1108 13.3875C13.8078 14.7174 12.3893 17.1745 12.3893 19.8336H12.3872Z" fill="#00ADEF"/>
<path d="M2.49977 19.8335C2.49977 16.2625 3.60267 12.7781 5.65786 9.85759C7.71305 6.93706 10.6201 4.72274 13.9817 3.51737C17.3436 2.31199 20.9957 2.17442 24.4379 3.12357C27.8808 4.07308 30.9465 6.06243 33.2153 8.82019C35.4845 11.5779 36.8461 14.9692 37.1142 18.5304C37.3823 22.0917 36.5443 25.6485 34.7136 28.7151C34.3739 29.3058 34.57 30.0596 35.1542 30.4102C35.7388 30.7605 36.4963 30.5782 36.8572 30.0002C39.2403 26.0102 40.1463 21.3098 39.4168 16.7196C38.6874 12.1295 36.3694 7.94136 32.8671 4.88669C29.3648 1.8315 24.9004 0.103741 20.2541 0.00449135C15.6075 -0.0943649 11.074 1.44138 7.4443 4.34441C3.81507 7.24703 1.32049 11.3327 0.396204 15.8878C-0.52808 20.4421 0.176522 25.177 2.38714 29.2652C2.73863 29.8144 3.45379 30.0007 4.02867 29.6932C4.6039 29.3856 4.84596 28.6879 4.58478 28.0903C3.21549 25.5538 2.49866 22.7162 2.49949 19.8336L2.49977 19.8335Z" fill="#00ADEF"/>
<path d="M10.2504 27.7945C10.822 27.408 10.9721 26.631 10.5856 26.0594C9.06009 23.7959 8.41887 21.0511 8.78338 18.3458C9.14789 15.6405 10.4932 13.1634 12.5635 11.3848C14.6342 9.6058 17.2854 8.64892 20.0148 8.6962C22.7441 8.74339 25.3611 9.79056 27.3687 11.64C29.3768 13.4889 30.6359 16.0108 30.9073 18.7271C31.1782 21.4434 30.4427 24.1646 28.8402 26.374C28.4427 26.9326 28.5697 27.7072 29.1242 28.1099C29.6791 28.5127 30.4544 28.3935 30.8629 27.8426C32.8254 25.1373 33.7264 21.8051 33.3945 18.4794C33.0621 15.1532 31.5203 12.0651 29.0612 9.80166C26.602 7.53776 23.397 6.25584 20.0554 6.19971C16.7134 6.14316 13.467 7.31603 10.933 9.49568C8.39894 11.675 6.75335 14.7094 6.30948 18.0221C5.86524 21.3349 6.65325 24.6955 8.52381 27.4655C8.91192 28.0298 9.682 28.1767 10.2503 27.7947L10.2504 27.7945Z" fill="#00ADEF"/>
</svg>
