<svg width="49" height="50" viewBox="0 0 49 50" fill="none" xmlns="http://www.w3.org/2000/svg">
<path d="M44.4952 6.67737L27.6678 0.609807C25.434 -0.203269 22.9848 -0.203269 20.751 0.609807L4.04502 6.67737C2.86491 7.09497 1.84232 7.86696 1.11826 8.88816C0.394125 9.90935 0.00361742 11.1292 0 12.3811V17.6397C0 32.7681 12.9233 50 24.2703 50C35.6172 50 48.5405 32.7681 48.5405 17.6397V12.3811C48.5369 11.1292 48.1464 9.90936 47.4222 8.88816C46.6981 7.86697 45.6756 7.09493 44.4955 6.67737H44.4952ZM32.9264 19.1153L22.9149 29.2279C22.5361 29.6049 22.0237 29.8161 21.4892 29.8161C20.9547 29.8161 20.4423 29.6049 20.0635 29.2279L15.5128 24.6772C14.9779 24.1572 14.7616 23.391 14.9444 22.6678C15.1277 21.9445 15.683 21.3744 16.4009 21.1712C17.1187 20.9685 17.8903 21.164 18.4253 21.6841L21.5398 24.7986L30.1152 16.2233C30.6362 15.7772 31.3472 15.6255 32.0046 15.8201C32.6619 16.0142 33.1761 16.5284 33.3702 17.1857C33.5648 17.843 33.4131 18.5541 32.967 19.0751L32.9264 19.1153Z" fill="#00ADEF"/>
</svg>
