<svg width="57" height="50" viewBox="0 0 57 50" fill="none" xmlns="http://www.w3.org/2000/svg">
<path d="M55.7885 42.5001L32.5741 2.50001C31.6221 0.952489 30.0148 0 28.229 0C26.4432 0 24.8359 0.952479 23.8839 2.50001L0.669517 42.5001C-0.223172 44.0476 -0.223172 45.9525 0.669517 47.5C1.56221 49.0475 3.16952 50 5.01466 50H51.5624C53.3482 50 55.0148 49.0475 55.9075 47.5C56.8006 45.9525 56.7408 44.0476 55.7888 42.5001H55.7885ZM28.2289 12.6191C30.2526 12.6191 31.9193 14.3451 31.8005 16.3692L31.0864 30.1787C31.027 31.7263 29.7768 32.9171 28.2293 32.9171C26.6818 32.9171 25.4317 31.7267 25.3723 30.1787L24.6573 16.3692C24.5385 14.2856 26.2051 12.6191 28.2289 12.6191ZM28.2289 43.0358C26.1453 43.0358 24.4788 41.3691 24.4788 39.2857C24.4788 37.2021 26.1454 35.5356 28.2289 35.5356C30.3123 35.5356 31.979 37.2022 31.979 39.2857C31.979 41.3692 30.3123 43.0358 28.2289 43.0358Z" fill="#00ADEF"/>
</svg>
