<svg width="82" height="42" viewBox="0 0 82 42" fill="none" xmlns="http://www.w3.org/2000/svg">
<path d="M63.1174 33.1232C62.5102 33.1232 61.9788 32.6774 61.8894 32.0591C61.7926 31.38 62.2631 30.7505 62.9423 30.6524C65.495 30.2849 67.941 29.4853 70.2131 28.2723C70.8227 27.9507 71.5702 28.1804 71.8942 28.7838C72.217 29.3884 71.9873 30.1421 71.3827 30.4649C68.8548 31.812 66.1332 32.7023 63.2962 33.112C63.2353 33.1194 63.1757 33.1232 63.1174 33.1232Z" fill="#FFCB05"/>
<path d="M50.1308 21.9774C49.8974 21.9774 49.6627 21.9116 49.4541 21.7762C48.8793 21.4013 48.7166 20.6327 49.0916 20.0579C50.8509 17.3599 53.8233 15.7483 57.044 15.7483C57.7306 15.7483 58.2856 16.3033 58.2856 16.9899C58.2856 17.6765 57.7306 18.2315 57.044 18.2315C54.6651 18.2315 52.47 19.4209 51.1725 21.4137C50.9353 21.7787 50.538 21.9774 50.1308 21.9774Z" fill="#FFCB05"/>
<path d="M59.7961 18.2315C55.3946 18.2315 51.6773 14.5141 51.6773 10.1139C51.6773 5.7137 55.3946 1.99636 59.7961 1.99636C64.1963 1.99636 67.9136 5.7137 67.9136 10.1139C67.9136 14.5141 64.1963 18.2315 59.7961 18.2315ZM59.7961 4.47955C56.7418 4.47955 54.1605 7.05959 54.1605 10.1139C54.1605 13.1682 56.7418 15.7483 59.7961 15.7483C62.8504 15.7483 65.4304 13.1682 65.4304 10.1139C65.4304 7.05959 62.8504 4.47955 59.7961 4.47955Z" fill="#FFCB05"/>
<path d="M70.7984 26.4844C70.1118 26.4844 69.5568 25.9294 69.5568 25.2428C69.5568 21.3777 66.4118 18.2327 62.5467 18.2327C61.8601 18.2327 61.3051 17.6777 61.3051 16.9911C61.3051 16.3045 61.8601 15.7495 62.5467 15.7495C67.7813 15.7495 72.04 20.0095 72.04 25.2428C72.04 25.9281 71.485 26.4844 70.7984 26.4844Z" fill="#FFCB05"/>
<path d="M62.5465 18.2315H57.045C56.3584 18.2315 55.8034 17.6765 55.8034 16.9899C55.8034 16.3033 56.3584 15.7483 57.045 15.7483H62.5465C63.2331 15.7483 63.7881 16.3033 63.7881 16.9899C63.7881 17.6765 63.2319 18.2315 62.5465 18.2315Z" fill="#FFCB05"/>
<path d="M70.7983 30.6102C70.1117 30.6102 69.5567 30.0552 69.5567 29.3686V25.2428C69.5567 24.5562 70.1117 24.0012 70.7983 24.0012C71.4849 24.0012 72.0399 24.5562 72.0399 25.2428V29.3686C72.0399 30.0552 71.4849 30.6102 70.7983 30.6102Z" fill="#FFCB05"/>
<path d="M44.6676 20.5247H37.3322C36.6456 20.5247 36.0907 19.9697 36.0907 19.2831C36.0907 18.5965 36.6456 18.0415 37.3322 18.0415H44.6676C45.3542 18.0415 45.9092 18.5965 45.9092 19.2831C45.9092 19.9697 45.3542 20.5247 44.6676 20.5247Z" fill="#00ADEF"/>
<path d="M18.8821 33.1232C18.8237 33.1232 18.7641 33.1195 18.7033 33.1108C15.8662 32.7011 13.1446 31.8108 10.6168 30.4637C10.0121 30.1409 9.7824 29.3885 10.1052 28.7826C10.4293 28.1792 11.178 27.9495 11.7863 28.271C14.0585 29.4841 16.5056 30.2837 19.0571 30.6512C19.7363 30.7493 20.2068 31.3788 20.11 32.0579C20.0206 32.6775 19.4892 33.1232 18.8821 33.1232Z" fill="#FFCB05"/>
<path d="M31.8689 21.9774C31.4629 21.9774 31.0656 21.7787 30.8272 21.4137C29.5285 19.4222 27.3346 18.2315 24.9557 18.2315C24.2691 18.2315 23.7141 17.6765 23.7141 16.9899C23.7141 16.3033 24.2691 15.7483 24.9557 15.7483C28.1776 15.7483 31.1488 17.3599 32.9081 20.0579C33.2831 20.6327 33.1204 21.4013 32.5456 21.7762C32.3358 21.9116 32.1011 21.9774 31.8689 21.9774Z" fill="#FFCB05"/>
<path d="M22.2032 18.2315C17.803 18.2315 14.0857 14.5141 14.0857 10.1139C14.0857 5.71369 17.803 1.99635 22.2032 1.99635C26.6035 1.99635 30.3208 5.71369 30.3208 10.1139C30.3208 14.5141 26.6035 18.2315 22.2032 18.2315ZM22.2032 4.47954C19.1489 4.47954 16.5689 7.05958 16.5689 10.1139C16.5689 13.1682 19.1489 15.7483 22.2032 15.7483C25.2576 15.7483 27.8376 13.1682 27.8376 10.1139C27.8376 7.05958 25.2576 4.47954 22.2032 4.47954Z" fill="#FFCB05"/>
<path d="M11.2018 26.4844C10.5152 26.4844 9.96021 25.9294 9.96021 25.2428C9.96021 20.0082 14.2201 15.7495 19.4534 15.7495C20.14 15.7495 20.695 16.3045 20.695 16.9911C20.695 17.6777 20.14 18.2327 19.4534 18.2327C15.5884 18.2315 12.4434 21.3765 12.4434 25.2428C12.4434 25.9281 11.8884 26.4844 11.2018 26.4844Z" fill="#FFCB05"/>
<path d="M24.955 18.2315H19.4535C18.7669 18.2315 18.2119 17.6765 18.2119 16.9899C18.2119 16.3033 18.7669 15.7483 19.4535 15.7483H24.955C25.6416 15.7483 26.1966 16.3033 26.1966 16.9899C26.1966 17.6765 25.6416 18.2315 24.955 18.2315Z" fill="#FFCB05"/>
<path d="M11.2018 30.6102C10.5152 30.6102 9.96021 30.0552 9.96021 29.3686V25.2428C9.96021 24.5562 10.5152 24.0012 11.2018 24.0012C11.8884 24.0012 12.4434 24.5562 12.4434 25.2428V29.3686C12.4434 30.0552 11.8884 30.6102 11.2018 30.6102Z" fill="#FFCB05"/>
<path d="M6.16688 24.7154C6.12655 24.7154 6.08536 24.7128 6.04331 24.7068C4.08258 24.4236 2.20166 23.8084 0.454593 22.8774C0.0367047 22.6543 -0.122041 22.1343 0.101062 21.7155C0.325022 21.2985 0.842448 21.1397 1.26291 21.362C2.83321 22.2003 4.5245 22.7529 6.28787 23.0069C6.75724 23.0747 7.08246 23.5098 7.01553 23.9792C6.95374 24.4073 6.58648 24.7154 6.16688 24.7154Z" fill="#FFCB05"/>
<path d="M15.1424 17.0123C14.8618 17.0123 14.5872 16.875 14.4224 16.6228C13.5249 15.2464 12.0086 14.4235 10.3645 14.4235C9.89 14.4235 9.50644 14.0399 9.50644 13.5654C9.50644 13.0909 9.89 12.7073 10.3645 12.7073C12.5913 12.7073 14.6447 13.8211 15.8606 15.6857C16.1197 16.083 16.0073 16.6142 15.61 16.8733C15.465 16.9669 15.3028 17.0123 15.1424 17.0123Z" fill="#FFCB05"/>
<path d="M8.46219 14.4235C5.42113 14.4235 2.85202 11.8544 2.85202 8.8133C2.85202 5.77224 5.42113 3.20312 8.46219 3.20312C11.5033 3.20312 14.0724 5.77224 14.0724 8.8133C14.0724 11.8544 11.5033 14.4235 8.46219 14.4235ZM8.46219 4.9193C6.3513 4.9193 4.56819 6.7024 4.56819 8.8133C4.56819 10.9242 6.3513 12.7073 8.46219 12.7073C10.5731 12.7073 12.3562 10.9242 12.3562 8.8133C12.3562 6.7024 10.5731 4.9193 8.46219 4.9193Z" fill="#FFCB05"/>
<path d="M0.859002 20.1272C0.38448 20.1272 0.000915527 19.7436 0.000915527 19.2691C0.000915527 15.6514 2.94501 12.7082 6.56185 12.7082C7.03637 12.7082 7.41993 13.0917 7.41993 13.5663C7.41993 14.0408 7.03637 14.4244 6.56185 14.4244C3.89062 14.4235 1.71709 16.597 1.71709 19.2691C1.71709 19.7428 1.33352 20.1272 0.859002 20.1272Z" fill="#FFCB05"/>
<path d="M10.3641 14.4235H6.5619C6.08738 14.4235 5.70381 14.0399 5.70381 13.5654C5.70381 13.0909 6.08738 12.7073 6.5619 12.7073H10.3641C10.8386 12.7073 11.2222 13.0909 11.2222 13.5654C11.2222 14.0399 10.8386 14.4235 10.3641 14.4235Z" fill="#FFCB05"/>
<path d="M0.859002 22.9786C0.38448 22.9786 0.000915527 22.5951 0.000915527 22.1205V19.2691C0.000915527 18.7946 0.38448 18.411 0.859002 18.411C1.33352 18.411 1.71709 18.7946 1.71709 19.2691V22.1205C1.71709 22.5951 1.33352 22.9786 0.859002 22.9786Z" fill="#FFCB05"/>
<path d="M75.8331 24.7154C75.8735 24.7154 75.9146 24.7128 75.9567 24.7068C77.9174 24.4236 79.7983 23.8084 81.5454 22.8774C81.9633 22.6543 82.122 22.1343 81.8989 21.7155C81.675 21.2985 81.1576 21.1397 80.7371 21.362C79.1668 22.2003 77.4755 22.7529 75.7121 23.0069C75.2428 23.0747 74.9175 23.5098 74.9845 23.9792C75.0463 24.4073 75.4135 24.7154 75.8331 24.7154Z" fill="#FFCB05"/>
<path d="M66.8577 17.0123C67.1382 17.0123 67.4128 16.875 67.5776 16.6228C68.4751 15.2464 69.9914 14.4235 71.6355 14.4235C72.11 14.4235 72.4936 14.0399 72.4936 13.5654C72.4936 13.0909 72.11 12.7073 71.6355 12.7073C69.4087 12.7073 67.3553 13.8211 66.1394 15.6857C65.8803 16.083 65.9927 16.6142 66.39 16.8733C66.535 16.9669 66.6972 17.0123 66.8577 17.0123Z" fill="#FFCB05"/>
<path d="M73.5378 14.4235C76.5789 14.4235 79.148 11.8544 79.148 8.8133C79.148 5.77224 76.5789 3.20312 73.5378 3.20312C70.4967 3.20312 67.9276 5.77224 67.9276 8.8133C67.9276 11.8544 70.4967 14.4235 73.5378 14.4235ZM73.5378 4.9193C75.6487 4.9193 77.4318 6.7024 77.4318 8.8133C77.4318 10.9242 75.6487 12.7073 73.5378 12.7073C71.4269 12.7073 69.6438 10.9242 69.6438 8.8133C69.6438 6.7024 71.4269 4.9193 73.5378 4.9193Z" fill="#FFCB05"/>
<path d="M81.141 20.1272C81.6155 20.1272 81.9991 19.7436 81.9991 19.2691C81.9991 15.6514 79.055 12.7082 75.4382 12.7082C74.9636 12.7082 74.5801 13.0917 74.5801 13.5663C74.5801 14.0408 74.9636 14.4244 75.4382 14.4244C78.1094 14.4235 80.2829 16.597 80.2829 19.2691C80.2829 19.7428 80.6665 20.1272 81.141 20.1272Z" fill="#FFCB05"/>
<path d="M71.6359 14.4235H75.4381C75.9126 14.4235 76.2962 14.0399 76.2962 13.5654C76.2962 13.0909 75.9126 12.7073 75.4381 12.7073H71.6359C71.1614 12.7073 70.7778 13.0909 70.7778 13.5654C70.7778 14.0399 71.1614 14.4235 71.6359 14.4235Z" fill="#FFCB05"/>
<path d="M81.141 22.9786C81.6155 22.9786 81.9991 22.5951 81.9991 22.1205V19.2691C81.9991 18.7946 81.6155 18.411 81.141 18.411C80.6665 18.411 80.2829 18.7946 80.2829 19.2691V22.1205C80.2829 22.5951 80.6665 22.9786 81.141 22.9786Z" fill="#FFCB05"/>
<path d="M26.33 32.0264C25.6434 32.0264 25.0884 31.4714 25.0884 30.7848C25.0884 24.033 30.5812 18.5415 37.3318 18.5415C38.0184 18.5415 38.5733 19.0965 38.5733 19.7831C38.5733 20.4697 38.0184 21.0247 37.3318 21.0247C31.9494 21.0247 27.5716 25.4025 27.5716 30.7848C27.5716 31.4714 27.0153 32.0264 26.33 32.0264Z" fill="#00ADEF"/>
<path d="M26.33 37.528C25.6434 37.528 25.0884 36.973 25.0884 36.2864V30.7849C25.0884 30.0983 25.6434 29.5433 26.33 29.5433C27.0166 29.5433 27.5716 30.0983 27.5716 30.7849V36.2864C27.5716 36.973 27.0153 37.528 26.33 37.528Z" fill="#00ADEF"/>
<path d="M40.9996 21.0247C35.3566 21.0247 30.5889 16.257 30.5889 10.6139C30.5889 4.97085 35.3566 0.203125 40.9996 0.203125C46.6427 0.203125 51.4104 4.97085 51.4104 10.6139C51.4104 16.257 46.6427 21.0247 40.9996 21.0247ZM40.9996 2.68632C36.7025 2.68632 33.0721 6.31674 33.0721 10.6139C33.0721 14.9111 36.7025 18.5415 40.9996 18.5415C45.2968 18.5415 48.9272 14.9111 48.9272 10.6139C48.9272 6.31674 45.2968 2.68632 40.9996 2.68632Z" fill="#00ADEF"/>
<path d="M55.6692 32.0264C54.9826 32.0264 54.4276 31.4714 54.4276 30.7848C54.4276 25.4025 50.0497 21.0247 44.6674 21.0247C43.9808 21.0247 43.4258 20.4697 43.4258 19.7831C43.4258 19.0965 43.9808 18.5415 44.6674 18.5415C51.4192 18.5415 56.9108 24.0343 56.9108 30.7848C56.9108 31.4714 56.3558 32.0264 55.6692 32.0264Z" fill="#00ADEF"/>
<path d="M55.6693 37.528C54.9827 37.528 54.4277 36.973 54.4277 36.2864V30.7849C54.4277 30.0983 54.9827 29.5433 55.6693 29.5433C56.3559 29.5433 56.9109 30.0983 56.9109 30.7849V36.2864C56.9109 36.973 56.3559 37.528 55.6693 37.528Z" fill="#00ADEF"/>
<path d="M40.9999 41.2031C35.7604 41.2031 30.5221 39.9292 25.7457 37.3827C25.141 37.0587 24.9113 36.3075 25.2341 35.7016C25.5582 35.0982 26.3056 34.8685 26.9152 35.1901C35.7355 39.8945 46.2668 39.8945 55.0858 35.1901C55.6942 34.8685 56.4441 35.0982 56.7669 35.7016C57.0897 36.3063 56.86 37.0587 56.2554 37.3827C51.4777 39.928 46.2394 41.2031 40.9999 41.2031Z" fill="#00ADEF"/>
</svg>
