<svg width="244" height="221" viewBox="0 0 244 221" fill="none" xmlns="http://www.w3.org/2000/svg">
<path d="M0 0C45.8652 5.46029e-07 91.2314 9.50045 133.23 27.9007C175.229 46.3009 212.948 73.2006 244 106.899L120.853 220C105.473 203.309 86.7913 189.986 65.9892 180.872C45.187 171.758 22.717 167.053 0 167.053V0Z" fill="#FF95A1"/>
<path d="M104.5 109.399C105.154 108.371 105.671 107.277 106.047 106.143L109.067 106.314C109.433 105.017 109.657 103.668 109.721 102.285C109.784 100.902 109.684 99.5348 109.44 98.2027L106.418 98.0302C106.147 96.8612 105.733 95.715 105.177 94.6167L107.409 92.6228C106.739 91.4384 105.933 90.3161 104.991 89.2816C104.052 88.2512 103.013 87.3404 101.885 86.5549L99.6504 88.5508C98.6046 87.8896 97.4948 87.3645 96.3472 86.9779L96.4838 84.0009C93.7993 83.2315 90.9964 83.0919 88.294 83.5545L88.1582 86.5118C86.9805 86.7656 85.8286 87.1631 84.7277 87.7009L82.6944 85.4702C81.5022 86.1153 80.3785 86.9005 79.3457 87.8214C78.317 88.7444 77.413 89.7689 76.6381 90.8701L78.6763 93.1072C78.0218 94.136 77.5054 95.23 77.1291 96.3631L74.1091 96.1914C73.7428 97.4893 73.5191 98.8375 73.4557 100.221C73.3931 101.605 73.4926 102.971 73.7374 104.303L76.7574 104.475C77.0279 105.645 77.4418 106.791 77.9992 107.89L75.7659 109.885C76.4362 111.071 77.2418 112.192 78.1844 113.226C79.123 114.257 80.1621 115.168 81.2904 115.953L83.5249 113.957C84.5711 114.618 85.6809 115.143 86.8286 115.529L86.6923 118.506C89.3768 119.275 92.1813 119.416 94.8829 118.952L95.018 115.995C96.1948 115.741 97.3471 115.344 98.4484 114.806L100.48 117.035C101.672 116.39 102.796 115.605 103.828 114.685C104.86 113.764 105.764 112.738 106.539 111.636L104.5 109.399ZM97.116 107.319C93.7721 110.307 88.5877 110.011 85.5332 106.659C82.4832 103.311 82.7171 98.1748 86.0597 95.1879C89.4032 92.2015 94.5876 92.4976 97.6405 95.846C100.694 99.1956 100.458 104.333 97.116 107.319Z" fill="white"/>
<path d="M128.661 93.2901C128.935 92.7521 129.146 92.1972 129.311 91.6372L132.035 91.5088C132.497 89.3319 132.354 87.0989 131.654 85.0369L128.923 85.1652C128.462 84.0721 127.797 83.0615 126.954 82.1846L128.178 79.777C127.373 79.0506 126.469 78.4095 125.457 77.8953C124.446 77.381 123.395 77.0307 122.334 76.8063L121.11 79.2147C119.904 79.0503 118.697 79.11 117.541 79.38L116.035 77.0976C113.958 77.7478 112.068 78.9472 110.581 80.6034L112.084 82.8804C111.727 83.3438 111.404 83.8395 111.13 84.3784C110.856 84.9172 110.646 85.4717 110.481 86.0317L107.757 86.1596C107.295 88.337 107.439 90.5713 108.138 92.6315L110.868 92.5032C111.33 93.5968 111.994 94.6069 112.838 95.4839L111.613 97.8923C112.419 98.6183 113.322 99.2598 114.333 99.7741C115.345 100.288 116.397 100.64 117.457 100.863L118.681 98.4546C119.886 98.619 121.095 98.5598 122.25 98.2893L123.755 100.571C125.834 99.9219 127.722 98.7221 129.208 97.0655L127.707 94.789C128.065 94.3251 128.387 93.829 128.661 93.2901ZM117.848 92.8658C115.588 91.7168 114.673 88.9807 115.804 86.7548C116.936 84.529 119.686 83.6551 121.946 84.804C124.203 85.9516 125.118 88.6877 123.987 90.9136C122.855 93.1395 120.105 94.0134 117.848 92.8658Z" fill="white"/>
<path d="M104.695 76.136C104.854 75.8233 104.977 75.5008 105.072 75.1753L106.655 75.1007C106.924 73.8354 106.841 72.5375 106.434 71.339L104.847 71.4136C104.579 70.7783 104.192 70.1909 103.702 69.6812L104.414 68.2818C103.946 67.8596 103.42 67.487 102.832 67.1881C102.244 66.8892 101.634 66.6856 101.017 66.5551L100.305 67.955C99.6048 67.8594 98.9028 67.8941 98.2312 68.0511L97.3557 66.7245C96.1486 67.1024 95.0503 67.7995 94.186 68.7622L95.0592 70.0856C94.8521 70.355 94.664 70.6431 94.5048 70.9563C94.3455 71.2695 94.2234 71.5917 94.128 71.9172L92.5442 71.9916C92.2757 73.2572 92.3594 74.5558 92.7656 75.7533L94.3528 75.6787C94.6215 76.3143 95.0074 76.9014 95.4974 77.4111L94.7858 78.811C95.2543 79.2329 95.7789 79.6058 96.3668 79.9047C96.9548 80.2036 97.5665 80.4077 98.1821 80.5377L98.8938 79.1378C99.5944 79.2334 100.297 79.199 100.968 79.0417L101.843 80.368C103.051 79.9907 104.149 79.2933 105.013 78.3304L104.14 77.0072C104.348 76.7376 104.536 76.4492 104.695 76.136ZM98.4095 75.8894C97.0959 75.2216 96.5641 73.6313 97.2218 72.3375C97.8795 71.0438 99.478 70.5359 100.792 71.2037C102.104 71.8707 102.635 73.461 101.978 74.7547C101.32 76.0485 99.7215 76.5564 98.4095 75.8894Z" fill="white"/>
</svg>
