<svg width="28" height="28" viewBox="0 0 28 28" fill="none" xmlns="http://www.w3.org/2000/svg">
<path d="M18.3058 26.2503H9.69056C8.42182 26.2033 8.42277 24.3824 9.69056 24.3358H13.0409V22.4272H5.57437C3.46306 22.4272 1.74536 20.7095 1.74536 18.5981V9.02561C1.74536 6.91429 3.46306 5.1966 5.57437 5.1966H10.9829C12.2516 5.24365 12.2506 7.06449 10.9829 7.1111H5.57437C4.51871 7.1111 3.65987 7.96995 3.65987 9.02561V18.5981C3.65987 19.6538 4.51871 20.5126 5.57437 20.5126H22.422C23.4777 20.5126 24.3365 19.6538 24.3365 18.5981C24.3365 18.0695 24.7651 17.6409 25.2938 17.6409C25.8225 17.6409 26.251 18.0695 26.251 18.5981C26.251 20.7095 24.5333 22.4272 22.422 22.4272H14.9555V24.3358H18.3058C19.5746 24.3829 19.5736 26.2037 18.3058 26.2503ZM23.3722 16.205L21.3211 16.2048C20.0524 16.1575 20.0535 14.3368 21.3213 14.2903L23.3722 14.2905C23.631 14.2905 23.874 14.1908 24.0564 14.0096C24.2371 13.8303 24.3366 13.5923 24.3366 13.3395V6.88538L21.1162 3.66499H16.7336C16.2018 3.66499 15.7692 4.09159 15.7692 4.61598V7.92477C15.7222 9.19351 13.9013 9.19256 13.8547 7.92477V4.61598C13.8547 3.03594 15.1461 1.75049 16.7336 1.75049H21.1162C21.6276 1.75049 22.1083 1.9496 22.4699 2.3112L25.6903 5.53164C26.0519 5.89324 26.251 6.37402 26.251 6.88538V13.3395C26.251 14.1062 25.9507 14.8266 25.4054 15.3681C24.862 15.9078 24.1399 16.205 23.3722 16.205Z" fill="#2F3245"/>
<path d="M14.0269 18.0131C14.2607 18.2547 14.5669 18.3755 14.8731 18.3755C15.1793 18.3755 15.4854 18.2547 15.7192 18.0131L17.694 15.9965C18.0117 15.672 18.0166 15.1408 17.705 14.81C17.3933 14.4792 16.883 14.4741 16.5653 14.7986L15.679 15.7037V12.2092C15.6397 11.098 14.1068 11.0972 14.0671 12.2092V15.7037L13.1808 14.7986C12.863 14.4741 12.3528 14.4791 12.0411 14.81C11.7294 15.1408 11.7344 15.672 12.0521 15.9965L14.0269 18.0131Z" fill="#FFCB05"/>
</svg>
