<svg width="32" height="32" viewBox="0 0 32 32" fill="none" xmlns="http://www.w3.org/2000/svg">
<path d="M20.9224 29.9998H11.0763C9.62633 29.946 9.62742 27.8651 11.0763 27.8118H14.9053V25.6305H6.37211C3.95917 25.6305 1.99609 23.6674 1.99609 21.2545V10.3144C1.99609 7.90149 3.95917 5.93841 6.37211 5.93841H12.5532C14.0032 5.99218 14.0021 8.07314 12.5532 8.12642H6.37211C5.16564 8.12642 4.1841 9.10796 4.1841 10.3144V21.2545C4.1841 22.4609 5.16564 23.4425 6.37211 23.4425H25.6266C26.833 23.4425 27.8146 22.4609 27.8146 21.2545C27.8146 20.6502 28.3044 20.1605 28.9086 20.1605C29.5128 20.1605 30.0026 20.6502 30.0026 21.2545C30.0026 23.6674 28.0395 25.6305 25.6266 25.6305H17.0933V27.8118H20.9224C22.3723 27.8656 22.3713 29.9465 20.9224 29.9998ZM26.7125 18.5195L24.3684 18.5192C22.9184 18.4652 22.9197 16.3844 24.3686 16.3312L26.7125 16.3314C27.0082 16.3314 27.286 16.2174 27.4945 16.0104C27.7009 15.8054 27.8146 15.5335 27.8146 15.2446V7.86845L24.1342 4.18801H19.1255C18.5177 4.18801 18.0234 4.67555 18.0234 5.27484V9.05632C17.9696 10.5063 15.8886 10.5052 15.8353 9.05632V5.27484C15.8353 3.46908 17.3113 2 19.1255 2H24.1342C24.7187 2 25.2681 2.22755 25.6813 2.64081L29.3618 6.32131C29.775 6.73457 30.0026 7.28404 30.0026 7.86845V15.2446C30.0026 16.1208 29.6594 16.9441 29.0361 17.563C28.4151 18.1798 27.5898 18.5195 26.7125 18.5195Z" fill="#FFCB05"/>
<path d="M16.033 20.5859C16.3002 20.862 16.6501 21 17 21C17.35 21 17.6999 20.862 17.967 20.5859L20.2239 18.2812C20.5871 17.9103 20.5927 17.3033 20.2365 16.9252C19.8802 16.5471 19.2971 16.5413 18.934 16.9121L17.9211 17.9465V13.9528C17.8762 12.6829 16.1242 12.6819 16.079 13.9528V17.9465L15.066 16.9121C14.7028 16.5412 14.1197 16.547 13.7635 16.9252C13.4073 17.3033 13.4129 17.9103 13.7761 18.2812L16.033 20.5859Z" fill="#00ADEF"/>
</svg>
