<svg width="26" height="28" viewBox="0 0 26 28" fill="none" xmlns="http://www.w3.org/2000/svg">
<path fill-rule="evenodd" clip-rule="evenodd" d="M8 2C7.4477 2 7 2.44772 7 3V6.07599C6.33737 5.97758 5.66329 5.97475 5 6.0675V3C5 1.34315 6.34315 0 8 0H19C19.2652 0 19.5196 0.10536 19.7071 0.29289L25.7071 6.29289C25.8946 6.48043 26 6.73478 26 7V25C26 26.6569 24.6569 28 23 28H8C6.34315 28 5 26.6569 5 25V19.8736C5.66328 19.9663 6.33736 19.9634 7 19.865V25C7 25.5523 7.4477 26 8 26H23C23.5523 26 24 25.5523 24 25V8H19C18.4477 8 18 7.55228 18 7V2H8ZM20 3.41421L22.5858 6H20V3.41421Z" fill="#FFCB05"/>
<path d="M5.79958 12.7989C6.1901 12.4084 6.1901 11.7752 5.79958 11.3847C5.40906 10.9942 4.77589 10.9942 4.38537 11.3847C3.50956 12.2605 3.50956 13.6804 4.38537 14.5562C4.77589 14.9468 5.40906 14.9468 5.79958 14.5562C6.1901 14.1657 6.1901 13.5326 5.79958 13.142C5.70482 13.0473 5.70482 12.8936 5.79958 12.7989Z" fill="#00ADEF"/>
<path fill-rule="evenodd" clip-rule="evenodd" d="M10.1924 8.74871C7.8607 6.4171 4.08039 6.4171 1.74874 8.74871C-0.582912 11.0804 -0.582912 14.8607 1.74874 17.1924C3.83944 19.2831 7.0949 19.4991 9.4263 17.8405L12.2929 20.7071C12.6834 21.0976 13.3166 21.0976 13.7071 20.7071C14.0976 20.3166 14.0976 19.6834 13.7071 19.2929L10.8405 16.4263C12.4991 14.0949 12.2831 10.8394 10.1924 8.74871ZM3.16295 10.163C4.71355 8.61231 7.2276 8.61231 8.7782 10.163C10.3288 11.7136 10.3288 14.2276 8.7782 15.7782C7.2276 17.3288 4.71355 17.3288 3.16295 15.7782C1.61235 14.2276 1.61235 11.7136 3.16295 10.163Z" fill="#00ADEF"/>
</svg>
