<svg width="28" height="28" viewBox="0 0 28 28" fill="none" xmlns="http://www.w3.org/2000/svg">
<path fill-rule="evenodd" clip-rule="evenodd" d="M9.62683 3.50049C9.14357 3.50049 8.75183 3.89224 8.75183 4.37549V7.06698C8.17203 6.98087 7.58221 6.97839 7.00183 7.05955V4.37549C7.00183 2.92574 8.17709 1.75049 9.62683 1.75049H19.2518C19.4839 1.75049 19.7065 1.84268 19.8705 2.00677L25.1205 7.25677C25.2846 7.42086 25.3768 7.64342 25.3768 7.87549V23.6255C25.3768 25.0753 24.2016 26.2505 22.7518 26.2505H9.62683C8.17709 26.2505 7.00183 25.0753 7.00183 23.6255V19.1399C7.5822 19.221 8.17202 19.2185 8.75183 19.1324V23.6255C8.75183 24.1087 9.14357 24.5005 9.62683 24.5005H22.7518C23.2351 24.5005 23.6268 24.1087 23.6268 23.6255V8.75049H19.2518C18.7686 8.75049 18.3768 8.35873 18.3768 7.87549V3.50049H9.62683ZM20.1268 4.73792L22.3894 7.00049H20.1268V4.73792Z" fill="#2F3245"/>
<path d="M7.7011 12.9502C8.04281 12.6085 8.04281 12.0545 7.7011 11.7128C7.3594 11.3711 6.80537 11.3711 6.46367 11.7128C5.69733 12.4791 5.69733 13.7215 6.46367 14.4879C6.80537 14.8296 7.3594 14.8296 7.7011 14.4879C8.04281 14.1462 8.04281 13.5922 7.7011 13.2504C7.61819 13.1676 7.61819 13.0331 7.7011 12.9502Z" fill="#FFCB05"/>
<path fill-rule="evenodd" clip-rule="evenodd" d="M11.5441 9.4061C9.50384 7.36594 6.19607 7.36594 4.15588 9.4061C2.11568 11.4463 2.11568 14.7541 4.15588 16.7943C5.98524 18.6237 8.83377 18.8127 10.8737 17.3614L13.382 19.8697C13.7237 20.2114 14.2778 20.2114 14.6194 19.8697C14.9611 19.528 14.9611 18.974 14.6194 18.6323L12.1112 16.124C13.5624 14.084 13.3734 11.2355 11.5441 9.4061ZM5.39331 10.6436C6.75009 9.28675 8.94988 9.28675 10.3067 10.6436C11.6634 12.0004 11.6634 14.2001 10.3067 15.5569C8.94988 16.9137 6.75009 16.9137 5.39331 15.5569C4.03654 14.2001 4.03654 12.0004 5.39331 10.6436Z" fill="#FFCB05"/>
</svg>
