<svg width="24" height="24" viewBox="0 0 24 24" fill="none" xmlns="http://www.w3.org/2000/svg">
<path d="M19.5 17.0006H12.5C12.224 17.0006 12 16.7766 12 16.5006C12 16.2246 12 6.77664 12 6.50064C12 6.22464 12.224 6.00064 12.5 6.00064H19.5C19.776 6.00064 20 6.22464 20 6.50064V16.5006C20 16.7766 19.776 17.0006 19.5 17.0006Z" fill="#ECEFF1"/>
<path d="M14.5 9.00064H12.5C12.224 9.00064 12 8.77664 12 8.50064C12 8.22464 12.224 8.00064 12.5 8.00064H14.5C14.776 8.00064 15 8.22464 15 8.50064C15 8.77664 14.776 9.00064 14.5 9.00064Z" fill="#388E3C"/>
<path d="M14.5 11.0007H12.5C12.224 11.0007 12 10.7767 12 10.5007C12 10.2247 12.224 10.0007 12.5 10.0007H14.5C14.776 10.0007 15 10.2247 15 10.5007C15 10.7767 14.776 11.0007 14.5 11.0007Z" fill="#388E3C"/>
<path d="M14.5 13.0007H12.5C12.224 13.0007 12 12.7767 12 12.5007C12 12.2247 12.224 12.0007 12.5 12.0007H14.5C14.776 12.0007 15 12.2247 15 12.5007C15 12.7767 14.776 13.0007 14.5 13.0007Z" fill="#388E3C"/>
<path d="M14.5 15.0007H12.5C12.224 15.0007 12 14.7767 12 14.5007C12 14.2247 12.224 14.0007 12.5 14.0007H14.5C14.776 14.0007 15 14.2247 15 14.5007C15 14.7767 14.776 15.0007 14.5 15.0007Z" fill="#388E3C"/>
<path d="M17.5 9.00068H16.5C16.224 9.00068 16 8.77668 16 8.50068C16 8.22468 16.224 8.00068 16.5 8.00068H17.5C17.776 8.00068 18 8.22468 18 8.50068C18 8.77668 17.776 9.00068 17.5 9.00068Z" fill="#388E3C"/>
<path d="M17.5 11.0007H16.5C16.224 11.0007 16 10.7767 16 10.5007C16 10.2247 16.224 10.0007 16.5 10.0007H17.5C17.776 10.0007 18 10.2247 18 10.5007C18 10.7767 17.776 11.0007 17.5 11.0007Z" fill="#388E3C"/>
<path d="M17.5 13.0007H16.5C16.224 13.0007 16 12.7767 16 12.5007C16 12.2247 16.224 12.0007 16.5 12.0007H17.5C17.776 12.0007 18 12.2247 18 12.5007C18 12.7767 17.776 13.0007 17.5 13.0007Z" fill="#388E3C"/>
<path d="M17.5 15.0007H16.5C16.224 15.0007 16 14.7767 16 14.5007C16 14.2247 16.224 14.0007 16.5 14.0007H17.5C17.776 14.0007 18 14.2247 18 14.5007C18 14.7767 17.776 15.0007 17.5 15.0007Z" fill="#388E3C"/>
<path d="M12.819 4.11567C12.705 4.02067 12.552 3.97967 12.408 4.00967L4.408 5.50967C4.171 5.55367 4 5.75967 4 6.00067V17.0007C4 17.2407 4.171 17.4477 4.408 17.4917L12.408 18.9917C12.438 18.9977 12.469 19.0007 12.5 19.0007C12.616 19.0007 12.729 18.9607 12.819 18.8857C12.934 18.7907 13 18.6487 13 18.5007V4.50067C13 4.35167 12.934 4.21067 12.819 4.11567Z" fill="#2E7D32"/>
<path d="M10.8759 13.1716L9.2949 11.3646L10.8939 9.30864C11.0639 9.09064 11.0239 8.77664 10.8069 8.60664C10.5899 8.43664 10.2759 8.47664 10.1049 8.69364L8.6239 10.5976L7.3759 9.17164C7.1929 8.96164 6.8769 8.94264 6.6709 9.12464C6.4629 9.30664 6.4419 9.62264 6.6239 9.82964L7.9989 11.4016L6.6049 13.1936C6.4349 13.4116 6.4749 13.7256 6.6919 13.8956C6.7839 13.9666 6.8929 14.0006 6.9999 14.0006C7.1489 14.0006 7.2959 13.9346 7.3949 13.8076L8.6699 12.1676L10.1239 13.8286C10.2229 13.9426 10.3609 14.0006 10.4999 14.0006C10.6169 14.0006 10.7339 13.9596 10.8289 13.8766C11.0369 13.6946 11.0579 13.3786 10.8759 13.1716Z" fill="#FAFAFA"/>
</svg>
