<svg width="40" height="28" viewBox="0 0 40 28" fill="none" xmlns="http://www.w3.org/2000/svg">
<path d="M10.6988 27.6536C10.1079 27.5073 9.5532 27.2416 9.06879 26.8729C8.58439 26.5043 8.18052 26.0405 7.88202 25.5099L0.6497 12.6181C0.0731703 11.5889 -0.0709023 10.3728 0.249173 9.23743C0.569248 8.10202 1.32725 7.14026 2.35644 6.56373C3.38562 5.9872 4.60168 5.84313 5.73709 6.1632C6.8725 6.48328 7.83426 7.24129 8.41079 8.27047L13.0977 16.6316L32.8785 1.29093C33.8143 0.612788 34.9771 0.324953 36.1212 0.488237C37.2653 0.651522 38.3012 1.25314 39.0099 2.16599C39.7187 3.07885 40.0449 4.23146 39.9196 5.38035C39.7943 6.52924 39.2273 7.58444 38.3384 8.32304L14.4788 26.8711C13.9709 27.2601 13.3849 27.5346 12.7609 27.6758C12.137 27.817 11.4898 27.8216 10.8639 27.6893L10.6988 27.6536Z" fill="#FFCB05"/>
</svg>
