<svg width="31" height="53" viewBox="0 0 31 53" fill="none" xmlns="http://www.w3.org/2000/svg">
<path d="M2.8322 3.20505C3.89684 2.62968 4.99787 2.12433 6.12827 1.69222C7.32653 1.24663 8.56147 0.906712 9.81898 0.676357C11.1679 0.444631 12.5361 0.344282 13.9043 0.376716C15.4452 0.416036 16.9781 0.611944 18.4793 0.961397C20.5082 1.39519 22.4531 2.1554 24.2383 3.21237C25.8044 4.14345 27.1705 5.37545 28.2579 6.83729C29.28 8.23892 29.9811 9.84827 30.3116 11.5512C30.6563 13.39 30.604 15.2813 30.1581 17.0982C29.8177 18.7908 29.1579 20.403 28.214 21.8486C27.4141 23.0408 26.4412 24.1074 25.3273 25.0131C24.2983 25.8263 23.1773 26.5156 21.9874 27.0668C20.8253 27.5857 19.7364 28.09 18.7059 28.5504C17.7651 28.9668 16.8543 29.4479 15.9799 29.9901C15.2506 30.4387 14.6786 31.1027 14.3428 31.8903L12.2307 37.1888L5.87247 35.7564L6.62523 29.4785C6.69751 28.3798 7.12306 27.3338 7.83841 26.4967C8.55366 25.6892 9.40139 25.0095 10.3452 24.4869C11.3782 23.9116 12.4475 23.4038 13.5462 22.9668C14.6949 22.5074 15.8087 21.9652 16.8788 21.3443C17.9262 20.7449 18.8772 19.9909 19.6998 19.108C20.562 18.1333 21.1519 16.9485 21.41 15.6731C21.6278 14.8659 21.66 14.0199 21.5044 13.1985C21.3487 12.377 21.0091 11.6015 20.5111 10.93C19.9937 10.2555 19.351 9.68721 18.6182 9.25635C17.7981 8.77688 16.9079 8.42916 15.9799 8.22588C14.7634 7.91534 13.5058 7.79697 12.2526 7.87508C11.3175 7.93906 10.3916 8.10073 9.4901 8.35743C8.7081 8.58399 8.05036 8.80323 7.50223 9.01518C7.06534 9.20404 6.58377 9.26487 6.11364 9.19058C5.70889 9.11984 5.33307 8.93405 5.0311 8.65541C4.72913 8.37676 4.51378 8.01706 4.4108 7.61929L2.8322 3.20505ZM0.800483 45.0234C0.97051 44.2625 1.28834 43.5424 1.73594 42.904C2.14943 42.2849 2.6809 41.7534 3.29994 41.34C3.943 40.9355 4.65741 40.6577 5.40475 40.5214C6.20104 40.3814 7.01793 40.4113 7.80187 40.6091C8.56981 40.7764 9.29423 41.1025 9.92859 41.5665C10.5394 42.0034 11.0625 42.5513 11.4707 43.1817C12.0934 44.1664 12.4068 45.3153 12.3703 46.4799C12.3339 47.6445 11.9492 48.7714 11.266 49.7153C10.8308 50.3247 10.2763 50.8394 9.63626 51.2282C8.31706 52.0337 6.73231 52.2834 5.22933 51.9224C4.45477 51.7558 3.7216 51.4352 3.07338 50.9797C2.46139 50.5593 1.94067 50.0195 1.54255 49.3928C1.14443 48.7661 0.877097 48.0654 0.756617 47.3328C0.626501 46.5588 0.64886 45.7669 0.822407 45.0014L0.800483 45.0234Z" fill="#FFCB05"/>
</svg>
