<svg width="40" height="40" viewBox="0 0 40 40" fill="none" xmlns="http://www.w3.org/2000/svg">
<path d="M13.3474 13.349C13.2833 13.8695 13.25 14.3996 13.25 14.9375C13.25 15.5096 13.288 16.0728 13.3603 16.625H23.375C21.1476 14.5313 18.1725 13.25 14.9083 13.25C14.3798 13.25 13.8589 13.2839 13.3474 13.349Z" fill="#FFCB05"/>
<path d="M25.0617 18.875H13.25C13.6419 19.684 14.2153 20.4407 14.9387 21.125H26.75C26.3583 20.316 25.7849 19.5593 25.0617 18.875Z" fill="#FFCB05"/>
<path d="M14.6612 38C20.3311 38 25.1425 34.2537 26.75 29.1063C26.3839 29.1336 26.0142 29.1478 25.6412 29.1478C17.4865 29.1478 10.8522 22.5135 10.8522 14.3588C10.8522 13.9858 10.8664 13.6161 10.8937 13.25C5.74634 14.8575 2 19.6688 2 25.3388C2 32.3201 7.67981 38 14.6612 38Z" fill="#2F3245"/>
<path d="M26.6398 23.375H16.625C18.8526 25.4686 21.8276 26.75 25.0915 26.75C25.6201 26.75 26.1411 26.7161 26.6526 26.6509C26.7167 26.1302 26.75 25.6 26.75 25.0619C26.75 24.4901 26.712 23.9271 26.6398 23.375Z" fill="#FFCB05"/>
<path d="M25.3388 2C19.6689 2 14.8575 5.74633 13.25 10.8937C13.6161 10.8664 13.9858 10.8522 14.3588 10.8522C22.5135 10.8522 29.1478 17.4865 29.1478 25.6412C29.1478 26.0142 29.1336 26.3839 29.1063 26.75C34.2537 25.1425 38 20.3311 38 14.6612C38.0001 7.67979 32.3203 2 25.3388 2Z" fill="#2F3245"/>
</svg>
