<svg width="40" height="40" viewBox="0 0 40 40" fill="none" xmlns="http://www.w3.org/2000/svg">
<path d="M9.9987 19.582C5.6287 19.582 2.08203 23.1287 2.08203 27.4987C2.08203 31.8687 5.6287 35.4154 9.9987 35.4154C14.3687 35.4154 17.9154 31.8687 17.9154 27.4987C17.9154 23.1287 14.3687 19.582 9.9987 19.582ZM9.9987 24.9987C11.3787 24.9987 12.4987 26.1187 12.4987 27.4987C12.4987 28.8787 11.3787 29.9987 9.9987 29.9987C8.6187 29.9987 7.4987 28.8787 7.4987 27.4987C7.4987 26.1187 8.6187 24.9987 9.9987 24.9987Z" fill="#00ADEF"/>
<path d="M31.6016 22.8125C28.13 22.8125 25.3125 25.6475 25.3125 29.1406C25.3125 32.6337 28.13 35.4688 31.6016 35.4688C35.0731 35.4688 37.8906 32.6337 37.8906 29.1406C37.8906 25.6475 35.0731 22.8125 31.6016 22.8125ZM31.6016 27.1423C32.6978 27.1423 33.5876 28.0375 33.5876 29.1406C33.5876 30.2437 32.6978 31.139 31.6016 31.139C30.5053 31.139 29.6155 30.2437 29.6155 29.1406C29.6155 28.0375 30.5053 27.1423 31.6016 27.1423Z" fill="#00ADEF"/>
<path d="M4.10202 19.9441C5.72869 18.6724 7.77535 17.9141 9.99869 17.9141C15.2887 17.9141 19.582 22.2074 19.582 27.4974C19.582 28.1874 20.142 28.7474 20.832 28.7474C21.522 28.7474 22.082 28.1874 22.082 27.4974C22.082 20.8291 16.667 15.4141 9.99869 15.4141C7.19535 15.4141 4.61369 16.3707 2.56202 17.9757C2.01869 18.4007 1.92202 19.1874 2.34702 19.7307C2.77202 20.2741 3.55869 20.3691 4.10202 19.9441Z" fill="white"/>
<path d="M7.91406 16.6654V7.08203H18.3641L22.6224 16.307C23.0624 17.2604 23.9807 17.9037 25.0274 17.992C27.2241 18.1754 32.3941 18.6054 32.3941 18.6054C33.0807 18.662 33.6857 18.1504 33.7424 17.4637C33.8007 16.7754 33.2891 16.172 32.6007 16.1137L25.2357 15.5004C25.0857 15.4887 24.9557 15.3954 24.8924 15.2604L20.2991 5.3087C20.0941 4.86536 19.6524 4.58203 19.1641 4.58203H6.66406C5.97406 4.58203 5.41406 5.14203 5.41406 5.83203V16.6654C5.41406 17.3554 5.97406 17.9154 6.66406 17.9154C7.35406 17.9154 7.91406 17.3554 7.91406 16.6654Z" fill="white"/>
<path d="M22.4974 4.58203H4.16406C3.47406 4.58203 2.91406 5.14203 2.91406 5.83203C2.91406 6.52203 3.47406 7.08203 4.16406 7.08203H22.4974C23.1874 7.08203 23.7474 6.52203 23.7474 5.83203C23.7474 5.14203 23.1874 4.58203 22.4974 4.58203Z" fill="white"/>
<path d="M31.25 16.6649V13.1883C31.25 13.0783 31.2933 12.9716 31.3717 12.8933L32.55 11.7149C33.0383 11.2283 33.0383 10.4349 32.55 9.94828C32.0633 9.45995 31.27 9.45995 30.7833 9.94828L29.605 11.1266C29.0567 11.6733 28.75 12.4149 28.75 13.1883V16.6649C28.75 17.3549 29.31 17.9149 30 17.9149C30.69 17.9149 31.25 17.3549 31.25 16.6649Z" fill="white"/>
<path d="M23.7601 28.7474C23.9785 24.5707 27.4368 21.2474 31.6668 21.2474C33.0235 21.2474 34.3001 21.5891 35.4168 22.1907V18.2591C35.4168 17.1807 34.5951 16.2807 33.5218 16.1841L25.1135 15.4191C25.0751 15.4157 25.0385 15.4141 25.0001 15.4141H10.0001C9.49513 15.4141 9.03846 15.7191 8.84513 16.1857C8.65179 16.6524 8.75846 17.1907 9.11679 17.5474C16.4635 17.9291 19.4918 22.0441 19.9501 28.3807C19.9735 28.7124 20.5018 28.7474 20.8335 28.7474H23.7601Z" fill="white"/>
</svg>
