<svg width="40" height="40" viewBox="0 0 40 40" fill="none" xmlns="http://www.w3.org/2000/svg">
<path d="M23.5273 0.689209V7.05873H29.8969L23.5273 0.689209Z" fill="#FFCB05"/>
<path d="M19.998 31.7641C19.998 25.9258 24.7477 21.1761 30.586 21.1761V9.41158H21.1744V0H1.1748V39.9992H23.9392C21.5371 38.0566 19.998 35.0869 19.998 31.7641ZM7.88895 9.7562L9.41002 11.2772L13.284 7.40331L14.9477 9.06704L9.41009 14.6047L6.22537 11.4199L7.88895 9.7562ZM15.8804 29.4112H5.88059V27.0583H15.8804V29.4112ZM18.8215 24.7054H5.88059V22.3525H18.8215V24.7054ZM18.8215 19.9996H5.88059V17.6467H18.8215V19.9996Z" fill="#FFCB05"/>
<g clip-path="url(#clip0_3835_18648)">
<path d="M30.5 39C34.6411 39 38 35.6411 38 31.5C38 27.3589 34.6411 24 30.5 24C26.3589 24 23 27.3589 23 31.5C23 35.6411 26.3589 39 30.5 39ZM29.9643 27.2143C29.9643 26.9196 30.2053 26.6786 30.5 26.6786C30.7947 26.6786 31.0357 26.9196 31.0357 27.2143V31.2429L33.5134 33.225C33.7438 33.4098 33.7813 33.7473 33.5964 33.9777C33.492 34.1089 33.3366 34.1786 33.1786 34.1786C33.0607 34.1786 32.9428 34.141 32.8438 34.0607L30.1652 31.9179C30.0393 31.8161 29.9643 31.6634 29.9643 31.5V27.2143H29.9643Z" fill="#2F3245"/>
</g>
<defs>
<clipPath id="clip0_3835_18648">
<rect width="15" height="15" fill="white" transform="translate(23 24)"/>
</clipPath>
</defs>
</svg>
