<svg width="40" height="40" viewBox="0 0 40 40" fill="none" xmlns="http://www.w3.org/2000/svg">
<g clip-path="url(#clip0_3678_24997)">
<path d="M8.98617 27.2263C7.90928 27.2263 7.03308 28.1024 7.03308 29.1793C7.03308 30.2562 7.9092 31.1323 8.98617 31.1323C10.0631 31.1323 10.9392 30.2562 10.9392 29.1793C10.9392 28.1024 10.0631 27.2263 8.98617 27.2263Z" fill="#FFCB05"/>
<path d="M8.98576 20.1951C4.03199 20.1951 0.00183105 24.2252 0.00183105 29.1789C0.00183105 34.1326 4.03199 38.1628 8.98576 38.1628C13.9395 38.1628 17.9696 34.1326 17.9696 29.1789C17.9697 24.2252 13.9395 20.1951 8.98576 20.1951ZM8.98584 33.4756C6.61668 33.4756 4.68921 31.5482 4.68921 29.179C4.68921 26.8098 6.61668 24.8824 8.98584 24.8824C11.355 24.8824 13.2825 26.8098 13.2825 29.179C13.2825 31.5482 11.355 33.4756 8.98584 33.4756Z" fill="#FFCB05"/>
<path d="M32.7339 27.2253C29.7138 27.2253 27.2655 29.6736 27.2655 32.6938C27.2655 35.7139 29.7138 38.1622 32.7339 38.1622C35.7541 38.1622 38.2024 35.7139 38.2024 32.6938C38.2024 29.6736 35.7541 27.2253 32.7339 27.2253ZM32.7339 33.8656C32.0868 33.8656 31.5621 33.3409 31.5621 32.6938C31.5621 32.0465 32.0868 31.522 32.7339 31.522C33.3811 31.522 33.9057 32.0465 33.9057 32.6938C33.9057 33.3409 33.3811 33.8656 32.7339 33.8656Z" fill="#FFCB05"/>
<path d="M38.8281 17.2267H35.157V12.861C35.157 12.6456 35.3322 12.4704 35.5476 12.4704H36.5632C37.2103 12.4704 37.735 11.9457 37.735 11.2985C37.735 10.6514 37.2103 10.1267 36.5632 10.1267H35.5476C34.04 10.1267 32.8134 11.3533 32.8134 12.861V17.2267H26.6421L23.3308 4.18053H24.1681C24.8152 4.18053 25.3399 3.65587 25.3399 3.00872C25.3399 2.36157 24.8152 1.83691 24.1681 1.83691H6.38246C5.73531 1.83691 5.21065 2.36157 5.21065 3.00872C5.21065 3.65587 5.73531 4.18053 6.38246 4.18053H6.63159L5.27792 16.0244C3.52403 16.5207 1.87171 17.3652 0.437886 18.5169C-0.0666155 18.9222 -0.147158 19.6597 0.258131 20.1643C0.66342 20.6688 1.40088 20.7492 1.90553 20.344C3.93557 18.7134 6.38402 17.8515 8.98629 17.8515C15.2323 17.8515 20.3138 22.933 20.3138 29.179C20.3138 29.7568 20.2698 30.3373 20.1828 30.904C20.0847 31.5437 20.5237 32.1418 21.1635 32.2399C21.2237 32.2491 21.2835 32.2536 21.3426 32.2536C21.9113 32.2536 22.4105 31.8388 22.4994 31.2593C22.5455 30.959 22.581 30.6556 22.6069 30.3508H25.2824C26.2801 27.1846 29.2437 24.8821 32.7351 24.8821C35.9503 24.8821 38.7177 26.8347 39.9147 29.6161C39.9692 29.481 39.9999 29.3337 39.9999 29.179V18.3985C39.9999 17.7514 39.4753 17.2267 38.8281 17.2267ZM8.98637 15.5079C8.55202 15.5079 8.119 15.5297 7.68856 15.5712L8.99035 4.18053H16.7204V17.2267H15.616C13.6512 16.1325 11.3905 15.5079 8.98637 15.5079ZM19.0641 17.2267V4.18053H20.9129L24.2241 17.2267H19.0641Z" fill="#2F3245"/>
</g>
<defs>
<clipPath id="clip0_3678_24997">
<rect width="40" height="40" fill="white"/>
</clipPath>
</defs>
</svg>
