<svg width="37" height="35" viewBox="0 0 37 35" fill="none" xmlns="http://www.w3.org/2000/svg">
<path d="M36.3168 24.6191C27.707 31.1244 27.4764 31.8762 25.4185 32.4882C22.9529 33.2162 20.5555 33.5266 19.6464 33.5266C18.2443 33.5266 16.8708 33.0974 15.7221 32.2921C13.8367 31.0371 13.5798 30.6234 12.7257 30.4607C12.6351 30.1287 12.7296 30.4106 8.85034 22.3259L10.9188 21.0423C13.3675 19.5257 16.6296 20.1511 18.3383 22.469C18.6367 22.8696 19.1068 23.1067 19.6096 23.0781L24.7154 22.8614C26.0453 22.8211 27.0419 23.777 27.2295 24.8931L31.3214 21.8272C32.8499 20.6698 34.9274 20.7705 36.3414 21.9049C37.2007 22.5956 37.213 23.9231 36.3168 24.6191Z" fill="#2F3245"/>
<path d="M10.8321 32.4184L5.76654 34.8273C5.08732 35.1543 4.27162 34.8687 3.94467 34.1894L0.135371 26.2756C-0.191582 25.5964 0.0940428 24.7807 0.773262 24.4537L5.83881 22.0448C6.51803 21.7179 7.33373 22.0034 7.66068 22.6827L11.4699 30.5965C11.7969 31.2757 11.5113 32.0914 10.8321 32.4184Z" fill="#2F3245"/>
<path d="M23.8162 16.5454C24.7768 16.9991 28.0185 18.6383 30.4262 20.9644L27.6873 23.0165C26.4391 21.4562 24.7339 21.6509 24.6623 21.6347L19.528 21.8555C19.4544 21.8555 19.3767 21.8105 19.3236 21.7411C18.7799 21.0053 18.0931 20.3921 17.3164 19.9424C19.3481 18.2909 21.6046 17.1095 22.5693 16.6394C22.7508 15.1877 22.708 13.6911 22.2995 12.2613C14.6165 12.4171 10.8325 8.38224 10.8167 1.08506C10.8167 0.48818 11.2868 0.0099772 11.8837 0.00177408C19.2964 -0.0947103 23.2114 3.74576 23.2275 11.174C23.5804 6.35865 26.2708 3.7699 31.6158 3.75443C32.0655 3.75037 32.4293 4.11006 32.4334 4.55568C32.4959 9.98638 29.7859 13.0869 24.0205 13.1034C23.9429 13.271 23.8734 13.4468 23.812 13.6226C23.9225 14.5055 23.9306 15.4784 23.8162 16.5454Z" fill="#FFCB05"/>
</svg>
