<svg width="40" height="40" viewBox="0 0 40 40" fill="none" xmlns="http://www.w3.org/2000/svg">
<g clip-path="url(#clip0_3678_25037)">
<path d="M3.57143 25H0.714286C0.319797 25 0 25.3198 0 25.7143V39.2857C0 39.6802 0.319797 40 0.714286 40H3.57143C3.96592 40 4.28571 39.6802 4.28571 39.2857V25.7143C4.28571 25.3198 3.96592 25 3.57143 25Z" fill="#2F3245"/>
<path d="M5.71484 26.4287V38.5716H20.4077C21.0676 38.5731 21.7151 38.3926 22.2791 38.0501L33.8148 31.0216C34.2393 30.766 34.4039 30.2323 34.1971 29.782C33.9902 29.3318 33.4781 29.1089 33.0077 29.2644L27.9506 30.9501C27.9506 30.9573 27.9434 30.9573 27.9363 30.9573L20.4506 33.4644C20.2284 33.5333 19.9974 33.5694 19.7648 33.5716H14.5291C13.5698 33.5713 12.6321 33.8573 11.8363 34.393L11.4077 34.6787C11.1959 34.8216 10.9239 34.8407 10.6943 34.7287C10.4646 34.6167 10.3121 34.3907 10.2943 34.1358C10.2764 33.881 10.3959 33.6359 10.6077 33.493L11.0363 33.2073C12.069 32.5135 13.285 32.143 14.5291 32.143H19.6791C20.6334 30.9416 19.0498 29.2859 17.522 29.2859H14.1006C13.3174 29.2742 12.5456 29.0965 11.8363 28.7644C11.1559 28.4502 10.5175 28.0518 9.93627 27.5787C9.00497 26.8355 7.84918 26.4301 6.6577 26.4287H5.71484Z" fill="#2F3245"/>
<path d="M34.2851 1.42872H19.5922C18.9324 1.42723 18.2849 1.60765 17.7208 1.95015L6.18511 8.97872C5.94896 9.11758 5.78475 9.35216 5.73511 9.62158C5.67876 9.89141 5.74121 10.1724 5.90653 10.393C6.15679 10.7292 6.59427 10.8674 6.99225 10.7359L19.5494 6.53586C19.7637 6.43754 20.001 6.40045 20.2351 6.42872H25.4708C26.4302 6.429 27.3678 6.14299 28.1637 5.60729L28.5922 5.32158C28.8038 5.1625 29.0859 5.1334 29.3254 5.24596C29.5649 5.35852 29.7226 5.59429 29.7351 5.85864C29.7476 6.123 29.6129 6.37261 29.3851 6.50729L28.9565 6.79301C27.9268 7.48761 26.7129 7.85827 25.4708 7.85729H20.3208C19.938 8.28116 19.9023 8.91453 20.2351 9.37872C20.2565 9.41443 20.2708 9.45015 20.2922 9.49301C20.7695 10.2413 21.5905 10.7001 22.478 10.7144H25.8994C26.6803 10.7253 27.4499 10.9031 28.1565 11.2359C28.8401 11.5483 29.481 11.9468 30.0637 12.4216C30.9944 13.1658 32.1506 13.5713 33.3422 13.5716H34.2851V1.42872Z" fill="#2F3245"/>
<path d="M39.2863 0H36.4291C36.0346 0 35.7148 0.319797 35.7148 0.714286V14.2857C35.7148 14.6802 36.0346 15 36.4291 15H39.2863C39.6808 15 40.0006 14.6802 40.0006 14.2857V0.714286C40.0006 0.319797 39.6808 0 39.2863 0Z" fill="#2F3245"/>
<path fill-rule="evenodd" clip-rule="evenodd" d="M7.89074 19.9951C7.8742 16.2125 9.63923 12.6427 12.655 10.3594L18.6336 8.35938C18.5717 8.94122 18.6995 9.52749 18.9979 10.0308C19.6973 11.3216 21.0441 12.1292 22.5122 12.1379H25.9336C26.514 12.1532 27.0852 12.2869 27.6122 12.5308C28.1815 12.7988 28.7163 13.1346 29.205 13.5308C29.7087 13.9295 30.2667 14.2542 30.8622 14.4951C31.7231 16.2009 32.1732 18.0844 32.1765 19.9951C32.193 23.7777 30.428 27.3475 27.4122 29.6308L21.4336 31.6379C21.4963 31.0538 21.3686 30.465 21.0693 29.9594C20.4356 28.7851 19.2611 28.0012 17.9336 27.8665C17.861 27.8623 17.8097 27.8593 17.7585 27.8571C17.497 27.8462 17.2346 27.8582 14.1336 27.8522C13.5531 27.8378 12.9817 27.704 12.455 27.4594C11.8857 27.1914 11.3509 26.8556 10.8622 26.4594C10.3575 26.0622 9.7997 25.7376 9.20503 25.4951C8.34408 23.7893 7.894 21.9058 7.89074 19.9951ZM11.4772 23.6015C10.9926 22.4611 10.7445 21.2342 10.7479 19.9951C10.7463 16.0048 13.2976 12.461 17.0822 11.1965C17.3246 11.1154 17.5053 10.911 17.5563 10.6605C17.6072 10.41 17.5206 10.1513 17.3291 9.98195C17.1376 9.81257 16.8703 9.75822 16.6279 9.83937C12.2602 11.2992 9.31635 15.3899 9.31931 19.9951C9.31575 21.4261 9.60249 22.843 10.1622 24.1601C10.2743 24.424 10.5333 24.5953 10.82 24.5951C10.9158 24.5953 11.0106 24.5759 11.0986 24.5379C11.4617 24.3839 11.6312 23.9646 11.4772 23.6015ZM28.59 16.3887C29.0746 17.5291 29.3227 18.756 29.3193 19.9951C29.3209 23.9853 26.7696 27.5292 22.985 28.7937C22.6103 28.9191 22.4082 29.3246 22.5336 29.6994C22.659 30.0741 23.0645 30.2763 23.4393 30.1508C27.807 28.6909 30.7508 24.6003 30.7479 19.9951C30.7514 18.564 30.4647 17.1472 29.905 15.8301C29.7508 15.467 29.3314 15.2976 28.9682 15.4519C28.6051 15.6061 28.4358 16.0255 28.59 16.3887ZM22.4981 17.6389C22.554 17.6389 22.6 17.6569 22.6359 17.6928C22.6719 17.7288 22.6899 17.7747 22.6899 17.8307V18.442C22.6899 18.4979 22.6719 18.5438 22.6359 18.5797C22.6 18.6157 22.554 18.6336 22.4981 18.6336H21.4914C21.3994 19.2089 21.1418 19.6764 20.7184 20.0359C20.2949 20.3954 19.7436 20.6151 19.0644 20.695C19.7316 21.4061 20.6485 22.4768 21.8149 23.907C21.871 23.9709 21.8788 24.0389 21.8389 24.1108C21.807 24.1828 21.749 24.2187 21.6651 24.2187H20.4966C20.4326 24.2187 20.3827 24.1947 20.3467 24.1468C19.1243 22.6805 18.1295 21.54 17.3625 20.725C17.3265 20.6891 17.3086 20.6452 17.3086 20.5932V19.8321C17.3086 19.7802 17.3275 19.7352 17.3655 19.6973C17.4035 19.6593 17.4484 19.6403 17.5003 19.6403H18.1715C18.6989 19.6403 19.1232 19.5544 19.4449 19.3826C19.7665 19.2108 19.9713 18.9612 20.0592 18.6335H17.5003C17.4445 18.6335 17.3985 18.6156 17.3625 18.5796C17.3265 18.5437 17.3086 18.4978 17.3086 18.4418V17.8306C17.3086 17.7746 17.3266 17.7287 17.3625 17.6927C17.3984 17.6568 17.4444 17.6388 17.5003 17.6388H19.9752C19.7475 17.1874 19.2121 16.9617 18.3692 16.9617H17.5003C17.4484 16.9617 17.4035 16.9427 17.3655 16.9048C17.3276 16.8668 17.3086 16.8219 17.3086 16.77V15.973C17.3086 15.917 17.3266 15.8711 17.3625 15.8351C17.3985 15.7993 17.4444 15.7812 17.5003 15.7812H22.486C22.5421 15.7812 22.5879 15.7993 22.624 15.8352C22.6598 15.8711 22.6777 15.917 22.6777 15.973V16.5844C22.6777 16.6403 22.6597 16.6863 22.624 16.7222C22.5879 16.7581 22.5421 16.776 22.4861 16.776H21.0899C21.2776 17.0197 21.4055 17.3075 21.4734 17.6389H22.4981Z" fill="#FFCB05"/>
</g>
<defs>
<clipPath id="clip0_3678_25037">
<rect width="40" height="40" fill="white"/>
</clipPath>
</defs>
</svg>
