<svg width="24" height="24" viewBox="0 0 24 24" fill="none" xmlns="http://www.w3.org/2000/svg">
<path d="M17 4L15 2H5.5C4.7 2 4 2.7 4 3.5V20.5C4 21.3 4.7 22 5.5 22H18.5C19.3 22 20 21.3 20 20.5V7L17 4Z" fill="#EF3340"/>
<path d="M15 5.9V2L20 7H16.1C15.5 7 15 6.5 15 5.9Z" fill="white" fill-opacity="0.6"/>
<path d="M6.92625 14V10.5H8.44125C8.75458 10.5 9.02458 10.5517 9.25125 10.655C9.47792 10.755 9.65292 10.9 9.77625 11.09C9.89958 11.28 9.96125 11.5067 9.96125 11.77C9.96125 12.03 9.89958 12.255 9.77625 12.445C9.65292 12.635 9.47792 12.7817 9.25125 12.885C9.02458 12.985 8.75458 13.035 8.44125 13.035H7.37625L7.73625 12.67V14H6.92625ZM7.73625 12.76L7.37625 12.375H8.39625C8.64625 12.375 8.83292 12.3217 8.95625 12.215C9.07958 12.1083 9.14125 11.96 9.14125 11.77C9.14125 11.5767 9.07958 11.4267 8.95625 11.32C8.83292 11.2133 8.64625 11.16 8.39625 11.16H7.37625L7.73625 10.775V12.76ZM10.5595 14V10.5H12.1495C12.5295 10.5 12.8645 10.5733 13.1545 10.72C13.4445 10.8633 13.6712 11.065 13.8345 11.325C13.9979 11.585 14.0795 11.8933 14.0795 12.25C14.0795 12.6033 13.9979 12.9117 13.8345 13.175C13.6712 13.435 13.4445 13.6383 13.1545 13.785C12.8645 13.9283 12.5295 14 12.1495 14H10.5595ZM11.3695 13.335H12.1095C12.3429 13.335 12.5445 13.2917 12.7145 13.205C12.8879 13.115 13.0212 12.9883 13.1145 12.825C13.2112 12.6617 13.2595 12.47 13.2595 12.25C13.2595 12.0267 13.2112 11.835 13.1145 11.675C13.0212 11.5117 12.8879 11.3867 12.7145 11.3C12.5445 11.21 12.3429 11.165 12.1095 11.165H11.3695V13.335ZM15.4604 12.075H17.1404V12.725H15.4604V12.075ZM15.5204 14H14.7104V10.5H17.3554V11.15H15.5204V14Z" fill="white"/>
</svg>
