<svg width="40" height="40" viewBox="0 0 40 40" fill="none" xmlns="http://www.w3.org/2000/svg">
<path d="M23.5828 19.7907C29.0391 19.7907 33.4774 15.3516 33.4774 9.89534C33.4774 4.43908 29.0391 0 23.5828 0C18.1266 0 13.6875 4.43908 13.6875 9.89534C13.6875 15.3516 18.1266 19.7907 23.5828 19.7907ZM22.411 4.07892V3.81017C22.411 3.16251 22.9352 2.63829 23.5828 2.63829C24.2297 2.63829 24.7547 3.16251 24.7547 3.81017V4.08048C26.1493 4.3797 27.1985 5.62189 27.1985 7.10471C27.1985 7.75159 26.6735 8.27659 26.0266 8.27659C25.3789 8.27659 24.8547 7.75159 24.8547 7.10471C24.8547 6.69143 24.518 6.35471 24.1047 6.35471H23.0539C22.6407 6.35471 22.3039 6.69143 22.3039 7.10471C22.3039 7.34143 22.4172 7.56643 22.6078 7.70706L23.5828 8.42893L25.9516 10.1821C26.7297 10.7578 27.1985 11.6789 27.2047 12.6477V12.6586C27.2102 13.4852 26.8938 14.2649 26.3125 14.8532C25.8813 15.2899 25.3422 15.5829 24.7547 15.7063V15.9805C24.7547 16.6282 24.2297 17.1524 23.5828 17.1524C22.9352 17.1524 22.411 16.6282 22.411 15.9805V15.7102C21.8391 15.5883 21.3133 15.3071 20.8883 14.8868C20.3 14.3063 19.9735 13.5313 19.9688 12.7047C19.9649 12.0578 20.486 11.5297 21.1328 11.5258H21.1406C21.7844 11.5258 22.3086 12.0461 22.3125 12.6907C22.3141 13.0951 22.6395 13.436 23.0664 13.436C23.7139 13.4321 23.4728 13.4335 24.1157 13.4297C24.5316 13.4264 24.8642 13.0889 24.861 12.6743V12.6633C24.8594 12.4289 24.7461 12.2055 24.5571 12.0657L23.5828 11.3446L21.2133 9.59144C20.4289 9.01018 19.9602 8.08049 19.9602 7.10471C19.9602 5.61877 21.0125 4.37579 22.411 4.07892Z" fill="#FFCB05"/>
<path d="M7.55001 25.4214C7.24962 24.9006 6.58235 24.7195 6.05836 25.0217L0.546003 28.2038C0.024048 28.5059 -0.155015 29.1735 0.146314 29.6961L5.78024 39.4541C6.0818 39.9759 6.74899 40.1551 7.27188 39.8538L12.7842 36.671C13.307 36.3696 13.4853 35.702 13.1839 35.1793L7.55001 25.4214Z" fill="#2F3245"/>
<path d="M39.1337 23.4734C38.6032 22.7367 37.5766 22.5703 36.8407 23.1008C34.6079 24.7094 30.3204 27.7985 29.9797 28.0446C29.8227 28.1781 29.6579 28.2992 29.486 28.4063C28.8118 28.8305 28.0297 29.0571 27.2133 29.0571H21.6C20.9532 29.0571 20.4282 28.5328 20.4282 27.8852C20.4282 27.2367 20.9539 26.7133 21.6 26.7133H27.6032C28.4852 26.7133 29.1915 25.9789 29.1547 25.0953C29.1204 24.257 28.4047 23.607 27.5657 23.607H22.9961C22.6868 23.2797 22.3477 22.9797 21.9844 22.7117C20.7352 21.7906 19.1914 21.2461 17.5203 21.2461C14.5492 21.2461 11.593 23.118 10.3672 25.6164L15.161 33.9188H24.1532C25.9188 33.9188 27.6579 33.4672 29.1883 32.5868C29.7188 32.2821 30.2868 31.9157 30.9024 31.4735C33.4821 29.6203 38.7563 25.7703 38.7602 25.768C39.4977 25.2383 39.6649 24.2102 39.1337 23.4734Z" fill="#2F3245"/>
</svg>
