<svg width="40" height="38" viewBox="0 0 40 38" fill="none" xmlns="http://www.w3.org/2000/svg">
<path d="M9.49928 15C8.14401 15 7 16.1453 7 17.5006C7 18.8547 8.14387 20 9.49928 20C10.8545 20 12 18.8547 12 17.5006C12 16.1453 10.8545 15 9.49928 15Z" fill="#2F3245"/>
<path d="M21.4993 25C20.144 25 19 26.1453 19 27.5006C19 28.8547 20.1439 30 21.4993 30C22.8545 30 24 28.8547 24 27.5006C24 26.1453 22.8545 25 21.4993 25Z" fill="#2F3245"/>
<path d="M29.2071 11.4758C17.3256 0.543174 17.9334 0.960752 16.9887 0.593799C15.6463 0.0612996 14.049 0.339737 12.9456 1.35474L1.94617 11.4758C0.709375 12.6133 0 14.2321 0 15.918V33.8407C0 35.9524 1.70945 37.6711 3.81023 37.6711H27.3422C29.443 37.6711 31.1524 35.9524 31.1524 33.8407V15.918C31.1525 14.2321 30.443 12.6133 29.2071 11.4758ZM14.4426 7.63364C14.5136 6.95255 15.1383 6.46888 15.8372 6.60005C16.5056 6.73942 16.8821 7.38083 16.7575 7.97817C16.6251 8.61458 16.0264 9.01997 15.3794 8.89848C14.7614 8.76958 14.3842 8.20817 14.4426 7.63364ZM6.02594 18.179C6.02594 15.9172 7.68226 14.0774 9.71828 14.0774C11.7551 14.0774 13.4113 15.9172 13.4113 18.179C13.4113 20.4407 11.755 22.2813 9.71828 22.2813C7.68226 22.2813 6.02594 20.4407 6.02594 18.179ZM12.7441 30.6524C11.916 30.6524 11.338 29.8033 11.6644 29.0266L17.3693 15.4297C17.6201 14.8329 18.3068 14.5516 18.9037 14.8024C19.5005 15.0524 19.781 15.7399 19.531 16.3368L13.8254 29.9336C13.6371 30.3821 13.2027 30.6524 12.7441 30.6524ZM21.5436 31.5774C19.5076 31.5774 17.8513 29.7375 17.8513 27.4758C17.8513 25.2141 19.5077 23.3735 21.5436 23.3735C23.5796 23.3735 25.2366 25.2141 25.2366 27.4758C25.2366 29.7375 23.5796 31.5774 21.5436 31.5774Z" fill="#FFCB05"/>
<path d="M39.7067 24.3459C35.8911 13.2386 33.7718 7.06298 33.7417 6.99282C33.0784 5.45688 31.7893 4.26235 30.2065 3.71626C30.1156 3.6854 30.6516 3.81556 22.1523 1.79907L30.794 9.75063C32.512 11.3303 33.4972 13.578 33.4972 15.9178V31.1053L37.713 29.3006C39.62 28.4756 40.5067 26.2608 39.7067 24.3459Z" fill="#2F3245"/>
<path d="M15.1911 10.9041C14.0863 10.9041 13.1875 11.8028 13.1875 12.9076C13.1875 14.0124 14.0863 14.9113 15.1911 14.9113C16.2959 14.9113 17.1947 14.0125 17.1947 12.9076C17.1946 11.8029 16.2959 10.9041 15.1911 10.9041Z" fill="#FFCB05"/>
</svg>
