<svg width="45" height="32" viewBox="0 0 45 32" fill="none" xmlns="http://www.w3.org/2000/svg">
<path fill-rule="evenodd" clip-rule="evenodd" d="M9.69881 24.4041C10.1106 24.2792 10.4485 24.0046 10.6508 23.6294C10.6508 23.6294 12.2256 20.6863 12.2271 20.6837C12.6374 19.9157 12.3346 18.9112 11.5666 18.503C10.8052 18.0968 9.7982 18.3862 9.38388 19.163L7.81063 22.1036C7.39169 22.8879 7.68783 23.8665 8.47215 24.2853C8.84878 24.4876 9.2855 24.5294 9.69881 24.4041ZM44.999 14.504L40.4954 2.88585L36.9932 4.76127C35.2258 5.68064 33.5389 4.99009 31.9065 4.32354C29.6682 3.40869 27.3545 2.46239 24.0078 4.77665C23.3081 5.2603 22.5982 5.86313 21.9005 6.56846C20.3154 8.17176 18.3499 9.68592 16.0499 11.0818C18.4232 13.6723 20.9607 12.6448 23.8641 11.4686C25.393 10.8504 26.956 10.2174 28.4737 10.2174C29.258 10.2174 30.0301 10.3861 30.7798 10.8137L39.3452 15.6954C39.7218 15.9105 40.0419 16.1877 40.2997 16.5068L44.999 14.504ZM38.4894 17.1969C39.2681 17.6407 39.5586 18.6258 39.1367 19.3933C38.7239 20.145 37.7128 20.4615 36.9555 20.0334C36.9478 20.0293 30.8154 16.5649 30.8154 16.5649C30.3996 16.3304 29.8726 16.4773 29.6382 16.8931C29.4027 17.3085 29.5496 17.8354 29.9654 18.0708C29.9654 18.0708 35.2294 21.0481 35.2508 21.0597C36.0295 21.498 36.318 22.4827 35.8939 23.2537C35.4658 24.0324 34.4827 24.3178 33.704 23.8897L27.016 20.152C26.5992 19.9181 26.0733 20.0649 25.8388 20.4807C25.6044 20.8965 25.7522 21.4236 26.168 21.6579L31.4549 24.6342C32.2336 25.0714 32.5221 26.0556 32.0977 26.8282C31.6701 27.6069 30.687 27.8923 29.9082 27.4632L26.1497 25.3849C25.8786 25.0598 25.5458 24.7876 25.1625 24.5832C24.3782 24.1642 23.4751 24.0756 22.62 24.335C22.5654 24.3507 22.5114 24.3691 22.459 24.3879C22.4447 24.3314 22.4294 24.2763 22.412 24.2202C22.1521 23.3645 21.5773 22.6637 20.795 22.2479C20.0107 21.8275 19.1082 21.7398 18.2524 21.9992C18.1973 22.0155 18.1444 22.0329 18.0913 22.0522C18.0771 21.9961 18.0623 21.94 18.0449 21.8845C17.7845 21.0289 17.2096 20.3281 16.4278 19.9113C15.695 19.5188 14.8806 19.4306 14.1279 19.5988C14.1059 19.3818 14.0621 19.1646 13.9969 18.9506C13.7371 18.0954 13.1622 17.3942 12.3799 16.9773C11.596 16.5578 10.6924 16.4697 9.83729 16.7286C9.27314 16.8993 8.77773 17.2071 8.38432 17.6209C8.19982 16.6368 7.89404 15.402 6.62145 14.9086C6.12302 14.715 3.41073 13.4923 1.95375 12.8354C1.84974 12.789 1.75598 12.7468 1.67188 12.709L6.87267 1.63989L11.7524 3.89144C13.4745 4.84397 15.1619 4.44544 16.7926 4.05956C18.48 3.66102 20.0884 3.28087 21.9873 4.14367C21.5454 4.51116 21.1061 4.91422 20.6719 5.35255C18.9982 7.04357 16.8608 8.63863 14.3178 10.0962C14.1047 10.218 13.9539 10.4244 13.902 10.6645C13.851 10.904 13.904 11.1548 14.0478 11.3535C17.3879 15.9555 21.338 14.3558 24.5131 13.071C26.6259 12.2143 28.4515 11.4753 29.9238 12.3152L38.4894 17.1969ZM28.3646 28.5871L28.3524 28.5805L26.9168 27.7906C26.8826 28.2457 26.7537 28.6916 26.5335 29.1054L25.6422 30.7699L26.8122 31.4141C27.5919 31.8417 28.574 31.5563 29.0016 30.7776C29.4298 30.0008 29.1433 29.0177 28.3646 28.5871ZM23.5011 31.1093C23.5011 31.1093 25.0082 28.291 25.0092 28.29C25.4174 27.5261 25.1162 26.516 24.3493 26.1088C23.5766 25.697 22.5788 25.9966 22.1659 26.7688L20.6579 29.5886C20.239 30.3724 20.5351 31.3514 21.3194 31.7703C22.0916 32.183 23.0893 31.8794 23.5011 31.1093ZM18.9186 29.1757C18.9186 29.1757 20.6406 25.9553 20.6416 25.9543C21.0533 25.1843 20.7522 24.1828 19.9816 23.7726C19.2106 23.3618 18.2102 23.663 17.7984 24.4336L16.0758 27.6545C15.6554 28.4388 15.9525 29.4173 16.7368 29.8367C17.4941 30.2419 18.5159 29.9285 18.9186 29.1757ZM14.1433 27.602C13.7315 28.371 12.7312 28.6758 11.9611 28.263C11.1921 27.8512 10.8873 26.8518 11.3001 26.0807C11.3001 26.0797 13.4344 22.0903 13.4344 22.0903C13.8492 21.3222 14.842 21.0231 15.6141 21.4369C16.3836 21.8462 16.6858 22.8485 16.2746 23.6176C16.2731 23.6202 14.1433 27.602 14.1433 27.602Z" fill="#FFCB05"/>
<mask id="mask0_6221_80856" style="mask-type:alpha" maskUnits="userSpaceOnUse" x="0" y="0" width="42" height="29">
<path d="M17.2067 1.40649C17.9303 1.40649 21.1593 2.41138 22.6834 2.91382V4.82312C22.1307 5.34231 20.955 6.43094 20.6736 6.63191C20.3922 6.83289 18.5131 8.02201 17.6087 8.59144L15.5989 10.35V11.7568L17.9102 13.5154H20.6736L26.0497 11.2041L28.8634 10.752L32.3805 13.0129L38.5606 16.6305C39.4482 17.4679 41.2537 19.2332 41.3743 19.595C41.525 20.0472 39.666 23.1121 39.3645 23.8155C39.1233 24.3782 35.0435 26.8636 33.0337 28.036H31.0239C29.7176 27.5336 27.0345 26.5287 26.7532 26.5287H26.0497L25.3463 25.8755C25.0616 25.5573 24.4218 24.8405 24.1405 24.5189C23.8591 24.1973 23.0518 24.6529 22.6834 24.9209H22.1809L21.6282 24.0667L20.6736 23.1121L19.3672 22.7604L17.6087 22.5091L17.2067 21.6047L16.2018 21.1023C15.7999 20.9013 15.2974 20.5496 14.6443 20.1476C13.9911 19.7457 13.7399 20.5496 13.4886 20.5496C13.2374 20.5496 13.3379 19.9969 13.2374 19.595C13.157 19.2734 12.8355 18.6571 12.6847 18.3891C12.4335 18.2719 11.9009 17.9972 11.7803 17.8364C11.6598 17.6756 10.7587 17.5684 10.3233 17.5349C9.85431 17.8197 8.72548 18.3891 7.96177 18.3891H6.00224C5.14808 18.3891 3.79149 18.0374 3.2388 17.5349C2.68611 17.0325 2.18368 16.9823 1.58075 16.6305C0.977818 16.2788 -0.177803 13.6159 0.0231747 12.1085C0.224152 10.6012 1.02806 6.33045 1.88222 4.47141C2.73637 2.61236 6.30372 0.150379 7.4091 0.0498905C8.51447 -0.0505982 16.3023 1.40649 17.2067 1.40649Z" fill="#2F3245"/>
</mask>
<g mask="url(#mask0_6221_80856)">
<path fill-rule="evenodd" clip-rule="evenodd" d="M9.69881 24.4041C10.1106 24.2792 10.4485 24.0046 10.6508 23.6294C10.6508 23.6294 12.2256 20.6863 12.2271 20.6837C12.6374 19.9157 12.3346 18.9112 11.5666 18.503C10.8052 18.0968 9.7982 18.3862 9.38388 19.163L7.81063 22.1036C7.39169 22.8879 7.68783 23.8665 8.47215 24.2853C8.84878 24.4876 9.2855 24.5294 9.69881 24.4041ZM44.999 14.504L40.4954 2.88585L36.9932 4.76127C35.2258 5.68064 33.5389 4.99009 31.9065 4.32354C29.6682 3.40869 27.3545 2.46239 24.0078 4.77665C23.3081 5.2603 22.5982 5.86313 21.9005 6.56846C20.3154 8.17176 18.3499 9.68592 16.0499 11.0818C18.4232 13.6723 20.9607 12.6448 23.8641 11.4686C25.393 10.8504 26.956 10.2174 28.4737 10.2174C29.258 10.2174 30.0301 10.3861 30.7798 10.8137L39.3452 15.6954C39.7218 15.9105 40.0419 16.1877 40.2997 16.5068L44.999 14.504ZM38.4894 17.1969C39.2681 17.6407 39.5586 18.6258 39.1367 19.3933C38.7239 20.145 37.7128 20.4615 36.9555 20.0334C36.9478 20.0293 30.8154 16.5649 30.8154 16.5649C30.3996 16.3304 29.8726 16.4773 29.6382 16.8931C29.4027 17.3085 29.5496 17.8354 29.9654 18.0708C29.9654 18.0708 35.2294 21.0481 35.2508 21.0597C36.0295 21.498 36.318 22.4827 35.8939 23.2537C35.4658 24.0324 34.4827 24.3178 33.704 23.8897L27.016 20.152C26.5992 19.9181 26.0733 20.0649 25.8388 20.4807C25.6044 20.8965 25.7522 21.4236 26.168 21.6579L31.4549 24.6342C32.2336 25.0714 32.5221 26.0556 32.0977 26.8282C31.6701 27.6069 30.687 27.8923 29.9082 27.4632L26.1497 25.3849C25.8786 25.0598 25.5458 24.7876 25.1625 24.5832C24.3782 24.1642 23.4751 24.0756 22.62 24.335C22.5654 24.3507 22.5114 24.3691 22.459 24.3879C22.4447 24.3314 22.4294 24.2763 22.412 24.2202C22.1521 23.3645 21.5773 22.6637 20.795 22.2479C20.0107 21.8275 19.1082 21.7398 18.2524 21.9992C18.1973 22.0155 18.1444 22.0329 18.0913 22.0522C18.0771 21.9961 18.0623 21.94 18.0449 21.8845C17.7845 21.0289 17.2096 20.3281 16.4278 19.9113C15.695 19.5188 14.8806 19.4306 14.1279 19.5988C14.1059 19.3818 14.0621 19.1646 13.9969 18.9506C13.7371 18.0954 13.1622 17.3942 12.3799 16.9773C11.596 16.5578 10.6924 16.4697 9.83729 16.7286C9.27314 16.8993 8.77773 17.2071 8.38432 17.6209C8.19982 16.6368 7.89404 15.402 6.62145 14.9086C6.12302 14.715 3.41073 13.4923 1.95375 12.8354C1.84974 12.789 1.75598 12.7468 1.67188 12.709L6.87267 1.63989L11.7524 3.89144C13.4745 4.84397 15.1619 4.44544 16.7926 4.05956C18.48 3.66102 20.0884 3.28087 21.9873 4.14367C21.5454 4.51116 21.1061 4.91422 20.6719 5.35255C18.9982 7.04357 16.8608 8.63863 14.3178 10.0962C14.1047 10.218 13.9539 10.4244 13.902 10.6645C13.851 10.904 13.904 11.1548 14.0478 11.3535C17.3879 15.9555 21.338 14.3558 24.5131 13.071C26.6259 12.2143 28.4515 11.4753 29.9238 12.3152L38.4894 17.1969ZM28.3646 28.5871L28.3524 28.5805L26.9168 27.7906C26.8826 28.2457 26.7537 28.6916 26.5335 29.1054L25.6422 30.7699L26.8122 31.4141C27.5919 31.8417 28.574 31.5563 29.0016 30.7776C29.4298 30.0008 29.1433 29.0177 28.3646 28.5871ZM23.5011 31.1093C23.5011 31.1093 25.0082 28.291 25.0092 28.29C25.4174 27.5261 25.1162 26.516 24.3493 26.1088C23.5766 25.697 22.5788 25.9966 22.1659 26.7688L20.6579 29.5886C20.239 30.3724 20.5351 31.3514 21.3194 31.7703C22.0916 32.183 23.0893 31.8794 23.5011 31.1093ZM18.9186 29.1757C18.9186 29.1757 20.6406 25.9553 20.6416 25.9543C21.0533 25.1843 20.7522 24.1828 19.9816 23.7726C19.2106 23.3618 18.2102 23.663 17.7984 24.4336L16.0758 27.6545C15.6554 28.4388 15.9525 29.4173 16.7368 29.8367C17.4941 30.2419 18.5159 29.9285 18.9186 29.1757ZM14.1433 27.602C13.7315 28.371 12.7312 28.6758 11.9611 28.263C11.1921 27.8512 10.8873 26.8518 11.3001 26.0807C11.3001 26.0797 13.4344 22.0903 13.4344 22.0903C13.8492 21.3222 14.842 21.0231 15.6141 21.4369C16.3836 21.8462 16.6858 22.8485 16.2746 23.6176C16.2731 23.6202 14.1433 27.602 14.1433 27.602Z" fill="#2F3245"/>
</g>
</svg>
