<svg width="40" height="40" viewBox="0 0 40 40" fill="none" xmlns="http://www.w3.org/2000/svg">
<path d="M7.53125 26.8552L18.333 32.0694L18.3436 20.9611L7.53125 15.0046V26.8552Z" fill="#2F3245"/>
<path d="M21.5472 20.9626L21.543 32.0732L32.4023 26.8536V15L21.5472 20.9626Z" fill="#2F3245"/>
<path d="M9.41406 12.3578L19.942 18.1532L30.5058 12.3578L19.9419 7.28687L9.41406 12.3578Z" fill="#2F3245"/>
<path d="M19.9636 2.57513C23.8037 2.57513 27.5107 3.85316 30.5202 6.15385H28.9836V8.88889H33.9098C34.7095 8.88889 35.3552 8.19111 35.2765 7.3947L34.7843 2.42812L32.051 2.69273L32.2003 4.19727C28.7246 1.49983 24.4222 0 19.9636 0C9.07145 0 0 9.10111 0 19.9876C0 23.0401 0.669829 25.9708 1.99077 28.6982L4.30812 27.5756C3.15803 25.201 2.57487 22.648 2.57487 19.9876C2.57487 10.3863 10.3754 2.57513 19.9636 2.57513Z" fill="#FFCB05"/>
<path d="M38.007 11.3018L35.6896 12.4243C36.8398 14.7989 37.4229 17.3519 37.4229 20.0124C37.4229 29.6136 29.6223 37.4248 20.0342 37.4248C16.1941 37.4248 12.4871 36.1468 9.47759 33.8461H11.0365V31.1111H6.08794C5.28828 31.1111 4.64264 31.8061 4.72135 32.6025L5.21358 37.5663L7.94682 37.3073L7.79768 35.8028C11.2731 38.5001 15.5755 40 20.0342 40C30.9263 40 39.9978 30.8989 39.9978 20.0124C39.9978 16.96 39.3279 14.0293 38.007 11.3018Z" fill="#FFCB05"/>
</svg>
