<svg width="40" height="36" viewBox="0 0 40 36" fill="none" xmlns="http://www.w3.org/2000/svg">
<path d="M34.6153 27.3076C33.4752 27.3076 32.4088 26.7467 31.7629 25.8072L30.069 23.3433C28.0736 26.921 24.2804 29.2307 20 29.2307C14.0272 29.2307 9.09973 24.6686 8.5188 18.8461H9.61544C10.0439 18.8461 10.4372 18.6087 10.6366 18.2294C10.8361 17.8502 10.8089 17.3916 10.5662 17.0386L8.88419 14.592L6.33544 10.8847C6.12029 10.5716 5.76466 10.3845 5.38466 10.3845C5.33716 10.3845 5.29005 10.3874 5.24349 10.3931C5.19693 10.3988 5.15107 10.4074 5.10599 10.4186C4.99333 10.4466 4.88583 10.4914 4.78716 10.5512C4.64904 10.6348 4.52794 10.7476 4.4338 10.8846L0.203029 17.0385C-0.0397051 17.3915 -0.0668144 17.8502 0.132638 18.2294C0.332091 18.6085 0.725372 18.8461 1.15389 18.8461H2.34451C2.61904 23.1376 4.42162 27.1345 7.48974 30.2027C10.8314 33.5443 15.2743 35.3846 20 35.3846C24.7258 35.3846 29.1687 33.5443 32.5103 30.2027C33.3987 29.3143 34.1853 28.3398 34.8607 27.2982C34.7793 27.3039 34.6976 27.3076 34.6153 27.3076Z" fill="#FFCB05"/>
<path d="M23.9097 14.1718C23.8496 14.1122 23.7727 14.0824 23.6793 14.0824H21.9656C21.8519 13.5324 21.6381 13.055 21.3241 12.6506H23.6591C23.7528 12.6506 23.8295 12.6208 23.8898 12.5613C23.9496 12.5017 23.9796 12.4254 23.9796 12.3326V11.3182C23.9796 11.2253 23.9496 11.1492 23.8898 11.0895C23.8294 11.0299 23.7528 11 23.6591 11H15.3207C15.2271 11 15.1503 11.0299 15.0901 11.0894C15.0302 11.1491 15 11.2253 15 11.3181V12.6406C15 12.7267 15.0317 12.8013 15.0952 12.8643C15.1587 12.9272 15.2338 12.9587 15.3207 12.9587H16.7739C18.1836 12.9587 19.079 13.3331 19.4598 14.0822H15.3207C15.2271 14.0822 15.1502 14.112 15.0901 14.1717C15.0302 14.2314 15 14.3075 15 14.4004V15.4147C15 15.5074 15.03 15.5837 15.0901 15.6432C15.1503 15.703 15.2272 15.7327 15.3207 15.7327H19.6003C19.4533 16.2764 19.1108 16.6906 18.5729 16.9757C18.0349 17.2607 17.3252 17.4033 16.4432 17.4033H15.3207C15.2338 17.4033 15.1587 17.4348 15.0952 17.4977C15.0317 17.5607 15 17.6353 15 17.7214V18.9843C15 19.0706 15.03 19.1435 15.0901 19.2031C16.3729 20.5554 18.0367 22.4477 20.0812 24.8807C20.1414 24.9603 20.2249 25 20.3318 25H22.2861C22.4265 25 22.5235 24.9405 22.5767 24.821C22.6435 24.7016 22.6304 24.5889 22.5366 24.4829C20.5859 22.1097 19.0523 20.3332 17.9365 19.1533C19.0724 19.0208 19.9944 18.6561 20.7027 18.0596C21.4109 17.4631 21.8418 16.6874 21.9956 15.7328H23.6793C23.7727 15.7328 23.8497 15.7031 23.9097 15.6434C23.9699 15.5839 24 15.5076 24 15.4148V14.4007C24 14.3077 23.9699 14.2315 23.9097 14.1718Z" fill="black"/>
<path d="M39.8686 17.1551C39.6691 16.7759 39.2759 16.5384 38.8474 16.5384H37.6567C37.3822 12.2469 35.5796 8.25006 32.5115 5.18187C29.17 1.84031 24.727 0 20.0013 0C15.2756 0 10.8326 1.84031 7.49101 5.18194C6.60265 6.0703 5.81601 7.04483 5.14062 8.08647C5.22195 8.08069 5.30367 8.07694 5.38594 8.07694C6.52617 8.07694 7.5925 8.63788 8.23835 9.57741L9.93226 12.0413C11.9276 8.46358 15.7208 6.1539 20.0012 6.1539C25.974 6.1539 30.9015 10.7161 31.4825 16.5385H30.3858C29.9574 16.5385 29.5641 16.7759 29.3646 17.1552C29.1652 17.5344 29.1923 17.993 29.435 18.3461L31.1171 20.7926L33.6658 24.5C33.7196 24.5782 33.7822 24.6486 33.8517 24.7102C34.0603 24.8949 34.3317 25.0001 34.6167 25.0001C34.9966 25.0001 35.3523 24.813 35.5675 24.5L37.0952 22.2779L39.7982 18.3461C40.041 17.9929 40.0681 17.5343 39.8686 17.1551Z" fill="#FFCB05"/>
</svg>
