<svg width="40" height="40" viewBox="0 0 40 40" fill="none" xmlns="http://www.w3.org/2000/svg">
<path d="M10.5469 28.2812H1.17188C0.524687 28.2812 0 28.8059 0 29.4531V38.8281C0 39.4753 0.524687 40 1.17188 40H10.5469C11.1941 40 11.7188 39.4753 11.7188 38.8281V29.4531C11.7188 28.8059 11.1941 28.2812 10.5469 28.2812Z" fill="#FFCB05"/>
<path d="M7.03125 25.9375V22.7344H18.8281V25.9375H21.1719V22.7344H32.9688V25.9375H35.3125V21.5625C35.3125 20.9153 34.7878 20.3906 34.1406 20.3906H21.1719V17.1875H18.8281V20.3906H5.85938C5.21219 20.3906 4.6875 20.9153 4.6875 21.5625V25.9375H7.03125Z" fill="#2F3245"/>
<path d="M13.75 14.8438H26.25C26.8972 14.8438 27.4219 14.3191 27.4219 13.6719V1.17188C27.4219 0.524687 26.8972 0 26.25 0H13.75C13.1028 0 12.5781 0.524687 12.5781 1.17188V13.6719C12.5781 14.3191 13.1028 14.8438 13.75 14.8438Z" fill="#2F3245"/>
<path d="M24.6875 28.2812H15.3125C14.6653 28.2812 14.1406 28.8059 14.1406 29.4531V38.8281C14.1406 39.4753 14.6653 40 15.3125 40H24.6875C25.3347 40 25.8594 39.4753 25.8594 38.8281V29.4531C25.8594 28.8059 25.3347 28.2812 24.6875 28.2812Z" fill="#FFCB05"/>
<path d="M38.8281 28.2812H29.4531C28.8059 28.2812 28.2812 28.8059 28.2812 29.4531V38.8281C28.2812 39.4753 28.8059 40 29.4531 40H38.8281C39.4753 40 40 39.4753 40 38.8281V29.4531C40 28.8059 39.4753 28.2812 38.8281 28.2812Z" fill="#FFCB05"/>
</svg>
