<svg width="35" height="42" viewBox="0 0 35 42" fill="none" xmlns="http://www.w3.org/2000/svg">
<path fill-rule="evenodd" clip-rule="evenodd" d="M17.0696 17.3282C23.3303 17.3282 28.4055 22.4035 28.4055 28.6641C28.4055 34.9248 23.3303 40 17.0696 40C10.809 40 5.73373 34.9248 5.73373 28.6641C5.73373 22.4035 10.809 17.3282 17.0696 17.3282ZM5.5476 8.78177C5.47735 8.69911 5.38389 8.65581 5.27542 8.65581C5.16687 8.65581 5.07348 8.69895 5.00316 8.78177L0.086064 14.573C-0.00611341 14.6815 -0.0256293 14.8248 0.0342094 14.9541C0.0939674 15.0834 0.215903 15.1613 0.358322 15.1613H2.6484V22.7671C2.6484 23.1605 2.96929 23.4814 3.36268 23.4814H5.55276C6.13776 22.1835 6.93582 21.0024 7.90219 19.9824V15.1613H10.1924C10.3347 15.1613 10.4566 15.0834 10.5165 14.9541C10.5763 14.8249 10.5568 14.6815 10.4646 14.573L5.5476 8.78177ZM29.1361 0.125968C29.0658 0.0432258 28.9724 0 28.8639 0C28.7553 0 28.662 0.0432258 28.5916 0.125968L23.6745 5.91718C23.5824 6.02573 23.5629 6.16911 23.6227 6.29831C23.6825 6.42758 23.8044 6.50548 23.9468 6.50548H26.237V19.9823C27.2033 21.0024 28.0014 22.1835 28.5864 23.4814H30.7765C31.1699 23.4814 31.4907 23.1605 31.4907 22.7671V6.50548H33.7809C33.9233 6.50548 34.0452 6.42758 34.105 6.29831C34.1649 6.16911 34.1453 6.02573 34.0532 5.91718L29.1361 0.125968ZM17.3418 4.45395C18.9808 6.38435 20.6198 8.31476 22.2588 10.2452C22.351 10.3537 22.3705 10.497 22.3107 10.6263C22.2508 10.7556 22.129 10.8335 21.9865 10.8335C21.2231 10.8335 20.4597 10.8335 19.6964 10.8335V16.3123C18.849 16.133 17.9704 16.0379 17.0695 16.0379C16.1686 16.0379 15.2901 16.133 14.4426 16.3123V10.8334C13.6792 10.8334 12.9158 10.8334 12.1524 10.8334C12.0101 10.8334 11.8882 10.7555 11.8283 10.6262C11.7685 10.497 11.788 10.3536 11.8802 10.2451C13.5192 8.31468 15.1582 6.38427 16.7972 4.45387C16.8674 4.37113 16.9609 4.32782 17.0695 4.32782C17.1782 4.3279 17.2716 4.37121 17.3418 4.45395ZM13.6399 34.5944L21.6732 23.4063C21.8805 23.1181 21.8151 22.7165 21.527 22.5091C21.2389 22.3018 20.8372 22.3672 20.6299 22.6553L12.5965 33.8435C12.3892 34.1316 12.4546 34.5333 12.7427 34.7406C13.0307 34.948 13.4324 34.8826 13.6399 34.5944ZM15.4884 22.619C14.4566 21.588 12.7615 21.5913 11.7311 22.6224C10.7001 23.6541 10.7033 25.3494 11.7345 26.3798C12.7731 27.4177 14.4546 27.4142 15.4918 26.3764C16.5297 25.3377 16.5261 23.6561 15.4884 22.619ZM22.3767 30.9439C21.3514 29.9194 19.6668 29.9226 18.6429 30.9473C17.6184 31.9725 17.6216 33.6572 18.6463 34.6811C19.6715 35.7056 21.3562 35.7023 22.3802 34.6777C23.4047 33.6525 23.4013 31.9677 22.3767 30.9439ZM21.5172 31.8082C20.9647 31.256 20.0599 31.2536 19.5072 31.8069C18.955 32.3594 18.9527 33.264 19.5058 33.8169C20.0583 34.369 20.9631 34.3714 21.5158 33.8182C22.0679 33.2656 22.0703 32.361 21.5172 31.8082ZM14.6234 23.4887C14.0674 22.9331 13.157 22.9306 12.6007 23.4873C12.0451 24.0433 12.0427 24.9537 12.5994 25.51C13.157 26.0673 14.064 26.0698 14.622 25.5114C15.1796 24.9534 15.1821 24.0471 14.6234 23.4887Z" fill="#2F3245"/>
<mask id="mask0_6221_80736" style="mask-type:alpha" maskUnits="userSpaceOnUse" x="4" y="16" width="26" height="26">
<path d="M9 19L4 27.5V30.5C4 30.9 5.33333 34 6 35.5L9.5 39L13.5 42C17.5 41.5 25.9 40.4 27.5 40C29.1 39.6 29.8333 33.5 30 30.5L29 25.5L27 22L24.5 19.5L22 18L20 17L18 16.5L15.5 17L11.5 17.5L9 19Z" fill="#D9D9D9"/>
</mask>
<g mask="url(#mask0_6221_80736)">
<path fill-rule="evenodd" clip-rule="evenodd" d="M17.0696 17.3282C23.3303 17.3282 28.4055 22.4035 28.4055 28.6641C28.4055 34.9248 23.3303 40 17.0696 40C10.809 40 5.73373 34.9248 5.73373 28.6641C5.73373 22.4035 10.809 17.3282 17.0696 17.3282ZM5.5476 8.78177C5.47735 8.69911 5.38389 8.65581 5.27542 8.65581C5.16687 8.65581 5.07348 8.69895 5.00316 8.78177L0.086064 14.573C-0.00611341 14.6815 -0.0256293 14.8248 0.0342094 14.9541C0.0939674 15.0834 0.215903 15.1613 0.358322 15.1613H2.6484V22.7671C2.6484 23.1605 2.96929 23.4814 3.36268 23.4814H5.55276C6.13776 22.1835 6.93582 21.0024 7.90219 19.9824V15.1613H10.1924C10.3347 15.1613 10.4566 15.0834 10.5165 14.9541C10.5763 14.8249 10.5568 14.6815 10.4646 14.573L5.5476 8.78177ZM29.1361 0.125968C29.0658 0.0432258 28.9724 0 28.8639 0C28.7553 0 28.662 0.0432258 28.5916 0.125968L23.6745 5.91718C23.5824 6.02573 23.5629 6.16911 23.6227 6.29831C23.6825 6.42758 23.8044 6.50548 23.9468 6.50548H26.237V19.9823C27.2033 21.0024 28.0014 22.1835 28.5864 23.4814H30.7765C31.1699 23.4814 31.4907 23.1605 31.4907 22.7671V6.50548H33.7809C33.9233 6.50548 34.0452 6.42758 34.105 6.29831C34.1649 6.16911 34.1453 6.02573 34.0532 5.91718L29.1361 0.125968ZM17.3418 4.45395C18.9808 6.38435 20.6198 8.31476 22.2588 10.2452C22.351 10.3537 22.3705 10.497 22.3107 10.6263C22.2508 10.7556 22.129 10.8335 21.9865 10.8335C21.2231 10.8335 20.4597 10.8335 19.6964 10.8335V16.3123C18.849 16.133 17.9704 16.0379 17.0695 16.0379C16.1686 16.0379 15.2901 16.133 14.4426 16.3123V10.8334C13.6792 10.8334 12.9158 10.8334 12.1524 10.8334C12.0101 10.8334 11.8882 10.7555 11.8283 10.6262C11.7685 10.497 11.788 10.3536 11.8802 10.2451C13.5192 8.31468 15.1582 6.38427 16.7972 4.45387C16.8674 4.37113 16.9609 4.32782 17.0695 4.32782C17.1782 4.3279 17.2716 4.37121 17.3418 4.45395ZM13.6399 34.5944L21.6732 23.4063C21.8805 23.1181 21.8151 22.7165 21.527 22.5091C21.2389 22.3018 20.8372 22.3672 20.6299 22.6553L12.5965 33.8435C12.3892 34.1316 12.4546 34.5333 12.7427 34.7406C13.0307 34.948 13.4324 34.8826 13.6399 34.5944ZM15.4884 22.619C14.4566 21.588 12.7615 21.5913 11.7311 22.6224C10.7001 23.6541 10.7033 25.3494 11.7345 26.3798C12.7731 27.4177 14.4546 27.4142 15.4918 26.3764C16.5297 25.3377 16.5261 23.6561 15.4884 22.619ZM22.3767 30.9439C21.3514 29.9194 19.6668 29.9226 18.6429 30.9473C17.6184 31.9725 17.6216 33.6572 18.6463 34.6811C19.6715 35.7056 21.3562 35.7023 22.3802 34.6777C23.4047 33.6525 23.4013 31.9677 22.3767 30.9439ZM21.5172 31.8082C20.9647 31.256 20.0599 31.2536 19.5072 31.8069C18.955 32.3594 18.9527 33.264 19.5058 33.8169C20.0583 34.369 20.9631 34.3714 21.5158 33.8182C22.0679 33.2656 22.0703 32.361 21.5172 31.8082ZM14.6234 23.4887C14.0674 22.9331 13.157 22.9306 12.6007 23.4873C12.0451 24.0433 12.0427 24.9537 12.5994 25.51C13.157 26.0673 14.064 26.0698 14.622 25.5114C15.1796 24.9534 15.1821 24.0471 14.6234 23.4887Z" fill="#FFCB05"/>
</g>
</svg>
