<svg width="40" height="40" viewBox="0 0 40 40" fill="none" xmlns="http://www.w3.org/2000/svg">
<path d="M10.5469 18.9062C4.73133 18.9062 0 23.6376 0 29.4531C0 35.2687 4.73133 40 10.5469 40C16.3624 40 21.0938 35.2687 21.0938 29.4531C21.0938 23.6376 16.3624 18.9062 10.5469 18.9062ZM15.2036 28.1723L9.73484 33.6411C9.50609 33.8699 9.20617 33.9844 8.90625 33.9844C8.60633 33.9844 8.30641 33.8699 8.07766 33.6411L5.73391 31.2973C5.27625 30.8398 5.27625 30.0977 5.73391 29.6401C6.19148 29.1825 6.93352 29.1825 7.39117 29.6401L8.90625 31.1552L13.5464 26.5151C14.004 26.0575 14.746 26.0575 15.2037 26.5151C15.6612 26.9727 15.6613 27.7148 15.2036 28.1723Z" fill="#2F3245"/>
<path d="M30.8594 10.1562C30.2122 10.1562 29.6875 9.63156 29.6875 8.98438V0H12.8906C10.9521 0 9.375 1.57711 9.375 3.51562V16.6163C9.76109 16.5813 10.1518 16.5625 10.5469 16.5625C14.5412 16.5625 18.117 18.3888 20.4833 21.25H33.2031C33.8503 21.25 34.375 21.7747 34.375 22.4219C34.375 23.0691 33.8503 23.5938 33.2031 23.5938H22.0272C22.7597 25.0231 23.232 26.6066 23.3837 28.2812H33.2031C33.8503 28.2812 34.375 28.8059 34.375 29.4531C34.375 30.1003 33.8503 30.625 33.2031 30.625H23.3837C23.0332 34.4952 20.9654 37.877 17.9498 40H36.3281C38.2666 40 39.8438 38.4229 39.8438 36.4844V10.1562H30.8594ZM33.2031 16.5625H16.0156C15.3684 16.5625 14.8438 16.0378 14.8438 15.3906C14.8438 14.7434 15.3684 14.2188 16.0156 14.2188H33.2031C33.8503 14.2188 34.375 14.7434 34.375 15.3906C34.375 16.0378 33.8503 16.5625 33.2031 16.5625Z" fill="#FFCB05"/>
<path d="M32.0312 0.686279V7.81261H39.1571L32.0312 0.686279Z" fill="#FFCB05"/>
</svg>
