<svg width="499" height="342" viewBox="0 0 499 342" fill="none" xmlns="http://www.w3.org/2000/svg">
<g clip-path="url(#clip0_31_16354)">
<path d="M281.578 46.3788C358.613 41.588 367.759 85.418 406.877 124.519C445.996 163.62 482.264 198.979 459.557 257.736C436.779 316.564 383.088 331.5 298.839 331.5C214.518 331.5 127.722 339.672 83.7937 307.687C39.8652 275.701 24.6936 194.589 89.5848 168.584C178.223 133.062 175.117 53.0013 281.578 46.3788Z" fill="black" fill-opacity="0.15"/>
<path d="M127.24 323.667C140.504 311.393 141.193 292.011 138.23 275.095C137.738 272.278 137.629 269.239 135.923 266.942C134.216 264.646 130.805 263.396 128.414 264.958C126.435 266.269 125.847 268.835 124.943 271.027C123.735 273.955 121.72 276.488 119.13 278.334C117.447 279.559 115.258 280.427 113.332 279.696C110.68 278.7 109.919 275.361 109.536 272.535C108.831 267.249 108.131 261.993 107.434 256.769C107.052 253.92 106.67 251.071 105.403 248.514C104.136 245.958 101.843 243.749 99.0373 243.382C96.2314 243.015 93.0998 245.035 92.915 247.885C92.8387 249.069 93.2395 250.226 93.3266 251.406C93.4136 252.587 93.0432 253.966 91.9662 254.447C90.8891 254.928 89.6267 254.301 88.6643 253.602C85.3293 251.168 82.8223 247.778 80.451 244.393C78.0798 241.009 75.7488 237.531 72.6577 234.805C69.5666 232.079 65.5225 230.109 61.4025 230.461C57.2825 230.814 53.3083 233.921 52.8396 238.036C52.371 242.151 55.2628 245.867 58.2575 248.724C62.7109 252.964 67.7616 256.538 73.2525 259.335C74.2326 259.837 75.3012 260.387 75.7886 261.378C76.6717 263.172 75.128 265.268 73.3477 266.181C71.3323 267.184 68.9998 267.294 66.8219 267.863C64.644 268.433 62.3769 269.752 61.8258 271.953C61.0636 274.999 63.9186 277.682 66.5833 279.318C71.9257 282.602 77.7997 284.948 83.9498 286.256C86.1488 286.716 88.4431 287.068 90.3304 288.284C92.2178 289.501 93.6098 291.896 92.86 294.028C92.1102 296.16 89.5951 297.189 87.3461 297.098C85.0971 297.007 82.9817 296.138 80.7807 295.619C76.6632 294.713 71.6591 295.698 69.6261 299.406C68.2851 301.842 68.5726 304.933 69.7718 307.435C70.971 309.938 72.9748 311.971 75.0602 313.796C82.3387 320.204 91.1749 324.927 100.676 326.759C110.177 328.59 118.686 328.221 127.246 323.688" fill="#57B993"/>
<path d="M127.88 332.519C126.317 325.878 124.584 321.912 120.869 313.695C116.75 304.838 112.132 296.222 107.037 287.891C105.693 285.676 104.369 283.484 103.068 281.316C101.756 279.165 100.462 277.024 99.0468 275.021C96.3533 271.164 93.453 267.455 90.359 263.913C87.4235 260.515 84.5193 257.404 81.7655 254.509C79.0117 251.613 76.4065 248.978 73.9317 246.667C70.0346 243.003 65.856 239.653 61.435 236.65C59.8777 235.584 58.638 234.802 57.8108 234.279L56.8475 233.692C56.7404 233.62 56.6267 233.559 56.5081 233.509C56.6035 233.595 56.7068 233.672 56.8167 233.738L57.7355 234.375C58.5618 234.921 59.7822 235.737 61.3231 236.823C65.6864 239.881 69.8167 243.263 73.6795 246.939C76.1359 249.263 78.7247 251.918 81.4494 254.814C84.1741 257.711 87.0619 260.842 89.977 264.245C93.068 267.771 95.9622 271.467 98.6462 275.314C100.033 277.318 101.307 279.442 102.651 281.554C103.996 283.666 105.276 285.914 106.614 288.131C111.705 296.441 116.328 305.03 120.46 313.858C124.186 322.034 125.942 325.957 127.547 332.564" fill="#254D3D"/>
<path d="M99.5096 274.97C99.5753 274.561 99.5994 274.144 99.5814 273.726C99.596 272.923 99.5891 271.762 99.5571 270.324C99.4951 267.455 99.2807 263.489 99.058 259.115C98.8353 254.741 98.6502 250.782 98.632 247.923C98.6147 246.488 98.616 245.332 98.6243 244.531C98.6559 244.117 98.6428 243.698 98.5852 243.282C98.4913 243.682 98.4405 244.095 98.4341 244.512C98.3614 245.279 98.3155 246.47 98.291 247.902C98.2211 250.764 98.3223 254.74 98.5722 259.114L99.2094 270.327C99.2826 271.671 99.3444 272.809 99.3888 273.721C99.3866 274.139 99.4271 274.557 99.5096 274.97Z" fill="#254D3D"/>
<path d="M61.5494 273.138C62.0493 273.171 62.5507 273.162 63.0485 273.11C64.0139 273.06 65.4022 272.988 67.1242 272.949C70.5601 272.842 75.3168 272.873 80.5626 273.137C85.8084 273.4 90.5655 273.851 93.9676 274.28C95.683 274.479 97.0937 274.667 98.0174 274.813C98.5094 274.91 99.0088 274.962 99.5096 274.969C99.0355 274.811 98.5483 274.696 98.0542 274.627C97.1093 274.434 95.7311 274.176 94.0224 273.921C90.5967 273.384 85.8504 272.893 80.5866 272.619C76.0938 272.358 71.5921 272.335 67.1 272.551C65.3763 272.637 63.9834 272.772 63.0273 272.88C62.5277 272.921 62.033 273.007 61.5494 273.138Z" fill="#254D3D"/>
<path d="M120.451 312.751C120.451 312.751 120.529 312.588 120.634 312.268L121.066 310.867C121.446 309.645 121.908 307.871 122.497 305.668C123.635 301.259 125.023 295.123 126.455 288.328C127.887 281.534 129.22 275.384 130.238 270.965L131.49 265.728L131.813 264.307C131.86 264.143 131.887 263.973 131.894 263.801C131.894 263.801 131.814 263.958 131.709 264.278L131.283 265.647C130.903 266.87 130.434 268.645 129.854 270.853C128.714 275.255 127.328 281.398 125.896 288.193C124.464 294.987 123.136 301.128 122.111 305.55C121.589 307.704 121.169 309.472 120.852 310.788C120.724 311.359 120.611 311.829 120.53 312.209C120.478 312.385 120.452 312.567 120.451 312.751Z" fill="#254D3D"/>
<path d="M70.5456 304.323C70.7064 304.393 70.8776 304.437 71.0527 304.453L72.5014 304.718L77.8501 305.629C82.3647 306.397 88.5863 307.536 95.4602 308.799C102.334 310.062 108.612 311.141 113.11 311.826C115.407 312.158 117.208 312.423 118.466 312.583L119.938 312.725C120.107 312.755 120.28 312.764 120.451 312.751C120.292 312.685 120.123 312.641 119.951 312.619L118.498 312.363L113.154 311.443C108.639 310.676 102.417 309.537 95.5436 308.274C88.6697 307.011 82.42 305.952 77.8802 305.25C75.5828 304.918 73.7818 304.653 72.5247 304.493L71.0605 304.327C70.8898 304.304 70.7168 304.303 70.5456 304.323Z" fill="#254D3D"/>
<path d="M428.186 310.665C427.269 315.838 432.426 318.976 436.204 319.037C439.982 319.099 443.482 317.218 446.79 315.391C454.345 311.212 462.202 306.763 466.92 299.532C468.426 297.411 469.32 294.917 469.503 292.323C469.579 291.031 469.313 289.741 468.733 288.584C468.152 287.426 467.277 286.443 466.195 285.731C463.559 284.189 460.22 284.937 457.329 285.947C448.819 288.928 441.081 293.769 434.678 300.118C431.717 303.078 428.942 306.532 428.171 310.649" fill="#A9A9B5"/>
<path d="M436.439 299.661C444.4 300.906 452.585 297.109 457.982 291.14C463.38 285.171 466.308 277.322 467.79 269.419C469.518 260.124 469.421 250.581 467.503 241.323C466.923 237.643 465.54 234.135 463.453 231.049C462.402 229.512 460.99 228.255 459.341 227.39C457.691 226.525 455.854 226.078 453.992 226.087C448.513 226.411 444.725 231.568 441.997 236.307C437.156 244.676 432.987 253.416 429.527 262.444C426.73 269.708 424.365 277.519 425.739 285.169C427.113 292.82 431.31 299.127 437.622 299.814" fill="#57B993"/>
<path d="M385.289 353.793C385.539 353.621 385.767 353.419 385.967 353.192C386.453 352.706 387.062 352.097 387.81 351.349C389.398 349.761 391.703 347.456 394.633 344.696C400.462 339.145 408.819 331.774 418.364 324.049C427.908 316.324 437.014 309.886 443.721 305.445C445.402 304.319 446.929 303.333 448.255 302.454C449.581 301.575 450.76 300.858 451.732 300.287C452.703 299.717 453.366 299.285 453.952 298.93C454.219 298.785 454.469 298.611 454.7 298.414C454.41 298.504 454.133 298.631 453.875 298.791C453.266 299.108 452.51 299.524 451.578 300.01C450.645 300.495 449.388 301.243 447.992 302.053C446.597 302.862 445.047 303.811 443.351 304.905C434.513 310.6 425.987 316.764 417.809 323.37C408.202 331.08 399.891 338.528 394.147 344.194C391.295 347.047 388.982 349.36 387.494 351.048C386.769 351.866 386.222 352.49 385.774 352.999C385.579 353.242 385.415 353.508 385.289 353.793Z" fill="#263238"/>
<path d="M398.447 338.359C399.725 337.715 400.951 336.974 402.115 336.142C404.4 334.579 407.62 332.188 411.402 328.992C415.809 325.23 419.999 321.22 423.952 316.984C428.838 311.824 433.356 306.326 437.47 300.532C445.175 290.115 450.926 278.387 454.445 265.917C455.039 263.769 455.493 261.586 455.804 259.38C455.958 258.399 456.165 257.506 456.201 256.697L456.342 254.391C456.481 252.961 456.516 251.522 456.446 250.087C456.087 250.062 456.17 256.312 453.514 265.712C449.784 277.975 443.987 289.51 436.374 299.821C432.301 305.569 427.85 311.039 423.051 316.195C419.163 320.448 415.064 324.504 410.769 328.346C407.084 331.603 403.966 334.094 401.799 335.788C400.614 336.553 399.493 337.413 398.447 338.359Z" fill="#263238"/>
<path d="M233.835 138.324C233.835 143.804 238.288 148.251 243.777 148.251C249.265 148.251 253.718 143.804 253.718 138.324V131.395C253.718 125.914 249.265 121.467 243.777 121.467C238.288 121.467 233.835 125.914 233.835 131.395V138.324Z" fill="#FFCB05"/>
<path d="M132.146 247.117C134.942 233.673 146.85 197.374 175.845 184.241C204.84 171.107 232.075 181.759 242.119 187.86C252.164 193.962 263.762 217.747 269.043 239.981C274.221 262.215 291.929 261.905 305.701 266.869L299.281 290.034L157.62 290.965C157.62 290.965 157.62 290.965 157.309 287.345C120.237 285.277 129.453 260.561 132.146 247.117ZM277.12 282.691C271.425 282.691 246.262 263.766 241.084 264.387C238.495 278.245 238.184 285.587 237.874 286.518C237.563 287.449 275.567 294.17 277.12 282.691Z" fill="#00ADEF"/>
<path d="M226.793 194.374C228.657 203.164 236.113 256.63 223.376 291.791C213.435 292.618 198.523 291.791 198.523 291.791C201.423 273.279 207.118 222.089 195.313 192.719C207.015 192.926 226.793 194.374 226.793 194.374Z" fill="#CCEFFC"/>
<path d="M220.269 178.552C230.314 179.172 232.696 190.031 228.139 196.753C223.583 203.475 214.885 197.994 213.331 194.581C202.458 204.819 188.271 195.615 185.268 180.31C185.165 179.172 202.562 175.76 220.269 178.552Z" fill="#CCEFFC"/>
<path d="M191.482 123.432C191.896 113.298 202.355 93.959 227.104 94.9932C244.708 96.3376 246.883 112.987 246.883 112.987C247.504 114.849 250.611 118.779 250.611 118.779C251.543 111.022 246.572 90.2361 224.308 89.719C199.248 89.0985 187.34 108.644 186.822 122.708C188.893 126.018 191.482 123.432 191.482 123.432Z" fill="#FFCB05"/>
<path d="M240.67 104.197C249.161 109.988 254.235 119.606 249.886 129.224C245.64 138.841 244.398 142.978 248.54 150.527C254.339 161.075 256.824 170.9 252.475 179.897C239.109 199.791 214.264 173.278 214.264 173.278C214.264 173.278 224.515 103.06 240.67 104.197Z" fill="#31241C"/>
<path d="M201.319 152.388C201.319 152.388 194.796 172.14 194.174 180.517C193.657 188.17 218.924 193.237 220.787 185.274C222.651 175.76 225.447 159.524 225.447 159.524" fill="#C97440"/>
<path d="M199.145 160.661L201.216 152.388L225.24 159.42C225.24 159.42 224.412 164.384 223.273 170.693C221.512 171.003 219.648 171.21 217.785 171.106C210.018 170.796 203.287 166.659 199.145 160.661Z" fill="#AB5D2D"/>
<path d="M243.363 142.874C242.741 156.008 231.661 166.246 218.51 165.626C205.358 165.005 195.107 153.94 195.728 140.806L196.867 115.676C197.488 102.543 208.569 92.3045 221.72 92.925C234.871 93.5455 245.123 104.611 244.502 117.745L243.363 142.874Z" fill="#C97440"/>
<path d="M211.882 116.814C214.885 115.159 218.82 114.435 222.03 116.09C223.169 116.71 222.134 118.468 220.995 117.848C218.509 116.607 215.299 117.331 212.918 118.572C211.675 119.192 210.639 117.434 211.882 116.814Z" fill="#31241C"/>
<path d="M240.566 120.123C239.117 118.779 237.149 118.262 235.182 118.675C233.939 118.985 233.318 116.917 234.664 116.71C237.253 116.193 240.049 116.814 242.016 118.675C243.052 119.606 241.602 121.054 240.566 120.123Z" fill="#31241C"/>
<path d="M226.379 138.427C226.586 138.427 226.793 138.324 226.897 138.22L231.557 134.084C231.764 133.877 231.867 133.67 231.867 133.463C231.867 133.256 231.66 132.946 231.453 132.843L226.793 130.257C226.379 130.05 225.965 130.154 225.758 130.567C225.551 130.981 225.654 131.395 226.068 131.602L229.796 133.67L225.965 137.083C225.654 137.393 225.654 137.807 225.861 138.22C225.965 138.324 226.172 138.427 226.379 138.427Z" fill="#31241C"/>
<path d="M224.62 145.046C225.862 145.046 227.105 144.736 228.037 144.012C228.348 143.805 228.451 143.288 228.244 142.978C228.037 142.668 227.519 142.564 227.208 142.771C225.862 143.702 223.688 143.702 222.134 142.875C221.202 142.357 220.167 141.323 220.27 139.255C220.27 138.841 219.96 138.428 219.545 138.428C219.131 138.428 218.717 138.738 218.717 139.152C218.613 141.427 219.545 143.185 221.409 144.219C222.445 144.736 223.584 145.046 224.62 145.046Z" fill="#31241C"/>
<path d="M221.201 129.844C220.684 131.292 218.923 132.119 217.474 131.498C216.024 130.981 215.195 129.223 215.817 127.775C216.334 126.328 218.095 125.5 219.545 126.121C220.994 126.741 221.719 128.396 221.201 129.844Z" fill="#1A191F"/>
<path d="M238.496 130.877C237.978 132.325 236.217 133.153 234.768 132.532C233.318 132.015 232.489 130.257 233.111 128.809C233.628 127.361 235.389 126.534 236.839 127.154C238.288 127.775 239.117 129.43 238.496 130.877Z" fill="#1A191F"/>
<path d="M237.77 130.258C237.874 130.258 237.977 130.258 238.081 130.154L240.877 128.396C241.187 128.189 241.291 127.776 241.084 127.466C240.877 127.155 240.462 127.052 240.152 127.259L237.356 129.017C237.045 129.224 236.942 129.637 237.149 129.948C237.356 130.154 237.563 130.258 237.77 130.258Z" fill="#1A191F"/>
<path d="M217.164 129.223C217.371 129.223 217.578 129.12 217.681 128.913C217.889 128.603 217.785 128.189 217.474 127.982L214.471 125.914C214.161 125.707 213.746 125.81 213.539 126.121C213.332 126.431 213.436 126.844 213.746 127.051L216.749 129.12C216.957 129.223 217.06 129.223 217.164 129.223Z" fill="#1A191F"/>
<path d="M172.946 142.978C176.881 134.498 172.014 129.224 174.086 121.054C175.949 113.918 184.337 114.228 188.79 104.094C195.521 88.685 229.901 74.8274 242.638 106.059C228.347 96.4411 213.746 101.405 208.258 108.541C197.074 122.915 208.569 129.017 204.22 137.6C201.113 143.805 199.042 148.045 203.08 157.456C207.119 166.867 201.424 175.864 201.424 175.864C198.796 185.021 166.545 200.463 159.381 170.796C159.484 147.838 169.011 151.561 172.946 142.978Z" fill="#31241C"/>
<path d="M233.421 260.87C245.019 261.905 249.472 265.317 259.931 270.798C270.286 276.279 272.564 277.52 270.079 278.554C276.189 278.968 272.668 282.174 268.318 280.829C271.218 282.07 267.179 283.415 261.484 281.243C260.034 283.518 252.682 282.484 248.022 279.795C243.362 277.106 232.178 274.935 221.927 278.347C220.684 272.039 224.619 261.077 224.619 261.077L233.421 260.87Z" fill="#C97440"/>
<path d="M226.068 261.077C219.855 259.732 202.251 258.284 191.896 258.905C191.275 267.075 195.727 283.518 195.727 283.518L223.376 277.416C223.48 277.313 222.133 268.626 226.068 261.077Z" fill="#00ADEF"/>
<path d="M226.587 261.181C214.264 259.423 201.734 259.423 189.308 259.112C183.302 258.905 177.503 258.285 171.6 257.561C165.905 256.941 159.277 258.182 153.789 259.733C153.168 259.94 152.857 258.905 153.478 258.699C158.449 257.147 164.352 256.217 169.633 256.32C172.222 256.423 174.81 256.941 177.399 257.251C181.024 257.768 184.648 257.768 188.169 257.975C201.113 258.388 213.954 258.285 226.794 260.146C227.519 260.25 227.312 261.284 226.587 261.181Z" fill="#1F0E03"/>
<path d="M171.496 229.536C170.357 238.119 169.736 246.806 169.632 255.39C169.632 256.01 168.596 256.01 168.596 255.39C168.596 246.599 169.218 237.913 170.46 229.226C170.564 228.605 171.496 228.812 171.496 229.536Z" fill="#1F0E03"/>
<path d="M224.309 277.83C220.581 277.83 217.06 279.485 213.539 280.416C209.293 281.553 205.151 283.001 201.009 284.138C192.518 286.517 183.612 287.965 174.81 288.482C160.727 289.309 143.744 288.585 133.182 278.14C132.664 277.623 133.389 276.899 133.907 277.417C144.987 288.378 163.212 288.378 177.71 287.241C186.408 286.62 195.107 284.759 203.494 282.38C207.222 281.243 211.054 280.105 214.782 278.968C217.888 278.037 220.995 276.693 224.309 276.796C224.93 276.796 224.93 277.83 224.309 277.83Z" fill="#1F0E03"/>
<path d="M244.915 218.883C245.847 221.676 245.536 224.675 245.536 227.57C245.433 231.5 245.226 235.533 245.019 239.463C244.811 243.393 244.708 247.323 244.397 251.149C244.087 254.768 242.74 258.181 242.533 261.697C242.533 262.318 241.498 262.318 241.498 261.697C241.705 258.388 242.948 255.389 243.258 252.08C243.569 248.46 243.776 244.944 243.879 241.324C244.087 237.705 244.294 234.085 244.397 230.466C244.501 226.846 245.122 222.606 243.879 219.09C243.776 218.47 244.708 218.263 244.915 218.883Z" fill="#1F0E03"/>
<path d="M229.278 183.516C230.935 189.204 232.074 196.546 225.654 199.752C223.376 200.89 220.683 200.373 218.509 199.338C216.956 198.615 215.609 197.477 214.263 196.339C212.917 195.202 212.399 196.96 211.26 197.787C201.837 204.509 189.41 195.202 186.304 185.895C186.097 185.274 187.132 184.964 187.339 185.584C190.653 195.512 204.943 204.613 213.124 194.478C213.331 194.271 213.642 194.271 213.849 194.478C217.266 197.58 221.719 201.2 226.275 198.304C231.349 195.202 229.693 188.377 228.45 183.826C228.139 183.102 229.071 182.792 229.278 183.516Z" fill="#1F0E03"/>
<path d="M262.001 282.174C258.688 281.554 256.099 279.589 253.407 277.831C249.575 275.452 245.329 274.108 241.291 272.453C240.669 272.246 240.98 271.212 241.601 271.419C245.019 272.867 248.436 274.004 251.75 275.659C255.27 277.417 258.377 280.52 262.416 281.14C262.933 281.243 262.726 282.278 262.001 282.174Z" fill="#1F0E03"/>
<path d="M269.458 282.07C261.173 278.554 253.614 273.694 245.123 270.695C244.501 270.488 244.812 269.454 245.433 269.66C254.028 272.66 261.691 277.623 269.976 281.14C270.597 281.45 270.079 282.277 269.458 282.07Z" fill="#1F0E03"/>
<path d="M271.322 279.588C268.111 277.624 264.384 276.693 260.966 274.935C257.653 273.177 254.339 271.419 250.922 269.867C250.3 269.557 250.818 268.73 251.439 268.937C254.857 270.488 258.17 272.246 261.484 274.004C264.798 275.762 268.526 276.693 271.839 278.658C272.357 279.071 271.839 280.002 271.322 279.588Z" fill="#1F0E03"/>
<path d="M217.577 203.268C217.267 205.13 214.678 205.026 213.746 203.578C213.228 202.751 213.746 201.82 214.471 201.407C215.403 200.89 216.645 200.993 217.267 201.82C217.681 202.337 216.749 202.854 216.335 202.337C215.92 201.717 213.953 202.337 214.678 203.061C215.196 203.578 216.335 203.682 216.438 202.854C216.749 202.337 217.681 202.544 217.577 203.268Z" fill="#1F0E03"/>
<path d="M218.923 210.922C219.234 212.783 217.059 213.3 215.817 212.266C215.195 211.749 214.885 210.715 215.402 209.991C215.92 209.267 217.059 209.37 217.784 209.577C218.405 209.784 218.198 210.818 217.473 210.611C217.059 210.508 216.542 210.301 216.231 210.611C215.92 210.818 216.334 211.335 216.542 211.542C216.956 211.852 217.991 212.059 217.888 211.232C217.888 210.508 218.82 210.198 218.923 210.922Z" fill="#1F0E03"/>
<path d="M219.545 220.745C219.441 222.814 216.438 221.986 216.128 220.435C215.713 218.574 219.131 217.436 219.441 219.504C219.545 220.125 218.509 220.435 218.406 219.815C218.302 218.987 217.163 219.608 217.163 220.228C217.163 220.745 218.509 221.366 218.613 220.745C218.613 220.125 219.648 220.125 219.545 220.745Z" fill="#1F0E03"/>
<path d="M239.738 277.313C239.842 278.864 239.634 280.623 239.117 282.07C238.91 282.691 237.874 282.381 238.081 281.76C238.599 280.416 238.806 278.761 238.703 277.313C238.599 276.693 239.635 276.693 239.738 277.313Z" fill="#1F0E03"/>
<path d="M226.794 261.284C224.826 262.628 224.723 265.317 224.205 267.385C223.48 270.178 222.962 273.59 224.205 276.279C224.515 276.899 223.583 277.417 223.273 276.796C221.927 273.694 222.444 270.281 223.169 267.075C223.791 264.593 224.101 261.904 226.276 260.353C226.794 260.043 227.311 260.974 226.794 261.284Z" fill="#1F0E03"/>
<path d="M251.75 144.322C253.407 156.422 235.492 156.422 227.829 156.008C227.208 156.008 227.208 154.974 227.829 154.974C234.664 155.284 252.268 155.595 250.714 144.529C250.714 143.909 251.646 143.702 251.75 144.322Z" fill="#1F0E03"/>
<path d="M221.824 155.387C221.824 157.145 223.584 158.49 225.655 158.49C227.726 158.49 229.486 157.145 229.486 155.387C229.486 153.629 227.83 152.285 225.655 152.285C223.584 152.285 221.824 153.732 221.824 155.387Z" fill="#FFBC45"/>
<path d="M224.412 89.8225C237.149 90.1328 244.19 96.9581 247.711 104.301C246.469 104.404 245.226 104.818 244.087 105.335C241.498 100.784 236.424 95.8206 227.104 95.0967C202.355 93.9591 191.896 113.401 191.482 123.536C191.482 123.536 188.893 126.225 186.925 122.915C187.443 108.747 199.352 89.202 224.412 89.8225Z" fill="#FFCB05"/>
<path d="M178.848 138.324C178.848 143.804 183.301 148.251 188.789 148.251C194.278 148.251 198.73 143.804 198.73 138.324V131.395C198.73 125.914 194.278 121.467 188.789 121.467C183.301 121.467 178.848 125.914 178.848 131.395V138.324Z" fill="#FFCB05"/>
<path d="M181.229 137.29C181.644 144.012 190.653 145.563 193.138 139.255C193.863 137.393 193.449 134.704 193.449 132.74C193.449 125.811 183.922 124.673 181.54 130.775C180.815 132.636 181.229 135.325 181.229 137.29C181.229 137.91 180.194 137.91 180.194 137.29C180.194 133.153 179.78 129.12 183.715 126.535C188.478 123.432 194.174 127.569 194.484 132.636C194.691 136.669 194.691 140.909 190.963 143.391C186.2 146.494 180.505 142.357 180.194 137.29C180.194 136.669 181.229 136.669 181.229 137.29Z" fill="#1F0E03"/>
<path d="M298.038 282.071C292.343 282.071 222.134 282.071 218.406 282.071C214.781 282.071 213.953 289.413 220.063 289.413C226.172 289.413 402.731 289.413 402.731 289.413C408.219 278.451 432.865 211.335 435.35 205.027C437.835 198.718 435.557 191.376 425.616 191.376C415.675 191.376 362.863 191.376 355.614 191.376C348.262 191.376 340.185 192.617 335.007 203.786C329.726 214.954 298.038 282.071 298.038 282.071Z" fill="#5F7E91"/>
<path d="M218.095 289.103C217.888 289 217.681 288.896 217.474 288.793C217.474 288.793 217.474 288.793 217.37 288.793C214.264 287.035 215.299 282.071 218.302 282.071C218.924 282.071 221.305 282.071 224.826 282.071C243.155 282.071 293.171 282.071 297.935 282.071C297.935 282.071 297.935 281.967 298.038 281.967C298.038 281.864 298.142 281.761 298.142 281.657C298.453 281.037 298.97 279.899 299.799 278.245C306.633 263.766 330.451 213.403 334.8 203.786C339.874 192.617 348.055 191.376 355.407 191.376C356.546 191.376 358.824 191.376 361.931 191.376C354.578 191.376 346.501 192.617 341.324 203.786C336.25 214.955 304.459 282.071 304.459 282.071L301.663 289.206C301.663 289.206 298.245 289.31 292.757 289.413C264.28 289.413 238.185 289.413 226.483 289.413C222.859 289.413 220.58 289.413 219.959 289.413C219.545 289.413 219.234 289.413 218.924 289.31C218.716 289.31 218.509 289.206 218.406 289.206C218.302 289.103 218.199 289.103 218.095 289.103Z" fill="#49687A"/>
<path d="M364.209 241.325C362.242 246.289 364.623 250.322 369.49 250.322C374.461 250.322 380.053 246.289 382.124 241.325C384.091 236.361 381.71 232.328 376.843 232.328C371.872 232.328 366.177 236.361 364.209 241.325Z" stroke="#1F0E03" stroke-miterlimit="10"/>
<path d="M125.001 294.997H412.154V340.5C380.674 347.222 338.114 352.082 296.278 352.599C239.013 353.323 179.573 352.703 124.897 350.014V294.997H125.001Z" fill="#2F3245"/>
<path d="M113.092 293.86C113.092 296.549 115.267 298.824 118.063 298.824H419.196C421.888 298.824 424.166 296.652 424.166 293.86C424.166 291.171 421.992 288.896 419.196 288.896H117.959C115.267 289 113.092 291.171 113.092 293.86Z" fill="#595C73"/>
<path d="M358.075 115.402C353.684 119.521 350.092 119.521 350.092 115.402C350.092 111.282 350.092 104.439 350.092 100.319C350.092 96.2 353.684 92.745 358.075 92.745C362.466 92.745 369.585 92.745 373.976 92.745C378.367 92.745 378.367 96.1335 373.976 100.319C369.652 104.439 362.466 111.282 358.075 115.402Z" fill="#FFCB05"/>
<path d="M253.423 75.2707C253.423 89.3563 264.866 100.784 278.97 100.784H372.712C386.817 100.784 398.26 89.3563 398.26 75.2707V41.6513C398.26 27.5656 386.817 16.1377 372.712 16.1377H278.97C264.866 16.1377 253.423 27.5656 253.423 41.6513V75.2707Z" fill="#FFCB05"/>
<path d="M301.391 32.748V36.8674H306.115V32.748H307.379V42.5814H306.115V37.9969H301.391V42.5814H300.127V32.748H301.391Z" fill="#332901"/>
<path d="M314.764 37.9969H310.971V41.5183H315.229V42.5814H309.707V32.748H315.03V33.8111H310.971V36.9339H314.764V37.9969Z" fill="#332901"/>
<path d="M316.826 32.748H318.09V41.5183H322.282V42.5814H316.826V32.748Z" fill="#332901"/>
<path d="M323.746 32.8808C324.344 32.748 325.143 32.6815 326.207 32.6815C327.471 32.6815 328.403 32.9473 328.935 33.4788C329.467 33.9439 329.8 34.6748 329.8 35.5385C329.8 36.4022 329.534 37.1331 329.068 37.6646C328.403 38.3955 327.272 38.7277 326.074 38.7277C325.675 38.7277 325.342 38.7277 325.076 38.6613V42.5813H323.812V32.8808H323.746ZM325.01 37.5982C325.276 37.6646 325.608 37.7311 326.074 37.7311C327.604 37.7311 328.536 37.0002 328.536 35.6049C328.536 34.2761 327.604 33.6781 326.207 33.6781C325.675 33.6781 325.209 33.7446 325.01 33.811V37.5982Z" fill="#332901"/>
<path d="M331.197 41.8505C331.197 41.319 331.53 40.9204 332.062 40.9204C332.595 40.9204 332.927 41.319 332.927 41.8505C332.927 42.3821 332.595 42.7807 332.062 42.7807C331.53 42.7143 331.197 42.3156 331.197 41.8505ZM331.53 39.7244L331.331 32.748H332.728L332.528 39.7244H331.53Z" fill="#332901"/>
<path d="M267.128 49.3586H332.527V53.6109H267.128V49.3586Z" fill="#FFF2DB"/>
<path d="M276.043 59.6567H332.527V63.909H276.043V59.6567Z" fill="#FFF2DB"/>
<path d="M295.071 69.9553H332.527V74.2076H295.071V69.9553Z" fill="#FFF2DB"/>
<path d="M271.985 80.3204H332.527V84.5727H271.985V80.3204Z" fill="#FFF2DB"/>
<path d="M345.501 82.9781C347.431 78.1279 354.217 74.6729 357.61 74.7393H369.253C373.045 75.0716 379.432 78.1279 381.361 82.9781C376.837 87.4961 370.45 90.2867 363.398 90.2867C356.412 90.2867 350.025 87.4961 345.501 82.9781Z" fill="#00ADEF"/>
<path d="M368.188 64.8396C368.188 64.8396 369.319 74.0085 370.051 79.1245C370.583 82.9117 357.078 83.9748 356.612 79.9218C356.279 75.0716 355.814 66.8993 355.814 66.8993" fill="#C97440"/>
<path d="M368.721 69.0254L368.188 64.8396L355.88 66.8993C355.88 66.8993 356.013 69.4241 356.213 72.5468C357.078 72.8126 358.009 73.0119 358.941 73.0784C362.799 73.3441 366.392 71.7495 368.721 69.0254Z" fill="#AB5D2D"/>
<path d="M347.963 57.5976C347.497 64.1089 352.354 69.8229 358.941 70.288C365.461 70.7531 371.182 65.9028 371.648 59.3251L372.579 46.8341C373.045 40.3228 368.188 34.6088 361.602 34.1437C355.082 33.6787 349.36 38.5289 348.894 45.1066L347.963 57.5976Z" fill="#C97440"/>
<path d="M364.13 48.1629C362.467 47.8306 361.136 47.0998 360.138 45.7045C359.673 45.0401 360.804 44.3757 361.27 45.0401C362.068 46.1696 363.199 46.6347 364.463 46.9005C365.328 47.0334 364.995 48.2957 364.13 48.1629Z" fill="#31241C"/>
<path d="M350.691 45.5717C351.622 45.3724 352.221 44.9738 352.62 44.11C353.019 43.3792 354.15 44.0436 353.751 44.7744C353.152 45.904 352.221 46.5684 351.023 46.8341C350.225 46.967 349.892 45.7046 350.691 45.5717Z" fill="#31241C"/>
<path d="M356.679 56.5344C356.812 56.5344 356.945 56.468 357.011 56.4015C357.211 56.2022 357.211 55.87 357.078 55.6707L355.481 53.8767L357.277 53.1459C357.543 53.013 357.676 52.7472 357.543 52.4815C357.41 52.2157 357.144 52.0828 356.878 52.2157L354.416 53.2123C354.283 53.2788 354.15 53.4117 354.15 53.5445C354.084 53.6774 354.15 53.8767 354.283 54.0096L356.346 56.3351C356.346 56.468 356.545 56.5344 356.679 56.5344Z" fill="#31241C"/>
<path d="M359.673 61.5841C359.806 61.5841 360.005 61.5176 360.072 61.3848C360.205 61.1854 360.205 60.8532 359.939 60.7203C357.943 59.3251 356.213 58.7935 354.683 59.0593C354.417 59.1257 354.217 59.3915 354.284 59.6573C354.35 59.923 354.616 60.1224 354.882 60.0559C356.146 59.7902 357.61 60.3217 359.34 61.5176C359.473 61.5176 359.54 61.5841 359.673 61.5841Z" fill="#31241C"/>
<path d="M359.672 52.4816C359.872 53.2789 360.67 53.744 361.402 53.5447C362.2 53.3454 362.666 52.5481 362.467 51.8172C362.267 51.0199 361.469 50.5548 360.737 50.7542C360.005 50.9535 359.473 51.6843 359.672 52.4816Z" fill="#1A191F"/>
<path d="M351.09 51.95C351.29 52.7473 352.088 53.2124 352.82 53.0131C353.618 52.8138 354.084 52.0165 353.885 51.2856C353.685 50.4883 352.887 50.0232 352.155 50.2226C351.356 50.4219 350.891 51.2192 351.09 51.95Z" fill="#1A191F"/>
<path d="M369.385 56.2025C368.853 58.528 370.25 60.8535 372.579 61.385C374.908 61.9165 377.236 60.5212 377.768 58.1958L378.101 56.867C378.633 54.5415 377.236 52.216 374.908 51.6845C372.579 51.153 370.25 52.5483 369.718 54.8737L369.385 56.2025Z" fill="#C97440"/>
<path d="M375.906 52.1494C376.904 49.2924 381.827 37.5322 374.509 37.2C374.043 32.6156 367.656 30.1572 359.606 28.6291C351.622 27.0345 346.632 30.8216 347.231 34.5424C347.83 38.2631 352.753 39.6584 356.679 38.5289C357.81 42.5818 363.132 41.1865 364.33 40.3892C365.261 44.3093 369.718 45.2395 369.186 47.9636C368.654 50.6877 368.454 53.4782 368.321 54.0098C368.188 54.5413 370.583 55.6708 371.049 54.5413C371.581 53.4782 373.577 51.485 375.906 52.1494Z" fill="#31241C"/>
<path d="M353.751 116.199C348.894 117.129 351.689 100.718 351.689 98.1929C351.822 98.3258 351.888 98.3923 352.021 98.5251C341.576 98.5916 331.131 98.658 320.685 98.5251C313.234 98.4587 305.716 98.2594 298.265 98.2594C293.674 98.2594 289.083 98.0601 284.493 97.9272C279.57 97.7279 274.646 97.7278 269.856 96.4655C260.675 94.0071 257.348 84.3731 256.417 75.8686C256.35 75.4699 257.016 75.4699 257.082 75.8686C257.814 82.1805 259.677 89.0904 264.8 93.2763C268.659 96.4655 274.247 96.8641 279.037 97.0634C283.761 97.2628 288.551 97.4621 293.275 97.5285C308.244 97.7278 323.28 97.8607 338.25 97.8607C342.84 97.8607 347.497 97.8607 352.088 97.7943C352.287 97.7943 352.421 97.9272 352.421 98.1265C352.421 100.253 350.225 116.132 353.618 115.468C354.017 115.468 354.15 116.132 353.751 116.199Z" fill="#1F0E03"/>
<path d="M256.75 47.4318C256.75 55.6706 256.417 63.9758 256.949 72.2145C256.949 72.6132 256.284 72.6132 256.284 72.2145C255.752 63.9758 256.084 55.6706 256.084 47.4318C256.084 47.0332 256.75 47.0332 256.75 47.4318Z" fill="#1F0E03"/>
<path d="M388.437 152.547C388.437 159.445 394.023 165.023 400.93 165.023H450.361C457.269 165.023 462.854 159.445 462.854 152.547V138.031C462.854 131.134 457.269 125.555 450.361 125.555H400.93C394.023 125.555 388.437 131.134 388.437 138.031V152.547Z" fill="#9295A9"/>
<path d="M413.423 150.928V149.908L414.744 148.589C417.927 145.53 419.369 143.91 419.429 142.051C419.429 140.791 418.828 139.591 416.966 139.591C415.825 139.591 414.864 140.191 414.324 140.671L413.783 139.471C414.624 138.752 415.885 138.212 417.327 138.212C420.03 138.212 421.171 140.071 421.171 141.871C421.171 144.21 419.489 146.069 416.846 148.589L415.825 149.488V149.548H421.471V150.928H413.423Z" fill="white"/>
<path d="M428.558 150.928V147.509H422.732V146.369L428.318 138.392H430.12V146.189H431.862V147.509H430.12V150.928H428.558ZM428.558 146.189V141.991C428.558 141.331 428.558 140.671 428.618 140.011H428.558C428.198 140.731 427.838 141.271 427.537 141.871L424.474 146.129V146.189H428.558Z" fill="white"/>
<path d="M432.343 151.708L437.748 137.732H439.07L433.664 151.708H432.343Z" fill="white"/>
<path d="M447.959 138.392V139.531L442.493 150.928H440.751L446.217 139.831V139.771H440.091V138.392H447.959Z" fill="white"/>
<path d="M419.97 162.864C411.381 160.765 401.831 164.964 394.083 159.685C393.782 159.445 394.083 158.965 394.383 159.145C402.071 164.364 411.681 160.165 420.15 162.265C420.51 162.384 420.33 162.984 419.97 162.864Z" fill="#1F0E03"/>
<path d="M391.2 140.731C391.08 142.05 391.14 143.31 390.959 144.57C390.779 146.069 390.539 147.509 390.539 149.008C390.539 151.887 390.779 154.887 392.461 157.346C392.701 157.646 392.161 157.946 391.92 157.646C390.479 155.546 390.119 152.967 389.938 150.448C389.878 149.128 389.818 147.809 389.998 146.549C390.239 144.63 390.359 142.71 390.539 140.791C390.659 140.371 391.26 140.371 391.2 140.731Z" fill="#1F0E03"/>
<g clip-path="url(#clip1_31_16354)">
<path d="M19.5391 155.827C19.5391 168.119 29.5164 178.065 41.8479 178.065H123.74C136.072 178.065 146.049 168.119 146.049 155.827V126.548C146.049 114.255 136.072 104.309 123.74 104.309H41.8479C29.5164 104.309 19.5391 114.255 19.5391 126.548V155.827Z" fill="#FFCB05"/>
<path d="M120.825 190.861C124.636 194.493 127.775 194.493 127.775 190.861C127.775 187.229 127.775 181.306 127.775 177.73C127.775 174.098 124.636 171.136 120.825 171.136C117.013 171.136 110.736 171.136 106.924 171.136C103.112 171.136 103.112 174.098 106.924 177.73C110.679 181.306 116.957 187.229 120.825 190.861Z" fill="#FFCB05"/>
<path d="M86.1286 121.295H83.4941V120.345H89.828V121.295H87.1936V128.894H86.0725V121.295H86.1286Z" fill="#332901"/>
<path d="M91.958 120.345V123.921H96.1059V120.345H97.2269V128.894H96.1059V124.871H91.958V128.894H90.837V120.345H91.958Z" fill="#332901"/>
<path d="M100.534 126.212L99.6376 128.894H98.5166L101.431 120.345H102.777L105.691 128.894H104.514L103.617 126.212H100.534ZM103.337 125.374L102.496 122.86C102.328 122.301 102.16 121.798 102.048 121.295C101.936 121.798 101.768 122.301 101.599 122.86L100.759 125.318H103.337V125.374Z" fill="#332901"/>
<path d="M106.98 128.894V120.345H108.214L110.96 124.704C111.577 125.71 112.081 126.604 112.53 127.498C112.418 126.38 112.418 125.318 112.418 123.977V120.401H113.483V128.894H112.361L109.615 124.536C108.998 123.586 108.438 122.58 107.989 121.686H107.933C107.989 122.748 108.045 123.81 108.045 125.207V128.894H106.98Z" fill="#332901"/>
<path d="M115.332 120.345H116.453V124.48H116.509C116.733 124.145 116.958 123.866 117.182 123.586L119.816 120.345H121.218L118.135 123.977L121.498 128.894H120.209L117.406 124.704L116.565 125.654V128.894H115.444V120.345H115.332Z" fill="#332901"/>
<path d="M122.114 127.553C122.619 127.833 123.347 128.112 124.076 128.112C125.197 128.112 125.87 127.497 125.87 126.659C125.87 125.877 125.421 125.374 124.244 124.983C122.843 124.48 122.002 123.754 122.002 122.58C122.002 121.239 123.123 120.234 124.805 120.234C125.701 120.234 126.318 120.457 126.71 120.681L126.43 121.575C126.15 121.407 125.589 121.184 124.805 121.184C123.627 121.184 123.179 121.91 123.179 122.469C123.179 123.251 123.684 123.642 124.861 124.145C126.318 124.704 127.047 125.43 127.047 126.659C127.047 128 126.038 129.118 124.02 129.118C123.179 129.118 122.282 128.894 121.834 128.559L122.114 127.553Z" fill="#332901"/>
<path d="M128.28 128.28C128.28 127.833 128.617 127.498 129.009 127.498C129.457 127.498 129.738 127.833 129.738 128.28C129.738 128.727 129.457 129.062 129.009 129.062C128.561 129.062 128.28 128.727 128.28 128.28ZM128.617 126.436L128.448 120.345H129.682L129.513 126.436H128.617Z" fill="#332901"/>
<path d="M74.0782 134.817H131.195V138.505H74.0782V134.817Z" fill="#FFF2DB"/>
<path d="M81.8694 143.813H131.195V147.501H81.8694V143.813Z" fill="#FFF2DB"/>
<path d="M98.4609 152.809H131.195V156.497H98.4609V152.809Z" fill="#FFF2DB"/>
<g clip-path="url(#clip2_31_16354)">
<path d="M70.2959 156.101C70.2959 156.101 73.7852 157.324 66.7976 200.258H37.0803C37.58 188.166 37.5979 180.705 31.8151 155.887C35.9753 155.027 40.1927 154.473 44.4338 154.227C48.9258 153.906 53.435 153.906 57.927 154.227C63.7277 154.754 70.2959 156.101 70.2959 156.101Z" fill="#00ADEF"/>
<path d="M70.2959 156.101C70.2959 156.101 73.7852 157.324 66.7976 200.258H37.0803C37.58 188.166 37.5979 180.705 31.8151 155.887C35.9753 155.027 40.1927 154.473 44.4338 154.227C48.9258 153.906 53.435 153.906 57.927 154.227C63.7277 154.754 70.2959 156.101 70.2959 156.101Z" fill="#00ADEF"/>
<path d="M92.8649 180.562C91.2853 182.052 89.6344 183.552 87.9834 184.98C86.3324 186.407 84.6458 187.782 82.9502 188.995C82.1313 189.588 81.2791 190.133 80.3979 190.629C79.7629 191.004 79.086 191.304 78.3811 191.521L78.265 191.218L77.7118 189.745C76.3221 185.699 75.2334 181.556 74.4545 177.349C74.0261 175.225 73.7316 173.075 73.4103 170.933C73.0891 168.791 72.857 166.578 72.6696 164.543L65.2001 165.016C65.3429 167.453 65.6285 169.675 65.9408 171.995C66.2532 174.315 66.6905 176.555 67.1813 178.831C68.1377 183.409 69.5118 187.89 71.2864 192.217L72.0271 193.859L72.2056 194.261L72.3037 194.466C72.3404 194.557 72.3821 194.647 72.4287 194.734C72.6846 195.251 73.0055 195.734 73.3835 196.17C73.835 196.686 74.3763 197.115 74.981 197.438C75.5778 197.747 76.2242 197.949 76.8907 198.036C77.9047 198.144 78.9301 198.035 79.8982 197.714C81.254 197.254 82.5327 196.593 83.6909 195.751C84.6977 195.036 85.6603 194.262 86.5734 193.431C89.977 190.256 93.0342 186.729 95.6938 182.909L92.8649 180.562Z" fill="#E4897B"/>
<path d="M70.2957 156.101C73.312 156.869 75.4181 169.273 75.4181 169.273L67.1097 174.922C67.1097 174.922 59.1405 162.428 61.4608 159.091C63.8792 155.637 65.8961 154.977 70.2957 156.101Z" fill="#00ADEF"/>
<path d="M70.2957 156.101C73.312 156.869 75.4181 169.273 75.4181 169.273L67.1097 174.922C67.1097 174.922 59.1405 162.428 61.4608 159.091C63.8792 155.637 65.8961 154.977 70.2957 156.101Z" fill="#00ADEF"/>
<path d="M37.8298 133.702C31.5829 140.653 37.3747 156.288 47.9944 150.077C58.6141 143.866 49.2794 137.923 49.2794 137.923L37.8298 133.702Z" fill="#263238"/>
<path d="M38.3475 149.203C38.3173 149.202 38.2875 149.196 38.2598 149.184C38.2322 149.171 38.2074 149.154 38.1869 149.131C35.3668 146.329 33.9747 143.384 34.0461 140.386C34.1838 137.651 35.3544 135.071 37.3212 133.166C37.342 133.145 37.367 133.127 37.3946 133.116C37.4222 133.104 37.4519 133.098 37.4818 133.098C37.5118 133.098 37.5415 133.104 37.5691 133.116C37.5967 133.127 37.6217 133.145 37.6425 133.166C37.6641 133.187 37.6812 133.212 37.693 133.24C37.7047 133.267 37.7108 133.297 37.7108 133.327C37.7108 133.357 37.7047 133.386 37.693 133.414C37.6812 133.442 37.6641 133.467 37.6425 133.487C35.782 135.32 34.6688 137.779 34.519 140.386C34.4477 143.25 35.7952 146.079 38.517 148.792C38.5386 148.813 38.5558 148.838 38.5675 148.866C38.5793 148.893 38.5853 148.923 38.5853 148.953C38.5853 148.983 38.5793 149.013 38.5675 149.04C38.5558 149.068 38.5386 149.093 38.517 149.114C38.4972 149.14 38.4717 149.162 38.4423 149.177C38.413 149.193 38.3806 149.201 38.3475 149.203Z" fill="#263238"/>
<path d="M52.2781 120.154C51.5463 122.537 57.0257 126.821 55.6692 132.854C54.9464 136.075 56.3118 139.1 57.8378 139.993C59.3638 140.885 65.1645 141.26 66.3514 138.502C64.3851 135.552 63.2168 132.142 62.9602 128.606C62.4516 122.046 54.3038 113.56 52.2781 120.154Z" fill="#263238"/>
<path d="M53.0634 117.808C50.5111 113.346 29.6197 117.451 37 132.309C44.3802 147.168 53.0634 117.808 53.0634 117.808Z" fill="#263238"/>
<path d="M45.808 139.029C46.6558 143.375 47.5125 151.327 44.4694 154.2C44.4694 154.2 45.6563 158.6 53.7237 158.6C62.5943 158.6 57.9627 154.2 57.9627 154.2C53.1258 153.04 53.2508 149.453 54.0896 146.079L45.808 139.029Z" fill="#E4897B"/>
<path d="M49.1457 141.912L54.054 146.097C53.8415 146.883 53.7011 147.687 53.6346 148.498C51.7873 148.23 49.2439 146.195 49.0476 144.259C48.9413 143.477 48.9745 142.682 49.1457 141.912Z" fill="#CE6F64"/>
<path d="M41.1941 131.069C42.8986 138.128 43.4698 141.153 47.7176 144.179C54.1162 148.721 62.4157 145.071 62.8886 137.664C63.2902 130.98 60.4345 120.556 52.9472 118.923C51.2914 118.55 49.5674 118.609 47.9411 119.095C46.3147 119.581 44.8405 120.476 43.6603 121.696C42.48 122.916 41.6332 124.419 41.2013 126.06C40.7694 127.701 40.7669 129.426 41.1941 131.069Z" fill="#E4897B"/>
<path d="M52.3672 131.14C52.4743 131.72 52.8669 132.14 53.2596 132.033C53.6523 131.925 53.8664 131.435 53.7683 130.855C53.6701 130.275 53.2685 129.855 52.8759 129.962C52.4832 130.069 52.269 130.56 52.3672 131.14Z" fill="#263238"/>
<path d="M58.9442 129.98C59.0424 130.56 59.435 130.98 59.8366 130.873C60.2382 130.766 60.4434 130.284 60.3453 129.704C60.2471 129.123 59.8455 128.704 59.4529 128.767C59.0602 128.829 58.8371 129.4 58.9442 129.98Z" fill="#263238"/>
<path d="M59.2834 128.865L60.6042 128.222C60.6042 128.222 60.0866 129.436 59.2834 128.865Z" fill="#263238"/>
<path d="M57.4094 131.283C58.1613 132.519 59.0803 133.645 60.1401 134.63C59.8799 134.893 59.5657 135.097 59.2192 135.228C58.8726 135.359 58.5018 135.414 58.1322 135.388L57.4094 131.283Z" fill="#DE5753"/>
<path d="M55.4818 138.119C54.2193 138.14 52.9988 137.666 52.0817 136.798C52.049 136.765 52.0307 136.72 52.0307 136.673C52.0307 136.627 52.049 136.582 52.0817 136.548C52.0975 136.532 52.1162 136.52 52.1369 136.511C52.1576 136.503 52.1798 136.498 52.2022 136.498C52.2246 136.498 52.2468 136.503 52.2675 136.511C52.2881 136.52 52.3069 136.532 52.3227 136.548C52.8654 137.045 53.5176 137.406 54.2263 137.603C54.9349 137.8 55.68 137.827 56.401 137.682C56.4457 137.676 56.4908 137.688 56.5272 137.715C56.5636 137.741 56.5886 137.78 56.5973 137.825C56.6052 137.871 56.5946 137.918 56.5679 137.956C56.5412 137.995 56.5005 138.021 56.4545 138.03C56.133 138.084 55.8078 138.114 55.4818 138.119Z" fill="#263238"/>
<path d="M54.9375 119.646C54.7323 122.127 48.0481 124.108 47.0754 130.185C46.5578 133.434 44.1483 135.781 42.417 136.013C40.0365 135.969 37.753 135.062 35.9916 133.461C35.8062 133.254 35.6673 133.01 35.584 132.745C35.5008 132.48 35.4752 132.2 35.509 131.925C35.5429 131.649 35.6353 131.384 35.7801 131.147C35.9249 130.91 36.1187 130.707 36.3486 130.551C38.7938 128.838 41.3818 126.75 41.8637 123.519C42.4527 119.726 55.5087 112.765 54.9375 119.646Z" fill="#263238"/>
<path d="M40.8908 137.146C41.4377 138.438 42.4695 139.463 43.7644 140.002C45.4957 140.698 46.5576 139.208 46.2542 137.467C45.9686 135.906 44.7371 133.666 42.9255 133.71C42.5293 133.727 42.1436 133.843 41.8033 134.047C41.4631 134.25 41.179 134.536 40.977 134.877C40.7749 135.218 40.6612 135.604 40.6461 136.001C40.6311 136.397 40.7152 136.791 40.8908 137.146Z" fill="#E4897B"/>
<path d="M49.9577 129.382C49.9045 129.391 49.8503 129.391 49.797 129.382C49.7169 129.337 49.6567 129.263 49.6286 129.176C49.6005 129.088 49.6065 128.993 49.6453 128.909C49.8855 128.413 50.2408 127.982 50.6817 127.651C51.1227 127.321 51.6363 127.1 52.1798 127.009C52.2721 126.999 52.3644 127.027 52.4363 127.085C52.5083 127.144 52.5541 127.229 52.5635 127.321C52.573 127.413 52.5454 127.505 52.4868 127.577C52.4282 127.649 52.3435 127.695 52.2512 127.705C51.8217 127.781 51.4168 127.96 51.0706 128.226C50.7244 128.491 50.4468 128.836 50.2611 129.231C50.2283 129.28 50.183 129.321 50.1297 129.347C50.0765 129.374 50.0171 129.386 49.9577 129.382Z" fill="#263238"/>
<path d="M61.3273 126.429C61.2805 126.429 61.2341 126.42 61.1911 126.401C61.1481 126.383 61.1094 126.356 61.0774 126.321C60.7847 125.998 60.4194 125.748 60.0113 125.593C59.6033 125.437 59.1643 125.381 58.7303 125.429C58.6463 125.433 58.5637 125.406 58.4978 125.354C58.432 125.302 58.3873 125.227 58.372 125.144C58.3568 125.062 58.372 124.976 58.4149 124.904C58.4578 124.831 58.5255 124.777 58.6054 124.751C59.1526 124.68 59.7089 124.742 60.2265 124.933C60.7441 125.125 61.2076 125.439 61.5771 125.848C61.642 125.914 61.6784 126.002 61.6784 126.094C61.6784 126.186 61.642 126.274 61.5771 126.339C61.5079 126.399 61.4188 126.431 61.3273 126.429Z" fill="#263238"/>
<path d="M41.3459 184.578C37.7763 186.363 34.0995 188.291 30.521 189.745C29.8427 190.031 29.1645 190.272 28.513 190.486C28.5844 190.066 28.6469 189.647 28.7183 189.228C29.0574 187.336 29.4679 185.435 29.9855 183.534C30.5031 181.633 31.0297 179.714 31.6187 177.814C32.8323 174.039 34.1709 170.183 35.572 166.534L28.6469 163.705C27.0464 167.615 25.6611 171.61 24.4972 175.672C23.2807 179.76 22.3855 183.938 21.82 188.166C21.7129 189.263 21.579 190.352 21.5522 191.494L21.5076 192.333C21.4782 192.899 21.5232 193.466 21.6415 194.02C21.758 194.488 21.9445 194.937 22.1948 195.35C22.4868 195.821 22.8653 196.233 23.3103 196.563C23.9886 197.065 24.7906 197.374 25.6306 197.456C26.1314 197.517 26.6379 197.517 27.1387 197.456C27.5207 197.396 27.8991 197.316 28.2721 197.215C28.8807 197.044 29.477 196.832 30.0569 196.581C31.1052 196.14 32.1246 195.633 33.109 195.064C36.7686 192.914 40.2246 190.435 43.4342 187.657L41.3459 184.578Z" fill="#E4897B"/>
<path d="M52.7153 130.034L54.036 129.382C54.036 129.382 53.5095 130.596 52.7153 130.034Z" fill="#263238"/>
<path d="M31.815 155.887C28.8432 156.779 25.2646 167.042 25.2646 167.042L36.8125 175.297C36.8125 175.297 41.0247 166.739 39.7753 162.892C38.4724 158.885 35.2151 154.879 31.815 155.887Z" fill="#00ADEF"/>
<path d="M31.815 155.887C28.8432 156.779 25.2646 167.042 25.2646 167.042L36.8125 175.297C36.8125 175.297 41.0247 166.739 39.7753 162.892C38.4724 158.885 35.2151 154.879 31.815 155.887Z" fill="#00ADEF"/>
</g>
<path d="M42.1286 176.445C33.889 176.11 25.0888 170.913 23.2951 162.42C23.239 162.085 23.7435 161.917 23.8556 162.252C25.5372 170.466 34.1132 175.551 42.1286 175.886C42.4649 175.886 42.4649 176.445 42.1286 176.445Z" fill="#1F0E03"/>
<path d="M48.9108 176.445C47.3974 176.501 45.884 176.501 44.4266 176.556C44.0903 176.556 44.0903 175.998 44.4266 175.998C45.94 175.942 47.4534 175.942 48.9108 175.886C49.3032 175.886 49.3032 176.445 48.9108 176.445Z" fill="#1F0E03"/>
<path d="M120.937 188.793C118.135 186.279 115.276 183.765 112.642 181.027C111.409 179.797 110.344 178.121 108.83 177.171C107.933 176.557 106.868 176.501 105.859 176.445C103.842 176.333 101.824 176.389 99.8058 176.333C96.1624 176.277 92.463 176.11 88.8196 176.11C84.8959 176.11 80.9723 176.277 77.0486 176.445C69.4255 176.78 61.7464 177.171 54.1233 176.389C53.787 176.333 53.787 175.774 54.1233 175.83C61.9146 176.612 69.7619 176.221 77.6092 175.886C81.701 175.718 85.8488 175.551 89.9406 175.551C93.6401 175.551 97.2835 175.774 100.927 175.83C103.449 175.83 106.924 175.327 109.167 176.724C110.568 177.618 111.633 179.127 112.698 180.3C115.444 183.15 118.415 185.776 121.386 188.458C121.61 188.682 121.218 189.073 120.937 188.793Z" fill="#1F0E03"/>
</g>
<path d="M72.6942 44.5373C72.6942 51.1421 78.0426 56.4834 84.6562 56.4834H196.226C202.839 56.4834 208.188 51.1421 208.188 44.5373V33.3953C208.188 26.7905 202.839 21.4492 196.226 21.4492H84.6562C78.0426 21.4492 72.6942 26.7905 72.6942 33.3953V44.5373Z" fill="#9295A9"/>
<path d="M189.555 29.8346C189.152 28.9731 188.462 28.9731 188.002 29.8346L186.679 32.5339C186.277 33.3954 185.127 34.1995 184.206 34.3144L181.216 34.7738C180.296 34.8887 180.066 35.5779 180.756 36.2097L182.941 38.3347C183.631 39.0239 184.034 40.2874 183.861 41.2638L183.344 44.2503C183.171 45.1692 183.746 45.5712 184.551 45.1692L187.254 43.7334C188.117 43.2739 189.497 43.2739 190.302 43.7334L193.005 45.1692C193.868 45.6287 194.386 45.2267 194.213 44.2503L193.695 41.2638C193.523 40.3448 193.983 39.0239 194.616 38.3347L196.801 36.2097C197.491 35.5205 197.261 34.8887 196.341 34.7738L193.35 34.3144C192.43 34.1995 191.28 33.3954 190.878 32.5339L189.555 29.8346Z" fill="#CCCCCC"/>
<path d="M165.573 29.8347C165.171 28.9732 164.48 28.9732 164.02 29.8347L162.698 32.5341C162.295 33.3956 161.145 34.1996 160.225 34.3145L157.234 34.774C156.314 34.8888 156.084 35.578 156.774 36.2098L158.959 38.3348C159.65 39.024 160.052 40.2875 159.88 41.2639L159.362 44.2504C159.19 45.1693 159.765 45.5714 160.57 45.1693L163.273 43.7335C164.135 43.274 165.516 43.274 166.321 43.7335L169.024 45.1693C169.886 45.6288 170.404 45.2268 170.231 44.2504L169.714 41.2639C169.541 40.345 170.001 39.024 170.634 38.3348L172.819 36.2098C173.509 35.5206 173.279 34.8888 172.359 34.774L169.369 34.3145C168.449 34.1996 167.298 33.3956 166.896 32.5341L165.573 29.8347Z" fill="#CCCCCC"/>
<path d="M141.649 29.8348C141.246 28.9733 140.556 28.9733 140.096 29.8348L138.773 32.5342C138.37 33.3957 137.22 34.1998 136.3 34.3146L133.31 34.7741C132.389 34.8889 132.159 35.5781 132.849 36.2099L135.035 38.3349C135.725 39.0241 136.128 40.2877 135.955 41.264L135.437 44.2505C135.265 45.1695 135.84 45.5715 136.645 45.1695L139.348 43.7336C140.211 43.2742 141.591 43.2742 142.396 43.7336L145.099 45.1695C145.962 45.6289 146.479 45.2269 146.307 44.2505L145.789 41.264C145.617 40.3451 146.077 39.0241 146.709 38.3349L148.895 36.2099C149.585 35.5207 149.355 34.8889 148.435 34.7741L145.444 34.3146C144.524 34.1998 143.374 33.3957 142.971 32.5342L141.649 29.8348Z" fill="#CCCCCC"/>
<path d="M117.667 29.8348C117.265 28.9733 116.574 28.9733 116.114 29.8348L114.792 32.5342C114.389 33.3957 113.239 34.1998 112.319 34.3146L109.328 34.7741C108.408 34.8889 108.178 35.5781 108.868 36.2099L111.053 38.3349C111.744 39.0241 112.146 40.2877 111.974 41.264L111.456 44.2505C111.283 45.1695 111.859 45.5715 112.664 45.1695L115.367 43.7336C116.229 43.2742 117.61 43.2742 118.415 43.7336L121.118 45.1695C121.98 45.6289 122.498 45.2269 122.325 44.2505L121.808 41.264C121.635 40.3451 122.095 39.0241 122.728 38.3349L124.913 36.2099C125.603 35.5207 125.373 34.8889 124.453 34.7741L121.463 34.3146C120.543 34.1998 119.392 33.3957 118.99 32.5342L117.667 29.8348Z" fill="#CCCCCC"/>
<path d="M93.6857 29.8347C93.2831 28.9732 92.593 28.9732 92.1329 29.8347L90.8102 32.5341C90.4076 33.3956 89.2574 34.1996 88.3373 34.3145L85.3468 34.774C84.4266 34.8888 84.1966 35.578 84.8867 36.2098L87.0721 38.3348C87.7622 39.024 88.1647 40.2875 87.9922 41.2639L87.4746 44.2504C87.3021 45.1693 87.8772 45.5714 88.6823 45.1693L91.3853 43.7335C92.248 43.274 93.5707 43.274 94.4333 43.7335L97.1363 45.1693C97.999 45.6288 98.5165 45.2268 98.344 44.2504L97.8264 41.2639C97.6539 40.345 98.114 39.024 98.7466 38.3348L100.932 36.2098C101.622 35.5206 101.392 34.8888 100.472 34.774L97.4814 34.3145C96.5612 34.1996 95.411 33.3956 95.0084 32.5341L93.6857 29.8347Z" fill="#CCCCCC"/>
<path d="M148.262 54.7604C146.364 54.7604 144.466 54.5881 142.568 54.5306C142.223 54.5306 142.223 53.9563 142.568 53.9563C144.466 53.9563 146.364 54.1286 148.262 54.186C148.607 54.186 148.607 54.7604 148.262 54.7604Z" fill="#1F0E03"/>
<path d="M139.924 54.5307C133.138 54.3584 126.409 54.703 119.623 54.5881C116.23 54.5307 112.894 54.2435 109.559 54.0712C105.993 53.8989 102.485 53.9564 98.9192 54.0712C95.5261 54.1861 92.133 54.301 88.7974 54.3584C86.4395 54.4158 84.0816 54.5307 81.7812 54.0138C78.0431 53.2097 76.4328 50.1658 76.2027 46.5475C76.2027 46.2029 76.7778 46.2029 76.7778 46.5475C76.8929 48.5577 77.353 50.5104 78.8482 51.9462C80.2285 53.2672 82.2413 53.6118 84.0241 53.7266C86.7271 53.9564 89.43 53.7266 92.133 53.6692C95.2961 53.6118 98.5166 53.4395 101.68 53.382C108.063 53.2672 114.332 53.9564 120.715 54.0138C127.099 54.0712 133.483 53.8415 139.866 53.9564C140.326 53.9564 140.326 54.5307 139.924 54.5307Z" fill="#1F0E03"/>
</g>
<defs>
<clipPath id="clip0_31_16354">
<rect width="499" height="341" fill="white" transform="matrix(-1 0 0 1 499 0.203125)"/>
</clipPath>
<clipPath id="clip1_31_16354">
<rect width="126.51" height="89.2337" fill="white" transform="matrix(-1 0 0 1 146.049 104.309)"/>
</clipPath>
<clipPath id="clip2_31_16354">
<rect width="39" height="52" rx="19.5" transform="matrix(-1 0 0 1 69 115.102)" fill="white"/>
</clipPath>
</defs>
</svg>
