<svg width="41" height="32" viewBox="0 0 41 32" fill="none" xmlns="http://www.w3.org/2000/svg">
<path d="M6.61889 0.720459C6.61781 0.720459 6.6166 0.720459 6.61552 0.720459C6.2372 0.720459 5.88137 0.867934 5.61269 1.13595C5.34104 1.40693 5.19141 1.76774 5.19141 2.15184V23.6152C5.19141 24.4023 5.83424 25.0442 6.62454 25.0462C9.95627 25.0541 15.5382 25.7486 19.389 29.7783V7.31631C19.389 7.0495 19.3209 6.79886 19.1923 6.59145C16.0317 1.50161 9.95816 0.72827 6.61889 0.720459Z" fill="#FFCB05"/>
<path d="M35.8088 23.6151V2.1516C35.8088 1.76749 35.6592 1.40668 35.3875 1.1357C35.1188 0.86769 34.7628 0.720215 34.3848 0.720215C34.3836 0.720215 34.3824 0.720215 34.3813 0.720215C31.0422 0.728161 24.9686 1.5015 21.808 6.59135C21.6793 6.79875 21.6113 7.04939 21.6113 7.3162V29.7781C25.4621 25.7483 31.0441 25.0539 34.3758 25.046C35.166 25.0439 35.8088 24.402 35.8088 23.6151Z" fill="#FFCB05"/>
<path d="M39.0693 5.67017H38.0314V23.6151C38.0314 25.6247 36.3941 27.2634 34.3815 27.2684C31.5555 27.2751 26.8958 27.8277 23.5957 30.9511C29.3032 29.5536 35.3199 30.462 38.7489 31.2435C39.177 31.341 39.6195 31.2402 39.9625 30.9668C40.3043 30.6941 40.5004 30.2864 40.5004 29.8488V7.10128C40.5005 6.31219 39.8584 5.67017 39.0693 5.67017Z" fill="#2F3245"/>
<path d="M2.96896 23.6151V5.67017H1.93112C1.14216 5.67017 0.5 6.31219 0.5 7.10128V29.8484C0.5 30.2861 0.696095 30.6937 1.03791 30.9664C1.38068 31.2397 1.8227 31.3408 2.25152 31.243C5.68049 30.4615 11.6973 29.5532 17.4046 30.9507C14.1046 27.8274 9.44495 27.275 6.61894 27.2682C4.60641 27.2634 2.96896 25.6247 2.96896 23.6151Z" fill="#2F3245"/>
</svg>
