<svg width="47" height="47" viewBox="0 0 47 47" fill="none" xmlns="http://www.w3.org/2000/svg">
<path d="M38.1875 29.9258C38.6942 29.9258 39.1055 29.5145 39.1055 29.0078C39.1055 28.5011 38.6942 28.0898 38.1875 28.0898C37.6808 28.0898 37.2695 28.5011 37.2695 29.0078C37.2695 29.5145 37.6808 29.9258 38.1875 29.9258Z" fill="#00ADEF"/>
<path d="M46.082 45.1641H44.6133V19.8281C44.6133 19.3211 44.2023 18.9102 43.6953 18.9102H38.1875C37.6805 18.9102 37.2695 19.3211 37.2695 19.8281V25.3359C37.2695 25.843 37.6805 26.2539 38.1875 26.2539C38.6945 26.2539 39.1055 25.843 39.1055 25.3359V20.7461H42.7773V45.1641H39.1055V32.6797C39.1055 32.1727 38.6945 31.7617 38.1875 31.7617C37.6805 31.7617 37.2695 32.1727 37.2695 32.6797V45.1641H33.5977V27.1719C33.5977 26.6648 33.1867 26.2539 32.6797 26.2539H27.1719C26.6648 26.2539 26.2539 26.6648 26.2539 27.1719V45.1641H22.582V32.6797C22.582 32.1727 22.1711 31.7617 21.6641 31.7617H16.1562C15.6492 31.7617 15.2383 32.1727 15.2383 32.6797V45.1641H11.5664V36.3516C11.5664 35.8445 11.1555 35.4336 10.6484 35.4336H5.14062C4.63359 35.4336 4.22266 35.8445 4.22266 36.3516V45.1641H1.83594V0.917969C1.83594 0.410934 1.425 0 0.917969 0C0.410934 0 0 0.410934 0 0.917969V46.082C0 46.5891 0.410934 47 0.917969 47H46.082C46.5891 47 47 46.5891 47 46.082C47 45.575 46.5891 45.1641 46.082 45.1641ZM9.73047 45.1641H6.05859V37.2695H9.73047V45.1641ZM20.7461 45.1641H17.0742V33.5977H20.7461V45.1641ZM31.7617 45.1641H28.0898V28.0898H31.7617V45.1641Z" fill="#00ADEF"/>
<path d="M8.62214 28.9881C8.12622 29.0935 7.8096 29.5804 7.91466 30.0767C8.01937 30.5716 8.50596 30.8896 9.00295 30.7842C20.9064 28.2616 30.9417 21.0799 37.2735 11.4154L38.7964 12.4818C39.3547 12.8723 40.1311 12.5392 40.2311 11.8644L41.1344 5.77349C41.1853 5.42961 41.0379 5.08645 40.7528 4.88708C40.4681 4.68771 40.0952 4.66619 39.7893 4.83186L34.3744 7.76362C33.7752 8.08778 33.7261 8.93188 34.2847 9.32309L35.7686 10.3619C29.5457 19.8722 19.6998 26.6408 8.62214 28.9881ZM39.0489 7.32041L38.6329 10.126L36.5549 8.67083L39.0489 7.32041Z" fill="#FFCB05"/>
</svg>
