<svg width="40" height="40" viewBox="0 0 40 40" fill="none" xmlns="http://www.w3.org/2000/svg">
<path d="M37.5704 37.357V18.6108H30.5406V37.357H28.1973V23.2974H21.1675V37.357H18.8243V27.9839H11.7945V37.357H9.45119V32.6705H2.42138V37.357H0V39.7003C0.365784 39.7003 40.6599 39.7003 39.9918 39.7003V37.357H37.5704Z" fill="#FFCB05"/>
<path d="M6.55972 23.4187C10.3904 23.4187 16.0712 22.9416 21.3791 20.6704C26.5462 18.4587 30.1366 14.3694 32.362 11.0319L35.6229 12.5525L33.7488 0.299561L23.1594 6.73894L25.9764 8.0536C21.3436 15.3844 13.53 20.2162 4.83203 21.064L4.93389 23.4015L6.55972 23.4187Z" fill="#2F3245"/>
</svg>
