<svg width="52" height="36" viewBox="0 0 52 36" fill="none" xmlns="http://www.w3.org/2000/svg">
<path d="M26.5925 35.1247C26.0187 35.1247 25.4466 34.9829 24.9404 34.7045L23.8199 34.0987C23.4098 33.8776 23.258 33.3646 23.4807 32.9545C23.7018 32.5445 24.2148 32.3926 24.6248 32.6153L25.7487 33.2228C26.147 33.4405 26.6465 33.4945 27.0852 33.3663C27.34 33.292 27.6843 33.1233 27.8901 32.7487C28.2006 32.1817 28.0893 31.4965 27.8024 31.1624C27.5206 30.8333 27.5341 30.3457 27.8328 30.0318C28.0943 29.7601 28.5365 29.6555 28.8689 29.831L31.3596 31.1354C32.1224 31.5505 33.0741 31.3058 33.4555 30.6072C33.7525 30.0622 33.5973 29.377 33.3576 29.0311L31.0525 27.428C30.6846 27.1715 30.5817 26.672 30.8163 26.2906C31.0508 25.9075 31.5419 25.7776 31.9385 25.9936L36.3243 28.3898C36.731 28.6126 37.1106 28.5738 37.357 28.4995C37.7435 28.3865 38.0826 28.108 38.2851 27.7351C38.6901 26.996 38.4758 26.1826 37.7789 25.8012L34.981 23.9821C34.6064 23.7374 34.4883 23.2447 34.7093 22.8565C34.9304 22.4701 35.4181 22.3199 35.8163 22.519L41.5184 25.349C42.2423 25.7422 43.103 25.457 43.513 24.7111C43.8995 23.9973 43.616 23.0573 42.8886 22.6608C42.4786 22.438 42.3284 21.925 42.5511 21.5167C42.7739 21.1083 43.2886 20.9547 43.6953 21.1792C45.2241 22.0128 45.8181 24.0007 44.9946 25.5194C44.1306 27.0955 42.266 27.6794 40.7405 26.8458L40.1465 26.5522C40.241 27.2221 40.1093 27.919 39.7651 28.5451C39.35 29.3078 38.6446 29.8816 37.8312 30.1195C37.0482 30.349 36.2247 30.2596 35.5126 29.8715L35.2932 29.7533C35.3253 30.3052 35.2223 30.884 34.9321 31.4155C34.112 32.9157 32.1123 33.4709 30.5598 32.6221L29.7531 32.2002C29.7261 32.6693 29.5996 33.1385 29.3701 33.557C28.9955 34.2455 28.3525 34.7517 27.5594 34.9863C27.2438 35.0791 26.9181 35.1247 26.5925 35.1247Z" fill="#FFCB05"/>
<path d="M9.13864 19.8207C9.01039 19.8207 8.88214 19.792 8.75895 19.7296L5.95433 18.3155C5.53752 18.1062 5.37045 17.5983 5.58139 17.1832C5.79064 16.7663 6.29689 16.5959 6.7137 16.8102L9.51833 18.2243C9.93514 18.4336 10.1022 18.9415 9.89127 19.3567C9.74445 19.6503 9.44745 19.8207 9.13864 19.8207Z" fill="#FFCB05"/>
<path d="M15.8751 8.82835C15.8211 8.82835 15.7655 8.82328 15.7098 8.81147L9.98239 7.67916C9.52508 7.58803 9.22808 7.14591 9.3192 6.6886C9.41033 6.23128 9.85414 5.92753 10.3098 6.02541L16.0371 7.15772C16.4945 7.24885 16.7915 7.69097 16.7003 8.14828C16.6227 8.54991 16.27 8.82835 15.8751 8.82835Z" fill="#FFCB05"/>
<path d="M43.27 22.7536C43.1299 22.7536 42.9899 22.7182 42.865 22.649L37.3351 19.6233L29.797 14.9455C29.4005 14.7008 29.2756 14.1828 29.5203 13.7845C29.7633 13.3863 30.283 13.2631 30.6813 13.5078L38.1822 18.1653L42.811 20.6965C43.1013 19.6857 43.0793 18.9415 43.0776 18.9331C43.0625 18.5855 43.2599 18.2648 43.5771 18.1231L45.322 17.3468C45.749 17.1612 46.2485 17.3502 46.4358 17.7755C46.6248 18.2007 46.4341 18.7002 46.0071 18.8892L44.7449 19.4512C44.6976 20.0671 44.5407 21.0982 44.0446 22.2457C43.9501 22.4633 43.7678 22.6321 43.5451 22.708C43.4556 22.7384 43.3628 22.7536 43.27 22.7536Z" fill="#FFCB05"/>
<path d="M19.4307 18.253C18.2444 18.253 17.1003 17.7367 16.1654 16.7697C15.9511 16.547 15.8751 16.2263 15.9663 15.931C16.2531 15.008 16.5636 14.1457 16.8505 13.3475C17.3129 12.0582 17.7145 10.9462 17.8343 10.0872C17.8681 9.84928 17.9997 9.63666 18.1988 9.50334L19.0645 8.91272C21.017 7.56947 24.2856 5.31835 26.0626 4.58597C27.1257 4.14891 32.7451 5.23228 37.271 6.22116C37.3908 6.24647 37.5038 6.29878 37.6 6.37303C37.7924 6.51816 37.9696 6.66835 38.1366 6.82191L41.3716 5.93091C41.8205 5.80603 42.2862 6.07097 42.4094 6.51985C42.5326 6.96872 42.2693 7.43447 41.8205 7.55766L38.1231 8.57691C37.8295 8.6596 37.514 8.57522 37.298 8.35585C37.1208 8.17697 36.9318 7.99978 36.7225 7.82935C32.3485 6.87928 27.4379 6.01191 26.6515 6.16378C25.094 6.81009 21.7932 9.08316 20.0196 10.3032L19.4408 10.6981C19.2569 11.6397 18.8738 12.7062 18.4385 13.9195C18.2123 14.549 17.971 15.2189 17.7381 15.9277C18.4958 16.5385 19.2248 16.606 19.7226 16.5487C20.4668 16.4592 21.1587 16.0087 21.5283 15.3758C21.8185 14.8763 22.21 13.8824 22.4783 12.9577C22.5711 12.637 22.8462 12.4008 23.1786 12.3569C23.695 12.2877 25.7487 11.854 26.9637 11.5655C27.416 11.4524 27.8733 11.7393 27.9796 12.1915C28.0876 12.6455 27.8075 13.0994 27.3535 13.2074C26.4305 13.4268 24.8577 13.7693 23.9431 13.9398C23.6967 14.6992 23.344 15.6138 22.988 16.2247C22.3501 17.3215 21.2043 18.0691 19.9285 18.2243C19.7615 18.2446 19.5961 18.253 19.4307 18.253Z" fill="#00ADEF"/>
<path d="M22.0413 35.0133C21.292 35.0133 20.59 34.7213 20.0635 34.1932L19.5134 33.638C18.9903 33.1098 18.7051 32.4078 18.7068 31.6636C18.7085 30.916 19.0004 30.2174 19.5286 29.6943L20.6406 28.6008C21.6936 27.5579 23.5415 27.5663 24.5843 28.6227L25.1311 29.1712C26.2145 30.268 26.206 32.0382 25.1159 33.1182L24.0038 34.2117C23.4807 34.7264 22.7838 35.0133 22.0413 35.0133ZM22.6032 29.4833C22.3096 29.4833 22.0328 29.5964 21.827 29.8006L20.7166 30.8924C20.5124 31.0949 20.3976 31.3717 20.396 31.667C20.396 31.964 20.5073 32.2407 20.7132 32.4483L21.2616 33.0018C21.6717 33.4152 22.4024 33.4169 22.8192 33.0052L23.9296 31.9133C24.3582 31.4898 24.3599 30.7878 23.9313 30.3558L23.3862 29.809C23.1786 29.5981 22.9019 29.4833 22.6032 29.4833Z" fill="#00ADEF"/>
<path d="M10.3722 24.8984C9.62295 24.8984 8.91927 24.6065 8.39277 24.0766L7.84433 23.5248C6.76095 22.4296 6.76939 20.6611 7.85952 19.5794L8.97158 18.4859C10.0246 17.4447 11.869 17.4498 12.9136 18.5045L13.462 19.058C13.9851 19.5862 14.2703 20.2865 14.267 21.034C14.2636 21.7799 13.97 22.4785 13.4435 23.0017L12.3331 24.0935C11.8116 24.6115 11.1147 24.8984 10.3722 24.8984ZM10.9341 19.3685C10.6405 19.3685 10.3638 19.4815 10.1562 19.6857L9.04583 20.7775C8.6172 21.2028 8.61552 21.9031 9.04245 22.3351L9.5892 22.8852C10.0026 23.302 10.7316 23.3037 11.1468 22.892L12.2588 21.7985C12.4647 21.596 12.5778 21.3209 12.5795 21.0256C12.5811 20.7303 12.4698 20.4535 12.2639 20.246L11.7155 19.6925C11.5096 19.4832 11.2328 19.3685 10.9341 19.3685Z" fill="#00ADEF"/>
<path d="M13.2713 29.3095C12.5204 29.3095 11.8167 29.0176 11.2919 28.4843L10.7435 27.9325C10.2203 27.4077 9.93345 26.7074 9.93514 25.9632C9.93683 25.2157 10.2305 24.5153 10.7603 23.9905L12.9693 21.7985C14.024 20.7522 15.865 20.7607 16.913 21.8153L17.4614 22.3705C17.9845 22.897 18.2697 23.5973 18.2663 24.3432C18.263 25.0908 17.971 25.7894 17.4411 26.3125L15.2339 28.5012C14.7108 29.0227 14.0121 29.3095 13.2713 29.3095ZM14.9318 22.6793C14.6382 22.6793 14.3631 22.7907 14.1573 22.9966L11.9483 25.1887C11.7391 25.3962 11.6243 25.673 11.6226 25.9683C11.6226 26.2619 11.734 26.537 11.9399 26.7428L12.49 27.2963C12.9018 27.7148 13.6308 27.7132 14.0459 27.3031L16.2548 25.1127C16.4641 24.9068 16.5788 24.6301 16.5788 24.3348C16.5805 24.0395 16.4691 23.7644 16.2633 23.5585L15.7148 23.0033C15.5073 22.7958 15.2288 22.6793 14.9318 22.6793Z" fill="#00ADEF"/>
<path d="M17.6571 32.1614C16.9062 32.1614 16.2025 31.8678 15.676 31.3362L15.1293 30.7827C14.6061 30.2579 14.3193 29.5559 14.321 28.8117C14.3226 28.0642 14.6146 27.3655 15.1428 26.8424L16.805 25.2005C17.8596 24.1559 19.7041 24.1643 20.7486 25.2207L21.2954 25.7725C22.3754 26.8627 22.367 28.6312 21.2802 29.7145L19.6197 31.3565C19.0966 31.8745 18.3996 32.1614 17.6571 32.1614ZM18.7675 26.0814C18.4739 26.0814 18.1988 26.1944 17.993 26.3986L16.3308 28.0405C16.1232 28.2464 16.0101 28.5215 16.0085 28.8168C16.0068 29.1121 16.1198 29.3872 16.3257 29.593L16.8758 30.1482C17.2876 30.5667 18.0166 30.5667 18.4317 30.1567L20.0922 28.5147C20.5208 28.0878 20.5242 27.3892 20.0973 26.9572L19.5505 26.4053C19.3446 26.1961 19.0662 26.0814 18.7675 26.0814Z" fill="#00ADEF"/>
<path d="M46.7243 21.8018C46.6028 21.8018 46.4796 21.7748 46.3683 21.7225C46.1624 21.6263 46.0038 21.4508 45.9295 21.2365L40.4823 5.6761C40.3338 5.25085 40.5464 4.78172 40.9649 4.61466L50.1314 0.940972C50.5651 0.768847 51.0545 0.978097 51.2283 1.4101C51.4021 1.8421 51.1911 2.33316 50.7591 2.50697L42.3402 5.88028L47.234 19.8629L50.3001 18.707C50.7372 18.5433 51.2232 18.7627 51.3869 19.1997C51.5523 19.6351 51.3312 20.1228 50.8941 20.2865L47.0196 21.7462C46.9268 21.7833 46.8256 21.8018 46.7243 21.8018Z" fill="#00ADEF"/>
<path d="M4.85408 21.7478C4.76464 21.7478 4.6752 21.7343 4.58577 21.704L1.24958 20.5868C0.807454 20.4383 0.569517 19.9608 0.718017 19.5187C0.866517 19.0765 1.34745 18.8403 1.7862 18.9871L4.33264 19.8393L9.24327 5.81278L1.29852 2.46478C0.868204 2.28422 0.667392 1.78978 0.847954 1.35947C1.0302 0.930845 1.52464 0.733408 1.95327 0.910596L10.627 4.56741C11.0371 4.74122 11.243 5.2036 11.0961 5.62378L5.64889 21.1842C5.52908 21.5302 5.2017 21.7478 4.85408 21.7478Z" fill="#FFCB05"/>
</svg>
