<svg width="360" height="360" viewBox="0 0 360 360" fill="none" xmlns="http://www.w3.org/2000/svg">
<path d="M360 275.328H0V275.508H360V275.328Z" fill="#EBEBEB"/>
<path d="M323.928 286.913H300.082V287.093H323.928V286.913Z" fill="#EBEBEB"/>
<path d="M238.478 288.871H232.221V289.051H238.478V288.871Z" fill="#EBEBEB"/>
<path d="M299.362 280.231H285.545V280.411H299.362V280.231Z" fill="#EBEBEB"/>
<path d="M68.8683 281.441H37.7715V281.621H68.8683V281.441Z" fill="#EBEBEB"/>
<path d="M79.8408 281.441H75.2832V281.621H79.8408V281.441Z" fill="#EBEBEB"/>
<path d="M162.108 284.479H94.6582V284.659H162.108V284.479Z" fill="#EBEBEB"/>
<path d="M170.641 243.216H31.6157C30.5266 243.214 29.4828 242.78 28.7133 242.009C27.9439 241.239 27.5117 240.194 27.5117 239.105V43.6753C27.5212 42.5924 27.9575 41.557 28.726 40.794C29.4944 40.031 30.5328 39.602 31.6157 39.6001H170.641C171.731 39.6001 172.777 40.0332 173.548 40.8042C174.319 41.5752 174.752 42.6209 174.752 43.7113V239.105C174.752 240.195 174.319 241.241 173.548 242.012C172.777 242.783 171.731 243.216 170.641 243.216ZM31.6157 39.7441C30.5743 39.746 29.5763 40.161 28.8406 40.8981C28.1049 41.6351 27.6917 42.6339 27.6917 43.6753V239.105C27.6917 240.146 28.1049 241.145 28.8406 241.882C29.5763 242.619 30.5743 243.034 31.6157 243.036H170.641C171.683 243.034 172.681 242.619 173.418 241.883C174.155 241.146 174.57 240.147 174.572 239.105V43.6753C174.57 42.6333 174.155 41.6345 173.418 40.8976C172.681 40.1608 171.683 39.746 170.641 39.7441H31.6157Z" fill="#EBEBEB"/>
<path d="M279.864 228.154C301.81 228.154 319.601 214.473 319.601 197.597C319.601 180.721 301.81 167.04 279.864 167.04C257.918 167.04 240.127 180.721 240.127 197.597C240.127 214.473 257.918 228.154 279.864 228.154Z" fill="#EBEBEB"/>
<path d="M271.548 189.713C288.898 189.713 302.962 178.895 302.962 165.55C302.962 152.205 288.898 141.387 271.548 141.387C254.199 141.387 240.135 152.205 240.135 165.55C240.135 178.895 254.199 189.713 271.548 189.713Z" fill="#EBEBEB"/>
<path d="M273.952 59.8247C273.952 59.8247 279.143 55.3391 272.404 54.2663C260.164 52.3151 249.098 58.4135 247.694 59.2271C249.134 56.3975 248.111 54.1871 240.731 54.9863C234.921 55.5983 219.318 63.3599 219.318 63.3599H295.581C306.114 53.8919 273.952 59.8247 273.952 59.8247Z" fill="#F0F0F0"/>
<path d="M68.5942 94.0825C68.5942 94.0825 72.871 90.7561 69.2278 89.9641C62.6254 88.5241 54.4606 93.0385 53.3878 93.6361C55.0222 91.5409 55.0078 89.9281 50.5078 90.4969C46.9078 90.9505 35.6758 96.6961 35.6758 96.6961H80.2582C89.035 89.6833 68.5942 94.0825 68.5942 94.0825Z" fill="#F0F0F0"/>
<path d="M305.546 87.4369C305.546 87.4369 308.584 85.0753 305.999 84.5065C301.305 83.4841 295.502 86.6664 294.76 87.12C295.927 85.6296 295.912 84.4849 292.701 84.8881C290.167 85.2121 282.16 89.2944 282.16 89.2944H313.84C320.068 84.312 305.546 87.4369 305.546 87.4369Z" fill="#F5F5F5"/>
<path d="M79.8406 258.444C91.6029 258.444 101.138 251.111 101.138 242.064C101.138 233.018 91.6029 225.684 79.8406 225.684C68.0782 225.684 58.543 233.018 58.543 242.064C58.543 251.111 68.0782 258.444 79.8406 258.444Z" fill="#EBEBEB"/>
<path d="M66.5487 245.729C51.0255 245.729 38.4688 258.977 38.4688 275.328H94.6791C94.6575 258.977 82.0791 245.729 66.5487 245.729Z" fill="#EBEBEB"/>
<path d="M205.632 122.479H80.8125V275.328H205.632V122.479Z" fill="#F0F0F0"/>
<path d="M205.625 275.328H279.188V122.479H205.625V275.328Z" fill="#E6E6E6"/>
<path d="M228.52 190.26H256.305V137.196H228.52V190.26Z" fill="#F5F5F5"/>
<path d="M153.252 162.317H181.037V130.32H153.252V162.317Z" fill="#F5F5F5"/>
<path d="M105.409 162.317H133.193V130.32H105.409V162.317Z" fill="#F5F5F5"/>
<path d="M153.252 174.161H181.037V168.243H153.252V174.161Z" fill="#F5F5F5"/>
<path d="M105.409 174.161H133.193V168.243H105.409V174.161Z" fill="#F5F5F5"/>
<path d="M205.625 275.328H279.188V208.8H205.625V275.328Z" fill="#F5F5F5"/>
<path d="M244.691 251.625H267.926V219.175H244.691V251.625Z" fill="#E6E6E6"/>
<path d="M216.9 251.625H240.135V219.175H216.9V251.625Z" fill="#E6E6E6"/>
<path d="M205.632 208.8H80.8125V275.328H205.632V208.8Z" fill="#FAFAFA"/>
<path d="M128.383 217.44H101.131V271.584H128.383V217.44Z" fill="#E6E6E6"/>
<path d="M216.778 74.8799H143.223L205.632 122.479H279.187L216.778 74.8799Z" fill="#F0F0F0"/>
<path d="M129.535 69.1992H109.059V111.276H129.535V69.1992Z" fill="#EBEBEB"/>
<path d="M143.222 74.8799L80.8125 122.479H205.632L143.222 74.8799Z" fill="#FAFAFA"/>
<path d="M143.222 84.0386L92.8223 122.479H193.622L143.222 84.0386Z" fill="#F0F0F0"/>
<path d="M171.519 182.722H87.0416L68.084 201.679V208.8H190.484V201.679L171.519 182.722Z" fill="#E6E6E6"/>
<path d="M279.195 267.84H68.084V275.328H279.195V267.84Z" fill="#E6E6E6"/>
<path d="M205.632 242.064H121.521V267.84H205.632V242.064Z" fill="#F0F0F0"/>
<path d="M172.08 208.8H167.119V267.84H172.08V208.8Z" fill="#E6E6E6"/>
<path d="M76.8807 208.8H71.9199V267.84H76.8807V208.8Z" fill="#E6E6E6"/>
<path d="M86.8109 283.867C80.0964 283.867 74.6531 272.451 74.6531 258.369C74.6531 244.287 80.0964 232.871 86.8109 232.871C93.5255 232.871 98.9688 244.287 98.9688 258.369C98.9688 272.451 93.5255 283.867 86.8109 283.867Z" fill="#A8A9B4"/>
<path d="M87.9313 300.103C83.0619 270.074 87.8823 240.153 87.9315 239.855L88.8787 240.02C88.8297 240.317 84.037 270.08 88.8789 299.941L87.9313 300.103Z" fill="#595C73"/>
<path d="M97.5136 252.887L97.9668 253.758L86.9729 259.803L86.5197 258.932L97.5136 252.887Z" fill="#595C73"/>
<path d="M75.3687 255.913L86.3613 261.961L85.9079 262.832L74.9152 256.784L75.3687 255.913Z" fill="#595C73"/>
<path d="M64.7559 272.742C51.623 272.742 40.9767 250.414 40.9767 222.871C40.9767 195.328 51.623 173 64.7559 173C77.8888 173 88.5352 195.328 88.5352 222.871C88.5352 250.414 77.8888 272.742 64.7559 272.742Z" fill="#57B894"/>
<path d="M67.4039 304.424C57.8928 245.768 67.308 187.326 67.4042 186.743L68.3513 186.908C68.2554 187.49 58.8679 245.775 68.3516 304.262L67.4039 304.424Z" fill="#595C73"/>
<path d="M85.9101 212.562L86.3633 213.433L64.8599 225.255L64.4067 224.384L85.9101 212.562Z" fill="#595C73"/>
<path d="M42.1638 218.482L63.6641 230.31L63.2106 231.181L41.7104 219.352L42.1638 218.482Z" fill="#595C73"/>
<path d="M179.999 307.843C257.099 307.843 319.6 304.194 319.6 299.693C319.6 295.192 257.099 291.542 179.999 291.542C102.9 291.542 40.3984 295.192 40.3984 299.693C40.3984 304.194 102.9 307.843 179.999 307.843Z" fill="#F5F5F5"/>
<path d="M206.871 166.212H196.855V301.853H206.871V166.212Z" fill="#FFCB05"/>
<path opacity="0.3" d="M206.871 166.212H196.855V301.853H206.871V166.212Z" fill="white"/>
<path d="M216.886 166.212H206.871V301.853H216.886V166.212Z" fill="#FFCB05"/>
<path opacity="0.5" d="M216.886 166.212H206.871V301.853H216.886V166.212Z" fill="white"/>
<path d="M288.59 173.938H210.16V183.477H288.59V173.938Z" fill="#FFCB05"/>
<path opacity="0.3" d="M288.59 173.938H210.16V183.477H288.59V173.938Z" fill="white"/>
<path d="M295.48 173.938H288.59V183.477H295.48V173.938Z" fill="#FFCB05"/>
<path opacity="0.5" d="M295.48 173.938H288.59V183.477H295.48V173.938Z" fill="white"/>
<path d="M282.326 183.478H222.998V240.199H282.326V183.478Z" fill="#FFCB05"/>
<path opacity="0.2" d="M282.326 183.478H280.238V240.199H282.326V183.478Z" fill="black"/>
<path d="M158.214 108.548L157.126 109.988C156.774 110.441 156.407 110.88 156.039 111.32C155.319 112.198 154.556 113.048 153.793 113.897C152.252 115.575 150.654 117.224 148.904 118.793C147.124 120.445 145.226 121.963 143.223 123.336C142.121 124.091 140.971 124.774 139.782 125.381C138.38 126.101 136.895 126.648 135.361 127.008L135.051 127.073C134.784 127.133 134.512 127.169 134.238 127.181C132.748 127.225 131.268 126.919 129.918 126.288C128.994 125.864 128.128 125.324 127.34 124.683C126.146 123.71 125.058 122.614 124.093 121.414C122.469 119.382 121.023 117.214 119.773 114.934C118.578 112.774 117.519 110.571 116.562 108.346C115.591 106.126 114.735 103.857 113.999 101.549C113.777 100.812 113.821 100.021 114.123 99.313C114.424 98.605 114.964 98.0251 115.649 97.6742C116.334 97.3232 117.12 97.2234 117.871 97.392C118.622 97.5606 119.29 97.987 119.759 98.5971L119.823 98.6835C121.155 100.476 122.502 102.356 123.855 104.148C125.209 105.941 126.563 107.748 127.959 109.412C129.25 111.019 130.647 112.536 132.143 113.955C132.711 114.506 133.341 114.99 134.022 115.395C134.267 115.524 134.454 115.575 134.439 115.539C134.425 115.503 134.151 115.323 133.496 115.337L132.373 115.51C132.873 115.264 133.354 114.983 133.813 114.668C134.418 114.25 135.094 113.768 135.764 113.228C136.434 112.688 137.125 112.054 137.802 111.406C138.479 110.758 139.177 110.096 139.861 109.404C141.215 107.964 142.575 106.524 143.9 105.034L145.88 102.759L147.781 100.527L147.961 100.318C149.071 99.0156 150.645 98.1979 152.349 98.0389C154.052 97.8799 155.751 98.3922 157.082 99.4666C158.414 100.541 159.273 102.093 159.478 103.792C159.683 105.49 159.216 107.202 158.178 108.562L158.214 108.548Z" fill="#263238"/>
<path d="M119.607 97.2001C119.197 93.9601 113.314 92.4625 113.314 92.4625L109.88 90.9433C109.317 90.6924 108.683 90.6503 108.092 90.8244C107.501 90.9986 106.991 91.3777 106.654 91.8937L104.905 94.5721C104.72 94.8605 104.594 95.1823 104.534 95.5193C104.474 95.8563 104.481 96.2018 104.555 96.5361C104.629 96.8704 104.767 97.1869 104.963 97.4676C105.159 97.7483 105.408 97.9877 105.697 98.1721L108.85 100.145C109.416 100.494 110.049 100.72 110.708 100.807L113.386 101.153C114.512 101.298 115.655 101.121 116.684 100.642C117.713 100.163 118.584 99.401 119.197 98.4457L119.362 98.1937C119.553 97.8994 119.639 97.5494 119.607 97.2001Z" fill="#FFB573"/>
<path d="M159.718 225.065C169.078 195.35 176.343 159.192 176.343 159.192L148.155 156.42C148.155 156.42 146.304 202.946 144.555 223.553C142.726 244.973 135.576 294.732 135.576 294.732L144.144 295.452C144.144 295.452 158.854 251.669 159.718 225.065Z" fill="#263238"/>
<path d="M165.349 183.471L169.266 190.462C167.265 198.619 164.946 207.591 162.361 216.382C162.721 202.587 164.161 186.675 165.349 183.471Z" fill="black"/>
<path d="M124.094 296.712C124.094 296.712 136.211 295.718 137.37 293.998L143.886 294.984L142.814 301.853L138.796 301.248L138.278 300.528L137.162 301.01C133.922 300.514 125.282 299.088 123.366 298.08C123.356 297.808 123.418 297.538 123.546 297.298C123.673 297.058 123.862 296.855 124.094 296.712Z" fill="#263238"/>
<path d="M187.115 223.085C186.618 192.536 188.555 172.116 185.956 157.061L160.201 156.672C160.201 156.672 166.53 205.143 169.676 225.324C172.823 245.506 176.826 295.344 176.826 295.344H184.789C184.789 295.344 191.716 246.723 187.115 223.085Z" fill="#263238"/>
<path d="M169.02 299.556C169.02 299.556 176.659 296.77 177.66 294.898H184.255L183.758 301.853H178.373L177.789 301.212L176.724 301.853C173.433 301.853 170.417 301.724 168.401 300.982C168.377 300.712 168.422 300.44 168.53 300.191C168.638 299.942 168.806 299.724 169.02 299.556Z" fill="#263238"/>
<path d="M184.811 96.0988C175.703 94.9684 162.685 95.0764 153.959 96.5812C151.779 96.9757 149.778 98.0461 148.241 99.6407C146.703 101.235 145.706 103.273 145.391 105.466C143.555 118.642 145.131 141.675 146.305 164.859C166.235 171.677 187.266 164.765 187.266 164.765C187.986 160.085 186.359 144.764 185.257 136.584C186.906 128.139 190.391 118.462 192.695 107.244C192.978 105.989 192.994 104.688 192.742 103.425C192.491 102.163 191.976 100.968 191.233 99.917C190.49 98.8662 189.534 97.9833 188.428 97.3255C187.321 96.6677 186.089 96.2498 184.811 96.0988Z" fill="#263238"/>
<path d="M161.324 95.6956C160.23 96.7972 159.503 98.5324 159.114 100.736C158.178 106.085 159.236 114.329 162.059 123.776C164.759 116.158 170.569 106.078 174.14 100.224C175.832 97.4524 177.02 95.6164 177.121 95.458C171.914 94.2537 166.492 94.3353 161.324 95.6956Z" fill="#E0E0E0"/>
<path d="M175.796 78.696L165.42 87.2064C166.767 90.7704 167.192 94.4856 161.331 95.9184C159.891 97.8552 162.454 100.073 164.873 101.081C168.783 100.598 174.298 99.2952 176.681 96.0408C175.925 93.4488 174.788 83.9736 175.796 78.696Z" fill="#FFB573"/>
<path d="M162.396 98.9354C162.834 100.179 163.577 101.293 164.556 102.175C166.14 102.175 168.452 100.397 168.452 100.397C168.452 100.397 167.559 97.8842 166.292 97.373C163.088 98.165 162.396 98.9354 162.396 98.9354Z" fill="#FFCB05"/>
<path d="M166.01 101.088C165.765 100.898 165.483 100.761 165.182 100.684C164.881 100.607 164.567 100.593 164.261 100.642C162.187 103.587 160.869 108.166 159.588 113.451C160.203 116.96 161.027 120.429 162.057 123.84C163.212 120.705 164.559 117.644 166.089 114.675C165.498 110.167 165.471 105.603 166.01 101.088Z" fill="#FFCB05"/>
<path opacity="0.2" d="M171.469 82.2458L165.428 87.1994C165.751 88.0258 165.992 88.8819 166.148 89.7554C168.488 89.921 171.742 87.5522 171.908 85.4354C171.959 84.3543 171.81 83.273 171.469 82.2458Z" fill="black"/>
<path d="M161.143 63.8064C156.622 68.2632 159.588 75.3912 159.588 75.3912C159.588 75.3912 167.494 61.2864 161.143 63.8064Z" fill="#263238"/>
<path d="M177.279 72.9001C176.336 79.3801 176.113 83.2609 172.527 86.3137C167.134 90.9073 159.308 87.1705 158.285 80.4961C157.371 74.4841 159.07 64.8577 165.694 62.8417C167.161 62.3957 168.717 62.3293 170.216 62.6488C171.716 62.9682 173.11 63.663 174.267 64.6682C175.425 65.6733 176.309 66.9558 176.835 68.3955C177.362 69.8353 177.515 71.3852 177.279 72.9001Z" fill="#FFB573"/>
<path d="M178.007 76.2337C173.132 77.2345 171.721 73.4618 171.721 73.4618C172.709 73.6671 173.728 73.6671 174.716 73.4618C174.716 73.4618 171.433 70.1066 173.996 66.8594C172.657 65.4194 166.695 66.0386 163.916 66.8594C160.878 65.7146 159.315 65.1817 157.695 61.5745C159.193 61.8338 160.734 61.6434 162.123 61.0274C165.147 59.6378 160.611 58.6154 160.611 58.6154C164.089 57.256 167.857 56.8122 171.555 57.3266C178.611 58.3202 179.706 60.4153 179.432 62.7913C183.126 62.7481 183.493 66.8594 183.493 66.8594C183.044 66.4997 182.516 66.2528 181.952 66.1394C182.161 67.3922 182.881 74.7433 178.007 76.2337Z" fill="#263238"/>
<path d="M178.432 63.2736C179.785 62.6616 180.196 59.4288 179.396 58.0752C183.018 61.92 180.404 63.4896 178.432 63.2736Z" fill="#263238"/>
<path d="M179.483 77.9472C179.181 78.6299 178.747 79.2462 178.206 79.7603C177.665 80.2743 177.027 80.6761 176.329 80.9424C174.45 81.6624 173.327 80.0064 173.694 78.1488C174.025 76.4712 175.401 74.0952 177.359 74.196C177.786 74.2239 178.199 74.3575 178.561 74.5848C178.923 74.8121 179.223 75.1259 179.434 75.4981C179.645 75.8702 179.759 76.2889 179.768 76.7164C179.777 77.144 179.679 77.5669 179.483 77.9472Z" fill="#FFB573"/>
<path d="M168.149 73.1379C168.106 73.6707 167.782 74.0739 167.429 74.0451C167.076 74.0163 166.831 73.5555 166.882 73.0227C166.932 72.4899 167.242 72.0795 167.602 72.1155C167.962 72.1515 168.192 72.6051 168.149 73.1379Z" fill="#263238"/>
<path d="M161.778 72.9794C161.735 73.5122 161.418 73.9226 161.058 73.8866C160.698 73.8506 160.468 73.397 160.511 72.8642C160.554 72.3314 160.871 71.9282 161.231 71.957C161.591 71.9858 161.821 72.4466 161.778 72.9794Z" fill="#263238"/>
<path d="M163.066 73.6992C163.066 73.6992 161.626 76.6584 160.143 78.0192C161.014 78.984 162.648 78.7392 162.648 78.7392L163.066 73.6992Z" fill="#ED893E"/>
<path d="M169.697 71.5394C169.749 71.5504 169.803 71.5504 169.855 71.5394C169.894 71.5243 169.929 71.5017 169.959 71.4727C169.989 71.4438 170.013 71.4091 170.029 71.3708C170.045 71.3325 170.053 71.2914 170.053 71.2498C170.053 71.2083 170.044 71.1672 170.028 71.129C169.849 70.6561 169.56 70.2329 169.184 69.8947C168.808 69.5565 168.357 69.3131 167.868 69.185C167.787 69.17 167.703 69.1872 167.635 69.2329C167.566 69.2786 167.518 69.3492 167.501 69.4298C167.484 69.5119 167.5 69.5974 167.546 69.6675C167.592 69.7377 167.664 69.7868 167.746 69.8042C168.128 69.9115 168.479 70.1087 168.769 70.3792C169.06 70.6497 169.282 70.9858 169.416 71.3594C169.441 71.413 169.48 71.4585 169.53 71.4904C169.58 71.5223 169.638 71.5393 169.697 71.5394Z" fill="#263238"/>
<path d="M158.811 70.9491C158.86 70.9666 158.912 70.9719 158.964 70.9644C159.015 70.9568 159.064 70.9367 159.106 70.9059C159.414 70.6614 159.776 70.494 160.161 70.4176C160.547 70.3412 160.946 70.358 161.323 70.4667C161.362 70.4815 161.404 70.4884 161.445 70.487C161.486 70.4856 161.527 70.4758 161.565 70.4584C161.602 70.4409 161.636 70.4161 161.664 70.3854C161.692 70.3546 161.713 70.3186 161.727 70.2795C161.755 70.2011 161.751 70.1149 161.716 70.0395C161.681 69.9641 161.617 69.9054 161.54 69.8763C161.064 69.7313 160.56 69.7034 160.071 69.7949C159.582 69.8864 159.123 70.0946 158.732 70.4018C158.687 70.4361 158.652 70.4817 158.631 70.5339C158.61 70.586 158.603 70.6429 158.611 70.6987C158.619 70.7544 158.642 70.807 158.677 70.851C158.712 70.895 158.758 70.9289 158.811 70.9491Z" fill="#263238"/>
<path d="M177.12 95.4795C177.012 95.6379 175.831 97.4739 174.139 100.246C172.438 101.819 170.352 102.914 168.091 103.421C168.422 102.305 167.421 98.5251 166.312 97.3587C168.926 97.5099 172.526 97.0635 177.12 95.4795Z" fill="#FAFAFA"/>
<path d="M166.321 97.3728C165.124 97.8978 164.046 98.6596 163.151 99.6124C162.257 100.565 161.564 101.689 161.115 102.917C160.654 102.715 160.24 102.418 159.9 102.046C159.56 101.674 159.302 101.235 159.143 100.757C159.531 98.532 160.259 96.7968 161.353 95.7168C161.936 96.48 163.585 97.2 166.321 97.3728Z" fill="#FAFAFA"/>
<path d="M192.717 102.463C193.25 103.623 193.696 104.623 194.157 105.754C194.618 106.884 195.021 107.914 195.438 109.037C196.245 111.24 197.001 113.472 197.663 115.776C198.361 118.12 198.933 120.499 199.377 122.904C199.607 124.143 199.802 125.424 199.931 126.778C200.069 128.26 200.086 129.75 199.982 131.235C199.665 134.224 198.736 137.116 197.253 139.731C196.019 141.976 194.572 144.098 192.933 146.067C191.389 147.931 189.733 149.698 187.972 151.359C186.228 153.009 184.376 154.541 182.428 155.945C181.8 156.393 181.034 156.606 180.265 156.547C179.496 156.488 178.772 156.161 178.22 155.622C177.667 155.084 177.322 154.368 177.244 153.601C177.165 152.833 177.359 152.062 177.791 151.423L177.899 151.272L179.706 148.615C180.318 147.723 180.902 146.808 181.485 145.901C182.63 144.094 183.746 142.301 184.703 140.458C185.656 138.739 186.477 136.951 187.158 135.108C187.457 134.301 187.698 133.473 187.878 132.631C188.026 131.987 188.087 131.326 188.058 130.666C188.005 129.898 187.897 129.135 187.734 128.383C187.562 127.505 187.353 126.569 187.094 125.611C186.561 123.696 185.927 121.709 185.236 119.715C184.545 117.72 183.796 115.711 183.026 113.703L180.693 107.734L180.635 107.597C180.02 106.005 180.047 104.237 180.712 102.665C181.377 101.093 182.627 99.8419 184.198 99.1752C185.769 98.5086 187.538 98.4789 189.13 99.0925C190.723 99.7061 192.014 100.915 192.731 102.463H192.717Z" fill="#263238"/>
<path d="M154.116 136.39C151.224 138.637 149.276 141.884 148.656 145.494C148.035 149.103 148.786 152.814 150.761 155.898C152.736 158.983 155.792 161.217 159.331 162.164C162.869 163.11 166.633 162.7 169.884 161.014L171.684 163.318L171.352 164.758L175.176 169.675L177.264 169.718L176.695 172.145L184.197 181.793L188.229 181.865L189.583 183.614L188.913 186.494L193.888 192.888L198.108 192.967L198.828 188.438L174.571 157.255C176.844 154.455 178.008 150.917 177.839 147.314C177.67 143.712 176.181 140.297 173.656 137.722C171.131 135.147 167.746 133.592 164.147 133.353C160.549 133.114 156.988 134.207 154.144 136.426L154.116 136.39ZM160.322 144.367C159.739 144.822 159.035 145.094 158.298 145.149C157.56 145.203 156.824 145.038 156.18 144.673C155.537 144.309 155.016 143.762 154.684 143.102C154.352 142.441 154.223 141.697 154.314 140.964C154.404 140.23 154.711 139.54 155.194 138.98C155.677 138.42 156.315 138.017 157.028 137.82C157.74 137.623 158.495 137.642 159.197 137.875C159.899 138.107 160.516 138.542 160.97 139.126C161.579 139.907 161.852 140.898 161.731 141.88C161.609 142.863 161.103 143.758 160.322 144.367Z" fill="#FFCB05"/>
<path d="M183.327 154.527C183.232 154.179 183.014 153.877 182.715 153.677L180.173 151.92C179.929 151.751 179.642 151.654 179.346 151.64C179.049 151.626 178.755 151.696 178.496 151.841L176.213 153.144C173.994 154.4 172.072 156.119 170.576 158.184L170.079 158.904C169.877 159.185 169.734 159.504 169.657 159.841C169.58 160.178 169.571 160.527 169.631 160.868C169.69 161.208 169.818 161.534 170.005 161.824C170.191 162.115 170.435 162.366 170.72 162.562L173.355 164.376C173.863 164.725 174.479 164.882 175.092 164.818C175.706 164.755 176.277 164.476 176.703 164.031L179.281 161.28C179.281 161.28 184.177 157.68 183.327 154.527Z" fill="#FFB573"/>
<path d="M178.64 150.48C177.512 150.957 176.463 151.603 175.529 152.395C175.86 154.419 181.498 157.788 183.399 157.831C184.169 157.111 185.185 154.152 185.185 154.152C183.053 153.231 180.181 151.2 178.64 150.48Z" fill="#E0E0E0"/>
<path d="M120.96 100.08C120.985 98.8631 120.825 97.6492 120.484 96.4803C118.504 95.9475 113.126 99.7203 112.312 101.448C112.665 102.449 114.933 104.573 114.933 104.573C116.64 102.96 119.664 101.16 120.96 100.08Z" fill="#E0E0E0"/>
<path d="M176.357 295.568L185.198 295.82L186.12 290.794L175.773 291.413L176.357 295.568Z" fill="#FFCB05"/>
<path d="M135.158 294.667L144.612 296.129L146.21 291.953L135.734 289.584L135.158 294.667Z" fill="#FFCB05"/>
<path d="M165.111 80.6402C164.769 80.6549 164.427 80.638 164.088 80.5898C164.066 80.5864 164.044 80.5784 164.025 80.5662C164.005 80.554 163.989 80.538 163.976 80.519C163.963 80.5001 163.954 80.4787 163.95 80.4562C163.946 80.4336 163.946 80.4105 163.952 80.3882C163.962 80.34 163.99 80.2972 164.03 80.268C164.069 80.2388 164.118 80.2252 164.168 80.2298C164.93 80.343 165.709 80.282 166.444 80.0513C167.18 79.8206 167.854 79.4262 168.416 78.8978C168.45 78.8644 168.497 78.8457 168.545 78.8457C168.594 78.8457 168.64 78.8644 168.675 78.8978C168.708 78.9315 168.726 78.9767 168.726 79.0238C168.726 79.0709 168.708 79.1162 168.675 79.1498C167.712 80.0708 166.442 80.6019 165.111 80.6402Z" fill="#263238"/>
<path d="M140.335 54.3241L118.555 52.5745L100.058 43.3945L79.7826 49.4569L76.8594 85.8529L137.411 90.7201L140.335 54.3241Z" fill="#FFCB05"/>
<path d="M70.5891 89.3883L61.0059 88.6179L62.2083 73.6707L63.3531 73.7643L62.2443 87.5667L70.6827 88.2435L70.5891 89.3883Z" fill="#FFCB05"/>
<path d="M75.1097 88.3104L75.0176 89.4624L82.5056 90.0614L82.5977 88.9094L75.1097 88.3104Z" fill="#FFCB05"/>
<path d="M80.1681 72.6704L66.4102 71.5635L65.335 84.9267L79.0929 86.0336L80.1681 72.6704Z" fill="#FFCB05"/>
<path opacity="0.2" d="M79.0996 86.0331L91.1668 87.0051L92.6284 68.8035L80.1724 72.6627L79.0996 86.0331Z" fill="black"/>
<path opacity="0.2" d="M140.336 54.3414L118.555 52.5889L115.627 88.9825L137.408 90.735L140.336 54.3414Z" fill="black"/>
<path d="M121.839 45.1441L100.059 43.3945L118.555 52.5745L140.335 54.3241L121.839 45.1441Z" fill="#263238"/>
<path d="M140.336 55.4762H140.242L118.462 53.7266C118.317 53.7112 118.175 53.6697 118.044 53.6042L99.5476 44.4242C99.308 44.3051 99.1172 44.1063 99.0082 43.8619C98.8992 43.6176 98.8786 43.3429 98.95 43.085C99.0236 42.8281 99.1832 42.6042 99.402 42.4509C99.6209 42.2975 99.8858 42.224 100.152 42.2426L121.932 43.9922C122.08 44.0075 122.224 44.0489 122.357 44.1146L140.847 53.2802C141.067 53.4017 141.242 53.592 141.344 53.8221C141.446 54.0522 141.47 54.3094 141.412 54.5544C141.354 54.7993 141.217 55.0185 141.023 55.1785C140.828 55.3384 140.587 55.4304 140.336 55.4402V55.4762ZM118.865 51.4442L134.475 52.7042L121.515 46.2746L105.905 45.0146L118.865 51.4442Z" fill="#263238"/>
<path d="M78.8759 67.7017L92.6279 68.8033L80.1719 72.6625L66.4199 71.5609L78.8759 67.7017Z" fill="#263238"/>
<path d="M80.1721 73.397H80.1145L66.3553 72.2882C66.1863 72.2754 66.0272 72.2034 65.906 72.0849C65.7849 71.9663 65.7094 71.8089 65.6929 71.6402C65.6759 71.4673 65.7219 71.2942 65.8225 71.1526C65.923 71.0111 66.0713 70.9106 66.2401 70.8698L78.6961 67.0033C78.7865 66.9859 78.8794 66.9859 78.9697 67.0033L92.7217 68.1122C92.8909 68.123 93.0508 68.1933 93.1733 68.3105C93.2958 68.4277 93.373 68.5844 93.3913 68.753C93.4119 68.9221 93.3718 69.0931 93.2782 69.2354C93.1846 69.3778 93.0436 69.4824 92.8801 69.5306L80.4241 73.3898C80.3412 73.407 80.2559 73.4094 80.1721 73.397ZM70.2361 71.1362L80.0929 71.9282L88.8121 69.2282L78.9553 68.4362L70.2361 71.1362Z" fill="#263238"/>
<path d="M80.3374 50.6522C80.0646 50.6489 79.8018 50.5489 79.5959 50.3701C79.3899 50.1912 79.2541 49.9451 79.2126 49.6755C79.1711 49.4058 79.2267 49.1302 79.3694 48.8977C79.512 48.6652 79.7326 48.4909 79.9918 48.4058L99.7198 42.293C99.8692 42.213 100.034 42.167 100.204 42.1583C100.373 42.1495 100.542 42.1782 100.699 42.2423C100.856 42.3065 100.997 42.4044 101.111 42.5292C101.226 42.654 101.312 42.8026 101.363 42.9643C101.413 43.126 101.428 43.297 101.405 43.4649C101.382 43.6328 101.322 43.7936 101.23 43.9358C101.137 44.078 101.015 44.1981 100.871 44.2875C100.727 44.3769 100.565 44.4334 100.397 44.453L80.6758 50.5658C80.5681 50.6118 80.4539 50.641 80.3374 50.6522Z" fill="#263238"/>
<path opacity="0.6" d="M107.569 74.1602L99.707 73.5312L98.5625 87.8376L106.425 88.4666L107.569 74.1602Z" fill="white"/>
<path d="M108.303 56.2104L89.873 54.7275L88.9815 65.8085L107.412 67.2914L108.303 56.2104Z" fill="white"/>
<path d="M98.2562 56.1408L90.498 55.5166L89.7243 65.1335L97.4824 65.7577L98.2562 56.1408Z" fill="#FFCB05"/>
<path d="M107.561 56.8923L99.8027 56.2681L99.029 65.885L106.787 66.5092L107.561 56.8923Z" fill="#FFCB05"/>
<path d="M134.498 58.3237L124.199 57.4951L123.308 68.5761L133.606 69.4047L134.498 58.3237Z" fill="white"/>
<path d="M128.85 58.6076L124.516 58.2588L123.742 67.8757L128.077 68.2245L128.85 58.6076Z" fill="#FFCB05"/>
<path d="M134.05 59.0233L129.715 58.6746L128.941 68.2915L133.276 68.6403L134.05 59.0233Z" fill="#FFCB05"/>
<path d="M133.068 76.0298L122.77 75.2012L121.878 86.2822L132.177 87.1108L133.068 76.0298Z" fill="white"/>
<path d="M127.421 76.3141L123.086 75.9653L122.312 85.5823L126.647 85.931L127.421 76.3141Z" fill="#FFCB05"/>
<path d="M133.068 76.9504L128.719 76.6025L127.947 86.2505L132.296 86.5984L133.068 76.9504Z" fill="#FFCB05"/>
</svg>
