<svg width="40" height="40" viewBox="0 0 40 40" fill="none" xmlns="http://www.w3.org/2000/svg">
<path d="M34 14.9375C34 14.4888 33.6326 14.125 33.1795 14.125H32.17C29.3535 8.2328 28.6802 6.71826 28.3587 6.27356C28.3526 6.26511 28.2047 6.00001 27.7671 6.00001C24.5961 6.00011 12.2832 5.99968 12.2202 6.00066C11.9246 6.00488 11.6571 6.15339 11.4899 6.46774L7.82993 14.125H6.82047C6.36735 14.125 6 14.4888 6 14.9375V19H34V14.9375ZM9.64536 14.125L12.2329 8.71158C13.6126 11.551 14.3758 13.1768 14.82 14.125H9.64536ZM13.5289 7.62501H18.7039L16.1164 13.0385L13.5289 7.62501ZM17.4125 14.125L20 8.71158C21.3393 11.5136 22.1131 13.1541 22.5781 14.125H17.4125ZM21.2961 7.62501H26.4711L23.8836 13.0385L21.2961 7.62501ZM25.1796 14.125L27.7671 8.71158L30.3546 14.125H25.1796Z" fill="white"/>
<path d="M29.0836 21.0001V24.9707C28.1364 24.241 27.006 23.6429 25.7422 23.1963V21H24.1016V22.7199C23.0647 22.479 21.9638 22.3296 20.8203 22.2813V21H19.1797V22.2813C18.0362 22.3296 16.9353 22.479 15.8984 22.7199V21H14.2578V23.1963C12.994 23.6428 11.8636 24.241 10.9164 24.9707V21.0001H6V28.4523C8.93798 27.9926 9.34042 29.8546 10.9164 30V27.2237C14.8763 22.8269 25.182 22.8916 29.0836 27.2237V29.9997C30.677 29.8508 31.0369 27.9869 34 28.4536V21.0001H29.0836Z" fill="#00ADEF"/>
<path d="M26.1082 30.5885C24.9046 29.8044 23.8793 29.8033 22.674 30.5885C20.8999 31.7441 19.1 31.7464 17.3227 30.5885C16.1191 29.8044 15.0939 29.8033 13.8886 30.5885C12.1146 31.7442 10.3145 31.7463 8.53728 30.5885C8.02437 30.2544 7.65386 30.0129 6.82031 30.0129C6.54168 30.0129 6.26704 30.0407 6 30.0945V33.2518C6 33.6615 6.3675 33.994 6.82031 33.994C34.8367 33.9721 33.2241 34.0544 33.5259 33.9252C33.8234 33.7981 34 33.5329 34 33.2513L33.9978 30.0946C31.3045 29.5516 29.9404 33.0849 26.1082 30.5885Z" fill="#00ADEF"/>
</svg>
