<svg width="54" height="54" viewBox="0 0 54 54" fill="none" xmlns="http://www.w3.org/2000/svg">
<g clip-path="url(#clip0_1312_75292)">
<path d="M14.0317 20.0814L13.2529 24.4381C13.1775 24.8598 13.2765 25.294 13.527 25.6416C13.7774 25.9891 14.1582 26.2202 14.5822 26.2819L18.9615 26.9202L20.8923 30.9027C21.0792 31.288 21.4144 31.5814 21.8213 31.7152C21.9825 31.7682 22.1493 31.7945 22.3158 31.7945C22.5696 31.7945 22.8223 31.7334 23.0514 31.6131L26.9696 29.5553L30.8723 31.6422C31.1041 31.7661 31.3606 31.8291 31.6183 31.8291C31.7809 31.8291 31.9439 31.8041 32.1016 31.7535C32.5094 31.6226 32.8468 31.3319 33.0367 30.9478L34.9971 26.98L39.3811 26.3743C39.8054 26.3156 40.1879 26.0875 40.4411 25.7419C40.6941 25.3962 40.7962 24.9627 40.7241 24.5404L39.978 20.1781L43.1687 17.1112C43.4777 16.8145 43.6528 16.405 43.6544 15.9765C43.656 15.5481 43.4838 15.1374 43.1772 14.8383L40.0094 11.7476L40.7882 7.39093C40.8636 6.96927 40.7647 6.53495 40.5142 6.18743C40.2637 5.83991 39.883 5.60893 39.459 5.54713L35.0796 4.90873L33.1488 0.926543C32.962 0.541055 32.6267 0.247852 32.2197 0.114012C32.0586 0.0609609 31.8917 0.0346992 31.7253 0.0346992C31.4715 0.0346992 31.2188 0.0957656 30.9896 0.216105L27.0715 2.27391L23.1686 0.186891C22.9369 0.0630703 22.6804 0 22.4226 0C22.2601 0 22.0971 0.0249961 21.9394 0.0756211C21.5314 0.206508 21.194 0.49718 21.0043 0.881297L19.0439 4.84903L14.6598 5.45474C14.2355 5.51338 13.853 5.74151 13.5999 6.08713C13.3468 6.43275 13.2447 6.86633 13.317 7.28863L14.0632 11.6509L10.8724 14.7178C10.5636 15.0146 10.3883 15.4241 10.3867 15.8526C10.3851 16.281 10.5574 16.6917 10.864 16.9908L14.0317 20.0814ZM32.176 21.6856C32.0866 22.3951 31.5136 22.9677 30.8041 23.0574C29.7619 23.1891 28.8853 22.3133 29.0166 21.2718C29.1061 20.5623 29.6792 19.9897 30.3886 19.9001C31.4308 19.7683 32.3075 20.6442 32.176 21.6856ZM21.8932 10.5303C21.9826 9.82083 22.5556 9.24824 23.2651 9.15859C24.3073 9.02686 25.184 9.90267 25.0526 10.9442C24.9631 11.6537 24.39 12.2263 23.6806 12.3159C22.6384 12.4476 21.7617 11.5718 21.8932 10.5303ZM22.1441 20.6134L29.2892 9.85236C29.7724 9.12442 30.7546 8.92635 31.4822 9.4095C32.21 9.89276 32.4084 10.8747 31.925 11.6025L24.78 22.3636C24.4755 22.8224 23.9729 23.0708 23.4606 23.0708C23.16 23.0708 22.8562 22.9851 22.5869 22.8065C21.8591 22.3232 21.6608 21.3414 22.1441 20.6134Z" fill="#FFCB05"/>
<path d="M53.0354 38.1117C51.7652 36.9016 49.7367 37.0162 48.611 38.3618L41.5924 46.7573C41.2728 47.1392 40.8004 47.36 40.3025 47.36H24.3244C23.9899 47.36 23.6741 47.205 23.4675 46.942C22.3716 45.5466 23.3422 43.9966 24.6748 43.9966L37.254 43.9971C38.7907 43.9971 40.0304 42.7387 39.9179 41.206C39.8192 39.8613 38.6968 38.801 37.3269 38.801H29.2356C28.1 38.9303 25.5703 37.4559 24.5528 37.043C22.7152 36.1887 20.7083 35.8535 18.7396 36.0337C16.7162 36.219 14.8122 37.0743 13.2839 38.4131C12.1625 39.3391 10.7566 41.0282 9.10139 40.9273L2.51287 40.8717C1.13956 40.8625 0.0214844 41.9732 0.0214844 43.3465V52.1717C0.0214844 53.1814 0.840027 54 1.84979 54H40.1429C42.3407 54 44.4202 53.0038 45.7977 51.2911L53.2833 42.2433C54.2971 41.0142 54.1889 39.2107 53.0354 38.1117Z" fill="#2F3245"/>
</g>
<defs>
<clipPath id="clip0_1312_75292">
<rect width="54" height="54" fill="white"/>
</clipPath>
</defs>
</svg>
