<svg width="212" height="225" viewBox="0 0 212 225" fill="none" xmlns="http://www.w3.org/2000/svg">
<path d="M123.573 1C179.808 62.0442 211.018 142.007 211 225L44.355 224.965C44.3637 183.809 28.887 144.155 1 113.884L123.573 1Z" fill="#FFD537"/>
<g clip-path="url(#clip0_1_41788)">
<path d="M114.086 140.396C118.166 141.25 122.328 141.043 126.271 139.807L124.306 125.881L115.308 115.072C111.744 117.163 108.795 120.107 106.688 123.705C104.636 127.207 103.487 131.157 103.348 135.17C106.414 137.762 110.113 139.564 114.086 140.396Z" fill="white"/>
<path d="M127.182 124.609L129.17 138.698L134.908 136.154L132.921 122.065L123.817 111.131L118.078 113.674L127.182 124.609Z" fill="white"/>
<path d="M141.746 119.804L136.007 122.348L138.214 137.991L130.116 141.58C124.847 143.915 119.091 144.528 113.472 143.351C109.079 142.431 104.984 140.454 101.567 137.613L95.5404 140.284C100.119 144.831 105.868 147.928 112.234 149.261C119.1 150.698 126.13 149.951 132.563 147.1L144.83 141.663L141.746 119.804Z" fill="white"/>
<path d="M100.343 134.852C100.533 130.413 101.818 126.051 104.087 122.178C106.989 117.224 111.308 113.371 116.578 111.036L124.676 107.447L134.783 119.588L140.522 117.044L126.398 100.079L114.131 105.516C107.698 108.367 102.423 113.074 98.877 119.126C95.589 124.739 94.022 131.078 94.3163 137.524L100.343 134.852Z" fill="white"/>
</g>
<defs>
<clipPath id="clip0_1_41788">
<rect width="50.5409" height="50.5409" fill="white" transform="translate(130.895 95.3212) rotate(66.0955)"/>
</clipPath>
</defs>
</svg>
