<svg width="40" height="40" viewBox="0 0 40 40" fill="none" xmlns="http://www.w3.org/2000/svg">
<path d="M26.1856 2.5H23.4771C22.9634 1.045 21.5767 0 19.9506 0C18.3246 0 16.9379 1.045 16.4217 2.5H13.7157C13.0274 2.5 12.4688 3.06 12.4688 3.75V8.75C12.4688 9.44 13.0274 10 13.7157 10H26.1856C26.8739 10 27.4325 9.44 27.4325 8.75V3.75C27.4325 3.06 26.8739 2.5 26.1856 2.5Z" fill="#2F3245"/>
<path d="M32.4219 5H29.9279V8.75C29.9279 10.8175 28.2495 12.5 26.187 12.5H13.7172C11.6547 12.5 9.97621 10.8175 9.97621 8.75V5H7.48225C6.10807 5 4.98828 6.1225 4.98828 7.5V37.5C4.98828 38.9025 6.08313 40 7.48225 40H32.4219C33.821 40 34.9159 38.9025 34.9159 37.5V7.5C34.9159 6.0975 33.821 5 32.4219 5ZM19.588 27.135L14.6 32.135C14.3556 32.3775 14.0364 32.5 13.7172 32.5C13.3979 32.5 13.0787 32.3775 12.8343 32.135L10.3403 29.635C9.85401 29.1475 9.85401 28.355 10.3403 27.8675C10.8267 27.38 11.6172 27.38 12.1036 27.8675L13.7172 29.4825L17.8222 25.3675C18.3086 24.88 19.0991 24.88 19.5855 25.3675C20.0718 25.855 20.0743 26.645 19.588 27.135ZM19.588 17.135L14.6 22.135C14.3556 22.3775 14.0364 22.5 13.7172 22.5C13.3979 22.5 13.0787 22.3775 12.8343 22.135L10.3403 19.635C9.85401 19.1475 9.85401 18.355 10.3403 17.8675C10.8267 17.38 11.6172 17.38 12.1036 17.8675L13.7172 19.4825L17.8222 15.3675C18.3086 14.88 19.0991 14.88 19.5855 15.3675C20.0718 15.855 20.0743 16.645 19.588 17.135ZM28.681 30H23.693C23.0047 30 22.446 29.44 22.446 28.75C22.446 28.06 23.0047 27.5 23.693 27.5H28.681C29.3693 27.5 29.9279 28.06 29.9279 28.75C29.9279 29.44 29.3693 30 28.681 30ZM28.681 20H23.693C23.0047 20 22.446 19.44 22.446 18.75C22.446 18.06 23.0047 17.5 23.693 17.5H28.681C29.3693 17.5 29.9279 18.06 29.9279 18.75C29.9279 19.44 29.3693 20 28.681 20Z" fill="#FFCB05"/>
</svg>
