<svg width="40" height="34" viewBox="0 0 40 34" fill="none" xmlns="http://www.w3.org/2000/svg">
<g clip-path="url(#clip0_3507_17714)">
<path d="M10.0505 5.75436H7.60547V13.8292C10.2828 13.8292 10.3317 13.7864 10.7413 13.9576V6.42064C10.7413 6.33105 10.7233 6.24236 10.6883 6.15989C10.6533 6.07741 10.6021 6.00285 10.5376 5.94065C10.4731 5.87844 10.3967 5.82989 10.313 5.79788C10.2294 5.76587 10.1401 5.75107 10.0505 5.75436Z" fill="#2F3245"/>
<path d="M10.0505 15.0508H7.60547V19.7515H10.0505C10.2273 19.7515 10.3967 19.6813 10.5217 19.5563C10.6466 19.4313 10.7168 19.2619 10.7168 19.0852V15.7171C10.7168 15.5404 10.6466 15.3709 10.5217 15.2459C10.3967 15.121 10.2273 15.0508 10.0505 15.0508Z" fill="#2F3245"/>
<path d="M0.03125 5.75391H6.36401V21.922H0.03125V5.75391Z" fill="#2F3245"/>
<path d="M20.6515 2.72211C21.7212 2.91772 21.5684 2.90549 29.0931 5.63787C29.2949 5.36842 29.5571 5.15008 29.8586 5.00039C30.1601 4.85069 30.4925 4.77383 30.8292 4.77598C32.8463 4.77598 32.8402 4.77598 33.152 4.82488L34.6802 1.53624C34.7563 1.37303 34.79 1.19323 34.7782 1.01352C34.7663 0.833802 34.7093 0.659986 34.6124 0.508188C34.5154 0.35639 34.3817 0.231524 34.2237 0.145166C34.0656 0.0588073 33.8883 0.0137535 33.7082 0.0141815H31.1531L30.7069 2.99718C30.6826 3.1593 30.5949 3.30512 30.463 3.40256C30.3312 3.5 30.1661 3.54108 30.0039 3.51676C29.8418 3.49244 29.696 3.40472 29.5986 3.27289C29.5011 3.14106 29.46 2.97592 29.4844 2.8138L29.9061 0.0141815H24.857L25.1566 2.02526C25.1687 2.10474 25.1651 2.18584 25.1458 2.26392C25.1266 2.34198 25.0921 2.41549 25.0444 2.48022C24.9967 2.54496 24.9367 2.59964 24.8679 2.64115C24.799 2.68265 24.7226 2.71017 24.6431 2.72211C24.5636 2.73426 24.4825 2.73061 24.4044 2.71136C24.3264 2.69212 24.2529 2.65766 24.1881 2.60996C24.1234 2.56227 24.0687 2.50227 24.0272 2.4334C23.9857 2.36453 23.9582 2.28816 23.9463 2.20864L23.6162 0.00195615H21.0488C20.8687 0.00152814 20.6914 0.0465819 20.5334 0.13294C20.3753 0.219298 20.2416 0.344165 20.1447 0.495963C20.0478 0.647761 19.9907 0.821576 19.9789 1.00129C19.967 1.18101 20.0007 1.36081 20.0769 1.52402L20.6515 2.72211Z" fill="#FFCB05"/>
<path d="M32.7055 9.72737C32.953 9.72577 33.19 9.62672 33.365 9.45167C33.5401 9.27663 33.6391 9.03967 33.6407 8.79212V6.92164C33.6359 6.67622 33.5355 6.44238 33.3608 6.26995C33.1861 6.09753 32.9509 6.00017 32.7055 5.99862C30.8717 5.99862 30.676 5.93749 30.3398 6.14532C30.9663 6.48609 31.4695 7.0156 31.7778 7.65864C32.0862 8.30168 32.184 9.02553 32.0575 9.72737H32.7055Z" fill="#FFCB05"/>
<path d="M13.7889 18.5484C13.6267 18.5582 13.4674 18.5031 13.3459 18.3953C13.2244 18.2876 13.1506 18.136 13.1409 17.9738C13.1312 17.8117 13.1863 17.6524 13.294 17.5309C13.4018 17.4093 13.5534 17.3356 13.7155 17.3259C14.3649 17.2906 15.0096 17.1944 15.641 17.0386C16.7627 16.8367 17.8116 16.3437 18.6827 15.6088C19.5539 14.8739 20.2166 13.923 20.6045 12.8514C20.9266 11.7878 21.0772 10.6798 21.0508 9.56886C26.7906 10.8892 29.0584 11.5555 29.2234 11.2254C29.4586 11.1633 29.6832 11.0665 29.8897 10.9381C30.391 10.4858 30.501 10.4552 30.7027 9.97842C30.8358 9.66451 30.8946 9.32409 30.8745 8.98372C30.8543 8.64335 30.7558 8.31224 30.5866 8.01624C30.0242 7.09322 30.0364 7.28271 21.8576 4.31194C20.6474 3.86874 19.3553 3.69386 18.0708 3.79941C16.7863 3.90495 15.5401 4.2884 14.4185 4.92321L11.9367 6.33524V19.0741C11.938 19.5228 11.7773 19.9568 11.4844 20.2967C12.0277 21.1777 12.7555 21.9305 13.6177 22.5033C13.7601 21.1336 14.049 19.7831 14.4796 18.4751C14.2595 18.524 14.2106 18.5179 13.7889 18.5484Z" fill="#2F3245"/>
<path fill-rule="evenodd" clip-rule="evenodd" d="M40.0067 23.9828C40.0067 30.9574 34.3708 33.109 27.3962 33.109C20.446 33.109 14.7734 30.9574 14.7734 23.9583C14.8051 21.9983 15.1753 20.0585 15.8676 18.2246C17.5679 17.9154 19.1152 17.0442 20.2613 15.7507C21.4074 14.4572 22.0859 12.8163 22.1881 11.0911L27.9158 12.4298C28.605 12.5967 29.3292 12.5438 29.9869 12.2785C30.6446 12.0132 31.2028 11.5489 31.5834 10.9505C31.7507 10.9505 31.9054 10.9527 32.0499 10.9547C32.8451 10.9658 33.3301 10.9726 33.894 10.5898C37.5616 13.8357 40.0067 19.3799 40.0067 23.9828ZM30.6012 18.9693C30.6704 18.9693 30.7274 18.9916 30.7719 19.0361C30.8165 19.0807 30.8388 19.1375 30.8388 19.2069V19.9642C30.8388 20.0334 30.8165 20.0904 30.7719 20.1348C30.7274 20.1794 30.6704 20.2016 30.6012 20.2016H29.354C29.2401 20.9143 28.9209 21.4934 28.3964 21.9388C27.8717 22.3842 27.1887 22.6564 26.3473 22.7554C27.1739 23.6363 28.3098 24.9627 29.7548 26.7346C29.8243 26.8138 29.834 26.8979 29.7845 26.987C29.745 27.0763 29.6732 27.1207 29.5692 27.1207H28.1216C28.0424 27.1207 27.9805 27.0911 27.936 27.0316C26.4215 25.2151 25.1891 23.8022 24.2389 22.7926C24.1943 22.7481 24.1721 22.6937 24.1721 22.6292V21.6863C24.1721 21.622 24.1956 21.5663 24.2426 21.5193C24.2896 21.4723 24.3453 21.4488 24.4096 21.4488H25.2411C25.8945 21.4488 26.4202 21.3424 26.8187 21.1295C27.2171 20.9167 27.4708 20.6074 27.5797 20.2014H24.4096C24.3404 20.2014 24.2835 20.1793 24.2389 20.1347C24.1943 20.0902 24.1721 20.0333 24.1721 19.964V19.2067C24.1721 19.1374 24.1944 19.0806 24.2389 19.036C24.2834 18.9914 24.3403 18.9692 24.4096 18.9692H27.4756C27.1936 18.4099 26.5303 18.1303 25.4861 18.1303H24.4096C24.3453 18.1303 24.2896 18.1068 24.2426 18.0598C24.1956 18.0128 24.1721 17.9571 24.1721 17.8928V16.9054C24.1721 16.8361 24.1944 16.7793 24.2389 16.7347C24.2835 16.6902 24.3403 16.6679 24.4096 16.6679H30.5862C30.6556 16.6679 30.7124 16.6902 30.7571 16.7347C30.8015 16.7793 30.8237 16.8361 30.8237 16.9055V17.6629C30.8237 17.7321 30.8014 17.7891 30.7571 17.8336C30.7125 17.8781 30.6557 17.9003 30.5863 17.9003H28.8566C29.0892 18.2022 29.2476 18.5587 29.3318 18.9693H30.6012Z" fill="#FFCB05"/>
</g>
<defs>
<clipPath id="clip0_3507_17714">
<rect width="40" height="33.1232" fill="white"/>
</clipPath>
</defs>
</svg>
