<svg width="40" height="40" viewBox="0 0 40 40" fill="none" xmlns="http://www.w3.org/2000/svg">
<path d="M20.982 0C18.4198 0 16.2588 2.18038 16.2588 4.76561C16.2588 7.35083 18.4198 9.53122 20.982 9.53122C23.5442 9.53122 25.6277 7.35083 25.6277 4.76561C25.6277 2.18038 23.5442 0 20.982 0Z" fill="#2F3245"/>
<path d="M26.1383 9.53101C24.8619 10.959 23.0337 11.8747 20.9822 11.8747C18.9306 11.8747 17.025 10.959 15.7486 9.53101C14.6343 10.7778 13.9362 12.4112 13.9362 14.2185V15.3904C13.9362 16.0381 14.4556 16.5622 15.0976 16.5622H26.7894C27.4313 16.5622 27.9508 16.0381 27.9508 15.3904V14.2185C27.9508 12.4112 27.2527 10.7778 26.1383 9.53101Z" fill="#2F3245"/>
<path d="M11.2211 35.969L5.30238 23.996C4.73087 22.8398 3.33994 22.3683 2.19268 22.9419L0.645725 23.7151C0.0697314 24.0033 -0.164646 24.7096 0.122848 25.2897L7.09145 39.3522C7.37801 39.9321 8.07511 40.1629 8.64645 39.8786L10.1735 39.1152C11.3253 38.5396 11.7947 37.1295 11.2211 35.969Z" fill="#FFCB05"/>
<path d="M38.6927 19.3515C37.7403 18.6484 36.4162 18.789 35.6266 19.6562L29.2774 27.5312C28.836 27.9999 27.9998 28.2812 27.5585 28.2812H22.1461C21.4956 28.2812 20.9847 27.7656 20.9847 27.1093C20.9847 26.453 21.4956 25.9374 22.1461 25.9374C23.7016 25.9374 25.4238 25.9374 26.7918 25.9374C28.0694 25.9374 29.1147 24.8828 29.1147 23.5937C29.1147 22.3046 28.0694 21.25 26.7918 21.25C21.3373 21.25 26.5402 21.25 20.7059 21.25C20.1271 21.25 19.8384 20.8796 19.3819 20.4764C17.5848 18.8448 14.895 18.0587 12.1718 18.6956C10.6598 19.0492 9.6401 19.6655 8.60595 20.4919L8.5715 20.4637L6.8916 21.9554L13.4935 35.3124H15.4484H26.7918C28.9753 35.3124 31.066 34.2577 32.3668 32.4999L39.1805 22.6562C39.947 21.6249 39.7379 20.125 38.6927 19.3515Z" fill="#FFCB05"/>
</svg>
