<svg width="40" height="40" viewBox="0 0 40 40" fill="none" xmlns="http://www.w3.org/2000/svg">
<path d="M7.67361 31.3034H14.4666V6.38843H21.749C22.8278 6.38843 23.8748 6.52671 24.8735 6.78612V4.62136L14.9468 0L4.99591 4.6205V31.8965C5.81042 31.5168 6.7173 31.3034 7.67361 31.3034ZM10.872 26.6644H8.52158V20.7304H10.872V26.6644ZM10.872 14.8242H8.52158V8.89016H10.872V14.8242Z" fill="#FFCB05"/>
<path d="M32.2473 33.6533H7.67361C5.45917 33.6533 3.66406 35.4484 3.66406 37.6629V39.9995H36.2569V37.6629C36.2569 35.4484 34.4617 33.6533 32.2473 33.6533Z" fill="#2F3245"/>
<path d="M30.7584 14.2955C29.0965 11.0023 25.682 8.73828 21.7483 8.73828H16.8164V14.2955H30.7584Z" fill="#FFCB05"/>
<path d="M31.5965 16.6465H16.8164V31.3033H21.9947C21.1118 30.1571 20.7022 28.781 20.8087 27.2772C20.8997 25.9923 21.5148 24.7018 21.5645 24.6003C21.666 24.5507 22.9565 23.9356 24.2414 23.8446C25.5009 23.7552 26.6713 24.0287 27.6923 24.6385C27.9543 24.2611 28.2549 23.9016 28.5939 23.5627C29.533 22.6236 30.6283 21.9767 31.8342 21.6389V18.8246C31.8341 18.0769 31.7517 17.3482 31.5965 16.6465Z" fill="#FFCB05"/>
<path d="M24.1953 30.2531C25.027 31.0848 25.9705 31.3093 26.7578 31.3043C26.6128 30.8087 26.4716 30.1659 26.4194 29.4278C26.3538 28.5017 26.4427 27.6136 26.6797 26.7788C25.4103 25.9126 24.0219 26.1765 23.3542 26.3874C23.1129 27.1514 22.8019 28.8596 24.1953 30.2531Z" fill="#2F3245"/>
<path d="M30.2546 25.2242C28.8039 26.6749 28.6407 28.3619 28.7913 29.5947L32.0396 26.3464L33.7016 28.0084L30.4494 31.2605C31.6809 31.4131 33.367 31.2502 34.8239 29.7934C36.9448 27.6724 36.3141 25.0456 35.9736 24.073C34.9934 23.727 32.3799 23.0987 30.2546 25.2242Z" fill="#2F3245"/>
</svg>
