<svg width="40" height="40" viewBox="0 0 40 40" fill="none" xmlns="http://www.w3.org/2000/svg">
<path d="M34.9719 15.0856L33.275 8.29437C33.0669 7.46 32.3169 6.875 31.4562 6.875H8.54562C7.685 6.875 6.935 7.46 6.725 8.29437L5.02812 15.0856C5.00937 15.1588 5 15.2356 5 15.3125C5 17.8962 6.99688 20 9.45312 20C10.88 20 12.1531 19.2894 12.9688 18.1869C13.7844 19.2894 15.0575 20 16.4844 20C17.9113 20 19.1844 19.2894 20 18.1869C20.8156 19.2894 22.0869 20 23.5156 20C24.9444 20 26.2156 19.2894 27.0312 18.1869C27.8469 19.2894 29.1181 20 30.5469 20C33.0031 20 35 17.8962 35 15.3125C35 15.2356 34.9906 15.1588 34.9719 15.0856Z" fill="#00ADEF"/>
<path d="M30.5469 21.8759C29.27 21.8759 28.0569 21.4859 27.0312 20.7734C24.98 22.2003 22.0512 22.2003 20 20.7734C17.9488 22.2003 15.02 22.2003 12.9688 20.7734C11.9431 21.4859 10.73 21.8759 9.45312 21.8759C8.5325 21.8759 7.66438 21.6603 6.875 21.2928V31.2509C6.875 32.2859 7.715 33.1259 8.75 33.1259H16.25V25.6259H23.75V33.1259H31.25C32.285 33.1259 33.125 32.2859 33.125 31.2509V21.2928C32.3356 21.6603 31.4675 21.8759 30.5469 21.8759Z" fill="white"/>
</svg>
