<svg width="560" height="349" viewBox="0 0 560 349" fill="none" xmlns="http://www.w3.org/2000/svg">
<rect width="560" height="349" rx="16" fill="white"/>
<path d="M484 288.514H71V288.721H484V288.514Z" fill="#EBEBEB"/>
<path d="M484 288.514H71V288.721H484V288.514Z" fill="#EBEBEB"/>
<path d="M442.617 301.83H415.26V302.037H442.617V301.83Z" fill="#EBEBEB"/>
<path d="M344.587 304.082H337.409V304.289H344.587V304.082Z" fill="#EBEBEB"/>
<path d="M414.434 294.15H398.583V294.357H414.434V294.15Z" fill="#EBEBEB"/>
<path d="M150.007 295.541H114.332V295.748H150.007V295.541Z" fill="#EBEBEB"/>
<path d="M256.974 299.033H179.595V299.24H256.974V299.033Z" fill="#EBEBEB"/>
<path d="M198.509 103.34C208.661 103.34 237.141 107.478 237.141 92.1741C237.141 79.1543 223.223 80.1144 223.223 80.1144C223.223 80.1144 223.62 68.8328 211.222 67.3264C198.509 65.7869 196.552 77.9458 196.552 77.9458C196.552 77.9458 174.481 70.182 177.835 89.6661C177.835 89.6661 165.602 87.5058 165.602 96.2877C165.635 106.088 188.672 103.315 198.509 103.34Z" fill="#F0F0F0"/>
<path d="M185.715 219.243C206.365 219.301 264.119 228.787 264.119 193.684C264.119 163.887 235.878 166.047 235.878 166.047C235.878 166.047 236.704 140.198 211.528 136.763C185.715 133.237 181.792 161.164 181.792 161.164C181.792 161.164 136.981 143.385 143.796 188.006C143.796 188.006 118.958 183.04 118.958 203.136C118.991 225.584 165.743 219.186 185.715 219.243Z" fill="#F5F5F5"/>
<path d="M262.706 222.346C251.307 222.346 219.333 227.627 219.333 208.209C219.333 191.705 234.961 192.922 234.961 192.922C234.961 192.922 234.507 178.619 248.433 176.723C262.706 174.77 264.862 190.223 264.862 190.223C264.862 190.223 289.642 180.382 285.884 205.072C285.884 205.072 299.62 202.324 299.62 213.44C299.62 225.856 273.758 222.313 262.706 222.346Z" fill="#F0F0F0"/>
<path d="M326.358 140.984C337.732 140.984 369.624 145.38 369.624 129.206C369.624 115.466 354.037 116.476 354.037 116.476C354.037 116.476 354.484 104.566 340.598 102.985C326.358 101.329 324.202 114.225 324.202 114.225C324.202 114.225 299.48 106.031 303.247 126.591C303.247 126.591 289.535 124.306 289.535 133.56C289.535 143.906 315.339 140.96 326.358 140.984Z" fill="#F0F0F0"/>
<path d="M292.442 288.414L309.061 180.44L358.489 117.907L375.34 46.7246C375.34 46.7246 416.194 86.2722 417.325 87.282C418.457 88.2918 427.452 195.082 428.699 196.713C429.947 198.343 441.684 217 441.684 217L447.144 288.132L292.442 288.414Z" fill="#FAFAFA"/>
<path d="M292.442 288.414L316.132 195.115L349.692 163.05L355.978 203.632L364.437 157.471L374.035 173.206L371.945 118.95L373.613 101.585L379.247 113.115L375.34 46.6914L403.82 47.3453L409.751 78.6987L417.325 87.2819L428.699 196.712L441.684 216.958L447.144 288.091L292.442 288.414Z" fill="#EBEBEB"/>
<path d="M376.083 47.0469L392.999 101.899L403.085 109.927C403.085 109.927 408.396 132.217 408.338 130.794C408.28 129.37 407.727 104.39 407.727 104.39L410.337 84.0121L403.729 47.709L376.083 47.0469Z" fill="#F5F5F5"/>
<path d="M428.699 196.713L432.647 215.154L441.684 216.959L428.699 196.713Z" fill="#F5F5F5"/>
<path d="M162.596 295.541H157.367V295.748H162.596V295.541Z" fill="#EBEBEB"/>
<path d="M279.268 325.438C367.719 325.438 439.422 321.244 439.422 316.069C439.422 310.894 367.719 306.699 279.268 306.699C190.818 306.699 119.115 310.894 119.115 316.069C119.115 321.244 190.818 325.438 279.268 325.438Z" fill="#F5F5F5"/>
<path d="M404.168 50.6974C404.168 54.5368 402.646 58.219 399.936 60.9339C397.227 63.6487 393.552 65.1739 389.721 65.1739C389.399 65.1739 389.077 65.1739 388.754 65.1739C385.1 64.9259 381.677 63.2963 379.176 60.615C376.675 57.9336 375.284 54.4005 375.284 50.7305C375.284 47.0605 376.675 43.5275 379.176 40.8461C381.677 38.1647 385.1 36.5352 388.754 36.2871C389.077 36.2871 389.399 36.2871 389.721 36.2871C393.541 36.2871 397.206 37.8032 399.913 40.5037C402.62 43.2043 404.15 46.8695 404.168 50.6974Z" fill="#00ADEF"/>
<path opacity="0.2" d="M402.227 50.6973C402.05 53.3289 401.109 55.8512 399.52 57.9542C397.932 60.0573 395.765 61.6493 393.285 62.5346C390.806 63.4199 388.122 63.56 385.565 62.9375C383.007 62.3149 380.686 60.957 378.889 59.0307C377.091 57.1044 375.894 54.6935 375.445 52.0947C374.996 49.4958 375.315 46.8221 376.362 44.4023C377.409 41.9826 379.139 39.9222 381.34 38.4745C383.54 37.0269 386.114 36.255 388.746 36.2539C392.402 36.4995 395.828 38.128 398.331 40.8096C400.834 43.4912 402.227 47.0257 402.227 50.6973Z" fill="white"/>
<path opacity="0.4" d="M398.704 54.8444C400.988 49.3204 398.37 42.9873 392.857 40.6991C387.344 38.411 381.024 41.0342 378.741 46.5583C376.458 52.0824 379.075 58.4155 384.588 60.7036C390.101 62.9918 396.421 60.3685 398.704 54.8444Z" fill="white"/>
<g clip-path="url(#clip0_2080_98528)">
<path d="M387.981 56.0117H385.503C384.59 56.0117 383.851 56.7529 383.851 57.6671V58.081H389.633V57.6671C389.633 56.7529 388.893 56.0117 387.981 56.0117Z" fill="white"/>
<path d="M393.022 47.3595L394.926 44.9746C394.465 44.9188 390.807 43.9437 387.155 44.7287V44.0098H386.329V54.0131C385.848 54.1836 385.503 54.6432 385.503 55.1838H387.981C387.981 54.6432 387.636 54.1836 387.155 54.0131V50.5532C391.377 49.6982 394.427 50.7486 394.998 50.8245L393.022 47.3595Z" fill="white"/>
</g>
<path d="M151.424 304.286C165.355 291.367 166.078 270.969 162.966 253.166C162.45 250.201 162.336 247.003 160.543 244.586C158.751 242.168 155.168 240.853 152.657 242.497C150.578 243.877 149.961 246.578 149.012 248.885C147.743 251.966 145.627 254.632 142.906 256.575C141.139 257.864 138.84 258.778 136.817 258.008C134.032 256.96 133.232 253.446 132.83 250.471C132.09 244.908 131.354 239.377 130.622 233.879C130.221 230.88 129.82 227.882 128.49 225.191C127.159 222.5 124.75 220.175 121.803 219.789C118.856 219.403 115.567 221.53 115.373 224.529C115.293 225.775 115.714 226.992 115.805 228.235C115.897 229.477 115.508 230.929 114.377 231.435C113.245 231.941 111.92 231.281 110.909 230.546C107.406 227.984 104.773 224.416 102.283 220.854C99.7921 217.292 97.344 213.631 94.0974 210.763C90.8509 207.894 86.6034 205.82 82.2763 206.191C77.9492 206.562 73.7751 209.832 73.2829 214.163C72.7907 218.495 75.8279 222.405 78.9732 225.412C83.6505 229.874 88.9552 233.635 94.7222 236.58C95.7515 237.107 96.8738 237.686 97.3857 238.729C98.3132 240.618 96.6919 242.823 94.8221 243.784C92.7053 244.84 90.2556 244.956 87.9682 245.555C85.6808 246.154 83.2997 247.543 82.7209 249.859C81.9204 253.065 84.9189 255.889 87.7176 257.61C93.3286 261.066 99.4979 263.536 105.957 264.912C108.267 265.397 110.676 265.767 112.659 267.047C114.641 268.327 116.103 270.847 115.315 273.092C114.528 275.336 111.886 276.419 109.524 276.323C107.162 276.227 104.94 275.312 102.629 274.766C98.3043 273.812 93.0486 274.849 90.9134 278.752C89.505 281.316 89.8069 284.569 91.0664 287.202C92.3259 289.836 94.4305 291.976 96.6207 293.897C104.265 300.641 113.546 305.612 123.525 307.539C133.503 309.466 142.44 309.078 151.43 304.307" fill="#57B993"/>
<path d="M152.095 313.602C150.453 306.612 148.634 302.437 144.732 293.79C140.406 284.468 135.556 275.401 130.205 266.632C128.792 264.301 127.403 261.994 126.035 259.712C124.658 257.449 123.299 255.195 121.812 253.088C118.983 249.028 115.937 245.125 112.688 241.397C109.605 237.821 106.554 234.547 103.662 231.499C100.77 228.452 98.0337 225.678 95.4344 223.247C91.3415 219.39 86.9528 215.865 82.3094 212.705C80.6738 211.582 79.3718 210.76 78.503 210.209L77.4913 209.591C77.3787 209.516 77.2594 209.451 77.1348 209.398C77.235 209.489 77.3435 209.57 77.4589 209.639L78.4239 210.31C79.2917 210.884 80.5736 211.743 82.1919 212.886C86.7746 216.105 91.1126 219.664 95.1696 223.533C97.7495 225.978 100.468 228.773 103.33 231.821C106.192 234.87 109.225 238.165 112.286 241.747C115.533 245.458 118.573 249.347 121.392 253.396C122.848 255.505 124.186 257.741 125.598 259.963C127.01 262.186 128.355 264.552 129.76 266.885C135.107 275.63 139.962 284.67 144.302 293.961C148.215 302.566 150.06 306.695 151.745 313.648" fill="#254D3D"/>
<path d="M122.299 253.035C122.368 252.605 122.393 252.166 122.374 251.725C122.39 250.881 122.383 249.658 122.349 248.145C122.284 245.126 122.059 240.952 121.825 236.349C121.591 231.746 121.396 227.578 121.377 224.57C121.359 223.06 121.361 221.843 121.369 221C121.402 220.564 121.389 220.123 121.328 219.685C121.23 220.106 121.176 220.541 121.169 220.979C121.093 221.786 121.045 223.041 121.019 224.547C120.946 227.56 121.052 231.744 121.315 236.347L121.984 248.149C122.061 249.563 122.126 250.761 122.172 251.721C122.17 252.16 122.212 252.601 122.299 253.035Z" fill="#254D3D"/>
<path d="M82.4297 251.107C82.9547 251.142 83.4813 251.132 84.0041 251.078C85.018 251.025 86.4762 250.949 88.2847 250.908C91.8934 250.796 96.8893 250.828 102.399 251.106C107.908 251.383 112.905 251.857 116.478 252.309C118.28 252.519 119.761 252.716 120.731 252.869C121.248 252.972 121.773 253.027 122.298 253.034C121.801 252.868 121.289 252.747 120.77 252.674C119.778 252.471 118.33 252.199 116.535 251.931C112.937 251.366 107.952 250.849 102.424 250.561C97.7054 250.286 92.9773 250.262 88.2594 250.49C86.449 250.58 84.986 250.722 83.9818 250.835C83.4571 250.878 82.9376 250.969 82.4297 251.107Z" fill="#254D3D"/>
<path d="M144.295 292.797C144.295 292.797 144.376 292.625 144.487 292.289L144.94 290.815C145.339 289.528 145.825 287.661 146.443 285.343C147.638 280.702 149.096 274.244 150.6 267.094C152.104 259.943 153.504 253.47 154.573 248.819L155.888 243.308L156.227 241.813C156.276 241.639 156.305 241.461 156.312 241.28C156.312 241.28 156.229 241.445 156.118 241.782L155.671 243.223C155.272 244.51 154.779 246.378 154.17 248.702C152.972 253.335 151.517 259.8 150.013 266.951C148.508 274.102 147.114 280.565 146.037 285.218C145.489 287.485 145.048 289.346 144.715 290.731C144.581 291.332 144.462 291.827 144.377 292.227C144.323 292.412 144.295 292.604 144.295 292.797Z" fill="#254D3D"/>
<path d="M91.8789 283.928C92.0478 284.001 92.2276 284.047 92.4115 284.064L93.933 284.343L99.5507 285.302C104.292 286.11 110.827 287.308 118.046 288.638C125.266 289.967 131.859 291.103 136.583 291.824C138.996 292.173 140.888 292.452 142.208 292.621L143.754 292.77C143.932 292.802 144.114 292.811 144.294 292.797C144.126 292.728 143.949 292.681 143.769 292.659L142.242 292.389L136.629 291.421C131.888 290.613 125.353 289.415 118.134 288.085C110.914 286.756 104.35 285.642 99.5823 284.903C97.1694 284.554 95.2778 284.275 93.9575 284.106L92.4197 283.932C92.2405 283.907 92.0587 283.906 91.8789 283.928Z" fill="#254D3D"/>
<path d="M317.859 183.652H268.984V316.11H317.859V183.652Z" fill="#FFCB05"/>
<path opacity="0.2" d="M282.787 183.52H268.977V316.134H282.787V183.52Z" fill="black"/>
<path d="M268.926 236.625H220.052V316.109H268.926V236.625Z" fill="#FFCB05"/>
<path opacity="0.2" d="M234.738 236.625H220.052V316.027H234.738V236.625Z" fill="black"/>
<path d="M220.011 253.502H171.137V316.109H220.011V253.502Z" fill="#FFCB05"/>
<path opacity="0.2" d="M185.674 253.502H171.137V316.026H185.674V253.502Z" fill="black"/>
<path d="M171.121 270.379H122.246V316.109H171.121V270.379Z" fill="#FFCB05"/>
<path opacity="0.2" d="M136.065 270.338H122.254V316.027H136.065V270.338Z" fill="black"/>
<path d="M255.132 81.3213C252.811 84.1355 250.415 86.8917 248.028 89.5983L246.219 91.651L244.567 93.4637C243.889 94.2784 243.454 95.2681 243.312 96.3192L242.767 101.666C242.585 103.479 242.403 105.292 242.197 107.096C241.792 110.721 241.371 114.347 240.892 117.964C240.815 118.535 240.528 119.056 240.089 119.427C239.649 119.798 239.087 119.991 238.512 119.97C237.938 119.948 237.392 119.713 236.981 119.31C236.571 118.907 236.325 118.365 236.291 117.79C236.084 114.148 235.944 110.506 235.82 106.872C235.746 105.052 235.713 103.231 235.663 101.418L235.539 95.864C235.6 93.266 236.412 90.7416 237.877 88.5968L239.669 86.1716L241.321 84.003C243.51 81.1226 245.707 78.2091 247.929 75.428C248.696 74.4709 249.811 73.8582 251.028 73.7247C252.246 73.5912 253.466 73.9479 254.421 74.7162C255.377 75.4845 255.988 76.6016 256.121 77.8217C256.254 79.0417 255.899 80.2648 255.132 81.222V81.3213Z" fill="#00ADEF"/>
<path d="M235.746 118.246L232.723 123.386L239.678 124.09L240.9 118.875C240.935 118.729 240.94 118.577 240.914 118.428C240.889 118.28 240.833 118.138 240.752 118.012C240.67 117.886 240.563 117.778 240.438 117.694C240.313 117.611 240.172 117.553 240.025 117.526C239.299 117.357 238.548 117.333 237.813 117.457C237.079 117.58 236.376 117.849 235.746 118.246Z" fill="#CB7A63"/>
<path d="M232.723 123.387L233.045 125.199C233.119 125.634 233.345 126.028 233.682 126.312C234.02 126.595 234.447 126.75 234.887 126.747H237.15C237.489 126.746 237.822 126.653 238.112 126.478C238.403 126.303 238.641 126.053 238.802 125.754L239.686 124.099L232.723 123.387Z" fill="#CB7A63"/>
<path d="M235.25 114.396L241.941 114.628L241.511 118.634L235.861 118.196L235.25 114.396Z" fill="#00ADEF"/>
<path opacity="0.3" d="M235.25 114.396L241.941 114.628L241.511 118.634L235.861 118.196L235.25 114.396Z" fill="white"/>
<path d="M241.982 156.444L240.883 158.099L240.057 156.386L242.065 130.396C242.378 126.257 240.991 122.872 235.861 122.748C231.062 122.632 228.155 125.918 227.816 130.04L225.718 155.98L224.57 157.636L223.785 155.93L225.9 129.999C226.288 125.206 228.378 121.357 235.96 121.539C243.543 121.722 244.361 125.678 243.989 130.454L241.982 156.444Z" fill="#263238"/>
<path d="M220.737 138.914H219.415C218.08 138.907 216.787 139.39 215.782 140.271C214.776 141.152 214.127 142.371 213.956 143.698L211.478 162.421L220.084 162.727L220.737 138.914Z" fill="#263238"/>
<path opacity="0.2" d="M220.737 138.914H219.415C218.08 138.907 216.787 139.39 215.782 140.271C214.776 141.152 214.127 142.371 213.956 143.698L211.478 162.421L220.084 162.727L220.737 138.914Z" fill="white"/>
<path d="M245.038 156.66L243.096 156.611L243.286 130.621C243.286 126.482 241.684 123.097 236.546 122.965C231.739 122.849 229.063 126.135 229.013 130.257L228.765 156.205L226.824 156.147L227.13 130.215C227.188 125.415 229.046 121.574 236.604 121.756C244.162 121.938 245.285 125.895 245.252 130.671L245.038 156.66Z" fill="#263238"/>
<path d="M254.157 163.736L215.913 162.594L216.277 143.275C216.279 142.694 216.396 142.119 216.622 141.583C216.849 141.048 217.179 140.563 217.594 140.157C218.009 139.751 218.501 139.432 219.041 139.218C219.58 139.005 220.157 138.901 220.737 138.913L248.59 139.641C250.119 139.697 251.566 140.349 252.624 141.457C253.682 142.565 254.268 144.043 254.256 145.576L254.157 163.736Z" fill="#263238"/>
<path opacity="0.4" d="M249.919 163.612L220.117 162.718C218.988 162.666 217.924 162.174 217.152 161.347C216.381 160.519 215.962 159.422 215.987 158.29L216.293 143.275C216.295 142.694 216.413 142.119 216.639 141.583C216.865 141.048 217.195 140.563 217.611 140.157C218.026 139.751 218.518 139.432 219.057 139.218C219.597 139.005 220.173 138.901 220.753 138.913L248.606 139.641C250.136 139.697 251.583 140.349 252.641 141.457C253.699 142.565 254.284 144.043 254.272 145.576L254.19 159.407C254.199 159.968 254.094 160.525 253.882 161.044C253.67 161.564 253.354 162.034 252.955 162.428C252.556 162.821 252.081 163.129 251.559 163.332C251.037 163.536 250.479 163.631 249.919 163.612Z" fill="white"/>
<g opacity="0.3">
<path d="M245.038 156.66L244.055 158.315L243.096 156.577L243.286 130.587C243.286 126.449 241.684 123.063 236.546 122.931C231.739 122.815 229.063 126.101 229.013 130.223L228.765 156.204L227.733 157.86L226.824 156.155L227.13 130.223C227.188 125.422 229.046 121.582 236.604 121.764C244.162 121.946 245.285 125.902 245.252 130.678L245.038 156.66Z" fill="white"/>
</g>
<path d="M229.377 146.174L226.188 146.091L226.205 144.891L229.393 144.973L229.377 146.174Z" fill="#263238"/>
<path d="M229.294 153.969L226.098 153.886L226.114 152.678L229.311 152.769L229.294 153.969Z" fill="#263238"/>
<path d="M245.764 146.619L242.56 146.528L242.568 145.328L245.773 145.411L245.764 146.619Z" fill="#263238"/>
<path d="M245.707 154.432L242.502 154.341L242.51 153.133L245.715 153.224L245.707 154.432Z" fill="#263238"/>
<path d="M239.661 147.141L232.821 146.951L232.846 144.377L239.685 144.567L239.661 147.141Z" fill="white"/>
<path d="M269.19 52.2871C269.454 52.2374 269.735 52.5106 269.818 52.9161C269.9 53.3217 269.768 53.6859 269.504 53.7438C269.239 53.8018 268.959 53.5203 268.876 53.1231C268.793 52.7258 268.926 52.3285 269.19 52.2871Z" fill="#263238"/>
<path d="M269.24 52.6167C269.518 52.4653 269.737 52.2229 269.859 51.9297C269.635 52.1394 269.34 52.2575 269.033 52.2608C269.092 52.3006 269.141 52.3533 269.177 52.415C269.213 52.4766 269.234 52.5456 269.24 52.6167Z" fill="#263238"/>
<path d="M269.768 56.6654C270.111 56.68 270.452 56.6185 270.767 56.4854C271.083 56.3523 271.365 56.1509 271.594 55.8956C270.583 55.0156 269.697 54.0021 268.959 52.8828L269.768 56.6654Z" fill="#B74D3C"/>
<path d="M266.976 51.6241C267.166 51.3881 267.408 51.2006 267.684 51.0768C267.96 50.9531 268.261 50.8967 268.562 50.9123H268.645C268.677 50.9123 268.709 50.9059 268.739 50.8933C268.768 50.8807 268.795 50.8623 268.817 50.8391C268.84 50.8159 268.857 50.7885 268.869 50.7584C268.88 50.7283 268.886 50.6962 268.885 50.664C268.882 50.5996 268.855 50.5385 268.809 50.4937C268.763 50.449 268.701 50.4239 268.637 50.424C268.259 50.3932 267.88 50.4521 267.53 50.5959C267.18 50.7398 266.868 50.9644 266.621 51.2517C266.586 51.2964 266.565 51.3516 266.563 51.4089C266.566 51.4741 266.592 51.5361 266.638 51.5822C266.684 51.6283 266.746 51.6552 266.811 51.6572C266.869 51.6666 266.927 51.6548 266.976 51.6241Z" fill="#263238"/>
<path d="M264.466 75.5448C257.593 75.6193 256.536 71.8698 256.536 71.8698C258.585 69.8668 258.684 66.1918 258.246 62.9141C258.8 63.6883 259.491 64.3534 260.286 64.8757C261.938 65.96 265.498 64.2218 265.498 64.2218C265.498 64.2218 265.498 64.8261 265.548 65.7117C265.655 67.8555 266.126 71.6215 268.075 72.2092C268.075 72.2092 272.04 75.462 264.466 75.5448Z" fill="#CB7A63"/>
<path d="M265.597 64.7773C265.531 65.0918 265.457 65.4146 265.407 65.7457C265.38 65.7523 265.352 65.7523 265.324 65.7457C264.47 65.9556 263.58 65.9838 262.714 65.8284C261.847 65.673 261.023 65.3375 260.294 64.8435C259.493 64.3258 258.798 63.6601 258.246 62.8818C258.138 62.0541 257.99 61.2264 257.841 60.498L265.324 64.6366L265.597 64.7773Z" fill="#CB7A63"/>
<path d="M270.52 59.1572C270.5 60.3411 270.179 61.5005 269.588 62.5258C268.997 63.5511 268.155 64.4086 267.142 65.0173C266.632 65.3411 266.075 65.5814 265.49 65.7292C265.463 65.7358 265.434 65.7358 265.407 65.7292C264.552 65.9391 263.663 65.9673 262.797 65.8119C261.93 65.6565 261.106 65.321 260.377 64.827C259.576 64.3093 258.881 63.6436 258.328 62.8653C256.982 61.0113 256.42 58.5447 255.454 55.0684C255.127 53.9444 255.092 52.7553 255.352 51.614C255.613 50.4727 256.16 49.417 256.942 48.5472C257.724 47.6773 258.715 47.0221 259.82 46.6439C260.926 46.2656 262.11 46.1767 263.259 46.3858C268.414 47.3625 270.627 54.5055 270.52 59.1572Z" fill="#CB7A63"/>
<path opacity="0.2" d="M266.762 65.1565C266.395 65.4148 265.983 65.6029 265.548 65.711C265.498 64.8254 265.506 64.2212 265.498 64.2212L265.597 62.6816C265.597 62.6816 266.407 65.1565 266.762 65.1565Z" fill="black"/>
<path d="M268.719 49.8033C268.157 50.6972 266.398 51.4587 266.456 51.2435C266.762 50.5068 266.704 49.0831 265.787 49.4142C266.043 49.9853 266.803 54.2315 266.456 54.7529C266.266 55.0343 266.092 58.4279 264.647 61.4325C263.499 63.8245 263.499 64.5612 263.499 64.5612L258.807 65.4717C257.048 65.2482 255.412 62.9886 255.272 62.7568C254.652 61.6973 252.794 60.2737 251.803 59.5701C251.377 59.241 251.056 58.7954 250.878 58.2872C250.555 57.385 251.216 54.1487 251.357 52.6009C251.563 50.4075 252.711 48.3713 255.9 47.0636C257.865 46.2359 259.517 44.4811 261.533 43.7527C262.522 43.3556 263.592 43.2038 264.652 43.3105C265.712 43.4171 266.73 43.779 267.621 44.3652C268.455 44.986 270.123 47.5353 268.719 49.8033Z" fill="#263238"/>
<path d="M266.266 52.8581C267.711 53.2885 268.463 55.424 268.529 56.7732C268.595 58.2713 267.604 59.2563 266.299 58.2134C265.316 57.4424 264.614 56.3693 264.3 55.1591C263.953 53.6941 264.82 52.436 266.266 52.8581Z" fill="#CB7A63"/>
<path d="M268.009 57.8483C268.007 58.0159 267.939 58.1759 267.82 58.2936C267.701 58.4113 267.54 58.4773 267.373 58.4773C267.206 58.4773 267.047 58.411 266.929 58.2931C266.811 58.1751 266.745 58.0151 266.745 57.8483C266.745 57.6807 266.811 57.5198 266.928 57.4005C267.046 57.2812 267.206 57.2131 267.373 57.2109C267.541 57.2131 267.701 57.2809 267.82 57.4C267.939 57.519 268.007 57.6799 268.009 57.8483Z" fill="#00ADEF"/>
<path opacity="0.3" d="M268.009 57.8483C268.007 58.0159 267.939 58.1759 267.82 58.2936C267.701 58.4113 267.54 58.4773 267.373 58.4773C267.206 58.4773 267.047 58.411 266.929 58.2931C266.811 58.1751 266.745 58.0151 266.745 57.8483C266.745 57.6807 266.811 57.5198 266.928 57.4005C267.046 57.2812 267.206 57.2131 267.373 57.2109C267.541 57.2131 267.701 57.2809 267.82 57.4C267.939 57.519 268.007 57.6799 268.009 57.8483Z" fill="white"/>
<path d="M254.569 74.3537C254.569 74.3537 255.635 71.0429 257.246 70.0083C258.856 68.9736 265.927 70.0083 267.034 70.4883C268.141 70.9684 269.239 73.4763 269.239 73.4763L254.569 74.3537Z" fill="#00ADEF"/>
<path opacity="0.3" d="M254.569 74.3537C254.569 74.3537 255.635 71.0429 257.246 70.0083C258.856 68.9736 265.927 70.0083 267.034 70.4883C268.141 70.9684 269.239 73.4763 269.239 73.4763L254.569 74.3537Z" fill="white"/>
<path d="M270.71 72.9802C269.833 72.7782 268.945 72.6289 268.05 72.5332C264.257 72.351 260.456 72.3925 256.668 72.6574C255.304 72.7719 253.953 73.0017 252.628 73.3444C251.318 73.659 250.163 74.4305 249.368 75.5208C248.574 76.6112 248.192 77.9492 248.292 79.2955C248.854 87.0428 251.133 91.5952 251.472 96.6773C251.849 103.25 251.435 109.845 250.241 116.319L255.445 117.146C262.527 117.078 269.522 115.58 276.013 112.743C276.013 112.743 274.666 100.46 275.963 96.0317C279.507 83.9307 277.202 82.0187 276.508 78.5589C276.221 77.149 275.513 75.86 274.477 74.8635C273.441 73.8669 272.127 73.21 270.71 72.9802Z" fill="#00ADEF"/>
<path opacity="0.1" d="M275.971 95.9901C275.529 98.003 275.34 100.063 275.41 102.123C275.41 107.09 276.021 112.71 276.021 112.71C269.531 115.551 262.535 117.049 255.453 117.113L250.25 116.285C251.438 109.805 251.851 103.206 251.48 96.6274C251.133 91.5288 248.854 86.9847 248.292 79.2457C248.192 77.8993 248.574 76.5613 249.368 75.4709C250.163 74.3806 251.318 73.6091 252.628 73.2945C253.953 72.9518 255.304 72.722 256.668 72.6075C260.456 72.3481 264.256 72.3039 268.05 72.475C268.944 72.5773 269.832 72.7293 270.71 72.9303C272.124 73.1632 273.435 73.8215 274.467 74.8178C275.5 75.8141 276.206 77.1014 276.492 78.509C276.739 79.7505 277.202 80.8017 277.516 82.184C278.019 84.6805 277.993 87.2549 277.442 89.7409C277.068 91.8498 276.577 93.9361 275.971 95.9901Z" fill="white"/>
<path d="M272.205 72.5741C274.105 72.8389 275.988 73.2197 277.871 73.5342C279.755 73.8487 281.638 74.2791 283.513 74.6847L282.836 74.6268C283.662 74.6268 284.413 74.7261 284.876 74.7592C285.099 74.7592 285.256 74.7592 285.198 74.8089C285.14 74.8585 285.074 74.8585 284.95 74.9413C284.74 75.0549 284.55 75.2032 284.388 75.38C284.059 75.6968 283.849 76.1178 283.794 76.5719C283.794 76.7623 283.852 76.7126 283.86 76.5719C283.871 76.0815 283.819 75.5917 283.703 75.1151L283.785 75.3552C282.833 72.5962 281.938 69.8178 281.101 67.0202C280.275 64.2143 279.523 61.3835 278.978 58.47C278.889 57.9976 278.967 57.5087 279.2 57.088C279.432 56.6673 279.804 56.3413 280.251 56.1665C280.698 55.9916 281.192 55.9789 281.647 56.1305C282.103 56.2821 282.491 56.5886 282.745 56.9967C284.314 59.4798 285.669 62.1036 286.982 64.7192C288.295 67.3347 289.46 69.9834 290.658 72.6569L290.749 72.9052C291.13 73.8458 291.407 74.8256 291.575 75.827C291.688 76.5704 291.688 77.3266 291.575 78.07C291.388 79.2632 290.83 80.3668 289.98 81.2236C289.542 81.6557 289.041 82.0185 288.494 82.2996C288.077 82.5122 287.64 82.6814 287.189 82.8045C286.567 82.9748 285.931 83.0884 285.289 83.1438C284.256 83.2432 283.496 83.2432 282.811 83.2845H282.703L282.133 83.2183C280.225 83.0197 278.317 82.7879 276.418 82.5479C274.518 82.3079 272.618 82.043 270.726 81.7202C269.604 81.4408 268.626 80.7492 267.988 79.7823C267.35 78.8153 267.097 77.6435 267.28 76.4987C267.462 75.3539 268.067 74.3196 268.975 73.6005C269.882 72.8813 271.026 72.5298 272.18 72.6155L272.205 72.5741Z" fill="#00ADEF"/>
<g opacity="0.1">
<path d="M272.205 72.5741C274.105 72.8389 275.988 73.2197 277.871 73.5342C279.755 73.8487 281.638 74.2791 283.513 74.6847L282.836 74.6268C283.662 74.6268 284.413 74.7261 284.876 74.7592C285.099 74.7592 285.256 74.7592 285.198 74.8089C285.14 74.8585 285.074 74.8585 284.95 74.9413C284.74 75.0549 284.55 75.2032 284.388 75.38C284.059 75.6968 283.849 76.1178 283.794 76.5719C283.794 76.7623 283.852 76.7126 283.86 76.5719C283.871 76.0815 283.819 75.5917 283.703 75.1151L283.785 75.3552C282.833 72.5962 281.938 69.8178 281.101 67.0202C280.275 64.2143 279.523 61.3835 278.978 58.47C278.889 57.9976 278.967 57.5087 279.2 57.088C279.432 56.6673 279.804 56.3413 280.251 56.1665C280.698 55.9916 281.192 55.9789 281.647 56.1305C282.103 56.2821 282.491 56.5886 282.745 56.9967C284.314 59.4798 285.669 62.1036 286.982 64.7192C288.295 67.3347 289.46 69.9834 290.658 72.6569L290.749 72.9052C291.13 73.8458 291.407 74.8256 291.575 75.827C291.688 76.5704 291.688 77.3266 291.575 78.07C291.388 79.2632 290.83 80.3668 289.98 81.2236C289.542 81.6557 289.041 82.0185 288.494 82.2996C288.077 82.5122 287.64 82.6814 287.189 82.8045C286.567 82.9748 285.931 83.0884 285.289 83.1438C284.256 83.2432 283.496 83.2432 282.811 83.2845H282.703L282.133 83.2183C280.225 83.0197 278.317 82.7879 276.418 82.5479C274.518 82.3079 272.618 82.043 270.726 81.7202C269.604 81.4408 268.626 80.7492 267.988 79.7823C267.35 78.8153 267.097 77.6435 267.28 76.4987C267.462 75.3539 268.067 74.3196 268.975 73.6005C269.882 72.8813 271.026 72.5298 272.18 72.6155L272.205 72.5741Z" fill="white"/>
</g>
<path d="M306.36 54.7524L331.123 53.9909L330.743 46.2188L306.029 47.8493L306.36 54.7524Z" fill="#00ADEF"/>
<path d="M287.643 55.0502L307.674 54.4046L307.368 48.0312L287.379 49.3225L287.643 55.0502Z" fill="#00ADEF"/>
<path d="M305.022 54.5619L306.336 54.7026L306.014 47.8906L304.717 48.1638L305.022 54.5619Z" fill="#263238"/>
<path opacity="0.2" d="M305.022 54.5619L306.336 54.7026L306.014 47.8906L304.717 48.1638L305.022 54.5619Z" fill="black"/>
<path d="M306.344 54.7539L307.682 54.7125L307.352 47.7598L306.014 47.8508L306.344 54.7539Z" fill="#263238"/>
<path d="M284.537 54.1072L286.52 55.0343L286.264 49.4473L284.372 50.5564L284.537 54.1072Z" fill="#263238"/>
<path d="M274.361 54.0409L280.251 53.7347L280.127 51.1191L274.237 51.4668L274.361 54.0409Z" fill="#263238"/>
<path opacity="0.2" d="M274.361 54.0409L280.251 53.7347L280.127 51.1191L274.237 51.4668L274.361 54.0409Z" fill="black"/>
<path d="M279.441 54.2564L285.991 54.0081L285.826 50.3496L279.275 50.7386L279.441 54.2564Z" fill="#263238"/>
<path opacity="0.2" d="M284.537 54.1072L286.52 55.0343L286.264 49.4473L284.372 50.5564L284.537 54.1072Z" fill="black"/>
<path d="M286.561 55.0831L287.643 55.05L287.378 49.3223L286.288 49.3885L286.561 55.0831Z" fill="#263238"/>
<path d="M330.281 54.0163L334.172 53.8755L333.784 46.0703L329.901 46.269L330.281 54.0163Z" fill="#263238"/>
<path d="M332.017 54.57L336.973 54.4293L337.097 54.0817C337.62 52.6265 337.839 51.0789 337.74 49.5352C337.64 47.9916 337.224 46.485 336.519 45.1094L331.562 45.4487L331.67 45.7053C332.847 48.522 332.97 51.6697 332.017 54.57Z" fill="#00ADEF"/>
<g opacity="0.4">
<path d="M326.729 47.0792L328.728 46.9551L328.769 47.7828L326.737 47.9069C326.7 47.6325 326.697 47.3544 326.729 47.0792Z" fill="white"/>
<path d="M325.515 47.1699C325.484 47.4449 325.484 47.7226 325.515 47.9976L308.144 48.9743L308.062 48.2294L325.515 47.1699Z" fill="white"/>
</g>
<g opacity="0.4">
<path d="M287.8 49.771L287.833 50.4662L304.171 49.4978L304.13 48.7363L287.8 49.771Z" fill="white"/>
</g>
<g opacity="0.4">
<path d="M331.999 45.7145L332.049 46.5836L335.923 46.327L335.881 45.4414L331.999 45.7145Z" fill="white"/>
</g>
<path opacity="0.3" d="M336.46 53.2795C336.427 53.5766 336.427 53.8764 336.46 54.1735L332.454 54.3059L332.404 53.4782L336.46 53.2795Z" fill="black"/>
<path opacity="0.3" d="M329.282 52.7988C329.247 53.0736 329.247 53.3517 329.282 53.6265L308.062 54.4211L308.021 53.6431L329.282 52.7988Z" fill="black"/>
<path opacity="0.3" d="M303.973 53.5449C303.948 53.7981 303.948 54.0532 303.973 54.3064L288.172 54.861V54.1657L303.973 53.5449Z" fill="black"/>
<path d="M273.039 51.5669L273.089 54.05C273.105 54.2579 273.2 54.4518 273.353 54.5929C273.506 54.7341 273.707 54.8122 273.915 54.8115H275.938L275.856 50.7227L273.832 50.7971C273.628 50.8048 273.435 50.8877 273.288 51.0298C273.142 51.1719 273.053 51.3632 273.039 51.5669Z" fill="#00ADEF"/>
<path d="M283.505 58.5029L284.273 53.8429C284.293 53.6503 284.293 53.4561 284.273 53.2635L284.05 50.7804C284.031 50.6125 283.964 50.4536 283.857 50.3229C283.75 50.1922 283.607 50.0953 283.447 50.0438H279.73C279.503 49.9647 279.256 49.9735 279.036 50.0685C278.815 50.1635 278.639 50.3378 278.54 50.5569L277.871 53.6111C277.818 53.837 277.818 54.0723 277.871 54.2981L278.978 58.5029C279.038 58.6849 279.147 58.8468 279.293 58.9709C279.438 59.095 279.615 59.1765 279.804 59.2064H282.233C282.494 59.2785 282.774 59.2453 283.011 59.1139C283.249 58.9825 283.426 58.7632 283.505 58.5029Z" fill="#CE7A63"/>
<path d="M285.685 60.4632L279.366 62.6897L278.317 58.7995L283.744 57.1523L285.685 60.4632Z" fill="#00ADEF"/>
<path opacity="0.3" d="M285.685 60.4632L279.366 62.6897L278.317 58.7995L283.744 57.1523L285.685 60.4632Z" fill="white"/>
<path opacity="0.2" d="M277.5 89.756L272.659 80.6016L277.615 82.199C278.104 84.6984 278.065 87.2728 277.5 89.756Z" fill="black"/>
<path d="M302.421 165.739L301.413 178.18L307.063 178.287L308.616 165.475L302.421 165.739Z" fill="#CE7A63"/>
<path d="M307.954 176.583L301.52 176.715C301.397 176.721 301.281 176.769 301.189 176.85C301.098 176.931 301.036 177.041 301.016 177.162L299.909 182.824C299.853 183.056 299.891 183.301 300.012 183.507C300.134 183.712 300.331 183.862 300.562 183.925H300.743C303.064 183.833 305.129 183.66 308.02 183.602C311.432 183.535 310.573 183.991 314.587 183.974C316.999 183.974 317.412 180.994 316.388 180.87C311.688 180.324 311.192 178.818 309.358 177.046C308.969 176.714 308.465 176.547 307.954 176.583Z" fill="#263238"/>
<path d="M240.751 219.027L238.463 230.441L244.534 232.303L247.466 220.641L240.751 219.027Z" fill="#CE7A63"/>
<path d="M273.237 113.205C273.237 113.205 264.597 163.753 259.897 178.594C256.593 189.18 247.59 223.836 247.59 223.836L239.503 222.065C239.503 222.065 238.595 198.475 243.113 186.299C244.658 182.161 246.673 178.395 247.243 175.821C249.572 164.821 244.765 144.865 246.896 129.983C247.547 125.249 248.756 120.609 250.498 116.16L273.237 113.205Z" fill="#263238"/>
<path d="M259.897 178.627C256.593 189.213 247.59 223.869 247.59 223.869L239.503 222.065C239.503 222.065 238.595 198.475 243.113 186.3C244.658 182.161 246.673 178.395 247.243 175.821C249.572 164.821 244.765 144.865 246.896 129.983C247.547 125.249 248.756 120.609 250.498 116.16" fill="#263238"/>
<path opacity="0.2" d="M262.64 128.832L266.993 145.949L270.173 129.577L262.64 128.832Z" fill="black"/>
<path d="M309.011 171.708L301.065 171.964C301.065 171.964 301.651 161.543 301.651 146.305C301.673 144.038 301.967 141.781 302.527 139.584C303.211 136.781 304.206 134.063 305.492 131.481L303.188 131.597C298.694 131.829 270.842 133.253 270.296 133.253C269.883 133.211 267.348 133.551 262.813 131.332C254.379 127.194 254.297 115.606 254.297 115.606L276.012 112.709C276.012 112.709 276.368 112.775 281.596 112.866C297.447 113.139 316.924 113.752 320.344 119.206C325.151 126.879 309.011 171.708 309.011 171.708Z" fill="#263238"/>
<path d="M244.84 229.349L238.182 229.431C238.059 229.433 237.941 229.479 237.85 229.561C237.759 229.643 237.7 229.756 237.686 229.878L236.86 235.589C236.826 235.835 236.883 236.084 237.02 236.29C237.157 236.496 237.365 236.644 237.604 236.707H237.794C240.197 236.632 242.32 236.467 245.31 236.425C248.846 236.384 247.978 236.839 252.125 236.839C254.603 236.839 254.892 233.851 253.826 233.719C248.928 233.148 248.325 231.616 246.335 229.82C245.913 229.481 245.379 229.312 244.84 229.349Z" fill="#263238"/>
<path opacity="0.2" d="M302.527 139.626C303.211 136.823 304.206 134.105 305.493 131.523L303.188 131.639C303.12 131.612 303.047 131.598 302.973 131.598L308.755 131.109L302.527 139.626Z" fill="black"/>
<path d="M150.741 77.7474C156.339 77.7474 160.876 73.2004 160.876 67.5915C160.876 61.9825 156.339 57.4355 150.741 57.4355C145.144 57.4355 140.606 61.9825 140.606 67.5915C140.606 73.2004 145.144 77.7474 150.741 77.7474Z" fill="#FFCB05"/>
<path opacity="0.6" d="M150.741 77.7474C156.339 77.7474 160.876 73.2004 160.876 67.5915C160.876 61.9825 156.339 57.4355 150.741 57.4355C145.144 57.4355 140.606 61.9825 140.606 67.5915C140.606 73.2004 145.144 77.7474 150.741 77.7474Z" fill="white"/>
<path d="M150.758 53.5701C150.359 53.5679 149.976 53.4074 149.695 53.1236C149.413 52.8397 149.255 52.4557 149.255 52.0554V45.4338C149.283 45.0525 149.454 44.696 149.734 44.4358C150.013 44.1756 150.381 44.031 150.762 44.031C151.144 44.031 151.511 44.1756 151.791 44.4358C152.071 44.696 152.242 45.0525 152.27 45.4338V52.0554C152.27 52.4572 152.111 52.8424 151.827 53.1265C151.544 53.4105 151.159 53.5701 150.758 53.5701Z" fill="#FFCB05"/>
<path d="M150.758 91.1896C150.36 91.1875 149.979 91.0281 149.698 90.746C149.416 90.464 149.257 90.0821 149.255 89.6832V83.0119C149.283 82.6306 149.454 82.2741 149.734 82.0139C150.013 81.7537 150.381 81.6091 150.762 81.6091C151.144 81.6091 151.511 81.7537 151.791 82.0139C152.071 82.2741 152.242 82.6306 152.27 83.0119V89.6832C152.268 90.0835 152.107 90.4666 151.824 90.7489C151.541 91.0312 151.158 91.1896 150.758 91.1896Z" fill="#FFCB05"/>
<path d="M139.855 58.0817C139.657 58.0817 139.46 58.0422 139.277 57.9655C139.094 57.8887 138.929 57.7763 138.789 57.6347L135.915 54.7709C135.775 54.6306 135.664 54.4642 135.588 54.281C135.513 54.0978 135.474 53.9014 135.474 53.7031C135.474 53.5048 135.513 53.3085 135.588 53.1253C135.664 52.9421 135.775 52.7756 135.915 52.6354C136.055 52.4952 136.221 52.3839 136.404 52.3081C136.587 52.2322 136.783 52.1931 136.981 52.1931C137.178 52.1931 137.374 52.2322 137.557 52.3081C137.74 52.3839 137.906 52.4952 138.046 52.6354L140.921 55.5158C141.202 55.7996 141.36 56.1834 141.36 56.5835C141.36 56.9836 141.202 57.3675 140.921 57.6513C140.78 57.7899 140.614 57.8993 140.431 57.9731C140.248 58.047 140.052 58.0839 139.855 58.0817Z" fill="#FFCB05"/>
<path d="M164.337 82.6398C163.939 82.6376 163.557 82.4803 163.272 82.2011L160.596 79.5111C160.313 79.2279 160.154 78.8438 160.154 78.4434C160.154 78.0429 160.313 77.6588 160.596 77.3756C160.878 77.0924 161.262 76.9333 161.661 76.9333C162.061 76.9333 162.444 77.0924 162.727 77.3756L165.403 80.0657C165.614 80.2763 165.758 80.5452 165.817 80.8381C165.875 81.131 165.845 81.4347 165.731 81.7106C165.617 81.9865 165.423 82.2221 165.175 82.3876C164.927 82.553 164.636 82.6408 164.337 82.6398Z" fill="#FFCB05"/>
<path d="M135.337 69.0231H128.729C128.521 69.0384 128.313 69.0108 128.117 68.9419C127.921 68.8729 127.741 68.7642 127.588 68.6224C127.436 68.4806 127.315 68.3089 127.231 68.1179C127.148 67.9269 127.105 67.7208 127.105 67.5125C127.105 67.3042 127.148 67.0981 127.231 66.9071C127.315 66.7161 127.436 66.5444 127.588 66.4026C127.741 66.2608 127.921 66.1521 128.117 66.0831C128.313 66.0142 128.521 65.9866 128.729 66.0019H135.337C135.544 65.9866 135.752 66.0142 135.949 66.0831C136.145 66.1521 136.325 66.2608 136.477 66.4026C136.629 66.5444 136.751 66.7161 136.834 66.9071C136.917 67.0981 136.96 67.3042 136.96 67.5125C136.96 67.7208 136.917 67.9269 136.834 68.1179C136.751 68.3089 136.629 68.4806 136.477 68.6224C136.325 68.7642 136.145 68.8729 135.949 68.9419C135.752 69.0108 135.544 69.0384 135.337 69.0231Z" fill="#FFCB05"/>
<path d="M172.837 69.0231H166.188C165.98 69.0384 165.772 69.0108 165.576 68.9419C165.38 68.8729 165.2 68.7642 165.047 68.6224C164.895 68.4806 164.774 68.3089 164.69 68.1179C164.607 67.9269 164.564 67.7208 164.564 67.5125C164.564 67.3042 164.607 67.0981 164.69 66.9071C164.774 66.7161 164.895 66.5444 165.047 66.4026C165.2 66.2608 165.38 66.1521 165.576 66.0831C165.772 66.0142 165.98 65.9866 166.188 66.0019H172.837C173.044 65.9866 173.253 66.0142 173.449 66.0831C173.645 66.1521 173.825 66.2608 173.977 66.4026C174.13 66.5444 174.251 66.7161 174.334 66.9071C174.417 67.0981 174.46 67.3042 174.46 67.5125C174.46 67.7208 174.417 67.9269 174.334 68.1179C174.251 68.3089 174.13 68.4806 173.977 68.6224C173.825 68.7642 173.645 68.8729 173.449 68.9419C173.253 69.0108 173.044 69.0384 172.837 69.0231Z" fill="#FFCB05"/>
<path d="M137.318 82.4972C136.923 82.5061 136.539 82.3573 136.253 82.0834C135.971 81.7996 135.813 81.4158 135.813 81.0157C135.813 80.6156 135.971 80.2317 136.253 79.9479L138.789 77.4069C139.071 77.1237 139.455 76.9646 139.854 76.9646C140.254 76.9646 140.637 77.1237 140.92 77.4069C141.202 77.69 141.361 78.0741 141.361 78.4746C141.361 78.8751 141.202 79.2592 140.92 79.5423L138.384 82.0834C138.098 82.3573 137.714 82.5061 137.318 82.4972Z" fill="#FFCB05"/>
<path d="M161.669 58.0816C161.471 58.0826 161.274 58.0435 161.091 57.9667C160.908 57.8899 160.742 57.777 160.603 57.6346C160.322 57.3508 160.164 56.967 160.164 56.5669C160.164 56.1668 160.322 55.7829 160.603 55.4992L163.321 52.776C163.604 52.4928 163.987 52.3337 164.387 52.3337C164.786 52.3337 165.17 52.4928 165.452 52.776C165.735 53.0592 165.893 53.4433 165.893 53.8437C165.893 54.2442 165.735 54.6283 165.452 54.9115L162.735 57.6346C162.452 57.9191 162.069 58.0798 161.669 58.0816Z" fill="#FFCB05"/>
<g opacity="0.6">
<path d="M150.758 53.5701C150.359 53.5679 149.976 53.4074 149.695 53.1236C149.413 52.8397 149.255 52.4557 149.255 52.0554V45.4338C149.283 45.0525 149.454 44.696 149.734 44.4358C150.013 44.1756 150.381 44.031 150.762 44.031C151.144 44.031 151.511 44.1756 151.791 44.4358C152.071 44.696 152.242 45.0525 152.27 45.4338V52.0554C152.27 52.4572 152.111 52.8424 151.827 53.1265C151.544 53.4105 151.159 53.5701 150.758 53.5701Z" fill="white"/>
<path d="M150.758 91.1896C150.36 91.1875 149.979 91.0281 149.698 90.746C149.416 90.464 149.257 90.0821 149.255 89.6832V83.0119C149.283 82.6306 149.454 82.2741 149.734 82.0139C150.013 81.7537 150.381 81.6091 150.762 81.6091C151.144 81.6091 151.511 81.7537 151.791 82.0139C152.071 82.2741 152.242 82.6306 152.27 83.0119V89.6832C152.268 90.0835 152.107 90.4666 151.824 90.7489C151.541 91.0312 151.158 91.1896 150.758 91.1896Z" fill="white"/>
<path d="M139.855 58.0817C139.657 58.0817 139.46 58.0422 139.277 57.9655C139.094 57.8887 138.929 57.7763 138.789 57.6347L135.915 54.7709C135.775 54.6306 135.664 54.4642 135.588 54.281C135.513 54.0978 135.474 53.9014 135.474 53.7031C135.474 53.5048 135.513 53.3085 135.588 53.1253C135.664 52.9421 135.775 52.7756 135.915 52.6354C136.055 52.4952 136.221 52.3839 136.404 52.3081C136.587 52.2322 136.783 52.1931 136.981 52.1931C137.178 52.1931 137.374 52.2322 137.557 52.3081C137.74 52.3839 137.906 52.4952 138.046 52.6354L140.921 55.5158C141.202 55.7996 141.36 56.1834 141.36 56.5835C141.36 56.9836 141.202 57.3675 140.921 57.6513C140.78 57.7899 140.614 57.8993 140.431 57.9731C140.248 58.047 140.052 58.0839 139.855 58.0817Z" fill="white"/>
<path d="M164.337 82.6398C163.939 82.6376 163.557 82.4803 163.272 82.2011L160.596 79.5111C160.313 79.2279 160.154 78.8438 160.154 78.4434C160.154 78.0429 160.313 77.6588 160.596 77.3756C160.878 77.0924 161.262 76.9333 161.661 76.9333C162.061 76.9333 162.444 77.0924 162.727 77.3756L165.403 80.0657C165.614 80.2763 165.758 80.5452 165.817 80.8381C165.875 81.131 165.845 81.4347 165.731 81.7106C165.617 81.9865 165.423 82.2221 165.175 82.3876C164.927 82.553 164.636 82.6408 164.337 82.6398Z" fill="white"/>
<path d="M135.337 69.0231H128.729C128.521 69.0384 128.313 69.0108 128.117 68.9419C127.921 68.8729 127.741 68.7642 127.588 68.6224C127.436 68.4806 127.315 68.3089 127.231 68.1179C127.148 67.9269 127.105 67.7208 127.105 67.5125C127.105 67.3042 127.148 67.0981 127.231 66.9071C127.315 66.7161 127.436 66.5444 127.588 66.4026C127.741 66.2608 127.921 66.1521 128.117 66.0831C128.313 66.0142 128.521 65.9866 128.729 66.0019H135.337C135.544 65.9866 135.752 66.0142 135.949 66.0831C136.145 66.1521 136.325 66.2608 136.477 66.4026C136.629 66.5444 136.751 66.7161 136.834 66.9071C136.917 67.0981 136.96 67.3042 136.96 67.5125C136.96 67.7208 136.917 67.9269 136.834 68.1179C136.751 68.3089 136.629 68.4806 136.477 68.6224C136.325 68.7642 136.145 68.8729 135.949 68.9419C135.752 69.0108 135.544 69.0384 135.337 69.0231Z" fill="white"/>
<path d="M172.837 69.0231H166.188C165.98 69.0384 165.772 69.0108 165.576 68.9419C165.38 68.8729 165.2 68.7642 165.047 68.6224C164.895 68.4806 164.774 68.3089 164.69 68.1179C164.607 67.9269 164.564 67.7208 164.564 67.5125C164.564 67.3042 164.607 67.0981 164.69 66.9071C164.774 66.7161 164.895 66.5444 165.047 66.4026C165.2 66.2608 165.38 66.1521 165.576 66.0831C165.772 66.0142 165.98 65.9866 166.188 66.0019H172.837C173.044 65.9866 173.253 66.0142 173.449 66.0831C173.645 66.1521 173.825 66.2608 173.977 66.4026C174.13 66.5444 174.251 66.7161 174.334 66.9071C174.417 67.0981 174.46 67.3042 174.46 67.5125C174.46 67.7208 174.417 67.9269 174.334 68.1179C174.251 68.3089 174.13 68.4806 173.977 68.6224C173.825 68.7642 173.645 68.8729 173.449 68.9419C173.253 69.0108 173.044 69.0384 172.837 69.0231Z" fill="white"/>
<path d="M137.318 82.4972C136.923 82.5061 136.539 82.3573 136.253 82.0834C135.971 81.7996 135.813 81.4158 135.813 81.0157C135.813 80.6156 135.971 80.2317 136.253 79.9479L138.789 77.4069C139.071 77.1237 139.455 76.9646 139.854 76.9646C140.254 76.9646 140.637 77.1237 140.92 77.4069C141.202 77.69 141.361 78.0741 141.361 78.4746C141.361 78.8751 141.202 79.2592 140.92 79.5423L138.384 82.0834C138.098 82.3573 137.714 82.5061 137.318 82.4972Z" fill="white"/>
<path d="M161.669 58.0816C161.471 58.0826 161.274 58.0435 161.091 57.9667C160.908 57.8899 160.742 57.777 160.603 57.6346C160.322 57.3508 160.164 56.967 160.164 56.5669C160.164 56.1668 160.322 55.7829 160.603 55.4992L163.321 52.776C163.604 52.4928 163.987 52.3337 164.387 52.3337C164.786 52.3337 165.17 52.4928 165.452 52.776C165.735 53.0592 165.893 53.4433 165.893 53.8437C165.893 54.2442 165.735 54.6283 165.452 54.9115L162.735 57.6346C162.452 57.9191 162.069 58.0798 161.669 58.0816Z" fill="white"/>
</g>
<defs>
<clipPath id="clip0_2080_98528">
<rect width="14.042" height="14.0709" fill="white" transform="translate(382.402 44.0098)"/>
</clipPath>
</defs>
</svg>
