<svg width="66" height="66" viewBox="0 0 66 66" fill="none" xmlns="http://www.w3.org/2000/svg">
<path fill-rule="evenodd" clip-rule="evenodd" d="M44.6875 63.25C54.1799 63.25 61.875 55.5549 61.875 46.0625C61.875 36.5701 54.1799 28.875 44.6875 28.875C35.1951 28.875 27.5 36.5701 27.5 46.0625C27.5 55.5549 35.1951 63.25 44.6875 63.25ZM48.7812 42.5762C48.887 42.5762 48.974 42.6102 49.042 42.6783C49.1101 42.7463 49.1442 42.8332 49.1442 42.9392V44.0961C49.1442 44.2019 49.1101 44.2889 49.042 44.3568C48.974 44.4249 48.887 44.4588 48.7812 44.4588H46.8758C46.7017 45.5476 46.2141 46.4325 45.4127 47.113C44.6111 47.7934 43.5677 48.2093 42.2822 48.3605C43.545 49.7064 45.2804 51.7328 47.4881 54.4398C47.5943 54.5608 47.6091 54.6894 47.5335 54.8255C47.4732 54.9619 47.3635 55.0297 47.2045 55.0297H44.9929C44.8719 55.0297 44.7774 54.9844 44.7093 54.8936C42.3955 52.1184 40.5127 49.9598 39.061 48.4173C38.993 48.3494 38.959 48.2662 38.959 48.1678V46.7272C38.959 46.629 38.9949 46.5439 39.0667 46.472C39.1385 46.4002 39.2236 46.3643 39.3219 46.3643H40.5922C41.5903 46.3643 42.3936 46.2017 43.0024 45.8765C43.6111 45.5513 43.9987 45.0788 44.1651 44.4586H39.3219C39.2161 44.4586 39.1291 44.4248 39.061 44.3566C38.993 44.2887 38.959 44.2017 38.959 44.0959V42.9389C38.959 42.833 38.9931 42.7462 39.061 42.6781C39.129 42.61 39.216 42.576 39.3219 42.576H44.006C43.5751 41.7215 42.5618 41.2944 40.9665 41.2944H39.3219C39.2236 41.2944 39.1385 41.2585 39.0667 41.1867C38.9949 41.1149 38.959 41.0298 38.959 40.9315V39.4231C38.959 39.3172 38.9931 39.2303 39.061 39.1622C39.1291 39.0943 39.216 39.0602 39.3219 39.0602H48.7584C48.8644 39.0602 48.9511 39.0943 49.0194 39.1622C49.0872 39.2303 49.1211 39.3172 49.1211 39.4231V40.5802C49.1211 40.6861 49.0871 40.7731 49.0194 40.8411C48.9512 40.909 48.8645 40.943 48.7584 40.943H46.1159C46.4712 41.4042 46.7132 41.9488 46.8418 42.5762H48.7812Z" fill="#FFCB05"/>
<path fill-rule="evenodd" clip-rule="evenodd" d="M27.1069 38.5403L27.099 38.5288C24.2901 44.9004 25.8365 51.8172 28.875 56.375C29.0801 56.6827 29.2573 56.9631 29.4088 57.2183C30.9412 59.1446 32.8602 60.7501 35.0442 61.9234C26.7913 61.9328 18.5526 61.9328 10.2997 61.914C8.89128 61.914 7.53935 61.6172 6.33345 60.8259C4.37387 59.5399 3.32813 57.7499 3.17739 55.4182H3.16797C3.16797 55.3805 3.16797 55.3522 3.17739 55.324C3.16797 55.2768 3.16797 55.2345 3.16797 55.1968H3.18681C3.20632 54.9565 3.22425 54.7226 3.24183 54.4933L3.24184 54.4932C3.29217 53.8367 3.33961 53.2179 3.41292 52.5965C3.851 48.6632 5.48085 45.2716 8.30717 42.5254C9.29821 41.5656 10.3594 40.6811 11.4207 39.7966C12.1199 39.2139 12.8191 38.6311 13.4982 38.0268C14.12 37.4663 14.7135 36.8209 15.1375 36.1096C15.3259 35.7752 15.4248 35.436 15.4342 35.0922C15.4248 34.7483 15.3259 34.4091 15.1375 34.0747C14.7135 33.3634 14.12 32.7133 13.4982 32.1575C12.8169 31.5513 12.1162 30.9668 11.4154 30.3822L11.4154 30.3822L11.4154 30.3822C10.3573 29.4995 9.29897 28.6167 8.30717 27.6589C5.48085 24.9127 3.85571 21.5211 3.41292 17.5878C3.32822 16.8699 3.2746 16.1554 3.21659 15.3824L3.18681 14.9876H3.16797C3.16797 14.9499 3.16797 14.9075 3.17739 14.8604C3.16797 14.8227 3.16797 14.7991 3.16797 14.7614H3.1821C3.33284 12.4297 4.37858 10.6397 6.33816 9.35375C7.54406 8.56237 8.89128 8.26561 10.3044 8.26561C18.562 8.24677 26.8243 8.24677 35.0866 8.25619C38.53 8.26561 41.2292 10.3901 41.9923 13.6451C42.0609 13.9326 42.091 14.2293 42.1234 14.5492V14.5492C42.1377 14.6904 42.1525 14.8361 42.1713 14.9876H42.11C42.1122 15.1612 42.1162 15.3324 42.1201 15.5015V15.5016C42.133 16.0616 42.1455 16.599 42.0912 17.1309C41.5448 22.4867 38.8456 26.6085 34.6956 29.9011C33.8148 30.603 32.9433 31.3237 32.0954 32.0774C31.841 32.2847 31.6008 32.5014 31.3559 32.7275C31.2847 32.7815 31.217 32.8425 31.1486 32.9041C31.1037 32.9444 31.0586 32.9851 31.012 33.0242C30.866 33.1608 30.7246 33.2974 30.6069 33.4482C30.5975 33.4576 30.588 33.467 30.588 33.4764C29.1231 34.9791 27.9548 36.6843 27.1069 38.5403ZM11 13.0625H35.0625C36.2083 13.0625 38.5 13.75 38.5 16.5C38.5 19.25 38.5 20.625 35.75 24.0625C33 27.5 23.375 31.625 23.375 31.625C23.375 31.625 13.0625 27.5 10.3125 24.0625C7.5625 20.625 6.875 19.3875 6.875 17.1875C6.875 14.4375 8.25 13.0625 11 13.0625Z" fill="#2F3245"/>
</svg>
