<svg width="54" height="54" viewBox="0 0 54 54" fill="none" xmlns="http://www.w3.org/2000/svg">
<path d="M8.79848 33.929C8.91315 33.9283 9.02681 33.9504 9.13287 33.9939C9.23894 34.0375 9.3353 34.1017 9.41638 34.1828C9.49746 34.2639 9.56166 34.3602 9.60523 34.4663C9.64881 34.5723 9.6709 34.686 9.67024 34.8007V50.3975C9.67068 50.512 9.64841 50.6255 9.60474 50.7313C9.56106 50.8372 9.49683 50.9333 9.41578 51.0142C9.33472 51.0951 9.23843 51.1592 9.13248 51.2027C9.02652 51.2461 8.91301 51.2682 8.79848 51.2675H1.87016C1.75579 51.268 1.64245 51.2457 1.53669 51.2022C1.43094 51.1586 1.33486 51.0945 1.25398 51.0136C1.1731 50.9328 1.10902 50.8367 1.06545 50.7309C1.02188 50.6252 0.999672 50.5118 1.00011 50.3975V34.8007C0.999447 34.6861 1.02149 34.5726 1.06496 34.4667C1.10843 34.3607 1.17246 34.2644 1.25336 34.1834C1.33427 34.1023 1.43043 34.0381 1.5363 33.9944C1.64217 33.9508 1.75564 33.9285 1.87016 33.929H8.79848ZM25.267 34.8007C27.081 34.8007 28.71 36.2125 28.71 37.9982C28.71 39.7898 27.411 41.7358 25.267 41.7358H17.4686C16.2096 41.6228 16.2096 43.5755 17.4686 43.4623H25.267C28.3765 43.4623 30.8908 40.6611 30.4078 37.5243L38.4906 35.2679C40.2208 34.7847 42.0254 34.9639 43.0271 36.617C44.015 38.2473 43.3569 40.3297 41.7931 41.3312L29.2212 49.3801C25.668 51.9058 21.2772 51.4553 19.3492 50.9731L11.4036 49.2482V35.73C12.6128 35.219 14.0956 34.8007 15.7336 34.8007H25.267Z" fill="#2F3245"/>
<path d="M35.5229 4.02322C34.4733 3.77513 33.3733 3.64487 32.2779 3.64576C31.9128 3.64608 31.5482 3.66196 31.1861 3.69144C29.4002 3.83838 27.4105 4.35942 25.6323 5.62954L22.2214 8.06537H34.7984C37.174 8.06537 39.1368 10.0164 39.1368 12.3971V13.2688H30.4684C28.5628 13.2688 27.0017 14.83 27.0017 16.7356C27.0017 18.6411 28.5628 20.2039 30.4684 20.2039H38.2668C39.9054 20.2039 41.389 19.7856 42.5985 19.273V5.69562L35.5229 4.02322Z" fill="#FFCB05"/>
<path d="M53.002 4.59871C53.0024 4.15313 52.6658 3.77997 52.181 3.73542H45.2036C44.7243 3.73264 44.3335 4.11939 44.3318 4.59871V20.204C44.3337 20.6833 44.7243 21.0698 45.2036 21.0672H52.1387C52.6147 21.0653 53 20.68 53.002 20.204V4.59871Z" fill="#FFCB05"/>
<path d="M37.2427 11.5338C36.8806 10.5298 35.9203 9.80045 34.7984 9.80045H7.06475C5.63933 9.80045 4.46811 10.9717 4.46811 12.3971V28.0007C4.46811 29.4261 5.63933 30.599 7.06475 30.599H34.7984C36.2238 30.599 37.4035 29.4261 37.4035 28.0007V21.9357H33.9351V23.6639C33.9369 24.1452 33.5463 24.5357 33.065 24.534C32.0975 24.534 31.3384 25.2998 31.3384 26.2673C31.3368 26.7462 30.9472 27.1324 30.4684 27.1306H11.4032C10.9244 27.1325 10.5349 26.7462 10.5331 26.2673C10.5331 25.2998 9.76565 24.534 8.7981 24.534C8.31931 24.5323 7.93308 24.1427 7.93481 23.6639V16.7356C7.93298 16.2567 8.31931 15.8656 8.7981 15.8639C9.76565 15.8639 10.5331 15.098 10.5331 14.1305C10.5348 13.6517 10.9244 13.2655 11.4032 13.2672H26.614C27.5692 12.2079 28.9448 11.5338 30.4684 11.5338H37.2427Z" fill="#FFCB05"/>
<path d="M24.4033 20.1955C24.4033 18.2912 22.8393 16.7356 20.9349 16.7356C19.0306 16.7356 17.4683 18.2912 17.4683 20.1955C17.4683 22.0999 19.0306 23.6639 20.9349 23.6639C22.8393 23.6639 24.4034 22.0999 24.4033 20.1955Z" fill="#FFCB05"/>
</svg>
