<svg width="41" height="41" viewBox="0 0 41 41" fill="none" xmlns="http://www.w3.org/2000/svg">
<path fill-rule="evenodd" clip-rule="evenodd" d="M40.5 3.3339C40.4974 2.45058 40.1454 1.60416 39.5209 0.979508C38.8964 0.354851 38.05 0.00271319 37.1667 0H33.8334C32.95 0.00268682 32.1036 0.354814 31.4791 0.979473C30.8545 1.60413 30.5025 2.45056 30.4999 3.3339V36.6696C30.5026 37.5529 30.8546 38.3993 31.4792 39.0239C32.1037 39.6485 32.9501 40.0007 33.8334 40.0035H37.1667C38.05 40.0007 38.8963 39.6485 39.5208 39.0239C40.1453 38.3992 40.4973 37.5529 40.5 36.6696V3.3339Z" fill="#FFCB05"/>
<path d="M24.5236 10.9776C25.1487 11.6028 25.4999 12.4506 25.5001 13.3347V36.6696C25.4999 37.5536 25.1487 38.4014 24.5236 39.0266C23.8985 39.6518 23.0508 40.0031 22.1667 40.0035H18.8334C17.9494 40.0031 17.1016 39.6518 16.4766 39.0266C15.8515 38.4014 15.5003 37.5536 15.5001 36.6696V13.3347C15.5003 12.4506 15.8515 11.6028 16.4766 10.9777C17.1016 10.3525 17.9494 10.0011 18.8334 10.0008H22.1667C23.0508 10.0011 23.8985 10.3525 24.5236 10.9776Z" fill="#2F3245"/>
<path d="M9.5235 20.9786C10.1486 21.6037 10.4998 22.4514 10.5001 23.3355V36.6695C10.4999 37.5536 10.1486 38.4014 9.52356 39.0266C8.89847 39.6518 8.05071 40.0031 7.16665 40.0034H3.83331C2.94927 40.0031 2.10153 39.6517 1.47647 39.0266C0.851402 38.4014 0.500177 37.5536 0.5 36.6695V23.3355C0.500208 22.4515 0.851453 21.6037 1.47652 20.9786C2.10158 20.3535 2.9493 20.0022 3.83331 20.0019H7.16665C8.05067 20.0021 8.89842 20.3534 9.5235 20.9786Z" fill="#2F3245"/>
</svg>
