<svg width="41" height="40" viewBox="0 0 41 40" fill="none" xmlns="http://www.w3.org/2000/svg">
<path d="M18.2805 5.2433C18.9126 4.45636 19.2711 3.46738 19.2711 2.42972V0H10.1431V2.42972C10.1431 3.46738 10.5016 4.45636 11.1337 5.2433H18.2805Z" fill="#FFCB05"/>
<path d="M18.22 27.5527C18.22 23.4007 21.5978 20.0228 25.7498 20.0228C25.8127 20.0228 25.8754 20.0236 25.9379 20.0252C24.5533 15.1218 21.5615 10.2182 18.3232 7.18359H11.0882C7.80777 10.2602 4.7761 15.2532 3.41588 20.2225C2.20611 24.6424 5.55127 28.9983 10.1337 28.9983H18.3598C18.2684 28.5303 18.22 28.0471 18.22 27.5527ZM15.8437 23.6876H13.9017V22.3848C12.5069 22.1823 11.432 20.979 11.432 19.529H13.374C13.374 20.0496 13.7975 20.4732 14.3182 20.4732H15.4082C15.9479 20.4732 16.387 20.0342 16.387 19.4945C16.387 18.9548 15.948 18.5157 15.4082 18.5157H14.3372C12.7268 18.5157 11.4165 17.2054 11.4165 15.5949C11.4165 14.1324 12.4971 12.9177 13.9018 12.7068V11.4019H15.8437V12.7107C17.2371 12.9321 18.3056 14.1415 18.3056 15.5961H16.3637C16.3637 15.0557 15.9241 14.6161 15.3837 14.6161H14.3372C13.7976 14.6161 13.3585 15.0552 13.3585 15.5949C13.3585 16.1346 13.7976 16.5737 14.3372 16.5737H15.4082C17.0187 16.5737 18.329 17.8839 18.329 19.4944C18.329 20.9569 17.2484 22.1717 15.8437 22.3826L15.8437 23.6876Z" fill="#FFCB05"/>
<path d="M13.9017 23.6876H15.8437L15.8437 22.3826C17.2484 22.1717 18.329 20.9569 18.329 19.4944C18.329 17.8839 17.0187 16.5737 15.4082 16.5737H14.3372C13.7976 16.5737 13.3585 16.1346 13.3585 15.5949C13.3585 15.0552 13.7976 14.6161 14.3372 14.6161H15.3837C15.9241 14.6161 16.3637 15.0557 16.3637 15.5961H18.3056C18.3056 14.1415 17.2371 12.9321 15.8437 12.7107V11.4019H13.9018V12.7068C12.4971 12.9177 11.4165 14.1324 11.4165 15.5949C11.4165 17.2054 12.7268 18.5157 14.3372 18.5157H15.4082C15.948 18.5157 16.387 18.9548 16.387 19.4945C16.387 20.0342 15.9479 20.4732 15.4082 20.4732H14.3182C13.7975 20.4732 13.374 20.0496 13.374 19.529H11.432C11.432 20.979 12.5069 22.1823 13.9017 22.3848V23.6876Z" fill="#FFCB05"/>
<path d="M17.4707 15.3227C17.432 15.2839 17.3824 15.2645 17.3222 15.2645H16.2178C16.1446 14.9064 16.0068 14.5956 15.8044 14.3324H17.3092C17.3696 14.3324 17.419 14.313 17.4579 14.2742C17.4964 14.2354 17.5158 14.1857 17.5158 14.1253V13.4649C17.5158 13.4045 17.4964 13.3549 17.4579 13.3161C17.419 13.2773 17.3696 13.2578 17.3092 13.2578H11.9357C11.8753 13.2578 11.8259 13.2773 11.7871 13.316C11.7484 13.3549 11.729 13.4045 11.729 13.4649V14.3258C11.729 14.3819 11.7495 14.4305 11.7904 14.4715C11.8313 14.5124 11.8797 14.5329 11.9357 14.5329H12.8722C13.7806 14.5329 14.3576 14.7767 14.603 15.2644H11.9357C11.8753 15.2644 11.8258 15.2838 11.7871 15.3226C11.7484 15.3615 11.729 15.411 11.729 15.4715V16.1318C11.729 16.1922 11.7483 16.2418 11.7871 16.2806C11.8259 16.3195 11.8754 16.3388 11.9357 16.3388H14.6936C14.5988 16.6928 14.3781 16.9624 14.0315 17.148C13.6848 17.3336 13.2274 17.4264 12.659 17.4264H11.9357C11.8797 17.4264 11.8313 17.4469 11.7904 17.4879C11.7494 17.5289 11.729 17.5775 11.729 17.6335V18.4557C11.729 18.5119 11.7483 18.5593 11.7871 18.5981C12.6138 19.4784 13.6859 20.7104 15.0035 22.2942C15.0423 22.3461 15.0961 22.3719 15.165 22.3719H16.4244C16.5149 22.3719 16.5774 22.3332 16.6117 22.2554C16.6547 22.1777 16.6463 22.1043 16.5858 22.0353C15.3287 20.4903 14.3405 19.3338 13.6214 18.5657C14.3534 18.4794 14.9476 18.242 15.404 17.8537C15.8604 17.4653 16.1381 16.9603 16.2372 16.3389H17.3222C17.3824 16.3389 17.432 16.3196 17.4707 16.2807C17.5095 16.242 17.5289 16.1923 17.5289 16.1319V15.4717C17.5289 15.4112 17.5095 15.3616 17.4707 15.3227Z" fill="white"/>
<path fill-rule="evenodd" clip-rule="evenodd" d="M19.4985 29.5205C19.4985 24.8223 23.3208 21 28.019 21C32.7173 21 36.5396 24.8223 36.5396 29.5205C36.5396 34.2187 32.7173 38.041 28.019 38.041C23.3208 38.041 19.4985 34.2187 19.4985 29.5205ZM25.9531 30.0997C26.0448 30.1915 26.1583 30.2373 26.2937 30.2373C26.4291 30.2373 26.5426 30.1915 26.6344 30.0997C26.7258 30.0083 26.7715 29.8949 26.7715 29.7595C26.7715 29.6242 26.7258 29.5106 26.6344 29.4189C26.5426 29.3275 26.4291 29.2818 26.2937 29.2818C26.1583 29.2818 26.0448 29.3275 25.9531 29.4189C25.8616 29.5106 25.8159 29.6242 25.8159 29.7595C25.8159 29.8949 25.8616 30.0083 25.9531 30.0997ZM27.8647 30.0997C27.9561 30.1915 28.0695 30.2373 28.2049 30.2373C28.3402 30.2373 28.4538 30.1915 28.5455 30.0997C28.6369 30.0083 28.6826 29.8949 28.6826 29.7595C28.6826 29.6242 28.6369 29.5106 28.5455 29.4189C28.4538 29.3275 28.3402 29.2818 28.2049 29.2818C28.0695 29.2818 27.9561 29.3275 27.8647 29.4189C27.7729 29.5106 27.7271 29.6242 27.7271 29.7595C27.7271 29.8949 27.7729 30.0083 27.8647 30.0997ZM29.7758 30.0997C29.8672 30.1915 29.9806 30.2373 30.116 30.2373C30.2514 30.2373 30.3648 30.1915 30.4562 30.0997C30.5479 30.0083 30.5938 29.8949 30.5938 29.7595C30.5938 29.6242 30.5479 29.5106 30.4562 29.4189C30.3648 29.3275 30.2514 29.2818 30.116 29.2818C29.9806 29.2818 29.8672 29.3275 29.7758 29.4189C29.6841 29.5106 29.6382 29.6242 29.6382 29.7595C29.6382 29.8949 29.6841 30.0083 29.7758 30.0997ZM24.1852 33.7792C24.3725 33.9661 24.5976 34.0596 24.8604 34.0596H31.5494C31.8121 34.0596 32.0372 33.9661 32.2245 33.7792C32.4114 33.5919 32.5049 33.3668 32.5049 33.104V26.415C32.5049 26.1523 32.4114 25.9274 32.2245 25.7404C32.0372 25.5531 31.8121 25.4595 31.5494 25.4595H31.0716V24.5039H30.116V25.4595H26.2937V24.5039H25.3381V25.4595H24.8604C24.5976 25.4595 24.3725 25.5531 24.1852 25.7404C23.9983 25.9274 23.9048 26.1523 23.9048 26.415V33.104C23.9048 33.3668 23.9983 33.5919 24.1852 33.7792ZM31.5494 33.104H24.8604V28.3262H31.5494V33.104Z" fill="#2F3245"/>
</svg>
