<svg width="40" height="40" viewBox="0 0 40 40" fill="none" xmlns="http://www.w3.org/2000/svg">
<path d="M34.2834 12.6305V4.989C34.2834 3.8925 33.3909 3 32.2859 3C31.1894 3 30.2969 3.8925 30.2969 4.989V13.625H33.2889C33.8329 13.625 34.2834 13.183 34.2834 12.6305Z" fill="#FFCB05"/>
<path d="M35.9398 28.6953H25.3148C24.7623 28.6953 24.3203 29.1373 24.3203 29.6898V36.9998H35.9398C36.4923 36.9998 36.9343 36.5578 36.9343 36.0053V29.6983C36.9343 29.1458 36.4923 28.6953 35.9398 28.6953Z" fill="#2F3245"/>
<path d="M30.6294 21.0625C27.8839 21.0625 25.6484 23.298 25.6484 26.0435V26.7065H27.6374V26.0435C27.6374 24.3945 28.9804 23.0515 30.6294 23.0515C31.8959 23.0515 33.0264 23.8505 33.4514 25.0405C33.6384 25.559 34.2079 25.831 34.7264 25.644C35.2449 25.457 35.5169 24.8875 35.3299 24.369C34.6244 22.397 32.7374 21.0625 30.6294 21.0625Z" fill="#2F3245"/>
<path d="M28.3068 19.473V4.989C28.3068 4.2665 28.5023 3.5865 28.8423 3H6.05381C4.40481 3 3.07031 4.3345 3.07031 5.992V36.0055C3.07031 36.558 3.51231 37 4.06481 37H22.3228V29.6985C22.3228 28.6615 22.8498 27.752 23.6488 27.2165V26.0435C23.6573 23.009 25.5953 20.425 28.3068 19.473ZM9.70881 32.886H7.05681C6.50431 32.886 6.06231 32.444 6.06231 31.8915C6.06231 31.339 6.50431 30.897 7.05681 30.897H9.70881C10.2613 30.897 10.7033 31.339 10.7033 31.8915C10.7033 32.4355 10.2613 32.886 9.70881 32.886ZM9.70881 28.8995H7.05681C6.50431 28.8995 6.06231 28.4575 6.06231 27.905C6.06231 27.3525 6.50431 26.9105 7.05681 26.9105H9.70881C10.2613 26.9105 10.7033 27.3525 10.7033 27.905C10.7033 28.4575 10.2613 28.8995 9.70881 28.8995ZM20.3338 32.886H13.6953C13.1428 32.886 12.7008 32.444 12.7008 31.8915C12.7008 31.339 13.1428 30.897 13.6953 30.897H20.3338C20.8863 30.897 21.3283 31.339 21.3283 31.8915C21.3283 32.4355 20.8863 32.886 20.3338 32.886ZM20.3338 28.8995H13.6953C13.1428 28.8995 12.7008 28.4575 12.7008 27.905C12.7008 27.3525 13.1428 26.9105 13.6953 26.9105H20.3338C20.8863 26.9105 21.3283 27.3525 21.3283 27.905C21.3283 28.4575 20.8863 28.8995 20.3338 28.8995ZM15.6843 21.904C12.4033 21.904 9.73431 19.235 9.73431 15.954C9.73431 12.673 12.4033 10.004 15.6843 10.004C18.9653 10.004 21.6343 12.673 21.6343 15.954C21.6428 19.235 18.9653 21.904 15.6843 21.904Z" fill="#FFCB05"/>
<path d="M17.9974 14.2462C17.9634 14.2122 17.9294 14.1952 17.8784 14.1952H16.9774C16.9179 13.9062 16.8074 13.6512 16.6374 13.4302H17.8699C17.9209 13.4302 17.9634 13.4132 17.9889 13.3792C18.0229 13.3452 18.0399 13.3027 18.0399 13.2602V12.7247C18.0399 12.6737 18.0229 12.6312 17.9889 12.6057C17.9549 12.5717 17.9124 12.5547 17.8699 12.5547H13.4754C13.4244 12.5547 13.3819 12.5717 13.3564 12.6057C13.3224 12.6397 13.3054 12.6737 13.3054 12.7247V13.4302C13.3054 13.4727 13.3224 13.5152 13.3564 13.5492C13.3904 13.5832 13.4329 13.6002 13.4754 13.6002H14.2404C14.9799 13.6002 15.4559 13.7957 15.6599 14.1952H13.4754C13.4244 14.1952 13.3819 14.2122 13.3564 14.2462C13.3224 14.2802 13.3054 14.3227 13.3054 14.3652V14.9007C13.3054 14.9517 13.3224 14.9942 13.3564 15.0197C13.3904 15.0537 13.4329 15.0707 13.4754 15.0707H15.7279C15.6514 15.3597 15.4729 15.5807 15.1839 15.7337C14.9034 15.8867 14.5294 15.9632 14.0619 15.9632H13.4669C13.4244 15.9632 13.3819 15.9802 13.3479 16.0142C13.3139 16.0482 13.2969 16.0907 13.2969 16.1332V16.8047C13.2969 16.8472 13.3139 16.8897 13.3479 16.9237C14.0279 17.6462 14.9034 18.6492 15.9829 19.9412C16.0084 19.9837 16.0509 20.0007 16.1104 20.0007H17.1389C17.2154 20.0007 17.2664 19.9667 17.2919 19.9072C17.3259 19.8477 17.3174 19.7882 17.2749 19.7287C16.2464 18.4707 15.4389 17.5272 14.8524 16.8982C15.4474 16.8302 15.9404 16.6347 16.3144 16.3202C16.6884 16.0057 16.9179 15.5892 16.9944 15.0877H17.8784C17.9294 15.0877 17.9719 15.0707 17.9974 15.0367C18.0314 15.0027 18.0484 14.9687 18.0484 14.9177V14.3822C18.0399 14.3227 18.0229 14.2802 17.9974 14.2462Z" fill="#2F3245"/>
</svg>
