<svg width="40" height="40" viewBox="0 0 40 40" fill="none" xmlns="http://www.w3.org/2000/svg">
<g clip-path="url(#clip0_3806_17483)">
<path d="M25.8594 5.26562V2.34375H27.0312C27.679 2.34375 28.2031 1.81961 28.2031 1.17188C28.2031 0.524141 27.679 0 27.0312 0C22.268 0 22.4195 0 17.6562 0C17.0085 0 16.4844 0.524141 16.4844 1.17188C16.4844 1.81961 17.0085 2.34375 17.6562 2.34375H18.8281V5.26531C13.4258 6.80078 9.45312 11.7683 9.45312 17.6562C9.45312 24.7641 15.2359 30.5469 22.3438 30.5469C23.0934 30.5469 23.8338 30.4602 24.5666 30.332C23.9206 29.6069 23.5156 28.6622 23.5156 27.6172C23.5156 26.9089 23.7139 26.2539 24.0322 25.6728C23.481 25.7881 22.919 25.8594 22.3438 25.8594C17.821 25.8594 14.1406 22.179 14.1406 17.6562C14.1406 13.1335 17.821 9.45312 22.3438 9.45312C24.6832 9.45312 26.8423 10.4672 28.3658 12.1199C28.8564 11.9119 29.3955 11.7969 29.9609 11.7969H33.7712C32.1405 8.63359 29.27 6.25195 25.8594 5.26562Z" fill="#FFCB05"/>
<path d="M22.3438 11.7969C21.696 11.7969 21.1719 12.321 21.1719 12.9688V16.4844H17.6562C17.0085 16.4844 16.4844 17.0085 16.4844 17.6562C16.4844 18.304 17.0085 18.8281 17.6562 18.8281H22.3438C22.9915 18.8281 23.5156 18.304 23.5156 17.6562V12.9688C23.5156 12.321 22.9915 11.7969 22.3438 11.7969Z" fill="#FFCB05"/>
<path d="M38.2422 14.1406H29.9609C28.9902 14.1406 28.2031 14.9276 28.2031 15.8984C28.2031 16.8692 28.9902 17.6562 29.9609 17.6562H38.2422C39.213 17.6562 40 16.8692 40 15.8984C40 14.9276 39.213 14.1406 38.2422 14.1406Z" fill="#2F3245"/>
<path d="M35.8203 20H27.6172C26.6464 20 25.8594 20.787 25.8594 21.7578C25.8594 22.7286 26.6464 23.5156 27.6172 23.5156H35.8203C36.7911 23.5156 37.5781 22.7286 37.5781 21.7578C37.5781 20.787 36.7911 20 35.8203 20Z" fill="#2F3245"/>
<path d="M33.4766 25.8594H27.6172C26.6464 25.8594 25.8594 26.6463 25.8594 27.6172C25.8594 28.588 26.6464 29.375 27.6172 29.375H33.4766C34.4473 29.375 35.2344 28.588 35.2344 27.6172C35.2344 26.6463 34.4473 25.8594 33.4766 25.8594Z" fill="#2F3245"/>
<path d="M31.1328 31.7188H27.6172C26.6464 31.7188 25.8594 32.5057 25.8594 33.4766C25.8594 34.4473 26.6464 35.2344 27.6172 35.2344H31.1328C32.1036 35.2344 32.8906 34.4473 32.8906 33.4766C32.8906 32.5057 32.1036 31.7188 31.1328 31.7188Z" fill="#2F3245"/>
<path d="M23.5156 33.4768C23.5156 33.2461 23.5471 33.0234 23.5838 32.803C23.1708 32.8367 22.7601 32.8909 22.3437 32.8909C13.9437 32.8909 7.10932 26.0565 7.10932 17.6565C7.10932 12.1278 10.0801 7.29177 14.4992 4.62185C14.4401 4.40396 14.3999 4.10372 14.3282 3.88896L14.081 3.14622C13.9483 2.75028 13.6164 2.45388 13.2078 2.36919C12.8016 2.28224 12.377 2.42185 12.0978 2.732L5.66846 9.95356C5.08604 10.6012 4.76557 11.4367 4.76557 12.3065V22.7458C4.76557 23.6853 4.32119 24.5676 3.65744 25.2325L0.343301 28.5468C-0.114434 29.0045 -0.114434 29.7461 0.343301 30.2039L9.79643 39.6569C10.2542 40.1147 10.9958 40.1147 11.4535 39.6569L14.7678 36.2646C15.4327 35.6008 16.315 35.2346 17.2546 35.2346H23.927C23.671 34.6997 23.5156 34.1082 23.5156 33.4768Z" fill="#2F3245"/>
</g>
<defs>
<clipPath id="clip0_3806_17483">
<rect width="40" height="40" fill="white"/>
</clipPath>
</defs>
</svg>
