<svg width="41" height="40" viewBox="0 0 41 40" fill="none" xmlns="http://www.w3.org/2000/svg">
<g clip-path="url(#clip0_3806_17519)">
<path d="M14.7727 22.182L9.32267 16.732L9.91433 16.1445C10.0553 16.0011 10.1343 15.8081 10.1343 15.607C10.1343 15.4059 10.0553 15.2129 9.91433 15.0695L9.32267 14.482L14.9852 8.8195L15.5727 9.41117C15.7157 9.55284 15.9089 9.63222 16.1102 9.632C16.5018 9.632 16.6268 9.432 17.2435 8.82367L22.6852 14.2653L23.756 13.1945L17.0602 6.49867C16.866 6.30681 16.604 6.19922 16.331 6.19922C16.058 6.19922 15.796 6.30681 15.6018 6.49867L7.006 15.0987C6.91 15.1943 6.83383 15.3079 6.78186 15.433C6.72988 15.5582 6.70312 15.6923 6.70312 15.8278C6.70312 15.9633 6.72988 16.0975 6.78186 16.2226C6.83383 16.3477 6.91 16.4614 7.006 16.557L13.6977 23.2528L14.7727 22.182Z" fill="#FFCB05"/>
<path d="M34.0078 23.4456L27.3161 16.7539L26.2453 17.8247L31.687 23.2706L31.0953 23.8581C30.9533 24.0009 30.8736 24.1942 30.8736 24.3956C30.8736 24.597 30.9533 24.7902 31.0953 24.9331L31.687 25.5206L26.0328 31.1789L25.4411 30.5956C25.3703 30.524 25.2859 30.4672 25.1929 30.4286C25.0999 30.39 25.0002 30.3702 24.8995 30.3706C24.4828 30.3706 24.3661 30.5872 23.7745 31.2039L18.3286 25.7372L17.2578 26.8081L23.9495 33.5039C24.1437 33.6958 24.4057 33.8034 24.6786 33.8034C24.9516 33.8034 25.2136 33.6958 25.4078 33.5039L34.0078 24.9039C34.1997 24.7097 34.3073 24.4477 34.3073 24.1747C34.3073 23.9018 34.1997 23.6398 34.0078 23.4456Z" fill="#FFCB05"/>
<path d="M15.3583 21.5875L22.0917 14.8542L17.2375 10C16.9383 10.2985 16.533 10.4661 16.1104 10.4661C15.6878 10.4661 15.2825 10.2985 14.9833 10L10.5 14.4792C10.7982 14.7776 10.9657 15.1823 10.9657 15.6042C10.9657 16.0261 10.7982 16.4307 10.5 16.7292L15.3583 21.5875ZM15.4542 14.95C15.5322 14.8724 15.6378 14.8288 15.7479 14.8288C15.858 14.8288 15.9636 14.8724 16.0417 14.95L17.95 16.8542C18.0088 16.9124 18.0488 16.9869 18.0651 17.068C18.0814 17.1492 18.0731 17.2333 18.0414 17.3098C18.0097 17.3862 17.9559 17.4515 17.8869 17.4972C17.818 17.543 17.7369 17.5671 17.6542 17.5667C17.5993 17.567 17.545 17.5565 17.4942 17.5357C17.4434 17.515 17.3973 17.4844 17.3583 17.4458L15.4542 15.5375C15.3766 15.4594 15.333 15.3538 15.333 15.2437C15.333 15.1337 15.3766 15.0281 15.4542 14.95Z" fill="#FFCB05"/>
<path d="M25.6552 18.4141L18.9219 25.1516L23.776 30.0016C24.0752 29.7031 24.4805 29.5355 24.9031 29.5355C25.3257 29.5355 25.731 29.7031 26.0302 30.0016L30.501 25.5224C30.2028 25.2239 30.0353 24.8193 30.0353 24.3974C30.0353 23.9755 30.2028 23.5709 30.501 23.2724L25.6552 18.4141ZM25.5552 25.0516C25.4771 25.1292 25.3715 25.1727 25.2615 25.1727C25.1514 25.1727 25.0458 25.1292 24.9677 25.0516L23.0594 23.1474C22.9809 23.0689 22.9368 22.9625 22.9368 22.8516C22.9368 22.7406 22.9809 22.6342 23.0594 22.5557C23.1378 22.4773 23.2442 22.4332 23.3552 22.4332C23.4662 22.4332 23.5726 22.4773 23.651 22.5557L25.5552 24.4641C25.6328 24.5421 25.6764 24.6477 25.6764 24.7578C25.6764 24.8679 25.6328 24.9735 25.5552 25.0516Z" fill="#FFCB05"/>
<path d="M30.1164 8.00391L8.50391 29.6164C9.20955 30.4949 10.0087 31.2941 10.8872 31.9997L32.4956 10.3914C31.7926 9.51063 30.9947 8.70997 30.1164 8.00391Z" fill="#2F3245"/>
<path d="M20.5013 0.417969C16.6281 0.417969 12.8419 1.56651 9.62139 3.71836C6.40093 5.8702 3.89089 8.9287 2.40867 12.5071C0.926454 16.0855 0.538639 20.023 1.29427 23.8218C2.04989 27.6206 3.91502 31.11 6.6538 33.8488C9.39258 36.5876 12.882 38.4527 16.6808 39.2083C20.4796 39.964 24.4171 39.5762 27.9955 38.0939C31.5739 36.6117 34.6324 34.1017 36.7843 30.8812C38.9361 27.6608 40.0846 23.8745 40.0846 20.0013C40.0846 17.4296 39.5781 14.883 38.594 12.5071C37.6098 10.1311 36.1673 7.97227 34.3488 6.15379C32.5303 4.33531 30.3715 2.89282 27.9955 1.90866C25.6196 0.924507 23.073 0.417969 20.5013 0.417969ZM20.5013 36.2138C17.2936 36.2146 14.1577 35.2641 11.4902 33.4825C8.82279 31.7009 6.74361 29.1683 5.5157 26.2049C4.28778 23.2415 3.96628 19.9806 4.59187 16.8344C5.21746 13.6883 6.76204 10.7984 9.03023 8.53022C11.2984 6.26203 14.1883 4.71746 17.3345 4.09186C20.4806 3.46627 23.7415 3.78777 26.7049 5.01569C29.6683 6.2436 32.201 8.32278 33.9825 10.9902C35.7641 13.6577 36.7146 16.7936 36.7138 20.0013C36.7039 24.2981 34.9926 28.416 31.9543 31.4543C28.916 34.4926 24.7981 36.2039 20.5013 36.2138Z" fill="#2F3245"/>
</g>
<defs>
<clipPath id="clip0_3806_17519">
<rect width="40" height="40" fill="white" transform="translate(0.5)"/>
</clipPath>
</defs>
</svg>
