<svg width="41" height="40" viewBox="0 0 41 40" fill="none" xmlns="http://www.w3.org/2000/svg">
<path d="M20.3374 0C13.8761 0 8.61865 5.25742 8.61865 11.7188C8.61865 18.1801 13.8761 23.4375 20.3374 23.4375C26.7987 23.4375 32.0562 18.1801 32.0562 11.7188C32.0562 5.25742 26.7987 0 20.3374 0ZM15.6499 7.03125H17.9937V9.375H15.6499V7.03125ZM17.6503 16.0629L15.9932 14.4058L23.0244 7.37453L24.6815 9.03164L17.6503 16.0629ZM25.0249 16.4062H22.6812V14.0625H25.0249V16.4062Z" fill="#FFCB05"/>
<path d="M37.1466 21.0938C33.8822 21.0938 30.8987 22.9388 29.4386 25.8586L25.9612 32.8125H15.6524V30.4688H24.5147L26.8581 25.7812H13.1209C11.5622 25.7812 10.0516 26.4141 9.03537 27.4612L3.51709 32.3891L10.9969 40L13.9335 37.5H28.7994C36.7954 21.4785 36.0694 23.2016 37.1466 21.0938Z" fill="#2F3245"/>
</svg>
