<svg width="66" height="55" viewBox="0 0 66 55" fill="none" xmlns="http://www.w3.org/2000/svg">
<g clip-path="url(#clip0_721_60550)">
<path d="M16.5793 9.49342H12.5449V22.817C16.9626 22.817 17.0433 22.7464 17.719 23.0288V10.5928C17.7191 10.445 17.6894 10.2986 17.6316 10.1625C17.5739 10.0265 17.4893 9.90343 17.3829 9.8008C17.2765 9.69816 17.1505 9.61805 17.0124 9.56523C16.8743 9.51242 16.727 9.48799 16.5793 9.49342Z" fill="#2F3245"/>
<path d="M16.5793 24.8341H12.5449V32.5902H16.5793C16.8709 32.5902 17.1505 32.4744 17.3567 32.2682C17.5628 32.062 17.6787 31.7824 17.6787 31.4908V25.9335C17.6787 25.6419 17.5628 25.3623 17.3567 25.1561C17.1505 24.9499 16.8709 24.8341 16.5793 24.8341Z" fill="#2F3245"/>
<path d="M0.0488281 9.49329H10.4979V36.1707H0.0488281V9.49329Z" fill="#2F3245"/>
<path d="M34.0785 4.4907C35.8435 4.81345 35.5914 4.79328 48.0072 9.3017C48.3401 8.85712 48.7727 8.49685 49.2702 8.24986C49.7677 8.00286 50.3162 7.87604 50.8716 7.87958C54.2 7.87958 54.1899 7.87958 54.7043 7.96027L57.2258 2.53402C57.3514 2.26472 57.4071 1.96805 57.3875 1.67152C57.368 1.37499 57.2739 1.0882 57.1139 0.837729C56.954 0.587263 56.7334 0.381233 56.4726 0.238742C56.2118 0.0962508 55.9193 0.0219121 55.6221 0.0226183H51.4062L50.6699 4.94457C50.6298 5.21206 50.485 5.45266 50.2675 5.61344C50.05 5.77422 49.7775 5.842 49.51 5.80187C49.2425 5.76175 49.0019 5.61701 48.8411 5.39948C48.6804 5.18196 48.6126 4.90948 48.6527 4.64199L49.3486 0.0226183H41.0176L41.5118 3.3409C41.5319 3.47205 41.5259 3.60586 41.4941 3.73468C41.4624 3.86349 41.4055 3.98478 41.3268 4.09159C41.2481 4.19839 41.1491 4.28863 41.0355 4.35711C40.9219 4.4256 40.7958 4.47099 40.6646 4.4907C40.5335 4.51074 40.3997 4.50472 40.2708 4.47296C40.142 4.44121 40.0207 4.38436 39.9139 4.30566C39.8071 4.22696 39.7169 4.12796 39.6484 4.01433C39.5799 3.9007 39.5345 3.77468 39.5148 3.64348L38.9702 0.00244639H34.7341C34.4369 0.00174019 34.1444 0.0760789 33.8836 0.21857C33.6228 0.361061 33.4022 0.567091 33.2423 0.817558C33.0823 1.06802 32.9882 1.35482 32.9687 1.65135C32.9491 1.94788 33.0047 2.24455 33.1304 2.51385L34.0785 4.4907Z" fill="#FFCB05"/>
<path d="M53.958 16.0492C54.3664 16.0466 54.7574 15.8831 55.0462 15.5943C55.335 15.3055 55.4985 14.9145 55.5011 14.5061V11.4198C55.4932 11.0148 55.3275 10.629 55.0392 10.3445C54.751 10.06 54.363 9.89932 53.958 9.89677C50.9322 9.89677 50.6094 9.79591 50.0547 10.1388C51.0884 10.7011 51.9186 11.5748 52.4273 12.6358C52.9361 13.6968 53.0976 14.8912 52.8888 16.0492H53.958Z" fill="#FFCB05"/>
<path d="M22.7516 30.6032C22.4841 30.6192 22.2212 30.5284 22.0207 30.3506C21.8202 30.1728 21.6986 29.9226 21.6825 29.6551C21.6665 29.3876 21.7573 29.1247 21.9351 28.9242C22.1129 28.7237 22.3631 28.6021 22.6306 28.586C23.7021 28.5278 24.7658 28.369 25.8077 28.112C27.6584 27.7789 29.3892 26.9653 30.8265 25.7528C32.2639 24.5402 33.3574 22.9713 33.9975 21.2031C34.5289 19.4482 34.7774 17.6199 34.7337 15.7869C44.2045 17.9655 47.9464 19.0649 48.2187 18.5202C48.6067 18.4178 48.9772 18.258 49.318 18.0462C50.1451 17.2998 50.3266 17.2494 50.6595 16.4627C50.8791 15.9447 50.9761 15.383 50.9429 14.8214C50.9096 14.2598 50.7471 13.7135 50.4678 13.2251C49.5399 11.7021 49.5601 12.0148 36.0651 7.11299C34.0682 6.38171 31.9363 6.09316 29.8169 6.26731C27.6974 6.44146 25.6412 7.07416 23.7905 8.12159L19.6956 10.4514V31.4706C19.6976 32.2109 19.4326 32.9271 18.9492 33.4878C19.8457 34.9415 21.0466 36.1837 22.4692 37.1288C22.7041 34.8688 23.1809 32.6405 23.8913 30.4822C23.5282 30.5629 23.4476 30.5528 22.7516 30.6032Z" fill="#2F3245"/>
<path fill-rule="evenodd" clip-rule="evenodd" d="M66.002 39.5695C66.002 51.0776 56.7028 54.6279 45.1947 54.6279C33.727 54.6279 24.3672 51.0776 24.3672 39.5292C24.4194 36.2952 25.0302 33.0945 26.1726 30.0686C28.9781 29.5584 31.5311 28.1209 33.4221 25.9866C35.3132 23.8523 36.4328 21.1448 36.6015 18.2982L46.052 20.5071C47.1893 20.7824 48.3842 20.6952 49.4694 20.2575C50.5545 19.8198 51.4756 19.0536 52.1036 18.0663C52.3797 18.0663 52.635 18.0698 52.8734 18.0732C54.1855 18.0916 54.9858 18.1028 55.9161 17.4712C61.9676 22.8268 66.002 31.9748 66.002 39.5695ZM50.485 31.2974C50.5992 31.2974 50.6932 31.3341 50.7666 31.4076C50.8401 31.4811 50.877 31.5749 50.877 31.6895V32.9389C50.877 33.0532 50.8401 33.1471 50.7666 33.2204C50.6932 33.294 50.5992 33.3306 50.485 33.3306H48.4271C48.2391 34.5065 47.7125 35.4622 46.8469 36.1971C45.9813 36.9319 44.8543 37.3811 43.466 37.5444C44.8298 38.998 46.7041 41.1865 49.0884 44.1101C49.2031 44.2408 49.2191 44.3796 49.1374 44.5266C49.0723 44.6739 48.9538 44.7472 48.7821 44.7472H46.3936C46.2629 44.7472 46.1609 44.6983 46.0873 44.6002C43.5884 41.6029 41.555 39.2716 39.9871 37.6058C39.9136 37.5324 39.877 37.4426 39.877 37.3363V35.7804C39.877 35.6744 39.9157 35.5825 39.9933 35.5049C40.0709 35.4273 40.1627 35.3885 40.2689 35.3885H41.6408C42.7188 35.3885 43.5863 35.2129 44.2438 34.8617C44.9013 34.5105 45.3198 34.0002 45.4995 33.3304H40.2689C40.1547 33.3304 40.0607 33.2938 39.9871 33.2202C39.9136 33.1469 39.877 33.0529 39.877 32.9386V31.6891C39.877 31.5747 39.9138 31.4809 39.9871 31.4074C40.0605 31.3339 40.1545 31.2972 40.2689 31.2972H45.3278C44.8623 30.3743 43.768 29.9131 42.0451 29.9131H40.2689C40.1627 29.9131 40.0709 29.8743 39.9933 29.7967C39.9157 29.7191 39.877 29.6273 39.877 29.5211V27.892C39.877 27.7776 39.9138 27.6838 39.9871 27.6102C40.0607 27.5369 40.1545 27.5001 40.2689 27.5001H50.4603C50.5748 27.5001 50.6685 27.5369 50.7422 27.6103C50.8154 27.6838 50.8521 27.7776 50.8521 27.892V29.1417C50.8521 29.256 50.8153 29.35 50.7422 29.4235C50.6686 29.4968 50.5749 29.5335 50.4604 29.5335H47.6064C47.9902 30.0316 48.2515 30.6198 48.3904 31.2974H50.485Z" fill="#FFCB05"/>
</g>
<defs>
<clipPath id="clip0_721_60550">
<rect width="66" height="54.6533" fill="white"/>
</clipPath>
</defs>
</svg>
