<svg width="40" height="40" viewBox="0 0 40 40" fill="none" xmlns="http://www.w3.org/2000/svg">
<path d="M34.2795 12.6305V4.989C34.2795 3.8925 33.387 3 32.282 3C31.1855 3 30.293 3.8925 30.293 4.989V13.625H33.285C33.829 13.625 34.2795 13.183 34.2795 12.6305Z" fill="#FFCB05"/>
<path d="M35.9379 28.6953H25.3129C24.7604 28.6953 24.3184 29.1373 24.3184 29.6898V36.9998H35.9379C36.4904 36.9998 36.9324 36.5578 36.9324 36.0053V29.6983C36.9324 29.1458 36.4904 28.6953 35.9379 28.6953Z" fill="#2F3245"/>
<path d="M30.6255 21.0625C27.88 21.0625 25.6445 23.298 25.6445 26.0435V26.7065H27.6335V26.0435C27.6335 24.3945 28.9765 23.0515 30.6255 23.0515C31.892 23.0515 33.0225 23.8505 33.4475 25.0405C33.6345 25.559 34.204 25.831 34.7225 25.644C35.241 25.457 35.513 24.8875 35.326 24.369C34.6205 22.397 32.7335 21.0625 30.6255 21.0625Z" fill="#2F3245"/>
<path d="M28.3049 19.473V4.989C28.3049 4.2665 28.5004 3.5865 28.8404 3H6.05186C4.40286 3 3.06836 4.3345 3.06836 5.992V36.0055C3.06836 36.558 3.51036 37 4.06286 37H22.3209V29.6985C22.3209 28.6615 22.8479 27.752 23.6469 27.2165V26.0435C23.6554 23.009 25.5934 20.425 28.3049 19.473ZM9.70686 32.886H7.05486C6.50236 32.886 6.06036 32.444 6.06036 31.8915C6.06036 31.339 6.50236 30.897 7.05486 30.897H9.70686C10.2594 30.897 10.7014 31.339 10.7014 31.8915C10.7014 32.4355 10.2594 32.886 9.70686 32.886ZM9.70686 28.8995H7.05486C6.50236 28.8995 6.06036 28.4575 6.06036 27.905C6.06036 27.3525 6.50236 26.9105 7.05486 26.9105H9.70686C10.2594 26.9105 10.7014 27.3525 10.7014 27.905C10.7014 28.4575 10.2594 28.8995 9.70686 28.8995ZM20.3319 32.886H13.6934C13.1409 32.886 12.6989 32.444 12.6989 31.8915C12.6989 31.339 13.1409 30.897 13.6934 30.897H20.3319C20.8844 30.897 21.3264 31.339 21.3264 31.8915C21.3264 32.4355 20.8844 32.886 20.3319 32.886ZM20.3319 28.8995H13.6934C13.1409 28.8995 12.6989 28.4575 12.6989 27.905C12.6989 27.3525 13.1409 26.9105 13.6934 26.9105H20.3319C20.8844 26.9105 21.3264 27.3525 21.3264 27.905C21.3264 28.4575 20.8844 28.8995 20.3319 28.8995ZM15.6824 21.904C12.4014 21.904 9.73236 19.235 9.73236 15.954C9.73236 12.673 12.4014 10.004 15.6824 10.004C18.9634 10.004 21.6324 12.673 21.6324 15.954C21.6409 19.235 18.9634 21.904 15.6824 21.904Z" fill="#FFCB05"/>
<path d="M17.9935 14.2462C17.9595 14.2122 17.9255 14.1952 17.8745 14.1952H16.9735C16.914 13.9062 16.8035 13.6512 16.6335 13.4302H17.866C17.917 13.4302 17.9595 13.4132 17.985 13.3792C18.019 13.3452 18.036 13.3027 18.036 13.2602V12.7247C18.036 12.6737 18.019 12.6312 17.985 12.6057C17.951 12.5717 17.9085 12.5547 17.866 12.5547H13.4715C13.4205 12.5547 13.378 12.5717 13.3525 12.6057C13.3185 12.6397 13.3015 12.6737 13.3015 12.7247V13.4302C13.3015 13.4727 13.3185 13.5152 13.3525 13.5492C13.3865 13.5832 13.429 13.6002 13.4715 13.6002H14.2365C14.976 13.6002 15.452 13.7957 15.656 14.1952H13.4715C13.4205 14.1952 13.378 14.2122 13.3525 14.2462C13.3185 14.2802 13.3015 14.3227 13.3015 14.3652V14.9007C13.3015 14.9517 13.3185 14.9942 13.3525 15.0197C13.3865 15.0537 13.429 15.0707 13.4715 15.0707H15.724C15.6475 15.3597 15.469 15.5807 15.18 15.7337C14.8995 15.8867 14.5255 15.9632 14.058 15.9632H13.463C13.4205 15.9632 13.378 15.9802 13.344 16.0142C13.31 16.0482 13.293 16.0907 13.293 16.1332V16.8047C13.293 16.8472 13.31 16.8897 13.344 16.9237C14.024 17.6462 14.8995 18.6492 15.979 19.9412C16.0045 19.9837 16.047 20.0007 16.1065 20.0007H17.135C17.2115 20.0007 17.2625 19.9667 17.288 19.9072C17.322 19.8477 17.3135 19.7882 17.271 19.7287C16.2425 18.4707 15.435 17.5272 14.8485 16.8982C15.4435 16.8302 15.9365 16.6347 16.3105 16.3202C16.6845 16.0057 16.914 15.5892 16.9905 15.0877H17.8745C17.9255 15.0877 17.968 15.0707 17.9935 15.0367C18.0275 15.0027 18.0445 14.9687 18.0445 14.9177V14.3822C18.036 14.3227 18.019 14.2802 17.9935 14.2462Z" fill="#2F3245"/>
</svg>
