<svg width="40" height="36" viewBox="0 0 40 36" fill="none" xmlns="http://www.w3.org/2000/svg">
<path d="M20 0.421875C13.2455 0.421875 7.89656 4.22289 5.69219 9.79688H1.54953C0.901797 9.79688 0.377656 10.321 0.377656 10.9688C0.377656 11.6165 0.901797 12.1406 1.54953 12.1398H4.99539C4.66813 13.6235 4.54391 15.1929 4.65406 16.8281H1.17188C0.524141 16.8281 0 17.3523 0 18C0 18.6477 0.524141 19.1719 1.17188 19.1719H4.9718C5.29938 20.8051 5.83914 22.3763 6.56664 23.8594H3.10594C2.4582 23.8594 1.93406 24.3835 1.93406 25.0312C1.93406 25.679 2.4582 26.2031 3.10594 26.2031H7.9082C11.6145 31.7666 17.8905 35.5781 24.5963 35.5781C34.3743 35.5781 41.2152 27.6167 39.8193 17.8341C38.447 8.23359 29.6073 0.421875 20 0.421875ZM24.018 30.8906C24.0177 30.8906 24.017 30.8906 24.0169 30.8906C24.0167 30.8906 24.0166 30.8905 24.0165 30.8905C16.9952 30.8896 10.4681 25.1817 9.46461 18.1659C8.43992 10.9836 13.496 5.10938 20.6695 5.10938C27.6916 5.10938 34.2193 10.8177 35.2229 17.8341C36.2476 25.0164 31.1915 30.8906 24.018 30.8906Z" fill="#FFCB05"/>
<path d="M30.5468 17.9995C30.5468 17.3518 31.0709 16.8277 31.7186 16.8277H32.5758C31.2775 12.005 26.9443 8.20656 22.0408 7.58938L22.1651 8.45852C22.2567 9.09938 21.8115 9.69336 21.1707 9.78492C21.1146 9.79297 21.0585 9.79633 21.0036 9.79633C20.429 9.79633 19.9278 9.37516 19.8443 8.79039L19.6675 7.55469C14.78 8.03805 11.5146 11.9269 11.7416 16.8276H12.9686C13.6164 16.8276 14.1405 17.3517 14.1405 17.9995C14.1405 18.6472 13.6164 19.1713 12.9686 19.1713H12.1114C13.4098 23.994 17.7429 27.7924 22.6464 28.4096L22.5222 27.5405C22.4306 26.8996 22.8757 26.3056 23.5166 26.2141C24.1597 26.1168 24.7514 26.5677 24.843 27.2085L25.0198 28.4442C29.9073 27.9609 33.1727 24.0719 32.9457 19.1713H31.7186C31.0709 19.1714 30.5468 18.6473 30.5468 17.9995ZM28.5829 23.4584C28.1546 23.9479 27.4132 23.9934 26.9293 23.5694L21.5723 18.8819C21.3606 18.6965 21.2232 18.4424 21.1832 18.1655L20.5138 13.478C20.4222 12.8371 20.8674 12.2431 21.5082 12.1516C22.1411 12.0588 22.7431 12.5052 22.8347 13.146L23.4423 17.4032L28.472 21.8046C28.9595 22.2316 29.0087 22.972 28.5829 23.4584Z" fill="#2F3245"/>
</svg>
