<svg width="31" height="40" viewBox="0 0 31 40" fill="none" xmlns="http://www.w3.org/2000/svg">
<path d="M22.1856 2.5H19.4771C18.9634 1.045 17.5767 0 15.9506 0C14.3246 0 12.9379 1.045 12.4217 2.5H9.71573C9.0274 2.5 8.46875 3.06 8.46875 3.75V8.75C8.46875 9.44 9.0274 10 9.71573 10H22.1856C22.8739 10 23.4325 9.44 23.4325 8.75V3.75C23.4325 3.06 22.8739 2.5 22.1856 2.5Z" fill="#2F3245"/>
<path d="M28.4219 5H25.9279V8.75C25.9279 10.8175 24.2495 12.5 22.187 12.5H9.71716C7.65465 12.5 5.97621 10.8175 5.97621 8.75V5H3.48225C2.10807 5 0.988281 6.1225 0.988281 7.5V37.5C0.988281 38.9025 2.08313 40 3.48225 40H28.4219C29.821 40 30.9159 38.9025 30.9159 37.5V7.5C30.9159 6.0975 29.821 5 28.4219 5ZM15.588 27.135L10.6 32.135C10.3556 32.3775 10.0364 32.5 9.71716 32.5C9.39794 32.5 9.07871 32.3775 8.8343 32.135L6.34033 29.635C5.85401 29.1475 5.85401 28.355 6.34033 27.8675C6.82666 27.38 7.61724 27.38 8.10357 27.8675L9.71716 29.4825L13.8222 25.3675C14.3086 24.88 15.0991 24.88 15.5855 25.3675C16.0718 25.855 16.0743 26.645 15.588 27.135ZM15.588 17.135L10.6 22.135C10.3556 22.3775 10.0364 22.5 9.71716 22.5C9.39794 22.5 9.07871 22.3775 8.8343 22.135L6.34033 19.635C5.85401 19.1475 5.85401 18.355 6.34033 17.8675C6.82666 17.38 7.61724 17.38 8.10357 17.8675L9.71716 19.4825L13.8222 15.3675C14.3086 14.88 15.0991 14.88 15.5855 15.3675C16.0718 15.855 16.0743 16.645 15.588 17.135ZM24.681 30H19.693C19.0047 30 18.446 29.44 18.446 28.75C18.446 28.06 19.0047 27.5 19.693 27.5H24.681C25.3693 27.5 25.9279 28.06 25.9279 28.75C25.9279 29.44 25.3693 30 24.681 30ZM24.681 20H19.693C19.0047 20 18.446 19.44 18.446 18.75C18.446 18.06 19.0047 17.5 19.693 17.5H24.681C25.3693 17.5 25.9279 18.06 25.9279 18.75C25.9279 19.44 25.3693 20 24.681 20Z" fill="#FFCB05"/>
</svg>
