<svg width="40" height="40" viewBox="0 0 40 40" fill="none" xmlns="http://www.w3.org/2000/svg">
<path d="M21.7393 6.32825C22.5021 5.37846 22.9348 4.18485 22.9348 2.93248V0H11.918V2.93248C11.918 4.18485 12.3506 5.37846 13.1135 6.32825H21.7393Z" fill="#FFCB05"/>
<path d="M21.6684 33.256C21.6684 28.2448 25.7452 24.168 30.7563 24.168C30.8321 24.168 30.9078 24.169 30.9833 24.1709C29.3121 18.2529 25.7013 12.3347 21.793 8.67212H13.0609C9.10163 12.3854 5.44265 18.4115 3.80098 24.409C2.34088 29.7435 6.37822 35.0008 11.9089 35.0008H21.837C21.7268 34.4359 21.6684 33.8527 21.6684 33.256ZM18.8003 28.5911H16.4565V27.0187C14.7732 26.7743 13.4758 25.3221 13.4758 23.572H15.8196C15.8196 24.2004 16.3308 24.7117 16.9592 24.7117H18.2748C18.9261 24.7117 19.4561 24.1817 19.4561 23.5304C19.4561 22.879 18.9262 22.349 18.2748 22.349H16.9822C15.0385 22.349 13.4571 20.7677 13.4571 18.8239C13.4571 17.0588 14.7613 15.5927 16.4566 15.3382V13.7632H18.8004V15.343C20.4821 15.6101 21.7717 17.0698 21.7717 18.8254H19.4279C19.4279 18.1732 18.8974 17.6426 18.2452 17.6426H16.9822C16.3308 17.6426 15.8009 18.1725 15.8009 18.8239C15.8009 19.4752 16.3308 20.0052 16.9822 20.0052H18.2748C20.2185 20.0052 21.7999 21.5866 21.7999 23.5303C21.7999 25.2954 20.4958 26.7615 18.8004 27.0161V28.5911H18.8003Z" fill="#FFCB05"/>
<path fill-rule="evenodd" clip-rule="evenodd" d="M23.5 32.6875C23.5 29 26.5 26 30.1875 26C33.875 26 36.875 29 36.875 32.6875C36.875 36.375 33.875 39.375 30.1875 39.375C26.5 39.375 23.5 36.375 23.5 32.6875ZM32.2873 30.6902C32.3346 30.6902 32.3734 30.7053 32.4038 30.7357C32.4343 30.7662 32.4495 30.805 32.4495 30.8524V31.3693C32.4495 31.4166 32.4343 31.4554 32.4038 31.4858C32.3735 31.5162 32.3346 31.5314 32.2873 31.5314H31.4359C31.3581 32.0179 31.1402 32.4133 30.7821 32.7173C30.424 33.0213 29.9577 33.2072 29.3834 33.2748C29.9476 33.8761 30.7231 34.7816 31.7095 35.9912C31.7569 36.0452 31.7636 36.1027 31.7298 36.1635C31.7028 36.2244 31.6538 36.2548 31.5828 36.2548H30.5946C30.5405 36.2548 30.4983 36.2345 30.4679 36.1939C29.434 34.9539 28.5927 33.9894 27.944 33.3001C27.9136 33.2698 27.8984 33.2326 27.8984 33.1886V32.5449C27.8984 32.5011 27.9145 32.463 27.9466 32.4309C27.9787 32.3988 28.0167 32.3828 28.0606 32.3828H28.6282C29.0742 32.3828 29.4331 32.3101 29.7051 32.1648C29.9772 32.0195 30.1503 31.8084 30.2247 31.5313H28.0606C28.0133 31.5313 27.9744 31.5161 27.944 31.4857C27.9136 31.4554 27.8984 31.4165 27.8984 31.3692V30.8522C27.8984 30.8049 27.9137 30.7661 27.944 30.7357C27.9744 30.7052 28.0133 30.6901 28.0606 30.6901H30.1536C29.9611 30.3083 29.5083 30.1174 28.7955 30.1174H28.0606C28.0167 30.1174 27.9787 30.1014 27.9466 30.0693C27.9145 30.0372 27.8984 29.9992 27.8984 29.9553V29.2812C27.8984 29.2339 27.9137 29.1951 27.944 29.1647C27.9744 29.1343 28.0133 29.1191 28.0606 29.1191H32.2771C32.3245 29.1191 32.3632 29.1343 32.3938 29.1647C32.424 29.1951 32.4392 29.2339 32.4392 29.2812V29.7983C32.4392 29.8456 32.424 29.8845 32.3938 29.9149C32.3633 29.9452 32.3245 29.9604 32.2771 29.9604H31.0964C31.2551 30.1665 31.3633 30.4098 31.4207 30.6902H32.2873Z" fill="#2F3245"/>
</svg>
