<svg width="40" height="40" viewBox="0 0 40 40" fill="none" xmlns="http://www.w3.org/2000/svg">
<path d="M10.0785 1.03711C9.53968 1.03711 9.02293 1.25116 8.64193 1.63216C8.26092 2.01316 8.04688 2.52992 8.04688 3.06874V17.5224C8.48275 17.6365 8.88169 17.8614 9.2049 18.1753L10.7557 19.7281V19.3218C10.7557 19.1422 10.8271 18.9699 10.9541 18.8429C11.0811 18.7159 11.2533 18.6446 11.4329 18.6446H15.4962C15.6758 18.6446 15.848 18.7159 15.975 18.8429C16.102 18.9699 16.1734 19.1422 16.1734 19.3218V23.385C16.1734 23.5646 16.102 23.7369 15.975 23.8639C15.848 23.9909 15.6758 24.0622 15.4962 24.0622H12.2984C12.1075 24.3851 11.8472 24.6614 11.5364 24.8712C11.2255 25.0809 10.8719 25.2189 10.5011 25.2751C10.5939 25.5383 10.6433 25.8148 10.6474 26.0939C10.6517 26.655 10.4703 27.2018 10.1313 27.6491C9.79235 28.0963 9.31495 28.4188 8.77352 28.5664L9.8855 29.6784C10.2022 29.9993 10.4288 30.398 10.5424 30.8343H25.6543V3.06874C25.6543 2.52992 25.4403 2.01316 25.0593 1.63216C24.6783 1.25116 24.1615 1.03711 23.6227 1.03711H21.5911V3.06874C21.5911 3.24835 21.5197 3.4206 21.3927 3.5476C21.2657 3.6746 21.0935 3.74595 20.9139 3.74595H12.7873C12.6077 3.74595 12.4355 3.6746 12.3085 3.5476C12.1815 3.4206 12.1101 3.24835 12.1101 3.06874V1.03711H10.0785ZM14.819 29.4799H13.4646V28.1255H14.819V29.4799ZM17.5278 29.4799H16.1734V28.1255H17.5278V29.4799ZM20.2367 29.4799H18.8822V28.1255H20.2367V29.4799ZM22.9455 23.385C22.9455 23.5646 22.8741 23.7369 22.7471 23.8639C22.6201 23.9909 22.4479 24.0622 22.2683 24.0622H18.205C18.0254 24.0622 17.8532 23.9909 17.7262 23.8639C17.5992 23.7369 17.5278 23.5646 17.5278 23.385V19.3218C17.5278 19.1422 17.5992 18.9699 17.7262 18.8429C17.8532 18.7159 18.0254 18.6446 18.205 18.6446H22.2683C22.4479 18.6446 22.6201 18.7159 22.7471 18.8429C22.8741 18.9699 22.9455 19.1422 22.9455 19.3218V23.385ZM22.9455 2.39153H24.2999V3.74595H22.9455V2.39153ZM18.8822 6.45479H20.2367V7.80921H18.8822V6.45479ZM18.205 11.8725H22.2683C22.4479 11.8725 22.6201 11.9438 22.7471 12.0708C22.8741 12.1978 22.9455 12.3701 22.9455 12.5497V16.6129C22.9455 16.7925 22.8741 16.9648 22.7471 17.0918C22.6201 17.2188 22.4479 17.2901 22.2683 17.2901H18.205C18.0254 17.2901 17.8532 17.2188 17.7262 17.0918C17.5992 16.9648 17.5278 16.7925 17.5278 16.6129V12.5497C17.5278 12.3701 17.5992 12.1978 17.7262 12.0708C17.8532 11.9438 18.0254 11.8725 18.205 11.8725ZM16.1734 6.45479H17.5278V7.80921H16.1734V6.45479ZM13.4646 6.45479H14.819V7.80921H13.4646V6.45479ZM15.4962 11.8725C15.6758 11.8725 15.848 11.9438 15.975 12.0708C16.102 12.1978 16.1734 12.3701 16.1734 12.5497V16.6129C16.1734 16.7925 16.102 16.9648 15.975 17.0918C15.848 17.2188 15.6758 17.2901 15.4962 17.2901H11.4329C11.2533 17.2901 11.0811 17.2188 10.9541 17.0918C10.8271 16.9648 10.7557 16.7925 10.7557 16.6129V12.5497C10.7557 12.3701 10.8271 12.1978 10.9541 12.0708C11.0811 11.9438 11.2533 11.8725 11.4329 11.8725H15.4962Z" fill="#FFCB05"/>
<path d="M12.1094 13.2266H14.8182V15.9354H12.1094V13.2266Z" fill="#2F3245"/>
<path d="M14.8182 22.7079V19.999H12.1094V21.1252C12.4699 21.5746 12.6697 22.1318 12.6769 22.7079H14.8182Z" fill="#2F3245"/>
<path d="M13.4648 1.03711H20.2369V2.39153H13.4648V1.03711Z" fill="#FFCB05"/>
<path d="M18.8831 19.999H21.5919V22.7079H18.8831V19.999Z" fill="#2F3245"/>
<path d="M18.8828 13.2266H21.5917V15.9354H18.8828V13.2266Z" fill="#2F3245"/>
<path d="M4.10547 23.3839C4.10679 23.7122 4.23745 24.0268 4.46913 24.2595L7.17797 26.9684C7.29118 27.0909 7.42799 27.1894 7.58018 27.2578C7.73238 27.3261 7.89682 27.3631 8.06365 27.3663C8.23047 27.3696 8.39623 27.3391 8.55098 27.2767C8.70574 27.2144 8.84629 27.1213 8.9642 27.0033C9.08212 26.8852 9.17497 26.7446 9.23717 26.5898C9.29938 26.4349 9.32967 26.2691 9.32621 26.1023C9.32276 25.9355 9.28563 25.7711 9.21707 25.619C9.1485 25.4669 9.04991 25.3302 8.9272 25.2171L6.11204 22.4148C5.87458 22.2248 5.57529 22.1293 5.27167 22.1465C4.96805 22.1638 4.68151 22.2926 4.4671 22.5083C4.23616 22.7413 4.10625 23.0558 4.10547 23.3839Z" fill="#2F3245"/>
<path d="M10.0785 36.2517H23.6227C24.1615 36.2517 24.6783 36.0377 25.0593 35.6567C25.4403 35.2757 25.6543 34.7589 25.6543 34.2201V32.1885H10.5424C10.3997 32.7392 10.0773 33.2266 9.6262 33.5733C9.17511 33.9199 8.6212 34.1061 8.05229 34.1023H8.04688V34.2201C8.04688 34.7589 8.26092 35.2757 8.64193 35.6567C9.02293 36.0377 9.53968 36.2517 10.0785 36.2517ZM15.4962 33.5429H18.205V34.8973H15.4962V33.5429Z" fill="#FFCB05"/>
<path d="M30.5922 36.0535C30.5054 35.9666 30.4438 35.8578 30.4141 35.7386L29.0597 30.3209C29.0386 30.2359 29.034 30.1476 29.0461 30.0609L29.7078 25.4301L28.373 18.0885C28.3114 17.6869 28.0385 17.29 27.6849 17.29C27.506 17.29 27.3344 17.3608 27.2075 17.487C27.0806 17.6131 27.0088 17.7843 27.0077 17.9632V34.2203C27.0067 35.118 26.6496 35.9786 26.0148 36.6134C25.38 37.2482 24.5194 37.6053 23.6217 37.6063H18.4844L19.8388 38.9608H33.4995L30.5922 36.0535Z" fill="#2F3245"/>
<path d="M4.46841 29.679L7.17725 32.3878C7.4117 32.6089 7.72309 32.7299 8.04531 32.7252C8.36753 32.7204 8.67522 32.5903 8.90304 32.3623C9.13087 32.1344 9.2609 31.8267 9.26553 31.5045C9.27016 31.1822 9.14902 30.8709 8.92784 30.6365L6.219 27.9277C6.10493 27.8086 5.96823 27.7135 5.81692 27.648C5.66562 27.5824 5.50274 27.5477 5.33786 27.546C5.17297 27.5442 5.00939 27.5754 4.85671 27.6377C4.70403 27.6999 4.56532 27.7921 4.44872 27.9087C4.33212 28.0253 4.23998 28.164 4.17769 28.3167C4.11541 28.4693 4.08424 28.6329 4.08601 28.7978C4.08778 28.9627 4.12246 29.1256 4.18801 29.2769C4.25355 29.4282 4.34866 29.5649 4.46773 29.679H4.46841Z" fill="#2F3245"/>
<path d="M6.69556 16.3352V12.8605C6.4886 12.7094 6.23998 12.6262 5.98382 12.6221C5.87163 12.6217 5.76024 12.6409 5.65469 12.679C5.44361 12.7482 5.25421 12.8712 5.10517 13.0359C4.95613 13.2006 4.8526 13.4013 4.80479 13.6183C4.75812 13.8222 4.76363 14.0346 4.8208 14.2358C4.87797 14.437 4.98497 14.6206 5.13189 14.7695L6.69556 16.3352Z" fill="#2F3245"/>
<path d="M10.9586 23.5966C11.0835 23.474 11.1793 23.325 11.239 23.1605C11.2931 23.0205 11.3213 22.8718 11.3223 22.7216C11.3204 22.3911 11.1879 22.0747 10.9539 21.8413L8.24977 19.1372C8.01741 18.9075 7.70356 18.7792 7.37685 18.7803C7.04877 18.7834 6.73412 18.911 6.49648 19.1372C6.26492 19.3699 6.13428 19.6845 6.13281 20.0128C6.13253 20.1755 6.16452 20.3365 6.22695 20.4867C6.28937 20.6369 6.38098 20.7732 6.49648 20.8878L9.31502 23.7002C9.55442 23.8865 9.8537 23.9788 10.1564 23.9598C10.4592 23.9407 10.7445 23.8115 10.9586 23.5966Z" fill="#2F3245"/>
</svg>
