<svg width="40" height="40" viewBox="0 0 40 40" fill="none" xmlns="http://www.w3.org/2000/svg">
<path d="M17.614 5.2433C18.2461 4.45636 18.6046 3.46738 18.6046 2.42972V0H9.47656V2.42972C9.47656 3.46738 9.83505 4.45636 10.4672 5.2433H17.614Z" fill="#FFCB05"/>
<path d="M17.5535 27.5546C17.5535 23.4026 20.9313 20.0247 25.0833 20.0247C25.1462 20.0247 25.2089 20.0256 25.2714 20.0271C23.8868 15.1237 20.895 10.2202 17.6567 7.18555H10.4217C7.14126 10.2622 4.1096 15.2551 2.74938 20.2244C1.5396 24.6443 4.88476 29.0003 9.46722 29.0003H17.6932C17.6019 28.5323 17.5535 28.049 17.5535 27.5546ZM15.1772 23.6895H13.2352V22.3867C11.8404 22.1842 10.7655 20.981 10.7655 19.5309H12.7075C12.7075 20.0516 13.131 20.4752 13.6517 20.4752H14.7417C15.2814 20.4752 15.7205 20.0361 15.7205 19.4964C15.7205 18.9568 15.2815 18.5176 14.7417 18.5176H13.6707C12.0603 18.5176 10.75 17.2074 10.75 15.5968C10.75 14.1343 11.8306 12.9197 13.2353 12.7088V11.4038H15.1772V12.7127C16.5706 12.934 17.6391 14.1435 17.6391 15.5981H15.6972C15.6972 15.0577 15.2576 14.6181 14.7172 14.6181H13.6707C13.1311 14.6181 12.692 15.0572 12.692 15.5968C12.692 16.1365 13.1311 16.5757 13.6707 16.5757H14.7417C16.3522 16.5757 17.6625 17.8859 17.6625 19.4964C17.6625 20.9589 16.5819 22.1736 15.1772 22.3845L15.1772 23.6895Z" fill="#FFCB05"/>
<path d="M13.2352 23.6895H15.1772L15.1772 22.3845C16.5819 22.1736 17.6625 20.9589 17.6625 19.4964C17.6625 17.8859 16.3522 16.5757 14.7417 16.5757H13.6707C13.1311 16.5757 12.692 16.1365 12.692 15.5968C12.692 15.0572 13.1311 14.6181 13.6707 14.6181H14.7172C15.2576 14.6181 15.6972 15.0577 15.6972 15.5981H17.6391C17.6391 14.1435 16.5706 12.934 15.1772 12.7127V11.4038H13.2353V12.7088C11.8306 12.9197 10.75 14.1343 10.75 15.5968C10.75 17.2074 12.0603 18.5176 13.6707 18.5176H14.7417C15.2815 18.5176 15.7205 18.9568 15.7205 19.4964C15.7205 20.0361 15.2814 20.4752 14.7417 20.4752H13.6517C13.131 20.4752 12.7075 20.0516 12.7075 19.5309H10.7655C10.7655 20.981 11.8404 22.1842 13.2352 22.3867V23.6895Z" fill="#FFCB05"/>
<path d="M16.8039 15.3217C16.7652 15.2829 16.7157 15.2635 16.6555 15.2635H15.5511C15.4778 14.9054 15.34 14.5946 15.1377 14.3314H16.6425C16.7029 14.3314 16.7523 14.312 16.7911 14.2733C16.8297 14.2344 16.849 14.1848 16.849 14.1244V13.464C16.849 13.4035 16.8297 13.3539 16.7911 13.3151C16.7522 13.2763 16.7028 13.2568 16.6424 13.2568H11.2689C11.2086 13.2568 11.1591 13.2763 11.1203 13.3151C11.0817 13.3539 11.0623 13.4035 11.0623 13.4639V14.3249C11.0623 14.3809 11.0827 14.4295 11.1236 14.4705C11.1645 14.5115 11.2129 14.532 11.2689 14.532H12.2054C13.1139 14.532 13.6909 14.7757 13.9363 15.2634H11.2689C11.2086 15.2634 11.1591 15.2828 11.1203 15.3216C11.0817 15.3605 11.0623 15.4101 11.0623 15.4705V16.1308C11.0623 16.1912 11.0816 16.2409 11.1203 16.2796C11.1591 16.3185 11.2087 16.3378 11.2689 16.3378H14.0268C13.9321 16.6918 13.7114 16.9615 13.3647 17.147C13.0181 17.3326 12.5607 17.4254 11.9923 17.4254H11.2689C11.2129 17.4254 11.1645 17.4459 11.1236 17.4869C11.0827 17.5279 11.0623 17.5765 11.0623 17.6325V18.4547C11.0623 18.5109 11.0816 18.5583 11.1203 18.5971C11.947 19.4774 13.0192 20.7094 14.3367 22.2933C14.3755 22.3451 14.4293 22.3709 14.4982 22.3709H15.7576C15.8481 22.3709 15.9106 22.3322 15.945 22.2544C15.988 22.1767 15.9796 22.1033 15.9191 22.0343C14.662 20.4893 13.6737 19.3328 12.9546 18.5647C13.6866 18.4784 14.2808 18.241 14.7373 17.8527C15.1936 17.4644 15.4713 16.9594 15.5704 16.3379H16.6555C16.7157 16.3379 16.7653 16.3186 16.8039 16.2797C16.8427 16.241 16.8621 16.1913 16.8621 16.1309V15.4707C16.8621 15.4102 16.8427 15.3606 16.8039 15.3217Z" fill="white"/>
<path fill-rule="evenodd" clip-rule="evenodd" d="M18.832 29.5205C18.832 24.8223 22.6543 21 27.3525 21C32.0507 21 35.873 24.8223 35.873 29.5205C35.873 34.2187 32.0507 38.041 27.3525 38.041C22.6543 38.041 18.832 34.2187 18.832 29.5205ZM25.2865 30.0997C25.3783 30.1915 25.4918 30.2373 25.6272 30.2373C25.7626 30.2373 25.8761 30.1915 25.9679 30.0997C26.0593 30.0083 26.105 29.8949 26.105 29.7595C26.105 29.6242 26.0593 29.5106 25.9679 29.4189C25.8761 29.3275 25.7626 29.2818 25.6272 29.2818C25.4918 29.2818 25.3783 29.3275 25.2865 29.4189C25.1951 29.5106 25.1494 29.6242 25.1494 29.7595C25.1494 29.8949 25.1951 30.0083 25.2865 30.0997ZM27.1982 30.0997C27.2896 30.1915 27.403 30.2373 27.5384 30.2373C27.6737 30.2373 27.7873 30.1915 27.879 30.0997C27.9704 30.0083 28.0161 29.8949 28.0161 29.7595C28.0161 29.6242 27.9704 29.5106 27.879 29.4189C27.7873 29.3275 27.6737 29.2818 27.5384 29.2818C27.403 29.2818 27.2896 29.3275 27.1982 29.4189C27.1064 29.5106 27.0606 29.6242 27.0606 29.7595C27.0606 29.8949 27.1064 30.0083 27.1982 30.0997ZM29.1093 30.0997C29.2007 30.1915 29.3141 30.2373 29.4495 30.2373C29.5849 30.2373 29.6983 30.1915 29.7897 30.0997C29.8814 30.0083 29.9273 29.8949 29.9273 29.7595C29.9273 29.6242 29.8814 29.5106 29.7897 29.4189C29.6983 29.3275 29.5849 29.2818 29.4495 29.2818C29.3141 29.2818 29.2007 29.3275 29.1093 29.4189C29.0176 29.5106 28.9717 29.6242 28.9717 29.7595C28.9717 29.8949 29.0176 30.0083 29.1093 30.0997ZM23.5187 33.7792C23.706 33.9661 23.9311 34.0596 24.1939 34.0596H30.8828C31.1456 34.0596 31.3707 33.9661 31.558 33.7792C31.7449 33.5919 31.8384 33.3668 31.8384 33.104V26.415C31.8384 26.1523 31.7449 25.9274 31.558 25.7404C31.3707 25.5531 31.1456 25.4595 30.8828 25.4595H30.4051V24.5039H29.4495V25.4595H25.6272V24.5039H24.6716V25.4595H24.1939C23.9311 25.4595 23.706 25.5531 23.5187 25.7404C23.3318 25.9274 23.2383 26.1523 23.2383 26.415V33.104C23.2383 33.3668 23.3318 33.5919 23.5187 33.7792ZM30.8828 33.104H24.1939V28.3262H30.8828V33.104Z" fill="#2F3245"/>
</svg>
