<svg width="40" height="40" viewBox="0 0 40 40" fill="none" xmlns="http://www.w3.org/2000/svg">
<path d="M7.48438 3H9.47656V4.99219H7.48438V3Z" fill="#FFCB05"/>
<path d="M15.4531 3H17.4453V4.99219H15.4531V3Z" fill="#FFCB05"/>
<path d="M23.4219 3H25.4141V4.99219H23.4219V3Z" fill="#FFCB05"/>
<path d="M8.06802 32.02H34.7249L33.0246 30.3197C32.6919 29.9205 32.3413 29.4794 32.001 29.0318H9.23531L8.35981 28.1563C6.27731 26.0742 4.65368 23.5938 3.5 20.9775V21.3381C3.5 25.2378 5.01845 28.9705 7.77623 31.7282L8.06802 32.02Z" fill="#2F3245"/>
<path d="M29.3984 34.0122H7.24312L6.36762 33.1367C5.21461 31.984 4.25597 30.6893 3.5 29.2949V37.0004H29.3984V34.0122Z" fill="#2F3245"/>
<path d="M10.0542 27.0391H36.7031L35.0097 25.3456C31.3441 21.6801 29.3984 16.7328 29.3984 11.5531V4.99219H25.4141V8.97656H23.4219V4.99219H17.4453V8.97656H15.4531V4.99219H9.47656V8.97656H7.48438V4.99219H3.5V11.5531C3.5 17.2707 5.73125 22.6961 9.77546 26.7402L10.0542 27.0391ZM26.4102 20V21.9922H22.4258V20H26.4102ZM25.4141 18.0078H21.4297V16.0156H25.4141V18.0078ZM20.4336 12.0312H24.418V14.0234H20.4336V12.0312ZM20.4336 21.9922H16.4492V20H20.4336V21.9922ZM19.4375 18.0078H15.4531V16.0156H19.4375V18.0078ZM14.457 12.0312H18.4414V14.0234H14.457V12.0312ZM14.457 21.9922H10.4727V20H14.457V21.9922ZM8.48047 12.0312H12.4648V14.0234H8.48047V12.0312ZM9.47656 16.0156H13.4609V18.0078H9.47656V16.0156Z" fill="#FFCB05"/>
</svg>
