<svg width="41" height="40" viewBox="0 0 41 40" fill="none" xmlns="http://www.w3.org/2000/svg">
<path d="M20.5 1.98755V8.75005H27.2625L20.5 1.98755Z" fill="#FFCB05"/>
<path d="M23 18.75C23.0018 17.2005 23.4834 15.6896 24.3787 14.4249C25.2741 13.1603 26.5391 12.204 28 11.6875V11.25H19.25C18.9185 11.25 18.6005 11.1183 18.3661 10.8839C18.1317 10.6495 18 10.3315 18 10V1.25H3C2.66848 1.25 2.35054 1.3817 2.11612 1.61612C1.8817 1.85054 1.75 2.16848 1.75 2.5V35C1.75 35.3315 1.8817 35.6495 2.11612 35.8839C2.35054 36.1183 2.66848 36.25 3 36.25H19.25V31.25H6.75V28.75H19.25V25.625H6.75V23.125H19.775C20.1022 22.5582 20.572 22.087 21.1378 21.758C21.7036 21.4291 22.3456 21.254 23 21.25V18.75ZM15.5 20H6.75V17.5H15.5V20Z" fill="#FFCB05"/>
<path d="M38 23.75H28V18.75C28 18.087 28.2634 17.4511 28.7322 16.9822C29.2011 16.5134 29.837 16.25 30.5 16.25C31.163 16.25 31.7989 16.5134 32.2678 16.9822C32.7366 17.4511 33 18.087 33 18.75V21.25H35.5V18.75C35.5 17.4239 34.9732 16.1521 34.0355 15.2145C33.0979 14.2768 31.8261 13.75 30.5 13.75C29.1739 13.75 27.9021 14.2768 26.9645 15.2145C26.0268 16.1521 25.5 17.4239 25.5 18.75V23.75H23C22.6685 23.75 22.3505 23.8817 22.1161 24.1161C21.8817 24.3505 21.75 24.6685 21.75 25V37.5C21.75 37.8315 21.8817 38.1495 22.1161 38.3839C22.3505 38.6183 22.6685 38.75 23 38.75H38C38.3315 38.75 38.6495 38.6183 38.8839 38.3839C39.1183 38.1495 39.25 37.8315 39.25 37.5V25C39.25 24.6685 39.1183 24.3505 38.8839 24.1161C38.6495 23.8817 38.3315 23.75 38 23.75ZM32.0625 31.25H28.9375V28.75H32.0625V31.25Z" fill="#2F3245"/>
</svg>
