<svg width="40" height="40" viewBox="0 0 40 40" fill="none" xmlns="http://www.w3.org/2000/svg">
<g clip-path="url(#clip0_3526_170415)">
<path fill-rule="evenodd" clip-rule="evenodd" d="M23.1333 10.075C23.1333 15.6333 18.625 20.1417 13.0667 20.1417C7.50833 20.1417 3 15.625 3 10.0667C3 4.50833 7.50833 0 13.0667 0C18.625 0 23.1333 4.51667 23.1333 10.075ZM16 5V6.25H14.0767C14.3248 6.6178 14.4971 7.04513 14.5807 7.5H16V8.75H14.5807C14.4544 9.45527 14.1196 10.089 13.6329 10.5444C13.1463 10.9998 12.5374 11.249 11.9091 11.25H11.3167L14.5895 15H13.0469L10 11.5087V10H11.9091C12.2463 9.99881 12.575 9.87802 12.8499 9.6542C13.1249 9.43038 13.3326 9.11452 13.4445 8.75H10V7.5H13.4445C13.2187 6.77375 12.6193 6.25 11.9091 6.25H10V5H16Z" fill="#00ADEF"/>
<path d="M35.5182 20.9849H34.3432C33.5682 18.6099 32.0516 16.5016 30.0266 14.8683C30.0266 14.7933 30.0099 14.7099 29.9932 14.6349C29.5682 13.1433 30.0932 11.7849 30.7016 10.8099C31.1266 10.1266 30.5766 9.25161 29.7766 9.35161C27.9849 9.57661 26.7516 10.2349 25.9016 10.9766C25.3182 11.4849 24.9016 12.1683 24.7182 12.9266C23.4349 18.2433 18.6432 22.2016 12.9349 22.2016C10.1599 22.2016 7.6099 21.2683 5.56823 19.7016C4.8599 21.2349 4.47656 22.9099 4.47656 24.6683C4.47656 25.6183 4.59323 26.5433 4.8099 27.4349C4.8099 27.4349 4.8099 27.4516 4.81823 27.4766C5.04323 28.4016 5.3849 29.2933 5.81823 30.1349C6.39323 31.3766 7.22656 32.8266 8.37656 34.0016C10.0349 35.7099 10.3182 37.8266 10.3599 38.7433V39.1349C10.3599 39.1516 10.3599 39.1683 10.3599 39.1849C10.3599 39.1933 10.3599 39.1933 10.3599 39.1933C10.3932 39.6433 10.7682 40.0016 11.2266 40.0016H16.4932C16.9682 40.0016 17.3599 39.6183 17.3599 39.1349V37.8349C18.1266 37.9349 18.9099 37.9933 19.7016 37.9933C20.3266 37.9933 20.9349 37.9599 21.5432 37.8933V39.1349C21.5432 39.6099 21.9266 40.0016 22.4099 40.0016H27.6932C28.1682 40.0016 28.5599 39.6183 28.5599 39.1349V37.8349C28.5682 37.4016 28.7182 35.6766 30.3516 34.2016C30.4099 34.1516 30.4682 34.1016 30.5266 34.0516C30.5432 34.0349 30.5599 34.0266 30.5766 34.0099C32.3932 32.3933 33.7349 30.3766 34.4266 28.1266H35.5349C36.4182 28.1266 37.1349 27.4099 37.1349 26.5266V22.5849C37.1182 21.7016 36.4016 20.9849 35.5182 20.9849ZM28.9266 21.2683C28.2016 21.2683 27.6182 20.6849 27.6182 19.9599C27.6182 19.2349 28.2016 18.6516 28.9266 18.6516C29.6516 18.6516 30.2349 19.2349 30.2349 19.9599C30.2349 20.6849 29.6516 21.2683 28.9266 21.2683Z" fill="white"/>
</g>
<defs>
<clipPath id="clip0_3526_170415">
<rect width="40" height="40" fill="white"/>
</clipPath>
</defs>
</svg>
