<svg width="20" height="20" viewBox="0 0 20 20" fill="none" xmlns="http://www.w3.org/2000/svg">
<path d="M18.7501 9.99969L19.8541 8.09169C19.9868 7.86213 20.0229 7.58928 19.9544 7.33312C19.886 7.07696 19.7186 6.85847 19.4891 6.72569L17.5791 5.62169V3.42169C17.5791 3.15647 17.4738 2.90212 17.2862 2.71458C17.0987 2.52705 16.8443 2.42169 16.5791 2.42169H14.3801L13.2771 0.512691C13.1439 0.283608 12.9258 0.116197 12.6701 0.0466913C12.5433 0.0123071 12.4109 0.00344105 12.2806 0.0206068C12.1503 0.0377726 12.0247 0.080629 11.9111 0.146691L10.0011 1.25069L8.09111 0.145691C7.86143 0.0130889 7.58848 -0.0228457 7.33231 0.0457922C7.07614 0.11443 6.85772 0.282018 6.72511 0.511691L5.62111 2.42169H3.42211C3.15689 2.42169 2.90254 2.52705 2.715 2.71458C2.52747 2.90212 2.42211 3.15647 2.42211 3.42169V5.62069L0.512109 6.72469C0.398141 6.79025 0.29825 6.87767 0.218174 6.98195C0.138098 7.08623 0.0794155 7.2053 0.0454983 7.33233C0.0115812 7.45936 0.00309773 7.59184 0.0205354 7.72215C0.0379731 7.85247 0.080988 7.97805 0.147109 8.09169L1.25111 9.99969L0.147109 11.9077C0.015098 12.1375 -0.0207188 12.4101 0.0474676 12.6662C0.115654 12.9223 0.282314 13.141 0.511109 13.2747L2.42111 14.3787V16.5777C2.42111 16.8429 2.52647 17.0973 2.714 17.2848C2.90154 17.4723 3.15589 17.5777 3.42111 17.5777H5.62111L6.72511 19.4877C6.81364 19.639 6.94005 19.7647 7.09189 19.8524C7.24373 19.9401 7.41578 19.9867 7.59111 19.9877C7.76511 19.9877 7.93811 19.9417 8.09211 19.8527L10.0001 18.7487L11.9101 19.8527C12.1397 19.9851 12.4125 20.021 12.6686 19.9526C12.9247 19.8842 13.1431 19.717 13.2761 19.4877L14.3791 17.5777H16.5781C16.8433 17.5777 17.0977 17.4723 17.2852 17.2848C17.4728 17.0973 17.5781 16.8429 17.5781 16.5777V14.3787L19.4881 13.2747C19.6019 13.2089 19.7016 13.1214 19.7815 13.0171C19.8614 12.9128 19.92 12.7938 19.9539 12.6668C19.9878 12.5399 19.9964 12.4075 19.9791 12.2772C19.9618 12.147 19.919 12.0214 19.8531 11.9077L18.7501 9.99969ZM7.50011 4.98969C7.89807 4.98982 8.27967 5.14804 8.56098 5.42953C8.84228 5.71102 9.00024 6.09273 9.00011 6.49069C8.99998 6.88865 8.84176 7.27025 8.56027 7.55156C8.27878 7.83286 7.89707 7.99082 7.49911 7.99069C7.10115 7.99056 6.71955 7.83234 6.43824 7.55085C6.15694 7.26936 5.99898 6.88765 5.99911 6.48969C5.99924 6.09173 6.15746 5.71013 6.43895 5.42882C6.72044 5.14752 7.10215 4.98956 7.50011 4.98969ZM7.80011 14.5897L6.20011 13.3907L12.2001 5.39069L13.8001 6.58969L7.80011 14.5897ZM12.5001 14.9897C12.3031 14.9896 12.108 14.9507 11.9259 14.8753C11.7439 14.7998 11.5785 14.6892 11.4392 14.5499C11.3 14.4105 11.1895 14.245 11.1141 14.0629C11.0388 13.8809 11 13.6857 11.0001 13.4887C11.0002 13.2916 11.0391 13.0965 11.1145 12.9145C11.19 12.7325 11.3006 12.5671 11.4399 12.4278C11.5793 12.2885 11.7448 12.1781 11.9269 12.1027C12.1089 12.0274 12.3041 11.9886 12.5011 11.9887C12.8991 11.9888 13.2807 12.147 13.562 12.4285C13.8433 12.71 14.0012 13.0917 14.0011 13.4897C14.001 13.8876 13.8428 14.2693 13.5613 14.5506C13.2798 14.8319 12.8981 14.9898 12.5001 14.9897Z" fill="#00ADEF"/>
</svg>
