<svg width="60" height="61" viewBox="0 0 60 61" fill="none" xmlns="http://www.w3.org/2000/svg">
<g clip-path="url(#clip0_31_16200)">
<path d="M8.60001 14.6031C5.90001 14.6031 3.70001 16.8031 3.70001 19.5031C3.70001 22.2031 5.90001 24.4031 8.60001 24.4031C11.3 24.4031 13.5 22.2031 13.5 19.5031C13.5 16.8031 11.2 14.6031 8.60001 14.6031ZM8.60001 21.8031C7.30001 21.8031 6.30001 20.8031 6.30001 19.5031C6.30001 18.2031 7.30001 17.2031 8.60001 17.2031C9.90001 17.2031 10.9 18.2031 10.9 19.5031C10.9 20.8031 9.80001 21.8031 8.60001 21.8031Z" fill="#00ADEF"/>
<path d="M8.6 25.3031C3.9 25.3031 0 29.1031 0 33.7031V37.3031C0 38.0031 0.6 38.6031 1.3 38.6031H15.7C16.4 38.6031 17 38.0031 17 37.3031V33.7031C17 29.1031 13.2 25.3031 8.6 25.3031ZM14.4 36.1031H2.6V33.8031C2.6 30.6031 5.3 27.9031 8.6 27.9031C11.8 27.9031 14.5 30.5031 14.5 33.8031V36.1031H14.4Z" fill="#00ADEF"/>
<path d="M30 7.50313C27.3 7.50313 25.1 9.70313 25.1 12.4031C25.1 15.1031 27.3 17.2031 30 17.2031C32.7 17.2031 34.9 15.0031 34.9 12.3031C34.9 9.60313 32.7 7.50313 30 7.50313ZM30 14.6031C28.7 14.6031 27.7 13.6031 27.7 12.3031C27.7 11.0031 28.7 10.0031 30 10.0031C31.3 10.0031 32.3 11.0031 32.3 12.3031C32.3 13.6031 31.3 14.6031 30 14.6031Z" fill="#00ADEF"/>
<path d="M30 18.2031C25.3 18.2031 21.6 22.0031 21.6 26.6031V30.2031C21.6 30.9031 22.2 31.5031 22.9 31.5031H37.2C37.9 31.5031 38.5 30.9031 38.5 30.2031V26.6031C38.4 22.0031 34.7 18.2031 30 18.2031ZM35.9 28.9031H24.1V26.6031C24.1 23.4031 26.7 20.7031 30 20.7031C33.3 20.7031 35.9 23.3031 35.9 26.6031V28.9031Z" fill="#00ADEF"/>
<path d="M51.4 0.203125C48.7 0.203125 46.5 2.40313 46.5 5.10313C46.5 7.80313 48.7 10.0031 51.4 10.0031C54.1 10.0031 56.3 7.80313 56.3 5.10313C56.3 2.40313 54.1 0.203125 51.4 0.203125ZM51.4 7.30312C50.1 7.30312 49.1 6.30313 49.1 5.00313C49.1 3.70313 50.1 2.70312 51.4 2.70312C52.7 2.70312 53.7 3.70313 53.7 5.00313C53.7 6.30313 52.7 7.30312 51.4 7.30312Z" fill="#00ADEF"/>
<path d="M51.4 10.9031C46.7 10.9031 43 14.7031 43 19.3031V23.0031C43 23.7031 43.6 24.3031 44.3 24.3031H58.7C59.4 24.3031 60 23.7031 60 23.0031V19.3031C60 14.7031 56.2 10.9031 51.4 10.9031ZM57.4 21.8031H45.6V19.4031C45.6 16.2031 48.2 13.5031 51.5 13.5031C54.7 13.5031 57.5 16.2031 57.5 19.4031V21.8031H57.4Z" fill="#00ADEF"/>
<path d="M15.7 43.2031H1.3C0.6 43.2031 0 43.8031 0 44.5031V58.9031C0 59.6031 0.6 60.2031 1.3 60.2031H15.7C16.4 60.2031 17 59.6031 17 58.9031V44.5031C17 43.8031 16.4 43.2031 15.7 43.2031ZM14.4 57.6031H2.6V45.8031H14.4V57.6031Z" fill="#FFCB05"/>
<path d="M37.1 36.1031H22.9C22.2 36.1031 21.6 36.7031 21.6 37.4031V59.0031C21.6 59.7031 22.2 60.3031 22.9 60.3031H37.2C37.9 60.3031 38.5 59.7031 38.5 59.0031V37.3031C38.4 36.6031 37.9 36.1031 37.1 36.1031ZM35.9 57.6031H24.1V38.6031H35.8V57.6031H35.9Z" fill="#FFCB05"/>
<path d="M58.7 28.9031H44.3C43.6 28.9031 43 29.5031 43 30.2031V58.9031C43 59.6031 43.6 60.2031 44.3 60.2031H58.7C59.4 60.2031 60 59.6031 60 58.9031V30.2031C60 29.5031 59.4 28.9031 58.7 28.9031ZM57.4 57.6031H45.6V31.5031H57.4V57.6031Z" fill="#FFCB05"/>
</g>
<defs>
<clipPath id="clip0_31_16200">
<rect width="60" height="60" fill="white" transform="translate(0 0.203125)"/>
</clipPath>
</defs>
</svg>
