<svg width="62" height="65" viewBox="0 0 62 65" fill="none" xmlns="http://www.w3.org/2000/svg">
<path d="M22.6229 20.9928C22.6229 25.4056 26.3815 28.9959 31.0015 28.9959C35.6215 28.9959 39.38 25.4056 39.38 20.9928C39.38 19.9109 38.4827 19.0306 37.3797 19.0306H24.6231C23.5201 19.0306 22.6229 19.9109 22.6229 20.9928ZM36.8521 21.5305C36.5624 24.3135 34.049 26.4959 31.0014 26.4959C27.9537 26.4959 25.4404 24.3135 25.1505 21.5305H36.8521Z" fill="#00ADEF"/>
<path d="M25.1257 11.1862C23.7941 11.1862 22.5424 11.7052 21.601 12.6476C21.1131 13.136 21.1135 13.9274 21.6019 14.4152C22.0901 14.9031 22.8817 14.9027 23.3695 14.4144C23.8387 13.9447 24.4625 13.6861 25.1257 13.6861C25.789 13.6861 26.4127 13.9447 26.882 14.4144C27.1261 14.6587 27.4461 14.781 27.7662 14.781C28.086 14.781 28.4056 14.659 28.6496 14.4152C29.138 13.9274 29.1384 13.136 28.6505 12.6476C27.7092 11.7052 26.4574 11.1862 25.1257 11.1862Z" fill="#00ADEF"/>
<path d="M35.1209 14.5029C35.59 14.0333 36.2136 13.7746 36.8769 13.7746C37.5401 13.7746 38.1639 14.0333 38.6331 14.5029C39.121 14.9913 39.9124 14.9916 40.4007 14.5037C40.8891 14.0159 40.8895 13.2245 40.4016 12.7361C39.4602 11.7936 38.2084 11.2747 36.8767 11.2747C35.5452 11.2747 34.2935 11.7937 33.3521 12.7361C32.8642 13.2245 32.8647 14.016 33.3531 14.5039C33.5972 14.7476 33.9169 14.8695 34.2365 14.8695C34.5566 14.8694 34.8767 14.7473 35.1209 14.5029Z" fill="#00ADEF"/>
<path d="M61.464 36.6017L59.4266 18.8972C59.1406 16.4175 57.1387 14.6321 54.7665 14.7486C52.4292 14.8664 50.6517 16.7822 50.5402 19.3045L50.0341 30.8192C48.5132 30.4109 46.82 30.7981 45.624 31.9856L42.3296 35.2549C39.5415 38.0161 36.9614 41.1444 36.9614 45.302V54.5196C35.4315 54.7994 34.2679 56.142 34.2679 57.7524V61.4159C34.2679 63.2284 35.7416 64.7031 37.553 64.7031H51.6579C53.4674 64.7031 54.9395 63.2285 54.9395 61.4159V57.7524C54.9395 56.1422 53.7775 54.7996 52.2495 54.5197V52.6786C52.2495 50.7151 53.2687 49.2317 56.7945 46.0644C59.6352 43.5077 62.089 41.2994 61.464 36.6017ZM52.4396 61.4159C52.4396 61.8426 52.0816 62.2032 51.6579 62.2032H37.553C37.1274 62.2032 36.7677 61.8426 36.7677 61.4159V57.7524C36.7677 57.3256 37.1274 56.965 37.553 56.965H51.6579C52.0816 56.965 52.4396 57.3256 52.4396 57.7524V61.4159ZM55.1231 44.2054C51.4824 47.476 49.7496 49.5781 49.7496 52.6785V54.465H39.4612V45.3019C39.4612 42.2411 41.3111 39.7819 44.0896 37.0301L47.3851 33.7597C48.194 32.9564 49.505 32.9601 50.3076 33.7677C51.1091 34.5746 51.1039 35.8891 50.2967 36.6971L45.2422 41.746C44.7539 42.2339 44.7534 43.0254 45.2412 43.5137C45.7291 44.0021 46.5206 44.0026 47.009 43.5147L52.0645 38.4649C53.7029 36.8246 53.837 34.2371 52.4647 32.4471L53.0376 19.4145C53.0834 18.3807 53.7351 17.3036 54.8897 17.2454C55.9256 17.1927 56.8099 18.0284 56.943 19.1832L58.9817 36.8987C58.9826 36.9065 58.9836 36.9141 58.9846 36.9219C59.4209 40.1757 58.0385 41.5817 55.1231 44.2054Z" fill="#FFCB05"/>
<path d="M25.0414 54.5196V45.3019C25.0414 41.1445 22.4614 38.0161 19.6736 35.2552L16.3755 31.9856C15.1806 30.7992 13.4876 30.4124 11.9657 30.8209L11.4625 19.3041C11.3509 16.7824 9.57362 14.8665 7.23375 14.7484C4.86125 14.6316 2.85837 16.4173 2.5725 18.8974L0.534996 36.6024C-0.0867537 41.3053 2.36737 43.5109 5.20887 46.0651C8.73387 49.2316 9.75312 50.7151 9.75312 52.6785V54.5196C8.22512 54.7995 7.063 56.1421 7.063 57.7524V61.4159C7.063 63.2284 8.53512 64.7031 10.3446 64.7031H24.4496C26.2591 64.7031 27.7312 63.2285 27.7312 61.4159V57.7524C27.7314 56.1421 26.5694 54.7996 25.0414 54.5196ZM6.87987 44.2056C3.9635 41.5841 2.58087 40.1794 3.01462 36.9209C3.01562 36.9134 3.01662 36.9061 3.01737 36.8988L5.05612 19.1835C5.18912 18.0283 6.07262 17.1938 7.11037 17.2453C8.2675 17.3036 8.91925 18.3808 8.965 19.4139L9.5345 32.4469C8.16087 34.238 8.29687 36.8264 9.93912 38.4658L14.9935 43.5146C15.482 44.0024 16.2732 44.0021 16.7612 43.5136C17.2491 43.0253 17.2486 42.2338 16.7602 41.7459L11.7056 36.6968C10.8961 35.8885 10.8897 34.5746 11.6902 33.7689C12.4945 32.9618 13.806 32.9574 14.6147 33.7603L17.9139 37.031C20.6915 39.7817 22.5412 42.241 22.5412 45.3018V54.465H12.253V52.6785C12.2531 49.5783 10.5204 47.476 6.87987 44.2056ZM25.2315 61.4159C25.2315 61.8426 24.8735 62.2033 24.4497 62.2033H10.3447C9.921 62.2033 9.563 61.8426 9.563 61.4159V57.7524C9.563 57.3256 9.921 56.965 10.3447 56.965H24.4497C24.8735 56.965 25.2315 57.3256 25.2315 57.7524V61.4159Z" fill="#FFCB05"/>
<path d="M42.7307 5.56837C40.3272 3.1625 37.2941 1.5725 33.9591 0.970372C30.7016 0.382122 27.3824 0.769122 24.36 2.08912C23.7275 2.3655 23.4385 3.10225 23.7149 3.73487C23.9912 4.36737 24.7281 4.65662 25.3606 4.38C30.7105 2.04362 36.8345 3.20325 40.9621 7.33512C46.4581 12.8367 46.4582 21.7856 40.9617 27.2842C38.3021 29.9482 34.7652 31.4156 31.0029 31.4162C31.002 31.4162 31.0016 31.4162 31.0006 31.4162C27.2377 31.4162 23.6987 29.9485 21.0365 27.2836C16.9111 23.1574 15.7499 17.0296 18.0779 11.6727C18.3531 11.0397 18.0629 10.3034 17.4297 10.0282C16.797 9.753 16.0604 10.0431 15.7852 10.6764C14.4706 13.7012 14.0866 17.0216 14.6747 20.2784C15.2771 23.6139 16.8656 26.6474 19.2684 29.0506C22.4027 32.1882 26.5693 33.916 31.0007 33.916H31.0034C35.434 33.9152 39.599 32.1872 42.7305 29.0509C49.2001 22.5787 49.2002 12.0444 42.7307 5.56837Z" fill="#00ADEF"/>
<path d="M20.1492 7.70525C20.4691 7.70525 20.789 7.58312 21.0331 7.33912L21.0366 7.33562C21.5247 6.8475 21.5229 6.05787 21.0347 5.56975C20.5465 5.08162 19.7532 5.0835 19.2652 5.5715C18.7771 6.05962 18.7771 6.85112 19.2652 7.33925C19.5095 7.58312 19.8292 7.70525 20.1492 7.70525Z" fill="#00ADEF"/>
</svg>
