<svg width="60" height="60" viewBox="0 0 60 60" fill="none" xmlns="http://www.w3.org/2000/svg">
<path d="M23.8934 26.6314H7.17913C5.3577 26.6314 3.96484 25.263 3.96484 23.4735V7.05243C3.96484 5.26295 5.3577 3.89453 7.17913 3.89453H23.8934C25.7148 3.89453 27.1077 5.26295 27.1077 7.05243V23.4735C27.1077 25.1577 25.6077 26.6314 23.8934 26.6314ZM7.17913 5.99979C6.53627 5.99979 6.1077 6.42085 6.1077 7.05243V23.4735C6.1077 24.1051 6.53627 24.5261 7.17913 24.5261H23.8934C24.5363 24.5261 24.9648 24.1051 24.9648 23.4735V7.05243C24.9648 6.42085 24.5363 5.99979 23.8934 5.99979H7.17913Z" fill="#45485C"/>
<path d="M52.8211 26.6314H36.1069C34.2854 26.6314 32.8926 25.263 32.8926 23.4735V7.05243C32.8926 5.26295 34.2854 3.89453 36.1069 3.89453H52.8211C54.6426 3.89453 56.0354 5.26295 56.0354 7.05243V23.4735C56.0354 25.1577 54.5354 26.6314 52.8211 26.6314ZM36.1069 5.99979C35.464 5.99979 35.0354 6.42085 35.0354 7.05243V23.4735C35.0354 24.1051 35.464 24.5261 36.1069 24.5261H52.8211C53.464 24.5261 53.8926 24.1051 53.8926 23.4735V7.05243C53.8926 6.42085 53.464 5.99979 52.8211 5.99979H36.1069Z" fill="#45485C"/>
<path d="M23.8934 56.1055H7.17913C5.3577 56.1055 3.96484 54.7371 3.96484 52.9476V36.5265C3.96484 34.7371 5.3577 33.3687 7.17913 33.3687H23.8934C25.7148 33.3687 27.1077 34.7371 27.1077 36.5265V52.9476C27.1077 54.6318 25.6077 56.1055 23.8934 56.1055ZM7.17913 35.4739C6.53627 35.4739 6.1077 35.895 6.1077 36.5265V52.9476C6.1077 53.5792 6.53627 54.0002 7.17913 54.0002H23.8934C24.5363 54.0002 24.9648 53.5792 24.9648 52.9476V36.5265C24.9648 35.895 24.5363 35.4739 23.8934 35.4739H7.17913Z" fill="#45485C"/>
<path d="M45.9646 34.9472V40.4209V40.5261V40.6314C46.0717 41.5788 46.9289 42.6314 48.2146 42.6314H53.6788V46.7367H48.2146H48.1074H48.0003C46.8217 46.8419 45.9646 47.7893 45.9646 48.9472V54.4209H41.8931C41.8931 52.4209 41.8931 48.9472 41.8931 48.9472C41.8931 47.8946 41.036 46.7367 39.536 46.7367H34.1788V42.6314H39.6431H39.9646L40.286 42.5261C41.036 42.2103 41.786 41.4735 41.786 40.4209V34.9472H45.9646ZM47.2503 33.1577C47.2503 33.1577 40.8217 33.1577 40.3931 33.1577C39.9646 33.1577 39.9646 33.5788 39.9646 33.5788C39.9646 33.5788 39.9646 40.1051 39.9646 40.4209C39.9646 40.7367 39.6431 40.8419 39.6431 40.8419C39.6431 40.8419 33.2146 40.8419 32.786 40.8419C32.3574 40.8419 32.3574 41.263 32.3574 41.263C32.3574 41.263 32.3574 47.684 32.3574 48.1051C32.3574 48.5261 32.786 48.5261 32.786 48.5261C32.786 48.5261 39.0003 48.5261 39.536 48.5261C40.0717 48.5261 40.0717 48.9472 40.0717 48.9472C40.0717 48.9472 40.0717 55.3682 40.0717 55.7893C40.0717 56.2103 40.5003 56.2103 40.5003 56.2103C40.5003 56.2103 46.8217 56.2103 47.3574 56.2103C47.8931 56.2103 47.786 55.7893 47.786 55.7893C47.786 55.7893 47.786 49.3682 47.786 48.9472C47.786 48.5261 48.2146 48.5261 48.2146 48.5261C48.2146 48.5261 54.6431 48.5261 55.0717 48.5261C55.5003 48.5261 55.5003 48.1051 55.5003 48.1051C55.5003 48.1051 55.5003 41.684 55.5003 41.263C55.5003 40.8419 55.0717 40.8419 55.0717 40.8419C55.0717 40.8419 48.6431 40.8419 48.2146 40.8419C47.786 40.8419 47.786 40.4209 47.786 40.4209C47.786 40.4209 47.786 33.9998 47.786 33.5788C47.786 33.1577 47.3574 33.1577 47.2503 33.1577Z" fill="#00ADEF"/>
</svg>
