<svg width="328" height="289" viewBox="0 0 328 289" fill="none" xmlns="http://www.w3.org/2000/svg">
<path d="M284.674 42.32C256.728 15.0271 219.578 0 180.058 0C149.562 0 120.36 8.96344 95.4794 25.9279L91.454 21.0027C90.9709 20.4115 90.2174 20.1033 89.4381 20.1913C88.6652 20.2731 87.9954 20.7386 87.6604 21.4242L79.0686 38.7849C78.6886 39.546 78.7981 40.4518 79.3391 41.1186C79.7706 41.6469 80.4276 41.9489 81.1039 41.9489C81.2713 41.9489 81.4452 41.93 81.6127 41.8923L100.851 37.5458C101.604 37.3759 102.216 36.8413 102.474 36.1242C102.732 35.4071 102.59 34.6209 102.107 34.0296L98.3069 29.3812C122.369 13.0331 150.592 4.40309 180.058 4.40309C259.149 4.40309 323.498 67.2478 323.498 144.491C323.498 221.733 259.149 284.578 180.058 284.578C138.252 284.578 98.616 266.815 71.3141 235.848C71.2561 235.779 71.1852 235.723 71.1144 235.666C71.0951 235.653 71.0822 235.635 71.0629 235.622C70.9663 235.54 70.8568 235.465 70.7473 235.402C70.7344 235.396 70.728 235.389 70.7151 235.383C70.5992 235.32 70.4832 235.27 70.3608 235.226C70.3415 235.219 70.3286 235.213 70.3158 235.207C70.1998 235.169 70.0775 235.144 69.9551 235.125C69.9293 235.119 69.9036 235.119 69.8842 235.112C69.7619 235.1 69.6395 235.094 69.5171 235.1C69.4978 235.1 69.4785 235.094 69.4527 235.1C67.527 235.232 65.5368 235.301 63.5273 235.301C46.6206 235.301 32.6701 230.263 22.0624 220.324C11.9248 210.826 6.08309 197.831 4.67903 181.678H34.5121C36.206 190.383 39.6325 197.051 44.6948 201.517C50.1501 206.329 57.1124 208.763 65.3758 208.763C73.9998 208.763 81.2713 206.002 86.9842 200.554C92.7099 195.088 95.6147 188.326 95.6147 180.439C95.6147 171.746 91.7181 164.317 84.0344 158.367C76.9239 152.856 66.812 149.843 53.9436 149.397V124.67C61.5436 123.96 67.2049 122.708 71.211 120.846C75.6293 118.802 79.1266 115.927 81.6062 112.317C84.1116 108.675 85.3804 104.737 85.3804 100.617C85.3804 95.1948 83.3967 90.6219 79.4937 87.0365C75.6229 83.4826 70.5412 81.6836 64.3904 81.6836C58.9866 81.6836 54.0145 83.3065 49.609 86.5144C45.6674 89.3827 42.8077 93.0562 41.0881 97.453H12.1373C14.0566 86.0427 18.5651 76.7018 25.5725 69.6443C36.0901 59.0643 49.5253 53.6988 65.4982 53.6988C79.7127 53.6988 91.776 58.1585 101.366 66.9458C110.918 75.7017 115.755 86.2188 115.755 98.2078C115.755 105.599 113.661 112.436 109.533 118.544C107.981 120.84 106.119 122.997 104.033 124.972C102.983 124.412 101.778 124.098 100.497 124.098C96.4004 124.098 93.0706 127.35 93.0706 131.35C93.0706 135.351 96.4004 138.603 100.497 138.603C104.593 138.603 107.923 135.351 107.923 131.35C107.923 130.199 107.639 129.111 107.15 128.143C109.481 125.941 111.555 123.538 113.294 120.965C117.919 114.128 120.263 106.467 120.263 98.2015C120.263 84.9482 114.943 73.3492 104.451 63.7316C93.998 54.1517 80.8913 49.2895 65.4917 49.2895C48.2565 49.2895 33.7328 55.1015 22.3329 66.5747C14.1339 74.8337 9.07155 85.8666 7.29393 99.3715C7.2102 100 7.40986 100.629 7.83495 101.108C8.26003 101.586 8.87833 101.856 9.52884 101.856H42.6918C43.6772 101.856 44.5531 101.227 44.843 100.309C46.1891 96.0691 48.6301 92.7165 52.2948 90.0432C55.9531 87.3825 59.9077 86.0867 64.3839 86.0867C69.4205 86.0867 73.3558 87.4454 76.4022 90.2445C79.41 93.0059 80.872 96.4025 80.872 100.623C80.872 103.9 79.8866 106.926 77.8642 109.87C75.8418 112.813 72.95 115.172 69.2788 116.871C65.4788 118.632 59.5019 119.84 51.5155 120.456C50.3433 120.544 49.4416 121.5 49.4416 122.651V151.548C49.4416 152.756 50.4335 153.737 51.6701 153.75C64.5771 153.907 74.5215 156.618 81.2391 161.82C87.8794 166.965 91.1126 173.054 91.1126 180.439C91.1126 187.188 88.736 192.736 83.8411 197.403C78.9333 202.083 72.892 204.36 65.3822 204.36C58.1687 204.36 52.3914 202.36 47.7219 198.246C43.0847 194.157 40.0253 187.729 38.6406 179.13C38.4667 178.061 37.5264 177.275 36.4121 177.275H2.25734C1.63904 177.275 1.04649 177.526 0.614971 177.967C0.189887 178.407 -0.0290948 178.998 0.00310845 179.608C1.09802 197.994 7.46783 212.764 18.9386 223.507C30.4159 234.257 45.4162 239.711 63.5209 239.711C65.247 239.711 66.9602 239.654 68.6348 239.56C96.7675 270.991 137.305 289 180.052 289C219.572 289 256.721 273.973 284.667 246.68C312.613 219.387 328 183.106 328 144.509C328 105.913 312.62 69.6129 284.674 42.32ZM85.1744 36.5645L90.1594 26.4877L96.336 34.0422L85.1744 36.5645ZM100.503 134.194C98.8929 134.194 97.5855 132.917 97.5855 131.344C97.5855 129.772 98.8929 128.495 100.503 128.495C102.113 128.495 103.421 129.772 103.421 131.344C103.421 132.917 102.113 134.194 100.503 134.194Z" fill="#FFCB05"/>
</svg>
