<svg width="24" height="24" viewBox="0 0 24 24" fill="none" xmlns="http://www.w3.org/2000/svg">
<path d="M7.42862 3C6.80005 3 6.28577 3.51429 6.28577 4.14286V20.1429C6.28577 20.7714 6.80005 21.2857 7.42862 21.2857H18.8572C19.4858 21.2857 20.0001 20.7714 20.0001 20.1429V7.57143L15.4286 3H7.42862Z" fill="#E2E5E7"/>
<path d="M16.5714 7.57143H20L15.4286 3V6.42857C15.4286 7.05714 15.9429 7.57143 16.5714 7.57143Z" fill="#B0B7BD"/>
<path d="M20 11L16.5714 7.57143H20V11Z" fill="#CAD1D8"/>
<path d="M17.7143 17.8571C17.7143 18.1714 17.4571 18.4286 17.1429 18.4286H4.57143C4.25714 18.4286 4 18.1714 4 17.8571V12.1429C4 11.8286 4.25714 11.5714 4.57143 11.5714H17.1429C17.4571 11.5714 17.7143 11.8286 17.7143 12.1429V17.8571Z" fill="#F15642"/>
<path d="M6.62354 13.8269C6.62354 13.676 6.74239 13.5114 6.93382 13.5114H7.98925C8.58354 13.5114 9.11839 13.9092 9.11839 14.6714C9.11839 15.3937 8.58354 15.796 7.98925 15.796H7.22639V16.3994C7.22639 16.6006 7.09896 16.7143 6.93439 16.7143C6.78354 16.7143 6.62411 16.6006 6.62411 16.3994V13.8269H6.62354V13.8269ZM7.22639 14.0869V15.2251H7.98925C8.29554 15.2251 8.53782 14.9549 8.53782 14.6714C8.53782 14.352 8.29554 14.0869 7.98925 14.0869H7.22639Z" fill="white"/>
<path d="M9.70056 13.8268C9.70056 13.676 9.81942 13.5114 10.0114 13.5114H11.0668C11.6611 13.5114 12.196 13.9091 12.196 14.6714C12.196 15.3937 11.6611 15.796 11.0668 15.796H10.304V16.3994C10.304 16.6005 10.176 16.7143 10.0114 16.7143C9.86056 16.7143 9.70056 16.6005 9.70056 16.3994V13.8268V13.8268ZM10.3034 14.0868V15.2251H11.0663C11.3726 15.2251 11.6148 14.9548 11.6148 14.6714C11.6148 14.352 11.3726 14.0868 11.0663 14.0868H10.3034Z" fill="white"/>
<path d="M13.6313 14.124H12.8325C12.4348 14.124 12.4348 13.5394 12.8325 13.5394H14.993C15.3999 13.5394 15.3999 14.124 14.993 14.124H14.2348V16.4314C14.2348 16.8285 13.6313 16.8383 13.6313 16.4314V14.124Z" fill="white"/>
<path d="M17.1429 18.4286H6.28577V19H17.1429C17.4572 19 17.7143 18.7429 17.7143 18.4286V17.8571C17.7143 18.1714 17.4572 18.4286 17.1429 18.4286Z" fill="#CAD1D8"/>
</svg>
