<svg width="242" height="220" viewBox="0 0 242 220" fill="none" xmlns="http://www.w3.org/2000/svg">
<path d="M0.03125 105.12C31.0029 71.9488 68.4643 45.5 110.088 27.4164C151.713 9.33282 196.61 0.000800143 241.993 0L241.996 167.198C219.534 167.199 197.313 171.817 176.712 180.768C156.111 189.718 137.57 202.808 122.241 219.226L0.03125 105.12Z" fill="#72C3FD"/>
<g clip-path="url(#clip0_1_41774)">
<path d="M140.359 97.0052L131.198 84.0801C130.91 84.4225 130.575 84.7343 130.193 85.0049C128.659 86.0918 126.747 86.2585 125.115 85.6198C124.782 86.7265 124.094 87.7348 123.08 88.4533C121.701 89.4305 120.017 89.6638 118.505 89.2371C118.154 90.1666 117.533 91.0049 116.663 91.6213L111.509 95.274L109.797 92.8582L114.951 89.2056C115.942 88.5028 116.177 87.1243 115.475 86.1327C114.772 85.141 113.393 84.9061 112.402 85.6089L100.887 93.7703L107.134 102.584C109.485 105.902 113.648 107.189 117.339 106.059L120.765 110.893L140.359 97.0052Z" fill="white"/>
<path d="M105.708 86.7258L101.262 80.4523C100.491 79.3645 98.9787 79.1067 97.8908 79.8777C96.8029 80.6488 96.5452 82.161 97.3162 83.2488L101.763 89.5224L105.708 86.7258Z" fill="white"/>
<path d="M108.124 85.0137L110.693 83.1934C111.175 82.8516 111.697 82.6058 112.235 82.4495L108.375 77.0039C107.604 75.9161 106.092 75.6583 105.004 76.4294C103.916 77.2004 103.659 78.7127 104.43 79.8005L108.124 85.0137Z" fill="white"/>
<path d="M116.172 82.884C116.835 83.248 117.428 83.7631 117.893 84.4204C118.266 84.9455 118.524 85.517 118.677 86.106C119.481 86.615 120.547 86.6212 121.371 86.0376C122.459 85.2666 122.716 83.7543 121.945 82.6665L115.934 74.1847C115.163 73.0969 113.651 72.8391 112.563 73.6102C111.475 74.3812 111.217 75.8935 111.988 76.9813L116.172 82.884Z" fill="white"/>
<path d="M120.601 75.6531L125.11 82.0145C125.881 83.1023 127.393 83.3601 128.481 82.5891C129.569 81.818 129.827 80.3058 129.056 79.218L124.547 72.8566C123.776 71.7688 122.264 71.511 121.176 72.282C120.088 73.0531 119.83 74.5653 120.601 75.6531Z" fill="white"/>
<path d="M133.484 105.509L138.799 101.742L144.031 109.123L138.716 112.89L133.484 105.509Z" fill="white"/>
<path d="M120.332 114.83L123.338 112.7L128.57 120.081L125.564 122.212L120.332 114.83Z" fill="white"/>
<path d="M141.215 100.03L144.221 97.8989L149.453 105.28L146.446 107.411L141.215 100.03Z" fill="white"/>
<path d="M125.754 110.988L131.068 107.221L136.3 114.602L130.986 118.369L125.754 110.988Z" fill="white"/>
</g>
<defs>
<clipPath id="clip0_1_41774">
<rect width="50.5409" height="50.5409" fill="white" transform="translate(86.1641 88.1897) rotate(-35.3276)"/>
</clipPath>
</defs>
</svg>
