<svg width="40" height="40" viewBox="0 0 40 40" fill="none" xmlns="http://www.w3.org/2000/svg">
<g clip-path="url(#clip0_4477_191821)">
<path d="M24.9057 16.2249C24.8434 16.1625 24.7637 16.1314 24.6668 16.1314H22.8896C22.7717 15.5565 22.55 15.0574 22.2243 14.6348H24.6459C24.743 14.6348 24.8225 14.6036 24.885 14.5414C24.9471 14.4791 24.9782 14.3993 24.9782 14.3024V13.242C24.9782 13.145 24.9471 13.0653 24.885 13.0029C24.8225 12.9407 24.743 12.9094 24.6458 12.9094H15.9986C15.9015 12.9094 15.8219 12.9407 15.7595 13.0029C15.6973 13.0653 15.666 13.1449 15.666 13.242V14.6243C15.666 14.7143 15.6989 14.7923 15.7647 14.8581C15.8306 14.9239 15.9085 14.9568 15.9986 14.9568H17.5056C18.9675 14.9568 19.896 15.3482 20.2909 16.1312H15.9986C15.9015 16.1312 15.8218 16.1624 15.7595 16.2247C15.6973 16.2871 15.666 16.3667 15.666 16.4638V17.524C15.666 17.621 15.6971 17.7007 15.7595 17.7629C15.8219 17.8253 15.9017 17.8564 15.9986 17.8564H20.4367C20.2842 18.4247 19.9291 18.8577 19.3712 19.1556C18.8133 19.4536 18.0773 19.6026 17.1626 19.6026H15.9986C15.9085 19.6026 15.8306 19.6356 15.7647 19.7014C15.6989 19.7672 15.666 19.8452 15.666 19.9352V21.2553C15.666 21.3455 15.6971 21.4217 15.7595 21.484C17.0898 22.8974 18.8152 24.8755 20.9354 27.4186C20.9978 27.5018 21.0844 27.5433 21.1953 27.5433H23.2219C23.3676 27.5433 23.4681 27.4812 23.5234 27.3562C23.5927 27.2315 23.5791 27.1137 23.4818 27.0028C21.4588 24.5222 19.8684 22.6652 18.7113 21.4319C19.8892 21.2934 20.8454 20.9122 21.58 20.2887C22.3144 19.6651 22.7612 18.8543 22.9207 17.8566H24.6668C24.7637 17.8566 24.8434 17.8255 24.9057 17.7631C24.9681 17.7009 24.9993 17.6211 24.9993 17.5242V16.4641C24.9993 16.3669 24.9681 16.2873 24.9057 16.2249Z" fill="#2F3245"/>
<path d="M20 0C15.689 0 11.4925 1.48688 8.06613 4.06523L5.30121 1.30039L1.97559 14.5813L15.2611 11.2602L13.1107 9.10867C15.1603 7.79719 17.5167 7.03125 20 7.03125C27.1079 7.03125 32.9688 12.8921 32.9688 20C32.9688 21.5621 32.5861 23.0702 32.0522 24.4951L39.7317 22.5753C39.8414 21.7259 40 20.8693 40 20C40 9.01484 30.9852 0 20 0Z" fill="#FFCB05"/>
<path d="M24.739 28.7399L26.8894 30.8913C24.8397 32.2028 22.4834 32.9687 20 32.9687C12.8921 32.9687 7.03125 27.1078 7.03125 19.9999C7.03125 18.4377 7.41406 16.9293 7.94797 15.5044L0.268516 17.4242C0.158828 18.2738 0 19.1305 0 19.9999C0 30.9851 9.01484 39.9999 20 39.9999C24.311 39.9999 28.5075 38.5131 31.9339 35.9347L34.6988 38.6996L38.0245 25.4188L24.739 28.7399Z" fill="#FFCB05"/>
</g>
<defs>
<clipPath id="clip0_4477_191821">
<rect width="40" height="40" fill="white"/>
</clipPath>
</defs>
</svg>
