<svg width="328" height="289" viewBox="0 0 328 289" fill="none" xmlns="http://www.w3.org/2000/svg">
<path d="M286.957 42.3228C260.487 15.0281 225.294 0 187.868 0C157.549 0 128.785 9.78808 104.542 28.3137L100.797 23.4763C100.339 22.885 99.6256 22.5767 98.8874 22.6648C98.1554 22.7466 97.5209 23.2121 97.2037 23.8978L89.0658 41.2597C88.7059 42.0208 88.8096 42.9266 89.322 43.5934C89.7307 44.1218 90.3469 44.4238 90.9874 44.4238C91.146 44.4238 91.3107 44.4049 91.4693 44.3672L109.691 40.0204C110.405 39.8506 110.985 39.3159 111.229 38.5988C111.473 37.8816 111.338 37.0953 110.881 36.504L107.208 31.7672C130.683 13.8581 158.519 4.40338 187.868 4.40338C262.781 4.40338 323.73 67.2522 323.73 144.5C323.73 221.748 262.781 284.597 187.868 284.597C147.172 284.597 108.959 266.014 83.0264 233.612C82.3676 232.788 81.2451 232.586 80.3666 233.077H4.27028V220.043L56.7825 164.825C69.7092 151.338 78.4511 140.292 82.7763 131.988C87.1686 123.559 89.3952 115.771 89.3952 108.852C89.3952 101.448 86.9611 95.2262 82.1601 90.3636C77.3713 85.5136 71.1489 83.0477 63.6759 83.0477C56.0687 83.0477 49.645 86.0106 44.5695 91.8482C39.9454 97.17 37.2917 104.291 36.6634 113.028H9.07129C10.2487 95.6665 15.861 81.7707 25.762 71.7059C36.0777 61.2195 49.5413 55.904 65.7745 55.904C75.7913 55.904 84.7345 58.0994 92.36 62.4336C99.955 66.7552 106.122 73.0772 110.692 81.2297C115.267 89.4012 117.585 97.799 117.585 106.197C117.585 116.318 114.73 127.415 109.099 139.178C103.42 151.042 92.8358 165.315 77.6336 181.62L58.3564 202.568C57.7708 203.203 57.606 204.147 57.9416 204.952C58.2771 205.764 59.0518 206.286 59.9059 206.286H104.219C105.11 209.236 107.788 211.387 110.942 211.387C114.822 211.387 117.976 208.135 117.976 204.134C117.976 200.134 114.816 196.894 110.936 196.894C107.818 196.894 105.171 198.995 104.25 201.901H64.8716L80.7143 184.678C96.2155 168.058 107.05 153.414 112.924 141.141C118.848 128.767 121.849 117.017 121.849 106.216C121.849 97.0379 119.336 87.8977 114.382 79.0469C109.423 70.1898 102.7 63.308 94.4158 58.5964C86.1498 53.9036 76.5112 51.5195 65.7684 51.5195C48.3761 51.5195 33.906 57.2628 22.7606 68.5858C11.6335 79.8899 5.55136 95.5533 4.6729 115.142C4.6485 115.746 4.85592 116.331 5.25854 116.765C5.66117 117.199 6.2224 117.444 6.80194 117.444H38.6765C39.8295 117.444 40.769 116.507 40.8117 115.318C41.1045 106.662 43.4348 99.7554 47.7417 94.7984C52.0303 89.8604 57.2339 87.4637 63.6637 87.4637C70.0692 87.4637 75.1386 89.4452 79.1587 93.5152C83.1667 97.5789 85.1188 102.599 85.1188 108.864C85.1188 115.048 83.063 122.131 79.0123 129.919C74.8824 137.845 66.3845 148.551 53.7384 161.749L0.61004 217.609C0.219614 218.018 0 218.571 0 219.15V235.285C0 236.499 0.957762 237.487 2.13514 237.487H80.6106C107.336 270.242 146.342 289 187.862 289C225.294 289 260.481 273.972 286.95 246.677C313.42 219.383 327.994 183.099 327.994 144.5C327.994 105.901 313.42 69.6174 286.957 42.3228ZM94.849 39.0328L99.5707 28.9554L105.421 36.5103L94.849 39.0328ZM110.936 201.297C112.461 201.297 113.699 202.574 113.699 204.147C113.699 205.72 112.461 206.997 110.936 206.997C109.411 206.997 108.172 205.72 108.172 204.147C108.172 202.574 109.411 201.297 110.936 201.297Z" fill="#FFCB05"/>
</svg>
