<svg width="54" height="42" viewBox="0 0 54 42" fill="none" xmlns="http://www.w3.org/2000/svg">
<path d="M9.12189 13.0898H2.92032V16.2539H9.12189V13.0898Z" fill="#45485C"/>
<path d="M9.12189 25.7461H2.92032V28.9102H9.12189V25.7461Z" fill="#45485C"/>
<path d="M9.12199 19.418H0V22.582H9.12199V19.418Z" fill="#45485C"/>
<path d="M33.1429 0.143066C21.6424 0.143066 12.2859 9.49952 12.2859 21C12.2859 32.5006 21.6423 41.857 33.1429 41.857C44.6436 41.857 54 32.5006 54 21C54 9.49952 44.6436 0.143066 33.1429 0.143066ZM33.1429 38.693C23.3871 38.693 15.45 30.7559 15.45 21C15.45 11.2442 23.3871 3.30713 33.1429 3.30713C42.8989 3.30713 50.8359 11.2442 50.8359 21C50.8359 30.7559 42.8989 38.693 33.1429 38.693Z" fill="#45485C"/>
<path d="M34.1645 21.7863V11.5667H31.0004V23.4589L39.154 29.0153L40.9359 26.4006L34.1645 21.7863Z" fill="#00ADEF"/>
</svg>
