<svg width="60" height="55" viewBox="0 0 60 55" fill="none" xmlns="http://www.w3.org/2000/svg">
<path d="M3.39795 54.097C3.5007 54.684 4.05973 55.0765 4.64669 54.9738L13.4569 53.4326C14.0439 53.3299 14.4364 52.7708 14.3337 52.1839L14.1619 51.2002L16.2168 49.5315C17.0219 48.8608 18.0567 48.5304 19.101 48.6089L33.4684 49.659C33.4926 49.6611 33.5163 49.6616 33.5406 49.6622H33.6291C36.7994 49.6553 39.886 48.6453 42.4462 46.7753C42.4873 46.7453 42.5262 46.7121 42.5631 46.6762L59.6756 29.9205C60.084 29.5211 60.1098 28.873 59.7357 28.442C57.7609 26.1626 54.3445 25.837 51.9751 27.7017L44.1148 33.5792C42.4804 31.5902 39.9028 30.6339 37.3669 31.0754L29.3323 32.4806C28.0519 32.703 26.7384 32.6345 25.488 32.2804L24.5897 32.0238C19.9725 30.6976 14.9981 31.7303 11.2898 34.7847L10.9515 32.85C10.8488 32.263 10.2897 31.8705 9.70278 31.9732L0.893092 33.5144C0.306131 33.6177 -0.0864064 34.1767 0.0163382 34.7637L3.39795 54.097ZM23.9996 34.1003L24.8979 34.3564C26.4612 34.7995 28.1035 34.8849 29.7042 34.6072L37.7389 33.202C40.0409 32.802 42.3123 34.0518 43.2065 36.2105L31.1785 38.3144C30.6263 38.4103 30.2396 38.9124 30.288 39.4704C30.336 40.0284 30.8028 40.4568 31.3629 40.4568C31.4256 40.4568 31.4883 40.4515 31.5505 40.4404L44.7571 38.1305C45.3441 38.0273 45.7366 37.4682 45.6339 36.8813C45.548 36.3897 45.4105 35.9081 45.2239 35.4449L53.2781 29.4225C53.2854 29.4167 53.2928 29.4109 53.3002 29.4051C54.4636 28.4852 56.0812 28.3998 57.3346 29.1928L41.1089 45.0845C38.9307 46.6568 36.3147 47.5066 33.6286 47.5135H33.588L19.2575 46.4618C17.661 46.3406 16.0798 46.8438 14.8474 47.866L13.7356 48.7675L11.7297 37.2991C14.9285 34.0724 19.6321 32.8463 23.9996 34.1003ZM9.01202 34.2853L12.0222 51.4926L5.33798 52.6623L2.32783 35.455L9.01202 34.2853Z" fill="#45485C"/>
<path d="M21.0261 7.87553C20.4277 7.53006 20.2184 6.76115 20.6141 6.19477C22.4857 3.51618 25.2162 1.53722 28.372 0.600006C31.9293 -0.456397 35.7561 -0.108811 39.0648 1.5712C42.3734 3.25122 44.9121 6.1358 46.1581 9.6311C47.4041 13.1264 47.2627 16.9664 45.7629 20.3606C44.2631 23.7547 41.5191 26.4447 38.0958 27.8767C34.6725 29.3088 30.8304 29.3739 27.3606 28.0586C23.8907 26.7434 21.0572 24.1479 19.4433 20.8065C18.0115 17.8421 17.6362 14.4908 18.3567 11.3035C18.509 10.6296 19.2185 10.2667 19.8768 10.4765C20.5351 10.6863 20.8917 11.3895 20.7515 12.0661C20.2183 14.6399 20.5431 17.3307 21.6963 19.7182C23.0318 22.4831 25.3764 24.6307 28.2474 25.719C31.1185 26.8073 34.2976 26.7534 37.1302 25.5685C39.9628 24.3835 42.2333 22.1577 43.4742 19.3493C44.7152 16.5408 44.8323 13.3634 43.8013 10.4713C42.7703 7.57912 40.6697 5.1923 37.932 3.80219C35.1942 2.41208 32.0277 2.12447 29.0844 2.99858C26.5426 3.75341 24.3343 5.32493 22.7904 7.45208C22.3845 8.01124 21.6245 8.221 21.0261 7.87553Z" fill="#00ADEF"/>
<path d="M31.9425 17.0294H37.9797C38.5756 17.0294 39.0587 16.5463 39.0587 15.9504C39.0587 15.3544 38.5756 14.8713 37.9797 14.8713H32.9673V7.97264C32.9673 7.37619 32.4841 6.89355 31.8882 6.89355C31.2923 6.89355 30.8091 7.37619 30.8091 7.97264V15.8966C30.8307 16.5131 31.3255 17.0084 31.9425 17.0294Z" fill="#00ADEF"/>
</svg>
