<svg width="328" height="289" viewBox="0 0 328 289" fill="none" xmlns="http://www.w3.org/2000/svg">
<path d="M285.703 42.3228C258.431 15.0281 222.162 0 183.587 0C152.85 0 123.586 9.50501 98.8282 27.5022L95.119 22.8535C94.6475 22.2622 93.912 21.954 93.1513 22.0421C92.3969 22.1238 91.743 22.5893 91.4161 23.275L83.0296 40.6369C82.6586 41.398 82.7655 42.3039 83.2936 42.9707C83.7148 43.4991 84.3561 43.801 85.0162 43.801C85.1796 43.801 85.3494 43.7822 85.5128 43.7444L104.291 39.3977C105.027 39.2278 105.624 38.6931 105.876 37.976C106.127 37.2589 105.989 36.4726 105.517 35.8812L101.582 30.9557C125.547 13.5813 153.856 4.40338 183.587 4.40338C260.788 4.40338 323.599 67.2522 323.599 144.5C323.599 221.748 260.788 284.597 183.587 284.597C140.843 284.597 101.06 265.461 74.3098 232.083V55.319C74.3098 54.1049 73.3228 53.1173 72.1094 53.1173H21.6895C20.9288 53.1173 20.2184 53.5136 19.816 54.1615L0.327008 85.8344C-0.0879188 86.5138 -0.106779 87.363 0.276714 88.0613C0.666494 88.7595 1.40205 89.1873 2.20047 89.1873H36.4571V231.574C33.7915 232.649 31.9055 235.254 31.9055 238.305C31.9055 242.305 35.1558 245.558 39.1541 245.558C43.1525 245.558 46.4028 242.305 46.4028 238.305C46.4028 234.889 44.0327 232.027 40.8516 231.259V86.9856C40.8516 85.7715 39.8645 84.7839 38.6512 84.7839H6.14228L22.928 57.5207H69.9153V232.429C69.9153 232.574 69.9342 232.712 69.9594 232.844C69.9468 233.341 70.0914 233.851 70.4246 234.272C98.0172 269.053 139.265 289 183.593 289C222.168 289 258.431 273.972 285.709 246.677C312.987 219.383 328.006 183.099 328.006 144.5C328 105.901 312.981 69.6174 285.703 42.3228ZM88.9957 38.41L93.8617 28.3326L99.8907 35.8875L88.9957 38.41ZM42.0083 238.305C42.0083 239.877 40.7321 241.154 39.1604 241.154C37.5887 241.154 36.3125 239.877 36.3125 238.305C36.3125 236.732 37.5887 235.455 39.1604 235.455C40.7321 235.455 42.0083 236.732 42.0083 238.305Z" fill="#FFCB05"/>
</svg>
