<svg width="52" height="36" viewBox="0 0 52 36" fill="none" xmlns="http://www.w3.org/2000/svg">
<path d="M26.5928 35.1245C26.019 35.1245 25.447 34.9827 24.9407 34.7043L23.8202 34.0985C23.4102 33.8774 23.2583 33.3644 23.481 32.9544C23.7021 32.5443 24.2151 32.3924 24.6252 32.6152L25.749 33.2227C26.1473 33.4404 26.6468 33.4944 27.0855 33.3661C27.3404 33.2919 27.6846 33.1231 27.8905 32.7485C28.201 32.1815 28.0896 31.4964 27.8027 31.1622C27.5209 30.8332 27.5344 30.3455 27.8331 30.0316C28.0947 29.7599 28.5368 29.6553 28.8692 29.8308L31.36 31.1352C32.1227 31.5504 33.0745 31.3057 33.4559 30.6071C33.7529 30.062 33.5976 29.3769 33.358 29.0309L31.0529 27.4278C30.685 27.1713 30.582 26.6718 30.8166 26.2904C31.0512 25.9074 31.5422 25.7774 31.9388 25.9934L36.3246 28.3897C36.7313 28.6124 37.111 28.5736 37.3574 28.4994C37.7438 28.3863 38.083 28.1079 38.2855 27.7349C38.6905 26.9958 38.4762 26.1824 37.7792 25.8011L34.9814 23.9819C34.6067 23.7372 34.4886 23.2445 34.7097 22.8564C34.9307 22.4699 35.4184 22.3197 35.8167 22.5189L41.5187 25.3488C42.2427 25.742 43.1033 25.4568 43.5134 24.7109C43.8998 23.9971 43.6163 23.0572 42.889 22.6606C42.4789 22.4379 42.3287 21.9249 42.5515 21.5165C42.7742 21.1081 43.2889 20.9546 43.6956 21.179C45.2245 22.0126 45.8185 24.0005 44.995 25.5192C44.131 27.0954 42.2663 27.6792 40.7408 26.8456L40.1468 26.552C40.2413 27.2219 40.1097 27.9189 39.7654 28.5449C39.3503 29.3077 38.6449 29.8814 37.8315 30.1194C37.0485 30.3489 36.225 30.2594 35.5129 29.8713L35.2935 29.7532C35.3256 30.305 35.2227 30.8838 34.9324 31.4154C34.1123 32.9156 32.1126 33.4707 30.5601 32.6219L29.7535 32.2001C29.7265 32.6692 29.5999 33.1383 29.3704 33.5568C28.9958 34.2453 28.3529 34.7516 27.5597 34.9861C27.2442 35.0789 26.9185 35.1245 26.5928 35.1245Z" fill="#FFCB05"/>
<path d="M9.13877 19.8206C9.01052 19.8206 8.88227 19.7919 8.75908 19.7294L5.95446 18.3153C5.53765 18.1061 5.37058 17.5981 5.58152 17.183C5.79077 16.7662 6.29702 16.5957 6.71383 16.8101L9.51846 18.2242C9.93527 18.4334 10.1023 18.9414 9.8914 19.3565C9.74458 19.6501 9.44758 19.8206 9.13877 19.8206Z" fill="#FFCB05"/>
<path d="M15.8751 8.82814C15.8211 8.82814 15.7654 8.82308 15.7097 8.81126L9.98236 7.67895C9.52504 7.58783 9.22804 7.1457 9.31917 6.68839C9.41029 6.23108 9.85411 5.92733 10.3097 6.0252L16.0371 7.15751C16.4944 7.24864 16.7914 7.69076 16.7003 8.14808C16.6227 8.5497 16.27 8.82814 15.8751 8.82814Z" fill="#FFCB05"/>
<path d="M43.2701 22.7534C43.13 22.7534 42.99 22.7179 42.8651 22.6487L37.3351 19.623L29.7971 14.9453C29.4005 14.7006 29.2756 14.1825 29.5203 13.7843C29.7633 13.386 30.2831 13.2629 30.6813 13.5075L38.1823 18.165L42.8111 20.6963C43.1013 19.6855 43.0794 18.9413 43.0777 18.9329C43.0625 18.5852 43.26 18.2646 43.5772 18.1229L45.3221 17.3466C45.749 17.161 46.2485 17.35 46.4358 17.7752C46.6248 18.2005 46.4341 18.7 46.0072 18.889L44.745 19.4509C44.6977 20.0669 44.5408 21.0979 44.0446 22.2454C43.9501 22.4631 43.7679 22.6319 43.5451 22.7078C43.4557 22.7382 43.3629 22.7534 43.2701 22.7534Z" fill="#FFCB05"/>
<path d="M19.431 18.2528C18.2447 18.2528 17.1006 17.7364 16.1657 16.7695C15.9514 16.5468 15.8755 16.2261 15.9666 15.9308C16.2535 15.0078 16.564 14.1454 16.8508 13.3473C17.3132 12.058 17.7148 10.9459 17.8347 10.087C17.8684 9.84907 18 9.63645 18.1992 9.50313L19.0648 8.91251C21.0173 7.56926 24.286 5.31813 26.0629 4.58576C27.126 4.1487 32.7454 5.23207 37.2713 6.22095C37.3911 6.24626 37.5042 6.29857 37.6003 6.37282C37.7927 6.51795 37.9699 6.66813 38.137 6.8217L41.3719 5.9307C41.8208 5.80582 42.2865 6.07076 42.4097 6.51963C42.5329 6.96851 42.2697 7.43426 41.8208 7.55745L38.1235 8.5767C37.8298 8.65938 37.5143 8.57501 37.2983 8.35563C37.1211 8.17676 36.9321 7.99957 36.7228 7.82913C32.3488 6.87907 27.4382 6.0117 26.6518 6.16357C25.0943 6.80988 21.7935 9.08294 20.02 10.303L19.4412 10.6979C19.2572 11.6395 18.8742 12.706 18.4388 13.9193C18.2127 14.5488 17.9713 15.2187 17.7385 15.9274C18.4962 16.5383 19.2252 16.6058 19.723 16.5484C20.4672 16.459 21.159 16.0084 21.5286 15.3756C21.8188 14.8761 22.2103 13.8822 22.4787 12.9574C22.5715 12.6368 22.8465 12.4006 23.179 12.3567C23.6953 12.2875 25.749 11.8538 26.964 11.5653C27.4163 11.4522 27.8736 11.7391 27.9799 12.1913C28.0879 12.6453 27.8078 13.0992 27.3538 13.2072C26.4308 13.4266 24.858 13.7691 23.9434 13.9396C23.697 14.6989 23.3443 15.6136 22.9883 16.2244C22.3504 17.3213 21.2046 18.0689 19.9288 18.2241C19.7618 18.2444 19.5964 18.2528 19.431 18.2528Z" fill="white"/>
<path d="M22.0411 35.013C21.2918 35.013 20.5898 34.7211 20.0633 34.1929L19.5132 33.6377C18.99 33.1095 18.7049 32.4075 18.7066 31.6633C18.7082 30.9158 19.0002 30.2171 19.5284 29.694L20.6404 28.6005C21.6934 27.5576 23.5412 27.5661 24.5841 28.6224L25.1309 29.1709C26.2142 30.2678 26.2058 32.0379 25.1157 33.1179L24.0036 34.2114C23.4805 34.7261 22.7836 35.013 22.0411 35.013ZM22.603 29.4831C22.3094 29.4831 22.0326 29.5961 21.8267 29.8003L20.7164 30.8921C20.5122 31.0946 20.3974 31.3714 20.3957 31.6667C20.3957 31.9637 20.5071 32.2404 20.713 32.448L21.2614 33.0015C21.6715 33.4149 22.4022 33.4166 22.819 33.0049L23.9294 31.9131C24.358 31.4895 24.3597 30.7875 23.9311 30.3555L23.386 29.8088C23.1784 29.5978 22.9017 29.4831 22.603 29.4831Z" fill="white"/>
<path d="M10.372 24.8982C9.62274 24.8982 8.91905 24.6062 8.39255 24.0764L7.84411 23.5246C6.76074 22.4294 6.76918 20.6609 7.8593 19.5792L8.97136 18.4857C10.0244 17.4445 11.8688 17.4496 12.9134 18.5042L13.4618 19.0577C13.9849 19.5859 14.2701 20.2862 14.2667 21.0338C14.2634 21.7797 13.9697 22.4783 13.4432 23.0014L12.3329 24.0932C11.8114 24.6113 11.1145 24.8982 10.372 24.8982ZM10.9339 19.3682C10.6403 19.3682 10.3636 19.4813 10.156 19.6855L9.04561 20.7773C8.61699 21.2026 8.6153 21.9029 9.04224 22.3349L9.58899 22.885C10.0024 23.3018 10.7314 23.3035 11.1466 22.8917L12.2586 21.7982C12.4645 21.5957 12.5776 21.3207 12.5792 21.0254C12.5809 20.7301 12.4696 20.4533 12.2637 20.2457L11.7152 19.6922C11.5094 19.483 11.2326 19.3682 10.9339 19.3682Z" fill="white"/>
<path d="M13.2713 29.3093C12.5203 29.3093 11.8166 29.0174 11.2918 28.4841L10.7434 27.9323C10.2203 27.4075 9.93338 26.7072 9.93507 25.963C9.93675 25.2154 10.2304 24.5151 10.7603 23.9903L12.9692 21.7982C14.0239 20.752 15.8649 20.7604 16.9129 21.8151L17.4613 22.3703C17.9844 22.8968 18.2696 23.5971 18.2663 24.343C18.2629 25.0906 17.9709 25.7892 17.4411 26.3123L15.2338 28.501C14.7107 29.0224 14.0121 29.3093 13.2713 29.3093ZM14.9318 22.6791C14.6381 22.6791 14.3631 22.7905 14.1572 22.9964L11.9483 25.1884C11.739 25.396 11.6243 25.6727 11.6226 25.9681C11.6226 26.2617 11.7339 26.5367 11.9398 26.7426L12.4899 27.2961C12.9017 27.7146 13.6307 27.7129 14.0458 27.3029L16.2548 25.1125C16.464 24.9066 16.5788 24.6299 16.5788 24.3346C16.5804 24.0392 16.4691 23.7642 16.2632 23.5583L15.7148 23.0031C15.5072 22.7956 15.2288 22.6791 14.9318 22.6791Z" fill="white"/>
<path d="M17.657 32.1612C16.9061 32.1612 16.2024 31.8676 15.6759 31.336L15.1291 30.7825C14.606 30.2577 14.3191 29.5557 14.3208 28.8115C14.3225 28.0639 14.6144 27.3653 15.1426 26.8422L16.8048 25.2002C17.8595 24.1557 19.7039 24.1641 20.7485 25.2205L21.2952 25.7723C22.3752 26.8624 22.3668 28.6309 21.2801 29.7143L19.6196 31.3562C19.0964 31.8743 18.3995 32.1612 17.657 32.1612ZM18.7674 26.0811C18.4737 26.0811 18.1987 26.1942 17.9928 26.3984L16.3306 28.0403C16.1231 28.2462 16.01 28.5212 16.0083 28.8166C16.0066 29.1119 16.1197 29.3869 16.3256 29.5928L16.8757 30.148C17.2874 30.5665 18.0164 30.5665 18.4316 30.1564L20.0921 28.5145C20.5207 28.0876 20.5241 27.3889 20.0971 26.9569L19.5504 26.4051C19.3445 26.1959 19.0661 26.0811 18.7674 26.0811Z" fill="white"/>
<path d="M46.7244 21.8016C46.6029 21.8016 46.4797 21.7746 46.3683 21.7223C46.1624 21.6261 46.0038 21.4506 45.9296 21.2363L40.4823 5.67585C40.3338 5.2506 40.5464 4.78147 40.9649 4.61441L50.1314 0.940721C50.5651 0.768596 51.0545 0.977846 51.2283 1.40985C51.4021 1.84185 51.1912 2.33291 50.7592 2.50672L42.3402 5.88003L47.234 19.8627L50.3002 18.7067C50.7372 18.543 51.2232 18.7624 51.3869 19.1995C51.5523 19.6348 51.3312 20.1225 50.8942 20.2862L47.0197 21.7459C46.9269 21.783 46.8256 21.8016 46.7244 21.8016Z" fill="white"/>
<path d="M4.85408 21.7476C4.76464 21.7476 4.6752 21.7341 4.58577 21.7037L1.24958 20.5866C0.807454 20.4381 0.569517 19.9605 0.718017 19.5184C0.866517 19.0763 1.34745 18.84 1.7862 18.9869L4.33264 19.839L9.24327 5.81254L1.29852 2.46454C0.868204 2.28398 0.667392 1.78954 0.847954 1.35923C1.0302 0.930601 1.52464 0.733164 1.95327 0.910352L10.627 4.56716C11.0371 4.74098 11.243 5.20335 11.0961 5.62354L5.64889 21.184C5.52908 21.5299 5.2017 21.7476 4.85408 21.7476Z" fill="#FFCB05"/>
</svg>
