<svg width="40" height="40" viewBox="0 0 40 40" fill="none" xmlns="http://www.w3.org/2000/svg">
<path d="M35.834 3.33398H29.1673V9.16732H25.0007V6.66732L21.6673 3.33398H15.0007V9.16732H10.834V6.66732L7.50065 3.33398H0.833984V16.6673H5.00065V27.5007C5.00065 28.1637 5.26404 28.7996 5.73288 29.2684C6.20173 29.7373 6.83761 30.0007 7.50065 30.0007H10.0007C10.2217 30.0007 10.4336 29.9129 10.5899 29.7566C10.7462 29.6003 10.834 29.3883 10.834 29.1673C10.834 28.9463 10.7462 28.7343 10.5899 28.5781C10.4336 28.4218 10.2217 28.334 10.0007 28.334H7.50065C7.27964 28.334 7.06768 28.2462 6.9114 28.0899C6.75512 27.9336 6.66732 27.7217 6.66732 27.5007V16.6673H10.834V10.834H15.0007V16.6673H25.0007V10.834H29.1673V16.6673H33.334V27.5007C33.334 27.7217 33.2462 27.9336 33.0899 28.0899C32.9336 28.2462 32.7217 28.334 32.5007 28.334H30.0007C29.7796 28.334 29.5677 28.4218 29.4114 28.5781C29.2551 28.7343 29.1673 28.9463 29.1673 29.1673C29.1673 29.3883 29.2551 29.6003 29.4114 29.7566C29.5677 29.9129 29.7796 30.0007 30.0007 30.0007H32.5007C33.1637 30.0007 33.7996 29.7373 34.2684 29.2684C34.7373 28.7996 35.0007 28.1637 35.0007 27.5007V16.6673H39.1673V6.66732L35.834 3.33398ZM6.66732 13.334C6.66732 13.555 6.57952 13.767 6.42324 13.9232C6.26696 14.0795 6.055 14.1673 5.83398 14.1673C5.61297 14.1673 5.40101 14.0795 5.24473 13.9232C5.08845 13.767 5.00065 13.555 5.00065 13.334V9.16732H4.16732C3.9463 9.16732 3.73434 9.07952 3.57806 8.92324C3.42178 8.76696 3.33398 8.555 3.33398 8.33398C3.33398 8.11297 3.42178 7.90101 3.57806 7.74473C3.73434 7.58845 3.9463 7.50065 4.16732 7.50065H5.83398C6.055 7.50065 6.26696 7.58845 6.42324 7.74473C6.57952 7.90101 6.66732 8.11297 6.66732 8.33398V13.334ZM21.6673 12.5007C21.8883 12.5007 22.1003 12.5884 22.2566 12.7447C22.4129 12.901 22.5007 13.113 22.5007 13.334C22.5007 13.555 22.4129 13.767 22.2566 13.9232C22.1003 14.0795 21.8883 14.1673 21.6673 14.1673C18.2007 14.1673 17.834 14.334 17.5673 13.6507C17.3007 12.9673 17.659 12.8173 20.734 9.75898C20.7807 9.71013 20.8122 9.6488 20.8248 9.58239C20.8375 9.51599 20.8306 9.44736 20.805 9.38479C20.7794 9.32222 20.7363 9.26839 20.6808 9.2298C20.6253 9.19121 20.5599 9.16951 20.4923 9.16732H18.334C18.113 9.16732 17.901 9.07952 17.7447 8.92324C17.5884 8.76696 17.5007 8.555 17.5007 8.33398C17.5007 8.11297 17.5884 7.90101 17.7447 7.74473C17.901 7.58845 18.113 7.50065 18.334 7.50065H20.4923C20.8902 7.50036 21.2793 7.61829 21.6101 7.83947C21.9409 8.06065 22.1985 8.37511 22.3503 8.74295C22.5021 9.1108 22.5412 9.51544 22.4626 9.90553C22.384 10.2956 22.1913 10.6536 21.909 10.934L20.3423 12.5007H21.6673ZM34.584 14.1673H32.5007C32.2796 14.1673 32.0677 14.0795 31.9114 13.9232C31.7551 13.767 31.6673 13.555 31.6673 13.334C31.6673 13.113 31.7551 12.901 31.9114 12.7447C32.0677 12.5884 32.2796 12.5007 32.5007 12.5007C34.584 12.5007 35.0007 12.6257 35.0007 12.084C35.0007 11.9735 34.9568 11.8675 34.8786 11.7894C34.8005 11.7112 34.6945 11.6673 34.584 11.6673H34.1673C33.9463 11.6673 33.7343 11.5795 33.5781 11.4232C33.4218 11.267 33.334 11.055 33.334 10.834C33.334 10.613 33.4218 10.401 33.5781 10.2447C33.7343 10.0884 33.9463 10.0007 34.1673 10.0007H34.584C34.6945 10.0007 34.8005 9.95675 34.8786 9.87861C34.9568 9.80047 35.0007 9.69449 35.0007 9.58398C35.0007 9.47348 34.9568 9.3675 34.8786 9.28936C34.8005 9.21122 34.6945 9.16732 34.584 9.16732H32.5007C32.2796 9.16732 32.0677 9.07952 31.9114 8.92324C31.7551 8.76696 31.6673 8.555 31.6673 8.33398C31.6673 8.11297 31.7551 7.90101 31.9114 7.74473C32.0677 7.58845 32.2796 7.50065 32.5007 7.50065H34.584C34.9709 7.50065 35.3501 7.60839 35.6793 7.8118C36.0084 8.0152 36.2743 8.30624 36.4474 8.65229C36.6204 8.99834 36.6936 9.38574 36.6589 9.77108C36.6242 10.1564 36.4828 10.5245 36.2507 10.834C36.4828 11.1435 36.6242 11.5116 36.6589 11.8969C36.6936 12.2822 36.6204 12.6696 36.4474 13.0157C36.2743 13.3617 36.0084 13.6528 35.6793 13.8562C35.3501 14.0596 34.9709 14.1673 34.584 14.1673Z" fill="#FFCB05"/>
<path d="M20 31.668C21.3807 31.668 22.5 30.5487 22.5 29.168C22.5 27.7873 21.3807 26.668 20 26.668C18.6193 26.668 17.5 27.7873 17.5 29.168C17.5 30.5487 18.6193 31.668 20 31.668Z" fill="#2F3245"/>
<path d="M25.2431 23.2513C23.4264 24.3096 24.7264 23.893 22.5014 22.993V21.668H17.5014C17.5014 23.8513 17.8181 22.393 15.9014 23.918L14.7598 23.2513L12.2598 27.5846C14.1848 28.6846 13.0181 27.6846 13.4098 30.0846L12.2598 30.743L14.7598 35.0763L15.9014 34.4096C17.8098 35.9346 17.5014 34.4763 17.5014 36.668H22.5014V35.343C24.7514 34.4263 23.4098 34.018 25.2431 35.0846L27.7431 30.7513L26.5931 30.093C26.9848 27.6763 25.8098 28.693 27.7431 27.593L25.2431 23.2513ZM20.0014 33.3346C19.1773 33.3346 18.3718 33.0903 17.6866 32.6324C17.0014 32.1746 16.4673 31.5238 16.1519 30.7625C15.8366 30.0011 15.7541 29.1633 15.9148 28.3551C16.0756 27.5468 16.4724 26.8044 17.0552 26.2217C17.6379 25.639 18.3803 25.2421 19.1886 25.0814C19.9968 24.9206 20.8346 25.0031 21.5959 25.3185C22.3573 25.6338 23.0081 26.1679 23.4659 26.8531C23.9237 27.5383 24.1681 28.3439 24.1681 29.168C24.1681 30.273 23.7291 31.3328 22.9477 32.1142C22.1663 32.8956 21.1065 33.3346 20.0014 33.3346Z" fill="#2F3245"/>
</svg>
