<svg width="50" height="50" viewBox="0 0 50 50" fill="none" xmlns="http://www.w3.org/2000/svg">
<path d="M38.4132 32.7362L29.2843 36.6942C29.3336 36.9626 29.3592 37.2348 29.3606 37.5076C29.3525 38.7582 28.8487 39.9545 27.9597 40.8341C27.0707 41.7137 25.8691 42.2048 24.6185 42.1997H16.275C16.0678 42.1997 15.8691 42.1174 15.7226 41.9709C15.5761 41.8244 15.4938 41.6257 15.4938 41.4185C15.4938 41.2113 15.5761 41.0125 15.7226 40.866C15.8691 40.7195 16.0678 40.6372 16.275 40.6372H24.6185C25.0337 40.6438 25.446 40.5678 25.8314 40.4135C26.2169 40.2592 26.5678 40.0298 26.8637 39.7386C27.1596 39.4473 27.3946 39.1001 27.555 38.7172C27.7155 38.3342 27.7981 37.9232 27.7981 37.508C27.7981 37.0928 27.7155 36.6818 27.555 36.2988C27.3946 35.9159 27.1596 35.5687 26.8637 35.2775C26.5678 34.9862 26.2169 34.7568 25.8314 34.6025C25.446 34.4482 25.0337 34.3722 24.6185 34.3788H17.7219C16.9576 34.445 16.1886 34.3259 15.48 34.0317C13.0885 32.85 10.4774 32.1784 7.8125 32.0595V30.4688C7.81253 30.3661 7.79234 30.2645 7.75309 30.1697C7.71383 30.0749 7.65629 29.9888 7.58374 29.9163C7.51119 29.8437 7.42505 29.7862 7.33025 29.7469C7.23546 29.7077 7.13385 29.6875 7.03125 29.6875H2.34375C2.24115 29.6875 2.13954 29.7077 2.04475 29.7469C1.94995 29.7862 1.86381 29.8437 1.79126 29.9163C1.71871 29.9888 1.66117 30.0749 1.62191 30.1697C1.58266 30.2645 1.56247 30.3661 1.5625 30.4688V47.6562C1.56247 47.7589 1.58266 47.8605 1.62191 47.9553C1.66117 48.0501 1.71871 48.1362 1.79126 48.2087C1.86381 48.2813 1.94995 48.3388 2.04475 48.3781C2.13954 48.4173 2.24115 48.4375 2.34375 48.4375H7.03125C7.13385 48.4375 7.23546 48.4173 7.33025 48.3781C7.42505 48.3388 7.51119 48.2813 7.58374 48.2087C7.65629 48.1362 7.71383 48.0501 7.75309 47.9553C7.79234 47.8605 7.81253 47.7589 7.8125 47.6562V46.4244C7.8125 46.4244 21.1712 47.6555 21.4451 47.6555C22.2642 47.6596 23.0672 47.4276 23.7579 46.9871L40.9824 37.3558C41.5258 37.0057 41.9209 36.4673 42.0918 35.8438C42.2627 35.2204 42.1975 34.5558 41.9087 33.9775C41.5963 33.3618 41.0594 32.8897 40.4089 32.6587C39.7583 32.4277 39.0439 32.4554 38.4132 32.7362Z" fill="#2F3245"/>
<path d="M14.745 16.4062C14.6043 16.9463 14.3221 17.439 13.9274 17.8335C13.5328 18.2281 13.04 18.5102 12.5 18.6508V21.193C13.04 21.3335 13.5328 21.6157 13.9274 22.0102C14.3221 22.4048 14.6043 22.8975 14.745 23.4375H32.13C32.2707 22.8975 32.5529 22.4048 32.9476 22.0102C33.3422 21.6157 33.835 21.3335 34.375 21.193V18.6516C33.8654 18.5158 33.3989 18.2521 33.0196 17.8856L31.2794 19.6259C30.3973 20.4722 29.2257 20.9502 28.0033 20.9625C26.8234 20.9494 25.6953 20.4764 24.8589 19.6441C24.4183 19.2294 24.0695 18.7271 23.8348 18.1694C23.6001 17.6118 23.4848 17.0112 23.4962 16.4062H14.745Z" fill="#FFCB05"/>
<path d="M39.0625 14.5925C38.1669 14.8049 37.233 14.7948 36.3422 14.563L34.1224 16.7829C34.4053 17.0406 34.7735 17.1848 35.1562 17.1875C35.2589 17.1875 35.3605 17.2077 35.4553 17.2469C35.5501 17.2862 35.6362 17.3437 35.7087 17.4163C35.7813 17.4888 35.8388 17.5749 35.8781 17.6697C35.9173 17.7645 35.9375 17.8661 35.9375 17.9688V21.875C35.9375 21.9776 35.9173 22.0792 35.8781 22.174C35.8388 22.2688 35.7813 22.3549 35.7087 22.4275C35.6362 22.5 35.5501 22.5576 35.4553 22.5968C35.3605 22.6361 35.2589 22.6563 35.1562 22.6562C34.742 22.6567 34.3448 22.8215 34.0519 23.1144C33.759 23.4073 33.5942 23.8045 33.5938 24.2188C33.5938 24.3214 33.5736 24.423 33.5343 24.5178C33.4951 24.6126 33.4375 24.6987 33.365 24.7712C33.2924 24.8438 33.2063 24.9013 33.1115 24.9406C33.0167 24.9798 32.9151 25 32.8125 25H14.0625C13.9599 25 13.8583 24.9798 13.7635 24.9406C13.6687 24.9013 13.5826 24.8438 13.51 24.7712C13.4375 24.6987 13.3799 24.6126 13.3407 24.5178C13.3014 24.423 13.2812 24.3214 13.2812 24.2188C13.2808 23.8045 13.116 23.4073 12.8231 23.1144C12.5302 22.8215 12.133 22.6567 11.7188 22.6562C11.6161 22.6563 11.5145 22.6361 11.4197 22.5968C11.3249 22.5576 11.2388 22.5 11.1663 22.4275C11.0937 22.3549 11.0362 22.2688 10.9969 22.174C10.9577 22.0792 10.9375 21.9776 10.9375 21.875V17.9688C10.9375 17.8661 10.9577 17.7645 10.9969 17.6697C11.0362 17.5749 11.0937 17.4888 11.1663 17.4163C11.2388 17.3437 11.3249 17.2862 11.4197 17.2469C11.5145 17.2077 11.6161 17.1875 11.7188 17.1875C12.133 17.187 12.5302 17.0223 12.8231 16.7293C13.116 16.4364 13.2808 16.0393 13.2812 15.625C13.2812 15.5224 13.3014 15.4208 13.3407 15.326C13.3799 15.2312 13.4375 15.1451 13.51 15.0725C13.5826 15 13.6687 14.9424 13.7635 14.9032C13.8583 14.8639 13.9599 14.8437 14.0625 14.8438H23.8079C24.0654 14.1767 24.4588 13.5705 24.9632 13.0636L26.308 11.7188H8.59375C8.49115 11.7187 8.38954 11.7389 8.29475 11.7782C8.19995 11.8174 8.11381 11.875 8.04126 11.9475C7.96871 12.0201 7.91117 12.1062 7.87191 12.201C7.83266 12.2958 7.81247 12.3974 7.8125 12.5V27.3438C7.81247 27.4464 7.83266 27.548 7.87191 27.6428C7.91117 27.7376 7.96871 27.8237 8.04126 27.8962C8.11381 27.9688 8.19995 28.0263 8.29475 28.0656C8.38954 28.1048 8.49115 28.125 8.59375 28.125H38.2812C38.3839 28.125 38.4855 28.1048 38.5803 28.0656C38.6751 28.0263 38.7612 27.9688 38.8337 27.8962C38.9063 27.8237 38.9638 27.7376 39.0031 27.6428C39.0423 27.548 39.0625 27.4464 39.0625 27.3438V14.5925Z" fill="#FFCB05"/>
<path d="M47.6556 1.5625H44.5306C44.428 1.56247 44.3264 1.58266 44.2316 1.62191C44.1368 1.66117 44.0507 1.71871 43.9781 1.79126C43.9056 1.86381 43.848 1.94995 43.8088 2.04475C43.7695 2.13954 43.7493 2.24115 43.7494 2.34375V3.125H31.5744C30.8731 3.12309 30.1784 3.26027 29.5305 3.52861C28.8826 3.79694 28.2943 4.1911 27.7997 4.68828L22.332 10.1562H27.8699L30.3083 7.7179C30.4548 7.5714 30.6535 7.4891 30.8606 7.4891C31.0678 7.48911 31.2665 7.57141 31.413 7.71791C31.5595 7.86441 31.6418 8.06311 31.6418 8.27029C31.6418 8.47747 31.5595 8.67616 31.413 8.82266L26.0375 14.1981C25.5212 14.6937 25.1835 15.3463 25.0771 16.054C25.0124 16.5003 25.0556 16.9556 25.2033 17.3817C25.3509 17.8078 25.5986 18.1923 25.9256 18.5028C26.4911 19.0599 27.2521 19.3737 28.0459 19.3771C28.8397 19.3805 29.6033 19.0733 30.1736 18.5211L35.9405 12.755C36.6211 13.0807 37.3744 13.2246 38.1272 13.1729C38.8799 13.1211 39.6064 12.8754 40.236 12.4596C40.4151 12.3555 40.6282 12.3268 40.8284 12.3798C41.0287 12.4328 41.1996 12.5632 41.3038 12.7423C41.4079 12.9213 41.4366 13.1344 41.3835 13.3347C41.3305 13.5349 41.2002 13.7059 41.0211 13.81C40.8894 13.8866 40.7568 13.952 40.6243 14.0192V20.835C41.7309 20.3163 42.7785 19.6805 43.7493 18.9383V19.5312C43.7493 19.6339 43.7695 19.7355 43.8088 19.8303C43.848 19.9251 43.9056 20.0112 43.9781 20.0837C44.0507 20.1563 44.1368 20.2138 44.2316 20.2531C44.3264 20.2923 44.428 20.3125 44.5306 20.3125H47.6556C47.7582 20.3125 47.8598 20.2923 47.9546 20.2531C48.0494 20.2138 48.1355 20.1563 48.2081 20.0837C48.2806 20.0112 48.3382 19.9251 48.3774 19.8303C48.4167 19.7355 48.4369 19.6339 48.4368 19.5312V2.34375C48.4369 2.24115 48.4167 2.13955 48.3774 2.04475C48.3382 1.94995 48.2806 1.86382 48.2081 1.79127C48.1355 1.71872 48.0494 1.66117 47.9546 1.62192C47.8598 1.58266 47.7582 1.56247 47.6556 1.5625Z" fill="#2F3245"/>
</svg>
