<svg width="40" height="40" viewBox="0 0 40 40" fill="none" xmlns="http://www.w3.org/2000/svg">
<path d="M20.0078 0C13.5465 0 8.28906 5.25742 8.28906 11.7188C8.28906 18.1801 13.5465 23.4375 20.0078 23.4375C26.4691 23.4375 31.7266 18.1801 31.7266 11.7188C31.7266 5.25742 26.4691 0 20.0078 0ZM15.3203 7.03125H17.6641V9.375H15.3203V7.03125ZM17.3207 16.0629L15.6636 14.4058L22.6948 7.37453L24.352 9.03164L17.3207 16.0629ZM24.6953 16.4062H22.3516V14.0625H24.6953V16.4062Z" fill="#FFCB05"/>
<path d="M36.8151 21.0938C33.5506 21.0938 30.5671 22.9388 29.107 25.8586L25.6297 32.8125H15.3209V30.4688H24.1831L26.5266 25.7812H12.7894C11.2307 25.7812 9.72008 26.4141 8.70383 27.4612L3.18555 32.3891L10.6654 40L13.602 37.5H28.4678C36.4639 21.4785 35.7379 23.2016 36.8151 21.0938Z" fill="#2F3245"/>
</svg>
