<svg width="40" height="40" viewBox="0 0 40 40" fill="none" xmlns="http://www.w3.org/2000/svg">
<g clip-path="url(#clip0_3476_61136)">
<path d="M10.625 18.9062C4.80945 18.9062 0.078125 23.6376 0.078125 29.4531C0.078125 35.2687 4.80945 40 10.625 40C16.4405 40 21.1719 35.2687 21.1719 29.4531C21.1719 23.6376 16.4405 18.9062 10.625 18.9062ZM15.2817 28.1723L9.81297 33.6411C9.58422 33.8699 9.2843 33.9844 8.98438 33.9844C8.68445 33.9844 8.38453 33.8699 8.15578 33.6411L5.81203 31.2973C5.35437 30.8398 5.35437 30.0977 5.81203 29.6401C6.26961 29.1825 7.01164 29.1825 7.4693 29.6401L8.98438 31.1552L13.6245 26.5151C14.0821 26.0575 14.8241 26.0575 15.2818 26.5151C15.7394 26.9727 15.7394 27.7148 15.2817 28.1723Z" fill="#FFCB05"/>
<path d="M30.9375 10.1562C30.2903 10.1562 29.7656 9.63156 29.7656 8.98438V0H12.9688C11.0302 0 9.45312 1.57711 9.45312 3.51562V16.6163C9.83922 16.5813 10.2299 16.5625 10.625 16.5625C14.6194 16.5625 18.1951 18.3888 20.5614 21.25H33.2812C33.9284 21.25 34.4531 21.7747 34.4531 22.4219C34.4531 23.0691 33.9284 23.5938 33.2812 23.5938H22.1053C22.8378 25.0231 23.3102 26.6066 23.4618 28.2812H33.2812C33.9284 28.2812 34.4531 28.8059 34.4531 29.4531C34.4531 30.1003 33.9284 30.625 33.2812 30.625H23.4618C23.1113 34.4952 21.0435 37.877 18.028 40H36.4062C38.3448 40 39.9219 38.4229 39.9219 36.4844V10.1562H30.9375ZM33.2812 16.5625H16.0938C15.4466 16.5625 14.9219 16.0378 14.9219 15.3906C14.9219 14.7434 15.4466 14.2188 16.0938 14.2188H33.2812C33.9284 14.2188 34.4531 14.7434 34.4531 15.3906C34.4531 16.0378 33.9284 16.5625 33.2812 16.5625Z" fill="#2F3245"/>
<path d="M32.1094 0.685547V7.81188H39.2352L32.1094 0.685547Z" fill="#2F3245"/>
</g>
<defs>
<clipPath id="clip0_3476_61136">
<rect width="40" height="40" fill="white"/>
</clipPath>
</defs>
</svg>
