<svg width="40" height="40" viewBox="0 0 40 40" fill="none" xmlns="http://www.w3.org/2000/svg">
<g clip-path="url(#clip0_3476_61160)">
<path d="M12.8906 11.7969H19.9219V14.1406H12.8906V11.7969Z" fill="#2F3245"/>
<path d="M26.9531 21.1719H34.1406V23.5156H26.9531V21.1719Z" fill="#2F3245"/>
<path d="M26.9531 30.5469H34.1406V32.8906H26.9531V30.5469Z" fill="#2F3245"/>
<path d="M38.8281 4.76562H7.03125V31.7188C7.03125 32.366 6.50665 32.8906 5.85938 32.8906H3.51562C1.5741 32.8906 0 34.4647 0 36.4062C0 38.3478 1.5741 40 3.51562 40H38.8281C39.4754 40 40 39.4754 40 38.8281V5.9375C40 5.29022 39.4754 4.76562 38.8281 4.76562ZM11.7188 30.5469C11.0715 30.5469 10.5469 30.0223 10.5469 29.375C10.5469 28.7277 11.0715 28.2031 11.7188 28.2031C12.366 28.2031 12.8906 28.7277 12.8906 29.375C12.8906 30.0223 12.366 30.5469 11.7188 30.5469ZM11.7188 25.8594C11.0715 25.8594 10.5469 25.3348 10.5469 24.6875C10.5469 24.0402 11.0715 23.5156 11.7188 23.5156C12.366 23.5156 12.8906 24.0402 12.8906 24.6875C12.8906 25.3348 12.366 25.8594 11.7188 25.8594ZM11.7188 21.1719C11.0715 21.1719 10.5469 20.6473 10.5469 20C10.5469 19.3527 11.0715 18.8281 11.7188 18.8281C12.366 18.8281 12.8906 19.3527 12.8906 20C12.8906 20.6473 12.366 21.1719 11.7188 21.1719ZM36.4844 24.6875C36.4844 25.3351 35.9601 25.8594 35.3125 25.8594H25.7812C25.1337 25.8594 24.6094 25.3351 24.6094 24.6875V23.5156H17.5781V30.5469H24.6094V29.375C24.6094 28.7274 25.1337 28.2031 25.7812 28.2031H35.3125C35.9601 28.2031 36.4844 28.7274 36.4844 29.375V34.0625C36.4844 34.7101 35.9601 35.2344 35.3125 35.2344H25.7812C25.1337 35.2344 24.6094 34.7101 24.6094 34.0625V32.8906H16.4062C15.7587 32.8906 15.2344 32.3663 15.2344 31.7188V16.4844H11.7188C11.0712 16.4844 10.5469 15.9601 10.5469 15.3125V10.625C10.5469 9.97742 11.0712 9.45312 11.7188 9.45312H21.0938C21.7413 9.45312 22.2656 9.97742 22.2656 10.625V15.3125C22.2656 15.9601 21.7413 16.4844 21.0938 16.4844H17.5781V21.1719H24.6094V20C24.6094 19.3524 25.1337 18.8281 25.7812 18.8281H35.3125C35.9601 18.8281 36.4844 19.3524 36.4844 20V24.6875ZM35.3125 16.4844H25.7812C25.1337 16.4844 24.6094 15.9601 24.6094 15.3125C24.6094 14.6649 25.1337 14.1406 25.7812 14.1406H35.3125C35.9601 14.1406 36.4844 14.6649 36.4844 15.3125C36.4844 15.9601 35.9601 16.4844 35.3125 16.4844ZM35.3125 11.7969H25.7812C25.1337 11.7969 24.6094 11.2726 24.6094 10.625C24.6094 9.97742 25.1337 9.45312 25.7812 9.45312H35.3125C35.9601 9.45312 36.4844 9.97742 36.4844 10.625C36.4844 11.2726 35.9601 11.7969 35.3125 11.7969Z" fill="#FFCB05"/>
<path d="M4.6875 30.5469V1.17188C4.6875 0.524597 4.1629 0 3.51562 0H2.34375C1.04919 0 0 1.04919 0 2.34375V31.7487C0.982361 31.0049 2.19147 30.5469 3.51562 30.5469H4.6875Z" fill="#2F3245"/>
</g>
<defs>
<clipPath id="clip0_3476_61160">
<rect width="40" height="40" fill="white"/>
</clipPath>
</defs>
</svg>
