<svg width="40" height="40" viewBox="0 0 40 40" fill="none" xmlns="http://www.w3.org/2000/svg">
<g clip-path="url(#clip0_3476_61082)">
<path d="M33.0455 13.1821C32.6502 13.1821 32.266 13.2296 31.8969 13.3165C32.4481 12.5118 32.7714 11.539 32.7714 10.492C32.7714 7.72877 30.5233 5.48071 27.7601 5.48071C24.9969 5.48071 22.7488 7.72877 22.7488 10.492C22.7488 11.5677 23.0906 12.5644 23.6698 13.3817C23.2261 13.2527 22.7578 13.1821 22.273 13.1821C19.5098 13.1821 17.2617 15.4302 17.2617 18.1934C17.2617 18.7517 17.3548 19.2883 17.5241 19.7902L23.1724 18.2749C23.1784 18.2733 23.1845 18.2717 23.1905 18.2701C23.5796 18.1691 23.9798 18.1179 24.3799 18.1179C24.3799 18.1179 24.38 18.1179 24.3801 18.1179C25.4284 18.1179 26.4118 18.4641 27.2079 19.0594C27.2571 18.7779 27.2843 18.4888 27.2843 18.1934C27.2843 17.1177 26.9425 16.121 26.3633 15.3037C26.807 15.4327 27.2754 15.5033 27.7601 15.5033C28.1554 15.5033 28.5396 15.4558 28.9087 15.3689C28.3575 16.1736 28.0342 17.1464 28.0342 18.1934C28.0342 20.9566 30.2822 23.2048 33.0455 23.2048C33.6223 23.2048 34.1762 23.1055 34.6924 22.9254L35.2023 22.7161C36.8889 21.9085 38.0567 20.1849 38.0567 18.1934C38.0567 15.4302 35.8087 13.1821 33.0455 13.1821Z" fill="#FFCB05"/>
<path d="M5.58453 20.8421C5.26078 20.6359 4.87711 20.5159 4.4657 20.5159H2.08898C0.937109 20.5159 0 21.453 0 22.6049V31.8763C0 32.9544 0.820937 33.8442 1.87047 33.9538C1.94234 33.9613 2.01523 33.9653 2.08898 33.9653H4.4657C5.33906 33.9653 6.08852 33.4264 6.40008 32.6638V21.8174C6.23531 21.4141 5.94797 21.0736 5.58453 20.8421Z" fill="#2F3245"/>
<path d="M39.8245 25.9452C39.3279 24.7127 37.9262 24.1162 36.6938 24.613L25.9398 29.0269L21.8659 25.9493L24.9815 25.1749C26.2676 24.841 27.0396 23.5277 26.7057 22.2416C26.3718 20.9555 25.0585 20.1836 23.7724 20.5175L13.9075 23.1639H8.7207V31.7732H13.0252L23.5545 34.383C24.5344 34.6259 25.5666 34.5446 26.4963 34.1512L38.4924 29.0761C39.7248 28.5794 40.3212 27.1777 39.8245 25.9452Z" fill="#2F3245"/>
</g>
<defs>
<clipPath id="clip0_3476_61082">
<rect width="40" height="40" fill="white"/>
</clipPath>
</defs>
</svg>
