<svg width="130" height="130" viewBox="0 0 130 130" fill="none" xmlns="http://www.w3.org/2000/svg">
<circle cx="65" cy="65" r="65" fill="#FFF5CD"/>
<path d="M82.8461 28.1949C82.4946 27.8422 82.0768 27.5624 81.6167 27.3717C81.1566 27.1811 80.6634 27.0833 80.1654 27.084H49.832C49.334 27.0833 48.8408 27.1811 48.3807 27.3717C47.9207 27.5624 47.5028 27.8422 47.1513 28.1949L28.193 47.1533C27.8402 47.5048 27.5604 47.9226 27.3698 48.3827C27.1791 48.8427 27.0813 49.336 27.082 49.834V80.1673C27.082 81.1759 27.4802 82.139 28.193 82.848L47.1513 101.806C47.5028 102.159 47.9207 102.439 48.3807 102.63C48.8408 102.82 49.334 102.918 49.832 102.917H80.1654C81.174 102.917 82.137 102.519 82.8461 101.806L101.804 82.848C102.157 82.4965 102.437 82.0787 102.628 81.6186C102.818 81.1586 102.916 80.6653 102.915 80.1673V49.834C102.916 49.336 102.818 48.8427 102.628 48.3827C102.437 47.9226 102.157 47.5048 101.804 47.1533L82.8461 28.1949ZM68.7904 83.959H61.207V76.3757H68.7904V83.959ZM68.7904 68.7923H61.207V46.0423H68.7904V68.7923Z" fill="#FFCB05"/>
</svg>
