<svg width="30" height="30" viewBox="0 0 30 30" fill="none" xmlns="http://www.w3.org/2000/svg">
<g clip-path="url(#clip0_2972_92959)">
<path d="M15 0.937554C12.9314 0.937589 10.9639 1.38292 9.19372 2.18633C8.9514 2.29635 8.84911 2.58568 8.9685 2.8235L9.80621 4.50168C9.91871 4.72707 10.1892 4.82328 10.4187 4.71957C11.818 4.09483 13.3667 3.75096 15 3.75096C21.2187 3.75096 26.2491 8.78132 26.2491 15.0001C26.2491 17.3394 25.529 19.5012 24.3082 21.3016L22.8305 19.823C22.7295 19.7218 22.588 19.6723 22.446 19.6884C22.2091 19.7158 22.0306 19.9168 22.0312 20.1553V25.3115C22.0303 25.5704 22.2393 25.7811 22.4982 25.7821H27.6535C28.0747 25.7857 28.286 25.2746 27.9858 24.9792L26.3242 23.3175C28.0385 20.987 29.0625 18.1128 29.0625 15C29.0625 7.23904 22.7609 0.937536 15 0.937554ZM2.34192 4.21788C1.92507 4.21804 1.71575 4.72146 2.00958 5.01715L3.67218 6.67975C1.95757 9.01055 0.9375 11.8867 0.9375 15.0001C0.9375 22.761 7.23906 29.0625 15 29.0626C17.0686 29.0626 19.0361 28.6135 20.8063 27.8101C21.0482 27.6997 21.1501 27.4105 21.0306 27.1729L20.1901 25.4948C20.0778 25.2714 19.8099 25.1755 19.5813 25.2769C18.1821 25.9016 16.6333 26.2491 15 26.2491C8.78125 26.2491 3.75091 21.2188 3.75091 15.0001C3.75091 12.6615 4.46673 10.4971 5.68634 8.69665L7.16949 10.1761C7.46519 10.47 7.96859 10.2606 7.96875 9.84378V4.68848C7.96969 4.42817 7.75848 4.21689 7.49817 4.21788H2.34192ZM14.9972 9.3714C15.2317 9.3714 15.466 9.52744 15.466 9.8401V10.8335C16.5329 11.0514 17.3419 11.9997 17.3419 13.1287C17.356 13.7677 16.3902 13.7677 16.4044 13.1287C16.4044 12.3465 15.7812 11.7243 14.999 11.7243C14.2168 11.7243 13.5946 12.3465 13.5946 13.1287C13.5946 13.9109 14.2168 14.5341 14.999 14.5341C16.2879 14.5341 17.3419 15.5908 17.3419 16.8796C17.3419 18.0087 16.5329 18.9579 15.466 19.1758V20.16C15.466 20.7851 14.5285 20.7851 14.5285 20.16V19.1749C13.4633 18.9555 12.6571 18.0074 12.6571 16.8796C12.6707 16.2684 13.5804 16.2684 13.5946 16.8796C13.5946 17.6618 14.2168 18.285 14.999 18.285C15.7812 18.285 16.4044 17.6618 16.4044 16.8796C16.4044 16.0974 15.7812 15.4715 14.999 15.4715C13.7102 15.4715 12.6571 14.4176 12.6571 13.1287C12.6571 12.0009 13.4633 11.0537 14.5285 10.8344V9.8401C14.5285 9.52753 14.7628 9.3714 14.9972 9.3714Z" fill="#FFCB05"/>
<path d="M15.4666 9.84077C15.4666 9.52811 15.2322 9.37207 14.9978 9.37207C14.7634 9.37207 14.5291 9.5282 14.5291 9.84077V10.8351C13.4639 11.0544 12.6577 12.0016 12.6577 13.1294C12.6577 14.4182 13.7108 15.4722 14.9996 15.4722C15.7818 15.4722 16.405 16.0981 16.405 16.8803C16.405 17.6625 15.7818 18.2856 14.9996 18.2856C14.2174 18.2856 13.5952 17.6625 13.5952 16.8803C13.581 16.269 12.6713 16.269 12.6577 16.8803C12.6577 18.0081 13.4639 18.9562 14.5291 19.1755V20.1606C14.5291 20.7858 15.4666 20.7858 15.4666 20.1606V19.1764C16.5335 18.9586 17.3425 18.0094 17.3425 16.8803C17.3425 15.5914 16.2885 14.5347 14.9996 14.5347C14.2174 14.5347 13.5952 13.9116 13.5952 13.1294C13.5952 12.3472 14.2174 11.7249 14.9996 11.7249C15.7818 11.7249 16.405 12.3472 16.405 13.1294C16.3908 13.7684 17.3566 13.7684 17.3425 13.1294C17.3425 12.0003 16.5335 11.052 15.4666 10.8341V9.84077Z" fill="#FFCB05"/>
<path d="M7.5 15.0018C7.5 10.8653 10.8616 7.5 14.9982 7.5C19.1347 7.5 22.5 10.8653 22.5 15.0018C22.5 19.1384 19.1347 22.5 14.9982 22.5C10.8616 22.5 7.5 19.1384 7.5 15.0018Z" fill="#2F3245"/>
<path d="M17.2017 13.5334C17.1695 13.5026 17.1373 13.4872 17.089 13.4872H16.2357C16.1793 13.2252 16.0747 12.994 15.9137 12.7937H17.0809C17.1292 12.7937 17.1695 12.7783 17.1936 12.7474C17.2258 12.7166 17.2419 12.6781 17.2419 12.6396V12.1541C17.2419 12.1079 17.2258 12.0693 17.1936 12.0462C17.1614 12.0154 17.1212 12 17.0809 12H12.9191C12.8708 12 12.8305 12.0154 12.8064 12.0462C12.7742 12.0771 12.7581 12.1079 12.7581 12.1541V12.7937C12.7581 12.8322 12.7742 12.8707 12.8064 12.9015C12.8386 12.9324 12.8788 12.9478 12.9191 12.9478H13.6436C14.3439 12.9478 14.7947 13.125 14.9879 13.4872H12.9191C12.8708 13.4872 12.8305 13.5026 12.8064 13.5334C12.7742 13.5642 12.7581 13.6027 12.7581 13.6413V14.1267C12.7581 14.1729 12.7742 14.2115 12.8064 14.2346C12.8386 14.2654 12.8788 14.2808 12.9191 14.2808H15.0523C14.9799 14.5428 14.8108 14.7432 14.5371 14.8818C14.2715 15.0205 13.9173 15.0899 13.4745 15.0899H12.911C12.8708 15.0899 12.8305 15.1053 12.7983 15.1361C12.7661 15.167 12.75 15.2055 12.75 15.244V15.8527C12.75 15.8913 12.7661 15.9298 12.7983 15.9606C13.4423 16.6156 14.2715 17.5248 15.2938 18.6961C15.318 18.7346 15.3582 18.75 15.4146 18.75H16.3886C16.4611 18.75 16.5094 18.7192 16.5335 18.6652C16.5657 18.6113 16.5577 18.5574 16.5174 18.5034C15.5434 17.363 14.7786 16.5077 14.2232 15.9375C14.7867 15.8759 15.2536 15.6986 15.6078 15.4135C15.962 15.1284 16.1793 14.7509 16.2518 14.2962H17.089C17.1373 14.2962 17.1775 14.2808 17.2017 14.25C17.2339 14.2192 17.25 14.1884 17.25 14.1421V13.6567C17.242 13.6027 17.2258 13.5642 17.2017 13.5334Z" fill="white"/>
</g>
<defs>
<clipPath id="clip0_2972_92959">
<rect width="30" height="30" fill="white"/>
</clipPath>
</defs>
</svg>
