<svg width="30" height="30" viewBox="0 0 30 30" fill="none" xmlns="http://www.w3.org/2000/svg">
<path d="M12.9375 1.875C17.3062 1.875 21 4.0125 21 6.5625C20.9811 7.35767 20.6592 8.11558 20.1 8.68125C20.0548 8.73584 20.0046 8.78606 19.95 8.83125C18.0035 10.4971 15.4971 11.3616 12.9375 11.25C10.3779 11.3616 7.87151 10.4971 5.925 8.83125C5.87041 8.78606 5.82019 8.73584 5.775 8.68125C5.21584 8.11558 4.89389 7.35767 4.875 6.5625C4.875 4.0125 8.56875 1.875 12.9375 1.875ZM18.5625 13.125C19.2844 13.1225 20.0033 13.2171 20.7 13.4062C20.8873 13.0266 20.9896 12.6107 21 12.1875C20.9999 11.6889 20.8568 11.2008 20.5875 10.7812C18.3682 12.3896 15.6769 13.2141 12.9375 13.125C10.1981 13.2141 7.50684 12.3896 5.2875 10.7812C5.01822 11.2008 4.87505 11.6889 4.875 12.1875C4.89822 12.9854 5.22713 13.7439 5.79375 14.3063L5.85 14.3625C7.42318 15.8344 9.47244 16.6927 11.625 16.7812C12.3972 15.654 13.4326 14.7319 14.6414 14.0948C15.8502 13.4577 17.1961 13.1248 18.5625 13.125ZM5.30625 16.3875C5.02545 16.8097 4.87544 17.3054 4.875 17.8125C4.875 19.7437 7.06875 21.5063 10.1437 22.2C10.125 21.9937 10.125 21.7687 10.125 21.5625C10.1194 20.5358 10.3104 19.5175 10.6875 18.5625C8.73642 18.3128 6.88286 17.5637 5.30625 16.3875ZM25.125 21.5625C25.1256 23.1744 24.5331 24.7301 23.4602 25.933C22.3874 27.136 20.9093 27.9021 19.3079 28.0851C17.7065 28.2682 16.0937 27.8555 14.777 26.9258C13.4604 25.996 12.5319 24.6142 12.1687 23.0438V23.0063C12.0561 22.5333 11.9995 22.0487 12 21.5625C11.9966 20.3727 12.3209 19.205 12.9375 18.1875C13.5194 17.2151 14.3436 16.4103 15.3295 15.8517C16.3154 15.293 17.4293 14.9995 18.5625 15C19.3116 14.9965 20.0551 15.1299 20.7562 15.3937C20.8025 15.3948 20.8477 15.4078 20.8875 15.4312C22.1318 15.9036 23.2033 16.7428 23.9601 17.8377C24.7168 18.9326 25.123 20.2315 25.125 21.5625ZM19.875 21.5625L22.0312 19.4062C22.2024 19.2316 22.2977 18.9965 22.2965 18.7519C22.2952 18.5074 22.1976 18.2733 22.0247 18.1003C21.8517 17.9274 21.6176 17.8298 21.3731 17.8285C21.1285 17.8273 20.8934 17.9226 20.7188 18.0938L18.5625 20.25L16.4062 18.0938C16.2316 17.9226 15.9965 17.8273 15.7519 17.8285C15.5074 17.8298 15.2733 17.9274 15.1003 18.1003C14.9274 18.2733 14.8298 18.5074 14.8285 18.7519C14.8273 18.9965 14.9226 19.2316 15.0938 19.4062L17.25 21.5625L15.0938 23.7188C15.0049 23.8034 14.9341 23.9052 14.8858 24.018C14.8374 24.1308 14.8125 24.2523 14.8125 24.375C14.8125 24.4977 14.8374 24.6192 14.8858 24.732C14.9341 24.8448 15.0049 24.9466 15.0938 25.0312C15.1784 25.1201 15.2802 25.1909 15.393 25.2392C15.5058 25.2876 15.6273 25.3125 15.75 25.3125C15.8727 25.3125 15.9942 25.2876 16.107 25.2392C16.2198 25.1909 16.3216 25.1201 16.4062 25.0312L18.5625 22.875L20.7188 25.0312C20.8034 25.1201 20.9052 25.1909 21.018 25.2392C21.1308 25.2876 21.2523 25.3125 21.375 25.3125C21.4977 25.3125 21.6192 25.2876 21.732 25.2392C21.8448 25.1909 21.9466 25.1201 22.0312 25.0312C22.1201 24.9466 22.1909 24.8448 22.2392 24.732C22.2876 24.6192 22.3125 24.4977 22.3125 24.375C22.3125 24.2523 22.2876 24.1308 22.2392 24.018C22.1909 23.9052 22.1201 23.8034 22.0312 23.7188L19.875 21.5625Z" fill="#2F3245"/>
<path d="M21 6.5625C21 4.0125 17.3062 1.875 12.9375 1.875C8.56875 1.875 4.875 4.0125 4.875 6.5625C4.89389 7.35767 5.21584 8.11558 5.775 8.68125C5.82019 8.73584 5.87041 8.78606 5.925 8.83125C7.87151 10.4971 10.3779 11.3616 12.9375 11.25C15.4971 11.3616 18.0035 10.4971 19.95 8.83125C20.0046 8.78606 20.0548 8.73584 20.1 8.68125C20.6592 8.11558 20.9811 7.35767 21 6.5625Z" fill="#FFCB05"/>
<path d="M4.875 17.8125C4.87544 17.3054 5.02545 16.8097 5.30625 16.3875C6.88286 17.5637 8.73642 18.3128 10.6875 18.5625C10.3104 19.5175 10.1194 20.5358 10.125 21.5625C10.125 21.7687 10.125 21.9937 10.1437 22.2C7.06875 21.5063 4.875 19.7437 4.875 17.8125Z" fill="#FFCB05"/>
</svg>
