<svg version="1.2" xmlns="http://www.w3.org/2000/svg" viewBox="0 0 16 16" width="16" height="16">
	<title>twitter_x-svg</title>
	<style>
		.s0 { fill: #ffffff } 
	</style>
	<path id="Layer" fill-rule="evenodd" class="s0" d="m2.6 0.1h2.3l2 2.9c1.1 1.6 2.1 2.9 2.1 2.9 0 0 1.2-1.3 2.5-2.9l2.6-2.9h0.6c0.4 0 0.7 0 0.7 0 0 0-0.3 0.5-0.8 1-1.9 2.1-5 5.6-5 5.7 0 0 1.4 2 3.2 4.5 1.7 2.5 3.1 4.5 3.1 4.5 0 0-1 0-2.3 0h-2.4l-2-2.9c-1.1-1.6-2.1-3-2.2-3 0-0.1-0.7 0.7-2.7 2.9-1.4 1.6-2.6 3-2.6 3 0 0-0.4 0-0.7 0h-0.7l1.6-1.8c0.8-1 2.2-2.6 3-3.5l1.5-1.6-0.5-0.7c-2.7-3.8-5.7-8.1-5.7-8.1 0 0 1.1 0 2.4 0zm-0.4 1.1c0 0 0.1 0.2 0.2 0.3 0.1 0.1 1.6 2.2 8 11.1l1.5 2.3h1.1c0.8 0 1 0 1-0.1-0.1-0.1-6-8.4-8.5-11.9l-1.3-1.8h-1c-0.5 0-1 0.1-1 0.1z"/>
</svg>