<svg width="40" height="40" viewBox="0 0 40 40" fill="none" xmlns="http://www.w3.org/2000/svg">
<g clip-path="url(#clip0_3526_170353)">
<path d="M19.9812 22.918H19.9516C18.2934 22.918 16.9492 24.2622 16.9492 25.9203V36.9984C16.9492 38.6566 18.2934 40.0008 19.9516 40.0008H19.9812C21.6394 40.0008 22.9836 38.6566 22.9836 36.9984V25.9203C22.9836 24.2622 21.6394 22.918 19.9812 22.918Z" fill="#00ADEF"/>
<path d="M32.0836 3.3875H28.2289C27.9211 2.78828 27.2984 2.37734 26.5781 2.37734H24.7914C24.2078 2.37734 23.6656 2.09687 23.307 1.63594C22.5328 0.640625 21.3234 0 19.9648 0C18.6062 0 17.3969 0.640625 16.6227 1.63594C16.2641 2.09687 15.7227 2.37734 15.1383 2.37734H13.3516C12.6313 2.37734 12.0086 2.78828 11.7008 3.3875H7.84609C7.37891 3.3875 7 3.76641 7 4.23359C7 4.70078 7.37891 5.07969 7.84609 5.07969H11.7008C12.0086 5.67891 12.6313 6.08984 13.3516 6.08984H15.1383C15.7219 6.08984 16.2641 6.37031 16.6227 6.83125C17.3969 7.82656 18.6062 8.46719 19.9648 8.46719C21.3234 8.46719 22.5328 7.82656 23.307 6.83125C23.6656 6.37031 24.207 6.08984 24.7914 6.08984H26.5781C27.2984 6.08984 27.9211 5.67891 28.2289 5.07969H32.0836C32.5508 5.07969 32.9297 4.70078 32.9297 4.23359C32.9297 3.76641 32.5508 3.3875 32.0836 3.3875ZM19.9648 6.57891C18.6602 6.57891 17.6031 5.52187 17.6031 4.21719C17.6031 2.9125 18.6602 1.85547 19.9648 1.85547C21.2695 1.85547 22.3266 2.9125 22.3266 4.21719C22.3266 5.52187 21.2695 6.57891 19.9648 6.57891Z" fill="white"/>
<path d="M29.6538 14.3742C29.2507 12.2945 27.3499 10.2828 25.2757 9.82344C24.0163 9.56172 22.3031 9.30547 19.9632 9.30078C17.6241 9.30469 15.9109 9.56172 14.6507 9.82344C12.5765 10.2828 10.6757 12.2938 10.2726 14.3742C10.0195 15.6422 9.70618 19.1766 9.73196 21.5148C9.70618 23.8531 10.0195 27.3883 10.2726 28.6555C10.6757 30.7359 12.5765 32.7469 14.6507 33.2063C14.9359 33.2656 15.246 33.3242 15.5796 33.3805V25.9367C15.5796 23.5203 17.546 21.5539 19.9624 21.5539C22.3788 21.5539 24.3452 23.5203 24.3452 25.9367V33.3805C24.6788 33.3242 24.989 33.2656 25.2741 33.2063C27.3484 32.7469 29.2491 30.7359 29.6523 28.6555C29.9054 27.3883 30.2187 23.8531 30.1929 21.5148C30.2187 19.1766 29.9054 15.6414 29.6523 14.3742H29.6538ZM15.0234 17.9125C14.9679 18.1977 14.7077 18.4734 14.4226 18.5367C14.2499 18.5727 14.0148 18.6078 13.6937 18.6086C13.3726 18.6086 13.1382 18.5727 12.9648 18.5367C12.6804 18.4734 12.4195 18.1977 12.364 17.9125C12.3296 17.7383 12.2898 17.0281 12.2898 16.068C12.2898 15.1078 12.3288 14.3969 12.364 14.2234C12.4195 13.9383 12.6796 13.6625 12.9648 13.5992C13.1374 13.5633 13.3726 13.5281 13.6937 13.5273C14.0148 13.5273 14.2491 13.5633 14.4226 13.5992C14.707 13.6625 14.9679 13.9383 15.0234 14.2234C15.0577 14.3977 15.0976 15.1625 15.0976 16.068C15.0976 17.0289 15.0585 17.7391 15.0234 17.9125ZM27.5609 17.9125C27.5054 18.1977 27.2452 18.4734 26.9601 18.5367C26.7874 18.5727 26.5523 18.6078 26.2312 18.6086C25.9101 18.6086 25.6757 18.5727 25.5023 18.5367C25.2179 18.4734 24.957 18.1977 24.9015 17.9125C24.8671 17.7383 24.8273 17.0281 24.8273 16.068C24.8273 15.1078 24.8663 14.3969 24.9015 14.2234C24.957 13.9383 25.2171 13.6625 25.5023 13.5992C25.6749 13.5633 25.9101 13.5281 26.2312 13.5273C26.5523 13.5273 26.7866 13.5633 26.9601 13.5992C27.2445 13.6625 27.5054 13.9383 27.5609 14.2234C27.5952 14.3977 27.6351 15.1625 27.6351 16.068C27.6351 17.0289 27.596 17.7391 27.5609 17.9125Z" fill="white"/>
</g>
<defs>
<clipPath id="clip0_3526_170353">
<rect width="40" height="40" fill="white"/>
</clipPath>
</defs>
</svg>
