<svg width="30" height="30" viewBox="0 0 30 30" fill="none" xmlns="http://www.w3.org/2000/svg">
<g clip-path="url(#clip0_2972_92947)">
<path d="M17.8125 0H3.4375C1.5375 0 0 1.5375 0 3.4375V22.8125C0 24.7125 1.5375 26.25 3.4375 26.25H12.6625L12.9375 24.7125C13.0625 24.0125 13.3875 23.3875 13.8875 22.875L21.25 15.525V3.4375C21.25 1.5375 19.7125 0 17.8125 0V0ZM5 5H10C10.6875 5 11.25 5.5625 11.25 6.25C11.25 6.9375 10.6875 7.5 10 7.5H5C4.3125 7.5 3.75 6.9375 3.75 6.25C3.75 5.5625 4.3125 5 5 5ZM11.25 17.5H5C4.3125 17.5 3.75 16.9375 3.75 16.25C3.75 15.5625 4.3125 15 5 15H11.25C11.9375 15 12.5 15.5625 12.5 16.25C12.5 16.9375 11.9375 17.5 11.25 17.5ZM16.25 12.5H5C4.3125 12.5 3.75 11.9375 3.75 11.25C3.75 10.5625 4.3125 10 5 10H16.25C16.9375 10 17.5 10.5625 17.5 11.25C17.5 11.9375 16.9375 12.5 16.25 12.5Z" fill="#FFCB05"/>
<path d="M15.6597 30.0004C15.4134 30.0004 15.1734 29.9029 14.9972 29.7254C14.7809 29.5092 14.6834 29.2017 14.7372 28.8992L15.3997 25.1429C15.4322 24.9542 15.5247 24.7792 15.6597 24.6429L24.9409 15.3629C26.0809 14.2204 27.2009 14.5292 27.8134 15.1417L29.3597 16.6879C30.2134 17.5404 30.2134 18.9279 29.3597 19.7817L20.0784 29.0629C19.9434 29.1992 19.7684 29.2904 19.5784 29.3229L15.8222 29.9854C15.7684 29.9954 15.7134 30.0004 15.6597 30.0004ZM19.4159 28.4004H19.4284H19.4159Z" fill="#2F3245"/>
</g>
<defs>
<clipPath id="clip0_2972_92947">
<rect width="30" height="30" fill="white"/>
</clipPath>
</defs>
</svg>
