<svg width="54" height="54" viewBox="0 0 54 54" fill="none" xmlns="http://www.w3.org/2000/svg">
<path d="M51.5095 23.4136L47.9244 22.0337C47.396 19.6039 46.4473 17.3153 45.0993 15.2186L46.6598 11.7053C46.7884 11.4159 46.7254 11.0771 46.5015 10.8531L43.1471 7.49883C42.9231 7.27488 42.5845 7.212 42.2949 7.34044L38.7802 8.90136C36.683 7.55347 34.3947 6.60477 31.9669 6.07687L30.5864 2.49058C30.4727 2.19504 30.1886 2 29.8719 2H25.1281C24.8114 2 24.5274 2.19504 24.4136 2.49058L23.0332 6.07677C20.6054 6.60477 18.3171 7.55338 16.2198 8.90126L12.7052 7.34034C12.4158 7.21181 12.077 7.27479 11.853 7.49873L8.49873 10.853C8.27479 11.077 8.21181 11.4157 8.34034 11.7052L9.90107 15.2196C8.55309 17.3165 7.60448 19.6048 7.07639 22.0334L3.49058 23.4136C3.19504 23.5274 3 23.8115 3 24.1281V28.8719C3 29.1886 3.19504 29.4726 3.49058 29.5864L7.07572 30.9663C7.60419 33.3963 8.5529 35.685 9.90079 37.7815L8.34034 41.2948C8.21172 41.5842 8.27469 41.923 8.49864 42.147L11.8529 45.5013C12.0769 45.7252 12.4155 45.7882 12.7051 45.6597L16.2199 44.0988C18.3172 45.4466 20.6054 46.3953 23.0331 46.9232L24.4136 50.5094C24.5274 50.805 24.8114 51 25.1281 51H29.872C30.1887 51 30.4727 50.805 30.5865 50.5094L31.9664 46.9242C34.3962 46.3958 36.6848 45.4472 38.7815 44.0992L42.2948 45.6597C42.5842 45.7883 42.923 45.7253 43.147 45.5014L46.5013 42.147C46.7252 41.923 46.7882 41.5843 46.6597 41.2948L45.0988 37.7801C46.4466 35.6828 47.3953 33.3945 47.9232 30.9668L51.5094 29.5864C51.805 29.4726 52 29.1886 52 28.8719V24.128C52.0001 23.8114 51.8051 23.5273 51.5095 23.4136ZM50.4689 28.3463L46.9832 29.688C46.7377 29.7826 46.5578 29.9967 46.507 30.255C46.0119 32.776 45.0318 35.1404 43.5938 37.2824C43.4471 37.5009 43.423 37.7794 43.5298 38.0199L45.047 41.436L42.4361 44.047L39.0212 42.5303C38.7807 42.4236 38.5022 42.4477 38.2836 42.5944C36.1426 44.0321 33.7777 45.0124 31.2546 45.508C30.9963 45.5587 30.7822 45.7386 30.6876 45.9843L29.3464 49.4689H25.6539L24.3122 45.9832C24.2176 45.7377 24.0035 45.5578 23.7452 45.507C21.2242 45.0119 18.8598 44.0318 16.7178 42.5938C16.4992 42.4471 16.2208 42.423 15.9803 42.5298L12.5642 44.047L9.95333 41.4361L11.47 38.0212C11.5768 37.7807 11.5526 37.5021 11.4059 37.2836C9.96835 35.1429 8.98806 32.778 8.49232 30.2545C8.4416 29.9962 8.26167 29.7821 8.016 29.6876L4.53125 28.3463V24.6538L8.01648 23.3123C8.26215 23.2177 8.44198 23.0035 8.4927 22.7453C8.98797 20.2234 9.96816 17.8589 11.406 15.7175C11.5527 15.4991 11.5769 15.2206 11.4701 14.98L9.95314 11.5641L12.564 8.95323L15.9801 10.4704C16.2206 10.5771 16.499 10.553 16.7175 10.4064C18.8596 8.96845 21.224 7.98835 23.7451 7.49318C24.0034 7.44246 24.2175 7.26254 24.3121 7.01696L25.6538 3.53125H29.3463L30.6879 7.01687C30.7825 7.26244 30.9966 7.44236 31.2549 7.49308C33.7761 7.98825 36.1404 8.96845 38.2824 10.4063C38.501 10.553 38.7794 10.577 39.0199 10.4703L42.436 8.95314L45.047 11.564L43.5303 14.9789C43.4235 15.2194 43.4477 15.498 43.5944 15.7165C45.0321 17.8574 46.0124 20.2223 46.508 22.7455C46.5587 23.0038 46.7386 23.2179 46.9843 23.3125L50.4689 24.6537V28.3463ZM27.5001 11.3789C19.1622 11.3789 12.3789 18.1622 12.3789 26.5001C12.3789 34.8379 19.1622 41.6212 27.5001 41.6212C35.8379 41.6212 42.6212 34.8379 42.6212 26.5001C42.6212 18.1622 35.8379 11.3789 27.5001 11.3789ZM27.5001 40.0899C20.0066 40.0899 13.9102 33.9935 13.9102 26.5001C13.9102 19.0066 20.0066 12.9102 27.5001 12.9102C34.9935 12.9102 41.0899 19.0066 41.0899 26.5001C41.0899 33.9935 34.9935 40.0899 27.5001 40.0899Z" fill="#00ADEF"/>
<path d="M27.5 16C26.2611 16 25.1515 16.6641 24.532 17.7764L18.4646 28.6706C17.8451 29.783 17.8451 31.1112 18.4646 32.2235C19.0841 33.3359 20.1937 34 21.4327 34H33.5673C34.8063 34 35.9159 33.3359 36.5354 32.2235C37.1549 31.1112 37.1549 29.783 36.5354 28.6706L30.468 17.7764C29.8486 16.6641 28.739 16 27.5 16ZM35.3984 31.5429C35.0162 32.2291 34.3318 32.6388 33.5674 32.6388H21.4327C20.6683 32.6388 19.9838 32.2292 19.6017 31.5429C19.2195 30.8566 19.2195 30.0374 19.6017 29.3511L25.6691 18.4569C26.0512 17.7707 26.7357 17.3611 27.5 17.3611C28.2644 17.3611 28.9489 17.7707 29.331 18.4569L35.3984 29.3511C35.7806 30.0374 35.7806 30.8567 35.3984 31.5429ZM27.5 28.2707C28.2475 28.2707 28.8541 27.6643 28.8811 26.8899L29.0644 21.6263C29.0783 21.2284 28.9447 20.8666 28.6781 20.5802C28.4114 20.2936 28.0675 20.1422 27.6834 20.1422H27.3167C26.9326 20.1422 26.5887 20.2937 26.3221 20.5802C26.0555 20.8667 25.922 21.2284 25.9357 21.6263L26.119 26.8899C26.1461 27.6643 26.7526 28.2707 27.5 28.2707ZM27.2672 21.525C27.2854 21.5055 27.2905 21.5032 27.3167 21.5032H27.6834C27.7097 21.5032 27.7148 21.5055 27.733 21.5251C27.7512 21.5446 27.7531 21.5499 27.7522 21.5772L27.5689 26.8407C27.5675 26.8793 27.5373 26.9095 27.5001 26.9095C27.4629 26.9095 27.4326 26.8793 27.4313 26.8407L27.2479 21.5773C27.247 21.5504 27.2491 21.5445 27.2672 21.525ZM27.5 28.6291C26.6257 28.6291 25.9143 29.3665 25.9143 30.273C25.9143 31.1795 26.6256 31.9169 27.5 31.9169C28.3745 31.9169 29.0858 31.1795 29.0858 30.273C29.0858 29.3666 28.3744 28.6291 27.5 28.6291ZM27.5 30.5557C27.3496 30.5557 27.2273 30.4289 27.2273 30.273C27.2273 30.1172 27.3496 29.9903 27.5 29.9903C27.6505 29.9903 27.7728 30.1171 27.7728 30.273C27.7728 30.429 27.6505 30.5557 27.5 30.5557Z" fill="#FFCB05"/>
</svg>
