<svg width="54" height="54" viewBox="0 0 54 54" fill="none" xmlns="http://www.w3.org/2000/svg">
<path d="M41.0996 37.5499C42.0385 37.5499 42.7996 36.7888 42.7996 35.8499V33.6518C42.7998 33.022 42.4518 32.4437 41.8952 32.149L28.2952 24.9486C27.7976 24.6851 27.2017 24.6851 26.704 24.9486L13.104 32.149C12.5475 32.4437 12.1994 33.022 12.1996 33.6518V35.8499C12.1996 36.7888 12.9607 37.5499 13.8996 37.5499H14.7496V46.0499C12.8718 46.0499 11.3496 47.5721 11.3496 49.4499V50.2999C11.3496 51.2388 12.1107 51.9999 13.0496 51.9999H41.9496C42.8885 51.9999 43.6496 51.2388 43.6496 50.2999V49.4499C43.6496 47.5721 42.1274 46.0499 40.2496 46.0499V37.5499H41.0996ZM13.8996 33.6518L27.4996 26.4514L41.0996 33.6518V35.8499H13.8996V33.6518ZM30.8996 46.0499V37.5499H33.4496V46.0499H30.8996ZM21.5496 46.0499V37.5499H24.0996V46.0499H21.5496ZM25.7996 37.5499H29.1996V46.0499H25.7996V37.5499ZM16.4496 37.5499H19.8496V46.0499H16.4496V37.5499ZM41.9496 49.4499V50.2999H13.0496V49.4499C13.0496 48.511 13.8107 47.7499 14.7496 47.7499H40.2496C41.1885 47.7499 41.9496 48.511 41.9496 49.4499ZM38.5496 46.0499H35.1496V37.5499H38.5496V46.0499Z" fill="#00ADEF"/>
<path d="M24.9496 33.2996H30.0496C30.5191 33.2996 30.8996 32.9191 30.8996 32.4496C30.8996 31.9802 30.5191 31.5996 30.0496 31.5996H24.9496C24.4802 31.5996 24.0996 31.9802 24.0996 32.4496C24.0996 32.9191 24.4802 33.2996 24.9496 33.2996Z" fill="#00ADEF"/>
<path d="M8.8 23.9496C12.5555 23.9496 15.6 20.9051 15.6 17.1496C15.6 13.3941 12.5555 10.3496 8.8 10.3496C5.04446 10.3496 2 13.3941 2 17.1496C2.00422 20.9034 5.04621 23.9454 8.8 23.9496ZM8.8 12.0496C11.6167 12.0496 13.9 14.333 13.9 17.1496C13.9 19.9663 11.6167 22.2496 8.8 22.2496C5.98335 22.2496 3.7 19.9663 3.7 17.1496C3.70281 14.3341 5.98451 12.0524 8.8 12.0496Z" fill="#FFCB05"/>
<path d="M21.4588 23.9504C21.5032 23.9571 21.5481 23.9605 21.5931 23.9606C22.0108 23.9603 22.3664 23.6566 22.432 23.244C22.5953 22.0002 22.2799 20.7409 21.5497 19.7208C20.6815 18.6881 19.4133 18.0757 18.0647 18.0378C17.6042 18.0093 17.205 18.3533 17.1653 18.813C17.1256 19.2727 17.4599 19.6802 17.9185 19.731C18.7909 19.7389 19.6202 20.1112 20.2059 20.7578C20.6525 21.4056 20.848 22.194 20.7558 22.9754C20.6808 23.4388 20.9955 23.8752 21.4588 23.9504Z" fill="#00ADEF"/>
<path d="M17.7752 15.4573C20.3728 15.538 22.3023 16.2792 23.511 17.6605C24.531 18.9288 25.0401 20.5326 24.9381 22.157C24.8885 22.6227 25.2249 23.0408 25.6904 23.092C25.7215 23.0954 25.7527 23.0971 25.7839 23.0971C26.2171 23.0966 26.5807 22.7704 26.6279 22.3397C26.7852 20.2507 26.133 18.1811 24.8064 16.5597C23.2764 14.7977 20.927 13.855 17.8279 13.759C17.6011 13.7469 17.3792 13.8281 17.2138 13.9836C17.0483 14.1391 16.9535 14.3555 16.9515 14.5826C16.9377 15.0515 17.3063 15.443 17.7752 15.4573Z" fill="#00ADEF"/>
<path d="M37.0847 19.731C37.5433 19.6802 37.8776 19.2727 37.8379 18.813C37.7982 18.3533 37.399 18.0093 36.9385 18.0378C35.5899 18.0757 34.3217 18.6881 33.4535 19.7208C32.7237 20.7404 32.4084 21.9991 32.5712 23.2423C32.6378 23.6536 32.9927 23.9559 33.4093 23.9563C33.4513 23.9571 33.4933 23.9551 33.5351 23.9504C33.9984 23.8793 34.3167 23.4465 34.2465 22.9831C34.1539 22.2002 34.3494 21.4104 34.7965 20.7612C35.3818 20.1131 36.2115 19.7396 37.0847 19.731Z" fill="#00ADEF"/>
<path d="M30.1942 16.5587C28.8676 18.1801 28.2154 20.2497 28.3727 22.3387C28.4202 22.7687 28.7832 23.0944 29.2159 23.0952C29.2462 23.0952 29.2766 23.0935 29.3068 23.0901C29.5312 23.0666 29.737 22.9548 29.8788 22.7794C30.0207 22.604 30.0871 22.3795 30.0633 22.1551C29.9609 20.5311 30.4697 18.9275 31.4896 17.6595C32.6983 16.2782 34.6278 15.5345 37.2254 15.4563C37.6949 15.4417 38.0636 15.0494 38.0491 14.5799C38.0345 14.1105 37.6422 13.7417 37.1727 13.7563C34.0736 13.854 31.7259 14.7967 30.1942 16.5587Z" fill="#00ADEF"/>
<path d="M6.25023 17.1503C6.47565 17.1502 6.69181 17.0607 6.85118 16.9012L8.55118 15.2012C8.87331 14.8677 8.8687 14.3376 8.54083 14.0097C8.21296 13.6818 7.68281 13.6772 7.34928 13.9993L5.64928 15.6993C5.40626 15.9424 5.33358 16.308 5.46511 16.6256C5.59664 16.9431 5.9065 17.1502 6.25023 17.1503Z" fill="#FFCB05"/>
<path d="M6.49887 20.3009C6.83079 20.6327 7.36884 20.6327 7.70077 20.3009L11.9508 16.0509C12.2729 15.7173 12.2683 15.1872 11.9404 14.8593C11.6125 14.5314 11.0824 14.5268 10.7489 14.849L6.49887 19.099C6.16704 19.4309 6.16704 19.9689 6.49887 20.3009Z" fill="#FFCB05"/>
<path d="M46.2004 10.3496C42.4449 10.3496 39.4004 13.3941 39.4004 17.1496C39.4004 20.9051 42.4449 23.9496 46.2004 23.9496C49.9559 23.9496 53.0004 20.9051 53.0004 17.1496C52.9962 13.3958 49.9542 10.3538 46.2004 10.3496ZM46.2004 22.2496C43.3837 22.2496 41.1004 19.9663 41.1004 17.1496C41.1004 14.333 43.3837 12.0496 46.2004 12.0496C49.017 12.0496 51.3004 14.333 51.3004 17.1496C51.2976 19.9651 49.0159 22.2468 46.2004 22.2496Z" fill="#FFCB05"/>
<path d="M44.2505 16.9012L45.9505 15.2012C46.2726 14.8677 46.268 14.3376 45.9401 14.0097C45.6123 13.6818 45.0821 13.6772 44.7486 13.9993L43.0486 15.6993C42.8276 15.9128 42.739 16.2288 42.8168 16.526C42.8946 16.8232 43.1267 17.0553 43.4238 17.133C43.721 17.2108 44.0371 17.1222 44.2505 16.9012Z" fill="#FFCB05"/>
<path d="M48.1482 14.849L43.8982 19.099C43.6772 19.3124 43.5886 19.6284 43.6664 19.9256C43.7442 20.2228 43.9763 20.4549 44.2735 20.5326C44.5706 20.6104 44.8867 20.5218 45.1001 20.3009L49.3501 16.0509C49.6722 15.7173 49.6676 15.1872 49.3397 14.8593C49.0119 14.5314 48.4817 14.5268 48.1482 14.849Z" fill="#FFCB05"/>
<path d="M27.4992 14.6C31.2548 14.6 34.2992 11.5555 34.2992 7.8C34.2992 4.04446 31.2548 1 27.4992 1C23.7437 1 20.6992 4.04446 20.6992 7.8C20.7034 11.5538 23.7454 14.5958 27.4992 14.6ZM27.4992 2.7C30.3159 2.7 32.5992 4.98335 32.5992 7.8C32.5992 10.6167 30.3159 12.9 27.4992 12.9C24.6826 12.9 22.3992 10.6167 22.3992 7.8C22.402 4.98451 24.6837 2.70281 27.4992 2.7Z" fill="#FFCB05"/>
<path d="M24.9495 7.80011C25.1749 7.80007 25.391 7.71048 25.5504 7.55106L27.2504 5.85106C27.4714 5.63765 27.56 5.32162 27.4822 5.02443C27.4044 4.72725 27.1723 4.49516 26.8751 4.41737C26.5779 4.33958 26.2619 4.4282 26.0485 4.64916L24.3485 6.34916C24.1055 6.59226 24.0328 6.9578 24.1643 7.27537C24.2959 7.59295 24.6057 7.80004 24.9495 7.80011Z" fill="#FFCB05"/>
<path d="M25.1981 10.9507C25.53 11.2825 26.0681 11.2825 26.4 10.9507L30.65 6.70067C30.871 6.48726 30.9596 6.17123 30.8818 5.87404C30.804 5.57686 30.5719 5.34477 30.2747 5.26698C29.9775 5.18919 29.6615 5.27781 29.4481 5.49877L25.1981 9.74877C24.8663 10.0807 24.8663 10.6187 25.1981 10.9507Z" fill="#FFCB05"/>
</svg>
