<svg width="64" height="65" viewBox="0 0 64 65" fill="none" xmlns="http://www.w3.org/2000/svg">
<path d="M23.9166 39.6008C24.0817 39.2495 24.0275 38.8343 23.7783 38.5363L13.7732 26.5301C13.3931 26.0747 12.6168 26.0747 12.2362 26.5301L2.23107 38.5363C1.98191 38.8352 1.92915 39.2505 2.0933 39.6008C2.25842 39.952 2.61163 40.1772 2.99953 40.1772H7.0016V48.9318L9.00263 45.1798V39.1767C9.00263 38.6232 8.55465 38.1762 8.00211 38.1762H5.13589L13.0047 28.7333L20.874 38.1762H18.0073C17.4552 38.1762 17.0068 38.6232 17.0068 39.1767V45.1798L19.0078 48.9318V40.1772H23.0099C23.3983 40.1772 23.7515 39.952 23.9166 39.6008Z" fill="#00ADEF"/>
<path d="M42.911 27.5241C43.0761 27.1728 43.0219 26.7576 42.7727 26.4596L32.7676 14.4534C32.3875 13.9981 31.6112 13.9981 31.2307 14.4534L21.2255 26.4596C20.9763 26.7586 20.9236 27.1738 21.0877 27.5241C21.2528 27.8754 21.606 28.1006 21.9939 28.1006H25.996V49.0491L27.997 45.2971V27.1C27.997 26.5465 27.5491 26.0995 26.9965 26.0995H24.1303L31.9991 16.6567L39.8684 26.0995H37.0017C36.4497 26.0995 36.0012 26.5465 36.0012 27.1V45.2971L38.0022 49.0491V28.1006H42.0043C42.3927 28.1006 42.7459 27.8754 42.911 27.5241Z" fill="#00ADEF"/>
<path d="M61.9054 16.4516C62.0705 16.1003 62.0163 15.6851 61.7671 15.3871L51.762 3.38086C51.3819 2.92555 50.6056 2.92555 50.225 3.38086L40.2199 15.3871C39.9707 15.686 39.918 16.1013 40.0821 16.4516C40.2472 16.8028 40.6004 17.028 40.9883 17.028H44.9904V48.2945L46.9914 44.5425V16.0275C46.9914 15.474 46.5434 15.027 45.9909 15.027H43.1247L50.9935 5.58415L58.8628 15.027H55.9961C55.444 15.027 54.9956 15.474 54.9956 16.0275V44.5425L56.9966 48.2945V17.028H60.9987C61.3871 17.028 61.7403 16.8028 61.9054 16.4516Z" fill="#00ADEF"/>
<path d="M4.98538 10.1574H6.98641V7.15587H9.98796V5.15483H6.98641V2.15328H4.98538V5.15483H1.98383V7.15587H4.98538V10.1574Z" fill="#00ADEF"/>
<path d="M16.9913 12.1585H19.9929V15.16H21.9939V12.1585H24.9955V10.1574H21.9939V7.15587H19.9929V10.1574H16.9913V12.1585Z" fill="#00ADEF"/>
<path d="M2.98416 22.1636H4.9852V24.1647H2.98416V22.1636Z" fill="#00ADEF"/>
<path d="M36.0013 3.15382H38.0024V5.15486H36.0013V3.15382Z" fill="#00ADEF"/>
<path d="M20.8608 61.1289L14.5583 45.0736H10.924L4.66754 61.1289H8.0028L9.40591 57.4486H15.9154L17.2955 61.1289H20.8608ZM15.0183 54.9184H10.326L12.6492 48.2939H12.6952L15.0183 54.9184Z" fill="#FFCB05"/>
<path d="M40.1624 61.1289L33.8599 45.0736H30.2257L23.9692 61.1289H27.3044L28.7075 57.4486H35.217L36.5971 61.1289H40.1624ZM34.32 54.9184H29.6276L31.9508 48.2939H31.9968L34.32 54.9184Z" fill="#FFCB05"/>
<path d="M59.0969 61.1289L52.7944 45.0736H49.1602L42.9037 61.1289H46.2389L47.642 57.4486H54.1515L55.5317 61.1289H59.0969ZM53.2545 54.9184H48.5621L50.8853 48.2939H50.9313L53.2545 54.9184Z" fill="#FFCB05"/>
</svg>
