<svg width="487" height="651" viewBox="0 0 487 651" fill="none" xmlns="http://www.w3.org/2000/svg">
<path d="M219.122 559.768L179.956 597.648L226.803 646.669C231.318 641.894 216.413 607.545 216.413 607.545L240.982 582.604L219.122 559.768Z" fill="#52656D"/>
<path d="M204.013 590.509C202.779 589.735 201.175 590.184 200.401 591.419C199.627 592.653 200.076 594.257 201.108 595.037C202.342 595.811 204.149 595.356 204.923 594.122C205.489 592.691 205.04 591.087 203.811 590.515" fill="white"/>
<path d="M179.965 597.853L183.897 593.903L227.304 642.818C227.304 642.818 228.398 645.82 226.615 647.082L179.965 597.853Z" fill="#263238"/>
<path d="M217.446 608.325C217.25 608.532 216.004 607.354 213.973 607.007C211.942 606.659 210.534 606.901 210.321 606.502C210.108 606.104 211.903 605.245 214.141 605.789C216.38 606.333 217.643 608.117 217.446 608.325Z" fill="white"/>
<path d="M220.074 615.528C219.877 615.736 218.447 615.169 216.635 615.422C214.823 615.675 213.628 616.314 213.42 616.118C213.212 615.922 214.385 614.474 216.601 614.21C218.817 613.946 220.466 615.113 220.074 615.528Z" fill="white"/>
<path d="M216.883 624.311C216.676 624.115 217.242 622.684 219.447 622.016C221.652 621.348 222.88 621.92 222.891 622.324C222.903 622.728 221.483 622.566 219.885 623.217C218.286 623.868 217.091 624.508 216.883 624.311Z" fill="white"/>
<path d="M222.737 602.317C222.333 602.329 221.688 600.932 220.24 599.759C218.792 598.587 217.356 597.819 217.552 597.611C217.749 597.403 219.572 597.555 221.025 598.929C222.478 600.303 222.939 602.312 222.737 602.317Z" fill="white"/>
<path d="M227.396 595.516C227.396 595.516 226.162 594.742 225.101 592.952C224.467 591.959 223.828 590.764 223.39 589.564C223.171 588.963 222.946 588.161 222.722 587.359C222.711 586.955 222.497 586.557 222.688 586.147C222.671 585.541 223.26 584.919 223.866 584.902C224.472 584.885 225.083 585.07 225.499 585.462C225.712 585.861 226.121 586.051 226.335 586.45C226.756 587.044 226.98 587.847 227.199 588.447C227.637 589.647 227.872 590.854 227.906 592.065C228.142 593.271 227.766 594.293 227.189 595.319C226.987 595.325 227.155 594.108 226.896 592.094C226.863 590.882 226.431 589.883 225.993 588.683C225.774 588.082 225.353 587.488 225.134 586.887C224.713 586.293 224.292 585.698 224.096 585.906C223.9 586.113 223.894 585.911 223.905 586.315C223.917 586.719 223.922 586.921 223.934 587.325C224.152 587.926 224.175 588.733 224.394 589.334C224.832 590.534 225.264 591.533 225.696 592.531C226.33 593.524 226.964 594.517 227.396 595.516Z" fill="white"/>
<path d="M226.791 595.533C226.589 595.539 227.156 594.108 228.53 592.655C229.315 591.825 230.504 590.983 231.497 590.349C232.092 589.928 232.894 589.703 233.494 589.485C234.493 589.052 235.508 589.226 236.333 589.81C236.748 590.202 236.973 591.004 236.58 591.42C236.39 591.829 236.199 592.239 236.003 592.446C235.616 593.064 235.027 593.686 234.432 594.107C233.445 594.943 232.244 595.381 230.83 595.42C228.614 595.684 227.38 594.91 227.38 594.91C228.39 594.882 229.602 594.848 230.606 594.618C231.812 594.382 232.811 593.95 233.596 593.12C234.191 592.699 234.583 592.284 234.97 591.667C235.357 591.05 235.744 590.432 235.34 590.444C234.931 590.253 234.319 590.068 233.719 590.287C233.119 590.506 232.317 590.73 231.716 590.949C230.718 591.381 229.725 592.015 228.737 592.851C227.571 594.501 226.999 595.73 226.791 595.533Z" fill="white"/>
<path d="M210.42 595.587L212.548 650.101L280.403 648.005C279.819 641.553 244.316 629.608 244.316 629.608L244.35 594.64L210.42 595.587Z" fill="#52656D"/>
<path d="M223.031 627.372C221.628 627.816 220.86 629.252 221.303 630.655C221.747 632.057 222.981 632.831 224.389 632.59C225.792 632.146 226.56 630.71 226.313 629.1C225.668 627.703 224.237 627.137 222.834 627.58" fill="white"/>
<path d="M212.353 650.307L212.19 644.45L277.487 644.851C277.487 644.851 280.551 645.978 280.209 648.211L212.353 650.307Z" fill="#263238"/>
<path d="M245.315 629.175C245.326 629.579 243.716 629.826 242.129 630.881C240.541 631.936 239.773 633.373 239.363 633.182C238.954 632.991 239.509 631.157 241.495 629.888C243.48 628.62 245.309 628.973 245.315 629.175Z" fill="#263238"/>
<path d="M252.469 632.006C252.48 632.41 251.078 632.854 250.107 634.296C249.137 635.738 248.773 637.163 248.369 637.174C247.965 637.185 247.712 635.373 249.075 633.516C250.438 631.659 252.458 631.603 252.469 632.006Z" fill="#263238"/>
<path d="M256.745 640.378C256.543 640.384 255.892 638.785 256.649 636.945C257.406 635.104 259 634.251 259.213 634.65C259.426 635.048 258.439 635.884 257.878 637.517C257.317 639.149 257.149 640.367 256.745 640.378Z" fill="#263238"/>
<path d="M244.289 621.321C244.093 621.528 242.668 621.164 240.654 621.422C238.64 621.681 237.445 622.32 237.231 621.922C237.018 621.524 238.404 620.474 240.62 620.21C242.836 619.946 244.48 620.911 244.289 621.321Z" fill="#263238"/>
<path d="M205.172 284.462C199.888 290.673 195.227 297.473 191.593 304.851C187.218 314.675 180.528 335.681 180.528 335.681C180.528 335.681 172.527 367.638 174.963 382.527C177.4 397.416 193.381 499.245 193.381 499.245C193.381 499.245 193.022 580.509 205.543 616.339L207.827 625.775L245.808 617.843L248.681 416.649L268.601 283.095L205.172 284.462Z" fill="#263238"/>
<path d="M254.284 291.58C254.083 291.585 254.251 290.368 252.809 289.398C251.574 288.623 249.762 288.876 248.994 290.313C248.601 290.728 248.618 291.334 248.635 291.939C248.68 293.555 250.122 294.526 251.536 294.486C252.142 294.469 252.54 294.256 253.135 293.835C254.318 292.791 254.083 291.585 254.284 291.58C254.486 291.574 254.492 291.776 254.307 292.388C254.33 293.195 253.943 293.813 253.354 294.435C252.366 295.271 251.16 295.507 250.139 295.132C248.304 294.576 247.238 292.585 247.793 290.75C248.169 289.729 248.954 288.899 249.953 288.467C251.153 288.029 252.371 288.197 253.201 288.982C253.819 289.369 254.245 290.166 254.47 290.968C254.273 291.176 254.284 291.58 254.284 291.58Z" fill="#52656D"/>
<path d="M299.248 309.326C299.248 309.326 316.937 436.17 319.572 458.128C322.206 480.086 246.086 598.836 246.086 598.836L211.454 560.187L259.902 463.836L240.091 369.593L260.124 283.535L295.278 282.958L299.248 309.326Z" fill="#263238"/>
<path d="M198.827 585.805C198.856 586.814 199.08 587.617 199.108 588.626C199.361 590.439 199.838 593.053 200.54 596.469C201.944 603.302 204.245 613.344 207.422 625.787L207.428 625.989L207.63 625.984L245.817 618.248L246.019 618.242L246.014 618.04C246.291 591.756 246.831 560.412 247.101 526.65C247.506 490.458 247.776 456.696 248.221 429.194C250.428 406.899 252.344 388.654 253.599 375.684C254.232 369.4 254.697 364.334 255.005 360.889C255.162 359.268 255.325 357.848 255.302 357.041C255.28 356.233 255.465 355.621 255.465 355.621C255.465 355.621 255.476 356.025 255.302 357.041C255.129 358.056 254.96 359.273 254.804 360.895C254.495 364.34 253.828 369.411 253.195 375.695C251.733 388.469 249.822 406.916 247.413 429.217C247.17 456.713 246.698 490.481 246.091 526.678C245.821 560.44 245.281 591.784 245.004 618.068L245.195 617.659L207.215 625.591L207.624 625.782C204.447 613.339 201.944 603.302 200.54 596.469C199.838 593.053 199.159 590.444 198.906 588.632C198.676 587.628 198.659 587.022 198.648 586.618C198.844 586.41 198.839 586.209 198.827 585.805Z" fill="#52656D"/>
<path d="M249.836 334.956C250.442 334.939 251.25 334.917 251.856 334.9C253.679 335.051 255.491 334.798 257.281 333.738C258.274 333.104 259.053 332.071 259.423 330.848C259.788 329.423 259.95 328.004 259.905 326.388C260.017 323.151 260.325 319.706 260.426 316.065C260.829 308.778 260.844 302.107 260.911 297.254C260.849 295.033 260.995 293.007 260.955 291.593C260.938 290.988 260.916 290.18 261.101 289.568C261.32 290.168 261.342 290.976 261.359 291.582C261.399 292.996 261.449 294.814 261.517 297.237C261.652 302.084 261.636 308.755 261.435 316.037C261.335 319.678 261.032 323.325 260.915 326.36C260.96 327.976 260.596 329.401 260.237 331.028C259.872 332.453 258.891 333.491 257.701 334.332C256.709 334.967 255.704 335.197 254.493 335.231C253.685 335.253 252.877 335.276 252.063 335.096C251.053 335.124 250.448 335.141 249.836 334.956Z" fill="#52656D"/>
<path d="M297.637 309.572C296.212 309.208 294.978 308.434 293.946 307.654C291.067 305.915 288.582 303.761 286.287 301.198C283.997 298.836 282.101 296.059 280.602 293.069C279.963 291.874 279.323 290.679 279.082 289.271C283.15 297.445 289.614 304.541 297.637 309.572Z" fill="#52656D"/>
<path d="M276.791 26.1703C283.63 32.2453 287.115 41.2436 285.95 50.1696C285.462 54.4278 283.982 59.3201 286.703 62.6802C289.425 66.0404 294.889 66.2921 297.206 69.6635C300.152 73.8259 297.281 79.5655 298.224 84.3902C299.369 89.2092 303.706 92.5242 308.553 92.3889C302.809 96.5917 296.01 99.207 288.75 99.8139L283.7 92.6784C285.395 95.4609 285.092 99.1076 282.731 101.397C280.369 103.686 277.581 105.179 274.367 105.875C259.315 109.731 243.454 106.334 231.464 96.7642" fill="#263238"/>
<path d="M193.866 60.419C195.397 57.3444 196.72 54.0734 197.842 50.8081C199.659 43.4809 196.594 35.0772 200.459 28.7035C203.162 24.1813 208.761 22.0038 213.782 20.853C218.803 19.7022 224.43 18.5346 228.368 14.7864C231.324 12.0763 233.04 8.39011 236.002 5.88195C240.142 2.12815 245.976 1.15679 251.631 0.998937C257.287 0.84108 263.177 1.88939 268.305 4.57598C273.434 7.26257 277.008 12.2159 277.974 17.8484C278.053 20.6759 278.132 23.5035 278.609 26.1178C279.501 29.1247 281.589 31.4919 282.879 34.2857C285.478 40.479 283.655 47.6042 278.309 51.5938L236.817 100.251C228.402 102.912 208.665 98.2073 202.627 91.9079C196.59 85.6084 190.865 68.7898 193.866 60.419Z" fill="#263238"/>
<path d="M277.73 45.3445C276.601 33.8549 268.526 19.7295 257.053 21.4646L221.357 31.5566C217.935 32.0564 215.394 35.1592 215.49 38.5926L221.953 125.326L221.751 125.331C221.751 125.331 237.044 159.063 260.667 150.925C265.273 149.382 261.018 134.543 261.68 129.27L261.7 115.525C261.503 108.456 261.424 105.628 261.424 105.628C261.424 105.628 276.1 102.793 278.588 83.3199C279.737 73.788 278.899 58.2478 277.73 45.3445Z" fill="#FFBF9D"/>
<path d="M275.365 61.9857C275.405 63.3994 274.423 64.4374 273.009 64.4769C271.803 64.7127 270.563 63.7367 270.322 62.3286C270.282 60.9148 271.264 59.8768 272.678 59.8373C274.086 59.5959 275.326 60.5719 275.365 61.9857C275.36 61.7837 275.36 61.7837 275.365 61.9857Z" fill="#263238"/>
<path d="M251.557 63.4583C251.596 64.8721 250.615 65.9101 249.201 65.9496C247.995 66.1854 246.755 65.2093 246.513 63.8012C246.474 62.3874 247.456 61.3494 248.869 61.31C250.075 61.0742 251.315 62.0502 251.557 63.4583C251.551 63.2563 251.551 63.2563 251.557 63.4583Z" fill="#263238"/>
<path d="M275.544 53.8937C275.354 54.3033 273.087 52.7496 270.063 53.0361C267.039 53.3226 265.272 55.1911 264.857 54.7984C264.442 54.4058 264.829 53.7886 265.816 52.9525C267.976 50.6689 271.605 50.3654 274.282 52.1098C275.32 53.0915 275.741 53.6861 275.544 53.8937Z" fill="#263238"/>
<path d="M249.721 55.6268C249.328 56.042 247.258 54.2807 244.026 54.3709C240.795 54.4611 238.613 55.9369 238.399 55.5386C238.186 55.1403 238.579 54.7251 239.566 53.889C240.952 52.8397 242.556 52.3907 244.172 52.3456C245.788 52.3005 247.42 52.8613 248.666 54.0392C249.698 54.8189 249.923 55.6212 249.721 55.6268Z" fill="#263238"/>
<path d="M258.53 74.3812C259.933 73.9378 261.341 73.6964 262.749 73.4549C263.355 73.438 264.157 73.2135 264.146 72.8096C264.129 72.2037 263.905 71.4014 263.686 70.8012C263.035 69.2023 262.378 67.4016 261.519 65.6064C259.578 61.2139 257.838 56.8157 256.496 52.2043C258.836 56.3836 260.778 60.7761 262.518 65.1743L264.684 70.369C265.111 71.1656 265.341 72.1698 265.161 72.9833C264.971 73.3929 264.578 73.8081 264.18 74.0214C263.776 74.0326 263.377 74.2459 262.974 74.2571C261.565 74.4986 260.152 74.538 258.53 74.3812Z" fill="#263238"/>
<path d="M261.43 105.828C252.347 106.283 243.393 104.108 235.386 99.6826C235.386 99.6826 242.227 113.034 261.565 110.675L261.43 105.828Z" fill="#FF9A6C"/>
<path d="M257.503 81.0804C256.264 80.1044 254.435 79.7512 252.836 80.4022C251.635 80.8399 250.85 81.6703 250.272 82.6971C249.694 83.7238 249.93 84.93 250.968 85.9117C252.001 86.6913 253.414 86.6519 254.604 85.8102C255.793 84.9685 256.578 84.1381 257.352 82.9037C257.549 82.6961 257.739 82.2866 257.93 81.877C257.924 81.675 257.711 81.2767 257.503 81.0804Z" fill="#FF9A6C"/>
<path d="M250.95 78.0276C251.354 78.0163 251.433 80.8438 254.115 82.7902C256.797 84.7366 259.821 84.4501 259.832 84.854C259.843 85.2579 259.243 85.4768 257.829 85.5162C256.214 85.5613 254.379 85.0062 253.139 84.0302C251.899 83.0542 251.052 81.663 250.805 80.0529C250.361 78.6504 250.748 78.0332 250.95 78.0276Z" fill="#263238"/>
<path d="M249.926 48.548C249.747 49.3615 247.11 49.0308 243.89 49.5249C240.67 50.0191 238.269 50.8946 237.848 50.3C237.64 50.1037 238.022 49.2845 239.015 48.6504C241.791 46.7538 245.017 46.4616 248.277 47.3812C249.494 47.5494 250.117 48.1384 249.926 48.548Z" fill="#263238"/>
<path d="M273.22 43.0432C272.631 43.666 270.595 43.1165 268.171 43.1842C265.747 43.2518 263.537 43.7178 263.116 43.1231C262.909 42.9268 263.296 42.3096 264.087 41.6812C266.673 40.1941 269.904 40.1039 272.373 41.652C273.198 42.2353 273.619 42.83 273.22 43.0432Z" fill="#263238"/>
<path d="M213.34 34.0026C215.494 31.517 218.478 29.8167 221.491 29.1262C234.91 24.7091 248.778 21.8965 262.691 20.6996C264.391 23.684 262.473 27.3758 259.702 29.4744C256.718 31.1747 253.722 32.4711 250.507 33.1672C247.293 33.8633 244.32 35.9675 242.581 38.8458C241.055 42.1224 241.97 45.9372 240.647 49.2081C238.381 54.9308 230.134 56.3738 227.869 62.0965C226.169 66.3885 228.324 71.1794 228.858 75.8133C229.717 84.8849 223.07 92.9533 213.797 93.8186C212.989 93.8411 212.383 93.858 211.575 93.8806C211.315 77.3137 211.257 60.7411 210.996 44.1742C211.299 40.5275 211.394 36.6845 213.34 34.0026Z" fill="#263238"/>
<path d="M178.081 74.1999C180.846 71.8994 184.235 70.1878 185.35 66.7205C187.033 61.8226 183.436 56.0614 186.145 51.7412C188.664 47.8305 195.345 48.2504 197.662 44.3453C199.395 41.2651 197.695 38.2807 198.424 35.4306C199.753 32.3616 202.934 30.4538 206.176 30.7675L227.331 64.5381C228.853 75.6124 230.84 81.6207 227.98 87.7642C226.252 91.0464 224.94 94.7213 224.026 98.1829C223.118 101.847 224.24 105.858 227.141 108.404C213.609 108.782 201.271 101.244 189.949 93.8789L177.807 86.1329C176.573 85.3589 175.333 84.3829 174.491 83.1936C172.993 80.2036 175.511 76.2929 178.081 74.1999Z" fill="#263238"/>
<path d="M189.858 90.6477C190.267 90.8384 190.879 91.0234 191.283 91.0121C192.702 91.1746 194.116 91.1352 195.524 90.8937C197.734 90.4278 199.732 89.5635 201.51 88.099C203.877 86.0117 205.217 83.3467 205.739 80.3003C206.098 78.6733 206.047 76.8556 205.592 75.0491C205.138 73.2427 204.279 71.4475 203.426 69.8544C202.371 68.2668 201.512 66.4717 201.052 64.4633C200.592 62.4549 200.939 60.4239 202.106 58.7744C203.475 57.1192 205.691 56.8552 207.895 56.1873C210.302 55.5137 212.058 53.2414 211.985 50.6158C211.715 48.1978 211.445 45.7799 210.777 43.5752C210.542 42.369 210.71 41.1516 210.883 40.1361C211.259 39.115 212.039 38.0826 213.032 37.4485C215.225 36.3766 217.638 35.905 219.865 36.045C222.288 35.9773 224.701 35.5058 226.889 34.232C228.88 33.1658 230.647 31.2973 231.802 29.2438C232.756 27.1959 233.507 25.1537 233.849 22.9208C234.197 20.8899 234.746 18.8533 235.504 17.013C236.261 15.1728 237.433 13.7252 238.807 12.272C243.738 7.8897 250.998 7.28283 256.547 10.564C258.398 11.7251 260.053 13.0938 261.512 14.67C262.763 16.05 263.616 17.6432 264.475 19.4383C264.475 19.4383 264.469 19.2364 264.464 19.0344C264.458 18.8324 264.245 18.4341 264.032 18.0358C263.392 16.8409 262.752 15.6461 261.91 14.4568C260.446 12.6786 258.785 11.1079 256.939 10.1488C254.471 8.60076 251.418 7.87746 248.383 7.76006C244.748 7.86153 241.146 9.17482 238.386 11.6774C236.805 12.9343 235.638 14.5838 234.684 16.6317C233.933 18.6739 233.383 20.7105 233.036 22.7414C232.688 24.7723 231.942 27.0165 230.983 28.8624C229.822 30.714 228.252 32.3748 226.26 33.441C224.269 34.5072 221.856 34.9788 219.433 35.0464C216.802 34.9178 214.395 35.5913 212.201 36.6632C211.007 37.3029 210.232 38.5373 209.862 39.7603C209.492 40.9834 209.532 42.3972 209.768 43.6033C210.435 45.8081 210.705 48.226 210.975 50.644C211.003 51.6538 210.633 52.8769 210.049 53.7017C209.264 54.5321 208.473 55.1606 207.469 55.3907C206.47 55.8228 205.264 56.0586 204.266 56.4907C203.065 56.9285 202.274 57.5569 201.489 58.3874C200.126 60.2445 199.784 62.4775 200.452 64.6822C200.912 66.6906 201.771 68.4857 202.831 70.2752C203.886 71.8628 204.537 73.4616 204.992 75.268C205.441 76.8725 205.486 78.4882 205.127 80.1152C204.802 82.954 203.26 85.6247 201.089 87.5044C199.513 88.9633 197.521 90.0295 195.311 90.4955C193.706 90.9445 191.687 91.0009 189.858 90.6477Z" fill="#52656D"/>
<path d="M173.018 66.6599C172.827 67.0695 172.631 67.2771 172.44 67.6867C172.272 68.9041 172.306 70.116 172.94 71.1089C173.367 71.9055 173.788 72.5001 174.612 73.0834C175.437 73.6668 176.458 74.0425 177.468 74.0143C179.897 74.1487 182.281 72.6672 183.431 70.4118C184.205 69.1774 184.57 67.7524 184.53 66.3386C184.485 64.7229 184.244 63.3147 183.8 61.9122C182.908 58.9053 181.006 55.9265 181.117 52.6894C181.072 51.0737 181.627 49.2391 182.811 48.1954C184.197 47.1461 186.003 46.6914 187.826 46.8427C189.852 46.9883 191.871 46.9319 193.678 46.4772C194.676 46.0451 195.467 45.4166 196.253 44.5862C196.836 43.7614 197.212 42.7403 197.386 41.7248C197.531 39.6995 197.475 37.6799 197.216 35.6658C196.964 33.8538 197.109 31.8285 197.872 30.1902C198.988 26.7229 201.338 24.0297 204.525 22.3238C207.52 21.0274 210.735 20.3313 213.978 20.645C216.811 20.7681 219.835 20.4815 222.64 19.5947C226.645 18.2702 230.207 15.5431 232.333 12.0477C233.107 10.8133 233.876 9.37701 234.234 7.75C233.668 9.18068 232.9 10.617 232.125 11.8514C229.798 15.3525 226.432 17.8719 222.426 19.1965C219.616 19.8813 216.794 20.1622 213.961 20.0391C210.516 19.731 207.301 20.4272 204.104 21.7292C200.715 23.4407 198.174 26.5435 197.059 30.0108C196.503 31.8454 196.156 33.8763 196.414 35.8904C196.673 37.9044 196.723 39.7221 196.578 41.7474C196.426 43.5707 195.26 45.2203 193.465 46.0789C191.658 46.5336 189.84 46.5843 187.815 46.4388C185.79 46.2932 183.781 46.7535 182.401 48.0047C181.027 49.458 180.27 51.2982 180.321 53.1159C180.372 54.9336 180.619 56.5437 181.27 58.1425C181.921 59.7414 182.566 61.1382 183.009 62.5407C183.453 63.9432 183.694 65.3513 183.734 66.7651C183.773 68.1789 183.403 69.4019 182.629 70.6363C181.474 72.6898 179.286 73.9636 177.064 74.0256C176.054 74.0538 175.235 73.6724 174.416 73.291C173.799 72.904 173.176 72.315 172.75 71.5184C172.115 70.5255 172.082 69.3137 172.255 68.2982C172.631 67.2771 172.822 66.8675 173.018 66.6599Z" fill="#263238"/>
<path d="M314.714 81.3025C314.95 82.5086 314.984 83.7204 314.412 84.9491C313.84 86.1778 312.858 87.2159 311.456 87.6593C309.649 88.114 307.815 87.5588 306.558 85.9769C305.929 85.1859 305.497 84.1874 305.469 83.1775C305.435 81.9657 305.609 80.9503 306.181 79.7215C306.927 77.4774 308.677 75.003 308.592 71.9735C308.508 68.944 307.211 65.9483 304.933 63.9907C303.693 63.0147 302.252 62.0443 300.821 61.4779C299.188 60.9171 297.769 60.7546 296.147 60.5977C294.526 60.4409 293.107 60.2783 291.48 59.9195C290.055 59.555 288.82 58.781 287.973 57.3898C287.131 56.2005 286.89 54.7924 286.85 53.3786C286.811 51.9649 286.973 50.5455 287.343 49.3224C288.286 46.8706 288.818 44.2281 288.941 41.3949C288.874 38.9713 288.206 36.7666 286.736 34.7864C285.681 33.1989 284.227 31.8246 282.583 30.8598C281.349 30.0858 280.317 29.3061 279.279 28.3245C278.448 27.5391 277.612 26.5519 277.174 25.3513L277.18 25.5533C277.186 25.7553 277.393 25.9516 277.399 26.1536C277.825 26.9502 278.252 27.7467 279.077 28.3301C280.115 29.3117 281.153 30.2934 282.387 31.0674C284.031 32.0322 285.282 33.4121 286.337 34.9997C287.6 36.7835 288.273 39.1902 288.335 41.4119C288.207 44.0431 287.472 46.6912 286.732 49.1373C286.367 50.5624 286.205 51.9818 286.042 53.4012C286.088 55.0169 286.531 56.4194 287.176 57.8163C288.226 59.2019 289.466 60.1779 291.093 60.5367C292.72 60.8955 294.347 61.2543 295.962 61.2092C297.584 61.3661 299.003 61.5286 300.636 62.0894C302.066 62.6558 303.301 63.4299 304.541 64.4059C306.617 66.3692 307.902 68.9609 307.981 71.7885C308.06 74.616 306.708 76.8771 305.76 79.1269C305.39 80.35 305.02 81.5731 305.054 82.7849C305.088 83.9967 305.525 85.1972 306.154 85.9882C307.411 87.5701 309.649 88.114 311.658 87.6536C314.059 86.7781 315.405 84.315 314.933 81.9027C315.135 81.8971 314.922 81.4988 314.714 81.3025Z" fill="#263238"/>
<path d="M197.709 154.702L211.287 286.31L260.123 283.531L297.903 290.158L284.01 147.239L263.176 124.981L250.007 152.837L221.66 122.097L197.709 154.702Z" fill="white"/>
<path d="M220.711 109.796L210.653 118.768L168.203 133.091L186.979 248.182L175.811 304.28L163.947 357.164C163.947 357.164 203.63 366.769 213.766 360.624C223.903 354.479 234.633 297.181 237.891 283.548C241.149 269.914 245.884 229.559 242.655 208.022C239.426 186.485 234.104 155.102 231.375 144.264C228.647 133.425 220.711 109.796 220.711 109.796Z" fill="#72D2F6"/>
<path d="M168.203 133.093C168.203 133.093 158.274 146.71 155.808 159.715C151.569 181.663 134.242 241.571 135.641 255.478C137.04 269.386 211.462 292.574 211.462 292.574L213.409 253.712L178.573 236.695L187.045 199.874" fill="#72D2F6"/>
<path d="M187.045 199.873C187.05 200.075 187.056 200.277 186.86 200.485C186.871 200.889 186.686 201.5 186.506 202.314C186.148 203.941 185.609 206.381 184.892 209.635C183.451 215.941 181.483 225.092 178.775 236.688L178.561 236.29L213.397 253.307L213.605 253.503L213.611 253.705C213.13 265.442 212.486 278.598 211.664 292.567L211.681 293.173L211.069 292.988C196.588 288.339 180.874 282.916 164.917 276.085C159.8 273.803 154.684 271.52 149.757 268.828C144.831 266.136 140.107 263.438 136.55 259.09C136.129 258.496 135.708 257.901 135.489 257.301C135.276 256.902 135.27 256.7 135.057 256.302C134.844 255.904 134.838 255.702 134.827 255.298C134.787 253.884 134.753 252.672 134.916 251.253C135.045 248.622 135.577 245.979 135.914 243.544C136.782 238.467 137.657 233.592 138.733 228.711C143.045 209.388 147.419 192.288 151.058 177.836C152.88 170.71 154.31 164 155.566 158.306C156.844 153.419 158.734 148.718 161.034 144.207C162.571 141.334 164.113 138.663 165.857 135.987C166.441 135.162 167.024 134.337 167.215 133.928C167.411 133.72 167.607 133.513 167.804 133.305C167.804 133.305 167.607 133.513 167.422 134.124L166.065 136.183C164.904 138.035 163.165 140.913 161.449 144.599C159.149 149.11 157.259 153.812 155.981 158.698C154.725 164.393 153.295 171.103 151.473 178.228C148.036 192.675 143.46 209.781 139.351 229.098C138.274 233.979 137.4 238.854 136.531 243.931C136.2 246.568 135.864 249.003 135.735 251.634C135.567 252.852 135.606 254.266 135.64 255.477C135.674 256.689 136.314 257.884 137.15 258.871C140.494 262.82 145.426 265.715 150.15 268.412C154.874 271.11 159.991 273.393 165.31 275.67C181.064 282.507 196.779 287.93 211.26 292.579L210.665 292.999C211.286 279.036 211.929 265.879 212.612 254.137L212.825 254.536L178.186 237.311L177.984 237.317L177.961 236.509L184.28 209.45C185.003 206.398 185.542 203.958 186.102 202.325L186.658 200.49C186.854 200.283 187.05 200.075 187.045 199.873Z" fill="#263238"/>
<path d="M261.583 111.285L267.239 118.404L298.265 129.261C298.265 129.261 301.478 157.469 301.72 166.153C301.963 174.838 301.005 270.874 301.129 275.317C301.253 279.76 320.336 340.673 318.828 344.556C317.319 348.438 299.417 351.565 299.417 351.565C299.417 351.565 291.068 298.64 290.566 280.665C290.064 262.69 288.016 218.28 283.772 196.569C279.527 174.858 261.63 127.454 261.63 127.454L261.583 111.285Z" fill="#72D2F6"/>
<path d="M298.263 129.258C298.263 129.258 306.645 132.663 307.978 151.423C309.31 170.183 312.126 213.157 312.126 213.157C312.126 213.157 317.575 220.08 318.35 226.122C319.125 232.164 329.98 266.222 329.98 266.222L307.77 274.32L301.822 263.976L294.049 159.29L298.263 129.258Z" fill="#72D2F6"/>
<path d="M291.649 290.536C291.644 290.334 291.644 290.334 291.638 290.132L291.604 288.921C291.57 287.709 291.52 285.891 291.463 283.871C291.339 279.428 291.361 272.96 291.349 265.279C291.313 249.515 291.315 227.887 291.048 203.842C290.964 200.812 290.879 197.783 290.8 194.955C290.721 192.128 290.441 189.306 289.958 186.49C289.396 180.846 288.84 175.404 288.093 170.372C287.346 165.339 286.599 160.307 285.869 155.881C284.943 151.662 283.618 147.657 282.092 143.657C279.707 137.862 276.929 132.482 273.747 127.113C272.687 125.324 271.834 123.731 271.2 122.738L270.56 121.543C270.352 121.346 270.347 121.145 270.347 121.145C270.549 121.139 270.554 121.341 270.56 121.543L271.402 122.732C272.036 123.725 272.883 125.116 274.151 127.102C277.333 132.471 280.313 137.845 282.9 143.634C284.628 147.628 285.953 151.634 286.879 155.853C287.817 160.475 288.558 165.306 289.31 170.54C290.063 175.774 290.619 181.216 291.181 186.86C291.462 189.682 291.945 192.498 292.029 195.527C292.114 198.557 292.193 201.384 292.277 204.414C292.544 228.459 292.34 250.092 292.375 265.857C292.393 273.739 292.164 280.011 292.086 284.46C291.946 286.688 291.991 288.303 292.025 289.515C292.042 290.121 292.053 290.525 292.059 290.727C291.644 290.334 291.644 290.334 291.649 290.536Z" fill="#263238"/>
<path d="M242.077 252.506C241.864 252.107 241.847 251.501 241.836 251.097C241.808 250.088 241.572 248.881 241.521 247.064C241.218 243.434 240.875 238.39 240.902 232.124C240.812 228.892 240.918 225.453 241.018 221.812C240.911 217.975 240.395 213.947 239.48 210.132C237.218 201.504 234.35 192.893 230.887 184.702C227.407 175.906 223.737 167.519 220.291 159.934C218.574 156.344 217.059 152.748 215.746 149.147C214.634 145.539 213.933 142.123 213.242 139.11C212.058 132.878 211.311 127.845 210.805 124.221C210.553 122.409 210.311 121.001 210.289 120.193C210.277 119.789 210.261 119.183 210.249 118.779C210.462 119.178 210.479 119.783 210.491 120.187C210.721 121.192 210.962 122.6 211.209 124.21C211.911 127.626 212.658 132.659 214.044 138.886C214.735 141.898 215.437 145.315 216.542 148.72C217.856 152.322 219.371 155.918 221.088 159.508C224.534 167.092 228.198 175.277 231.684 184.276C234.95 192.674 237.812 201.083 240.08 209.913C240.995 213.728 241.512 217.756 241.624 221.795C241.524 225.436 241.418 228.875 241.508 232.107C241.481 238.374 241.829 243.619 241.925 247.052C241.97 248.668 242.01 250.082 242.24 251.086C242.47 252.09 242.077 252.506 242.077 252.506Z" fill="#263238"/>
<path d="M349.843 246.465L330.02 274.911C329.246 276.145 327.85 276.791 326.425 276.426L237.091 262.144C235.06 261.796 233.59 259.816 233.938 257.785C233.932 257.583 233.932 257.583 234.128 257.375L243 227.618C243.555 225.783 245.344 224.722 247.168 224.874L347.458 240.669C349.489 241.017 350.953 242.795 350.611 245.028C350.219 245.443 350.034 246.055 349.843 246.465Z" fill="#263238"/>
<path d="M158.041 239.692C158.821 238.66 159.808 237.824 161.003 237.184C166.366 233.801 173.233 233.609 178.973 236.48C180.196 236.851 181.228 237.63 182.064 238.618C182.07 238.82 180.83 237.844 178.58 236.896C175.921 235.757 172.874 235.236 169.845 235.32C166.815 235.405 164.01 236.292 161.217 237.583C159.231 238.851 158.041 239.692 158.041 239.692Z" fill="#263238"/>
<g opacity="0.3">
<path d="M178.476 291.069L216.015 303.563L219.245 288.92L235.902 291.891L237.887 283.346L211.731 280.438L211.868 292.562L180.438 281.716L178.476 291.069Z" fill="black"/>
</g>
<path d="M213.291 256.747C213.291 256.747 220.197 250.693 222.177 249.223C224.157 247.753 231.494 242.697 234.945 243.207L238.193 243.723L235.412 252.694C235.412 252.694 262.161 247.905 265.92 252.246C269.679 256.588 262.027 257.61 257.999 258.127C253.971 258.644 241.107 261.226 241.107 261.226C241.107 261.226 274.532 256.655 277.057 260.223C279.582 263.79 273.95 264.756 273.95 264.756L251.982 274.263L249.384 275.346L246.849 278.651C246.849 278.651 237.935 285.165 235.085 284.436C232.235 283.707 212.127 280.226 212.127 280.226L213.291 256.747Z" fill="#FFBF9D"/>
<path d="M236.948 271.448C238.546 270.797 240.347 270.141 242.154 269.686C246.367 268.558 250.585 267.632 255.012 266.902C260.038 265.953 264.678 265.621 268.106 265.323C269.918 265.071 271.736 265.02 273.559 265.171C271.752 265.626 269.94 265.879 268.123 265.929C264.897 266.221 260.269 266.957 255.236 267.704C250.204 268.451 245.587 269.59 242.372 270.286C240.566 270.741 238.76 271.196 236.948 271.448Z" fill="#FF9A6C"/>
<path d="M240.157 277.824C241.549 276.976 243.147 276.325 244.954 275.871C246.553 275.22 248.163 274.973 249.98 274.922C248.589 275.769 246.99 276.42 245.184 276.875C243.787 277.52 241.975 277.773 240.157 277.824Z" fill="#FF9A6C"/>
<path d="M321.882 236.736C321.882 236.736 325.791 231.978 328.821 231.893C331.648 231.814 333.713 233.374 333.769 235.393L333.854 238.423L321.882 236.736Z" fill="#FFBF9D"/>
<path d="M300.747 153.041C300.96 153.44 300.972 153.844 300.983 154.247L301.286 157.877C301.573 160.901 301.899 165.339 302.259 170.988C302.771 182.091 302.79 197.249 302.052 214.249C301.313 231.248 300.928 246.418 301.031 257.329C300.981 262.788 301.105 267.231 301.195 270.463L301.291 273.896C301.302 274.3 301.314 274.704 301.325 275.108C301.314 274.704 301.1 274.306 301.089 273.902C301.061 272.892 301.033 271.882 300.786 270.272C300.499 267.248 300.369 262.603 300.217 257.15C299.907 246.042 300.292 230.872 301.03 213.873C301.769 196.874 301.952 181.709 301.445 170.809C301.293 165.356 301.163 160.71 300.877 157.687C300.837 156.273 300.804 155.061 300.775 154.051C300.966 153.642 300.753 153.243 300.747 153.041Z" fill="#263238"/>
<path d="M189.563 195.964C189.339 195.162 189.316 194.354 189.294 193.546C189.249 191.931 188.985 189.715 188.704 186.893C187.889 179.437 186.475 172.2 184.46 165.182C182.243 158.169 179.622 151.168 176.204 144.593C174.919 142.002 173.853 140.01 173.005 138.619C172.585 138.024 172.158 137.228 171.934 136.426C172.556 137.015 172.977 137.609 173.404 138.406C174.251 139.797 175.514 141.581 177.001 144.167C180.62 150.736 183.437 157.53 185.66 164.744C187.883 171.958 189.096 179.201 189.708 186.663C189.787 189.49 189.855 191.914 189.9 193.529C189.715 194.141 189.743 195.151 189.563 195.964Z" fill="#263238"/>
<path d="M346.337 251.211C346.337 251.211 349.479 255.165 348.559 258.425C347.64 261.685 340.128 267.756 340.128 267.756C340.128 267.756 337.397 271.268 335.983 271.308C334.569 271.347 328.342 272.734 328.639 268.885C328.936 265.036 334.574 264.273 334.574 264.273C334.574 264.273 334.736 262.853 337.115 261.17L342.057 257.192L346.337 251.211Z" fill="#FFBF9D"/>
<path d="M341.509 266.508C341.509 266.508 341.324 267.12 340.326 267.552C339.131 268.192 337.723 268.433 336.5 268.063C335.888 267.878 335.265 267.289 334.642 266.7C334.222 266.106 334.003 265.505 333.986 264.899C333.958 263.89 334.547 263.267 334.552 263.469C334.558 263.671 334.569 264.075 334.592 264.882C334.822 265.887 335.45 266.678 336.471 267.053C337.492 267.429 338.704 267.395 339.703 266.963C340.909 266.727 341.307 266.514 341.509 266.508Z" fill="#FF9A6C"/>
<path d="M301.716 231.237C302.562 225.352 305.44 219.814 309.568 215.657C309.776 215.853 307.437 218.95 305.132 223.259C302.826 227.568 301.918 231.232 301.716 231.237Z" fill="#263238"/>
</svg>
