<svg width="24" height="24" viewBox="0 0 24 24" fill="none" xmlns="http://www.w3.org/2000/svg">
<path d="M13.208 4.073C13.1289 4.01016 13.0248 3.98613 12.9253 4.0078L4.2587 5.96399C4.10617 5.99829 3.99855 6.13174 4.00001 6.28481V17.3699C4.00008 17.5308 4.12011 17.6676 4.28267 17.692L12.9493 18.9962C13.1313 19.0235 13.3015 18.9014 13.3294 18.7235C13.332 18.7071 13.3333 18.6906 13.3333 18.6741V4.32862C13.3336 4.22919 13.2875 4.13508 13.208 4.073Z" fill="#1565C0"/>
<path d="M19.6665 17.6959H12.9998C12.8158 17.6959 12.6665 17.5499 12.6665 17.3698C12.6665 17.1898 12.8158 17.0438 12.9998 17.0438H19.3332V5.95873H12.9998C12.8158 5.95873 12.6665 5.81275 12.6665 5.63269C12.6665 5.45263 12.8158 5.30668 12.9998 5.30668H19.6665C19.8506 5.30668 19.9998 5.45266 19.9998 5.63272V17.3699C19.9998 17.5499 19.8506 17.6959 19.6665 17.6959Z" fill="#1565C0"/>
<path d="M9.66654 14.4357C9.518 14.4355 9.38754 14.3392 9.34654 14.1996L8.33319 10.7319L7.31985 14.1996C7.24666 14.3726 7.04391 14.4549 6.86698 14.3833C6.78191 14.3489 6.71435 14.2828 6.67916 14.1996L5.34585 9.63517C5.29004 9.46358 5.38704 9.28025 5.56248 9.22566C5.73791 9.17107 5.92535 9.26594 5.98116 9.43754C5.98313 9.44359 5.98491 9.4497 5.98654 9.45585L6.99985 12.9229L8.01319 9.4552C8.08638 9.28217 8.28913 9.19992 8.46607 9.27151C8.55113 9.30592 8.61869 9.372 8.65388 9.4552L9.66654 12.9229L10.6799 9.45588C10.7278 9.28428 10.909 9.1832 11.0844 9.23012C11.0869 9.23079 11.0894 9.2315 11.0919 9.2322C11.2688 9.28178 11.3711 9.46214 11.3205 9.63517L9.98719 14.1996C9.94613 14.3395 9.81529 14.4358 9.66654 14.4357Z" fill="#FAFAFA"/>
<path d="M18.3332 7.91496H12.9998C12.8158 7.91496 12.6665 7.76897 12.6665 7.58891C12.6665 7.40885 12.8158 7.26287 12.9998 7.26287H18.3332C18.5173 7.26287 18.6665 7.40885 18.6665 7.58891C18.6665 7.769 18.5173 7.91496 18.3332 7.91496Z" fill="#1565C0"/>
<path d="M18.3332 9.8712H12.9998C12.8158 9.8712 12.6665 9.72522 12.6665 9.54516C12.6665 9.3651 12.8158 9.21912 12.9998 9.21912H18.3332C18.5173 9.21912 18.6665 9.3651 18.6665 9.54516C18.6665 9.72522 18.5173 9.8712 18.3332 9.8712Z" fill="#1565C0"/>
<path d="M18.3332 11.8274H12.9998C12.8158 11.8274 12.6665 11.6814 12.6665 11.5014C12.6665 11.3213 12.8158 11.1753 12.9998 11.1753H18.3332C18.5173 11.1753 18.6665 11.3213 18.6665 11.5014C18.6665 11.6814 18.5173 11.8274 18.3332 11.8274Z" fill="#1565C0"/>
<path d="M18.3332 13.7836H12.9998C12.8158 13.7836 12.6665 13.6376 12.6665 13.4575C12.6665 13.2775 12.8158 13.1315 12.9998 13.1315H18.3332C18.5173 13.1315 18.6665 13.2775 18.6665 13.4575C18.6665 13.6376 18.5173 13.7836 18.3332 13.7836Z" fill="#1565C0"/>
<path d="M18.3332 15.7398H12.9998C12.8158 15.7398 12.6665 15.5938 12.6665 15.4137C12.6665 15.2337 12.8158 15.0877 12.9998 15.0877H18.3332C18.5173 15.0877 18.6665 15.2337 18.6665 15.4137C18.6665 15.5938 18.5173 15.7398 18.3332 15.7398Z" fill="#1565C0"/>
</svg>
