<svg width="17" height="13" viewBox="0 0 17 13" fill="none" xmlns="http://www.w3.org/2000/svg">
<g clip-path="url(#clip0_80_483)">
<path d="M15.4692 12.158H14.3086H11.4583H7.83677H4.38914H2.0378H1.56148H1.53124H1.50099C1.49343 12.158 1.41783 12.158 1.41783 12.1503C1.41783 12.1465 1.52367 12.1695 1.44429 12.1542C1.39136 12.1426 1.33844 12.1311 1.28552 12.1119C1.2893 12.1119 1.23259 12.0965 1.23259 12.0927C1.2893 12.1196 1.29686 12.1196 1.25905 12.1003C1.24393 12.0927 1.22503 12.085 1.20991 12.0734C1.17211 12.0542 1.1343 12.0235 1.0965 12.0004C1.01712 11.9466 1.16455 12.0619 1.0965 11.9966C1.0776 11.9773 1.0587 11.962 1.0398 11.9389C1.02846 11.9274 1.01333 11.912 1.00199 11.9005C0.994433 11.8928 0.990653 11.8889 0.983092 11.8812C0.95285 11.8467 0.960411 11.8543 0.998214 11.9005C0.975532 11.8966 0.922608 11.7852 0.911267 11.7621C0.907486 11.7544 0.873464 11.6891 0.873464 11.6891C0.881024 11.7044 0.888585 11.7236 0.892365 11.739C0.884805 11.7236 0.881024 11.7044 0.873464 11.6852C0.858343 11.6429 0.847002 11.5968 0.839441 11.5507C0.835661 11.543 0.835661 11.5315 0.831881 11.5238C0.82432 11.4776 0.82432 11.4853 0.835661 11.5507C0.831881 11.5468 0.831881 11.4892 0.831881 11.4776V11.4354C0.82432 10.8818 0.831881 10.3245 0.831881 9.77096V6.28072V2.90579V1.8641V1.60656V1.55659C0.831881 1.52584 0.835661 1.49893 0.835661 1.46433C0.839441 1.36439 0.812979 1.56043 0.835661 1.46049C0.843221 1.43358 0.847002 1.40668 0.854562 1.37977C0.858343 1.36055 0.865903 1.34517 0.869684 1.32596C0.877244 1.31058 0.881024 1.29136 0.888585 1.27214C0.903706 1.22986 0.899926 1.23755 0.877244 1.2952C0.869684 1.28752 0.930168 1.18758 0.941509 1.1722C0.95663 1.14914 0.971752 1.12607 0.986873 1.10301C1.0398 1.02613 0.926388 1.1722 0.990653 1.10301C1.0209 1.06842 1.05114 1.03382 1.08516 1.00691C1.09272 0.999226 1.0965 0.995382 1.10406 0.987694C1.13808 0.956943 1.13052 0.964631 1.08516 1.00307C1.08516 0.991538 1.13808 0.964631 1.15321 0.956943C1.16833 0.949255 1.2893 0.868534 1.29686 0.880065C1.30064 0.883909 1.21369 0.910816 1.27418 0.891597C1.30064 0.883909 1.3271 0.872378 1.35356 0.86469C1.38002 0.857002 1.40649 0.849314 1.43295 0.84547C1.44051 0.841626 1.45185 0.841626 1.45941 0.837783C1.49721 0.830095 1.49721 0.830095 1.45941 0.837783C1.45185 0.841626 1.44051 0.841626 1.43295 0.841626C1.45185 0.837783 1.47075 0.837783 1.48965 0.837783C1.51233 0.833939 1.52367 0.833939 1.54636 0.833939H1.62574H2.22681H4.75205H8.26394H11.8363H14.5468H15.2915H15.4578H15.4843C15.5032 0.833939 15.5221 0.833939 15.541 0.837783C15.5524 0.837783 15.5599 0.841626 15.5713 0.841626C15.6166 0.84547 15.6091 0.84547 15.5448 0.837783C15.5486 0.833939 15.6204 0.853158 15.628 0.853158C15.6733 0.86469 15.7149 0.880065 15.7603 0.891597C15.851 0.922348 15.6809 0.849314 15.7641 0.891597C15.7867 0.903129 15.8132 0.918504 15.8359 0.930036C15.8586 0.945411 15.8812 0.956943 15.9039 0.972318C15.9115 0.976162 15.919 0.98385 15.9266 0.987694C15.9606 1.0146 15.9568 1.00691 15.9077 0.972318C15.9153 0.968474 16.0022 1.06073 16.006 1.06457C16.0098 1.06842 16.0627 1.12223 16.0589 1.12607C16.0551 1.12992 16.0098 1.05304 16.0438 1.10685C16.0778 1.16067 16.1118 1.21448 16.1421 1.27214C16.1799 1.34517 16.1307 1.24523 16.1345 1.24523C16.1421 1.24523 16.161 1.31827 16.161 1.32211C16.1761 1.36439 16.1837 1.41436 16.195 1.46049C16.2139 1.55659 16.1912 1.36439 16.195 1.46433C16.195 1.49509 16.1988 1.52199 16.1988 1.5489V1.55274V1.69881V2.56368V5.78486V9.37888V11.3931V11.4354C16.1988 11.4469 16.2026 11.5507 16.1912 11.5545C16.1988 11.5507 16.2063 11.4546 16.1912 11.543C16.1874 11.566 16.1799 11.5891 16.1761 11.6122C16.1685 11.6391 16.161 11.666 16.1534 11.6929C16.1496 11.7083 16.1118 11.7736 16.1459 11.7198C16.1837 11.6621 16.1383 11.7352 16.1345 11.7467C16.1232 11.7736 16.1081 11.7967 16.0967 11.8197C16.0816 11.8428 16.0665 11.8659 16.0514 11.8889C16.0173 11.9427 16.0665 11.8659 16.0665 11.8697C16.074 11.8812 15.9682 11.9773 15.9531 11.9889C15.9493 11.9927 15.9153 12.0235 15.9115 12.0235C15.9266 12.0119 15.9379 12.0043 15.9531 11.9927C15.9379 12.0043 15.9228 12.0119 15.9115 12.0235C15.8737 12.0504 15.8359 12.0734 15.7943 12.0927L15.7678 12.1042C15.7262 12.1234 15.7338 12.1196 15.7943 12.0965C15.7943 12.1042 15.7225 12.1234 15.7187 12.1234C15.6771 12.1388 15.628 12.1465 15.5826 12.158C15.4881 12.1772 15.6771 12.1542 15.5788 12.158C15.5259 12.1503 15.4994 12.158 15.4692 12.158C15.2537 12.1619 15.0458 12.3502 15.0571 12.577C15.0685 12.8038 15.2386 12.9998 15.4692 12.996C16.3198 12.9844 16.9964 12.2772 17.0002 11.4161V10.7742V7.74908V4.03973V1.69881V1.55659C16.9926 1.05304 16.762 0.603306 16.3689 0.299639C16.0589 0.0651629 15.696 -0.000183105 15.3255 -0.000183105H13.4467H10.1806H6.46074H3.29285H1.60684C1.56148 -0.000183105 1.51611 -0.000183105 1.47075 0.00366077C0.95285 0.0305679 0.468972 0.318859 0.204351 0.780124C0.0191168 1.10685 0.000215288 1.4528 0.000215288 1.81413V4.378V8.1104V10.9626C0.000215288 11.124 -0.00356501 11.2816 0.000215288 11.443C0.0115562 12.3002 0.69957 12.9921 1.54258 12.9998C2.00755 13.0037 2.47253 12.9998 2.93751 12.9998H5.9504H9.65131H13.0385H15.1705H15.4692C15.6847 12.9998 15.8926 12.8076 15.8812 12.5808C15.8737 12.3464 15.6998 12.158 15.4692 12.158Z" fill="#F47920"/>
<path d="M14.0206 2.98681C13.8316 3.1521 13.6426 3.31738 13.4574 3.48267C13.0151 3.8709 12.5728 4.25913 12.1305 4.64736C11.6088 5.10479 11.0871 5.56221 10.5654 6.01963C10.1496 6.38864 9.72998 6.75381 9.31037 7.12282C9.19696 7.22276 9.08355 7.3227 8.97014 7.42265C8.94368 7.44186 8.921 7.46493 8.89832 7.48415C8.89076 7.48799 8.88698 7.49568 8.88319 7.49952C8.85673 7.52259 8.82649 7.54565 8.80381 7.56871C8.78491 7.58793 8.89832 7.50721 8.82271 7.54949C8.78869 7.56871 8.75466 7.58793 8.72064 7.60715C8.68284 7.63021 8.73576 7.59946 8.74332 7.59946C8.7282 7.60331 8.71308 7.611 8.69418 7.61484C8.66016 7.62637 8.62613 7.63022 8.59589 7.64175C8.55053 7.65712 8.61479 7.64175 8.62235 7.6379C8.60723 7.64175 8.58455 7.64175 8.56943 7.64175C8.52029 7.64559 8.47492 7.6379 8.42956 7.6379C8.37664 7.63406 8.45602 7.64175 8.45602 7.64175C8.44846 7.64559 8.41444 7.63406 8.40688 7.63021C8.37285 7.62253 8.34261 7.611 8.31237 7.59946C8.27079 7.58793 8.32749 7.60715 8.33505 7.611C8.31993 7.60331 8.30481 7.59562 8.29347 7.59178C8.28213 7.58793 8.19896 7.53027 8.19518 7.53412C8.19896 7.53027 8.30859 7.63021 8.26323 7.58793C8.25189 7.5764 8.23676 7.56871 8.22542 7.55718C8.19518 7.53027 8.16494 7.50337 8.1347 7.47646C8.12714 7.46877 8.11957 7.46108 8.10823 7.4534C8.04019 7.39574 7.97214 7.33424 7.90032 7.27273C7.53741 6.95754 7.17828 6.64234 6.81537 6.3233C6.30125 5.87741 5.79091 5.42383 5.27679 4.97794C4.79669 4.55896 4.31281 4.13613 3.83272 3.7133C3.55676 3.48267 3.28835 3.24435 3.01995 3.01372C3.00861 3.00218 2.99349 2.99065 2.98215 2.97912C2.8196 2.8369 2.55498 2.8023 2.3962 2.97912C2.25255 3.13672 2.22231 3.42117 2.3962 3.57492C2.589 3.74405 2.78179 3.91318 2.97459 4.08231C3.42822 4.47823 3.88186 4.87415 4.3355 5.27392C4.86096 5.73518 5.38642 6.19645 5.91566 6.65387C6.32771 7.01519 6.73977 7.37652 7.15182 7.734C7.25389 7.82625 7.35974 7.91851 7.46558 8.00692C7.60167 8.12608 7.7302 8.25677 7.89276 8.33364C8.22542 8.49124 8.60723 8.53737 8.9588 8.40668C9.15916 8.3298 9.31793 8.21833 9.4767 8.07995C9.53719 8.02613 9.60145 7.96848 9.66572 7.91466C10.0248 7.59946 10.384 7.28427 10.7431 6.96907C11.261 6.51549 11.7751 6.06191 12.293 5.61218C12.7807 5.18551 13.2683 4.75499 13.756 4.32832C14.0282 4.09 14.3004 3.85168 14.5725 3.61336C14.5839 3.60183 14.599 3.5903 14.6103 3.57877C14.7729 3.4327 14.7691 3.13288 14.6103 2.98297C14.4289 2.82152 14.1945 2.82921 14.0206 2.98681Z" fill="#F47920"/>
<path d="M5.77991 5.95394C5.3981 6.34217 5.02007 6.7304 4.63826 7.12248C4.02963 7.74134 3.83684 7.94507 3.22821 8.56393C3.08834 8.70616 2.94847 8.85222 2.80482 8.99445C2.6536 9.1482 2.63848 9.43649 2.80482 9.59025C2.97115 9.744 3.22821 9.75554 3.39076 9.59025C3.77257 9.20202 4.1506 8.81379 4.53241 8.42171C5.14104 7.80285 5.33383 7.59912 5.94246 6.98026C6.08233 6.83803 6.2222 6.69196 6.36586 6.54974C6.51707 6.39598 6.53219 6.10769 6.36586 5.95394C6.2033 5.80018 5.94624 5.78865 5.77991 5.95394Z" fill="#F47920"/>
<path d="M14.1913 8.99857C13.8095 8.61034 13.4315 8.2221 13.0497 7.83003C12.441 7.21116 12.2482 7.00744 11.6396 6.38857C11.4997 6.24635 11.3599 6.10028 11.2162 5.95806C11.065 5.8043 10.7815 5.79277 10.6303 5.95806C10.4791 6.12719 10.4677 6.38857 10.6303 6.55386C11.0121 6.94209 11.3901 7.33032 11.7719 7.7224C12.3806 8.34126 12.5733 8.54499 13.182 9.16385C13.3219 9.30608 13.4617 9.45215 13.6054 9.59437C13.7566 9.74812 14.0401 9.75966 14.1913 9.59437C14.3425 9.42139 14.3539 9.16385 14.1913 8.99857Z" fill="#F47920"/>
</g>
<defs>
<clipPath id="clip0_80_483">
<rect width="17" height="13" fill="white"/>
</clipPath>
</defs>
</svg>
