<svg width="17" height="17" viewBox="0 0 17 17" fill="none" xmlns="http://www.w3.org/2000/svg">
<g clip-path="url(#clip0_80_491)">
<path d="M8.49923 2.31738C7.6465 2.31738 6.953 3.01088 6.953 3.86361C6.953 4.71634 7.6465 5.4098 8.49923 5.4098C9.35196 5.4098 10.0454 4.7163 10.0454 3.86361C10.0454 3.01092 9.35192 2.31738 8.49923 2.31738ZM8.49923 4.63709C8.07287 4.63709 7.72576 4.28998 7.72576 3.86361C7.72576 3.43725 8.07287 3.09013 8.49923 3.09013C8.9256 3.09013 9.27271 3.43725 9.27271 3.86361C9.27271 4.28998 8.9256 4.63709 8.49923 4.63709Z" fill="#F47920"/>
<path d="M16.6137 6.95479C16.8272 6.95479 17 6.78302 17 6.5695V5.02421C17 4.88802 16.9284 4.76164 16.811 4.6922L9.2531 0.203838C9.2497 0.201556 9.24629 0.199673 9.24292 0.197789C8.77317 -0.0625358 8.24342 -0.0704321 7.7465 0.203077L0.189041 4.6922C0.0716826 4.7616 0 4.88802 0 5.02421V6.5695C0 6.78302 0.172813 6.95479 0.386376 6.95479H1.54547V13.9097C0.693101 13.9097 0 14.6027 0 15.4549V16.6139C0 16.8275 0.172813 17.0003 0.386376 17.0003H16.6137C16.8272 17.0003 17 16.8275 17 16.6139V15.4549C17 14.6027 16.3069 13.9097 15.4546 13.9097V6.95479H16.6137ZM16.2273 15.4548V16.2275H0.772716V15.4548C0.772716 15.0288 1.11947 14.6821 1.54543 14.6821H1.93181H15.0682H15.4546C15.8805 14.6821 16.2273 15.0288 16.2273 15.4548ZM2.31818 13.9093V6.95479H3.86365V13.9093H2.31818ZM4.63637 13.9093V6.95479H6.95455V13.9093H4.63637ZM7.72727 13.9093V6.95479H9.27273V13.9093H7.72727ZM10.0454 13.9093V6.95479H12.3636V13.9093H10.0454ZM13.1364 13.9093V6.95479H14.6819V13.9093H13.1364ZM0.772716 6.18207V5.24295L8.12987 0.872199C8.3706 0.739773 8.6264 0.740135 8.86412 0.869555L16.2273 5.24295V6.18207H0.772716Z" fill="#F47920"/>
</g>
<defs>
<clipPath id="clip0_80_491">
<rect width="17" height="17" fill="white"/>
</clipPath>
</defs>
</svg>
