<svg width="11" height="18" viewBox="0 0 11 18" fill="none" xmlns="http://www.w3.org/2000/svg">
<g clip-path="url(#clip0_80_476)">
<path d="M9.71013 0H1.32083C0.59506 0 0 0.675 0 1.50107V16.5021C0 17.325 0.59506 18 1.32083 18H9.67918C10.4049 18 11 17.325 11 16.4989V1.50107C11.0344 0.675 10.4393 0 9.71013 0ZM0.660413 3.89893H10.3396V14.1364H0.660413V3.89893ZM1.32083 0.748929H9.67918C10.0438 0.748929 10.3396 1.08643 10.3396 1.49786V3.15H0.660413V1.50107C0.660413 1.08643 0.959663 0.748929 1.32083 0.748929ZM9.71013 17.2511H1.32083C0.956223 17.2511 0.660413 16.9136 0.660413 16.5021V14.85H10.3396V16.4989C10.374 16.9136 10.0747 17.2511 9.71013 17.2511Z" fill="#F47920"/>
<path d="M4.39176 2.32364H6.60346C6.80296 2.32364 6.93366 2.17256 6.93366 1.94756C6.93366 1.72256 6.80296 1.57471 6.6069 1.57471H4.3952C4.1957 1.57471 4.06499 1.72578 4.06499 1.95078C4.06155 2.17578 4.22666 2.32364 4.39176 2.32364Z" fill="#F47920"/>
<path d="M6.11276 15.75H4.95704C4.75754 15.75 4.62683 15.9011 4.62683 16.1261C4.62683 16.3511 4.75754 16.5021 4.95704 16.5021H6.11276C6.31226 16.5021 6.44297 16.3511 6.44297 16.1261C6.44297 15.9011 6.27786 15.75 6.11276 15.75Z" fill="#F47920"/>
</g>
<defs>
<clipPath id="clip0_80_476">
<rect width="11" height="18" fill="white"/>
</clipPath>
</defs>
</svg>
