<svg width="15" height="16" viewBox="0 0 15 16" fill="none" xmlns="http://www.w3.org/2000/svg">
<g clip-path="url(#clip0_80_564)">
<path d="M10.0223 16.0001C9.75006 15.8853 9.64756 15.6859 9.65397 15.4019C9.66678 14.6527 9.65717 13.9034 9.65717 13.1512C9.65717 13.0938 9.65717 13.0394 9.65717 12.9669C9.28561 12.9669 8.92687 12.9457 8.57133 12.9729C8.17415 13.0031 7.85064 12.6406 8.07485 12.2297C8.35993 11.701 8.61937 11.1633 8.88843 10.6285C8.91085 10.5832 8.93328 10.5349 8.9621 10.4684C8.80836 10.4684 8.67383 10.4684 8.5393 10.4684C8.20298 10.4654 8.00118 10.2811 8.00118 9.96688C8.00118 8.86719 7.98196 7.77051 8.00759 6.67081C8.03642 5.4412 8.645 4.51371 9.75326 3.87021C9.79811 3.84302 9.84615 3.81885 9.91021 3.78259C9.34007 3.24181 9.09343 2.59528 9.20874 1.84906C9.29202 1.29921 9.5803 0.839996 10.0383 0.489543C10.9576 -0.211364 12.2741 -0.147919 13.1165 0.622473C13.9301 1.3687 14.1511 2.76447 13.1133 3.76749C13.3663 3.94574 13.6386 4.10888 13.8692 4.3113C14.6251 4.9699 14.9999 5.79468 14.9999 6.76749C14.9999 7.82489 14.9999 8.88229 14.9999 9.93969C14.9999 10.2962 14.8077 10.4714 14.4265 10.4714C14.2568 10.4714 14.087 10.4714 13.898 10.4714C13.9333 10.5379 13.9589 10.5892 13.9877 10.6376C14.292 11.1602 14.5835 11.692 14.907 12.2086C15.1504 12.5953 14.8686 13.0092 14.4265 12.979C14.0742 12.9548 13.7219 12.9729 13.3439 12.9729C13.3439 13.0424 13.3439 13.1028 13.3439 13.1633C13.3439 13.9125 13.3375 14.6617 13.3471 15.414C13.3503 15.698 13.251 15.8974 12.9692 16.0062C11.9858 16.0001 11.0057 16.0001 10.0223 16.0001ZM14.0005 9.53184C14.0005 9.47142 14.0005 9.43214 14.0005 9.38984C14.0005 8.48954 14.0005 7.58924 13.9973 6.68592C13.9973 6.5832 13.9845 6.47746 13.9685 6.37474C13.7699 5.03335 12.3574 4.11794 10.9576 4.42308C9.79811 4.67685 9.00054 5.61341 8.99413 6.73123C8.99093 7.61643 8.99413 8.50163 8.99413 9.38682C8.99413 9.43214 9.00054 9.47746 9.00374 9.52882C9.23757 9.52882 9.45858 9.54694 9.67639 9.5258C10.0768 9.4835 10.4035 9.85208 10.1761 10.2781C9.8942 10.8007 9.63475 11.3355 9.36889 11.8672C9.34327 11.9155 9.32405 11.9669 9.30163 12.0182C10.7558 12.0182 12.194 12.0182 13.6482 12.0182C13.6098 11.9488 13.5809 11.8944 13.5489 11.84C13.2414 11.3113 12.9307 10.7856 12.6264 10.2539C12.4182 9.89135 12.6488 9.53184 13.0845 9.53184C13.3791 9.53184 13.677 9.53184 14.0005 9.53184ZM10.1825 2.17232C10.1793 2.87021 10.7654 3.42912 11.4989 3.42912C12.2196 3.4261 12.8058 2.87625 12.809 2.19951C12.8122 1.51069 12.2324 0.951778 11.5085 0.942715C10.7879 0.93063 10.1857 1.48954 10.1825 2.17232ZM12.3317 15.0575C12.3317 14.3536 12.3317 13.6648 12.3317 12.9759C11.768 12.9759 11.2171 12.9759 10.6629 12.9759C10.6629 13.6738 10.6629 14.3627 10.6629 15.0575C11.2203 15.0575 11.7712 15.0575 12.3317 15.0575Z" fill="#F47920"/>
<path d="M1.70418 15.9999C1.42231 15.8911 1.32622 15.6917 1.32942 15.4077C1.33903 14.2476 1.33262 13.0845 1.33262 11.9243C1.33262 11.8639 1.33262 11.8005 1.33262 11.7189C1.06036 11.7189 0.804116 11.7189 0.54787 11.7189C0.211547 11.7189 0.00975324 11.5376 0.00975324 11.2174C0.00975324 9.67056 -0.0158714 8.12374 0.0257686 6.57691C0.0577994 5.38356 0.688805 4.4893 1.76183 3.86996C1.80668 3.84277 1.85472 3.8186 1.91558 3.78235C1.34223 3.22948 1.08919 2.57993 1.21731 1.8186C1.3102 1.27479 1.59848 0.824643 2.05331 0.477211C2.96939 -0.220675 4.31148 -0.145146 5.14428 0.640352C5.97067 1.41981 6.12442 2.80349 5.10584 3.76724C5.31725 3.90621 5.53826 4.0331 5.73365 4.18718C6.56004 4.84579 6.99566 5.68869 7.00206 6.70984C7.01167 8.20833 7.00527 9.70984 7.00527 11.2083C7.00527 11.5225 6.80347 11.7129 6.47035 11.7129C6.21091 11.7129 5.95466 11.7129 5.67599 11.7129C5.67599 11.7884 5.67599 11.8488 5.67599 11.9092C5.67599 13.0603 5.66959 14.2113 5.67919 15.3624C5.6824 15.6524 5.59591 15.8669 5.31404 15.9968C4.11289 15.9999 2.90854 15.9999 1.70418 15.9999ZM3.00463 4.42283C2.92455 4.44096 2.86369 4.45002 2.80604 4.46513C1.74582 4.75818 1.01552 5.6615 1.00911 6.7038C1.00271 8.02102 1.00591 9.33824 1.00911 10.6555C1.00911 10.6947 1.01552 10.734 1.02192 10.7823C1.26536 10.7823 1.49598 10.7823 1.7266 10.7823C2.1462 10.7823 2.33198 10.9576 2.33519 11.3503C2.33519 12.5255 2.33519 13.7038 2.33519 14.879C2.33519 14.9394 2.33519 14.9968 2.33519 15.0573C3.12955 15.0573 3.89508 15.0573 4.67984 15.0573C4.67984 14.9908 4.67984 14.9274 4.67984 14.8669C4.67984 13.6917 4.67984 12.5135 4.67984 11.3382C4.67984 10.9576 4.86241 10.7854 5.2628 10.7823C5.50943 10.7823 5.75607 10.7823 5.9995 10.7823C6.00591 10.7491 6.01231 10.734 6.01231 10.7189C6.01231 9.35939 6.04435 7.99987 5.9995 6.64337C5.96747 5.65848 5.41334 4.95455 4.45562 4.54972C4.32109 4.49232 4.17055 4.4621 4.00399 4.41377C4.00399 4.81256 4.00399 5.17812 4.00399 5.54065C4.00399 5.74911 4.01039 5.95757 4.00078 6.16603C3.98477 6.45606 3.76376 6.64337 3.46907 6.62827C3.19361 6.61316 3.00142 6.40772 2.99822 6.12072C3.00142 5.56482 3.00463 5.00893 3.00463 4.42283ZM2.18784 2.18416C2.18784 2.86996 2.7676 3.41981 3.4979 3.42585C4.21539 3.43189 4.81757 2.86996 4.82077 2.19322C4.82397 1.50742 4.225 0.939446 3.5011 0.939446C2.77721 0.939446 2.19105 1.49836 2.18784 2.18416Z" fill="#F47920"/>
<path d="M11.5183 5.30513C11.7873 5.31419 12.0083 5.53171 12.0019 5.78247C11.9923 6.03927 11.7489 6.25679 11.483 6.24471C11.214 6.23262 10.9962 6.0151 11.0026 5.76132C11.0058 5.5015 11.2396 5.29607 11.5183 5.30513Z" fill="#F47920"/>
</g>
<defs>
<clipPath id="clip0_80_564">
<rect width="15" height="16" fill="white"/>
</clipPath>
</defs>
</svg>
