<svg width="13" height="18" viewBox="0 0 13 18" fill="none" xmlns="http://www.w3.org/2000/svg">
<path d="M6.43015 8.06946C7.47042 8.06854 8.31276 7.22438 8.31174 6.18423C8.31082 5.14407 7.46666 4.30162 6.42639 4.30264C5.38635 4.30367 4.5439 5.14772 4.54492 6.18787C4.54823 7.22712 5.39091 8.06809 6.43015 8.06946ZM6.43015 5.03194C7.06851 5.03194 7.58609 5.5494 7.58609 6.18787C7.58609 6.82623 7.06851 7.34381 6.43015 7.34381C5.79168 7.34381 5.27422 6.82623 5.27422 6.18787C5.27433 5.54951 5.7919 5.03205 6.43015 5.03194Z" fill="#F47920"/>
<path d="M3.89883 12.1277H8.96003C9.16138 12.1272 9.32411 11.9643 9.32468 11.763C9.32468 10.9389 9.02578 10.1805 8.47881 9.62255C7.93776 9.07421 7.19969 8.76562 6.42948 8.76562C5.65928 8.76562 4.92121 9.07421 4.38016 9.62255C3.83319 10.1805 3.53418 10.9389 3.53418 11.763C3.53475 11.9643 3.69759 12.1272 3.89883 12.1277ZM4.90161 10.1331C5.30523 9.72476 5.85539 9.49492 6.42948 9.49492C7.00346 9.49492 7.55374 9.72476 7.95725 10.1331C8.29192 10.4783 8.50672 10.9218 8.56997 11.3984H4.289C4.35145 10.9216 4.56636 10.4776 4.90161 10.1331Z" fill="#F47920"/>
<path d="M11.1944 1.2398H7.94444V0.364648C7.94388 0.163522 7.78251 0.000569761 7.58333 0H5.41667C5.21749 0.000569761 5.05612 0.163522 5.05556 0.364648V1.2398H1.80556C0.80855 1.24026 0.000451389 2.05627 0 3.06304V15.6069C0.000451389 16.6137 0.80855 17.4297 1.80556 17.4302H11.1944C12.1914 17.4297 12.9995 16.6137 13 15.6069V3.06304C12.9995 2.05627 12.1914 1.24026 11.1944 1.2398ZM5.77778 0.729296H7.22222V2.18789H5.77778V0.729296ZM12.2778 15.6069C12.2761 16.2103 11.792 16.6992 11.1944 16.7009H1.80556C1.20803 16.6992 0.723915 16.2103 0.722222 15.6069V3.06304C0.723915 2.45966 1.20803 1.97081 1.80556 1.9691H5.05556V2.55254C5.05612 2.75366 5.21749 2.91661 5.41667 2.91718H7.58333C7.78251 2.91661 7.94388 2.75366 7.94444 2.55254V1.9691H11.1944C11.792 1.97081 12.2761 2.45966 12.2778 3.06304V15.6069Z" fill="#F47920"/>
<path d="M10.375 14.7313H2.48403C2.28268 14.7313 2.11938 14.8945 2.11938 15.096C2.11938 15.2974 2.28268 15.4606 2.48403 15.4606H10.3787C10.5801 15.4596 10.7425 15.2955 10.7415 15.0942C10.7405 14.8927 10.5764 14.7303 10.375 14.7313Z" fill="#F47920"/>
<path d="M4.30801 13.127C4.10665 13.127 3.94336 13.2901 3.94336 13.4916C3.94336 13.6931 4.10665 13.8562 4.30801 13.8562H8.55616C8.75762 13.8562 8.9208 13.6931 8.9208 13.4916C8.9208 13.2901 8.75762 13.127 8.55616 13.127H4.30801Z" fill="#F47920"/>
</svg>
