<svg width="13" height="17" viewBox="0 0 13 17" fill="none" xmlns="http://www.w3.org/2000/svg">
<path d="M12.8287 3.46621L9.5084 0.145895C9.415 0.0524941 9.28833 0 9.15625 0H1.85156C0.844611 0 0.0253906 0.819221 0.0253906 1.82617V15.1738C0.0253906 16.1808 0.844611 17 1.85156 17H11.1484C12.1554 17 12.9746 16.1808 12.9746 15.1738V3.81836C12.9746 3.68628 12.9221 3.55961 12.8287 3.46621ZM9.6543 1.70043L11.2742 3.32031H9.6543V1.70043ZM11.1484 16.0039H1.85156C1.39386 16.0039 1.02148 15.6315 1.02148 15.1738V1.82617C1.02148 1.36847 1.39386 0.996094 1.85156 0.996094H8.6582V3.81836C8.6582 4.09341 8.8812 4.31641 9.15625 4.31641H11.9785V15.1738C11.9785 15.6315 11.6061 16.0039 11.1484 16.0039Z" fill="#F47920"/>
<path d="M9.82031 6.70703C9.19095 6.70703 8.62513 6.35734 8.3437 5.79448L8.27361 5.65426C8.18924 5.48549 8.01679 5.37891 7.82812 5.37891H5.17188C4.98321 5.37891 4.81076 5.48549 4.72639 5.65423L4.6563 5.79441C4.37487 6.35734 3.80905 6.70703 3.17969 6.70703C2.90463 6.70703 2.68164 6.93002 2.68164 7.20508V10.0472C2.68164 11.1646 3.03422 12.2291 3.70124 13.1256C4.36826 14.0221 5.28659 14.6657 6.35689 14.9868C6.40358 15.0008 6.45179 15.0078 6.5 15.0078C6.54821 15.0078 6.59642 15.0008 6.64311 14.9868C7.71341 14.6657 8.63174 14.0221 9.29876 13.1256C9.96578 12.2291 10.3184 11.1646 10.3184 10.0472V7.20508C10.3184 6.93002 10.0954 6.70703 9.82031 6.70703ZM9.32227 10.0472C9.32227 11.8486 8.19432 13.4135 6.5 13.987C4.80568 13.4135 3.67773 11.8486 3.67773 10.0472V7.65671C4.43148 7.51443 5.08678 7.05241 5.47485 6.37497H7.52515C7.91322 7.05238 8.56852 7.51443 9.32227 7.65671V10.0472Z" fill="#F47920"/>
<path d="M7.55653 8.90204L6.03044 10.4281L5.44348 9.84116C5.24901 9.64666 4.93364 9.64666 4.73914 9.84116C4.54464 10.0357 4.54464 10.351 4.73914 10.5455L5.67826 11.4846C5.77551 11.5819 5.90298 11.6305 6.03041 11.6305C6.15784 11.6305 6.28534 11.5819 6.38256 11.4846L8.2608 9.60638C8.4553 9.41188 8.4553 9.09655 8.2608 8.90204C8.06636 8.70754 7.751 8.70754 7.55653 8.90204Z" fill="#F47920"/>
</svg>
