<svg width="16" height="16" viewBox="0 0 16 16" fill="none" xmlns="http://www.w3.org/2000/svg">
<path d="M12.4129 6.9755C12.4596 6.92893 12.5033 6.87986 12.5534 6.82628C11.4235 5.68256 10.3081 4.55387 9.18815 3.42017C9.15001 3.45472 9.12192 3.47775 9.09633 3.50329C6.89713 5.69859 4.69743 7.89338 2.50024 10.0907C2.41745 10.1733 2.34219 10.2714 2.29051 10.3756C1.54941 11.8608 0.807816 13.3456 0.0812735 14.8378C0.00751533 14.9895 -0.0170707 15.1943 0.0130346 15.3611C0.103853 15.8678 0.644746 16.1473 1.11138 15.9204C2.61715 15.1888 4.11539 14.4427 5.61364 13.6956C5.73356 13.636 5.83792 13.5368 5.93426 13.4407C8.09482 11.287 10.2539 9.13124 12.4129 6.9755Z" fill="#154D83"/>
<path d="M15.4039 3.96517C15.9272 3.39282 16.0988 2.68475 15.9287 1.92411C15.723 1.00123 15.1545 0.375788 14.2468 0.109889C13.3382 -0.156511 12.5268 0.0698284 11.8505 0.732823C11.3733 1.20103 10.9097 1.68325 10.4405 2.15997C10.4029 2.19852 10.3683 2.24009 10.3372 2.27514C11.4681 3.40483 12.591 4.52602 13.706 5.63919C14.277 5.08085 14.8695 4.54955 15.4039 3.96517Z" fill="#154D83"/>
<path d="M15.4218 14.4332C15.3155 14.4042 15.1991 14.4027 15.0877 14.4027C12.759 14.4012 10.4304 14.4012 8.10223 14.4017C8.03349 14.4017 7.96425 14.4017 7.89601 14.4077C7.52671 14.4417 7.22165 14.7547 7.19606 15.1238C7.16093 15.625 7.50614 15.9916 8.02947 15.9931C9.21864 15.9971 10.4083 15.9941 11.5975 15.9941V15.9936C12.7992 15.9936 14.0014 15.9971 15.2031 15.9916C15.6125 15.9901 15.9392 15.7041 15.9918 15.3271C16.049 14.9144 15.8157 14.5404 15.4218 14.4332Z" fill="#154D83"/>
</svg>
