<svg width="62" height="62" viewBox="0 0 62 62" fill="none" xmlns="http://www.w3.org/2000/svg">
<g clip-path="url(#clip0_635_5230)">
<path d="M38.1685 30.6449C42.2077 30.6449 46.5127 29.3339 46.5127 26.8891L46.5304 7.7558C46.5304 7.68494 46.5127 7.61407 46.495 7.56093C46.2824 5.24012 42.1014 4 38.1685 4C34.1292 4 29.8242 5.31099 29.8242 7.7558C29.8242 7.84438 29.8242 7.95068 29.8419 8.03926V10.8384C29.8242 10.8915 29.8242 10.9447 29.8242 10.9978C29.8242 11.0864 29.8242 11.175 29.8419 11.2459V14.0804C29.8242 14.1336 29.8242 14.169 29.8242 14.2222C29.8242 14.293 29.8242 14.3816 29.8419 14.4525V17.2339C29.8419 17.2693 29.8242 17.3048 29.8242 17.3402C29.8242 17.411 29.8242 17.4642 29.8419 17.5351V20.3342C29.8419 20.3519 29.8419 20.3873 29.8419 20.4051C29.8419 20.4405 29.8419 20.4936 29.8419 20.5291V23.4876C29.8419 23.5054 29.8419 23.5054 29.8419 23.5231C29.8419 23.5408 29.8419 23.5762 29.8419 23.5939V26.8891C29.8242 29.3162 34.1292 30.6449 38.1685 30.6449ZM45.0954 10.8384C45.0777 10.8915 45.0777 10.9447 45.0777 10.9978C45.0777 11.9368 42.3849 13.3186 38.1685 13.3186C34.1469 13.3186 31.5072 12.0608 31.2769 11.1396V9.95259C32.8714 10.9801 35.5642 11.5293 38.1685 11.5293C40.7727 11.5293 43.501 10.9801 45.0954 9.93488V10.8384ZM38.1685 14.7359C40.7727 14.7359 43.4833 14.1867 45.0954 13.1415V14.0804C45.0777 14.1336 45.0777 14.169 45.0777 14.2222C45.0777 15.1611 42.3849 16.543 38.1685 16.543C34.1292 16.543 31.4718 15.2851 31.2769 14.3462V13.1769C32.8714 14.2044 35.5819 14.7359 38.1685 14.7359ZM38.1685 17.978C40.7727 17.978 43.4833 17.4288 45.0777 16.3835V17.2339C45.0777 17.2693 45.06 17.3048 45.06 17.3402C45.06 18.2791 42.3672 19.661 38.1508 19.661C34.0761 19.661 31.4364 18.3854 31.2592 17.4465V16.4012C32.8714 17.4288 35.5642 17.978 38.1685 17.978ZM38.1685 21.096C40.7727 21.096 43.4833 20.5468 45.0777 19.5015V20.3342C45.0777 20.3519 45.0777 20.3873 45.0777 20.4051C45.0777 21.344 42.3849 22.7259 38.1685 22.7259C34.0761 22.7259 31.4187 21.4326 31.2769 20.4936V19.5193C32.8714 20.5468 35.5642 21.096 38.1685 21.096ZM38.1685 24.1609C40.7727 24.1609 43.4833 23.6117 45.0777 22.5841V23.5054C45.0777 23.5231 45.0777 23.5231 45.0777 23.5408C45.0777 24.4797 42.3849 25.8616 38.1685 25.8616C34.0229 25.8616 31.3478 24.5329 31.2592 23.5939V22.6018C32.8714 23.6117 35.5642 24.1609 38.1685 24.1609ZM38.1685 29.1922C33.9521 29.1922 31.2592 27.8281 31.2592 26.8714V25.6844C32.8537 26.712 35.5642 27.2612 38.1685 27.2612C40.7727 27.2612 43.4833 26.712 45.0777 25.6844V26.8714C45.0777 27.8281 42.3849 29.1922 38.1685 29.1922ZM38.1685 5.435C42.3849 5.435 45.0777 6.79913 45.0777 7.7558C45.0777 8.69475 42.3849 10.0766 38.1685 10.0766C34.1646 10.0766 31.5427 8.83648 31.2769 7.89753V7.7558C31.2769 7.72037 31.2769 7.68494 31.2592 7.64951C31.4541 6.71055 34.0938 5.435 38.1685 5.435Z" fill="#1F2431"/>
<path d="M16.9798 17.7477H18.6628L18.6451 24.1254C18.6451 24.5152 18.9639 24.8518 19.3537 24.8518C19.7435 24.8518 20.0801 24.5329 20.0801 24.1431L20.0978 17.0567C20.0978 16.8619 20.0269 16.6847 19.8852 16.543C19.7612 16.4012 19.5663 16.3127 19.3891 16.3127H18.5033L22.2946 11.6356L26.1035 16.3304L25.2 16.3481C24.8102 16.3481 24.4914 16.667 24.4914 17.0744V24.1254C24.4914 24.5152 24.8102 24.8518 25.2177 24.8518C25.6075 24.8518 25.9441 24.5329 25.9441 24.1254V17.7831L27.5739 17.7477C27.8397 17.7477 28.0877 17.5882 28.2117 17.3402C28.3357 17.0922 28.2826 16.791 28.1231 16.5784L22.826 10.0412C22.6843 9.86402 22.4894 9.77544 22.2591 9.77544C22.0288 9.77544 21.8339 9.88173 21.6922 10.0412L16.4306 16.5784C16.2534 16.791 16.218 17.0922 16.342 17.3402C16.4483 17.5882 16.714 17.7477 16.9798 17.7477Z" fill="#1F2431"/>
<path d="M60.0284 17.3048C59.9044 17.0567 59.6564 16.8973 59.3906 16.8973L57.7253 16.8619V10.5018C57.7253 10.112 57.4064 9.77543 56.999 9.77543C56.6092 9.77543 56.2726 10.0943 56.2726 10.5018V17.5528C56.2726 17.9425 56.5915 18.2614 56.9812 18.2791L57.8848 18.2968L54.0758 22.9916L50.2846 18.3146H51.1704C51.3653 18.3146 51.5424 18.2437 51.6841 18.102C51.8259 17.9602 51.8967 17.7831 51.8967 17.5882L51.879 10.5018C51.879 10.112 51.5601 9.79315 51.1527 9.79315C50.7629 9.79315 50.4263 10.112 50.444 10.5195L50.4617 16.8973H48.7787C48.4953 16.8973 48.2472 17.0567 48.1232 17.3048C47.9992 17.5528 48.0346 17.8539 48.2118 18.0665L53.5089 24.6038C53.6506 24.7809 53.8455 24.8695 54.0758 24.8695C54.3061 24.8695 54.501 24.7632 54.6427 24.6038L59.9398 18.0665C60.0993 17.8362 60.1347 17.5528 60.0284 17.3048Z" fill="#1F2431"/>
<path d="M59.3919 27.8458C57.6203 26.7297 55.8133 26.3931 54.0594 26.8714C50.9059 27.7218 48.9218 30.8752 48.4257 31.7256L43.2526 34.3653C42.544 33.5327 41.481 32.9835 40.3118 32.9657L33.4734 32.8594C32.6761 32.8417 31.8789 32.6114 31.2057 32.1685L29.6644 31.1587C28.7432 30.5564 27.6625 30.2375 26.5464 30.2375H21.4796C20.0269 30.2375 18.645 30.7867 17.5821 31.7788L11.1511 37.8377L8.83034 35.4283C8.5646 35.1448 8.1217 35.1271 7.82053 35.3928L1.23016 41.4694C0.946704 41.7352 0.911272 42.1958 1.19473 42.4793C1.46047 42.7627 1.92109 42.7981 2.20454 42.5147L8.28115 36.9164L21.1961 50.3098L15.4384 56.0675C15.1727 56.3509 15.1727 56.8115 15.4384 57.095C15.5802 57.2367 15.7573 57.3076 15.9522 57.3076C16.1471 57.3076 16.3242 57.2367 16.466 57.095L22.7197 50.8412C23.0032 50.5578 23.0032 50.1149 22.7374 49.8314L21.5682 48.6267H43.0577C43.1995 48.6267 43.3412 48.5913 43.4652 48.5027C55.1578 40.6545 59.5337 29.1922 59.7108 28.7139C59.7994 28.395 59.6754 28.023 59.3919 27.8458ZM42.8097 47.1917H20.2926C20.2572 47.1917 20.2218 47.1917 20.1686 47.2094L12.1432 38.8829L18.5564 32.8594C19.3537 32.1154 20.3812 31.7079 21.4619 31.7079H26.5287C27.3613 31.7079 28.1585 31.9382 28.8495 32.3988L30.3908 33.4086C31.2943 33.9933 32.3395 34.3122 33.4202 34.3299L40.2586 34.4362C41.6227 34.4539 42.7388 35.5877 42.7388 36.9519C42.7388 38.3337 41.605 39.4675 40.2232 39.4675H29.0443C28.6546 39.4675 28.318 39.7864 28.318 40.1939C28.318 40.6014 28.6369 40.9202 29.0443 40.9202H40.2232C42.4022 40.9202 44.1739 39.1486 44.1739 36.9696C44.1739 36.509 44.0853 36.0661 43.9435 35.6586L49.2406 32.948C49.3647 32.8772 49.4887 32.7709 49.5418 32.6469C49.5595 32.6114 51.4374 29.1036 54.396 28.3064C55.583 27.9875 56.8231 28.147 58.0632 28.8025C57.0711 31.141 52.5535 40.5659 42.8097 47.1917Z" fill="#1F2431"/>
</g>
<defs>
<clipPath id="clip0_635_5230">
<rect width="59.083" height="53.3076" fill="white" transform="translate(1 4)"/>
</clipPath>
</defs>
</svg>
