<svg width="32" height="29" viewBox="0 0 32 29" fill="none" xmlns="http://www.w3.org/2000/svg">
<g filter="url(#filter0_d_635_5670)">
<path fill-rule="evenodd" clip-rule="evenodd" d="M22.9049 0.0282396C26.2473 0.188179 28.8816 1.70307 30.6418 4.61215C32.15 7.10378 32.354 9.77345 31.4929 12.5176C31.1159 13.7196 30.4848 14.8221 29.5907 15.7354C29.4597 15.8682 29.2337 15.9759 29.0496 15.9779C28.0524 15.989 27.0548 15.9891 26.0573 15.9892C25.4381 15.9892 24.819 15.9893 24.2 15.992C23.945 15.993 23.811 15.9386 23.684 15.667C22.9737 14.15 22.2335 12.6467 21.4935 11.1436C21.4332 11.0212 21.3729 10.8988 21.3127 10.7763C21.1406 10.4273 20.8626 10.1124 20.4566 10.2774C20.2005 10.382 19.9405 10.6697 19.8395 10.9363C19.3704 12.175 18.9318 13.4249 18.4932 14.675C18.4043 14.9282 18.3154 15.1815 18.2263 15.4347C17.9945 16.0932 17.7679 16.7532 17.5324 17.4391C17.4265 17.7474 17.3189 18.061 17.2082 18.382C16.9347 17.6436 16.7001 16.8829 16.5229 16.3084C16.4189 15.9711 16.3347 15.698 16.274 15.5313C16.1221 15.0123 15.9692 14.4924 15.8161 13.9715C15.4783 12.8225 15.1393 11.6693 14.8069 10.5148C14.5612 9.66174 14.321 8.80741 14.0808 7.95323C13.8936 7.28751 13.7064 6.62189 13.5167 5.95705C13.4097 5.58385 13.2187 5.25794 12.7856 5.23682C12.3725 5.21771 12.1495 5.44403 12.0015 5.84841C11.3869 7.52918 10.7603 9.20581 10.1337 10.8825C9.78448 11.8169 9.43528 12.7513 9.08814 13.6864C8.91646 14.1495 8.75854 14.618 8.60053 15.0867C8.54129 15.2624 8.48205 15.4382 8.42205 15.6137C8.33404 15.8712 8.20803 16.0191 7.88899 16.0161C7.04344 16.0069 6.19764 16.0065 5.35185 16.0061C4.53094 16.0058 3.71003 16.0054 2.88936 15.997C2.72434 15.995 2.51731 15.8853 2.4023 15.7586C0.735092 13.9299 -0.0640081 11.7692 0.00400044 9.28961C0.108013 5.47924 1.92024 2.71199 5.23565 0.990891C7.12089 0.013151 9.16315 -0.251402 11.2914 0.23948C12.9826 0.629771 14.4588 1.36509 15.718 2.55206C15.926 2.74821 16.037 2.71501 16.246 2.5259C18.1363 0.815863 20.3695 -0.093475 22.9049 0.0282396ZM22.6411 16.8943C22.8422 17.3118 23.1492 17.5049 23.6313 17.4969C24.6287 17.4807 25.6262 17.4838 26.6575 17.4871C27.0378 17.4883 27.4226 17.4895 27.8138 17.4898C27.7702 17.545 27.7338 17.5937 27.7011 17.6374C27.6416 17.7169 27.5947 17.7796 27.5398 17.8348C24.0493 21.3485 20.5589 24.8621 17.0645 28.3717C16.2624 29.1784 15.7193 29.1905 14.9092 28.3807C11.8063 25.2802 8.71182 22.1719 5.61706 19.0633C5.17467 18.6189 4.73228 18.1746 4.28985 17.7302C4.27075 17.711 4.26304 17.6807 4.24987 17.629C4.24167 17.5968 4.23135 17.5562 4.21484 17.5049C4.64166 17.5049 5.06398 17.5027 5.48306 17.5005C6.50362 17.4951 7.505 17.4899 8.50538 17.517C9.07245 17.5321 9.36149 17.3047 9.54351 16.7988C10.3736 14.4892 11.2147 12.1837 12.0578 9.87813C12.172 9.56652 12.2967 9.2591 12.4396 8.90697C12.5071 8.74075 12.5786 8.56457 12.6549 8.37329C12.7619 8.73147 12.8643 9.0721 12.9632 9.40113C13.1609 10.059 13.3447 10.6705 13.524 11.2834C13.865 12.4472 14.2021 13.612 14.5351 14.7779C14.7581 15.5572 14.9792 16.3373 15.2004 17.1173C15.4465 17.9854 15.6927 18.8536 15.9413 19.7209C15.9732 19.8327 16.0033 19.9457 16.0333 20.0588C16.1323 20.4312 16.2316 20.8051 16.4004 21.1423C16.5204 21.3837 16.8534 21.6603 17.0905 21.6603C17.3145 21.6613 17.6565 21.3646 17.7455 21.1241C18.2668 19.718 18.7623 18.3031 19.2579 16.8879C19.4536 16.329 19.6494 15.77 19.8468 15.2114C20.0238 14.7116 20.2064 14.214 20.4012 13.6833C20.4925 13.4343 20.5865 13.1781 20.6839 12.9109C20.7879 13.1182 20.8887 13.3182 20.9869 13.5131C21.2091 13.9538 21.4185 14.3692 21.623 14.7869C21.8699 15.2907 22.1131 15.7966 22.3564 16.3026C22.4512 16.4998 22.5461 16.6971 22.6411 16.8943Z" fill="url(#paint0_linear_635_5670)" shape-rendering="crispEdges"/>
</g>
<defs>
<filter id="filter0_d_635_5670" x="-4" y="-3.00122" width="40" height="36.9836" filterUnits="userSpaceOnUse" color-interpolation-filters="sRGB">
<feFlood flood-opacity="0" result="BackgroundImageFix"/>
<feColorMatrix in="SourceAlpha" type="matrix" values="0 0 0 0 0 0 0 0 0 0 0 0 0 0 0 0 0 0 127 0" result="hardAlpha"/>
<feOffset dy="1"/>
<feGaussianBlur stdDeviation="2"/>
<feComposite in2="hardAlpha" operator="out"/>
<feColorMatrix type="matrix" values="0 0 0 0 0.592157 0 0 0 0 0.0784314 0 0 0 0 0.301961 0 0 0 0.1 0"/>
<feBlend mode="normal" in2="BackgroundImageFix" result="effect1_dropShadow_635_5670"/>
<feBlend mode="normal" in="SourceGraphic" in2="effect1_dropShadow_635_5670" result="shape"/>
</filter>
<linearGradient id="paint0_linear_635_5670" x1="16.0001" y1="-0.00122071" x2="15.9545" y2="40.5534" gradientUnits="userSpaceOnUse">
<stop stop-color="white"/>
<stop offset="1" stop-color="white" stop-opacity="0.24"/>
</linearGradient>
</defs>
</svg>
