<svg width="62" height="62" viewBox="0 0 62 62" fill="none" xmlns="http://www.w3.org/2000/svg">
<g clip-path="url(#clip0_635_5556)">
<path d="M48.4201 21.563C48.7051 21.1827 49.0472 21.0115 49.5222 21.0115C51.0045 21.0115 52.4867 21.0115 53.95 21.0115C56.0403 21.0115 57.9406 21.0115 59.7649 21.0305H59.7839C60.411 21.0305 60.7531 20.8594 61.0001 20.4221V4.60162C60.7151 4.22132 60.316 4.08822 59.5749 4.0692C58.1497 4.08822 56.7054 4.08822 55.3182 4.08822H54.8431C54.368 4.08822 53.893 4.08822 53.4369 4.08822C52.2967 4.08822 52.0877 4.29738 52.0687 5.41926C52.0687 5.53335 52.0687 5.62843 52.0497 5.76153L52.0117 6.31297H49.0092C47.812 6.31297 47.6979 6.38903 47.4319 7.58697L47.3749 7.85318H47.1089C45.9877 7.83416 44.8665 7.51091 43.6313 6.82637L42.6051 6.27494C41.1419 5.47631 39.4696 4.56359 37.8163 3.70792C36.3151 2.94732 34.9469 2.2818 33.4456 2.01559C31.6593 1.71135 29.968 1.86347 28.2958 2.47194C27.6877 2.70012 27.0986 2.90929 26.4905 3.11845C25.4833 3.47974 24.4191 3.86004 23.393 4.25935C22.9179 4.43049 22.5568 4.37344 22.1958 3.99314C20.9986 2.75717 19.7634 1.54021 18.8512 0.627494C18.6802 0.456359 18.4712 0.304239 18.2811 0.15212L18.0911 0H17.616C17.559 0.0570449 17.483 0.0950748 17.426 0.133105C17.236 0.285224 17.0459 0.437344 16.8939 0.589464C12.6562 4.8298 8.39951 9.07014 4.16181 13.3105C3.72474 13.7668 3.55371 14.033 3.55371 14.2802C3.55371 14.5274 3.72474 14.8127 4.18081 15.269L26.3575 37.4595C27.1746 38.2771 27.5546 38.2771 28.3718 37.4595L32.1914 33.6375C34.6618 31.1655 37.2272 28.5985 39.7356 26.0695C40.1917 25.6132 40.6288 25.442 41.1989 25.5181C41.636 25.5561 42.13 25.5181 42.7191 25.404C44.9235 24.9666 46.7858 23.6926 48.4201 21.563ZM53.912 5.83759H59.2138V19.2431H53.912V5.83759ZM49.3512 8.1384H52.0307V19.2622H49.3512V8.1384ZM15.0316 5.09601C15.9057 4.22132 16.7799 3.34663 17.616 2.50998L17.8441 2.2818L18.0721 2.50998C18.9082 3.36565 19.7824 4.24034 20.6565 5.11502L20.9036 5.36222L20.6565 5.5904C20.1054 6.1038 19.0793 6.42706 17.9011 6.42706C16.7039 6.42706 15.6397 6.12282 15.0506 5.5904L14.7846 5.3432L15.0316 5.09601ZM9.27365 17.0374L9.06462 17.4367L8.9696 17.3416L5.9101 14.2802L9.04561 11.1428L9.25465 11.5231C10.2618 13.3485 10.2618 15.212 9.27365 17.0374ZM30.5001 32.8579L27.8777 35.4629C27.8207 35.5199 27.7637 35.577 27.6877 35.634L27.3646 35.9193L27.0606 35.6721C27.0036 35.634 26.9275 35.577 26.8705 35.5009L24.2101 32.8579L24.4571 32.6297C25.5593 31.5458 28.5808 31.3176 30.2531 32.5536L30.5761 32.7818L30.5001 32.8579ZM31.8303 31.3557L31.6023 31.2036C28.8659 29.4352 25.8444 29.4542 23.1079 31.2226L22.8799 31.3747L10.2808 18.7678L10.4328 18.5396C12.2001 15.7254 12.2191 12.8731 10.4518 10.0589L10.2998 9.83074L13.4163 6.71228L13.6444 6.8644C14.9176 7.73909 16.3238 8.17643 17.8441 8.17643H17.8821C19.4213 8.17643 20.8275 7.72007 22.0818 6.84539L22.3098 6.69327L22.3668 6.75031L25.3693 9.75468L24.8942 9.94483C24.7802 9.98285 24.6662 10.0209 24.5332 10.0779H24.4951C24.1911 10.173 23.906 10.2871 23.678 10.4202C23.1079 10.7815 22.5758 11.1238 22.2528 11.5611C21.7777 12.2076 21.2076 12.6069 20.3715 12.9112C17.483 13.919 15.8297 16.6761 16.1338 19.9467C16.3998 22.6848 18.7372 25.0617 21.5877 25.48C24.7802 25.9744 27.6687 24.2441 28.7898 21.2017C28.8089 21.1256 28.8469 21.0496 28.8849 20.9545L28.9039 20.8974L29.0939 20.4221L30.1961 20.8024C31.2223 21.1446 32.1724 21.4679 33.1606 21.8102C33.4456 21.9052 33.6166 22.3616 33.5596 22.5898C33.2556 24.5103 33.6546 26.3357 34.7758 28.0281L34.9279 28.2562L31.8303 31.3557ZM25.4833 19.1861C25.6163 19.2241 25.7494 19.2812 25.8824 19.3192C26.0724 19.3953 26.2434 19.4523 26.4335 19.4903C26.6615 19.5474 26.9656 19.6425 27.1176 19.9277C27.2696 20.2129 27.1746 20.5362 27.0796 20.7834C26.3575 22.5708 24.5712 23.8257 22.6898 23.8257C22.5568 23.8257 22.4048 23.8257 22.2718 23.8067C19.9534 23.5595 18.2431 21.9813 17.9011 19.8136C17.559 17.6269 18.6992 15.5733 20.7515 14.6605L21.1316 14.4894L21.2076 14.8887C21.6447 17.0945 22.9939 18.4445 25.4833 19.1861ZM36.087 27.1534L34.9089 23.3884L38.1774 25.1378L36.087 27.1534ZM42.6621 23.5976C42.092 23.7117 41.5409 23.7687 40.9898 23.7687C38.8805 23.7687 37.0182 22.894 35.4599 21.1446C35.1369 20.7834 34.7378 20.4981 34.3768 20.365C32.9515 19.8706 31.5073 19.3762 30.1011 18.9009L29.968 18.8628C28.5048 18.3685 27.0036 17.855 25.5213 17.3416C24.8942 17.1135 24.2671 16.7522 23.792 16.2958C22.8609 15.4401 22.6898 14.1281 23.355 13.0252C23.9821 11.9604 25.2363 11.5041 26.4525 11.8844C28.8089 12.6259 31.1842 13.3675 33.5026 14.1091L36.8662 15.1739C36.9422 15.193 36.9992 15.212 37.0752 15.25C37.6073 15.3831 38.0824 15.1739 38.2344 14.6986C38.4054 14.2042 38.1584 13.7288 37.6073 13.5577C36.6191 13.2344 35.612 12.9112 34.6808 12.6259L32.1724 11.7893C31.2793 11.5041 30.3861 11.2188 29.512 10.9526C29.3029 10.8766 29.0749 10.8195 28.9039 10.6484C27.8397 9.58354 26.7755 8.5187 25.6923 7.43485L24.1151 5.85661L24.6092 5.68547C25.1032 5.51434 25.5973 5.3432 26.0724 5.17207L26.3194 5.09601C27.5546 4.60162 28.7708 4.16428 30.0251 3.80299C31.6783 3.34663 33.4266 3.53678 35.0609 4.35443C37.4933 5.57138 39.8877 6.82637 42.7381 8.34757C44.1634 9.10817 45.4176 9.48847 46.6908 9.56453C47.4129 9.60256 47.5079 10.0969 47.5079 10.4582C47.5079 11.9034 47.5079 13.3485 47.5079 14.7936V19.3192C47.5079 19.6234 47.4509 19.8516 47.3369 20.0228C45.9687 22.0954 44.4674 23.2173 42.6621 23.5976Z" fill="#2A2A2A"/>
<path d="M46.8047 55.3336C48.3249 54.7822 49.8642 54.2497 51.3844 53.6983C52.4676 53.318 53.3988 52.6525 54.1399 51.7398C54.976 50.6939 55.2801 49.534 55.033 48.298C54.748 46.967 54.0449 45.8831 53.0377 45.2557C52.0115 44.6091 50.6813 44.438 49.3131 44.7993C47.1657 45.3507 45.0754 45.9212 42.89 46.5487C41.9209 46.8149 40.9707 47.1001 39.9826 47.3663L39.6975 47.4424L39.5835 47.1571C38.9564 45.5028 37.7022 44.419 35.6689 43.7535C33.2745 42.9739 30.8231 42.1372 27.7065 41.0533C27.3265 40.9202 26.9464 40.654 26.6044 40.3308C24.286 37.9539 21.4925 37.0032 18.262 37.4976C16.1526 37.8398 14.2903 39.0758 12.5991 41.2625C12.295 41.6808 11.953 41.833 11.4209 41.833C7.98131 41.833 4.48474 41.833 1.12118 41.833C0.323053 41.833 0 42.1372 0 42.9168C0 47.8607 0 52.7856 0 57.7295C0 58.452 0.30405 58.7943 0.950156 58.7943C3.11651 58.8133 5.4729 58.8133 7.9243 58.7943C8.5514 58.7943 8.87446 58.4711 8.91246 57.7675C8.93147 57.5773 8.91246 57.3682 8.91246 57.178V56.5505H10.8508C11.4019 56.5505 11.934 56.5505 12.466 56.5505C12.9981 56.5505 13.3212 56.3224 13.4352 55.866C13.4542 55.7519 13.4732 55.6378 13.4922 55.5237L13.5872 54.9533L13.9103 55.0103C14.0433 55.0293 14.1573 55.0484 14.2903 55.0484C14.6134 55.0864 14.9174 55.1054 15.2025 55.2385C16.4567 55.7709 17.6729 56.3414 18.8131 56.8928C19.5922 57.2731 20.3523 57.6724 21.2645 58.1478C22.6137 58.8514 24.0009 59.5739 25.3882 60.2014C27.8016 61.2853 30.424 61.2853 33.4265 60.1634C37.7972 58.5281 42.2819 56.9308 46.6337 55.3906L46.8047 55.3336ZM7.06916 56.9879H1.76729V43.6584H7.06916V56.9879ZM11.6679 54.7631H8.96947V43.6584H11.6679V54.7631ZM32.9514 58.414C32.1153 58.7182 31.2981 58.9845 30.443 59.1556C30.0059 59.2317 29.5689 59.2887 29.1508 59.2887C28.0296 59.2887 26.9084 59.0035 25.8062 58.4711C23.6209 57.3872 21.3025 56.2083 19.0221 54.9533C17.5779 54.1547 15.8486 53.318 13.7963 53.2419H13.4732V50.2376C13.4732 48.1079 13.4732 45.9022 13.4922 43.7345C13.4922 43.3161 13.6442 42.8788 13.8723 42.5555C14.8034 41.2815 16.3047 39.5512 18.7181 39.2279C21.4545 38.8476 23.7919 39.7223 25.6162 41.871C25.8632 42.1562 26.2053 42.4034 26.5093 42.5175C28.4667 43.202 30.481 43.8866 32.4193 44.5331L35.3648 45.5409C36.41 45.9022 37.6642 46.5106 37.9682 48.0699C38.1393 48.9446 37.8542 49.8383 37.2081 50.4848C36.6 51.0742 35.7639 51.3024 34.9657 51.1313C33.8065 50.8651 32.6664 50.4848 31.5642 50.1235C31.1461 49.9904 30.709 49.8383 30.291 49.7052C28.2386 49.0586 26.0913 48.3741 23.8679 47.6896C23.6779 47.6325 23.2028 47.5184 22.9748 47.8987C22.8037 48.1649 22.7467 48.5833 22.8037 48.8495C22.8417 49.0016 23.1268 49.2488 23.3738 49.3439L24.0579 49.5721C27.3835 50.6559 30.8421 51.7778 34.2436 52.8046C36.429 53.4701 38.7474 52.2341 39.5075 49.9904C39.6785 49.458 39.9826 49.1727 40.5337 49.0396C41.8639 48.6783 43.1941 48.3171 44.5243 47.9368C46.1016 47.4994 47.6978 47.0621 49.2751 46.6247C49.8262 46.4726 50.3583 46.4156 50.8713 46.4536C51.8215 46.5106 52.6196 47.0431 53.0377 47.8797C53.4558 48.7354 53.3988 49.7242 52.8667 50.5228C52.3916 51.2454 51.7075 51.7398 50.7573 52.082L44.9804 54.1547C40.9707 55.5427 36.9611 56.9879 32.9514 58.414Z" fill="#2A2A2A"/>
</g>
<defs>
<clipPath id="clip0_635_5556">
<rect width="61" height="61" fill="white"/>
</clipPath>
</defs>
</svg>
