<svg width="80" height="80" viewBox="0 0 80 80" fill="none" xmlns="http://www.w3.org/2000/svg">
<path d="M49.3593 39.9494C54.5059 39.9494 59.991 38.279 59.991 35.164L60.0136 10.7854C60.0136 10.6951 59.991 10.6048 59.9685 10.5371C59.6976 7.58009 54.3704 6 49.3593 6C44.2127 6 38.7275 7.67038 38.7275 10.7854C38.7275 10.8983 38.7275 11.0337 38.7501 11.1466V14.7131C38.7275 14.7808 38.7275 14.8485 38.7275 14.9162C38.7275 15.0291 38.7275 15.142 38.7501 15.2322V18.8439C38.7275 18.9116 38.7275 18.9567 38.7275 19.0245C38.7275 19.1148 38.7275 19.2276 38.7501 19.3179V22.8618C38.7501 22.907 38.7275 22.9521 38.7275 22.9973C38.7275 23.0875 38.7275 23.1553 38.7501 23.2456V26.812C38.7501 26.8346 38.7501 26.8798 38.7501 26.9023C38.7501 26.9475 38.7501 27.0152 38.7501 27.0603V30.83C38.7501 30.8526 38.7501 30.8526 38.7501 30.8751C38.7501 30.8977 38.7501 30.9429 38.7501 30.9654V35.164C38.7275 38.2564 44.2127 39.9494 49.3593 39.9494ZM58.1852 14.7131C58.1626 14.7808 58.1626 14.8485 58.1626 14.9162C58.1626 16.1126 54.7316 17.8733 49.3593 17.8733C44.2353 17.8733 40.8719 16.2706 40.5785 15.0968V13.5844C42.61 14.8937 46.0411 15.5934 49.3593 15.5934C52.6775 15.5934 56.1537 14.8937 58.1852 13.5619V14.7131ZM49.3593 19.6791C52.6775 19.6791 56.1311 18.9793 58.1852 17.6475V18.8439C58.1626 18.9116 58.1626 18.9567 58.1626 19.0245C58.1626 20.2208 54.7316 21.9815 49.3593 21.9815C44.2127 21.9815 40.8268 20.3788 40.5785 19.1825V17.6927C42.61 19.0019 46.0637 19.6791 49.3593 19.6791ZM49.3593 23.8099C52.6775 23.8099 56.1311 23.1101 58.1626 21.7783V22.8618C58.1626 22.907 58.1401 22.9521 58.1401 22.9973C58.1401 24.1936 54.709 25.9543 49.3367 25.9543C44.145 25.9543 40.7817 24.329 40.5559 23.1327V21.8009C42.61 23.1101 46.0411 23.8099 49.3593 23.8099ZM49.3593 27.7827C52.6775 27.7827 56.1311 27.0829 58.1626 25.7511V26.812C58.1626 26.8346 58.1626 26.8798 58.1626 26.9023C58.1626 28.0987 54.7316 29.8594 49.3593 29.8594C44.145 29.8594 40.7591 28.2116 40.5785 27.0152V25.7737C42.61 27.0829 46.0411 27.7827 49.3593 27.7827ZM49.3593 31.6878C52.6775 31.6878 56.1311 30.988 58.1626 29.6788V30.8526C58.1626 30.8751 58.1626 30.8751 58.1626 30.8977C58.1626 32.0941 54.7316 33.8547 49.3593 33.8547C44.0773 33.8547 40.6688 32.1618 40.5559 30.9654V29.7014C42.61 30.988 46.0411 31.6878 49.3593 31.6878ZM49.3593 38.0984C43.987 38.0984 40.5559 36.3603 40.5559 35.1414V33.629C42.5875 34.9382 46.0411 35.638 49.3593 35.638C52.6775 35.638 56.1311 34.9382 58.1626 33.629V35.1414C58.1626 36.3603 54.7316 38.0984 49.3593 38.0984ZM49.3593 7.82839C54.7316 7.82839 58.1626 9.56649 58.1626 10.7854C58.1626 11.9818 54.7316 13.7424 49.3593 13.7424C44.2579 13.7424 40.9171 12.1624 40.5785 10.966V10.7854C40.5785 10.7403 40.5785 10.6951 40.5559 10.65C40.8042 9.45363 44.1676 7.82839 49.3593 7.82839Z" fill="#1F2431"/>
<path d="M22.3612 23.5164H24.5057L24.4831 31.6425C24.4831 32.1391 24.8894 32.568 25.386 32.568C25.8826 32.568 26.3115 32.1617 26.3115 31.6651L26.334 22.636C26.334 22.3877 26.2437 22.162 26.0632 21.9814C25.9052 21.8008 25.6569 21.688 25.4311 21.688H24.3025L29.1331 15.7288L33.9862 21.7105L32.835 21.7331C32.3384 21.7331 31.9321 22.1394 31.9321 22.6586V31.6425C31.9321 32.1391 32.3384 32.568 32.8576 32.568C33.3542 32.568 33.783 32.1617 33.783 31.6425V23.5615L35.8597 23.5164C36.1983 23.5164 36.5143 23.3132 36.6723 22.9972C36.8304 22.6812 36.7626 22.2974 36.5595 22.0266L29.8102 13.6972C29.6297 13.4715 29.3814 13.3586 29.0879 13.3586C28.7945 13.3586 28.5462 13.4941 28.3656 13.6972L21.6615 22.0266C21.4358 22.2974 21.3906 22.6812 21.5486 22.9972C21.6841 23.3132 22.0227 23.5164 22.3612 23.5164Z" fill="#1F2431"/>
<path d="M77.2126 22.952C77.0546 22.636 76.7386 22.4329 76.4 22.4329L74.2782 22.3877V14.2841C74.2782 13.7875 73.8718 13.3586 73.3527 13.3586C72.8561 13.3586 72.4272 13.765 72.4272 14.2841V23.2681C72.4272 23.7647 72.8335 24.171 73.3301 24.1935L74.4813 24.2161L69.6282 30.1979L64.7976 24.2387H65.9262C66.1745 24.2387 66.4003 24.1484 66.5809 23.9678C66.7614 23.7872 66.8517 23.5615 66.8517 23.3132L66.8292 14.2841C66.8292 13.7875 66.4228 13.3812 65.9037 13.3812C65.4071 13.3812 64.9782 13.7875 65.0008 14.3067L65.0233 22.4329H62.8789C62.5178 22.4329 62.2017 22.636 62.0437 22.952C61.8857 23.2681 61.9309 23.6518 62.1566 23.9227L68.9058 32.252C69.0864 32.4777 69.3347 32.5906 69.6282 32.5906C69.9216 32.5906 70.1699 32.4552 70.3505 32.252L77.0997 23.9227C77.3029 23.6292 77.348 23.2681 77.2126 22.952Z" fill="#1F2431"/>
<path d="M76.4007 36.3828C74.1434 34.9607 71.841 34.5318 69.6063 35.1413C65.5884 36.2248 63.0602 40.2427 62.4282 41.3262L55.837 44.6895C54.9341 43.6286 53.5797 42.9289 52.0899 42.9063L43.3768 42.7709C42.3611 42.7483 41.3453 42.4548 40.4875 41.8905L38.5237 40.6039C37.3499 39.8364 35.973 39.4301 34.5509 39.4301H28.0951C26.2441 39.4301 24.4835 40.1298 23.1291 41.3939L14.9352 49.1138L11.9782 46.0439C11.6396 45.6827 11.0753 45.6602 10.6915 45.9988L2.2945 53.7412C1.93334 54.0798 1.88819 54.6667 2.24936 55.0278C2.58795 55.389 3.17484 55.4341 3.536 55.073L11.2784 47.94L27.7339 65.005L20.3978 72.3411C20.0592 72.7023 20.0592 73.2892 20.3978 73.6503C20.5784 73.8309 20.8041 73.9212 21.0524 73.9212C21.3007 73.9212 21.5264 73.8309 21.707 73.6503L29.6752 65.6822C30.0364 65.321 30.0364 64.7567 29.6978 64.3955L28.208 62.8606H55.5887C55.7693 62.8606 55.9498 62.8154 56.1078 62.7026C71.0058 52.7029 76.5813 38.0983 76.807 37.4888C76.9199 37.0825 76.7619 36.6085 76.4007 36.3828ZM55.2727 61.0322H26.5827C26.5376 61.0322 26.4924 61.0322 26.4247 61.0548L16.1993 50.4456L24.3706 42.7709C25.3864 41.8228 26.6956 41.3036 28.0725 41.3036H34.5283C35.5892 41.3036 36.605 41.5971 37.4854 42.184L39.4492 43.4706C40.6004 44.2155 41.9322 44.6218 43.3091 44.6444L52.0222 44.7798C53.7603 44.8024 55.1824 46.2471 55.1824 47.9852C55.1824 49.7458 53.7377 51.1905 51.977 51.1905H37.7337C37.2371 51.1905 36.8082 51.5968 36.8082 52.116C36.8082 52.6351 37.2145 53.0414 37.7337 53.0414H51.977C54.7535 53.0414 57.0108 50.7842 57.0108 48.0077C57.0108 47.4208 56.8979 46.8565 56.7173 46.3373L63.4665 42.8837C63.6246 42.7934 63.7826 42.658 63.8503 42.5C63.8729 42.4548 66.2656 37.9854 70.0352 36.9697C71.5476 36.5634 73.1277 36.7665 74.7078 37.6017C73.4437 40.5813 67.6876 52.59 55.2727 61.0322Z" fill="#1F2431"/>
</svg>
