<svg width="80" height="80" viewBox="0 0 80 80" fill="none" xmlns="http://www.w3.org/2000/svg">
<g clip-path="url(#clip0_134_415)">
<path d="M48.0065 56.4164C48.0275 56.4786 48.0275 56.5616 48.0486 56.6238C48.0697 56.7068 48.1329 56.769 48.175 56.8312C48.1961 56.8727 48.2172 56.9142 48.2382 56.9557C48.2382 56.9557 48.2593 56.9557 48.2593 56.9764C48.3436 57.0801 48.4489 57.1423 48.5754 57.2045L48.5964 57.2253C48.7229 57.2875 48.8703 57.3082 49.0178 57.3082C49.1443 57.3082 49.2917 57.2875 49.4182 57.2253C49.4814 57.2045 49.5235 57.1631 49.5867 57.1216C49.6499 57.0801 49.6921 57.0594 49.7553 57.0179L62.1444 45.8385C62.3551 45.6519 62.4815 45.3615 62.4815 45.0711C62.4815 44.7807 62.3551 44.5111 62.1444 44.3037L49.7553 33.1244C49.7131 33.0829 49.671 33.0829 49.6289 33.0414C49.5656 32.9999 49.5024 32.9584 49.4392 32.917C49.355 32.8962 49.2917 32.8755 49.2075 32.8755C49.1653 32.8755 49.1232 32.8547 49.06 32.8547H49.0389C48.9546 32.8547 48.8914 32.8755 48.8282 32.8962C48.765 32.917 48.7018 32.917 48.6386 32.9377C48.5964 32.9584 48.5754 32.9792 48.5332 32.9999C48.4489 33.0414 48.3647 33.1036 48.3015 33.1659C48.3015 33.1659 48.2804 33.1659 48.2804 33.1866C48.2382 33.2281 48.2382 33.2696 48.2172 33.311C48.175 33.3733 48.1118 33.4355 48.0908 33.5184C48.0697 33.5807 48.0697 33.6636 48.0486 33.7259C48.0486 33.7881 48.0065 33.8296 48.0065 33.8918V40.9852H38.7357C38.1457 40.9852 37.6822 41.4415 37.6822 42.0222C37.6822 42.603 38.1457 43.0593 38.7357 43.0593H49.06C49.6499 43.0593 50.1135 42.603 50.1135 42.0222V36.2562L59.8899 45.0711L50.1135 53.886V48.12C50.1135 47.5393 49.6499 47.083 49.06 47.083H33.5946V39.9896C33.5946 39.9274 33.5736 39.8859 33.5525 39.8237C33.5314 39.7615 33.5314 39.6785 33.5104 39.6163C33.4893 39.5333 33.4261 39.4711 33.3839 39.4089C33.3629 39.3674 33.3418 39.3259 33.3207 39.2844C33.3207 39.2844 33.2997 39.2844 33.2997 39.2637C33.2365 39.2014 33.1522 39.16 33.089 39.1185C33.0468 39.0977 33.0047 39.0563 32.9625 39.0355C32.9204 39.0148 32.8572 39.0148 32.794 38.994C32.7097 38.9733 32.6465 38.9526 32.5622 38.9526H32.5411C32.4779 38.9526 32.4358 38.9733 32.3937 38.9733C32.3094 38.994 32.2462 38.994 32.1619 39.0148C32.0776 39.0355 32.0144 39.0977 31.9512 39.1392C31.909 39.16 31.8669 39.1807 31.8248 39.2014L19.4356 50.3808C19.2249 50.5675 19.0985 50.8578 19.0985 51.1482C19.0985 51.4386 19.2249 51.7082 19.4356 51.9156L31.8248 63.095C31.8669 63.1364 31.9301 63.1572 31.9933 63.1987C32.0565 63.2401 32.0987 63.2816 32.1619 63.3024C32.2883 63.3438 32.4147 63.3853 32.5622 63.3853C32.7097 63.3853 32.8572 63.3646 32.9836 63.3024L33.0047 63.2816C33.1311 63.2194 33.2365 63.1572 33.3207 63.0535C33.3207 63.0535 33.3418 63.0535 33.3418 63.0327C33.3839 62.9912 33.3839 62.9498 33.405 62.9083C33.4472 62.8461 33.5104 62.7838 33.5314 62.7009C33.5525 62.6387 33.5525 62.5557 33.5736 62.4935C33.5736 62.4312 33.6157 62.3898 33.6157 62.3275V55.2342H42.8865C43.4764 55.2342 43.94 54.7779 43.94 54.1971C43.94 53.6164 43.4764 53.1601 42.8865 53.1601H32.5622C31.9723 53.1601 31.5087 53.6164 31.5087 54.1971V59.9631L21.7323 51.1482L31.5087 42.3333V48.0993C31.5087 48.68 31.9723 49.1363 32.5622 49.1363H48.0275V56.2297C47.9643 56.3127 47.9854 56.3542 48.0065 56.4164Z" fill="#1F2431"/>
<path d="M24.2603 14.582H7.74142V16.6561H24.2603V14.582Z" fill="#1F2431"/>
<path d="M57.2765 16.6561H65.5359C66.1259 16.6561 66.5894 16.1998 66.5894 15.6191C66.5894 15.0383 66.1259 14.582 65.5359 14.582H57.2765C56.6866 14.582 56.223 15.0383 56.223 15.6191C56.223 16.1998 56.6866 16.6561 57.2765 16.6561Z" fill="#1F2431"/>
<path d="M67.7272 58.5113C68.1697 56.7691 68.4014 54.8816 68.4014 52.8905C68.4014 41.006 60.9637 27.8563 51.2716 22.1733C51.8194 21.4888 52.1565 20.6384 52.1565 19.6843C52.1565 18.2947 51.4401 17.071 50.3656 16.3451C53.1679 13.3376 54.8745 9.72872 55.0852 7.61315C55.1063 7.32278 55.022 7.03241 54.8113 6.825C54.6006 6.61759 54.3056 6.45166 54.0107 6.45166H46.9522C46.6783 6.45166 46.4044 6.55536 46.2148 6.76277L41.8322 11.0769V7.4887C41.8322 6.90796 41.3687 6.45166 40.7788 6.45166H27.5047C27.2097 6.45166 26.9358 6.57611 26.7251 6.78351C26.5144 6.99092 26.4301 7.30204 26.4723 7.59241C26.683 9.72872 28.3896 13.3169 31.1919 16.3451C30.1174 17.0917 29.401 18.3154 29.401 19.6843C29.401 20.6177 29.7381 21.4681 30.2859 22.1733C28.0736 23.4384 25.9877 25.077 24.0282 27.0888C23.6278 27.5037 23.6489 28.1674 24.0703 28.5614C24.281 28.7481 24.5338 28.8518 24.7867 28.8518C25.0606 28.8518 25.3345 28.7481 25.5452 28.52C27.61 26.4044 29.8013 24.7244 32.119 23.5007C32.5615 23.6666 33.0461 23.7703 33.5518 23.7703H48.0057C48.5114 23.7703 48.975 23.6666 49.4385 23.5007C58.7725 28.4992 66.3155 41.5452 66.3155 52.8905C66.3155 54.9024 66.0627 56.7898 65.5781 58.4905C65.4727 58.8224 65.557 59.1957 65.8098 59.4654C69.7499 63.8624 71.3091 68.7988 69.3917 70.6862C67.8325 72.221 64.061 71.4121 60.2684 68.8817C61.9751 67.7617 63.45 66.4758 64.6299 64.9617C64.9881 64.5054 64.9038 63.8624 64.4403 63.5098C63.9767 63.1572 63.3236 63.2402 62.9654 63.6965C57.9086 70.1262 48.1322 71.4743 40.7998 71.4743C33.4675 71.4743 23.6489 70.1262 18.6132 63.6965C18.255 63.2402 17.6018 63.1572 17.1383 63.5098C16.6747 63.8624 16.5905 64.5054 16.9487 64.9617C18.1286 66.455 19.6035 67.7617 21.3101 68.8817C17.5175 71.4121 13.746 72.221 12.1869 70.6862C10.2695 68.7988 11.8287 63.8624 15.7687 59.4654C16.0005 59.1957 16.0848 58.8431 16.0005 58.4905C15.5159 56.7898 15.2631 54.9024 15.2631 52.8905C15.2631 47.6431 16.8854 41.7941 19.8142 36.443C20.0881 35.9452 19.8984 35.3022 19.3928 35.0326C18.8871 34.763 18.2339 34.9496 17.96 35.4474C14.8627 41.1097 13.1561 47.2905 13.1561 52.8905C13.1561 54.8816 13.3878 56.7691 13.8303 58.5113C9.30027 63.7795 7.99394 69.4625 10.712 72.1381C11.6812 73.0921 12.9875 73.5484 14.5467 73.5484C17.054 73.5484 20.1724 72.3247 23.3118 70.0432C27.7997 72.3455 33.6993 73.5484 40.7788 73.5484C47.8582 73.5484 53.7578 72.3455 58.2457 70.0432C61.3851 72.3455 64.4824 73.5484 67.0108 73.5484C68.57 73.5484 69.8974 73.0921 70.8455 72.1381C73.5636 69.4625 72.2572 63.7795 67.7272 58.5113ZM28.811 8.52575H39.7253V13.5865C39.7253 14.0013 39.9781 14.3747 40.3784 14.5406C40.7787 14.7065 41.2212 14.6028 41.5162 14.3125L47.3947 8.52575H52.7254C52.1144 10.5584 50.4288 13.3584 48.1111 15.5984C48.0689 15.5984 48.0268 15.5777 47.9847 15.5777H33.5307C33.4886 15.5777 33.4464 15.5984 33.4043 15.5984C31.1077 13.3584 29.4221 10.5584 28.811 8.52575ZM33.5518 21.6962C32.414 21.6962 31.508 20.8044 31.508 19.6843C31.508 18.5643 32.414 17.6725 33.5518 17.6725H48.0057C49.1435 17.6725 50.0495 18.5643 50.0495 19.6843C50.0495 20.7836 49.1435 21.6962 48.0057 21.6962H33.5518Z" fill="#1F2431"/>
<path d="M40.7585 30.8223H16.0013C15.4114 30.8223 14.9478 31.2786 14.9478 31.8593C14.9478 32.4401 15.4114 32.8964 16.0013 32.8964H40.7796C41.3695 32.8964 41.8331 32.4401 41.8331 31.8593C41.8331 31.2786 41.3485 30.8223 40.7585 30.8223Z" fill="#1F2431"/>
</g>
<defs>
<clipPath id="clip0_134_415">
<rect width="64.5161" height="67.0968" fill="white" transform="translate(7.74193 6.45166)"/>
</clipPath>
</defs>
</svg>
