<svg width="80" height="80" viewBox="0 0 80 80" fill="none" xmlns="http://www.w3.org/2000/svg">
<path d="M20.375 2.89062L19.9844 3.28125L20.0469 13.1719C20.1094 22.4844 20.125 23.1406 20.4531 24.8281C22.0938 33.5469 26.7344 40.6562 33.8906 45.4531C35.6875 46.6562 39.5781 48.75 40.0156 48.75C40.3594 48.75 43.9375 46.8906 45.5781 45.8438C51.9375 41.7969 56.8906 35.0938 58.8438 27.9062C59.875 24.0938 59.8906 23.9688 59.9531 13.1719L60.0156 3.28125L59.625 2.89062C59.4063 2.67188 59.0469 2.5 58.8281 2.5C58.5938 2.5 57.6563 2.92188 56.7188 3.45312C53.9375 5.01562 51.6563 5.57812 48.75 5.42188C46.6094 5.3125 44.9375 4.8125 42.3438 3.51562C41.2344 2.95312 40.1719 2.5 40 2.5C39.8281 2.5 38.7656 2.95312 37.6563 3.51562C35.0625 4.8125 33.3906 5.3125 31.25 5.42188C28.3438 5.57812 26.0625 5.01562 23.2813 3.45312C22.3438 2.92188 21.4063 2.5 21.1719 2.5C20.9531 2.5 20.5938 2.67188 20.375 2.89062ZM41.5781 5.95312C44.6875 7.5 47.1719 8.07812 50.2969 7.92188C52.4219 7.82812 54.4688 7.34375 56.2969 6.51562L57.5 5.95312V13.4531C57.5 17.6719 57.4219 21.6094 57.3281 22.4688C56.6094 29.0938 53.75 35.0938 49.0781 39.7969C46.9375 41.9531 44.7188 43.5469 41.375 45.375L40 46.1094L37.8125 44.8906C32 41.6719 28.0156 37.4844 25.3125 31.8281C23.875 28.8125 23.0313 25.8281 22.6719 22.4688C22.5781 21.6094 22.5 17.6719 22.5 13.4688V5.96875L23.9219 6.59375C26.3281 7.625 27.6563 7.875 30.5469 7.875C32.75 7.875 33.2344 7.82812 34.5938 7.45312C35.4688 7.21875 36.9688 6.64062 38.0313 6.10938C39.0781 5.59375 39.9375 5.17188 39.9688 5.17188C39.9844 5.15625 40.7188 5.51562 41.5781 5.95312Z" fill="#1F2431"/>
<path d="M38.4531 8.6875C34.7344 10.4062 30.75 10.875 26.5312 10.0781C26.0156 9.98438 25.8906 10.0156 25.4688 10.4375L25 10.9062V16C25 21.5469 25.1719 23.4844 25.8594 26.1719C27.6562 33.0625 32.5625 39.3125 38.7031 42.5312L39.9688 43.2031L40.8906 42.7656C42.2969 42.0781 44.625 40.4688 46.1406 39.1562C49.9688 35.7969 52.8906 31.0312 54.1562 26.0625C54.8594 23.2969 55 21.6094 55 16.0469V10.9062L54.5312 10.4375C54.1094 10.0156 53.9844 9.98438 53.4688 10.0781C49.25 10.875 45.3438 10.4219 41.4844 8.67188C40.8281 8.375 40.1406 8.125 39.9531 8.14062C39.7656 8.14062 39.0938 8.39062 38.4531 8.6875ZM41.3281 11.3281C44.1094 12.5156 47.2188 13.0625 50.5 12.9375L52.5312 12.8438L52.4531 17.7188C52.3906 21.8125 52.3281 22.8125 52.0625 24.0625C50.9688 29.1875 48.7188 33.2344 45.0312 36.75C43.5625 38.1406 40.5156 40.3125 40.0156 40.3125C39.5156 40.3125 36.4531 38.1562 34.9844 36.7656C31.2812 33.2344 29.0312 29.1875 27.9375 24.0625C27.6719 22.8125 27.6094 21.8125 27.5469 17.7344L27.4688 12.8906H30.4062C33.0469 12.875 33.5469 12.8281 35.1094 12.4688C36.0781 12.2344 37.5625 11.7656 38.3906 11.4219C39.2344 11.0781 39.9531 10.7969 40 10.7969C40.0312 10.7812 40.625 11.0312 41.3281 11.3281Z" fill="#1F2431"/>
<path d="M42.4688 21.9844L37.5 26.9531L35.5 24.9688C34.4063 23.875 33.3438 22.9219 33.125 22.8438C32.1563 22.4688 31.2188 23.5 31.6406 24.4688C31.75 24.7188 33 26.0625 34.4063 27.4531C36.7188 29.75 37.0313 30 37.5156 30C38 30 38.4688 29.5781 43.625 24.4062C48.7031 19.3438 49.2188 18.7812 49.2188 18.3125C49.2188 17.625 48.625 17.0312 47.9375 17.0312C47.4844 17.0312 46.9531 17.5156 42.4688 21.9844Z" fill="#1F2431"/>
<path d="M6.3125 26.25C5.53125 26.4844 4.35938 27.3594 3.79688 28.0938C3.20312 28.875 2.8125 30.0625 2.8125 31.0781C2.8125 31.5156 3.96875 36.0625 5.70312 42.5781C8.04688 51.2969 8.70312 53.5156 9.10938 54.2031C9.5 54.8594 10.4219 55.75 13.1406 58.0938C15.4844 60.1094 16.7969 61.3438 17.0469 61.7656C17.3125 62.25 17.4219 62.7344 17.4688 63.7031L17.5469 65H16.0312C14.625 65 14.4844 65.0312 14.1406 65.3906L13.75 65.7656V71.25V76.7344L14.1406 77.1094L14.5156 77.5H26.25H37.9844L38.3594 77.1094L38.75 76.7344V71.25V65.7656L38.3594 65.3906C38.0156 65.0312 37.8594 65 36.5 65H35.0156L34.9531 59.25C34.8906 52.875 34.8594 52.7031 33.7812 50.5C33.0469 49.0156 31.7969 47.5156 30.5312 46.5938C28.8594 45.3594 20.4375 40.5 19.625 40.2969C18.6406 40.0469 17.0938 40.1875 16.2969 40.6094L15.6406 40.9375L15.4531 40.2812C15.3594 39.9062 14.6562 37.3281 13.9062 34.5312C13.1562 31.7344 12.3906 29.1562 12.2031 28.7969C11.4062 27.2031 9.82812 26.2344 7.96875 26.1562C7.32812 26.125 6.57812 26.1719 6.3125 26.25ZM8.90625 28.9062C9.23438 29.0781 9.64062 29.4062 9.8125 29.6562C10.0156 29.9219 10.8594 32.7812 11.9219 36.7656C13.5312 42.7188 13.7031 43.5 13.5625 44.0156C13.1719 45.4531 13.7969 47.5781 14.9688 48.7031C15.7031 49.4062 23.2031 53.75 23.6875 53.75C23.875 53.75 24.2031 53.6094 24.4375 53.4219C24.9844 53 25.0156 52.0781 24.5 51.625C24.2969 51.4531 22.625 50.4375 20.7812 49.375C16.6406 47 16.625 47 16.2344 46.2031C15.5938 44.9688 16.0781 43.4688 17.2812 42.8906C18.4531 42.3438 18.8594 42.5 24.0625 45.5469C28.25 47.9844 28.9688 48.4688 29.9219 49.4375C31.2031 50.7344 31.7656 51.7031 32.1875 53.375C32.4688 54.4531 32.5 55.1094 32.5 59.7969V65H26.25H20V63.9375C20 63.3594 19.8906 62.4688 19.7656 61.9688C19.2969 60.1562 18.9062 59.7344 13.8438 55.375C12.5469 54.2656 11.375 53.1406 11.2188 52.875C11.0625 52.6094 9.65625 47.6562 8.10938 41.8594C5.10938 30.7031 5.09375 30.5781 5.75 29.7031C6.54688 28.625 7.75 28.3125 8.90625 28.9062ZM36.25 71.25V75H26.25H16.25V71.25V67.5H26.25H36.25V71.25Z" fill="#1F2431"/>
<path d="M70.9375 26.2344C69.4844 26.7031 68.2656 27.75 67.6875 29C67.5 29.4219 66.7188 32.1562 65.9375 35.0781C65.1562 38 64.4844 40.5 64.4375 40.6406C64.375 40.875 64.2656 40.8594 63.4688 40.5312C62.4062 40.0938 61.125 40.0469 60.0781 40.3906C59.25 40.6875 50.4844 45.8125 49.2812 46.7188C47.5938 47.9844 46.0469 50.3281 45.375 52.5781C45.1406 53.375 45.0938 54.3594 45.0469 59.25L44.9844 65H43.5C42.1406 65 41.9844 65.0312 41.6406 65.3906L41.25 65.7656V71.25V76.7344L41.6406 77.1094L42.0156 77.5H53.75H65.4844L65.8594 77.1094L66.25 76.7344V71.25V65.7656L65.8594 65.3906C65.5156 65.0312 65.375 65 63.9688 65H62.4531L62.5312 63.7031C62.5781 62.7344 62.6875 62.25 62.9531 61.7656C63.2031 61.3438 64.5156 60.1094 66.8594 58.0938C69.5625 55.75 70.5 54.8594 70.8906 54.2031C71.2969 53.5156 71.9531 51.2969 74.25 42.8125C76.7812 33.4062 77.0938 32.125 77.0938 31.0156C77.1094 29.9531 77.0469 29.6406 76.6719 28.875C76.1875 27.9062 75.3594 27.0625 74.3438 26.5469C73.625 26.1719 71.6719 25.9844 70.9375 26.2344ZM73.4375 28.9375C74.1562 29.4375 74.5469 30 74.6406 30.7188C74.7031 31.1875 74.0781 33.7188 71.8906 41.8594C70.3438 47.6562 68.9375 52.6094 68.7812 52.875C68.625 53.1406 67.4531 54.2656 66.1562 55.375C61.0938 59.7344 60.7031 60.1562 60.2344 61.9688C60.1094 62.4688 60 63.3594 60 63.9375V65H53.75H47.5V59.7969C47.5 55.1094 47.5312 54.4531 47.8125 53.375C48.2031 51.8438 48.7656 50.7969 49.8125 49.6719C50.8281 48.5781 51.1719 48.3438 56.4844 45.2344C60.1562 43.0781 60.8125 42.75 61.4844 42.7031C63.4062 42.5625 64.6562 44.4844 63.7656 46.2188C63.6094 46.5312 63.3438 46.9062 63.1875 47.0469C63.0156 47.1875 61.375 48.1562 59.5312 49.2188C55.2031 51.7031 55.1562 51.7344 55.1562 52.5C55.1562 52.9688 55.25 53.1719 55.5625 53.4219C55.7969 53.6094 56.125 53.75 56.3125 53.75C56.6875 53.75 63.5469 49.875 64.6719 49.0312C66.0625 48 66.8906 45.6562 66.4375 44.0312C66.2969 43.5156 66.4688 42.7344 68.0781 36.7656C69.125 32.8438 70 29.9062 70.1875 29.6406C70.9062 28.6406 72.4844 28.2969 73.4375 28.9375ZM63.75 71.25V75H53.75H43.75V71.25V67.5H53.75H63.75V71.25Z" fill="#1F2431"/>
</svg>
