<svg width="41" height="40" viewBox="0 0 41 40" fill="none" xmlns="http://www.w3.org/2000/svg">
<g clip-path="url(#clip0_42_607)">
<path d="M34.0494 36.1444C35.0904 35.7705 36.1444 35.4094 37.1854 35.0354C37.9271 34.7775 38.5647 34.3262 39.0722 33.7073C39.6448 32.998 39.853 32.2115 39.6838 31.3733C39.4886 30.4706 39.0072 29.7356 38.3175 29.3101C37.6148 28.8717 36.704 28.7556 35.7671 29.0006C34.2967 29.3746 32.8653 29.7614 31.3689 30.187C30.7053 30.3675 30.0547 30.5609 29.378 30.7414L29.1828 30.793L29.1047 30.5996C28.6753 29.4777 27.8165 28.7427 26.4242 28.2914C24.7846 27.7627 23.1061 27.1953 20.972 26.4603C20.7118 26.3701 20.4515 26.1895 20.2173 25.9703C18.6298 24.3585 16.717 23.7137 14.5049 24.049C13.0605 24.2811 11.7853 25.1193 10.6272 26.6022C10.406 26.8859 10.1718 27.0019 9.80742 27.0019C7.45218 26.989 5.0579 26.989 2.75472 27.0019C2.22121 26.989 2 27.2082 2 27.7369C2 31.0896 2 34.4294 2 37.7821C2 38.2721 2.2082 38.5042 2.65062 38.5042C4.13403 38.5171 5.74756 38.5171 7.42616 38.5042C7.85556 38.5042 8.07677 38.285 8.1028 37.8078C8.11581 37.6789 8.1028 37.5371 8.1028 37.4081V36.9826H9.43006C9.80742 36.9826 10.1718 36.9826 10.5361 36.9826C10.9005 36.9826 11.1217 36.8278 11.1997 36.5184C11.2128 36.441 11.2258 36.3636 11.2388 36.2862L11.3038 35.8994L11.525 35.9381C11.6161 35.951 11.6942 35.9639 11.7853 35.9639C12.0065 35.9897 12.2147 36.0026 12.4099 36.0928C13.2687 36.4539 14.1015 36.8407 14.8822 37.2147C15.4157 37.4726 15.9362 37.7434 16.5608 38.0657C17.4847 38.5429 18.4346 39.0329 19.3845 39.4584C21.0371 40.1934 22.8328 40.1934 24.8887 39.4326C27.8816 38.3236 30.9525 37.2405 33.9323 36.196L34.0494 36.1444ZM6.8406 37.2663H3.21015V28.2269H6.8406V37.2663ZM9.98959 35.7576H8.14183V28.2269H9.98959V35.7576ZM24.5634 38.2463C23.9909 38.4526 23.4314 38.6331 22.8458 38.7492C22.5465 38.8008 22.2472 38.8394 21.961 38.8394C21.1932 38.8394 20.4255 38.646 19.6708 38.285C18.1744 37.5499 16.5869 36.7505 15.0254 35.8994C14.0494 35.3578 12.8523 34.8033 11.46 34.7518L11.2388 34.7389V32.7015C11.2388 31.2572 11.2388 29.7614 11.2518 28.2914C11.2518 28.0077 11.3559 27.7111 11.512 27.4919C12.1496 26.628 13.1776 25.4545 14.8302 25.2353C16.704 24.9774 18.3045 25.5706 19.5537 27.0277C19.7228 27.2211 19.9571 27.3888 20.1653 27.4661C21.5055 27.9303 22.8848 28.3946 24.2121 28.833L26.229 29.5164C26.9447 29.7614 27.8035 30.1741 28.0117 31.2314C28.1288 31.8246 27.9336 32.4307 27.4912 32.8691C27.0748 33.2688 26.5023 33.4236 25.9558 33.3075C25.162 33.127 24.3813 32.8691 23.6265 32.6241C23.3403 32.5338 23.041 32.4307 22.7547 32.3404C21.3494 31.902 19.879 31.4378 18.3565 30.9735C18.2264 30.9349 17.9011 30.8575 17.745 31.1154C17.6278 31.2959 17.5888 31.5796 17.6278 31.7601C17.6539 31.8633 17.8491 32.0309 18.0182 32.0954L18.4867 32.2501C20.7638 32.9851 23.1321 33.7459 25.4613 34.4423C26.9577 34.8936 28.5452 34.0554 29.0657 32.5338C29.1828 32.1728 29.391 31.9793 29.7684 31.8891C30.6792 31.6441 31.5901 31.3991 32.501 31.1412C33.581 30.8446 34.674 30.548 35.7541 30.2514C36.1314 30.1483 36.4958 30.1096 36.8471 30.1354C37.4977 30.1741 38.0442 30.5351 38.3305 31.1025C38.6168 31.6828 38.5777 32.3533 38.2134 32.8949C37.8881 33.3849 37.4196 33.7202 36.769 33.9523L32.8133 35.3578C30.0547 36.2991 27.309 37.2663 24.5634 38.2463Z" fill="#2A2A2A"/>
<path d="M37.4581 15.4096C37.6663 15.2677 37.8745 15.1259 38.0957 14.9969L38.1477 14.9711C38.5121 14.739 38.8634 14.5069 39.2148 14.249C39.3579 14.1459 39.488 14.0169 39.6311 13.8622C39.6572 13.8364 39.6832 13.8106 39.7092 13.7719L39.7352 13.7332V13.4237L39.6181 13.3077C39.475 13.1787 39.3319 13.0369 39.1757 12.9466C38.7723 12.7274 38.3559 12.5469 37.8875 12.3406L37.8354 12.3148C37.6403 12.2245 37.4321 12.1343 37.2239 12.0311L37.0287 11.9408L37.328 11.7216C37.4321 11.6442 37.5231 11.5798 37.6272 11.5153C37.7964 11.3992 37.9786 11.2832 38.1608 11.1671L38.2909 11.0769C38.6292 10.8577 38.9545 10.6384 39.2798 10.4063C39.3839 10.329 39.488 10.2129 39.5921 10.084L39.6311 10.0324C39.6572 10.0066 39.6832 9.96791 39.7092 9.94212L39.7352 9.90344V9.69712L39.7222 9.64554C39.6181 9.43922 39.475 9.31027 39.2148 9.19422C37.0807 8.2142 34.9467 7.2213 32.8127 6.22839C30.7437 5.26127 28.6617 4.30705 26.5798 3.35282C25.0703 2.6565 23.5218 1.97307 22.0384 1.30253L21.8433 1.21227C20.9844 0.825422 20.1256 0.45147 19.2798 0.0646224C19.0716 -0.0385368 18.8894 -0.0256419 18.6812 0.103307L9.50753 5.86733C9.29934 5.99628 9.16921 6.17681 9.09114 6.40892V6.49918L9.10415 6.55076C9.19524 6.80866 9.37741 6.9634 9.67669 7.09235C10.2753 7.35024 10.8608 7.63393 11.5114 7.93052L11.9018 8.11104L11.7196 8.23999C11.3032 8.49789 10.8868 8.75579 10.4965 9.00079L9.81983 9.42632C9.66368 9.51659 9.55958 9.58106 9.45548 9.65843C9.23427 9.78738 9.14319 9.95502 9.1562 10.2C9.16921 10.4321 9.28632 10.6127 9.50753 10.7158C9.85887 10.8963 10.2232 11.0511 10.5876 11.2187L11.8888 11.8377L11.4724 12.1085C11.3813 12.1729 11.3032 12.2245 11.2122 12.2761L10.8088 12.534C10.3924 12.7919 9.96297 13.0627 9.54657 13.3464C9.42946 13.4237 9.32536 13.5527 9.22126 13.6687L9.07812 13.8364V14.0685L9.09114 14.1201C9.19524 14.3264 9.35138 14.4553 9.61163 14.5714C9.96297 14.7261 10.3143 14.8938 10.6656 15.0485L10.8999 15.1517C11.1601 15.2677 11.4203 15.3967 11.6936 15.5127L11.9018 15.603L10.8868 16.2477C10.4835 16.4927 10.0931 16.7377 9.70272 16.9956L9.61163 17.0472C9.52055 17.0988 9.42946 17.1633 9.33837 17.2406C9.20825 17.3696 9.14319 17.5372 9.1562 17.7177C9.16921 17.8854 9.24729 18.0401 9.39042 18.1304C9.49452 18.2207 9.62464 18.2722 9.71573 18.3109L11.8888 19.3425C13.6194 20.1549 15.3371 20.9802 17.0677 21.8054L19.8003 23.1078C23.0014 24.6294 26.2024 26.1639 29.3904 27.6855C29.5336 27.75 29.6507 27.7887 29.7808 27.7887C29.95 27.7887 30.1061 27.7242 30.2883 27.6081C31.6155 26.7313 32.9298 25.8673 34.257 24.9905L34.7515 24.6681C36.2349 23.6881 37.7313 22.7081 39.2148 21.7281C39.3579 21.6378 39.488 21.5089 39.6181 21.3541L39.7352 21.2252V20.9286L39.6051 20.7996C39.475 20.6707 39.3319 20.5288 39.1887 20.4515C38.7203 20.2065 38.2258 19.9873 37.7834 19.7938L37.0547 19.4586L37.328 19.2522C37.354 19.2265 37.38 19.2007 37.406 19.1878L37.4971 19.1233C38.0827 18.7493 38.6943 18.3496 39.2668 17.9499C39.3839 17.8725 39.488 17.7435 39.5921 17.6275L39.7352 17.447V17.202L39.7222 17.1504C39.6311 16.9441 39.475 16.8151 39.2408 16.7119C38.8114 16.5185 38.382 16.3251 37.9395 16.1188L37.0547 15.7061L37.3149 15.4998C37.367 15.474 37.406 15.4354 37.4581 15.4096ZM38.0827 17.3954L37.9265 17.5243C37.8094 17.6146 37.7444 17.6662 37.6793 17.7177L35.7535 18.9815C33.8537 20.2323 31.9539 21.4831 30.0671 22.7339C29.8589 22.8757 29.7027 22.8886 29.4815 22.7854C27.2304 21.7023 24.9402 20.6191 22.7281 19.5746C22.4678 19.4586 22.3768 19.2909 22.3898 19.0072C22.4028 18.543 22.4028 18.0788 22.4028 17.5888V16.8796L23.5609 17.4341C24.6149 17.937 25.6559 18.427 26.6708 18.9299L27.5817 19.3554C28.2193 19.652 28.8569 19.9486 29.4945 20.2709C29.7548 20.387 29.95 20.3741 30.1972 20.2194C30.9389 19.7294 31.6676 19.2393 32.4093 18.7622L32.9168 18.427C33.8276 17.8338 34.7255 17.2277 35.6364 16.6217C35.8446 16.4798 36.0397 16.4669 36.2609 16.5701C36.6383 16.7635 37.0287 16.9312 37.4321 17.1246L37.4971 17.0214L37.4451 17.1375L38.0827 17.3954ZM38.1217 21.1478L37.9526 21.2638C37.7964 21.367 37.6793 21.4444 37.5492 21.5217C35.0768 23.1465 32.5784 24.7842 30.0931 26.4476C29.8849 26.6023 29.7027 26.6152 29.4555 26.4992L28.935 26.2542C26.879 25.2742 24.8101 24.2942 22.7541 23.3141C22.4809 23.1852 22.3898 23.0176 22.4028 22.6952C22.4158 22.2439 22.4158 21.7796 22.4158 21.3025V20.6191L22.7151 20.7481C22.8062 20.7867 22.8842 20.8125 22.9623 20.8641L25.3826 21.9989C26.7359 22.6307 28.0892 23.2755 29.4425 23.9202C29.7418 24.062 29.976 24.0492 30.2492 23.8686C31.3293 23.1336 32.4483 22.4115 33.5153 21.7023L33.5804 21.6636C34.2701 21.2123 34.9597 20.7609 35.6494 20.3096C35.8706 20.1678 36.0527 20.1549 36.287 20.2709C36.7164 20.4902 37.1458 20.6965 37.5882 20.9028L37.6533 20.7996L37.6012 20.9157L38.1217 21.1478ZM34.0358 16.338C32.7216 17.202 31.3943 18.0788 30.0801 18.9557C29.8719 19.1104 29.6637 19.1233 29.4164 19.0072C27.6207 18.1433 25.825 17.2922 24.0293 16.4412L22.7411 15.8351C22.4678 15.719 22.3637 15.5514 22.3768 15.229C22.4028 14.7777 22.3898 14.3135 22.3898 13.9138V13.1401L22.7021 13.2819C22.7801 13.3206 22.8582 13.3464 22.9363 13.3851L24.5758 14.1588C26.2024 14.9324 27.8289 15.6932 29.4425 16.4798C29.7418 16.6088 29.963 16.5959 30.2232 16.4283C30.9909 15.9125 31.7717 15.4096 32.5394 14.9067L33.0859 14.5456C33.9317 13.9911 34.7775 13.4237 35.6233 12.8693C35.8706 12.7145 36.0527 12.7016 36.274 12.8177C36.6253 12.9853 36.9636 13.1401 37.341 13.3206L37.419 13.3593C37.5882 13.4366 37.7574 13.514 37.9265 13.5914L38.1087 13.6816L37.9395 13.8106C37.8354 13.888 37.7313 13.9653 37.5752 14.0298C36.5602 14.7003 35.5192 15.3838 34.4913 16.0672L34.0358 16.338ZM30.0541 15.229C29.9109 15.3322 29.6767 15.3709 29.5336 15.2935C27.4646 14.3135 25.3956 13.3335 23.3267 12.3535C23.2746 12.3277 23.2356 12.3019 23.1575 12.2503L23.0144 12.1472L23.1185 12.0311C23.2226 11.9408 23.3006 11.8764 23.4047 11.8119L25.2525 10.4321C26.9181 9.18132 28.5837 7.94341 30.2492 6.67971C30.4965 6.49918 30.6917 6.47339 30.9649 6.60234C32.3572 7.24709 33.7626 7.89183 35.1679 8.53658L37.6272 9.65843C37.7183 9.71001 37.7964 9.7487 37.9135 9.80028L38.0957 9.89054L37.8615 10.0711C37.7964 10.1227 37.7444 10.1613 37.6923 10.1871L35.22 11.8119C33.5153 12.9724 31.7847 14.1072 30.0541 15.229ZM13.2941 16.2864C14.5954 16.9054 15.7665 17.4599 16.8725 17.9885C16.9766 18.0272 17.1198 18.1949 17.1198 18.3496C17.1328 18.8396 17.1328 19.3425 17.1328 19.8841V20.632L16.9506 20.5417C15.5843 19.897 14.244 19.2522 12.8777 18.6075L10.7697 17.6017L10.9649 17.4856C11.6416 17.0601 12.2662 16.6604 12.9038 16.2735C13.0079 16.1961 13.177 16.2219 13.2941 16.2864ZM13.2941 8.82026C14.4262 9.34896 15.5973 9.90344 16.8725 10.5095C16.9636 10.5482 17.1198 10.69 17.1198 10.8319C17.1328 11.3348 17.1328 11.8377 17.1328 12.3793V13.1401L16.9506 13.0498C15.6103 12.405 14.2961 11.7861 12.9558 11.1542L10.7697 10.1355L11.1861 9.87765C11.7717 9.50369 12.3312 9.15553 12.8647 8.84606C12.9948 8.76869 13.164 8.76869 13.2941 8.82026ZM13.2811 12.5082C14.4132 13.0369 15.5583 13.5785 16.6643 14.1072L16.8725 14.2103C16.9896 14.2877 17.1198 14.4295 17.1198 14.5585C17.1328 15.0614 17.1328 15.5643 17.1328 16.1188V16.8796L16.9506 16.7893C15.8576 16.2735 14.7775 15.7577 13.6975 15.2419C12.7997 14.8164 11.8888 14.378 10.9649 13.9395L10.7567 13.8493L12.8777 12.5082C13.0209 12.4566 13.177 12.4695 13.2811 12.5082ZM21.4269 19.7423V22.6823L21.2447 22.6049C20.6331 22.3212 20.1126 22.0762 19.5921 21.8183L19.2798 21.6636C18.9805 21.5217 18.6812 21.3799 18.382 21.251C18.1738 21.1736 18.0827 21.0317 18.0827 20.7738C18.0827 17.4599 18.0827 14.1716 18.0957 10.8577C18.0957 10.7029 18.1998 10.4837 18.3169 10.3934C20.6331 8.63974 23.1575 6.76997 26.0072 4.64231C26.0723 4.60363 26.2024 4.53916 26.3195 4.53916C26.3585 4.53916 26.4106 4.55205 26.4496 4.56494H26.4626C27.2174 4.90021 27.9721 5.23548 28.7268 5.58364L29.1952 5.80286C29.2213 5.81575 29.2603 5.85444 29.2863 5.88023L29.4034 5.98339L29.1692 6.1897C29.1172 6.22839 29.0651 6.26707 29.0261 6.30576L26.9831 7.81446C25.2525 9.10395 23.5609 10.3805 21.8302 11.6571C21.531 11.8893 21.4008 12.1472 21.4008 12.5727C21.4269 14.9196 21.4269 17.2148 21.4269 19.7423ZM24.9532 4.07494C24.8361 4.1781 24.745 4.24257 24.6669 4.30705L17.8485 9.40054C17.6533 9.55527 17.4711 9.58106 17.2369 9.46501C15.7535 8.75579 14.2701 8.04657 12.7736 7.33735L11.3163 6.65392C11.2772 6.62813 11.2252 6.60234 11.1601 6.56366C11.1081 6.53787 11.069 6.51208 11.004 6.48629L10.8218 6.40892L11.056 6.22839C11.1211 6.17681 11.1731 6.13812 11.2382 6.09944C13.7626 4.50047 16.3 2.9015 18.7853 1.34122C18.9155 1.25095 19.1367 1.22516 19.2668 1.27674C21.0495 2.07623 22.8062 2.88861 24.5758 3.71388L25.0703 3.97178L24.9532 4.07494Z" fill="#2A2A2A"/>
</g>
<defs>
<clipPath id="clip0_42_607">
<rect width="37.7358" height="40" fill="white" transform="translate(2)"/>
</clipPath>
</defs>
</svg>
