<svg width="40" height="38" viewBox="0 0 40 38" fill="none" xmlns="http://www.w3.org/2000/svg">
<path d="M28.9456 0.765625C27.4377 1.59375 26.5159 1.79688 25.0159 1.63281C24.4534 1.57031 24.4456 1.57031 24.2112 1.80469L23.9768 2.03906L24.0002 6.04688L24.0237 10.0547L24.2346 10.6875C24.6018 11.7656 25.2659 12.6484 26.1877 13.2969C26.7659 13.7031 29.0081 14.7031 29.3362 14.7031C29.594 14.7031 31.594 13.8516 32.1799 13.4922C33.3752 12.7734 34.1799 11.6641 34.5393 10.2656C34.6721 9.72656 34.6877 9.375 34.6877 5.82812V1.98438L34.4456 1.78125C34.1799 1.55469 34.1643 1.55469 33.3987 1.65625C32.3596 1.79688 31.0159 1.50781 30.0549 0.9375C29.5549 0.648438 29.2502 0.59375 28.9456 0.765625ZM31.2034 2.91406C31.5862 3.00781 32.1252 3.07812 32.5549 3.08594L33.2815 3.10156V6.32031C33.2815 9.48438 33.2815 9.55469 33.1018 10.1172C32.8831 10.8047 32.4612 11.4609 31.9612 11.8984C31.6331 12.1797 30.2893 12.9062 30.0862 12.9062C30.0237 12.9062 30.0002 11.4062 30.0002 7.71094V2.51562L30.2893 2.63281C30.4456 2.70312 30.8596 2.82812 31.2034 2.91406ZM28.594 7.75C28.594 10.5859 28.5784 12.9062 28.5549 12.9062C28.5315 12.9062 28.1799 12.75 27.7659 12.5547C26.594 12.0078 25.8049 11.1094 25.5081 9.97656C25.4143 9.59375 25.3909 8.9375 25.3909 6.30469V3.10156L26.0784 3.09375C26.719 3.07812 27.9846 2.84375 28.2659 2.67188C28.6018 2.47656 28.594 2.35156 28.594 7.75Z" fill="#2A2A2A"/>
<path d="M18.8675 3.34358C18.0472 3.40608 16.6878 3.62483 15.805 3.84358C13.3831 4.43733 11.0706 5.57796 9.10187 7.16389C8.29718 7.80452 7.00031 9.07796 6.78156 9.42952C6.57062 9.78108 6.60187 10.0701 6.87531 10.3436C7.08625 10.5467 7.15656 10.578 7.39875 10.5389C7.62531 10.4998 7.83625 10.328 8.54718 9.60921C9.97687 8.15608 11.3675 7.15608 13.1487 6.30452C15.1409 5.35921 17.0394 4.87483 19.3753 4.74202C19.8753 4.71077 20.3362 4.64827 20.3987 4.59358C20.7347 4.35139 20.7894 3.87483 20.5159 3.55452C20.3519 3.36702 20.2737 3.34358 19.7972 3.32796C19.5003 3.32014 19.0862 3.32796 18.8675 3.34358Z" fill="#2A2A2A"/>
<path d="M18.6328 10.7186C17.125 10.953 15.8593 12.1171 15.4609 13.6249C15.0781 15.0702 15.4531 16.4842 16.4843 17.5155L16.9921 18.0233L15.0937 19.8983C14.0546 20.9296 13.164 21.7811 13.125 21.7967C13.0546 21.8202 9.81246 19.5233 9.72652 19.3905C9.70308 19.3514 9.83589 19.1796 10.0156 19.0077L10.3515 18.6952L11.3359 18.6874C12.2734 18.6874 12.3281 18.6796 12.4921 18.4999C12.8125 18.1639 12.7421 17.9374 11.6406 15.6952C10.7187 13.8202 10.5625 13.5546 10.1562 13.1561C9.61714 12.6171 8.92183 12.2499 8.08589 12.0702C6.82808 11.7967 5.44527 12.2264 4.49996 13.1717C4.07027 13.6092 3.92964 13.8436 3.02339 15.6717C2.46871 16.7889 1.99996 17.7967 1.97652 17.9061C1.93746 18.1327 2.05464 18.4296 2.25777 18.5858C2.34371 18.6483 2.71089 18.6796 3.34371 18.6874H4.29683L4.63277 18.9999L4.96871 19.3046L2.64839 21.6327C1.37496 22.9139 0.26558 24.0858 0.187455 24.2342C0.10933 24.3983 0.0390177 24.7499 0.0155802 25.0936C-0.0156698 25.578 0.0155802 25.7577 0.148393 26.0858C0.664018 27.2655 2.06246 27.6717 3.28902 26.9921C3.31246 26.9764 3.02339 28.2186 2.64058 29.7577C1.85933 32.8983 1.85152 32.9921 2.34371 33.2342C2.53902 33.3358 2.80464 33.3749 3.29683 33.3749H3.96871L3.99996 34.6952L4.02339 36.0077L4.28902 36.3983C4.91402 37.3124 6.03121 37.5936 6.99214 37.0858L7.34371 36.8983L7.74996 37.1092C8.07808 37.2811 8.25777 37.3202 8.67183 37.3124C9.25777 37.3046 9.61714 37.1717 10.0312 36.8124C10.5859 36.3202 10.6562 36.078 10.6875 34.6405L10.7187 33.3749H11.3593C12.1796 33.3749 12.4531 33.2811 12.6093 32.9452C12.7265 32.6952 12.7109 32.6014 11.914 29.3514C11.4609 27.5233 11.0937 26.0077 11.0937 25.9999C11.0937 25.9842 11.3828 26.1171 11.7421 26.2967C12.375 26.6171 12.3906 26.6171 13.2421 26.6171C14.289 26.6171 14.3906 26.5702 15.289 25.6952L15.9296 25.0702L15.9531 30.453L15.9765 35.8358L16.1562 36.1874C16.5625 36.9608 17.1406 37.3124 18.0078 37.3124C18.4609 37.3124 18.625 37.2733 18.9453 37.1014L19.3437 36.8827L19.7265 37.1014C20.0546 37.2811 20.2031 37.3202 20.664 37.3202C21.5625 37.3124 22.1484 36.9296 22.5312 36.1092C22.6953 35.7655 22.6953 35.6483 22.7187 30.4139L22.7421 25.0702L24.0078 26.3202C25.3203 27.6171 25.6875 27.8749 26.4921 28.0546C26.9843 28.1717 27.8046 28.1561 28.2265 28.0311L28.5859 27.9217L28.6093 31.8436L28.6328 35.7577L28.8593 36.2108C29.3671 37.2499 30.6406 37.6483 31.6328 37.078L31.9843 36.8827L32.375 37.1014C32.7031 37.2733 32.875 37.3124 33.3203 37.3124C34.1718 37.3202 34.8046 36.9296 35.1718 36.1952C35.3515 35.8358 35.3515 35.7967 35.3906 32.0936L35.4296 28.3514L36.0859 28.953C36.8984 29.6952 37.0859 29.7967 37.7812 29.8436C38.2578 29.8749 38.4062 29.8514 38.7578 29.6874C39.5625 29.3124 39.9296 28.7811 39.9843 27.9139C40.0468 26.8827 40.0546 26.8983 37.039 23.8983C35.5937 22.4452 34.3593 21.2655 34.2968 21.2655C34.2343 21.2655 34.2812 21.1639 34.4218 21.0077C34.9531 20.453 35.2656 19.7499 35.3515 18.953C35.414 18.4217 35.2578 17.6249 34.9921 17.1092C34.7187 16.578 34.039 15.9217 33.4609 15.6405C33.0078 15.4139 32.8359 15.3749 32.1875 15.3436C31.5703 15.3202 31.3593 15.3358 30.9453 15.4842C30.0546 15.7811 29.3515 16.4061 28.9296 17.2733C28.7265 17.6796 28.7109 17.7889 28.7109 18.6483C28.7109 19.5546 28.7187 19.6014 28.9687 20.1171C29.1171 20.4139 29.3828 20.8046 29.5625 20.9999C29.7421 21.1874 29.8671 21.3436 29.8359 21.3436C29.8046 21.3436 29.4375 21.6717 29.0078 22.0702C27.8515 23.1639 27.7734 23.2186 27.3984 23.2186C27.2187 23.2108 26.9921 23.1717 26.8906 23.1171C26.7968 23.0624 25.5859 21.8905 24.1953 20.5155L21.6796 18.0077L22.1562 17.5467C24.125 15.6405 23.6015 12.3124 21.1406 11.1092C20.2812 10.6874 19.5625 10.578 18.6328 10.7186ZM19.9453 12.1639C20.4921 12.3046 20.8828 12.5467 21.2812 12.9842C21.75 13.4999 21.9062 13.9296 21.914 14.6639C21.914 15.2186 21.8828 15.3514 21.6562 15.8124C21.2109 16.7186 20.4531 17.2186 19.4531 17.2655C18.3906 17.3202 17.4765 16.7811 16.9921 15.8202C16.789 15.4217 16.7578 15.2811 16.7578 14.703C16.7578 14.1483 16.789 13.9686 16.9609 13.6092C17.3046 12.8905 17.9296 12.3749 18.6953 12.1639C19.2265 12.0233 19.4062 12.0233 19.9453 12.1639ZM7.92964 13.4921C8.44527 13.6249 9.09371 14.0311 9.34371 14.3671C9.46871 14.5389 10.7812 17.1639 10.7812 17.2421C10.7812 17.2499 10.5312 17.2811 10.2343 17.2967C9.68746 17.3358 9.67964 17.3436 9.21871 17.7811C8.55464 18.4139 8.17964 18.5702 7.30464 18.5702C6.46871 18.5624 6.17964 18.4374 5.46871 17.7889C5.00777 17.3671 4.91402 17.328 4.09371 17.2655L3.85152 17.2421L4.52339 15.8749C5.38277 14.1171 5.74214 13.7342 6.75777 13.4842C7.28121 13.3514 7.39058 13.3592 7.92964 13.4921ZM32.7734 16.9217C33.4921 17.2577 33.9375 17.9217 33.9375 18.6874C33.9375 20.0546 32.4765 21.0311 31.25 20.4764C30.8281 20.2889 30.6015 20.0858 30.3203 19.6639C30.1406 19.3905 30.1171 19.2733 30.1171 18.6874C30.1171 18.1014 30.1406 17.9842 30.3203 17.7108C30.914 16.8124 31.8828 16.4999 32.7734 16.9217ZM20.4453 18.9999C20.7343 19.1249 21.3828 19.7264 23.3593 21.6952C26.2187 24.5389 26.3437 24.6327 27.2968 24.6327C28.2656 24.6327 28.539 24.4921 29.7968 23.3046C30.7578 22.3983 31.164 22.1874 31.9921 22.1405C32.5 22.1171 32.7031 22.1405 33.0859 22.2811C33.5234 22.4452 33.7187 22.6249 36.0781 24.9686C38.4531 27.3358 38.5937 27.4921 38.5937 27.7577C38.5937 28.1327 38.289 28.453 37.9218 28.453C37.6484 28.453 37.4062 28.2655 35.9375 26.8514C35.5703 26.4999 35.1875 26.1483 35.0781 26.078C34.789 25.8905 34.4062 25.9139 34.1796 26.1483L33.9843 26.3358V30.7967C33.9843 35.6639 33.9765 35.7108 33.5468 35.8749C33.2968 35.9764 33.0937 35.9217 32.8906 35.6952C32.7421 35.5389 32.7343 35.4061 32.7343 32.9296C32.7343 30.1561 32.7031 29.8983 32.3593 29.7108C32.0859 29.5624 31.7265 29.6092 31.5234 29.8202L31.3281 30.0077V32.6327C31.3281 34.6796 31.3046 35.3124 31.2187 35.5155C30.9765 36.0858 30.25 36.0311 30.0859 35.4217C30.0312 35.2421 30 33.5389 30 30.7342V26.3358L29.8046 26.1483C29.5234 25.8592 29.1953 25.8905 28.6406 26.2655C28.3906 26.4374 28.039 26.6171 27.8593 26.6639C27.4218 26.7811 26.8046 26.7186 26.3984 26.5077C26.1875 26.3983 25.3515 25.6327 24.2187 24.5077C23.0781 23.3749 22.3046 22.6639 22.1718 22.6327C21.9062 22.5624 21.6796 22.6405 21.4843 22.8514C21.3281 23.0077 21.3281 23.1561 21.3281 29.1171C21.3281 33.3905 21.3046 35.3046 21.2421 35.4764C21.1171 35.8202 20.7656 35.9999 20.4531 35.8671C20 35.6796 20 35.6561 20 31.1249V26.9921L19.8281 26.8358C19.5703 26.6092 19.3828 26.5624 19.1093 26.6561C18.6171 26.8124 18.6328 26.6796 18.6171 31.2264C18.6015 33.4999 18.5781 35.4452 18.5546 35.5389C18.5312 35.6405 18.4062 35.7733 18.2734 35.8436C18.0703 35.9452 17.9921 35.953 17.7968 35.8671C17.3359 35.6796 17.3437 35.8358 17.3437 29.1327C17.3437 23.1561 17.3437 23.0077 17.1875 22.8514C16.9921 22.6405 16.7656 22.5624 16.5 22.6327C16.375 22.6639 15.7578 23.2108 14.9921 23.9686L13.6953 25.2499H13.2578C12.8671 25.2499 12.7031 25.1874 11.539 24.5858C10.1562 23.8671 9.82027 23.7889 9.53121 24.078C9.44527 24.1639 9.35933 24.3202 9.32808 24.4296C9.29683 24.5546 9.58589 25.8514 10.1562 28.1639C10.6328 30.1014 11.0468 31.7577 11.0703 31.828C11.1015 31.953 11.0312 31.9686 10.4375 31.9686C10.0781 31.9686 9.71871 31.9921 9.64839 32.0155C9.35152 32.1327 9.29683 32.4452 9.29683 33.9921C9.29683 35.4374 9.28902 35.4842 9.11714 35.6874C8.87496 35.9608 8.51558 35.9764 8.24214 35.7186C8.04683 35.5389 8.04683 35.5311 8.04683 34.0233C8.04683 32.4921 8.01558 32.2811 7.74214 32.0702C7.52339 31.8983 7.04683 31.9452 6.83589 32.1639C6.64058 32.3514 6.64058 32.3671 6.64058 33.8592C6.64058 35.4842 6.60152 35.6796 6.23433 35.8514C5.97652 35.9764 5.60933 35.8592 5.48433 35.6171C5.42964 35.5155 5.38277 34.8514 5.37496 33.9061C5.35152 32.4061 5.35152 32.3671 5.16402 32.1717C4.98433 31.9842 4.92183 31.9686 4.28121 31.9686C3.90621 31.9686 3.59371 31.9452 3.59371 31.9217C3.59371 31.8983 3.99996 30.2421 4.49214 28.2421C4.98433 26.2421 5.39058 24.5546 5.39058 24.4999C5.39058 24.4452 5.29683 24.2967 5.18746 24.1639C5.02339 23.9686 4.92964 23.9217 4.66402 23.9217C4.36714 23.9217 4.29683 23.9686 3.36714 24.8905C2.82808 25.4217 2.30464 25.8827 2.21089 25.9061C2.00777 25.9686 1.60152 25.7811 1.48433 25.5702C1.44527 25.4842 1.40621 25.3046 1.40621 25.1639C1.40621 24.9374 1.62496 24.6874 3.53121 22.7655C4.70308 21.5858 5.79683 20.5389 5.96089 20.4374C6.60933 20.0155 7.63277 19.9374 8.32808 20.2499C8.52339 20.328 8.99996 20.6405 9.39839 20.9374C11.0468 22.1717 12.7109 23.3358 12.9687 23.4217C13.1484 23.4842 13.2968 23.4921 13.4375 23.4374C13.5468 23.3983 14.5859 22.4217 15.7421 21.2655C17.9687 19.0467 18.164 18.8905 18.9765 18.7733C19.4375 18.703 19.9687 18.7889 20.4453 18.9999Z" fill="#2A2A2A"/>
<path d="M36.8515 13.4531C36.4843 13.7422 36.4921 13.9609 36.9453 15.1328C37.539 16.6718 37.9687 18.8984 37.9687 20.4609C37.9687 20.9843 38.0625 21.1718 38.3984 21.3125C38.7421 21.4531 39.1015 21.3359 39.2578 21.0234C39.4687 20.625 39.3593 18.9297 39.0156 17.2187C38.8203 16.2422 38.2812 14.4843 37.9765 13.8359C37.7265 13.3047 37.25 13.1406 36.8515 13.4531Z" fill="#2A2A2A"/>
</svg>
